<?xml version="1.0" encoding="utf-8" standalone="no"?>
<!DOCTYPE svg PUBLIC "-//W3C//DTD SVG 1.1//EN"
  "http://www.w3.org/Graphics/SVG/1.1/DTD/svg11.dtd">
<svg xmlns:xlink="http://www.w3.org/1999/xlink" width="460.8pt" height="345.6pt" viewBox="0 0 460.8 345.6" xmlns="http://www.w3.org/2000/svg" version="1.1">
 <metadata>
  <rdf:RDF xmlns:dc="http://purl.org/dc/elements/1.1/" xmlns:cc="http://creativecommons.org/ns#" xmlns:rdf="http://www.w3.org/1999/02/22-rdf-syntax-ns#">
   <cc:Work>
    <dc:type rdf:resource="http://purl.org/dc/dcmitype/StillImage"/>
    <dc:date>2023-10-23T21:33:03.363508</dc:date>
    <dc:format>image/svg+xml</dc:format>
    <dc:creator>
     <cc:Agent>
      <dc:title>Matplotlib v3.8.0, https://matplotlib.org/</dc:title>
     </cc:Agent>
    </dc:creator>
   </cc:Work>
  </rdf:RDF>
 </metadata>
 <defs>
  <style type="text/css">*{stroke-linejoin: round; stroke-linecap: butt}</style>
 </defs>
 <g id="figure_1">
  <g id="patch_1">
   <path d="M 0 345.6 
L 460.8 345.6 
L 460.8 0 
L 0 0 
z
" style="fill: #ffffff"/>
  </g>
  <g id="patch_2">
   <path d="M 103.104 307.584 
L 369.216 307.584 
L 369.216 41.472 
L 103.104 41.472 
z
" style="fill: #ffffff"/>
  </g>
  <g id="pane3d_1">
   <g id="patch_3">
    <path d="M 123.197291 241.969309 
L 211.076164 168.307495 
L 209.854564 62.073991 
L 117.770234 129.272941 
" style="fill: #f2f2f2; opacity: 0.5; stroke: #f2f2f2; stroke-linejoin: miter"/>
   </g>
  </g>
  <g id="pane3d_2">
   <g id="patch_4">
    <path d="M 211.076164 168.307495 
L 352.090401 209.294766 
L 357.122702 99.402171 
L 209.854564 62.073991 
" style="fill: #e6e6e6; opacity: 0.5; stroke: #e6e6e6; stroke-linejoin: miter"/>
   </g>
  </g>
  <g id="pane3d_3">
   <g id="patch_5">
    <path d="M 123.197291 241.969309 
L 272.679269 290.790123 
L 352.090401 209.294766 
L 211.076164 168.307495 
" style="fill: #ececec; opacity: 0.5; stroke: #ececec; stroke-linejoin: miter"/>
   </g>
  </g>
  <g id="grid3d_1">
   <g id="Line3DCollection_1">
    <path d="M 139.745029 247.3738 
L 226.747915 172.862654 
L 226.190662 66.214715 
" style="fill: none; stroke: #b0b0b0; stroke-width: 0.8"/>
    <path d="M 167.574724 256.462979 
L 253.069813 180.513391 
L 253.645623 73.173748 
" style="fill: none; stroke: #b0b0b0; stroke-width: 0.8"/>
    <path d="M 195.967881 265.736184 
L 279.880048 188.306068 
L 281.632185 80.267526 
" style="fill: none; stroke: #b0b0b0; stroke-width: 0.8"/>
    <path d="M 224.941789 275.199062 
L 307.192338 196.244672 
L 310.165939 87.500001 
" style="fill: none; stroke: #b0b0b0; stroke-width: 0.8"/>
    <path d="M 254.514447 284.857492 
L 335.020917 204.333341 
L 339.263092 94.875281 
" style="fill: none; stroke: #b0b0b0; stroke-width: 0.8"/>
   </g>
  </g>
  <g id="grid3d_2">
   <g id="Line3DCollection_2">
    <path d="M 129.321936 120.843035 
L 134.184874 232.759299 
L 282.646541 280.56125 
" style="fill: none; stroke: #b0b0b0; stroke-width: 0.8"/>
    <path d="M 147.908894 107.279119 
L 151.886109 217.921773 
L 298.68087 264.106083 
" style="fill: none; stroke: #b0b0b0; stroke-width: 0.8"/>
    <path d="M 165.860779 94.178651 
L 169.008295 203.569617 
L 314.163547 248.217048 
" style="fill: none; stroke: #b0b0b0; stroke-width: 0.8"/>
    <path d="M 183.209592 81.518278 
L 185.579387 189.679399 
L 329.122557 232.865423 
" style="fill: none; stroke: #b0b0b0; stroke-width: 0.8"/>
    <path d="M 199.985219 69.276189 
L 201.62557 176.22917 
L 343.584028 218.024397 
" style="fill: none; stroke: #b0b0b0; stroke-width: 0.8"/>
   </g>
  </g>
  <g id="grid3d_3">
   <g id="Line3DCollection_3">
    <path d="M 352.651911 197.032811 
L 210.939601 156.431576 
L 122.59264 229.41333 
" style="fill: none; stroke: #b0b0b0; stroke-width: 0.8"/>
    <path d="M 353.593746 176.465549 
L 210.710684 136.52439 
L 121.577933 208.34229 
" style="fill: none; stroke: #b0b0b0; stroke-width: 0.8"/>
    <path d="M 354.551427 155.552235 
L 210.478101 116.298387 
L 120.545497 186.903085 
" style="fill: none; stroke: #b0b0b0; stroke-width: 0.8"/>
    <path d="M 355.525359 134.284061 
L 210.241763 95.745848 
L 119.494863 165.085982 
" style="fill: none; stroke: #b0b0b0; stroke-width: 0.8"/>
    <path d="M 356.515957 112.651918 
L 210.001579 74.858801 
L 118.425545 142.8809 
" style="fill: none; stroke: #b0b0b0; stroke-width: 0.8"/>
   </g>
  </g>
  <g id="axis3d_1">
   <g id="line2d_1">
    <path d="M 123.197291 241.969309 
L 272.679269 290.790123 
" style="fill: none; stroke: #000000; stroke-width: 0.8; stroke-linecap: square"/>
   </g>
   <g id="xtick_1">
    <g id="line2d_2">
     <path d="M 140.502812 246.724819 
L 138.226203 248.674556 
" style="fill: none; stroke: #000000; stroke-width: 0.8; stroke-linecap: square"/>
    </g>
    <g id="text_1">
     <!-- −0.4 -->
     <g transform="translate(120.082057 270.734746) scale(0.1 -0.1)">
      <defs>
       <path id="DejaVuSans-2212" d="M 678 2272 
L 4684 2272 
L 4684 1741 
L 678 1741 
L 678 2272 
z
" transform="scale(0.015625)"/>
       <path id="DejaVuSans-30" d="M 2034 4250 
Q 1547 4250 1301 3770 
Q 1056 3291 1056 2328 
Q 1056 1369 1301 889 
Q 1547 409 2034 409 
Q 2525 409 2770 889 
Q 3016 1369 3016 2328 
Q 3016 3291 2770 3770 
Q 2525 4250 2034 4250 
z
M 2034 4750 
Q 2819 4750 3233 4129 
Q 3647 3509 3647 2328 
Q 3647 1150 3233 529 
Q 2819 -91 2034 -91 
Q 1250 -91 836 529 
Q 422 1150 422 2328 
Q 422 3509 836 4129 
Q 1250 4750 2034 4750 
z
" transform="scale(0.015625)"/>
       <path id="DejaVuSans-2e" d="M 684 794 
L 1344 794 
L 1344 0 
L 684 0 
L 684 794 
z
" transform="scale(0.015625)"/>
       <path id="DejaVuSans-34" d="M 2419 4116 
L 825 1625 
L 2419 1625 
L 2419 4116 
z
M 2253 4666 
L 3047 4666 
L 3047 1625 
L 3713 1625 
L 3713 1100 
L 3047 1100 
L 3047 0 
L 2419 0 
L 2419 1100 
L 313 1100 
L 313 1709 
L 2253 4666 
z
" transform="scale(0.015625)"/>
      </defs>
      <use xlink:href="#DejaVuSans-2212"/>
      <use xlink:href="#DejaVuSans-30" x="83.789062"/>
      <use xlink:href="#DejaVuSans-2e" x="147.412109"/>
      <use xlink:href="#DejaVuSans-34" x="179.199219"/>
     </g>
    </g>
   </g>
   <g id="xtick_2">
    <g id="line2d_3">
     <path d="M 168.319982 255.800928 
L 166.08097 257.789956 
" style="fill: none; stroke: #000000; stroke-width: 0.8; stroke-linecap: square"/>
    </g>
    <g id="text_2">
     <!-- −0.2 -->
     <g transform="translate(147.940862 280.01671) scale(0.1 -0.1)">
      <defs>
       <path id="DejaVuSans-32" d="M 1228 531 
L 3431 531 
L 3431 0 
L 469 0 
L 469 531 
Q 828 903 1448 1529 
Q 2069 2156 2228 2338 
Q 2531 2678 2651 2914 
Q 2772 3150 2772 3378 
Q 2772 3750 2511 3984 
Q 2250 4219 1831 4219 
Q 1534 4219 1204 4116 
Q 875 4013 500 3803 
L 500 4441 
Q 881 4594 1212 4672 
Q 1544 4750 1819 4750 
Q 2544 4750 2975 4387 
Q 3406 4025 3406 3419 
Q 3406 3131 3298 2873 
Q 3191 2616 2906 2266 
Q 2828 2175 2409 1742 
Q 1991 1309 1228 531 
z
" transform="scale(0.015625)"/>
      </defs>
      <use xlink:href="#DejaVuSans-2212"/>
      <use xlink:href="#DejaVuSans-30" x="83.789062"/>
      <use xlink:href="#DejaVuSans-2e" x="147.412109"/>
      <use xlink:href="#DejaVuSans-32" x="179.199219"/>
     </g>
    </g>
   </g>
   <g id="xtick_3">
    <g id="line2d_4">
     <path d="M 196.69995 265.060666 
L 194.500531 267.090184 
" style="fill: none; stroke: #000000; stroke-width: 0.8; stroke-linecap: square"/>
    </g>
    <g id="text_3">
     <!-- 0.0 -->
     <g transform="translate(180.555708 289.487318) scale(0.1 -0.1)">
      <use xlink:href="#DejaVuSans-30"/>
      <use xlink:href="#DejaVuSans-2e" x="63.623047"/>
      <use xlink:href="#DejaVuSans-30" x="95.410156"/>
     </g>
    </g>
   </g>
   <g id="xtick_4">
    <g id="line2d_5">
     <path d="M 225.659969 274.509662 
L 223.502242 276.580919 
" style="fill: none; stroke: #000000; stroke-width: 0.8; stroke-linecap: square"/>
    </g>
    <g id="text_4">
     <!-- 0.2 -->
     <g transform="translate(209.564345 299.152381) scale(0.1 -0.1)">
      <use xlink:href="#DejaVuSans-30"/>
      <use xlink:href="#DejaVuSans-2e" x="63.623047"/>
      <use xlink:href="#DejaVuSans-32" x="95.410156"/>
     </g>
    </g>
   </g>
   <g id="xtick_5">
    <g id="line2d_6">
     <path d="M 255.218008 284.153777 
L 253.104175 286.268074 
" style="fill: none; stroke: #000000; stroke-width: 0.8; stroke-linecap: square"/>
    </g>
    <g id="text_5">
     <!-- 0.4 -->
     <g transform="translate(239.174779 309.01795) scale(0.1 -0.1)">
      <use xlink:href="#DejaVuSans-30"/>
      <use xlink:href="#DejaVuSans-2e" x="63.623047"/>
      <use xlink:href="#DejaVuSans-34" x="95.410156"/>
     </g>
    </g>
   </g>
   <g id="text_6">
    <!-- r -->
    <g transform="translate(177.620959 303.76759) scale(0.1 -0.1)">
     <defs>
      <path id="DejaVuSans-72" d="M 2631 2963 
Q 2534 3019 2420 3045 
Q 2306 3072 2169 3072 
Q 1681 3072 1420 2755 
Q 1159 2438 1159 1844 
L 1159 0 
L 581 0 
L 581 3500 
L 1159 3500 
L 1159 2956 
Q 1341 3275 1631 3429 
Q 1922 3584 2338 3584 
Q 2397 3584 2469 3576 
Q 2541 3569 2628 3553 
L 2631 2963 
z
" transform="scale(0.015625)"/>
     </defs>
     <use xlink:href="#DejaVuSans-72"/>
    </g>
   </g>
  </g>
  <g id="axis3d_2">
   <g id="line2d_7">
    <path d="M 352.090401 209.294766 
L 272.679269 290.790123 
" style="fill: none; stroke: #000000; stroke-width: 0.8; stroke-linecap: square"/>
   </g>
   <g id="xtick_6">
    <g id="line2d_8">
     <path d="M 281.395758 280.158521 
L 285.151326 281.367745 
" style="fill: none; stroke: #000000; stroke-width: 0.8; stroke-linecap: square"/>
    </g>
    <g id="text_7">
     <!-- −0.4 -->
     <g transform="translate(283.325813 301.514986) scale(0.1 -0.1)">
      <use xlink:href="#DejaVuSans-2212"/>
      <use xlink:href="#DejaVuSans-30" x="83.789062"/>
      <use xlink:href="#DejaVuSans-2e" x="147.412109"/>
      <use xlink:href="#DejaVuSans-34" x="179.199219"/>
     </g>
    </g>
   </g>
   <g id="xtick_7">
    <g id="line2d_9">
     <path d="M 297.445222 263.717326 
L 301.155291 264.884581 
" style="fill: none; stroke: #000000; stroke-width: 0.8; stroke-linecap: square"/>
    </g>
    <g id="text_8">
     <!-- −0.2 -->
     <g transform="translate(299.144994 284.816287) scale(0.1 -0.1)">
      <use xlink:href="#DejaVuSans-2212"/>
      <use xlink:href="#DejaVuSans-30" x="83.789062"/>
      <use xlink:href="#DejaVuSans-2e" x="147.412109"/>
      <use xlink:href="#DejaVuSans-32" x="179.199219"/>
     </g>
    </g>
   </g>
   <g id="xtick_8">
    <g id="line2d_10">
     <path d="M 312.942742 247.841548 
L 316.608191 248.968982 
" style="fill: none; stroke: #000000; stroke-width: 0.8; stroke-linecap: square"/>
    </g>
    <g id="text_9">
     <!-- 0.0 -->
     <g transform="translate(318.609453 268.692429) scale(0.1 -0.1)">
      <use xlink:href="#DejaVuSans-30"/>
      <use xlink:href="#DejaVuSans-2e" x="63.623047"/>
      <use xlink:href="#DejaVuSans-30" x="95.410156"/>
     </g>
    </g>
   </g>
   <g id="xtick_9">
    <g id="line2d_11">
     <path d="M 327.916306 232.502514 
L 331.538007 233.592129 
" style="fill: none; stroke: #000000; stroke-width: 0.8; stroke-linecap: square"/>
    </g>
    <g id="text_10">
     <!-- 0.2 -->
     <g transform="translate(333.367149 253.114231) scale(0.1 -0.1)">
      <use xlink:href="#DejaVuSans-30"/>
      <use xlink:href="#DejaVuSans-2e" x="63.623047"/>
      <use xlink:href="#DejaVuSans-32" x="95.410156"/>
     </g>
    </g>
   </g>
   <g id="xtick_10">
    <g id="line2d_12">
     <path d="M 342.392046 217.673455 
L 345.970856 218.727124 
" style="fill: none; stroke: #000000; stroke-width: 0.8; stroke-linecap: square"/>
    </g>
    <g id="text_11">
     <!-- 0.4 -->
     <g transform="translate(347.633727 238.054456) scale(0.1 -0.1)">
      <use xlink:href="#DejaVuSans-30"/>
      <use xlink:href="#DejaVuSans-2e" x="63.623047"/>
      <use xlink:href="#DejaVuSans-34" x="95.410156"/>
     </g>
    </g>
   </g>
   <g id="text_12">
    <!-- z -->
    <g transform="translate(338.508563 278.988697) scale(0.1 -0.1)">
     <defs>
      <path id="DejaVuSans-7a" d="M 353 3500 
L 3084 3500 
L 3084 2975 
L 922 459 
L 3084 459 
L 3084 0 
L 275 0 
L 275 525 
L 2438 3041 
L 353 3041 
L 353 3500 
z
" transform="scale(0.015625)"/>
     </defs>
     <use xlink:href="#DejaVuSans-7a"/>
    </g>
   </g>
  </g>
  <g id="axis3d_3">
   <g id="line2d_13">
    <path d="M 352.090401 209.294766 
L 357.122702 99.402171 
" style="fill: none; stroke: #000000; stroke-width: 0.8; stroke-linecap: square"/>
   </g>
   <g id="xtick_11">
    <g id="line2d_14">
     <path d="M 351.462276 196.691975 
L 355.034024 197.715298 
" style="fill: none; stroke: #000000; stroke-width: 0.8; stroke-linecap: square"/>
    </g>
    <g id="text_13">
     <!-- −0.4 -->
     <g transform="translate(358.848394 202.050217) scale(0.1 -0.1)">
      <use xlink:href="#DejaVuSans-2212"/>
      <use xlink:href="#DejaVuSans-30" x="83.789062"/>
      <use xlink:href="#DejaVuSans-2e" x="147.412109"/>
      <use xlink:href="#DejaVuSans-34" x="179.199219"/>
     </g>
    </g>
   </g>
   <g id="xtick_12">
    <g id="line2d_15">
     <path d="M 352.393813 176.130123 
L 355.996504 177.13721 
" style="fill: none; stroke: #000000; stroke-width: 0.8; stroke-linecap: square"/>
    </g>
    <g id="text_14">
     <!-- −0.2 -->
     <g transform="translate(359.939887 181.523976) scale(0.1 -0.1)">
      <use xlink:href="#DejaVuSans-2212"/>
      <use xlink:href="#DejaVuSans-30" x="83.789062"/>
      <use xlink:href="#DejaVuSans-2e" x="147.412109"/>
      <use xlink:href="#DejaVuSans-32" x="179.199219"/>
     </g>
    </g>
   </g>
   <g id="xtick_13">
    <g id="line2d_16">
     <path d="M 353.341016 155.22245 
L 356.975191 156.212608 
" style="fill: none; stroke: #000000; stroke-width: 0.8; stroke-linecap: square"/>
    </g>
    <g id="text_15">
     <!-- 0.0 -->
     <g transform="translate(365.239531 160.653431) scale(0.1 -0.1)">
      <use xlink:href="#DejaVuSans-30"/>
      <use xlink:href="#DejaVuSans-2e" x="63.623047"/>
      <use xlink:href="#DejaVuSans-30" x="95.410156"/>
     </g>
    </g>
   </g>
   <g id="xtick_14">
    <g id="line2d_17">
     <path d="M 354.304285 133.960157 
L 357.970499 134.932664 
" style="fill: none; stroke: #000000; stroke-width: 0.8; stroke-linecap: square"/>
    </g>
    <g id="text_16">
     <!-- 0.2 -->
     <g transform="translate(366.368105 139.429846) scale(0.1 -0.1)">
      <use xlink:href="#DejaVuSans-30"/>
      <use xlink:href="#DejaVuSans-2e" x="63.623047"/>
      <use xlink:href="#DejaVuSans-32" x="95.410156"/>
     </g>
    </g>
   </g>
   <g id="xtick_15">
    <g id="line2d_18">
     <path d="M 355.284032 112.334145 
L 358.982853 113.288249 
" style="fill: none; stroke: #000000; stroke-width: 0.8; stroke-linecap: square"/>
    </g>
    <g id="text_17">
     <!-- 0.4 -->
     <g transform="translate(367.515933 117.844187) scale(0.1 -0.1)">
      <use xlink:href="#DejaVuSans-30"/>
      <use xlink:href="#DejaVuSans-2e" x="63.623047"/>
      <use xlink:href="#DejaVuSans-34" x="95.410156"/>
     </g>
    </g>
   </g>
   <g id="text_18">
    <!-- p_r -->
    <g transform="translate(387.197542 152.624154) scale(0.1 -0.1)">
     <defs>
      <path id="DejaVuSans-70" d="M 1159 525 
L 1159 -1331 
L 581 -1331 
L 581 3500 
L 1159 3500 
L 1159 2969 
Q 1341 3281 1617 3432 
Q 1894 3584 2278 3584 
Q 2916 3584 3314 3078 
Q 3713 2572 3713 1747 
Q 3713 922 3314 415 
Q 2916 -91 2278 -91 
Q 1894 -91 1617 61 
Q 1341 213 1159 525 
z
M 3116 1747 
Q 3116 2381 2855 2742 
Q 2594 3103 2138 3103 
Q 1681 3103 1420 2742 
Q 1159 2381 1159 1747 
Q 1159 1113 1420 752 
Q 1681 391 2138 391 
Q 2594 391 2855 752 
Q 3116 1113 3116 1747 
z
" transform="scale(0.015625)"/>
      <path id="DejaVuSans-5f" d="M 3263 -1063 
L 3263 -1509 
L -63 -1509 
L -63 -1063 
L 3263 -1063 
z
" transform="scale(0.015625)"/>
     </defs>
     <use xlink:href="#DejaVuSans-70"/>
     <use xlink:href="#DejaVuSans-5f" x="63.476562"/>
     <use xlink:href="#DejaVuSans-72" x="113.476562"/>
    </g>
   </g>
  </g>
  <g id="axes_1">
   <g id="line2d_19">
    <path d="M 252.402844 187.165793 
L 253.093157 185.940749 
L 255.65839 180.426734 
L 257.694166 173.00799 
L 257.411267 166.400083 
L 254.670875 161.392583 
L 248.977567 156.585199 
L 242.487788 152.417053 
L 235.571416 147.775669 
L 228.579697 141.918935 
L 224.215024 136.795957 
L 222.165027 132.703138 
L 222.622517 130.519506 
L 225.996855 132.024655 
L 232.026076 139.002732 
L 237.80052 148.262045 
L 243.538656 159.220089 
L 255.870434 184.941546 
L 260.258627 192.847294 
L 264.037148 198.026047 
L 267.539242 200.711837 
L 270.056771 200.445918 
L 271.141336 197.647575 
L 270.11672 193.720573 
L 266.581273 189.12813 
L 258.959289 183.384298 
L 247.202176 176.266241 
L 236.240559 168.911597 
L 225.928054 159.815112 
L 217.857313 149.11475 
L 214.033565 139.776743 
L 213.586459 131.613452 
L 216.470787 125.779881 
L 223.074918 123.271261 
L 232.9484 126.09739 
L 244.482379 134.800724 
L 254.875406 146.67047 
L 263.881123 159.803902 
L 271.834061 173.253101 
L 282.242886 191.80034 
L 287.894222 200.977015 
L 288.36022 202.447414 
L 286.867126 202.361381 
L 265.073449 197.273363 
L 251.06712 193.087118 
L 237.927545 187.577737 
L 225.087026 179.881041 
L 212.882196 168.895538 
L 203.910808 155.076759 
L 201.037031 144.682842 
L 201.805497 135.689757 
L 206.767168 128.542336 
L 216.575748 125.466095 
L 230.354299 128.336621 
L 245.086415 136.309009 
L 258.392292 146.525736 
L 271.600876 158.754756 
L 281.045911 168.362473 
L 295.845081 184.085801 
L 301.280455 190.250835 
L 304.318391 194.966409 
L 304.44464 197.898621 
L 302.273358 200.293256 
L 296.549652 202.789697 
L 285.95996 205.122864 
L 274.138764 206.291312 
L 260.212348 206.193934 
L 244.153477 204.068979 
L 226.546052 198.78691 
L 209.82142 189.77014 
L 195.962428 176.979852 
L 187.726894 162.392509 
L 186.132444 151.528376 
L 188.791293 143.063495 
L 196.622695 136.991329 
L 209.759445 135.743263 
L 226.493544 139.731349 
L 243.692327 146.836818 
L 259.158261 154.408085 
L 289.999464 170.069005 
L 299.22111 174.965516 
L 305.904631 179.358228 
L 309.577048 183.631608 
L 309.70343 188.594064 
L 305.112878 194.218602 
L 296.74937 199.497484 
L 285.97645 204.003932 
L 270.548456 208.143513 
L 251.416321 210.416519 
L 230.932678 209.418693 
L 213.051576 205.105745 
L 195.124563 196.155856 
L 181.788075 183.743487 
L 175.607846 172.358223 
L 174.535686 161.905013 
L 177.926571 154.456039 
L 186.141481 149.360069 
L 198.772358 147.855844 
L 214.553445 149.570627 
L 233.178715 153.429079 
L 251.603032 157.611984 
L 285.194688 164.749568 
L 294.90634 167.4683 
L 302.083728 171.111091 
L 304.91376 176.177133 
L 302.54088 182.048231 
L 295.783059 188.22051 
L 285.548002 194.127267 
L 270.256263 200.016471 
L 250.96539 204.339066 
L 232.424867 205.724253 
L 214.477743 204.333747 
L 195.480903 199.155114 
L 180.192975 190.54283 
L 172.072153 182.065702 
L 169.176398 175.456962 
L 169.548071 170.265099 
L 173.702609 165.846236 
L 182.162608 163.464726 
L 194.117823 163.023625 
L 210.874199 163.564459 
L 229.455908 163.71058 
L 248.806389 162.779539 
L 264.682317 161.541062 
L 278.290287 160.914061 
L 287.812551 161.833655 
L 292.425465 164.345516 
L 292.783607 168.394657 
L 289.106199 173.197723 
L 281.773531 178.363502 
L 269.896235 183.766198 
L 253.46744 188.322746 
L 235.354675 190.620851 
L 218.17785 190.485655 
L 201.208526 188.094726 
L 186.477842 183.932673 
L 178.903271 180.819178 
L 174.994699 178.756198 
L 174.528616 178.148576 
L 177.667412 178.994435 
L 184.791923 180.598354 
L 194.074143 181.106232 
L 205.562798 179.401502 
L 218.760104 175.068401 
L 232.756555 168.893728 
L 245.790104 162.713498 
L 259.079338 156.938241 
L 269.503634 153.631874 
L 275.530467 153.043293 
L 278.31236 154.44343 
L 277.541685 157.334754 
L 272.878894 161.369711 
L 265.218801 165.26367 
L 254.344532 168.707256 
L 241.367237 170.893208 
L 226.978768 171.506937 
L 212.815692 170.695489 
L 200.861714 169.615926 
L 193.964944 170.069532 
L 190.868931 172.700579 
L 190.874876 177.950734 
L 193.603061 184.35385 
L 197.362638 189.058788 
L 202.217243 192.042223 
L 208.171771 192.424759 
L 213.757169 190.451856 
L 218.961623 187.239262 
L 224.546103 182.854889 
L 230.210492 177.844633 
L 243.159473 165.845599 
L 248.504484 161.100129 
L 253.467985 156.968327 
L 258.099333 153.450342 
L 262.286958 150.67434 
L 265.14615 149.177367 
L 266.005741 149.084508 
L 264.180729 150.263655 
L 259.350134 152.1589 
L 252.186981 153.904718 
L 242.66793 154.986861 
L 232.060371 154.939065 
L 221.680482 154.009829 
L 213.282929 153.497166 
L 208.975502 155.190133 
L 207.897131 160.526667 
L 209.390583 168.058822 
L 211.973889 175.805534 
L 215.427427 183.714784 
L 219.553842 190.638844 
L 224.021915 195.24118 
L 229.113037 196.988907 
L 233.92639 195.61005 
L 238.965956 191.61834 
L 244.547561 184.910561 
L 249.967194 176.635956 
L 254.300442 168.605903 
L 256.788168 162.20669 
L 257.190092 157.390706 
L 255.001798 153.770342 
L 250.151071 151.048129 
L 243.777293 148.551199 
L 236.904258 145.680798 
L 229.602997 141.830308 
L 224.395104 138.251185 
L 221.762824 136.032252 
L 221.662009 136.263845 
L 224.560401 141.054749 
L 228.844222 149.147445 
L 234.096106 160.16293 
L 239.488871 171.94399 
L 245.304266 183.946188 
L 249.887803 191.831862 
L 254.031867 196.968601 
L 258.25924 199.55036 
L 261.59988 199.069412 
L 264.350583 195.801869 
L 265.410285 190.780064 
L 264.394912 185.551786 
L 260.230898 179.368812 
L 252.493205 172.984277 
L 241.961238 165.671758 
L 233.170158 158.741863 
L 225.401407 150.735415 
L 219.096543 140.527262 
L 217.249106 133.160835 
L 218.267359 127.744175 
L 222.505773 124.743146 
L 229.997707 126.3591 
L 239.681631 133.828308 
L 248.29163 144.206685 
L 256.279346 156.650055 
L 263.784773 170.426979 
L 270.215755 183.071387 
L 274.434102 191.102947 
L 277.739054 196.76107 
L 280.597951 200.789642 
L 282.13533 202.296464 
L 281.69568 201.643565 
L 278.986534 199.798915 
L 273.598912 197.222271 
L 263.58217 193.363932 
L 250.691849 188.247705 
L 236.560721 181.050489 
L 224.037967 172.01227 
L 213.652416 160.68581 
L 206.873907 147.252673 
L 205.642254 137.312292 
L 208.045101 129.653188 
L 214.745326 124.517761 
L 225.676554 124.404101 
L 239.358434 130.375925 
L 252.88037 140.715455 
L 264.861921 152.861428 
L 275.639194 165.73882 
L 283.363583 175.755209 
L 294.532157 190.68694 
L 298.121112 195.867053 
L 299.498214 199.374682 
L 298.472711 201.214593 
L 295.437488 202.437869 
L 288.808275 203.463914 
L 277.149541 203.927992 
L 263.297466 203.125092 
L 247.443911 200.343622 
L 232.416199 195.448098 
L 216.704959 187.045033 
L 202.85127 174.860349 
L 193.827457 160.390344 
L 191.387638 149.570775 
L 192.804956 141.036156 
L 198.931182 134.006674 
L 210.474529 131.421771 
L 226.065442 134.627185 
L 242.714038 142.117794 
L 256.45817 150.072239 
L 269.505876 158.395529 
L 294.085681 174.609001 
L 302.346816 180.388218 
L 307.266 184.686697 
L 309.660611 188.492758 
L 309.21084 192.77899 
L 304.475469 197.605626 
L 297.400381 201.498519 
L 287.653552 205.096761 
L 274.315545 208.237337 
L 256.759157 209.996858 
L 236.624731 208.803879 
L 217.441226 203.91483 
L 200.07458 195.003935 
L 186.257723 182.21369 
L 179.371498 169.905638 
L 177.791432 159.708336 
L 180.284849 151.627448 
L 187.699227 145.534465 
L 200.067867 143.381877 
L 216.330137 145.368223 
L 234.719066 150.201095 
L 272.481433 161.820358 
L 286.383564 166.022939 
L 297.454068 169.955605 
L 304.332991 173.825452 
L 307.525553 178.807575 
L 305.785198 184.59597 
L 300.426509 190.044338 
L 292.078191 195.393781 
L 278.76782 201.213277 
L 260.934966 206.085349 
L 240.53506 208.448851 
L 220.786038 207.431145 
L 201.657683 202.607004 
L 184.926335 193.616248 
L 174.100443 182.441728 
L 170.445929 174.172852 
L 170.579856 166.972052 
L 174.708241 161.267053 
L 183.276443 157.84676 
L 195.419463 157.034454 
L 212.45411 158.189751 
L 231.282867 159.94546 
L 250.543907 161.16718 
L 267.963123 161.775071 
L 281.054043 162.471492 
L 290.813959 164.029527 
L 296.975824 167.322623 
L 297.684554 172.221199 
L 294.090146 177.297279 
L 286.880857 182.74177 
L 275.088555 188.564566 
L 258.422889 193.778818 
L 238.809774 196.848577 
L 220.684523 197.071216 
L 203.194432 194.733711 
L 186.624853 189.560168 
L 176.614798 184.142751 
L 172.172491 180.285938 
L 170.682852 177.326324 
L 172.401538 175.335433 
L 178.205243 174.730121 
L 188.409993 174.936922 
L 201.894863 174.385701 
L 217.590691 171.826654 
L 234.974361 167.101729 
L 251.687662 161.765292 
L 266.043016 157.65536 
L 276.434456 156.00226 
L 281.803481 156.699954 
L 283.552101 159.197286 
L 281.266148 163.199262 
L 274.859837 167.906541 
L 264.83816 172.413716 
L 251.205264 176.085148 
L 237.127363 177.896259 
L 221.478382 178.018342 
L 206.336395 176.546758 
L 195.030291 174.844109 
L 188.408628 174.288547 
L 185.004062 175.301664 
L 184.472936 178.508054 
L 187.165418 183.311267 
L 191.36907 187.049723 
L 196.998969 189.286223 
L 204.102802 189.064462 
L 212.184507 185.998008 
L 220.701416 180.799352 
L 229.491694 174.37935 
L 238.687258 167.34004 
L 248.519444 160.12233 
L 255.032684 155.808824 
L 260.570871 152.623301 
L 265.314015 150.458503 
L 268.531135 149.584365 
L 270.090158 149.85902 
L 269.798667 151.076966 
L 267.033192 153.311309 
L 261.373152 156.030259 
L 252.603898 158.615287 
L 241.535523 160.242113 
L 229.466008 160.533481 
L 217.789875 159.848726 
L 209.375066 159.521003 
L 204.207354 160.787821 
L 201.818843 165.105814 
L 202.555011 172.594804 
L 204.942938 180.060048 
L 207.916345 186.352579 
L 211.54634 191.59803 
L 215.773653 195.008284 
L 220.43439 195.918542 
L 225.487982 194.197897 
L 230.644571 190.315378 
L 236.726596 183.944725 
L 243.233055 175.933794 
L 249.568132 167.587469 
L 254.593865 160.721403 
L 258.056634 155.513088 
L 259.405727 152.087795 
L 258.08271 150.278409 
L 253.971935 149.494831 
L 248.007727 148.925101 
L 240.621124 147.8827 
L 232.367452 145.971795 
L 219.597098 141.909846 
L 217.8119 143.039543 
L 219.213004 148.63439 
L 222.361004 156.764178 
L 226.713626 167.246162 
L 231.330681 177.567758 
L 236.717055 187.799267 
L 241.754914 194.676266 
L 246.552713 198.095352 
L 250.91659 198.164478 
L 254.952427 195.327995 
L 258.42623 189.834824 
L 260.302534 183.485934 
L 260.147241 176.749686 
L 257.059048 170.298389 
L 251.38973 164.78258 
L 243.02342 158.678253 
L 234.619759 152.230232 
L 227.608735 145.378536 
L 222.587 138.1815 
L 220.521337 131.964782 
L 221.429875 128.165534 
L 225.359753 127.529002 
L 232.144009 132.014282 
L 238.984029 139.97727 
L 246.006535 150.894445 
L 253.022882 164.059653 
L 264.467932 187.456458 
L 268.688112 194.968005 
L 272.124634 199.647997 
L 274.736791 201.647142 
L 276.049482 201.023728 
L 275.536791 198.934141 
L 273.301905 196.125174 
L 267.930066 192.140397 
L 257.890093 186.759535 
L 245.767451 180.445622 
L 232.911489 172.155686 
L 222.227079 162.512901 
L 213.767927 150.46885 
L 210.36938 140.675923 
L 210.440065 132.146508 
L 214.075499 125.810768 
L 221.752829 123.040106 
L 232.872757 125.817148 
L 244.294834 133.333632 
L 255.543035 144.395587 
L 265.671936 157.162749 
L 274.655636 170.393043 
L 292.807809 199.318338 
L 293.456636 201.682922 
L 292.034523 202.457348 
L 288.856106 202.578178 
L 282.158373 202.173956 
L 270.441009 200.843374 
L 255.829466 198.027856 
L 242.80734 194.050417 
L 229.812146 188.176501 
L 215.852862 178.675249 
L 204.06078 165.660985 
L 197.980113 152.976496 
L 196.983167 141.346385 
L 200.514159 133.202391 
L 209.091257 128.252108 
L 222.446828 128.860336 
L 238.039065 135.084236 
L 252.948981 144.348404 
L 267.760593 155.619461 
L 278.543572 164.590674 
L 296.429926 180.018003 
L 303.365085 186.468401 
L 306.700809 190.544421 
L 307.822279 194.017833 
L 306.318647 197.377499 
L 300.962815 201.029588 
L 290.855163 204.661256 
L 279.530801 207.027304 
L 266.35308 208.307552 
L 249.050954 207.804082 
L 229.62063 203.986577 
L 212.020823 196.658102 
L 196.42402 185.185481 
L 185.851004 171.05108 
L 182.297185 160.109791 
L 182.973 150.582311 
L 188.271629 143.085979 
L 198.94311 139.231424 
L 214.240401 140.286131 
L 230.089056 144.721206 
L 246.381158 150.864719 
L 293.491112 170.176779 
L 302.336087 174.532924 
L 307.651674 178.730814 
L 309.385501 183.810226 
L 306.298348 189.669542 
L 299.924624 194.895771 
L 290.633539 199.91802 
L 276.517898 205.08432 
L 258.198431 208.958243 
L 237.7733 210.023653 
L 218.561404 207.625995 
L 199.683495 201.054469 
L 184.080203 190.377332 
L 174.690411 177.918056 
L 172.146977 169.050763 
L 173.182824 161.782895 
L 178.453673 155.585323 
L 188.301693 152.207309 
L 201.709432 151.926856 
L 219.623719 154.14472 
L 238.42956 157.247791 
L 259.121379 160.33987 
L 275.275632 162.475936 
L 288.680248 164.715983 
L 297.300101 167.509242 
L 301.875141 171.867538 
L 301.06522 177.403837 
L 296.246237 182.898305 
L 288.263093 188.374985 
L 275.118269 194.441127 
L 257.299538 199.602525 
L 236.877628 202.329072 
L 217.638144 201.908013 
L 198.832258 198.195864 
L 182.672256 191.19158 
L 173.451662 183.960532 
L 169.762998 178.572195 
L 169.180707 174.09349 
L 172.110913 170.547207 
L 179.28734 168.652368 
L 190.51841 168.245698 
L 206.102539 168.169864 
L 223.902657 167.023334 
L 243.230267 164.274437 
L 259.118709 161.426367 
L 273.017872 159.370022 
L 282.952738 159.233371 
L 287.822724 160.970272 
L 288.754106 164.33716 
L 285.191638 169.217966 
L 277.762981 174.275809 
L 266.143211 179.269832 
L 250.449633 183.263329 
L 234.963585 185.025016 
L 218.290959 184.851909 
L 202.106797 182.739196 
L 188.692516 179.652324 
L 182.433649 178.039021 
L 179.212174 177.58967 
L 178.588793 178.668313 
L 181.494449 181.39147 
L 186.60923 183.951982 
L 193.523076 185.317163 
L 202.476042 184.450758 
L 212.881304 180.810282 
L 224.1737 174.955189 
L 247.421884 161.154617 
L 258.160335 155.507012 
L 266.783924 152.076076 
L 271.834368 151.107862 
L 274.383004 151.819225 
L 274.07511 153.999765 
L 270.31839 157.334261 
L 263.940105 160.63599 
L 254.172735 163.79749 
L 241.952208 165.887551 
L 228.562417 166.477907 
L 215.457914 165.83447 
L 205.881154 165.22243 
L 199.423897 165.881339 
L 196.039798 168.912236 
L 195.793618 174.909349 
L 198.134198 182.315652 
L 201.941715 188.815318 
L 206.427586 192.954862 
L 211.454004 194.403201 
L 216.183598 193.435135 
L 221.344017 190.523766 
L 226.705161 186.130498 
L 232.573322 180.383312 
L 252.336039 159.528865 
L 257.827908 154.214384 
L 261.443535 150.893666 
L 262.850767 149.356555 
L 261.561956 149.30758 
L 257.355755 150.154998 
L 251.463334 150.992277 
L 243.172489 151.375585 
L 233.741545 150.797438 
L 216.925232 148.341333 
L 213.250544 149.57974 
L 212.828464 154.707739 
L 214.825615 162.397443 
L 217.608804 170.250394 
L 221.125633 178.662718 
L 225.641627 187.405514 
L 230.572865 194.027766 
L 235.509931 197.283603 
L 240.35558 197.16729 
L 244.901629 194.279148 
L 249.736696 188.503962 
L 253.973958 180.958157 
L 256.697584 173.588244 
L 257.529042 167.265321 
L 256.292145 162.257375 
L 252.251317 157.545034 
L 245.800363 153.240116 
L 238.648006 148.915503 
L 231.727085 144.038686 
L 225.427874 138.043145 
L 222.425592 133.390607 
L 222.549786 131.388666 
L 225.588322 133.11544 
L 231.302933 140.307693 
L 236.805272 149.568884 
L 242.351794 160.469378 
L 248.556954 173.631157 
L 254.483669 185.802475 
L 259.397196 194.232196 
L 263.315436 198.910662 
L 266.705188 200.690451 
L 269.153205 199.573573 
L 270.001366 196.543316 
L 269.034186 192.51938 
L 265.46188 187.61136 
L 257.793617 181.633649 
L 246.29473 174.440551 
L 234.498197 166.149596 
L 224.789678 156.966063 
L 217.267851 145.903515 
L 214.464567 137.632397 
L 214.501678 130.577382 
L 217.724534 125.235643 
L 224.605875 123.504322 
L 234.55172 127.271137 
L 244.458149 135.36024 
L 254.161876 146.791776 
L 262.931655 159.900379 
L 270.728757 173.411466 
L 281.030407 192.133945 
L 284.32086 197.605249 
L 286.646628 201.167311 
L 287.174778 202.481713 
L 285.785544 202.233085 
L 282.597969 201.279931 
L 264.432052 196.456085 
L 250.697892 192.070036 
L 237.512772 186.279879 
L 224.686373 178.255801 
L 212.866219 167.139308 
L 204.380654 153.323678 
L 201.896978 143.120416 
L 202.907931 134.647427 
L 208.088893 127.744379 
L 218.032619 125.043475 
L 231.77231 128.324327 
L 246.53375 136.799284 
L 259.726551 147.461025 
L 272.486658 159.8638 
L 281.703674 169.701786 
L 295.794898 185.407 
L 300.822597 191.405189 
L 303.516962 195.928079 
L 303.417504 198.658142 
L 301.120914 200.820158 
L 295.317778 203.036587 
L 284.648996 205.034004 
L 272.314534 205.902855 
L 257.793576 205.353798 
L 241.899249 202.699571 
L 225.190041 197.080822 
L 208.826806 187.552535 
L 195.606386 174.400889 
L 188.718737 161.47283 
L 187.150336 150.655541 
L 189.809322 142.180163 
L 197.641358 136.122785 
L 210.780087 134.959774 
L 227.446581 139.121902 
L 242.272762 145.38727 
L 256.967055 152.782754 
L 297.764928 174.680521 
L 304.665656 179.071003 
L 308.843526 183.066657 
L 310.182545 187.705677 
L 307.177993 193.025412 
L 301.508425 197.405768 
L 293.108655 201.698354 
L 280.726612 206.008601 
L 263.873883 209.440253 
L 243.973653 210.43577 
L 223.775765 207.839699 
L 205.545317 201.489071 
L 189.230795 190.638698 
L 178.655578 177.396829 
L 175.185613 167.311306 
L 175.803246 158.492752 
L 180.800102 151.500609 
L 190.691697 147.521951 
L 204.719624 147.289075 
L 222.379497 150.225201 
L 289.871196 166.152025 
L 298.432553 169.151425 
L 304.2422 173.329314 
L 305.199798 178.853734 
L 301.853254 184.190139 
L 294.905215 189.876591 
L 283.833954 195.846632 
L 267.786484 201.565158 
L 248.07475 205.457047 
L 227.491926 206.237229 
L 209.280025 203.816007 
L 190.845331 197.331652 
L 177.169523 187.853611 
L 170.863261 179.534627 
L 169.141715 172.041262 
L 171.459043 166.782521 
L 178.056803 163.170856 
L 188.670865 161.814302 
L 203.902955 162.131385 
L 222.030143 162.865562 
L 240.866814 162.82195 
L 273.542146 161.288438 
L 284.105955 161.572027 
L 291.775884 163.615706 
L 294.162764 167.630404 
L 291.349521 172.827235 
L 284.172265 178.463938 
L 273.077401 183.945315 
L 257.17081 188.870855 
L 240.544283 191.562818 
L 224.258532 192.130025 
L 206.729621 190.460302 
L 190.446852 186.509563 
L 180.345837 182.532197 
L 175.419866 179.857742 
L 173.542567 178.313774 
L 174.618813 177.889699 
L 179.627206 178.811456 
L 188.558133 179.917886 
L 199.642938 179.41603 
L 212.692639 176.434267 
L 227.166904 171.078994 
L 241.426281 164.841689 
L 255.91507 158.657178 
L 267.27641 154.800451 
L 275.421477 153.551021 
L 278.91442 154.588484 
L 279.128326 157.098984 
L 275.554133 161.035845 
L 268.76889 165.071056 
L 258.113169 169.018109 
L 245.869043 171.61277 
L 231.592157 172.781382 
L 216.898758 172.340567 
L 203.675883 171.034528 
L 195.886222 170.579716 
L 191.329389 171.546625 
L 189.26732 174.891882 
L 190.360369 180.507685 
L 193.903374 186.4753 
L 198.816333 190.641977 
L 204.463538 192.094862 
L 211.085473 190.651702 
L 216.98353 187.440687 
L 222.46587 183.434382 
L 226.502811 180.098414 
L 234.71808 172.831146 
L 245.314291 163.440863 
L 251.505808 158.329733 
L 256.946716 154.253038 
L 261.145396 151.494246 
L 264.609163 149.631298 
L 266.607293 148.994908 
L 266.442542 149.659662 
L 263.363075 151.433927 
L 257.648258 153.499543 
L 249.241649 155.291461 
L 238.935607 156.138097 
L 227.953153 155.816921 
L 217.735477 154.898386 
L 210.585392 155.024507 
L 207.129881 157.789958 
L 206.943031 164.356786 
L 208.888341 172.149846 
L 211.549031 179.376447 
L 214.904993 186.34106 
L 219.184817 192.538142 
L 223.789577 196.095212 
L 228.073486 196.747888 
L 232.539297 195.090871 
L 237.720774 190.806791 
L 243.480809 183.894095 
L 249.164779 175.506554 
L 253.450479 168.185001 
L 256.390192 161.986732 
L 257.555005 157.073122 
L 256.264481 153.501309 
L 252.210067 151.029383 
L 239.653397 146.727235 
L 232.13188 143.539481 
L 225.393376 139.778865 
L 221.657017 137.278581 
L 220.925447 137.400207 
L 227.184635 149.836072 
L 237.397574 172.119297 
L 243.121047 183.911514 
L 247.732626 191.748995 
L 251.947828 196.834295 
L 256.297088 199.322006 
L 259.760635 198.747461 
L 262.790226 195.359425 
L 264.26249 190.113725 
L 263.716221 184.745347 
L 260.219099 178.438813 
L 253.284676 172.147263 
L 243.365711 165.110767 
L 234.650079 158.40066 
L 226.76588 150.632043 
L 220.240024 140.809793 
L 218.067293 133.66726 
L 218.647932 128.37309 
L 222.307173 125.246212 
L 229.205623 126.523363 
L 238.425519 133.596574 
L 246.718816 143.649318 
L 254.461903 155.810896 
L 261.885103 169.584481 
L 268.331046 182.42769 
L 272.523074 190.516237 
L 275.805568 196.204739 
L 278.824086 200.469732 
L 280.640764 202.167675 
L 280.726448 201.626833 
L 278.497466 199.652729 
L 273.909559 197.034784 
L 265.01354 193.196046 
L 250.73693 187.25431 
L 237.837495 180.577687 
L 225.338108 171.641625 
L 215.164765 160.819795 
L 208.086918 147.544376 
L 206.522485 137.751081 
L 208.420864 130.123663 
L 214.449526 124.642362 
L 224.712025 123.900342 
L 237.915235 129.209144 
L 251.501712 139.429698 
L 263.154859 151.325508 
L 273.810505 164.327937 
L 281.849416 175.116144 
L 292.40135 189.781224 
L 296.228064 195.281854 
L 298.202306 199.11935 
L 297.820599 201.076866 
L 295.317403 202.306759 
L 289.918523 203.134899 
L 279.922088 203.493685 
L 264.534531 202.560087 
L 251.123881 200.282983 
L 237.752965 196.365698 
L 222.502903 189.228706 
L 207.921009 178.231181 
L 197.145402 164.23602 
L 192.930743 152.559775 
L 193.199383 142.292399 
L 198.032085 134.565675 
L 208.224851 130.706158 
L 222.962751 132.601901 
L 237.588782 138.509251 
L 252.482112 146.890657 
L 265.672109 155.477434 
L 289.21095 171.77951 
L 299.421051 179.044037 
L 305.280432 183.7758 
L 308.763323 187.896245 
L 309.54458 191.831328 
L 306.732876 196.243275 
L 299.286731 200.963576 
L 289.847856 204.620018 
L 278.11051 207.573338 
L 261.907986 209.594576 
L 242.435596 209.116907 
L 222.476846 204.915061 
L 204.885536 196.992671 
L 189.833005 184.777083 
L 180.836046 170.801471 
L 178.594181 160.523964 
L 180.216347 152.353864 
L 186.564938 145.569127 
L 198.047913 142.538235 
L 213.745739 143.887511 
L 230.144739 148.027902 
L 247.066181 153.427594 
L 266.570789 159.866983 
L 282.974767 165.132734 
L 293.669502 168.807712 
L 301.261129 172.174258 
L 306.699056 176.49151 
L 307.830299 181.926646 
L 304.623723 187.316034 
L 297.617783 193.043186 
L 287.117752 198.668796 
L 271.718577 204.170668 
L 252.472388 208.01759 
L 231.924943 208.814538 
L 213.418512 206.277535 
L 194.654386 199.458635 
L 180.072901 189.016597 
L 172.662738 178.905215 
L 170.429318 170.784144 
L 171.731227 164.295245 
L 177.240511 158.933051 
L 187.100693 156.195148 
L 200.02847 156.014144 
L 217.870545 157.659485 
L 236.750034 159.651421 
L 257.681145 161.196412 
L 272.880711 162.039353 
L 285.586548 163.245853 
L 294.392909 165.511033 
L 298.782739 169.581634 
L 297.793769 174.718864 
L 292.75741 180.155573 
L 284.408646 185.597227 
L 270.864849 191.469113 
L 252.834163 196.22505 
L 232.811469 198.435196 
L 215.070242 197.808571 
L 196.860387 194.254188 
L 181.756149 188.142674 
L 173.889047 182.716081 
L 170.572797 178.568354 
L 170.538185 175.663569 
L 174.168217 173.874785 
L 182.078361 173.465629 
L 194.411957 173.471567 
L 209.512421 172.29042 
L 226.655107 169.018136 
L 244.694271 164.108104 
L 258.535691 160.156868 
L 270.107115 157.476653 
L 279.548847 156.720437 
L 283.766503 158.036238 
L 284.572419 160.774408 
L 281.395843 165.142064 
L 274.375562 169.858376 
L 263.392806 174.451623 
L 249.066524 177.961032 
L 234.504304 179.525508 
L 218.55779 179.328162 
L 203.427266 177.56187 
L 192.745916 175.766898 
L 186.014016 175.176117 
L 183.272209 176.362548 
L 183.58629 179.675075 
L 187.113434 184.20389 
L 192.07488 187.398712 
L 198.375373 188.732521 
L 206.219636 187.429881 
L 214.949242 183.420084 
L 224.127814 177.549736 
L 243.739946 163.399332 
L 251.760111 158.008456 
L 258.782017 153.86804 
L 264.743536 151.061037 
L 268.890203 149.870679 
L 270.879909 150.09513 
L 270.761904 151.523545 
L 268.232452 153.764961 
L 262.677682 156.645815 
L 253.956199 159.438801 
L 242.785735 161.308972 
L 230.470137 161.811238 
L 209.661662 160.751824 
L 204.009785 161.53562 
L 200.802645 164.96545 
L 200.777902 171.69049 
L 202.830561 179.058665 
L 205.831214 185.739773 
L 209.669676 191.358418 
L 213.733034 194.648644 
L 218.9531 195.593871 
L 224.203686 193.63767 
L 229.417124 189.654033 
L 235.569127 183.306474 
L 242.160514 175.455005 
L 254.317948 160.113152 
L 258.210305 154.932364 
L 260.012063 151.62448 
L 259.195646 149.994867 
L 255.534006 149.491867 
L 249.744941 149.291706 
L 242.441567 148.694832 
L 234.001026 147.247288 
L 219.547809 143.356177 
L 216.945806 144.134368 
L 217.557507 149.075921 
L 217.557507 149.075921 
" clip-path="url(#pee0a64c89e)" style="fill: none; stroke: #1f77b4; stroke-width: 0.5; stroke-linecap: square"/>
   </g>
   <g id="text_19">
    <!-- Projection onto r-z-p_r space with initial r = 0.09 -->
    <g transform="translate(91.219688 35.472) scale(0.12 -0.12)">
     <defs>
      <path id="DejaVuSans-50" d="M 1259 4147 
L 1259 2394 
L 2053 2394 
Q 2494 2394 2734 2622 
Q 2975 2850 2975 3272 
Q 2975 3691 2734 3919 
Q 2494 4147 2053 4147 
L 1259 4147 
z
M 628 4666 
L 2053 4666 
Q 2838 4666 3239 4311 
Q 3641 3956 3641 3272 
Q 3641 2581 3239 2228 
Q 2838 1875 2053 1875 
L 1259 1875 
L 1259 0 
L 628 0 
L 628 4666 
z
" transform="scale(0.015625)"/>
      <path id="DejaVuSans-6f" d="M 1959 3097 
Q 1497 3097 1228 2736 
Q 959 2375 959 1747 
Q 959 1119 1226 758 
Q 1494 397 1959 397 
Q 2419 397 2687 759 
Q 2956 1122 2956 1747 
Q 2956 2369 2687 2733 
Q 2419 3097 1959 3097 
z
M 1959 3584 
Q 2709 3584 3137 3096 
Q 3566 2609 3566 1747 
Q 3566 888 3137 398 
Q 2709 -91 1959 -91 
Q 1206 -91 779 398 
Q 353 888 353 1747 
Q 353 2609 779 3096 
Q 1206 3584 1959 3584 
z
" transform="scale(0.015625)"/>
      <path id="DejaVuSans-6a" d="M 603 3500 
L 1178 3500 
L 1178 -63 
Q 1178 -731 923 -1031 
Q 669 -1331 103 -1331 
L -116 -1331 
L -116 -844 
L 38 -844 
Q 366 -844 484 -692 
Q 603 -541 603 -63 
L 603 3500 
z
M 603 4863 
L 1178 4863 
L 1178 4134 
L 603 4134 
L 603 4863 
z
" transform="scale(0.015625)"/>
      <path id="DejaVuSans-65" d="M 3597 1894 
L 3597 1613 
L 953 1613 
Q 991 1019 1311 708 
Q 1631 397 2203 397 
Q 2534 397 2845 478 
Q 3156 559 3463 722 
L 3463 178 
Q 3153 47 2828 -22 
Q 2503 -91 2169 -91 
Q 1331 -91 842 396 
Q 353 884 353 1716 
Q 353 2575 817 3079 
Q 1281 3584 2069 3584 
Q 2775 3584 3186 3129 
Q 3597 2675 3597 1894 
z
M 3022 2063 
Q 3016 2534 2758 2815 
Q 2500 3097 2075 3097 
Q 1594 3097 1305 2825 
Q 1016 2553 972 2059 
L 3022 2063 
z
" transform="scale(0.015625)"/>
      <path id="DejaVuSans-63" d="M 3122 3366 
L 3122 2828 
Q 2878 2963 2633 3030 
Q 2388 3097 2138 3097 
Q 1578 3097 1268 2742 
Q 959 2388 959 1747 
Q 959 1106 1268 751 
Q 1578 397 2138 397 
Q 2388 397 2633 464 
Q 2878 531 3122 666 
L 3122 134 
Q 2881 22 2623 -34 
Q 2366 -91 2075 -91 
Q 1284 -91 818 406 
Q 353 903 353 1747 
Q 353 2603 823 3093 
Q 1294 3584 2113 3584 
Q 2378 3584 2631 3529 
Q 2884 3475 3122 3366 
z
" transform="scale(0.015625)"/>
      <path id="DejaVuSans-74" d="M 1172 4494 
L 1172 3500 
L 2356 3500 
L 2356 3053 
L 1172 3053 
L 1172 1153 
Q 1172 725 1289 603 
Q 1406 481 1766 481 
L 2356 481 
L 2356 0 
L 1766 0 
Q 1100 0 847 248 
Q 594 497 594 1153 
L 594 3053 
L 172 3053 
L 172 3500 
L 594 3500 
L 594 4494 
L 1172 4494 
z
" transform="scale(0.015625)"/>
      <path id="DejaVuSans-69" d="M 603 3500 
L 1178 3500 
L 1178 0 
L 603 0 
L 603 3500 
z
M 603 4863 
L 1178 4863 
L 1178 4134 
L 603 4134 
L 603 4863 
z
" transform="scale(0.015625)"/>
      <path id="DejaVuSans-6e" d="M 3513 2113 
L 3513 0 
L 2938 0 
L 2938 2094 
Q 2938 2591 2744 2837 
Q 2550 3084 2163 3084 
Q 1697 3084 1428 2787 
Q 1159 2491 1159 1978 
L 1159 0 
L 581 0 
L 581 3500 
L 1159 3500 
L 1159 2956 
Q 1366 3272 1645 3428 
Q 1925 3584 2291 3584 
Q 2894 3584 3203 3211 
Q 3513 2838 3513 2113 
z
" transform="scale(0.015625)"/>
      <path id="DejaVuSans-20" transform="scale(0.015625)"/>
      <path id="DejaVuSans-2d" d="M 313 2009 
L 1997 2009 
L 1997 1497 
L 313 1497 
L 313 2009 
z
" transform="scale(0.015625)"/>
      <path id="DejaVuSans-73" d="M 2834 3397 
L 2834 2853 
Q 2591 2978 2328 3040 
Q 2066 3103 1784 3103 
Q 1356 3103 1142 2972 
Q 928 2841 928 2578 
Q 928 2378 1081 2264 
Q 1234 2150 1697 2047 
L 1894 2003 
Q 2506 1872 2764 1633 
Q 3022 1394 3022 966 
Q 3022 478 2636 193 
Q 2250 -91 1575 -91 
Q 1294 -91 989 -36 
Q 684 19 347 128 
L 347 722 
Q 666 556 975 473 
Q 1284 391 1588 391 
Q 1994 391 2212 530 
Q 2431 669 2431 922 
Q 2431 1156 2273 1281 
Q 2116 1406 1581 1522 
L 1381 1569 
Q 847 1681 609 1914 
Q 372 2147 372 2553 
Q 372 3047 722 3315 
Q 1072 3584 1716 3584 
Q 2034 3584 2315 3537 
Q 2597 3491 2834 3397 
z
" transform="scale(0.015625)"/>
      <path id="DejaVuSans-61" d="M 2194 1759 
Q 1497 1759 1228 1600 
Q 959 1441 959 1056 
Q 959 750 1161 570 
Q 1363 391 1709 391 
Q 2188 391 2477 730 
Q 2766 1069 2766 1631 
L 2766 1759 
L 2194 1759 
z
M 3341 1997 
L 3341 0 
L 2766 0 
L 2766 531 
Q 2569 213 2275 61 
Q 1981 -91 1556 -91 
Q 1019 -91 701 211 
Q 384 513 384 1019 
Q 384 1609 779 1909 
Q 1175 2209 1959 2209 
L 2766 2209 
L 2766 2266 
Q 2766 2663 2505 2880 
Q 2244 3097 1772 3097 
Q 1472 3097 1187 3025 
Q 903 2953 641 2809 
L 641 3341 
Q 956 3463 1253 3523 
Q 1550 3584 1831 3584 
Q 2591 3584 2966 3190 
Q 3341 2797 3341 1997 
z
" transform="scale(0.015625)"/>
      <path id="DejaVuSans-77" d="M 269 3500 
L 844 3500 
L 1563 769 
L 2278 3500 
L 2956 3500 
L 3675 769 
L 4391 3500 
L 4966 3500 
L 4050 0 
L 3372 0 
L 2619 2869 
L 1863 0 
L 1184 0 
L 269 3500 
z
" transform="scale(0.015625)"/>
      <path id="DejaVuSans-68" d="M 3513 2113 
L 3513 0 
L 2938 0 
L 2938 2094 
Q 2938 2591 2744 2837 
Q 2550 3084 2163 3084 
Q 1697 3084 1428 2787 
Q 1159 2491 1159 1978 
L 1159 0 
L 581 0 
L 581 4863 
L 1159 4863 
L 1159 2956 
Q 1366 3272 1645 3428 
Q 1925 3584 2291 3584 
Q 2894 3584 3203 3211 
Q 3513 2838 3513 2113 
z
" transform="scale(0.015625)"/>
      <path id="DejaVuSans-6c" d="M 603 4863 
L 1178 4863 
L 1178 0 
L 603 0 
L 603 4863 
z
" transform="scale(0.015625)"/>
      <path id="DejaVuSans-3d" d="M 678 2906 
L 4684 2906 
L 4684 2381 
L 678 2381 
L 678 2906 
z
M 678 1631 
L 4684 1631 
L 4684 1100 
L 678 1100 
L 678 1631 
z
" transform="scale(0.015625)"/>
      <path id="DejaVuSans-39" d="M 703 97 
L 703 672 
Q 941 559 1184 500 
Q 1428 441 1663 441 
Q 2288 441 2617 861 
Q 2947 1281 2994 2138 
Q 2813 1869 2534 1725 
Q 2256 1581 1919 1581 
Q 1219 1581 811 2004 
Q 403 2428 403 3163 
Q 403 3881 828 4315 
Q 1253 4750 1959 4750 
Q 2769 4750 3195 4129 
Q 3622 3509 3622 2328 
Q 3622 1225 3098 567 
Q 2575 -91 1691 -91 
Q 1453 -91 1209 -44 
Q 966 3 703 97 
z
M 1959 2075 
Q 2384 2075 2632 2365 
Q 2881 2656 2881 3163 
Q 2881 3666 2632 3958 
Q 2384 4250 1959 4250 
Q 1534 4250 1286 3958 
Q 1038 3666 1038 3163 
Q 1038 2656 1286 2365 
Q 1534 2075 1959 2075 
z
" transform="scale(0.015625)"/>
     </defs>
     <use xlink:href="#DejaVuSans-50"/>
     <use xlink:href="#DejaVuSans-72" x="58.552734"/>
     <use xlink:href="#DejaVuSans-6f" x="97.416016"/>
     <use xlink:href="#DejaVuSans-6a" x="158.597656"/>
     <use xlink:href="#DejaVuSans-65" x="186.380859"/>
     <use xlink:href="#DejaVuSans-63" x="247.904297"/>
     <use xlink:href="#DejaVuSans-74" x="302.884766"/>
     <use xlink:href="#DejaVuSans-69" x="342.09375"/>
     <use xlink:href="#DejaVuSans-6f" x="369.876953"/>
     <use xlink:href="#DejaVuSans-6e" x="431.058594"/>
     <use xlink:href="#DejaVuSans-20" x="494.4375"/>
     <use xlink:href="#DejaVuSans-6f" x="526.224609"/>
     <use xlink:href="#DejaVuSans-6e" x="587.40625"/>
     <use xlink:href="#DejaVuSans-74" x="650.785156"/>
     <use xlink:href="#DejaVuSans-6f" x="689.994141"/>
     <use xlink:href="#DejaVuSans-20" x="751.175781"/>
     <use xlink:href="#DejaVuSans-72" x="782.962891"/>
     <use xlink:href="#DejaVuSans-2d" x="817.701172"/>
     <use xlink:href="#DejaVuSans-7a" x="853.785156"/>
     <use xlink:href="#DejaVuSans-2d" x="906.275391"/>
     <use xlink:href="#DejaVuSans-70" x="942.359375"/>
     <use xlink:href="#DejaVuSans-5f" x="1005.835938"/>
     <use xlink:href="#DejaVuSans-72" x="1055.835938"/>
     <use xlink:href="#DejaVuSans-20" x="1096.949219"/>
     <use xlink:href="#DejaVuSans-73" x="1128.736328"/>
     <use xlink:href="#DejaVuSans-70" x="1180.835938"/>
     <use xlink:href="#DejaVuSans-61" x="1244.3125"/>
     <use xlink:href="#DejaVuSans-63" x="1305.591797"/>
     <use xlink:href="#DejaVuSans-65" x="1360.572266"/>
     <use xlink:href="#DejaVuSans-20" x="1422.095703"/>
     <use xlink:href="#DejaVuSans-77" x="1453.882812"/>
     <use xlink:href="#DejaVuSans-69" x="1535.669922"/>
     <use xlink:href="#DejaVuSans-74" x="1563.453125"/>
     <use xlink:href="#DejaVuSans-68" x="1602.662109"/>
     <use xlink:href="#DejaVuSans-20" x="1666.041016"/>
     <use xlink:href="#DejaVuSans-69" x="1697.828125"/>
     <use xlink:href="#DejaVuSans-6e" x="1725.611328"/>
     <use xlink:href="#DejaVuSans-69" x="1788.990234"/>
     <use xlink:href="#DejaVuSans-74" x="1816.773438"/>
     <use xlink:href="#DejaVuSans-69" x="1855.982422"/>
     <use xlink:href="#DejaVuSans-61" x="1883.765625"/>
     <use xlink:href="#DejaVuSans-6c" x="1945.044922"/>
     <use xlink:href="#DejaVuSans-20" x="1972.828125"/>
     <use xlink:href="#DejaVuSans-72" x="2004.615234"/>
     <use xlink:href="#DejaVuSans-20" x="2045.728516"/>
     <use xlink:href="#DejaVuSans-3d" x="2077.515625"/>
     <use xlink:href="#DejaVuSans-20" x="2161.304688"/>
     <use xlink:href="#DejaVuSans-30" x="2193.091797"/>
     <use xlink:href="#DejaVuSans-2e" x="2256.714844"/>
     <use xlink:href="#DejaVuSans-30" x="2288.501953"/>
     <use xlink:href="#DejaVuSans-39" x="2352.125"/>
    </g>
   </g>
  </g>
 </g>
 <defs>
  <clipPath id="pee0a64c89e">
   <rect x="103.104" y="41.472" width="266.112" height="266.112"/>
  </clipPath>
 </defs>
</svg>
