<?xml version="1.0" encoding="utf-8" standalone="no"?>
<!DOCTYPE svg PUBLIC "-//W3C//DTD SVG 1.1//EN"
  "http://www.w3.org/Graphics/SVG/1.1/DTD/svg11.dtd">
<svg xmlns:xlink="http://www.w3.org/1999/xlink" width="460.8pt" height="345.6pt" viewBox="0 0 460.8 345.6" xmlns="http://www.w3.org/2000/svg" version="1.1">
 <metadata>
  <rdf:RDF xmlns:dc="http://purl.org/dc/elements/1.1/" xmlns:cc="http://creativecommons.org/ns#" xmlns:rdf="http://www.w3.org/1999/02/22-rdf-syntax-ns#">
   <cc:Work>
    <dc:type rdf:resource="http://purl.org/dc/dcmitype/StillImage"/>
    <dc:date>2023-10-23T21:33:03.568400</dc:date>
    <dc:format>image/svg+xml</dc:format>
    <dc:creator>
     <cc:Agent>
      <dc:title>Matplotlib v3.8.0, https://matplotlib.org/</dc:title>
     </cc:Agent>
    </dc:creator>
   </cc:Work>
  </rdf:RDF>
 </metadata>
 <defs>
  <style type="text/css">*{stroke-linejoin: round; stroke-linecap: butt}</style>
 </defs>
 <g id="figure_1">
  <g id="patch_1">
   <path d="M 0 345.6 
L 460.8 345.6 
L 460.8 0 
L 0 0 
z
" style="fill: #ffffff"/>
  </g>
  <g id="patch_2">
   <path d="M 103.104 307.584 
L 369.216 307.584 
L 369.216 41.472 
L 103.104 41.472 
z
" style="fill: #ffffff"/>
  </g>
  <g id="pane3d_1">
   <g id="patch_3">
    <path d="M 123.197291 241.969309 
L 211.076164 168.307495 
L 209.854564 62.073991 
L 117.770234 129.272941 
" style="fill: #f2f2f2; opacity: 0.5; stroke: #f2f2f2; stroke-linejoin: miter"/>
   </g>
  </g>
  <g id="pane3d_2">
   <g id="patch_4">
    <path d="M 211.076164 168.307495 
L 352.090401 209.294766 
L 357.122702 99.402171 
L 209.854564 62.073991 
" style="fill: #e6e6e6; opacity: 0.5; stroke: #e6e6e6; stroke-linejoin: miter"/>
   </g>
  </g>
  <g id="pane3d_3">
   <g id="patch_5">
    <path d="M 123.197291 241.969309 
L 272.679269 290.790123 
L 352.090401 209.294766 
L 211.076164 168.307495 
" style="fill: #ececec; opacity: 0.5; stroke: #ececec; stroke-linejoin: miter"/>
   </g>
  </g>
  <g id="grid3d_1">
   <g id="Line3DCollection_1">
    <path d="M 139.745029 247.3738 
L 226.747915 172.862654 
L 226.190662 66.214715 
" style="fill: none; stroke: #b0b0b0; stroke-width: 0.8"/>
    <path d="M 167.574724 256.462979 
L 253.069813 180.513391 
L 253.645623 73.173748 
" style="fill: none; stroke: #b0b0b0; stroke-width: 0.8"/>
    <path d="M 195.967881 265.736184 
L 279.880048 188.306068 
L 281.632185 80.267526 
" style="fill: none; stroke: #b0b0b0; stroke-width: 0.8"/>
    <path d="M 224.941789 275.199062 
L 307.192338 196.244672 
L 310.165939 87.500001 
" style="fill: none; stroke: #b0b0b0; stroke-width: 0.8"/>
    <path d="M 254.514447 284.857492 
L 335.020917 204.333341 
L 339.263092 94.875281 
" style="fill: none; stroke: #b0b0b0; stroke-width: 0.8"/>
   </g>
  </g>
  <g id="grid3d_2">
   <g id="Line3DCollection_2">
    <path d="M 129.321936 120.843035 
L 134.184874 232.759299 
L 282.646541 280.56125 
" style="fill: none; stroke: #b0b0b0; stroke-width: 0.8"/>
    <path d="M 147.908894 107.279119 
L 151.886109 217.921773 
L 298.68087 264.106083 
" style="fill: none; stroke: #b0b0b0; stroke-width: 0.8"/>
    <path d="M 165.860779 94.178651 
L 169.008295 203.569617 
L 314.163547 248.217048 
" style="fill: none; stroke: #b0b0b0; stroke-width: 0.8"/>
    <path d="M 183.209592 81.518278 
L 185.579387 189.679399 
L 329.122557 232.865423 
" style="fill: none; stroke: #b0b0b0; stroke-width: 0.8"/>
    <path d="M 199.985219 69.276189 
L 201.62557 176.22917 
L 343.584028 218.024397 
" style="fill: none; stroke: #b0b0b0; stroke-width: 0.8"/>
   </g>
  </g>
  <g id="grid3d_3">
   <g id="Line3DCollection_3">
    <path d="M 352.651911 197.032811 
L 210.939601 156.431576 
L 122.59264 229.41333 
" style="fill: none; stroke: #b0b0b0; stroke-width: 0.8"/>
    <path d="M 353.593746 176.465549 
L 210.710684 136.52439 
L 121.577933 208.34229 
" style="fill: none; stroke: #b0b0b0; stroke-width: 0.8"/>
    <path d="M 354.551427 155.552235 
L 210.478101 116.298387 
L 120.545497 186.903085 
" style="fill: none; stroke: #b0b0b0; stroke-width: 0.8"/>
    <path d="M 355.525359 134.284061 
L 210.241763 95.745848 
L 119.494863 165.085982 
" style="fill: none; stroke: #b0b0b0; stroke-width: 0.8"/>
    <path d="M 356.515957 112.651918 
L 210.001579 74.858801 
L 118.425545 142.8809 
" style="fill: none; stroke: #b0b0b0; stroke-width: 0.8"/>
   </g>
  </g>
  <g id="axis3d_1">
   <g id="line2d_1">
    <path d="M 123.197291 241.969309 
L 272.679269 290.790123 
" style="fill: none; stroke: #000000; stroke-width: 0.8; stroke-linecap: square"/>
   </g>
   <g id="xtick_1">
    <g id="line2d_2">
     <path d="M 140.502812 246.724819 
L 138.226203 248.674556 
" style="fill: none; stroke: #000000; stroke-width: 0.8; stroke-linecap: square"/>
    </g>
    <g id="text_1">
     <!-- −0.4 -->
     <g transform="translate(120.082057 270.734746) scale(0.1 -0.1)">
      <defs>
       <path id="DejaVuSans-2212" d="M 678 2272 
L 4684 2272 
L 4684 1741 
L 678 1741 
L 678 2272 
z
" transform="scale(0.015625)"/>
       <path id="DejaVuSans-30" d="M 2034 4250 
Q 1547 4250 1301 3770 
Q 1056 3291 1056 2328 
Q 1056 1369 1301 889 
Q 1547 409 2034 409 
Q 2525 409 2770 889 
Q 3016 1369 3016 2328 
Q 3016 3291 2770 3770 
Q 2525 4250 2034 4250 
z
M 2034 4750 
Q 2819 4750 3233 4129 
Q 3647 3509 3647 2328 
Q 3647 1150 3233 529 
Q 2819 -91 2034 -91 
Q 1250 -91 836 529 
Q 422 1150 422 2328 
Q 422 3509 836 4129 
Q 1250 4750 2034 4750 
z
" transform="scale(0.015625)"/>
       <path id="DejaVuSans-2e" d="M 684 794 
L 1344 794 
L 1344 0 
L 684 0 
L 684 794 
z
" transform="scale(0.015625)"/>
       <path id="DejaVuSans-34" d="M 2419 4116 
L 825 1625 
L 2419 1625 
L 2419 4116 
z
M 2253 4666 
L 3047 4666 
L 3047 1625 
L 3713 1625 
L 3713 1100 
L 3047 1100 
L 3047 0 
L 2419 0 
L 2419 1100 
L 313 1100 
L 313 1709 
L 2253 4666 
z
" transform="scale(0.015625)"/>
      </defs>
      <use xlink:href="#DejaVuSans-2212"/>
      <use xlink:href="#DejaVuSans-30" x="83.789062"/>
      <use xlink:href="#DejaVuSans-2e" x="147.412109"/>
      <use xlink:href="#DejaVuSans-34" x="179.199219"/>
     </g>
    </g>
   </g>
   <g id="xtick_2">
    <g id="line2d_3">
     <path d="M 168.319982 255.800928 
L 166.08097 257.789956 
" style="fill: none; stroke: #000000; stroke-width: 0.8; stroke-linecap: square"/>
    </g>
    <g id="text_2">
     <!-- −0.2 -->
     <g transform="translate(147.940862 280.01671) scale(0.1 -0.1)">
      <defs>
       <path id="DejaVuSans-32" d="M 1228 531 
L 3431 531 
L 3431 0 
L 469 0 
L 469 531 
Q 828 903 1448 1529 
Q 2069 2156 2228 2338 
Q 2531 2678 2651 2914 
Q 2772 3150 2772 3378 
Q 2772 3750 2511 3984 
Q 2250 4219 1831 4219 
Q 1534 4219 1204 4116 
Q 875 4013 500 3803 
L 500 4441 
Q 881 4594 1212 4672 
Q 1544 4750 1819 4750 
Q 2544 4750 2975 4387 
Q 3406 4025 3406 3419 
Q 3406 3131 3298 2873 
Q 3191 2616 2906 2266 
Q 2828 2175 2409 1742 
Q 1991 1309 1228 531 
z
" transform="scale(0.015625)"/>
      </defs>
      <use xlink:href="#DejaVuSans-2212"/>
      <use xlink:href="#DejaVuSans-30" x="83.789062"/>
      <use xlink:href="#DejaVuSans-2e" x="147.412109"/>
      <use xlink:href="#DejaVuSans-32" x="179.199219"/>
     </g>
    </g>
   </g>
   <g id="xtick_3">
    <g id="line2d_4">
     <path d="M 196.69995 265.060666 
L 194.500531 267.090184 
" style="fill: none; stroke: #000000; stroke-width: 0.8; stroke-linecap: square"/>
    </g>
    <g id="text_3">
     <!-- 0.0 -->
     <g transform="translate(180.555708 289.487318) scale(0.1 -0.1)">
      <use xlink:href="#DejaVuSans-30"/>
      <use xlink:href="#DejaVuSans-2e" x="63.623047"/>
      <use xlink:href="#DejaVuSans-30" x="95.410156"/>
     </g>
    </g>
   </g>
   <g id="xtick_4">
    <g id="line2d_5">
     <path d="M 225.659969 274.509662 
L 223.502242 276.580919 
" style="fill: none; stroke: #000000; stroke-width: 0.8; stroke-linecap: square"/>
    </g>
    <g id="text_4">
     <!-- 0.2 -->
     <g transform="translate(209.564345 299.152381) scale(0.1 -0.1)">
      <use xlink:href="#DejaVuSans-30"/>
      <use xlink:href="#DejaVuSans-2e" x="63.623047"/>
      <use xlink:href="#DejaVuSans-32" x="95.410156"/>
     </g>
    </g>
   </g>
   <g id="xtick_5">
    <g id="line2d_6">
     <path d="M 255.218008 284.153777 
L 253.104175 286.268074 
" style="fill: none; stroke: #000000; stroke-width: 0.8; stroke-linecap: square"/>
    </g>
    <g id="text_5">
     <!-- 0.4 -->
     <g transform="translate(239.174779 309.01795) scale(0.1 -0.1)">
      <use xlink:href="#DejaVuSans-30"/>
      <use xlink:href="#DejaVuSans-2e" x="63.623047"/>
      <use xlink:href="#DejaVuSans-34" x="95.410156"/>
     </g>
    </g>
   </g>
   <g id="text_6">
    <!-- r -->
    <g transform="translate(177.620959 303.76759) scale(0.1 -0.1)">
     <defs>
      <path id="DejaVuSans-72" d="M 2631 2963 
Q 2534 3019 2420 3045 
Q 2306 3072 2169 3072 
Q 1681 3072 1420 2755 
Q 1159 2438 1159 1844 
L 1159 0 
L 581 0 
L 581 3500 
L 1159 3500 
L 1159 2956 
Q 1341 3275 1631 3429 
Q 1922 3584 2338 3584 
Q 2397 3584 2469 3576 
Q 2541 3569 2628 3553 
L 2631 2963 
z
" transform="scale(0.015625)"/>
     </defs>
     <use xlink:href="#DejaVuSans-72"/>
    </g>
   </g>
  </g>
  <g id="axis3d_2">
   <g id="line2d_7">
    <path d="M 352.090401 209.294766 
L 272.679269 290.790123 
" style="fill: none; stroke: #000000; stroke-width: 0.8; stroke-linecap: square"/>
   </g>
   <g id="xtick_6">
    <g id="line2d_8">
     <path d="M 281.395758 280.158521 
L 285.151326 281.367745 
" style="fill: none; stroke: #000000; stroke-width: 0.8; stroke-linecap: square"/>
    </g>
    <g id="text_7">
     <!-- −0.4 -->
     <g transform="translate(283.325813 301.514986) scale(0.1 -0.1)">
      <use xlink:href="#DejaVuSans-2212"/>
      <use xlink:href="#DejaVuSans-30" x="83.789062"/>
      <use xlink:href="#DejaVuSans-2e" x="147.412109"/>
      <use xlink:href="#DejaVuSans-34" x="179.199219"/>
     </g>
    </g>
   </g>
   <g id="xtick_7">
    <g id="line2d_9">
     <path d="M 297.445222 263.717326 
L 301.155291 264.884581 
" style="fill: none; stroke: #000000; stroke-width: 0.8; stroke-linecap: square"/>
    </g>
    <g id="text_8">
     <!-- −0.2 -->
     <g transform="translate(299.144994 284.816287) scale(0.1 -0.1)">
      <use xlink:href="#DejaVuSans-2212"/>
      <use xlink:href="#DejaVuSans-30" x="83.789062"/>
      <use xlink:href="#DejaVuSans-2e" x="147.412109"/>
      <use xlink:href="#DejaVuSans-32" x="179.199219"/>
     </g>
    </g>
   </g>
   <g id="xtick_8">
    <g id="line2d_10">
     <path d="M 312.942742 247.841548 
L 316.608191 248.968982 
" style="fill: none; stroke: #000000; stroke-width: 0.8; stroke-linecap: square"/>
    </g>
    <g id="text_9">
     <!-- 0.0 -->
     <g transform="translate(318.609453 268.692429) scale(0.1 -0.1)">
      <use xlink:href="#DejaVuSans-30"/>
      <use xlink:href="#DejaVuSans-2e" x="63.623047"/>
      <use xlink:href="#DejaVuSans-30" x="95.410156"/>
     </g>
    </g>
   </g>
   <g id="xtick_9">
    <g id="line2d_11">
     <path d="M 327.916306 232.502514 
L 331.538007 233.592129 
" style="fill: none; stroke: #000000; stroke-width: 0.8; stroke-linecap: square"/>
    </g>
    <g id="text_10">
     <!-- 0.2 -->
     <g transform="translate(333.367149 253.114231) scale(0.1 -0.1)">
      <use xlink:href="#DejaVuSans-30"/>
      <use xlink:href="#DejaVuSans-2e" x="63.623047"/>
      <use xlink:href="#DejaVuSans-32" x="95.410156"/>
     </g>
    </g>
   </g>
   <g id="xtick_10">
    <g id="line2d_12">
     <path d="M 342.392046 217.673455 
L 345.970856 218.727124 
" style="fill: none; stroke: #000000; stroke-width: 0.8; stroke-linecap: square"/>
    </g>
    <g id="text_11">
     <!-- 0.4 -->
     <g transform="translate(347.633727 238.054456) scale(0.1 -0.1)">
      <use xlink:href="#DejaVuSans-30"/>
      <use xlink:href="#DejaVuSans-2e" x="63.623047"/>
      <use xlink:href="#DejaVuSans-34" x="95.410156"/>
     </g>
    </g>
   </g>
   <g id="text_12">
    <!-- z -->
    <g transform="translate(338.508563 278.988697) scale(0.1 -0.1)">
     <defs>
      <path id="DejaVuSans-7a" d="M 353 3500 
L 3084 3500 
L 3084 2975 
L 922 459 
L 3084 459 
L 3084 0 
L 275 0 
L 275 525 
L 2438 3041 
L 353 3041 
L 353 3500 
z
" transform="scale(0.015625)"/>
     </defs>
     <use xlink:href="#DejaVuSans-7a"/>
    </g>
   </g>
  </g>
  <g id="axis3d_3">
   <g id="line2d_13">
    <path d="M 352.090401 209.294766 
L 357.122702 99.402171 
" style="fill: none; stroke: #000000; stroke-width: 0.8; stroke-linecap: square"/>
   </g>
   <g id="xtick_11">
    <g id="line2d_14">
     <path d="M 351.462276 196.691975 
L 355.034024 197.715298 
" style="fill: none; stroke: #000000; stroke-width: 0.8; stroke-linecap: square"/>
    </g>
    <g id="text_13">
     <!-- −0.4 -->
     <g transform="translate(358.848394 202.050217) scale(0.1 -0.1)">
      <use xlink:href="#DejaVuSans-2212"/>
      <use xlink:href="#DejaVuSans-30" x="83.789062"/>
      <use xlink:href="#DejaVuSans-2e" x="147.412109"/>
      <use xlink:href="#DejaVuSans-34" x="179.199219"/>
     </g>
    </g>
   </g>
   <g id="xtick_12">
    <g id="line2d_15">
     <path d="M 352.393813 176.130123 
L 355.996504 177.13721 
" style="fill: none; stroke: #000000; stroke-width: 0.8; stroke-linecap: square"/>
    </g>
    <g id="text_14">
     <!-- −0.2 -->
     <g transform="translate(359.939887 181.523976) scale(0.1 -0.1)">
      <use xlink:href="#DejaVuSans-2212"/>
      <use xlink:href="#DejaVuSans-30" x="83.789062"/>
      <use xlink:href="#DejaVuSans-2e" x="147.412109"/>
      <use xlink:href="#DejaVuSans-32" x="179.199219"/>
     </g>
    </g>
   </g>
   <g id="xtick_13">
    <g id="line2d_16">
     <path d="M 353.341016 155.22245 
L 356.975191 156.212608 
" style="fill: none; stroke: #000000; stroke-width: 0.8; stroke-linecap: square"/>
    </g>
    <g id="text_15">
     <!-- 0.0 -->
     <g transform="translate(365.239531 160.653431) scale(0.1 -0.1)">
      <use xlink:href="#DejaVuSans-30"/>
      <use xlink:href="#DejaVuSans-2e" x="63.623047"/>
      <use xlink:href="#DejaVuSans-30" x="95.410156"/>
     </g>
    </g>
   </g>
   <g id="xtick_14">
    <g id="line2d_17">
     <path d="M 354.304285 133.960157 
L 357.970499 134.932664 
" style="fill: none; stroke: #000000; stroke-width: 0.8; stroke-linecap: square"/>
    </g>
    <g id="text_16">
     <!-- 0.2 -->
     <g transform="translate(366.368105 139.429846) scale(0.1 -0.1)">
      <use xlink:href="#DejaVuSans-30"/>
      <use xlink:href="#DejaVuSans-2e" x="63.623047"/>
      <use xlink:href="#DejaVuSans-32" x="95.410156"/>
     </g>
    </g>
   </g>
   <g id="xtick_15">
    <g id="line2d_18">
     <path d="M 355.284032 112.334145 
L 358.982853 113.288249 
" style="fill: none; stroke: #000000; stroke-width: 0.8; stroke-linecap: square"/>
    </g>
    <g id="text_17">
     <!-- 0.4 -->
     <g transform="translate(367.515933 117.844187) scale(0.1 -0.1)">
      <use xlink:href="#DejaVuSans-30"/>
      <use xlink:href="#DejaVuSans-2e" x="63.623047"/>
      <use xlink:href="#DejaVuSans-34" x="95.410156"/>
     </g>
    </g>
   </g>
   <g id="text_18">
    <!-- p_r -->
    <g transform="translate(387.197542 152.624154) scale(0.1 -0.1)">
     <defs>
      <path id="DejaVuSans-70" d="M 1159 525 
L 1159 -1331 
L 581 -1331 
L 581 3500 
L 1159 3500 
L 1159 2969 
Q 1341 3281 1617 3432 
Q 1894 3584 2278 3584 
Q 2916 3584 3314 3078 
Q 3713 2572 3713 1747 
Q 3713 922 3314 415 
Q 2916 -91 2278 -91 
Q 1894 -91 1617 61 
Q 1341 213 1159 525 
z
M 3116 1747 
Q 3116 2381 2855 2742 
Q 2594 3103 2138 3103 
Q 1681 3103 1420 2742 
Q 1159 2381 1159 1747 
Q 1159 1113 1420 752 
Q 1681 391 2138 391 
Q 2594 391 2855 752 
Q 3116 1113 3116 1747 
z
" transform="scale(0.015625)"/>
      <path id="DejaVuSans-5f" d="M 3263 -1063 
L 3263 -1509 
L -63 -1509 
L -63 -1063 
L 3263 -1063 
z
" transform="scale(0.015625)"/>
     </defs>
     <use xlink:href="#DejaVuSans-70"/>
     <use xlink:href="#DejaVuSans-5f" x="63.476562"/>
     <use xlink:href="#DejaVuSans-72" x="113.476562"/>
    </g>
   </g>
  </g>
  <g id="axes_1">
   <g id="line2d_19">
    <path d="M 260.367486 189.040919 
L 261.031088 188.060019 
L 263.127634 183.877842 
L 264.104192 178.207466 
L 262.041976 172.697836 
L 256.764587 168.225537 
L 239.843351 159.024924 
L 231.748483 153.688121 
L 223.283373 145.958296 
L 218.578037 139.203154 
L 216.7829 133.480515 
L 218.035201 129.815017 
L 222.724724 129.749655 
L 230.536669 135.176063 
L 238.047835 143.522279 
L 245.787235 154.330814 
L 254.055268 167.478158 
L 261.76416 180.030649 
L 267.307138 188.263648 
L 272.021713 194.039977 
L 276.46332 197.818972 
L 279.527523 198.876585 
L 280.798755 197.869454 
L 279.645622 195.909041 
L 275.631069 193.437709 
L 267.004358 190.235297 
L 253.265221 185.662745 
L 241.19271 180.656539 
L 229.035654 173.742344 
L 217.421597 164.057004 
L 208.476443 151.724733 
L 205.323956 142.552091 
L 205.499823 134.737849 
L 209.544304 128.626622 
L 218.112736 126.578691 
L 230.425221 130.422929 
L 243.55007 139.099512 
L 255.520615 149.812406 
L 267.554522 162.391935 
L 283.946677 180.426182 
L 290.396176 187.083632 
L 295.795349 192.328672 
L 298.964963 195.794156 
L 299.266109 197.644389 
L 297.230832 199.003686 
L 291.517378 200.378658 
L 280.637523 201.561656 
L 268.148535 201.747419 
L 253.521156 200.463127 
L 237.73779 196.98887 
L 221.384345 190.431343 
L 205.970594 180.034323 
L 194.538623 166.708202 
L 189.874014 155.700469 
L 189.650473 146.080883 
L 193.98075 138.925439 
L 203.651331 135.591257 
L 217.930962 137.721401 
L 232.309255 143.392651 
L 247.216759 151.067311 
L 274.801336 166.402604 
L 297.62629 178.081359 
L 304.194718 182.037642 
L 307.254292 185.477891 
L 306.911725 189.521533 
L 301.764606 194.381492 
L 294.203699 198.365766 
L 284.528298 201.883914 
L 269.991062 205.274132 
L 251.335773 207.013815 
L 230.715728 205.562478 
L 212.546349 200.777529 
L 195.158526 191.739388 
L 182.432611 179.724817 
L 176.905833 169.544674 
L 176.022528 160.568717 
L 179.517871 154.107376 
L 187.919026 150.44492 
L 200.883363 150.57327 
L 217.336164 153.840091 
L 234.64772 158.211461 
L 253.077341 162.432677 
L 272.547298 165.838938 
L 284.158879 167.630553 
L 292.996372 169.464747 
L 299.358049 172.259018 
L 301.238553 176.436719 
L 297.787145 181.830299 
L 289.803934 187.4574 
L 278.561823 192.575753 
L 262.326109 197.277758 
L 242.549302 199.955269 
L 222.874463 199.540366 
L 204.74324 196.083592 
L 187.967845 189.273789 
L 176.71561 181.064047 
L 172.589393 175.592474 
L 171.726989 171.435177 
L 174.356919 168.418494 
L 181.275346 167.528259 
L 192.393299 168.533619 
L 206.697204 169.953109 
L 222.671421 170.116558 
L 239.829671 168.323711 
L 257.486561 164.994787 
L 270.137962 162.486043 
L 279.785046 161.350326 
L 284.98555 161.952534 
L 286.761698 164.08467 
L 284.36463 167.920804 
L 277.354499 172.556137 
L 267.250463 176.667862 
L 254.419369 179.829291 
L 240.207779 181.420101 
L 224.101259 181.135323 
L 208.056004 178.731757 
L 194.532135 175.086121 
L 187.694551 172.844441 
L 183.948408 171.912207 
L 182.956408 172.886486 
L 185.475423 176.316497 
L 191.129572 181.04834 
L 198.548545 184.717303 
L 206.903128 185.982035 
L 216.621972 184.312728 
L 225.381583 180.688891 
L 234.3702 175.649232 
L 253.838273 163.10149 
L 261.904 158.240302 
L 267.427702 155.434404 
L 270.683017 154.310255 
L 271.415964 154.718491 
L 269.032237 156.372748 
L 263.715916 158.54276 
L 255.688457 160.563363 
L 244.705037 161.795726 
L 232.300992 161.499782 
L 220.014214 159.683956 
L 210.759123 157.613503 
L 204.746018 156.688087 
L 202.090146 158.287793 
L 202.840947 163.663866 
L 205.909963 170.995232 
L 209.849592 178.239466 
L 214.636555 185.129308 
L 220.074971 190.513142 
L 226.272629 193.441614 
L 232.030358 193.275574 
L 237.899059 190.651527 
L 243.766759 186.054653 
L 250.084494 179.421819 
L 255.675856 172.296355 
L 259.880826 165.625872 
L 261.431984 161.081851 
L 260.571712 158.300887 
L 256.737733 156.182364 
L 243.645173 152.71685 
L 235.030749 149.742179 
L 226.344877 145.431598 
L 220.616934 141.457194 
L 217.583674 138.630213 
L 217.174138 137.870875 
L 220.08954 141.36624 
L 225.585365 149.714141 
L 231.938868 160.637745 
L 238.253387 171.82269 
L 245.156575 183.121426 
L 251.321167 191.139372 
L 256.764627 195.677776 
L 261.892588 197.098406 
L 265.794326 195.738483 
L 268.664793 192.145488 
L 269.378446 187.953068 
L 267.471657 183.280994 
L 261.569474 178.375215 
L 241.869183 168.067168 
L 231.556129 161.391176 
L 222.208431 152.91117 
L 215.263875 142.60749 
L 213.196075 134.989757 
L 214.403531 129.476871 
L 219.275805 126.780852 
L 227.775595 129.148639 
L 237.073449 135.991239 
L 246.627601 146.132455 
L 256.224326 158.721504 
L 271.724667 181.395029 
L 277.349057 189.010592 
L 282.150612 194.535807 
L 286.008652 197.943102 
L 287.905785 199.072706 
L 287.52111 198.853937 
L 284.992074 198.094326 
L 278.738208 196.827617 
L 267.160037 194.774993 
L 253.853416 191.731185 
L 240.78297 187.351895 
L 228.052516 181.115045 
L 214.68853 171.221653 
L 204.283942 158.435883 
L 199.975854 147.834798 
L 199.780874 138.575998 
L 203.840982 131.703247 
L 212.832205 128.760767 
L 226.076253 131.675973 
L 239.056329 138.523966 
L 252.129154 147.870248 
L 265.978176 159.380717 
L 285.000643 175.864949 
L 300.208285 188.287131 
L 303.44106 191.498843 
L 304.473595 194.125759 
L 302.799496 196.715278 
L 297.025222 199.623301 
L 286.170234 202.546919 
L 274.258254 204.265651 
L 260.635874 204.797558 
L 243.03485 203.230617 
L 224.763796 198.464608 
L 207.576204 189.954578 
L 193.433634 177.777725 
L 185.174727 164.299419 
L 183.419505 154.220271 
L 185.978301 146.558073 
L 193.635086 141.549553 
L 206.395253 141.207392 
L 222.653581 145.481693 
L 239.300485 152.017768 
L 255.765767 159.015971 
L 272.743427 165.8092 
L 288.177577 171.375441 
L 297.013084 174.685109 
L 302.895191 177.665664 
L 306.235527 181.462877 
L 305.240481 186.101699 
L 300.268373 190.847544 
L 291.607668 195.759895 
L 279.580764 200.337933 
L 262.780637 204.251922 
L 242.630651 205.890071 
L 222.226323 204.079882 
L 204.321646 198.939492 
L 187.806073 189.705219 
L 177.03287 178.58433 
L 173.403961 170.792989 
L 173.302109 164.198285 
L 177.209275 159.003162 
L 185.78883 156.522933 
L 198.597573 157.112983 
L 232.271074 162.630741 
L 251.076974 164.598238 
L 268.061819 165.324782 
L 280.222592 165.708165 
L 289.209889 166.638884 
L 295.194495 169.008387 
L 296.162203 172.819983 
L 291.927835 178.048416 
L 283.548623 183.315567 
L 271.34935 188.253887 
L 254.446211 192.3266 
L 235.305635 194.027017 
L 217.715818 193.014483 
L 200.385754 189.317342 
L 185.654807 183.367075 
L 178.043856 178.537009 
L 174.431209 174.818778 
L 174.553344 172.938151 
L 178.491414 172.918119 
L 186.501031 174.612983 
L 197.531491 176.401591 
L 210.386795 176.544124 
L 224.988903 174.157294 
L 239.712023 169.737677 
L 254.352516 164.394795 
L 266.383188 160.211823 
L 275.222902 158.101836 
L 279.800532 158.370968 
L 280.32897 160.38083 
L 276.686783 163.878245 
L 269.23873 167.685237 
L 258.405655 171.037218 
L 245.902327 173.034922 
L 231.27148 173.407389 
L 216.342668 171.865783 
L 203.183165 169.130465 
L 195.714296 167.415095 
L 191.577246 167.190123 
L 190.08472 169.349665 
L 191.984653 174.436343 
L 196.554647 180.921764 
L 201.639227 185.738732 
L 207.551602 188.949922 
L 214.730799 189.852866 
L 222.759515 187.718262 
L 230.545166 183.383412 
L 236.361563 179.200634 
L 241.931567 174.742387 
L 260.94341 158.773391 
L 266.513349 154.22655 
L 266.177926 153.927267 
L 263.003137 154.580324 
L 256.697889 155.661627 
L 248.434281 156.273142 
L 238.070958 155.818743 
L 227.161662 153.935694 
L 211.296597 149.368979 
L 208.975825 150.238511 
L 210.09188 155.194973 
L 213.447294 162.786496 
L 217.340344 170.484692 
L 221.859903 178.41822 
L 227.661484 186.700172 
L 233.356799 192.238903 
L 239.543168 194.933267 
L 245.467086 194.198835 
L 250.536058 191.109008 
L 255.722687 185.61472 
L 259.717517 179.199473 
L 261.835584 172.863767 
L 261.383401 168.064399 
L 258.416869 164.286932 
L 252.110327 160.590713 
L 244.910999 157.260096 
L 237.014039 153.228215 
L 228.479956 147.562581 
L 221.353706 140.598785 
L 218.184419 135.024311 
L 218.500148 132.149564 
L 222.114133 132.905379 
L 228.818574 139.114507 
L 235.242531 147.559977 
L 242.044357 158.161219 
L 249.640514 171.008664 
L 256.139474 181.741694 
L 262.137592 190.294819 
L 267.08229 195.522146 
L 271.613854 198.128519 
L 274.720086 197.969832 
L 276.158519 196.094078 
L 275.607813 193.353976 
L 272.278513 190.017584 
L 264.519542 186.011393 
L 252.072086 180.931373 
L 240.615128 175.559106 
L 229.116648 168.388333 
L 218.539468 158.815528 
L 210.766463 147.023407 
L 208.397772 138.21681 
L 209.396371 131.441562 
L 214.296979 126.769589 
L 223.368655 126.785339 
L 235.46093 132.80382 
L 247.324626 142.719505 
L 258.586821 154.807742 
L 269.169339 167.730669 
L 276.57682 177.069402 
L 282.998766 184.868699 
L 288.505761 190.994586 
L 292.932313 195.429794 
L 295.158665 197.891555 
L 294.615927 199.000497 
L 291.530362 199.515493 
L 284.377862 199.825357 
L 271.739266 199.539109 
L 258.633098 198.152008 
L 244.003852 194.985275 
L 229.202783 189.521284 
L 213.940833 180.410472 
L 201.352148 167.942643 
L 194.738356 155.847984 
L 193.255266 144.835625 
L 196.427574 137.205685 
L 204.736955 132.874263 
L 217.902392 134.015774 
L 233.554111 140.358695 
L 248.610858 149.057923 
L 261.662884 157.58007 
L 273.458764 165.442904 
L 285.46791 173.158472 
L 296.079841 179.645705 
L 302.324274 183.679415 
L 306.15708 187.121047 
L 307.188196 190.459532 
L 304.454865 194.383974 
L 296.786264 198.784199 
L 287.029753 202.230666 
L 274.949196 204.967042 
L 258.307085 206.674886 
L 238.522935 205.738317 
L 219.44886 201.321122 
L 201.943195 193.074303 
L 187.717921 181.085482 
L 180.391689 169.600862 
L 178.340116 160.126105 
L 180.368454 152.789607 
L 187.236716 147.618403 
L 199.084765 146.439196 
L 214.845558 149.283111 
L 231.941969 154.310821 
L 248.868784 159.557799 
L 267.80073 164.720635 
L 282.263096 168.086619 
L 292.484395 170.611079 
L 299.576011 173.264523 
L 303.470948 177.027691 
L 302.61304 181.696364 
L 297.913193 186.496211 
L 289.721285 191.50987 
L 277.373661 196.587993 
L 260.202352 200.947018 
L 239.888391 202.975388 
L 220.084723 201.720088 
L 201.994831 197.218162 
L 185.737382 189.116225 
L 176.12155 180.614991 
L 172.248631 174.233581 
L 171.668444 168.992234 
L 174.79212 164.981041 
L 182.346356 163.280356 
L 194.097958 163.942053 
L 209.435981 165.770876 
L 226.188442 166.97052 
L 243.655332 166.664619 
L 260.487101 165.126418 
L 273.155088 163.773129 
L 282.791315 163.383746 
L 289.184031 164.725368 
L 290.56551 167.685633 
L 287.128086 172.216665 
L 279.251595 177.162239 
L 267.869054 181.64559 
L 252.060046 185.249059 
L 235.523519 186.614001 
L 218.546856 185.701133 
L 202.11301 182.506034 
L 188.723435 177.999063 
L 179.42993 173.769265 
L 179.194517 173.936112 
L 182.625837 176.287734 
L 189.509788 179.842783 
L 198.17146 182.334637 
L 208.297993 182.565584 
L 219.90012 179.887606 
L 231.488229 175.049018 
L 242.850676 169.178681 
L 254.519272 162.890995 
L 264.110899 158.193122 
L 270.024861 155.934839 
L 273.734519 155.247411 
L 274.846564 156.141434 
L 272.421309 158.490084 
L 266.288742 161.502209 
L 257.438192 164.133699 
L 245.677803 165.867365 
L 232.342002 165.982903 
L 218.968721 164.417851 
L 207.454146 162.081584 
L 200.46933 161.068909 
L 197.564834 162.574737 
L 198.021008 167.522869 
L 201.365978 175.065852 
L 205.616593 181.836247 
L 210.19763 187.15006 
L 215.203044 190.836136 
L 221.785711 192.541503 
L 227.832602 191.369559 
L 234.115152 187.967405 
L 240.22365 183.112164 
L 247.073419 176.471461 
L 253.67826 169.313369 
L 258.683041 163.446585 
L 261.526131 159.641123 
L 262.770214 157.124558 
L 262.126457 155.296387 
L 258.46078 154.4193 
L 251.975887 153.896904 
L 244.45534 153.00172 
L 235.139732 150.975779 
L 225.814857 147.679233 
L 219.292146 144.486334 
L 215.623161 142.466966 
L 214.568802 142.714639 
L 216.901556 147.373268 
L 226.699759 165.488445 
L 232.380361 175.59853 
L 238.224939 184.700986 
L 244.083268 191.617069 
L 249.841199 195.527981 
L 255.322905 196.106638 
L 259.726238 194.011548 
L 263.553327 189.574233 
L 265.490132 184.458526 
L 265.085329 179.049327 
L 261.161675 173.83988 
L 254.038723 169.261738 
L 245.109162 164.549627 
L 235.361278 158.725984 
L 226.618115 151.80714 
L 219.100633 142.809432 
L 216.114063 136.003159 
L 216.083694 130.997149 
L 219.285475 128.234151 
L 226.017063 130.04825 
L 234.10177 136.436703 
L 242.946175 146.643772 
L 251.500489 158.84005 
L 266.318373 182.166104 
L 271.961206 190.122722 
L 276.673654 195.463355 
L 280.629321 198.457643 
L 282.869197 198.963397 
L 283.012156 198.071059 
L 281.299993 196.637931 
L 276.305993 194.503651 
L 253.72275 187.847236 
L 241.546135 183.156677 
L 229.262322 176.576379 
L 217.043629 166.934892 
L 207.424121 154.471177 
L 203.674645 144.596329 
L 203.634735 136.045448 
L 207.61159 129.582261 
L 216.253337 127.087543 
L 228.847709 130.466067 
L 242.361274 138.705477 
L 254.686525 148.950434 
L 267.350952 161.242822 
L 284.115862 178.384071 
L 291.177859 185.230652 
L 297.108777 190.719397 
L 300.677492 194.507262 
L 301.13822 196.875286 
L 298.867341 198.658597 
L 292.638881 200.553305 
L 281.162672 202.282043 
L 269.57701 202.86355 
L 256.214319 202.243368 
L 239.811382 199.414234 
L 223.284278 193.708812 
L 207.107118 184.076223 
L 194.474821 171.162895 
L 188.473383 159.44311 
L 187.445677 148.960929 
L 191.067696 141.502342 
L 199.979815 137.437886 
L 213.76715 138.595234 
L 230.187395 144.38202 
L 245.932924 151.898817 
L 260.710213 159.481617 
L 275.928695 167.023575 
L 298.14794 177.22566 
L 304.027165 180.621363 
L 307.150943 184.222387 
L 306.486709 188.526664 
L 300.831808 193.680357 
L 291.346413 198.518842 
L 279.465186 202.520983 
L 262.888684 205.811563 
L 242.91973 206.789543 
L 222.554212 204.237054 
L 204.563285 198.187753 
L 188.463367 187.987636 
L 178.211818 175.952547 
L 174.966957 167.390289 
L 175.359582 160.401148 
L 179.95706 154.732279 
L 189.398808 152.144152 
L 203.104782 153.079459 
L 220.062799 156.52683 
L 237.281231 160.34989 
L 256.584991 163.786434 
L 284.805214 167.240208 
L 293.235403 168.915067 
L 298.801656 171.85809 
L 299.453632 176.119901 
L 295.554606 181.034194 
L 287.527375 186.365645 
L 275.739856 191.479552 
L 259.044919 195.976313 
L 239.216509 198.261279 
L 220.769561 197.584802 
L 202.901371 194.008338 
L 186.760519 187.389789 
L 177.274904 180.767829 
L 173.122572 175.851365 
L 172.21138 172.33799 
L 174.707261 169.971623 
L 181.425415 169.6732 
L 192.298815 170.982966 
L 205.96194 172.214604 
L 221.384785 171.827313 
L 238.385864 169.193925 
L 269.068192 161.694103 
L 278.536743 160.250368 
L 283.360817 160.781979 
L 284.680992 162.787283 
L 281.958854 166.502457 
L 274.822665 170.897118 
L 264.495633 174.803313 
L 250.402977 177.815532 
L 235.787713 178.881235 
L 219.831912 177.956725 
L 204.771299 175.18485 
L 187.712771 170.623297 
L 185.301935 171.073228 
L 186.171178 174.094884 
L 190.339352 179.174525 
L 195.763392 183.539415 
L 202.514125 186.603581 
L 210.684562 187.31865 
L 218.247173 185.607181 
L 225.90389 182.165472 
L 234.45485 176.993799 
L 243.376128 170.811452 
L 251.891012 164.725716 
L 258.140829 160.424895 
L 263.359322 157.117916 
L 267.540149 154.831203 
L 269.697058 154.012895 
L 269.194813 154.590811 
L 266.270201 155.952196 
L 259.964995 157.884349 
L 251.114458 159.388827 
L 239.909964 159.80452 
L 227.889087 158.665537 
L 216.697836 156.337496 
L 209.328188 154.5676 
L 205.329953 154.587284 
L 204.432471 157.860942 
L 206.836949 165.061258 
L 210.546968 172.793849 
L 215.349326 180.956235 
L 220.502256 187.641818 
L 225.850551 192.142874 
L 232.229779 194.162752 
L 237.573858 193.212053 
L 242.635897 190.376266 
L 248.539108 185.082391 
L 254.277386 178.142049 
L 258.564928 171.483449 
L 260.886324 166.030444 
L 260.926335 161.949559 
L 258.40917 159.022994 
L 252.684011 156.51054 
L 245.023426 153.959121 
L 237.131382 150.881411 
L 228.453787 146.284 
L 221.929126 141.366756 
L 218.325084 137.332262 
L 217.902929 135.63299 
L 220.759749 137.823829 
L 225.928034 144.419486 
L 231.491504 153.070244 
L 244.396216 175.340191 
L 250.263861 184.652145 
L 255.839522 191.785336 
L 261.115262 196.191126 
L 265.879217 197.524807 
L 269.409781 196.1328 
L 271.285669 193.25974 
L 271.377202 189.718397 
L 268.776078 185.446979 
L 261.956941 180.761524 
L 251.121691 175.52659 
L 240.61102 170.130469 
L 230.036072 163.169172 
L 220.352428 154.060017 
L 213.977037 144.316568 
L 211.703977 136.304313 
L 212.662956 130.246353 
L 217.324652 126.591482 
L 225.829356 127.748066 
L 235.819075 133.896795 
L 246.454194 144.067815 
L 256.573365 156.362447 
L 266.170779 169.565935 
L 273.162595 179.409479 
L 279.229235 187.459025 
L 284.217905 193.266725 
L 288.277034 197.153116 
L 290.326182 198.81563 
L 290.108539 199.09332 
L 271.057389 196.83788 
L 257.515993 194.493628 
L 244.372775 190.900343 
L 231.424205 185.564888 
L 217.227263 176.657026 
L 205.212008 164.436268 
L 198.852719 152.578725 
L 197.431722 141.783575 
L 200.520818 134.290942 
L 208.570631 130.123938 
L 221.301813 131.530463 
L 236.252123 138.326673 
L 250.512476 147.700581 
L 263.363951 157.506972 
L 275.217228 166.969126 
L 285.150749 174.749899 
L 301.500113 187.01923 
L 304.742482 190.226691 
L 305.68277 192.869072 
L 303.76848 195.905969 
L 297.405745 199.354831 
L 288.054442 202.282205 
L 275.638439 204.588562 
L 261.083326 205.619612 
L 242.741253 204.446342 
L 223.836484 199.917081 
L 206.389647 191.649076 
L 191.971276 179.634589 
L 183.501052 166.277737 
L 181.593174 156.346895 
L 183.921794 148.747428 
L 191.262084 143.600329 
L 203.693447 142.88096 
L 219.829205 146.612505 
L 236.680831 152.626399 
L 253.571457 159.116282 
L 271.297584 165.408561 
L 294.941788 172.9755 
L 301.389347 175.812114 
L 305.292545 179.53466 
L 304.810624 184.11338 
L 300.209791 188.969963 
L 291.791475 194.065253 
L 279.962936 198.853511 
L 263.29564 203.063784 
L 243.194679 205.084313 
L 222.753919 203.725356 
L 204.775373 199.089109 
L 187.994447 190.438761 
L 176.850893 179.855992 
L 172.906685 172.339511 
L 172.542475 165.995668 
L 176.108937 161.117992 
L 184.262059 158.788293 
L 196.63414 159.301448 
L 212.686707 161.659298 
L 229.859495 163.968761 
L 248.201834 165.18978 
L 265.309978 165.192797 
L 277.700366 165.019516 
L 286.950041 165.515217 
L 293.174965 167.529282 
L 294.368041 171.062468 
L 290.451856 176.066867 
L 282.232858 181.263216 
L 270.319618 186.068128 
L 253.755363 190.01673 
L 235.284629 191.636962 
L 217.834534 190.661283 
L 200.735752 187.12495 
L 186.43699 181.664322 
L 179.329275 177.60268 
L 175.867778 174.7073 
L 175.885512 173.523284 
L 179.677454 174.304867 
L 187.37745 176.623543 
L 197.556131 178.575431 
L 209.484257 178.617232 
L 223.108822 175.957594 
L 236.746372 171.250173 
L 262.657345 160.487966 
L 271.86917 157.524312 
L 276.740407 156.939499 
L 278.57669 157.959168 
L 276.942492 160.607318 
L 271.136636 164.20722 
L 262.662351 167.400849 
L 251.742964 169.815085 
L 238.159688 170.936596 
L 223.594686 170.205273 
L 209.90612 167.932251 
L 200.824232 165.914107 
L 195.082009 165.188497 
L 192.619254 166.788297 
L 193.508233 171.530199 
L 197.278869 178.365261 
L 202.042688 184.233101 
L 207.886326 188.776876 
L 214.179208 190.820396 
L 221.728124 189.967696 
L 228.194951 187.018574 
L 234.901167 182.455566 
L 241.180591 177.293334 
L 248.215274 170.959264 
L 263.548696 156.628301 
L 265.034204 154.923519 
L 264.780353 154.08111 
L 261.622794 154.23179 
L 255.396461 154.824534 
L 247.528497 154.990006 
L 237.603896 154.117447 
L 227.220675 151.87368 
L 212.775127 146.98186 
L 210.975894 147.842506 
L 212.590324 152.925359 
L 216.247962 160.674233 
L 220.589442 169.110443 
L 225.419528 177.637078 
L 231.504538 186.525995 
L 237.249299 192.353627 
L 243.324352 195.271461 
L 249.048826 194.766385 
L 253.946497 191.789229 
L 258.639496 186.467789 
L 261.771155 180.506856 
L 262.855945 174.44171 
L 261.195289 169.658947 
L 256.82827 165.722193 
L 248.995344 161.476938 
L 241.00447 157.391302 
L 233.061012 152.54493 
L 224.649484 145.547914 
L 219.695667 139.280506 
L 217.583177 134.016994 
L 218.461782 130.82011 
L 222.698973 131.270756 
L 230.01087 137.219746 
L 237.044394 145.799571 
L 244.254012 156.516525 
L 258.893226 180.661238 
L 264.400234 188.800002 
L 269.176732 194.448252 
L 273.715368 197.921627 
L 276.881104 198.596683 
L 278.45034 197.162948 
L 277.633717 194.769597 
L 274.016714 191.878233 
L 265.90378 188.269096 
L 252.841469 183.423712 
L 241.009374 178.199576 
L 229.098603 171.097448 
L 218.028908 161.472989 
L 209.655806 149.377348 
L 206.877065 140.340782 
L 207.367278 133.294813 
L 211.654389 127.715574 
L 220.313291 126.407544 
L 232.438084 131.038296 
L 245.200355 140.392217 
L 256.857183 151.757845 
L 268.193969 164.560229 
L 276.406623 174.301084 
L 283.542228 182.578742 
L 289.479056 189.003192 
L 294.381675 193.905728 
L 297.105193 196.934311 
L 297.106411 198.400808 
L 294.827109 199.357461 
L 288.845077 200.225393 
L 277.637134 200.769217 
L 264.669366 200.293913 
L 249.642404 198.155961 
L 234.330801 193.833549 
L 218.364967 186.183319 
L 204.057453 174.839899 
L 194.361337 161.167323 
L 191.322257 150.952755 
L 192.110671 142.853972 
L 197.441118 136.270869 
L 208.09972 134.043274 
L 222.892069 137.450016 
L 238.97882 144.944515 
L 251.999431 152.442578 
L 277.689411 168.047159 
L 298.915173 180.035847 
L 304.37306 183.649906 
L 307.167974 186.904737 
L 306.918309 190.70636 
L 302.077893 195.23722 
L 294.785559 198.970157 
L 284.725941 202.452083 
L 270.811846 205.479759 
L 252.660667 206.979773 
L 232.23767 205.3733 
L 214.20012 200.488942 
L 197.177151 191.585367 
L 184.165887 179.384335 
L 178.285077 168.726613 
L 177.232194 159.249383 
L 180.646721 152.498572 
L 189.037815 148.581134 
L 202.09704 148.662828 
L 218.626303 152.172187 
L 235.832303 156.985009 
L 254.126003 161.852564 
L 273.277943 165.99434 
L 284.948679 168.239959 
L 294.19809 170.461081 
L 300.508474 173.38409 
L 302.562704 177.605104 
L 299.336502 182.991213 
L 291.485407 188.665581 
L 280.605062 193.738725 
L 264.704275 198.52254 
L 245.03833 201.414328 
L 224.763042 201.176784 
L 206.500652 197.80314 
L 189.253373 190.833596 
L 177.301691 182.009985 
L 172.65596 175.755079 
L 171.52681 170.605827 
L 174.075258 166.917918 
L 180.96359 165.379215 
L 192.085829 166.035432 
L 206.806812 167.65549 
L 223.150418 168.456916 
L 240.162653 167.596722 
L 258.620564 165.124003 
L 271.377436 163.196352 
L 281.101756 162.4084 
L 286.866402 163.23385 
L 288.773071 165.702333 
L 286.175783 169.811918 
L 278.919023 174.649781 
L 268.484256 178.957763 
L 253.562763 182.592475 
L 237.799613 184.140094 
L 221.220997 183.543494 
L 204.944502 180.748764 
L 191.458182 176.686322 
L 181.532717 173.023234 
L 180.918548 173.607259 
L 183.88885 176.495393 
L 190.148611 180.612177 
L 198.193742 183.634145 
L 207.439523 184.310065 
L 218.094039 182.044057 
L 228.852306 177.433654 
L 239.064124 171.818099 
L 249.980089 165.337815 
L 259.505874 159.909092 
L 266.225291 156.598793 
L 270.917379 154.915899 
L 273.128734 154.873602 
L 272.284661 156.363437 
L 267.888117 158.869295 
L 260.742968 161.365993 
L 250.444886 163.377626 
L 238.009449 164.047516 
L 224.924891 163.026091 
L 212.898965 160.802825 
L 205.229903 159.230959 
L 200.936238 159.341186 
L 199.581884 162.439014 
L 201.558604 169.091393 
L 205.213979 176.4344 
L 209.329992 182.799241 
L 214.125783 188.244102 
L 219.638851 191.975469 
L 226.306011 193.072115 
L 231.624506 191.606585 
L 237.04721 188.396118 
L 243.308537 183.067247 
L 249.953504 176.071317 
L 255.683479 169.183308 
L 259.688289 163.665475 
L 261.802758 159.580489 
L 261.726143 157.050251 
L 258.895172 155.363096 
L 253.009079 154.243569 
L 245.694627 152.981298 
L 236.989513 150.784759 
L 227.86645 147.273265 
L 221.002692 143.533164 
L 216.924521 140.720314 
L 215.887484 140.234714 
L 218.198981 143.952758 
L 223.166419 152.320397 
L 234.210148 172.141822 
L 240.88637 183.043456 
L 247.103801 190.977634 
L 252.693165 195.405433 
L 258.076338 196.638533 
L 262.240704 195.11041 
L 265.747084 191.224969 
L 267.288166 186.503314 
L 266.398162 181.475002 
L 261.839458 176.362303 
L 253.727713 171.525228 
L 244.227629 166.559024 
L 234.072631 160.316109 
L 225.073075 152.832249 
L 217.607692 143.212675 
L 214.852205 135.995645 
L 215.129979 130.637918 
L 218.772627 127.542558 
L 226.035265 129.070294 
L 234.831281 135.444017 
L 244.358422 145.82289 
L 253.393258 158.13633 
L 268.681735 181.45307 
L 274.415623 189.46364 
L 279.153292 194.94635 
L 283.081754 198.219757 
L 285.202639 199.084394 
L 285.177335 198.55032 
L 283.253199 197.468302 
L 277.950168 195.767905 
L 267.616143 193.321693 
L 267.616143 193.321693 
" clip-path="url(#p63d7c9142a)" style="fill: none; stroke: #1f77b4; stroke-width: 0.5; stroke-linecap: square"/>
   </g>
   <g id="text_19">
    <!-- Projection onto r-z-p_r space with initial r = 0.14 -->
    <g transform="translate(91.219688 35.472) scale(0.12 -0.12)">
     <defs>
      <path id="DejaVuSans-50" d="M 1259 4147 
L 1259 2394 
L 2053 2394 
Q 2494 2394 2734 2622 
Q 2975 2850 2975 3272 
Q 2975 3691 2734 3919 
Q 2494 4147 2053 4147 
L 1259 4147 
z
M 628 4666 
L 2053 4666 
Q 2838 4666 3239 4311 
Q 3641 3956 3641 3272 
Q 3641 2581 3239 2228 
Q 2838 1875 2053 1875 
L 1259 1875 
L 1259 0 
L 628 0 
L 628 4666 
z
" transform="scale(0.015625)"/>
      <path id="DejaVuSans-6f" d="M 1959 3097 
Q 1497 3097 1228 2736 
Q 959 2375 959 1747 
Q 959 1119 1226 758 
Q 1494 397 1959 397 
Q 2419 397 2687 759 
Q 2956 1122 2956 1747 
Q 2956 2369 2687 2733 
Q 2419 3097 1959 3097 
z
M 1959 3584 
Q 2709 3584 3137 3096 
Q 3566 2609 3566 1747 
Q 3566 888 3137 398 
Q 2709 -91 1959 -91 
Q 1206 -91 779 398 
Q 353 888 353 1747 
Q 353 2609 779 3096 
Q 1206 3584 1959 3584 
z
" transform="scale(0.015625)"/>
      <path id="DejaVuSans-6a" d="M 603 3500 
L 1178 3500 
L 1178 -63 
Q 1178 -731 923 -1031 
Q 669 -1331 103 -1331 
L -116 -1331 
L -116 -844 
L 38 -844 
Q 366 -844 484 -692 
Q 603 -541 603 -63 
L 603 3500 
z
M 603 4863 
L 1178 4863 
L 1178 4134 
L 603 4134 
L 603 4863 
z
" transform="scale(0.015625)"/>
      <path id="DejaVuSans-65" d="M 3597 1894 
L 3597 1613 
L 953 1613 
Q 991 1019 1311 708 
Q 1631 397 2203 397 
Q 2534 397 2845 478 
Q 3156 559 3463 722 
L 3463 178 
Q 3153 47 2828 -22 
Q 2503 -91 2169 -91 
Q 1331 -91 842 396 
Q 353 884 353 1716 
Q 353 2575 817 3079 
Q 1281 3584 2069 3584 
Q 2775 3584 3186 3129 
Q 3597 2675 3597 1894 
z
M 3022 2063 
Q 3016 2534 2758 2815 
Q 2500 3097 2075 3097 
Q 1594 3097 1305 2825 
Q 1016 2553 972 2059 
L 3022 2063 
z
" transform="scale(0.015625)"/>
      <path id="DejaVuSans-63" d="M 3122 3366 
L 3122 2828 
Q 2878 2963 2633 3030 
Q 2388 3097 2138 3097 
Q 1578 3097 1268 2742 
Q 959 2388 959 1747 
Q 959 1106 1268 751 
Q 1578 397 2138 397 
Q 2388 397 2633 464 
Q 2878 531 3122 666 
L 3122 134 
Q 2881 22 2623 -34 
Q 2366 -91 2075 -91 
Q 1284 -91 818 406 
Q 353 903 353 1747 
Q 353 2603 823 3093 
Q 1294 3584 2113 3584 
Q 2378 3584 2631 3529 
Q 2884 3475 3122 3366 
z
" transform="scale(0.015625)"/>
      <path id="DejaVuSans-74" d="M 1172 4494 
L 1172 3500 
L 2356 3500 
L 2356 3053 
L 1172 3053 
L 1172 1153 
Q 1172 725 1289 603 
Q 1406 481 1766 481 
L 2356 481 
L 2356 0 
L 1766 0 
Q 1100 0 847 248 
Q 594 497 594 1153 
L 594 3053 
L 172 3053 
L 172 3500 
L 594 3500 
L 594 4494 
L 1172 4494 
z
" transform="scale(0.015625)"/>
      <path id="DejaVuSans-69" d="M 603 3500 
L 1178 3500 
L 1178 0 
L 603 0 
L 603 3500 
z
M 603 4863 
L 1178 4863 
L 1178 4134 
L 603 4134 
L 603 4863 
z
" transform="scale(0.015625)"/>
      <path id="DejaVuSans-6e" d="M 3513 2113 
L 3513 0 
L 2938 0 
L 2938 2094 
Q 2938 2591 2744 2837 
Q 2550 3084 2163 3084 
Q 1697 3084 1428 2787 
Q 1159 2491 1159 1978 
L 1159 0 
L 581 0 
L 581 3500 
L 1159 3500 
L 1159 2956 
Q 1366 3272 1645 3428 
Q 1925 3584 2291 3584 
Q 2894 3584 3203 3211 
Q 3513 2838 3513 2113 
z
" transform="scale(0.015625)"/>
      <path id="DejaVuSans-20" transform="scale(0.015625)"/>
      <path id="DejaVuSans-2d" d="M 313 2009 
L 1997 2009 
L 1997 1497 
L 313 1497 
L 313 2009 
z
" transform="scale(0.015625)"/>
      <path id="DejaVuSans-73" d="M 2834 3397 
L 2834 2853 
Q 2591 2978 2328 3040 
Q 2066 3103 1784 3103 
Q 1356 3103 1142 2972 
Q 928 2841 928 2578 
Q 928 2378 1081 2264 
Q 1234 2150 1697 2047 
L 1894 2003 
Q 2506 1872 2764 1633 
Q 3022 1394 3022 966 
Q 3022 478 2636 193 
Q 2250 -91 1575 -91 
Q 1294 -91 989 -36 
Q 684 19 347 128 
L 347 722 
Q 666 556 975 473 
Q 1284 391 1588 391 
Q 1994 391 2212 530 
Q 2431 669 2431 922 
Q 2431 1156 2273 1281 
Q 2116 1406 1581 1522 
L 1381 1569 
Q 847 1681 609 1914 
Q 372 2147 372 2553 
Q 372 3047 722 3315 
Q 1072 3584 1716 3584 
Q 2034 3584 2315 3537 
Q 2597 3491 2834 3397 
z
" transform="scale(0.015625)"/>
      <path id="DejaVuSans-61" d="M 2194 1759 
Q 1497 1759 1228 1600 
Q 959 1441 959 1056 
Q 959 750 1161 570 
Q 1363 391 1709 391 
Q 2188 391 2477 730 
Q 2766 1069 2766 1631 
L 2766 1759 
L 2194 1759 
z
M 3341 1997 
L 3341 0 
L 2766 0 
L 2766 531 
Q 2569 213 2275 61 
Q 1981 -91 1556 -91 
Q 1019 -91 701 211 
Q 384 513 384 1019 
Q 384 1609 779 1909 
Q 1175 2209 1959 2209 
L 2766 2209 
L 2766 2266 
Q 2766 2663 2505 2880 
Q 2244 3097 1772 3097 
Q 1472 3097 1187 3025 
Q 903 2953 641 2809 
L 641 3341 
Q 956 3463 1253 3523 
Q 1550 3584 1831 3584 
Q 2591 3584 2966 3190 
Q 3341 2797 3341 1997 
z
" transform="scale(0.015625)"/>
      <path id="DejaVuSans-77" d="M 269 3500 
L 844 3500 
L 1563 769 
L 2278 3500 
L 2956 3500 
L 3675 769 
L 4391 3500 
L 4966 3500 
L 4050 0 
L 3372 0 
L 2619 2869 
L 1863 0 
L 1184 0 
L 269 3500 
z
" transform="scale(0.015625)"/>
      <path id="DejaVuSans-68" d="M 3513 2113 
L 3513 0 
L 2938 0 
L 2938 2094 
Q 2938 2591 2744 2837 
Q 2550 3084 2163 3084 
Q 1697 3084 1428 2787 
Q 1159 2491 1159 1978 
L 1159 0 
L 581 0 
L 581 4863 
L 1159 4863 
L 1159 2956 
Q 1366 3272 1645 3428 
Q 1925 3584 2291 3584 
Q 2894 3584 3203 3211 
Q 3513 2838 3513 2113 
z
" transform="scale(0.015625)"/>
      <path id="DejaVuSans-6c" d="M 603 4863 
L 1178 4863 
L 1178 0 
L 603 0 
L 603 4863 
z
" transform="scale(0.015625)"/>
      <path id="DejaVuSans-3d" d="M 678 2906 
L 4684 2906 
L 4684 2381 
L 678 2381 
L 678 2906 
z
M 678 1631 
L 4684 1631 
L 4684 1100 
L 678 1100 
L 678 1631 
z
" transform="scale(0.015625)"/>
      <path id="DejaVuSans-31" d="M 794 531 
L 1825 531 
L 1825 4091 
L 703 3866 
L 703 4441 
L 1819 4666 
L 2450 4666 
L 2450 531 
L 3481 531 
L 3481 0 
L 794 0 
L 794 531 
z
" transform="scale(0.015625)"/>
     </defs>
     <use xlink:href="#DejaVuSans-50"/>
     <use xlink:href="#DejaVuSans-72" x="58.552734"/>
     <use xlink:href="#DejaVuSans-6f" x="97.416016"/>
     <use xlink:href="#DejaVuSans-6a" x="158.597656"/>
     <use xlink:href="#DejaVuSans-65" x="186.380859"/>
     <use xlink:href="#DejaVuSans-63" x="247.904297"/>
     <use xlink:href="#DejaVuSans-74" x="302.884766"/>
     <use xlink:href="#DejaVuSans-69" x="342.09375"/>
     <use xlink:href="#DejaVuSans-6f" x="369.876953"/>
     <use xlink:href="#DejaVuSans-6e" x="431.058594"/>
     <use xlink:href="#DejaVuSans-20" x="494.4375"/>
     <use xlink:href="#DejaVuSans-6f" x="526.224609"/>
     <use xlink:href="#DejaVuSans-6e" x="587.40625"/>
     <use xlink:href="#DejaVuSans-74" x="650.785156"/>
     <use xlink:href="#DejaVuSans-6f" x="689.994141"/>
     <use xlink:href="#DejaVuSans-20" x="751.175781"/>
     <use xlink:href="#DejaVuSans-72" x="782.962891"/>
     <use xlink:href="#DejaVuSans-2d" x="817.701172"/>
     <use xlink:href="#DejaVuSans-7a" x="853.785156"/>
     <use xlink:href="#DejaVuSans-2d" x="906.275391"/>
     <use xlink:href="#DejaVuSans-70" x="942.359375"/>
     <use xlink:href="#DejaVuSans-5f" x="1005.835938"/>
     <use xlink:href="#DejaVuSans-72" x="1055.835938"/>
     <use xlink:href="#DejaVuSans-20" x="1096.949219"/>
     <use xlink:href="#DejaVuSans-73" x="1128.736328"/>
     <use xlink:href="#DejaVuSans-70" x="1180.835938"/>
     <use xlink:href="#DejaVuSans-61" x="1244.3125"/>
     <use xlink:href="#DejaVuSans-63" x="1305.591797"/>
     <use xlink:href="#DejaVuSans-65" x="1360.572266"/>
     <use xlink:href="#DejaVuSans-20" x="1422.095703"/>
     <use xlink:href="#DejaVuSans-77" x="1453.882812"/>
     <use xlink:href="#DejaVuSans-69" x="1535.669922"/>
     <use xlink:href="#DejaVuSans-74" x="1563.453125"/>
     <use xlink:href="#DejaVuSans-68" x="1602.662109"/>
     <use xlink:href="#DejaVuSans-20" x="1666.041016"/>
     <use xlink:href="#DejaVuSans-69" x="1697.828125"/>
     <use xlink:href="#DejaVuSans-6e" x="1725.611328"/>
     <use xlink:href="#DejaVuSans-69" x="1788.990234"/>
     <use xlink:href="#DejaVuSans-74" x="1816.773438"/>
     <use xlink:href="#DejaVuSans-69" x="1855.982422"/>
     <use xlink:href="#DejaVuSans-61" x="1883.765625"/>
     <use xlink:href="#DejaVuSans-6c" x="1945.044922"/>
     <use xlink:href="#DejaVuSans-20" x="1972.828125"/>
     <use xlink:href="#DejaVuSans-72" x="2004.615234"/>
     <use xlink:href="#DejaVuSans-20" x="2045.728516"/>
     <use xlink:href="#DejaVuSans-3d" x="2077.515625"/>
     <use xlink:href="#DejaVuSans-20" x="2161.304688"/>
     <use xlink:href="#DejaVuSans-30" x="2193.091797"/>
     <use xlink:href="#DejaVuSans-2e" x="2256.714844"/>
     <use xlink:href="#DejaVuSans-31" x="2288.501953"/>
     <use xlink:href="#DejaVuSans-34" x="2352.125"/>
    </g>
   </g>
  </g>
 </g>
 <defs>
  <clipPath id="p63d7c9142a">
   <rect x="103.104" y="41.472" width="266.112" height="266.112"/>
  </clipPath>
 </defs>
</svg>
