<?xml version="1.0" encoding="utf-8" standalone="no"?>
<!DOCTYPE svg PUBLIC "-//W3C//DTD SVG 1.1//EN"
  "http://www.w3.org/Graphics/SVG/1.1/DTD/svg11.dtd">
<svg xmlns:xlink="http://www.w3.org/1999/xlink" width="460.8pt" height="345.6pt" viewBox="0 0 460.8 345.6" xmlns="http://www.w3.org/2000/svg" version="1.1">
 <metadata>
  <rdf:RDF xmlns:dc="http://purl.org/dc/elements/1.1/" xmlns:cc="http://creativecommons.org/ns#" xmlns:rdf="http://www.w3.org/1999/02/22-rdf-syntax-ns#">
   <cc:Work>
    <dc:type rdf:resource="http://purl.org/dc/dcmitype/StillImage"/>
    <dc:date>2023-10-23T21:33:02.327757</dc:date>
    <dc:format>image/svg+xml</dc:format>
    <dc:creator>
     <cc:Agent>
      <dc:title>Matplotlib v3.8.0, https://matplotlib.org/</dc:title>
     </cc:Agent>
    </dc:creator>
   </cc:Work>
  </rdf:RDF>
 </metadata>
 <defs>
  <style type="text/css">*{stroke-linejoin: round; stroke-linecap: butt}</style>
 </defs>
 <g id="figure_1">
  <g id="patch_1">
   <path d="M 0 345.6 
L 460.8 345.6 
L 460.8 0 
L 0 0 
z
" style="fill: #ffffff"/>
  </g>
  <g id="patch_2">
   <path d="M 103.104 307.584 
L 369.216 307.584 
L 369.216 41.472 
L 103.104 41.472 
z
" style="fill: #ffffff"/>
  </g>
  <g id="pane3d_1">
   <g id="patch_3">
    <path d="M 123.197291 241.969309 
L 211.076164 168.307495 
L 209.854564 62.073991 
L 117.770234 129.272941 
" style="fill: #f2f2f2; opacity: 0.5; stroke: #f2f2f2; stroke-linejoin: miter"/>
   </g>
  </g>
  <g id="pane3d_2">
   <g id="patch_4">
    <path d="M 211.076164 168.307495 
L 352.090401 209.294766 
L 357.122702 99.402171 
L 209.854564 62.073991 
" style="fill: #e6e6e6; opacity: 0.5; stroke: #e6e6e6; stroke-linejoin: miter"/>
   </g>
  </g>
  <g id="pane3d_3">
   <g id="patch_5">
    <path d="M 123.197291 241.969309 
L 272.679269 290.790123 
L 352.090401 209.294766 
L 211.076164 168.307495 
" style="fill: #ececec; opacity: 0.5; stroke: #ececec; stroke-linejoin: miter"/>
   </g>
  </g>
  <g id="grid3d_1">
   <g id="Line3DCollection_1">
    <path d="M 139.745029 247.3738 
L 226.747915 172.862654 
L 226.190662 66.214715 
" style="fill: none; stroke: #b0b0b0; stroke-width: 0.8"/>
    <path d="M 167.574724 256.462979 
L 253.069813 180.513391 
L 253.645623 73.173748 
" style="fill: none; stroke: #b0b0b0; stroke-width: 0.8"/>
    <path d="M 195.967881 265.736184 
L 279.880048 188.306068 
L 281.632185 80.267526 
" style="fill: none; stroke: #b0b0b0; stroke-width: 0.8"/>
    <path d="M 224.941789 275.199062 
L 307.192338 196.244672 
L 310.165939 87.500001 
" style="fill: none; stroke: #b0b0b0; stroke-width: 0.8"/>
    <path d="M 254.514447 284.857492 
L 335.020917 204.333341 
L 339.263092 94.875281 
" style="fill: none; stroke: #b0b0b0; stroke-width: 0.8"/>
   </g>
  </g>
  <g id="grid3d_2">
   <g id="Line3DCollection_2">
    <path d="M 129.321936 120.843035 
L 134.184874 232.759299 
L 282.646541 280.56125 
" style="fill: none; stroke: #b0b0b0; stroke-width: 0.8"/>
    <path d="M 147.908894 107.279119 
L 151.886109 217.921773 
L 298.68087 264.106083 
" style="fill: none; stroke: #b0b0b0; stroke-width: 0.8"/>
    <path d="M 165.860779 94.178651 
L 169.008295 203.569617 
L 314.163547 248.217048 
" style="fill: none; stroke: #b0b0b0; stroke-width: 0.8"/>
    <path d="M 183.209592 81.518278 
L 185.579387 189.679399 
L 329.122557 232.865423 
" style="fill: none; stroke: #b0b0b0; stroke-width: 0.8"/>
    <path d="M 199.985219 69.276189 
L 201.62557 176.22917 
L 343.584028 218.024397 
" style="fill: none; stroke: #b0b0b0; stroke-width: 0.8"/>
   </g>
  </g>
  <g id="grid3d_3">
   <g id="Line3DCollection_3">
    <path d="M 352.651911 197.032811 
L 210.939601 156.431576 
L 122.59264 229.41333 
" style="fill: none; stroke: #b0b0b0; stroke-width: 0.8"/>
    <path d="M 353.593746 176.465549 
L 210.710684 136.52439 
L 121.577933 208.34229 
" style="fill: none; stroke: #b0b0b0; stroke-width: 0.8"/>
    <path d="M 354.551427 155.552235 
L 210.478101 116.298387 
L 120.545497 186.903085 
" style="fill: none; stroke: #b0b0b0; stroke-width: 0.8"/>
    <path d="M 355.525359 134.284061 
L 210.241763 95.745848 
L 119.494863 165.085982 
" style="fill: none; stroke: #b0b0b0; stroke-width: 0.8"/>
    <path d="M 356.515957 112.651918 
L 210.001579 74.858801 
L 118.425545 142.8809 
" style="fill: none; stroke: #b0b0b0; stroke-width: 0.8"/>
   </g>
  </g>
  <g id="axis3d_1">
   <g id="line2d_1">
    <path d="M 123.197291 241.969309 
L 272.679269 290.790123 
" style="fill: none; stroke: #000000; stroke-width: 0.8; stroke-linecap: square"/>
   </g>
   <g id="xtick_1">
    <g id="line2d_2">
     <path d="M 140.502812 246.724819 
L 138.226203 248.674556 
" style="fill: none; stroke: #000000; stroke-width: 0.8; stroke-linecap: square"/>
    </g>
    <g id="text_1">
     <!-- −0.4 -->
     <g transform="translate(120.082057 270.734746) scale(0.1 -0.1)">
      <defs>
       <path id="DejaVuSans-2212" d="M 678 2272 
L 4684 2272 
L 4684 1741 
L 678 1741 
L 678 2272 
z
" transform="scale(0.015625)"/>
       <path id="DejaVuSans-30" d="M 2034 4250 
Q 1547 4250 1301 3770 
Q 1056 3291 1056 2328 
Q 1056 1369 1301 889 
Q 1547 409 2034 409 
Q 2525 409 2770 889 
Q 3016 1369 3016 2328 
Q 3016 3291 2770 3770 
Q 2525 4250 2034 4250 
z
M 2034 4750 
Q 2819 4750 3233 4129 
Q 3647 3509 3647 2328 
Q 3647 1150 3233 529 
Q 2819 -91 2034 -91 
Q 1250 -91 836 529 
Q 422 1150 422 2328 
Q 422 3509 836 4129 
Q 1250 4750 2034 4750 
z
" transform="scale(0.015625)"/>
       <path id="DejaVuSans-2e" d="M 684 794 
L 1344 794 
L 1344 0 
L 684 0 
L 684 794 
z
" transform="scale(0.015625)"/>
       <path id="DejaVuSans-34" d="M 2419 4116 
L 825 1625 
L 2419 1625 
L 2419 4116 
z
M 2253 4666 
L 3047 4666 
L 3047 1625 
L 3713 1625 
L 3713 1100 
L 3047 1100 
L 3047 0 
L 2419 0 
L 2419 1100 
L 313 1100 
L 313 1709 
L 2253 4666 
z
" transform="scale(0.015625)"/>
      </defs>
      <use xlink:href="#DejaVuSans-2212"/>
      <use xlink:href="#DejaVuSans-30" x="83.789062"/>
      <use xlink:href="#DejaVuSans-2e" x="147.412109"/>
      <use xlink:href="#DejaVuSans-34" x="179.199219"/>
     </g>
    </g>
   </g>
   <g id="xtick_2">
    <g id="line2d_3">
     <path d="M 168.319982 255.800928 
L 166.08097 257.789956 
" style="fill: none; stroke: #000000; stroke-width: 0.8; stroke-linecap: square"/>
    </g>
    <g id="text_2">
     <!-- −0.2 -->
     <g transform="translate(147.940862 280.01671) scale(0.1 -0.1)">
      <defs>
       <path id="DejaVuSans-32" d="M 1228 531 
L 3431 531 
L 3431 0 
L 469 0 
L 469 531 
Q 828 903 1448 1529 
Q 2069 2156 2228 2338 
Q 2531 2678 2651 2914 
Q 2772 3150 2772 3378 
Q 2772 3750 2511 3984 
Q 2250 4219 1831 4219 
Q 1534 4219 1204 4116 
Q 875 4013 500 3803 
L 500 4441 
Q 881 4594 1212 4672 
Q 1544 4750 1819 4750 
Q 2544 4750 2975 4387 
Q 3406 4025 3406 3419 
Q 3406 3131 3298 2873 
Q 3191 2616 2906 2266 
Q 2828 2175 2409 1742 
Q 1991 1309 1228 531 
z
" transform="scale(0.015625)"/>
      </defs>
      <use xlink:href="#DejaVuSans-2212"/>
      <use xlink:href="#DejaVuSans-30" x="83.789062"/>
      <use xlink:href="#DejaVuSans-2e" x="147.412109"/>
      <use xlink:href="#DejaVuSans-32" x="179.199219"/>
     </g>
    </g>
   </g>
   <g id="xtick_3">
    <g id="line2d_4">
     <path d="M 196.69995 265.060666 
L 194.500531 267.090184 
" style="fill: none; stroke: #000000; stroke-width: 0.8; stroke-linecap: square"/>
    </g>
    <g id="text_3">
     <!-- 0.0 -->
     <g transform="translate(180.555708 289.487318) scale(0.1 -0.1)">
      <use xlink:href="#DejaVuSans-30"/>
      <use xlink:href="#DejaVuSans-2e" x="63.623047"/>
      <use xlink:href="#DejaVuSans-30" x="95.410156"/>
     </g>
    </g>
   </g>
   <g id="xtick_4">
    <g id="line2d_5">
     <path d="M 225.659969 274.509662 
L 223.502242 276.580919 
" style="fill: none; stroke: #000000; stroke-width: 0.8; stroke-linecap: square"/>
    </g>
    <g id="text_4">
     <!-- 0.2 -->
     <g transform="translate(209.564345 299.152381) scale(0.1 -0.1)">
      <use xlink:href="#DejaVuSans-30"/>
      <use xlink:href="#DejaVuSans-2e" x="63.623047"/>
      <use xlink:href="#DejaVuSans-32" x="95.410156"/>
     </g>
    </g>
   </g>
   <g id="xtick_5">
    <g id="line2d_6">
     <path d="M 255.218008 284.153777 
L 253.104175 286.268074 
" style="fill: none; stroke: #000000; stroke-width: 0.8; stroke-linecap: square"/>
    </g>
    <g id="text_5">
     <!-- 0.4 -->
     <g transform="translate(239.174779 309.01795) scale(0.1 -0.1)">
      <use xlink:href="#DejaVuSans-30"/>
      <use xlink:href="#DejaVuSans-2e" x="63.623047"/>
      <use xlink:href="#DejaVuSans-34" x="95.410156"/>
     </g>
    </g>
   </g>
   <g id="text_6">
    <!-- r -->
    <g transform="translate(177.620959 303.76759) scale(0.1 -0.1)">
     <defs>
      <path id="DejaVuSans-72" d="M 2631 2963 
Q 2534 3019 2420 3045 
Q 2306 3072 2169 3072 
Q 1681 3072 1420 2755 
Q 1159 2438 1159 1844 
L 1159 0 
L 581 0 
L 581 3500 
L 1159 3500 
L 1159 2956 
Q 1341 3275 1631 3429 
Q 1922 3584 2338 3584 
Q 2397 3584 2469 3576 
Q 2541 3569 2628 3553 
L 2631 2963 
z
" transform="scale(0.015625)"/>
     </defs>
     <use xlink:href="#DejaVuSans-72"/>
    </g>
   </g>
  </g>
  <g id="axis3d_2">
   <g id="line2d_7">
    <path d="M 352.090401 209.294766 
L 272.679269 290.790123 
" style="fill: none; stroke: #000000; stroke-width: 0.8; stroke-linecap: square"/>
   </g>
   <g id="xtick_6">
    <g id="line2d_8">
     <path d="M 281.395758 280.158521 
L 285.151326 281.367745 
" style="fill: none; stroke: #000000; stroke-width: 0.8; stroke-linecap: square"/>
    </g>
    <g id="text_7">
     <!-- −0.4 -->
     <g transform="translate(283.325813 301.514986) scale(0.1 -0.1)">
      <use xlink:href="#DejaVuSans-2212"/>
      <use xlink:href="#DejaVuSans-30" x="83.789062"/>
      <use xlink:href="#DejaVuSans-2e" x="147.412109"/>
      <use xlink:href="#DejaVuSans-34" x="179.199219"/>
     </g>
    </g>
   </g>
   <g id="xtick_7">
    <g id="line2d_9">
     <path d="M 297.445222 263.717326 
L 301.155291 264.884581 
" style="fill: none; stroke: #000000; stroke-width: 0.8; stroke-linecap: square"/>
    </g>
    <g id="text_8">
     <!-- −0.2 -->
     <g transform="translate(299.144994 284.816287) scale(0.1 -0.1)">
      <use xlink:href="#DejaVuSans-2212"/>
      <use xlink:href="#DejaVuSans-30" x="83.789062"/>
      <use xlink:href="#DejaVuSans-2e" x="147.412109"/>
      <use xlink:href="#DejaVuSans-32" x="179.199219"/>
     </g>
    </g>
   </g>
   <g id="xtick_8">
    <g id="line2d_10">
     <path d="M 312.942742 247.841548 
L 316.608191 248.968982 
" style="fill: none; stroke: #000000; stroke-width: 0.8; stroke-linecap: square"/>
    </g>
    <g id="text_9">
     <!-- 0.0 -->
     <g transform="translate(318.609453 268.692429) scale(0.1 -0.1)">
      <use xlink:href="#DejaVuSans-30"/>
      <use xlink:href="#DejaVuSans-2e" x="63.623047"/>
      <use xlink:href="#DejaVuSans-30" x="95.410156"/>
     </g>
    </g>
   </g>
   <g id="xtick_9">
    <g id="line2d_11">
     <path d="M 327.916306 232.502514 
L 331.538007 233.592129 
" style="fill: none; stroke: #000000; stroke-width: 0.8; stroke-linecap: square"/>
    </g>
    <g id="text_10">
     <!-- 0.2 -->
     <g transform="translate(333.367149 253.114231) scale(0.1 -0.1)">
      <use xlink:href="#DejaVuSans-30"/>
      <use xlink:href="#DejaVuSans-2e" x="63.623047"/>
      <use xlink:href="#DejaVuSans-32" x="95.410156"/>
     </g>
    </g>
   </g>
   <g id="xtick_10">
    <g id="line2d_12">
     <path d="M 342.392046 217.673455 
L 345.970856 218.727124 
" style="fill: none; stroke: #000000; stroke-width: 0.8; stroke-linecap: square"/>
    </g>
    <g id="text_11">
     <!-- 0.4 -->
     <g transform="translate(347.633727 238.054456) scale(0.1 -0.1)">
      <use xlink:href="#DejaVuSans-30"/>
      <use xlink:href="#DejaVuSans-2e" x="63.623047"/>
      <use xlink:href="#DejaVuSans-34" x="95.410156"/>
     </g>
    </g>
   </g>
   <g id="text_12">
    <!-- z -->
    <g transform="translate(338.508563 278.988697) scale(0.1 -0.1)">
     <defs>
      <path id="DejaVuSans-7a" d="M 353 3500 
L 3084 3500 
L 3084 2975 
L 922 459 
L 3084 459 
L 3084 0 
L 275 0 
L 275 525 
L 2438 3041 
L 353 3041 
L 353 3500 
z
" transform="scale(0.015625)"/>
     </defs>
     <use xlink:href="#DejaVuSans-7a"/>
    </g>
   </g>
  </g>
  <g id="axis3d_3">
   <g id="line2d_13">
    <path d="M 352.090401 209.294766 
L 357.122702 99.402171 
" style="fill: none; stroke: #000000; stroke-width: 0.8; stroke-linecap: square"/>
   </g>
   <g id="xtick_11">
    <g id="line2d_14">
     <path d="M 351.462276 196.691975 
L 355.034024 197.715298 
" style="fill: none; stroke: #000000; stroke-width: 0.8; stroke-linecap: square"/>
    </g>
    <g id="text_13">
     <!-- −0.4 -->
     <g transform="translate(358.848394 202.050217) scale(0.1 -0.1)">
      <use xlink:href="#DejaVuSans-2212"/>
      <use xlink:href="#DejaVuSans-30" x="83.789062"/>
      <use xlink:href="#DejaVuSans-2e" x="147.412109"/>
      <use xlink:href="#DejaVuSans-34" x="179.199219"/>
     </g>
    </g>
   </g>
   <g id="xtick_12">
    <g id="line2d_15">
     <path d="M 352.393813 176.130123 
L 355.996504 177.13721 
" style="fill: none; stroke: #000000; stroke-width: 0.8; stroke-linecap: square"/>
    </g>
    <g id="text_14">
     <!-- −0.2 -->
     <g transform="translate(359.939887 181.523976) scale(0.1 -0.1)">
      <use xlink:href="#DejaVuSans-2212"/>
      <use xlink:href="#DejaVuSans-30" x="83.789062"/>
      <use xlink:href="#DejaVuSans-2e" x="147.412109"/>
      <use xlink:href="#DejaVuSans-32" x="179.199219"/>
     </g>
    </g>
   </g>
   <g id="xtick_13">
    <g id="line2d_16">
     <path d="M 353.341016 155.22245 
L 356.975191 156.212608 
" style="fill: none; stroke: #000000; stroke-width: 0.8; stroke-linecap: square"/>
    </g>
    <g id="text_15">
     <!-- 0.0 -->
     <g transform="translate(365.239531 160.653431) scale(0.1 -0.1)">
      <use xlink:href="#DejaVuSans-30"/>
      <use xlink:href="#DejaVuSans-2e" x="63.623047"/>
      <use xlink:href="#DejaVuSans-30" x="95.410156"/>
     </g>
    </g>
   </g>
   <g id="xtick_14">
    <g id="line2d_17">
     <path d="M 354.304285 133.960157 
L 357.970499 134.932664 
" style="fill: none; stroke: #000000; stroke-width: 0.8; stroke-linecap: square"/>
    </g>
    <g id="text_16">
     <!-- 0.2 -->
     <g transform="translate(366.368105 139.429846) scale(0.1 -0.1)">
      <use xlink:href="#DejaVuSans-30"/>
      <use xlink:href="#DejaVuSans-2e" x="63.623047"/>
      <use xlink:href="#DejaVuSans-32" x="95.410156"/>
     </g>
    </g>
   </g>
   <g id="xtick_15">
    <g id="line2d_18">
     <path d="M 355.284032 112.334145 
L 358.982853 113.288249 
" style="fill: none; stroke: #000000; stroke-width: 0.8; stroke-linecap: square"/>
    </g>
    <g id="text_17">
     <!-- 0.4 -->
     <g transform="translate(367.515933 117.844187) scale(0.1 -0.1)">
      <use xlink:href="#DejaVuSans-30"/>
      <use xlink:href="#DejaVuSans-2e" x="63.623047"/>
      <use xlink:href="#DejaVuSans-34" x="95.410156"/>
     </g>
    </g>
   </g>
   <g id="text_18">
    <!-- p_r -->
    <g transform="translate(387.197542 152.624154) scale(0.1 -0.1)">
     <defs>
      <path id="DejaVuSans-70" d="M 1159 525 
L 1159 -1331 
L 581 -1331 
L 581 3500 
L 1159 3500 
L 1159 2969 
Q 1341 3281 1617 3432 
Q 1894 3584 2278 3584 
Q 2916 3584 3314 3078 
Q 3713 2572 3713 1747 
Q 3713 922 3314 415 
Q 2916 -91 2278 -91 
Q 1894 -91 1617 61 
Q 1341 213 1159 525 
z
M 3116 1747 
Q 3116 2381 2855 2742 
Q 2594 3103 2138 3103 
Q 1681 3103 1420 2742 
Q 1159 2381 1159 1747 
Q 1159 1113 1420 752 
Q 1681 391 2138 391 
Q 2594 391 2855 752 
Q 3116 1113 3116 1747 
z
" transform="scale(0.015625)"/>
      <path id="DejaVuSans-5f" d="M 3263 -1063 
L 3263 -1509 
L -63 -1509 
L -63 -1063 
L 3263 -1063 
z
" transform="scale(0.015625)"/>
     </defs>
     <use xlink:href="#DejaVuSans-70"/>
     <use xlink:href="#DejaVuSans-5f" x="63.476562"/>
     <use xlink:href="#DejaVuSans-72" x="113.476562"/>
    </g>
   </g>
  </g>
  <g id="axes_1">
   <g id="line2d_19">
    <path d="M 213.23161 174.344072 
L 214.041204 171.404135 
L 220.260077 155.501803 
L 228.169258 142.851561 
L 237.172535 133.477477 
L 247.812586 127.139499 
L 257.276342 125.832012 
L 262.699596 128.4668 
L 264.831915 133.63499 
L 263.601458 140.122816 
L 259.587373 147.079964 
L 253.973518 153.628344 
L 247.721158 159.64599 
L 234.135644 171.699948 
L 226.653821 178.772003 
L 220.722918 184.946409 
L 215.836035 190.496464 
L 203.446653 205.581907 
L 199.555875 209.460136 
L 196.157722 211.040674 
L 193.951141 209.232116 
L 193.151307 203.185024 
L 194.64953 192.75647 
L 199.481912 178.340447 
L 208.982048 161.189962 
L 221.044801 146.969306 
L 236.19213 135.542053 
L 252.185963 129.276239 
L 263.514699 128.69485 
L 270.77419 131.07276 
L 275.339553 135.60297 
L 276.854605 142.205124 
L 274.64264 150.257024 
L 269.292938 158.270343 
L 262.272819 165.395236 
L 252.37132 173.218844 
L 240.517373 181.097336 
L 227.924049 188.729948 
L 215.653088 195.928259 
L 205.179599 201.91221 
L 195.658867 206.801663 
L 187.515126 209.589729 
L 181.360343 209.190227 
L 177.756973 205.450885 
L 176.617308 197.982 
L 179.112032 186.322945 
L 187.130467 170.885336 
L 199.336106 156.727368 
L 216.773489 143.803635 
L 238.559894 134.54579 
L 255.502484 131.573816 
L 270.658683 132.457793 
L 282.515571 137.026551 
L 289.326185 144.128725 
L 291.348294 153.135357 
L 288.723835 163.007667 
L 282.165751 173.012088 
L 271.920383 183.189382 
L 257.840045 193.533061 
L 242.885174 202.131468 
L 226.297827 209.496867 
L 208.794316 214.464935 
L 193.844041 215.231468 
L 180.87974 211.018017 
L 172.731325 202.580838 
L 169.219788 191.058691 
L 170.466189 178.731855 
L 176.284666 166.334601 
L 186.585451 155.065969 
L 202.793045 145.003897 
L 224.434346 138.02778 
L 244.632243 135.581801 
L 264.280699 136.404116 
L 281.730518 140.420329 
L 295.073199 147.530867 
L 301.729893 155.442306 
L 303.839343 164.632101 
L 301.627611 174.250064 
L 295.135977 184.692939 
L 284.038851 195.700557 
L 272.326468 204.107056 
L 259.317985 211.230784 
L 242.3665 217.700618 
L 221.977033 221.077366 
L 204.129617 218.893499 
L 189.230128 211.228509 
L 179.185011 199.803032 
L 173.568482 184.1957 
L 173.742997 170.434476 
L 178.479538 157.429179 
L 187.907483 146.15039 
L 203.235835 137.14883 
L 223.788335 132.356945 
L 246.963733 132.476264 
L 267.347916 136.276774 
L 284.798258 142.635903 
L 298.505929 151.152642 
L 306.116315 159.509782 
L 309.851065 168.629704 
L 309.804373 177.855313 
L 305.777825 188.333826 
L 297.680979 198.903684 
L 288.43066 207.011549 
L 277.954661 213.749828 
L 263.462693 220.110849 
L 245.202704 223.860395 
L 228.292725 222.86203 
L 214.504681 218.155356 
L 202.657362 210.187565 
L 191.617128 196.902791 
L 184.6941 179.227338 
L 183.876409 162.764182 
L 188.348344 147.401587 
L 197.339995 135.366331 
L 212.241908 126.212657 
L 232.011624 122.496798 
L 252.798584 124.800136 
L 270.706019 131.142497 
L 285.010015 139.707383 
L 296.048066 149.906689 
L 303.04628 160.269084 
L 307.023353 172.161154 
L 307.127802 184.563936 
L 304.669671 193.577177 
L 300.624071 201.389903 
L 293.883724 209.578203 
L 284.276712 216.757879 
L 274.21928 220.942378 
L 263.074201 222.681353 
L 251.335101 221.743364 
L 237.482986 217.172746 
L 223.254145 208.071371 
L 211.329148 195.370221 
L 202.159013 178.411514 
L 198.212125 159.396287 
L 199.440184 145.540551 
L 204.302571 133.384103 
L 213.653549 122.995724 
L 227.571073 116.688284 
L 244.215518 116.379089 
L 259.077675 121.260621 
L 271.927639 129.929373 
L 283.056279 142.991223 
L 290.252662 159.078334 
L 292.513966 171.272342 
L 292.556959 183.140283 
L 290.70325 194.318204 
L 286.904152 204.80501 
L 281.501473 212.890539 
L 275.387231 217.55002 
L 268.756879 219.342712 
L 260.145586 218.350959 
L 249.872865 213.797289 
L 238.922282 205.74846 
L 229.191749 195.631319 
L 219.491842 181.094693 
L 212.785441 163.743182 
L 210.950371 148.162779 
L 212.635768 136.423156 
L 216.84303 126.948567 
L 224.540484 118.911658 
L 234.956257 114.7986 
L 246.215556 115.513825 
L 258.177631 121.756348 
L 267.312025 132.288507 
L 273.471132 147.296573 
L 275.480513 161.677886 
L 274.946972 176.509776 
L 272.751172 189.479324 
L 269.075996 201.812936 
L 264.652431 210.979008 
L 260.329013 216.105478 
L 255.779441 218.31823 
L 249.96945 217.372526 
L 243.20344 212.133984 
L 236.09896 202.72504 
L 229.873165 190.966201 
L 224.477659 176.015184 
L 221.388412 158.67616 
L 221.810983 144.195964 
L 224.298451 134.246758 
L 228.474078 126.238374 
L 234.803681 120.037796 
L 242.637409 117.348364 
L 250.392052 119.154981 
L 256.779009 125.891973 
L 259.894633 136.414871 
L 259.566452 150.083761 
L 256.982237 163.05795 
L 252.909883 176.844397 
L 248.108361 190.12609 
L 243.663953 200.533767 
L 239.120086 209.096901 
L 234.331341 215.192947 
L 230.012287 217.376177 
L 225.713809 215.519868 
L 221.766247 208.669915 
L 219.232079 198.770727 
L 218.081126 185.049906 
L 219.338011 168.265 
L 224.139049 150.347896 
L 229.615207 139.354749 
L 235.915759 131.244868 
L 243.97827 125.150947 
L 252.033287 123.235547 
L 257.080205 125.306671 
L 259.374409 129.874326 
L 258.79663 136.493461 
L 255.466639 144.136047 
L 250.210114 152.208962 
L 237.015903 169.75733 
L 230.302203 179.357924 
L 224.154818 188.986502 
L 215.00524 203.925982 
L 211.020963 209.495124 
L 207.371909 212.749015 
L 204.665278 212.613473 
L 202.736796 208.545513 
L 202.308786 199.971097 
L 204.201784 187.111231 
L 209.473867 170.823256 
L 217.354891 155.853998 
L 227.66446 142.869223 
L 240.058129 132.937971 
L 252.970521 127.733402 
L 263.03371 127.988158 
L 268.722267 132.058567 
L 270.254327 137.973422 
L 268.415662 144.807533 
L 264.933345 150.460276 
L 259.977228 156.115944 
L 254.069808 161.503358 
L 247.566235 166.641753 
L 240.646608 171.679342 
L 231.694996 178.018188 
L 221.922428 185.195218 
L 213.275753 192.079482 
L 199.389052 203.984262 
L 193.765908 208.167556 
L 189.219729 209.898613 
L 186.282954 208.385342 
L 185.019641 203.110605 
L 186.237063 193.604007 
L 191.097479 180.057949 
L 201.221963 163.359278 
L 214.754869 148.890167 
L 232.490713 136.891973 
L 251.229545 130.387954 
L 263.826546 129.631737 
L 273.995113 132.175828 
L 280.864193 137.720611 
L 283.466657 145.77485 
L 281.556084 154.701063 
L 275.884013 163.905122 
L 267.759115 172.418803 
L 255.981957 181.697558 
L 241.794551 190.719517 
L 228.054644 198.191864 
L 214.82403 204.420608 
L 203.026207 208.90719 
L 190.944585 211.578396 
L 180.913184 210.591123 
L 174.341299 205.632976 
L 171.427169 197.782085 
L 172.616319 185.096312 
L 178.548279 172.191001 
L 188.59023 160.010754 
L 204.445986 148.091218 
L 225.898603 138.685476 
L 245.85243 134.47743 
L 264.787085 134.195569 
L 280.602632 137.650384 
L 292.248524 144.803649 
L 296.97243 152.243496 
L 297.793336 160.826898 
L 294.355879 171.020311 
L 287.241095 180.982923 
L 275.428451 191.946533 
L 262.725936 200.716989 
L 249.149658 208.029749 
L 231.65851 214.814452 
L 211.989411 218.426453 
L 193.691657 216.162595 
L 180.58312 208.340655 
L 172.852081 197.133469 
L 170.053213 181.811349 
L 172.524009 169.562111 
L 178.564548 158.807529 
L 190.091419 148.104921 
L 207.509754 139.767143 
L 229.738023 135.379511 
L 250.031576 135.192003 
L 268.989466 137.884263 
L 285.988279 143.316689 
L 298.863583 151.219331 
L 305.322153 159.26025 
L 307.625141 168.266846 
L 305.917309 177.67909 
L 299.920161 188.170318 
L 289.502506 198.973979 
L 278.194692 207.263224 
L 265.90066 213.985952 
L 249.283722 220.075392 
L 228.963325 222.818781 
L 211.773922 220.20284 
L 198.410152 213.689849 
L 187.591633 203.455756 
L 179.550704 188.189635 
L 177.250156 171.993275 
L 179.929265 158.104474 
L 186.654926 146.285476 
L 199.195174 135.707714 
L 217.46045 129.107007 
L 239.500476 127.935486 
L 260.619496 131.538741 
L 279.019612 138.302256 
L 294.16266 147.509112 
L 302.98719 156.07241 
L 308.47551 165.261472 
L 310.609436 174.884467 
L 309.148029 185.662725 
L 303.753399 196.529125 
L 296.748932 204.833333 
L 288.118659 211.956852 
L 275.992461 218.698297 
L 260.438651 223.277029 
L 246.551315 223.937101 
L 232.598181 221.244178 
L 218.988746 214.799061 
L 206.356758 204.021338 
L 196.057262 188.387327 
L 190.682774 169.397428 
L 191.169129 153.874054 
L 196.151419 139.880143 
L 205.780344 128.36862 
L 220.924223 120.500656 
L 239.839309 118.689181 
L 256.75929 122.26835 
L 270.608184 128.767842 
L 282.285859 137.512013 
L 292.37935 149.333093 
L 299.058166 163.246579 
L 301.40131 175.634514 
L 301.017782 186.16736 
L 298.755982 195.646252 
L 294.258261 205.122803 
L 287.462893 213.232812 
L 280.996651 217.668856 
L 273.636591 220.27338 
L 264.235863 220.888691 
L 252.616521 218.452545 
L 239.634293 212.163181 
L 226.994979 202.143207 
L 216.036029 188.782168 
L 207.667852 171.440563 
L 204.510526 153.064363 
L 206.016489 140.216656 
L 210.569896 129.502093 
L 219.211924 120.27781 
L 231.469105 115.168407 
L 245.545079 115.555537 
L 259.780147 121.696872 
L 270.928775 131.775004 
L 279.73739 146.733649 
L 283.757847 161.562417 
L 284.66116 174.31588 
L 283.758691 186.12998 
L 281.106052 198.155735 
L 276.936906 208.313717 
L 272.793367 214.131253 
L 268.025637 217.612391 
L 261.985217 218.626262 
L 254.363333 216.221482 
L 245.531257 209.934058 
L 236.458851 200.3601 
L 228.496059 188.979669 
L 220.920674 173.28449 
L 216.649072 155.927235 
L 216.631717 142.068734 
L 219.458179 131.253266 
L 224.538166 122.974697 
L 232.441443 117.037086 
L 241.870309 115.304823 
L 251.648073 118.351798 
L 260.323575 126.609776 
L 265.679899 138.425226 
L 267.708993 155.244545 
L 266.725451 168.391556 
L 264.453194 180.612521 
L 260.702326 193.940288 
L 256.556632 204.533278 
L 252.132531 212.387328 
L 247.249216 217.237973 
L 242.608078 218.233153 
L 237.253278 215.131622 
L 231.773203 207.156306 
L 227.178891 195.707256 
L 223.903068 181.844247 
L 222.525673 164.697173 
L 224.435199 147.439941 
L 227.96738 136.740696 
L 232.958564 128.369627 
L 239.32468 122.497952 
L 246.610994 120.104948 
L 253.061959 122.349837 
L 256.569929 128.550898 
L 256.770921 137.413807 
L 254.005008 148.248381 
L 249.450067 159.702529 
L 244.183727 171.358055 
L 238.589394 183.370416 
L 232.862482 195.339897 
L 227.801404 204.956363 
L 223.494469 211.481106 
L 219.312454 215.171591 
L 215.891295 214.969015 
L 212.938042 210.281771 
L 211.370959 202.119458 
L 211.392225 189.538344 
L 214.091016 173.367906 
L 220.523675 155.530358 
L 228.061342 142.983683 
L 236.577279 133.71577 
L 246.887904 127.170195 
L 256.309282 125.526534 
L 261.868958 127.949343 
L 264.158591 133.00553 
L 263.08486 139.42989 
L 259.210997 146.399502 
L 253.647719 153.069235 
L 247.308345 159.335069 
L 233.107071 172.424627 
L 226.324478 179.188596 
L 221.046053 184.962703 
L 216.998604 189.743 
L 211.141652 197.132457 
L 204.612508 205.402928 
L 200.926565 209.298852 
L 197.512505 211.218734 
L 195.212117 209.852805 
L 194.175805 204.307558 
L 195.295523 194.342295 
L 199.553924 180.307076 
L 208.236587 163.339674 
L 220.429295 147.99752 
L 235.005718 136.297934 
L 250.772478 129.482705 
L 262.330324 128.467327 
L 269.972389 130.738584 
L 274.684002 135.405999 
L 276.066964 141.791059 
L 273.844683 149.710581 
L 269.252875 156.741236 
L 262.822385 163.520222 
L 253.538039 171.104344 
L 242.266881 178.800772 
L 230.024696 186.391058 
L 207.112439 200.162919 
L 197.715132 205.458983 
L 189.583177 208.971024 
L 183.206792 209.587072 
L 179.149722 206.772152 
L 177.483325 200.47683 
L 178.962864 189.962254 
L 185.23442 175.540852 
L 196.906515 160.048381 
L 213.078506 146.449981 
L 233.956961 135.951178 
L 251.855223 131.668696 
L 268.168419 131.75595 
L 280.035351 135.506673 
L 288.157413 142.959278 
L 290.465267 152.149729 
L 287.961606 161.948008 
L 281.510733 171.911239 
L 271.527204 181.922319 
L 257.66744 192.215707 
L 242.65522 200.971486 
L 226.324665 208.422938 
L 209.103353 213.676564 
L 194.569501 214.950674 
L 181.530389 211.478344 
L 173.15854 203.647919 
L 169.413734 193.04356 
L 170.270628 180.40245 
L 176.092116 167.431302 
L 186.197119 156.064861 
L 202.179858 145.752049 
L 223.674494 138.388275 
L 243.929415 135.598769 
L 263.687218 136.162185 
L 281.137613 139.991244 
L 294.511467 147.003859 
L 301.169936 154.890352 
L 303.251923 164.090382 
L 300.982286 173.745723 
L 294.445645 184.177888 
L 283.298051 195.196702 
L 271.523563 203.638706 
L 258.367254 210.848256 
L 241.374736 217.361675 
L 221.011305 220.802538 
L 203.169691 218.679957 
L 188.331957 211.036264 
L 178.420362 199.608921 
L 173.040965 184.066636 
L 173.400591 170.569644 
L 178.210178 157.821451 
L 187.750081 146.608186 
L 203.185839 137.653186 
L 223.836494 132.849861 
L 247.087781 132.889665 
L 267.485515 136.572137 
L 284.890013 142.790223 
L 298.546195 151.188893 
L 306.11212 159.524803 
L 309.722552 168.659741 
L 309.496494 177.857054 
L 305.249581 188.321128 
L 296.881325 198.916413 
L 287.429463 207.015165 
L 276.821905 213.716927 
L 262.135391 220.067294 
L 243.655145 223.783599 
L 226.476739 222.66467 
L 212.823252 217.870058 
L 201.25952 209.956058 
L 190.3901 196.641832 
L 183.709406 178.947214 
L 183.137099 162.76755 
L 187.734562 147.714038 
L 196.928552 135.735721 
L 212.055851 126.698098 
L 232.061318 123.089434 
L 252.944511 125.412489 
L 270.881545 131.642273 
L 286.954576 141.299199 
L 296.971642 150.690809 
L 303.686842 160.577542 
L 307.596397 172.100886 
L 307.701544 184.280436 
L 305.344495 192.899626 
L 301.211179 200.860209 
L 294.589107 208.92137 
L 285.031474 216.234379 
L 274.221365 220.918375 
L 262.176877 222.885375 
L 250.567072 222.031569 
L 236.726351 217.620068 
L 222.439002 208.649845 
L 210.430538 195.970553 
L 201.242392 179.001922 
L 197.323228 159.920333 
L 198.600243 146.042281 
L 203.521065 133.851344 
L 213.019598 123.354165 
L 227.192569 116.953848 
L 244.16985 116.608259 
L 259.09795 121.380949 
L 272.025824 129.811897 
L 283.379552 142.558178 
L 290.899841 158.285868 
L 293.487067 170.854107 
L 293.630937 183.094148 
L 291.815699 194.111857 
L 288.019088 204.541439 
L 282.534132 212.714064 
L 276.235017 217.53315 
L 269.552039 219.440793 
L 260.833725 218.669686 
L 250.389764 214.382053 
L 239.19095 206.549149 
L 229.090701 196.419639 
L 219.178618 182.000979 
L 212.237748 164.650145 
L 210.223169 148.89658 
L 211.812131 137.051572 
L 216.029951 127.331176 
L 223.775426 119.117025 
L 234.355467 114.821896 
L 245.917474 115.422406 
L 258.175173 121.576418 
L 267.628374 132.032206 
L 274.163379 147.009179 
L 276.462775 161.488615 
L 276.267657 174.895379 
L 274.43172 187.631623 
L 271.037241 200.127427 
L 266.656382 209.919884 
L 262.545798 215.318235 
L 258.298582 218.000626 
L 252.679247 217.994948 
L 245.954708 213.923863 
L 238.622845 205.58873 
L 231.71937 194.212451 
L 225.829731 180.472924 
L 221.579491 163.463166 
L 220.970911 146.572058 
L 223.125298 135.660314 
L 227.306715 126.786854 
L 233.473578 120.276107 
L 241.349338 117.124919 
L 249.359087 118.418902 
L 256.388168 124.745145 
L 260.250037 135.058251 
L 260.659639 148.504469 
L 258.497292 161.906893 
L 254.62304 176.200639 
L 250.02509 189.527532 
L 245.565235 200.279206 
L 240.949012 209.117329 
L 236.120318 215.300498 
L 231.751047 217.538758 
L 227.340491 215.768666 
L 223.186843 209.001633 
L 220.346395 198.85783 
L 218.911153 185.225956 
L 219.776202 168.543517 
L 224.108663 150.61999 
L 229.139434 139.773426 
L 235.329549 131.311374 
L 243.03839 125.114293 
L 250.996672 122.884422 
L 256.244295 124.736442 
L 258.772907 129.245194 
L 258.426829 135.904026 
L 255.294001 143.710806 
L 250.173471 152.066198 
L 237.294556 170.232148 
L 230.672913 180.244247 
L 224.574581 190.254542 
L 219.995534 198.045874 
L 215.82667 204.854292 
L 211.835293 210.32519 
L 208.220037 213.203814 
L 205.489583 212.477058 
L 203.695936 207.679201 
L 203.453905 198.384702 
L 205.619652 184.88383 
L 211.27845 168.17411 
L 218.988544 153.994663 
L 228.822358 141.830937 
L 240.980162 132.252706 
L 253.483654 127.43565 
L 263.076289 127.984171 
L 267.968459 131.671543 
L 269.504981 137.433705 
L 267.68265 144.274816 
L 265.036333 148.772234 
L 261.517707 153.175113 
L 257.466894 157.310568 
L 253.055363 161.220346 
L 247.180445 165.897376 
L 221.468676 185.01308 
L 213.403842 191.733092 
L 200.251274 203.617101 
L 194.843215 207.957375 
L 190.401575 209.967358 
L 187.460952 208.753297 
L 186.125306 203.786692 
L 187.150554 194.576257 
L 191.64784 181.276253 
L 201.156945 164.731626 
L 213.873313 150.296843 
L 230.846997 137.906216 
L 249.365319 130.656703 
L 262.446954 129.391758 
L 273.020453 131.745328 
L 279.703452 136.863125 
L 282.510385 144.641222 
L 280.881226 153.323971 
L 275.463589 162.434857 
L 267.809674 170.644248 
L 256.54154 179.711283 
L 242.731467 188.673772 
L 229.174856 196.242408 
L 216.31833 202.582195 
L 204.862019 207.373442 
L 193.036325 210.763402 
L 182.868105 210.927692 
L 176.511194 207.814337 
L 172.694413 201.649987 
L 172.056597 191.06372 
L 175.993063 178.464779 
L 184.611344 165.331653 
L 198.176936 152.798288 
L 217.575529 141.863279 
L 237.84561 135.577728 
L 255.436119 133.550054 
L 271.091617 134.703224 
L 285.386474 139.596053 
L 294.447854 147.902924 
L 297.110597 157.532645 
L 294.903015 167.336385 
L 288.441563 177.759624 
L 277.77038 188.545419 
L 263.308838 199.064969 
L 248.631447 207.163153 
L 231.346301 214.055168 
L 211.921306 217.962864 
L 194.000976 216.273721 
L 180.740285 208.977127 
L 172.818878 198.106895 
L 169.805298 183.210956 
L 171.975524 171.191491 
L 177.53372 160.637498 
L 188.455649 149.792824 
L 205.293469 141.005528 
L 227.176386 135.965744 
L 247.485626 135.205068 
L 266.77317 137.422634 
L 284.090177 142.420773 
L 297.484076 150.008087 
L 304.523516 158.096238 
L 307.159483 167.275717 
L 305.645806 176.581784 
L 299.834562 187.061093 
L 289.568247 197.905676 
L 278.594322 206.118673 
L 266.597313 212.892223 
L 250.368537 219.212647 
L 230.369114 222.571173 
L 212.667102 220.621933 
L 197.473446 213.637624 
L 186.343996 202.979738 
L 178.616152 187.719382 
L 176.643542 171.810693 
L 179.603625 157.972714 
L 186.719584 146.180627 
L 199.681344 135.834504 
L 218.303206 129.53996 
L 240.541287 128.617837 
L 261.72335 132.334518 
L 280.034423 139.091844 
L 294.966646 148.200249 
L 303.669167 156.770103 
L 308.926613 165.980389 
L 310.72109 175.494241 
L 308.880152 186.184186 
L 303.082122 196.982508 
L 295.759677 205.225267 
L 286.878422 212.263426 
L 274.422828 218.946237 
L 258.466807 223.436849 
L 243.99037 223.912013 
L 229.567862 220.781409 
L 216.125513 213.928562 
L 203.651914 202.529484 
L 193.924423 186.360399 
L 189.473079 167.158902 
L 190.646183 152.53753 
L 195.881543 139.469998 
L 206.094022 128.099788 
L 221.849367 120.613179 
L 241.175809 119.288275 
L 260.194151 123.938702 
L 273.854021 130.981645 
L 284.882121 139.786982 
L 294.429203 151.606371 
L 300.548922 165.345432 
L 302.445528 177.387898 
L 301.715196 187.740916 
L 299.098399 197.058886 
L 294.199572 206.276636 
L 286.928471 214.118752 
L 280.18574 218.281572 
L 272.598034 220.650348 
L 262.782207 221.043366 
L 250.754981 218.305872 
L 237.468376 211.620555 
L 224.817197 201.219435 
L 213.905636 187.227493 
L 206.078902 169.521158 
L 203.703285 151.163142 
L 205.992514 138.008509 
L 211.431068 127.491822 
L 221.181105 118.862652 
L 234.322744 114.859642 
L 248.911606 116.549771 
L 263.001052 123.856128 
L 273.284483 134.156316 
L 281.722901 149.864443 
L 285.113959 163.992508 
L 285.75248 176.758542 
L 284.566682 188.66646 
L 281.606153 200.393518 
L 277.223652 209.847359 
L 272.878307 215.133494 
L 268.20702 217.975354 
L 261.784672 218.579281 
L 253.75621 215.689672 
L 244.576843 208.98517 
L 235.34508 199.199434 
L 226.932068 187.021568 
L 219.475165 170.8873 
L 215.714223 153.494948 
L 216.177202 140.275229 
L 219.812423 128.947022 
L 225.830997 120.923764 
L 234.491245 115.96791 
L 244.211192 115.462975 
L 254.522136 120.129771 
L 262.667787 129.659318 
L 267.286585 141.960497 
L 268.770818 157.270413 
L 267.73688 170.588103 
L 265.330602 183.254932 
L 261.486925 196.463628 
L 256.836818 207.491428 
L 252.029723 214.705643 
L 247.325411 218.01092 
L 242.280398 217.670766 
L 236.639092 212.81231 
L 231.079027 203.296301 
L 226.792457 191.593062 
L 223.671848 177.161622 
L 222.711911 159.547556 
L 224.723923 144.903239 
L 228.133634 135.130601 
L 232.842655 127.481573 
L 239.268234 121.786354 
L 246.571883 119.694591 
L 253.056323 122.274256 
L 256.648776 128.895555 
L 256.902852 138.280503 
L 254.145786 149.790105 
L 249.544566 162.036334 
L 243.868495 175.235346 
L 238.200643 187.820717 
L 233.367728 197.980824 
L 228.696477 206.650646 
L 224.292068 212.845754 
L 220.172653 215.738239 
L 216.643376 214.594836 
L 213.769753 208.787348 
L 212.333097 199.533988 
L 212.65157 185.96987 
L 215.840648 169.163659 
L 222.81735 151.477614 
L 230.777973 139.418188 
L 239.707287 130.863174 
L 249.740673 125.810458 
L 258.109013 125.754703 
L 262.237678 128.916764 
L 263.471402 133.970374 
L 261.72101 140.59627 
L 257.401054 147.588511 
L 251.595125 154.305496 
L 245.032175 160.81843 
L 237.922876 167.58745 
L 230.145907 175.337258 
L 224.806044 181.148727 
L 220.364558 186.391096 
L 216.284271 191.548438 
L 205.429729 205.857618 
L 202.115703 209.45103 
L 198.76749 211.437293 
L 196.441903 210.14793 
L 195.339767 204.655881 
L 196.334729 194.717043 
L 200.385746 180.70128 
L 208.745555 163.740306 
L 220.836247 148.056375 
L 234.970482 136.380164 
L 250.371471 129.450159 
L 261.840441 128.311824 
L 269.491722 130.60519 
L 274.063578 135.406612 
L 275.182095 141.556113 
L 272.83991 149.356306 
L 268.264392 156.208362 
L 261.941562 162.80979 
L 252.906163 170.17921 
L 242.043515 177.645829 
L 218.200443 192.536858 
L 207.970378 198.946253 
L 198.850636 204.478377 
L 190.948322 208.412454 
L 184.639746 209.668314 
L 180.454995 207.527941 
L 178.563098 202.001768 
L 179.499253 192.271867 
L 184.754005 178.574128 
L 196.040023 162.159779 
L 211.427536 148.099222 
L 231.532497 136.87832 
L 249.722104 131.7332 
L 264.17472 131.021789 
L 275.75371 133.428417 
L 285.199569 139.575071 
L 289.083422 147.100806 
L 288.900087 155.531486 
L 285.272946 164.273734 
L 278.703181 173.077169 
L 267.893779 183.145159 
L 253.596353 193.201815 
L 238.94069 201.426234 
L 222.305558 208.75254 
L 205.937857 213.471782 
L 191.518093 214.319132 
L 179.580176 210.380537 
L 172.226533 202.375379 
L 169.292621 191.091186 
L 171.045568 178.934335 
L 177.305932 166.626555 
L 188.148187 155.204755 
L 204.927677 144.962595 
L 227.043752 137.839269 
L 246.718454 135.407189 
L 265.119077 136.114753 
L 282.209632 140.109822 
L 294.998431 147.339488 
L 300.94125 155.145784 
L 302.537014 164.169432 
L 299.84991 174.005993 
L 293.033779 184.323796 
L 281.535109 195.35615 
L 269.286867 203.914825 
L 256.224139 210.903188 
L 238.893214 217.359069 
L 218.411784 220.5242 
L 200.912118 218.065928 
L 186.521276 210.139584 
L 177.136468 198.57275 
L 172.368748 182.817017 
L 173.227661 169.927828 
L 178.209264 157.820198 
L 188.090775 146.721521 
L 203.870223 137.936351 
L 224.793132 133.288622 
L 245.617928 133.179703 
L 265.859969 136.421916 
L 283.424892 142.233193 
L 297.465545 150.322741 
L 305.545252 158.707345 
L 309.423717 168.000844 
L 309.282524 177.041473 
L 305.137521 187.433559 
L 296.821206 198.047381 
L 287.618578 206.027374 
L 277.138068 212.795351 
L 262.74818 219.291959 
L 244.494525 223.463365 
L 226.506451 222.833622 
L 212.828413 218.452041 
L 200.733038 210.57227 
L 189.880252 197.737481 
L 182.974142 180.322505 
L 182.175853 164.096146 
L 186.639594 148.911694 
L 195.658115 136.913249 
L 210.628497 127.713735 
L 230.585997 123.805474 
L 251.606186 125.764371 
L 269.930227 131.697476 
L 286.448258 141.068797 
L 296.322058 149.710769 
L 302.969318 158.433985 
L 307.558203 169.20486 
L 308.614682 181.024008 
L 306.462551 190.965892 
L 301.836827 200.189822 
L 295.408625 208.065008 
L 285.992832 215.495642 
L 273.699938 221.005713 
L 262.984408 222.989916 
L 252.357198 222.738622 
L 238.985085 219.398464 
L 224.54009 211.600302 
L 212.215098 200.187273 
L 202.071199 184.189692 
L 196.674077 165.115921 
L 197.011186 149.735946 
L 201.70816 136.00413 
L 210.66662 125.060572 
L 224.538345 117.835235 
L 241.650571 116.55751 
L 256.94936 120.584911 
L 270.250849 128.246585 
L 282.201046 140.05783 
L 290.697621 155.029924 
L 294.313254 168.584844 
L 294.973865 180.223298 
L 293.738487 190.831418 
L 290.507402 201.477085 
L 285.511484 210.30322 
L 280.484674 215.411371 
L 274.650559 218.570323 
L 267.057872 219.709374 
L 257.431317 217.85065 
L 246.300899 212.367543 
L 234.929323 203.502357 
L 224.854036 192.261237 
L 215.508365 176.495015 
L 210.119013 158.669809 
L 209.717326 144.144092 
L 213.21159 131.319008 
L 219.675564 122.082454 
L 229.539542 115.944595 
L 241.278264 114.596797 
L 253.605173 118.465593 
L 264.678139 127.468333 
L 272.303719 139.584567 
L 277.160389 157.5427 
L 277.751055 170.739031 
L 276.655878 182.830496 
L 273.927757 195.58216 
L 269.848286 206.675341 
L 265.666049 213.504713 
L 260.949538 217.477811 
L 255.566223 218.368046 
L 248.943811 215.500671 
L 241.465597 208.370545 
L 234.008085 197.746983 
L 227.85029 185.686332 
L 222.390642 169.412865 
L 220.153404 152.129506 
L 221.389488 139.360761 
L 225.289345 128.714999 
L 230.873249 121.555998 
L 238.553195 117.263492 
L 246.890326 117.275997 
L 254.851605 122.339269 
L 260.041264 131.831773 
L 261.781359 144.570118 
L 260.443507 158.776713 
L 257.486836 171.922041 
L 257.486836 171.922041 
" clip-path="url(#p22799a51d1)" style="fill: none; stroke: #1f77b4; stroke-width: 0.5; stroke-linecap: square"/>
   </g>
   <g id="text_19">
    <!-- Projection onto r-z-p_r space with initial r = -0.19 -->
    <g transform="translate(89.055 35.472) scale(0.12 -0.12)">
     <defs>
      <path id="DejaVuSans-50" d="M 1259 4147 
L 1259 2394 
L 2053 2394 
Q 2494 2394 2734 2622 
Q 2975 2850 2975 3272 
Q 2975 3691 2734 3919 
Q 2494 4147 2053 4147 
L 1259 4147 
z
M 628 4666 
L 2053 4666 
Q 2838 4666 3239 4311 
Q 3641 3956 3641 3272 
Q 3641 2581 3239 2228 
Q 2838 1875 2053 1875 
L 1259 1875 
L 1259 0 
L 628 0 
L 628 4666 
z
" transform="scale(0.015625)"/>
      <path id="DejaVuSans-6f" d="M 1959 3097 
Q 1497 3097 1228 2736 
Q 959 2375 959 1747 
Q 959 1119 1226 758 
Q 1494 397 1959 397 
Q 2419 397 2687 759 
Q 2956 1122 2956 1747 
Q 2956 2369 2687 2733 
Q 2419 3097 1959 3097 
z
M 1959 3584 
Q 2709 3584 3137 3096 
Q 3566 2609 3566 1747 
Q 3566 888 3137 398 
Q 2709 -91 1959 -91 
Q 1206 -91 779 398 
Q 353 888 353 1747 
Q 353 2609 779 3096 
Q 1206 3584 1959 3584 
z
" transform="scale(0.015625)"/>
      <path id="DejaVuSans-6a" d="M 603 3500 
L 1178 3500 
L 1178 -63 
Q 1178 -731 923 -1031 
Q 669 -1331 103 -1331 
L -116 -1331 
L -116 -844 
L 38 -844 
Q 366 -844 484 -692 
Q 603 -541 603 -63 
L 603 3500 
z
M 603 4863 
L 1178 4863 
L 1178 4134 
L 603 4134 
L 603 4863 
z
" transform="scale(0.015625)"/>
      <path id="DejaVuSans-65" d="M 3597 1894 
L 3597 1613 
L 953 1613 
Q 991 1019 1311 708 
Q 1631 397 2203 397 
Q 2534 397 2845 478 
Q 3156 559 3463 722 
L 3463 178 
Q 3153 47 2828 -22 
Q 2503 -91 2169 -91 
Q 1331 -91 842 396 
Q 353 884 353 1716 
Q 353 2575 817 3079 
Q 1281 3584 2069 3584 
Q 2775 3584 3186 3129 
Q 3597 2675 3597 1894 
z
M 3022 2063 
Q 3016 2534 2758 2815 
Q 2500 3097 2075 3097 
Q 1594 3097 1305 2825 
Q 1016 2553 972 2059 
L 3022 2063 
z
" transform="scale(0.015625)"/>
      <path id="DejaVuSans-63" d="M 3122 3366 
L 3122 2828 
Q 2878 2963 2633 3030 
Q 2388 3097 2138 3097 
Q 1578 3097 1268 2742 
Q 959 2388 959 1747 
Q 959 1106 1268 751 
Q 1578 397 2138 397 
Q 2388 397 2633 464 
Q 2878 531 3122 666 
L 3122 134 
Q 2881 22 2623 -34 
Q 2366 -91 2075 -91 
Q 1284 -91 818 406 
Q 353 903 353 1747 
Q 353 2603 823 3093 
Q 1294 3584 2113 3584 
Q 2378 3584 2631 3529 
Q 2884 3475 3122 3366 
z
" transform="scale(0.015625)"/>
      <path id="DejaVuSans-74" d="M 1172 4494 
L 1172 3500 
L 2356 3500 
L 2356 3053 
L 1172 3053 
L 1172 1153 
Q 1172 725 1289 603 
Q 1406 481 1766 481 
L 2356 481 
L 2356 0 
L 1766 0 
Q 1100 0 847 248 
Q 594 497 594 1153 
L 594 3053 
L 172 3053 
L 172 3500 
L 594 3500 
L 594 4494 
L 1172 4494 
z
" transform="scale(0.015625)"/>
      <path id="DejaVuSans-69" d="M 603 3500 
L 1178 3500 
L 1178 0 
L 603 0 
L 603 3500 
z
M 603 4863 
L 1178 4863 
L 1178 4134 
L 603 4134 
L 603 4863 
z
" transform="scale(0.015625)"/>
      <path id="DejaVuSans-6e" d="M 3513 2113 
L 3513 0 
L 2938 0 
L 2938 2094 
Q 2938 2591 2744 2837 
Q 2550 3084 2163 3084 
Q 1697 3084 1428 2787 
Q 1159 2491 1159 1978 
L 1159 0 
L 581 0 
L 581 3500 
L 1159 3500 
L 1159 2956 
Q 1366 3272 1645 3428 
Q 1925 3584 2291 3584 
Q 2894 3584 3203 3211 
Q 3513 2838 3513 2113 
z
" transform="scale(0.015625)"/>
      <path id="DejaVuSans-20" transform="scale(0.015625)"/>
      <path id="DejaVuSans-2d" d="M 313 2009 
L 1997 2009 
L 1997 1497 
L 313 1497 
L 313 2009 
z
" transform="scale(0.015625)"/>
      <path id="DejaVuSans-73" d="M 2834 3397 
L 2834 2853 
Q 2591 2978 2328 3040 
Q 2066 3103 1784 3103 
Q 1356 3103 1142 2972 
Q 928 2841 928 2578 
Q 928 2378 1081 2264 
Q 1234 2150 1697 2047 
L 1894 2003 
Q 2506 1872 2764 1633 
Q 3022 1394 3022 966 
Q 3022 478 2636 193 
Q 2250 -91 1575 -91 
Q 1294 -91 989 -36 
Q 684 19 347 128 
L 347 722 
Q 666 556 975 473 
Q 1284 391 1588 391 
Q 1994 391 2212 530 
Q 2431 669 2431 922 
Q 2431 1156 2273 1281 
Q 2116 1406 1581 1522 
L 1381 1569 
Q 847 1681 609 1914 
Q 372 2147 372 2553 
Q 372 3047 722 3315 
Q 1072 3584 1716 3584 
Q 2034 3584 2315 3537 
Q 2597 3491 2834 3397 
z
" transform="scale(0.015625)"/>
      <path id="DejaVuSans-61" d="M 2194 1759 
Q 1497 1759 1228 1600 
Q 959 1441 959 1056 
Q 959 750 1161 570 
Q 1363 391 1709 391 
Q 2188 391 2477 730 
Q 2766 1069 2766 1631 
L 2766 1759 
L 2194 1759 
z
M 3341 1997 
L 3341 0 
L 2766 0 
L 2766 531 
Q 2569 213 2275 61 
Q 1981 -91 1556 -91 
Q 1019 -91 701 211 
Q 384 513 384 1019 
Q 384 1609 779 1909 
Q 1175 2209 1959 2209 
L 2766 2209 
L 2766 2266 
Q 2766 2663 2505 2880 
Q 2244 3097 1772 3097 
Q 1472 3097 1187 3025 
Q 903 2953 641 2809 
L 641 3341 
Q 956 3463 1253 3523 
Q 1550 3584 1831 3584 
Q 2591 3584 2966 3190 
Q 3341 2797 3341 1997 
z
" transform="scale(0.015625)"/>
      <path id="DejaVuSans-77" d="M 269 3500 
L 844 3500 
L 1563 769 
L 2278 3500 
L 2956 3500 
L 3675 769 
L 4391 3500 
L 4966 3500 
L 4050 0 
L 3372 0 
L 2619 2869 
L 1863 0 
L 1184 0 
L 269 3500 
z
" transform="scale(0.015625)"/>
      <path id="DejaVuSans-68" d="M 3513 2113 
L 3513 0 
L 2938 0 
L 2938 2094 
Q 2938 2591 2744 2837 
Q 2550 3084 2163 3084 
Q 1697 3084 1428 2787 
Q 1159 2491 1159 1978 
L 1159 0 
L 581 0 
L 581 4863 
L 1159 4863 
L 1159 2956 
Q 1366 3272 1645 3428 
Q 1925 3584 2291 3584 
Q 2894 3584 3203 3211 
Q 3513 2838 3513 2113 
z
" transform="scale(0.015625)"/>
      <path id="DejaVuSans-6c" d="M 603 4863 
L 1178 4863 
L 1178 0 
L 603 0 
L 603 4863 
z
" transform="scale(0.015625)"/>
      <path id="DejaVuSans-3d" d="M 678 2906 
L 4684 2906 
L 4684 2381 
L 678 2381 
L 678 2906 
z
M 678 1631 
L 4684 1631 
L 4684 1100 
L 678 1100 
L 678 1631 
z
" transform="scale(0.015625)"/>
      <path id="DejaVuSans-31" d="M 794 531 
L 1825 531 
L 1825 4091 
L 703 3866 
L 703 4441 
L 1819 4666 
L 2450 4666 
L 2450 531 
L 3481 531 
L 3481 0 
L 794 0 
L 794 531 
z
" transform="scale(0.015625)"/>
      <path id="DejaVuSans-39" d="M 703 97 
L 703 672 
Q 941 559 1184 500 
Q 1428 441 1663 441 
Q 2288 441 2617 861 
Q 2947 1281 2994 2138 
Q 2813 1869 2534 1725 
Q 2256 1581 1919 1581 
Q 1219 1581 811 2004 
Q 403 2428 403 3163 
Q 403 3881 828 4315 
Q 1253 4750 1959 4750 
Q 2769 4750 3195 4129 
Q 3622 3509 3622 2328 
Q 3622 1225 3098 567 
Q 2575 -91 1691 -91 
Q 1453 -91 1209 -44 
Q 966 3 703 97 
z
M 1959 2075 
Q 2384 2075 2632 2365 
Q 2881 2656 2881 3163 
Q 2881 3666 2632 3958 
Q 2384 4250 1959 4250 
Q 1534 4250 1286 3958 
Q 1038 3666 1038 3163 
Q 1038 2656 1286 2365 
Q 1534 2075 1959 2075 
z
" transform="scale(0.015625)"/>
     </defs>
     <use xlink:href="#DejaVuSans-50"/>
     <use xlink:href="#DejaVuSans-72" x="58.552734"/>
     <use xlink:href="#DejaVuSans-6f" x="97.416016"/>
     <use xlink:href="#DejaVuSans-6a" x="158.597656"/>
     <use xlink:href="#DejaVuSans-65" x="186.380859"/>
     <use xlink:href="#DejaVuSans-63" x="247.904297"/>
     <use xlink:href="#DejaVuSans-74" x="302.884766"/>
     <use xlink:href="#DejaVuSans-69" x="342.09375"/>
     <use xlink:href="#DejaVuSans-6f" x="369.876953"/>
     <use xlink:href="#DejaVuSans-6e" x="431.058594"/>
     <use xlink:href="#DejaVuSans-20" x="494.4375"/>
     <use xlink:href="#DejaVuSans-6f" x="526.224609"/>
     <use xlink:href="#DejaVuSans-6e" x="587.40625"/>
     <use xlink:href="#DejaVuSans-74" x="650.785156"/>
     <use xlink:href="#DejaVuSans-6f" x="689.994141"/>
     <use xlink:href="#DejaVuSans-20" x="751.175781"/>
     <use xlink:href="#DejaVuSans-72" x="782.962891"/>
     <use xlink:href="#DejaVuSans-2d" x="817.701172"/>
     <use xlink:href="#DejaVuSans-7a" x="853.785156"/>
     <use xlink:href="#DejaVuSans-2d" x="906.275391"/>
     <use xlink:href="#DejaVuSans-70" x="942.359375"/>
     <use xlink:href="#DejaVuSans-5f" x="1005.835938"/>
     <use xlink:href="#DejaVuSans-72" x="1055.835938"/>
     <use xlink:href="#DejaVuSans-20" x="1096.949219"/>
     <use xlink:href="#DejaVuSans-73" x="1128.736328"/>
     <use xlink:href="#DejaVuSans-70" x="1180.835938"/>
     <use xlink:href="#DejaVuSans-61" x="1244.3125"/>
     <use xlink:href="#DejaVuSans-63" x="1305.591797"/>
     <use xlink:href="#DejaVuSans-65" x="1360.572266"/>
     <use xlink:href="#DejaVuSans-20" x="1422.095703"/>
     <use xlink:href="#DejaVuSans-77" x="1453.882812"/>
     <use xlink:href="#DejaVuSans-69" x="1535.669922"/>
     <use xlink:href="#DejaVuSans-74" x="1563.453125"/>
     <use xlink:href="#DejaVuSans-68" x="1602.662109"/>
     <use xlink:href="#DejaVuSans-20" x="1666.041016"/>
     <use xlink:href="#DejaVuSans-69" x="1697.828125"/>
     <use xlink:href="#DejaVuSans-6e" x="1725.611328"/>
     <use xlink:href="#DejaVuSans-69" x="1788.990234"/>
     <use xlink:href="#DejaVuSans-74" x="1816.773438"/>
     <use xlink:href="#DejaVuSans-69" x="1855.982422"/>
     <use xlink:href="#DejaVuSans-61" x="1883.765625"/>
     <use xlink:href="#DejaVuSans-6c" x="1945.044922"/>
     <use xlink:href="#DejaVuSans-20" x="1972.828125"/>
     <use xlink:href="#DejaVuSans-72" x="2004.615234"/>
     <use xlink:href="#DejaVuSans-20" x="2045.728516"/>
     <use xlink:href="#DejaVuSans-3d" x="2077.515625"/>
     <use xlink:href="#DejaVuSans-20" x="2161.304688"/>
     <use xlink:href="#DejaVuSans-2d" x="2193.091797"/>
     <use xlink:href="#DejaVuSans-30" x="2229.175781"/>
     <use xlink:href="#DejaVuSans-2e" x="2292.798828"/>
     <use xlink:href="#DejaVuSans-31" x="2324.585938"/>
     <use xlink:href="#DejaVuSans-39" x="2388.208984"/>
    </g>
   </g>
  </g>
 </g>
 <defs>
  <clipPath id="p22799a51d1">
   <rect x="103.104" y="41.472" width="266.112" height="266.112"/>
  </clipPath>
 </defs>
</svg>
