<?xml version="1.0" encoding="utf-8" standalone="no"?>
<!DOCTYPE svg PUBLIC "-//W3C//DTD SVG 1.1//EN"
  "http://www.w3.org/Graphics/SVG/1.1/DTD/svg11.dtd">
<svg xmlns:xlink="http://www.w3.org/1999/xlink" width="460.8pt" height="345.6pt" viewBox="0 0 460.8 345.6" xmlns="http://www.w3.org/2000/svg" version="1.1">
 <metadata>
  <rdf:RDF xmlns:dc="http://purl.org/dc/elements/1.1/" xmlns:cc="http://creativecommons.org/ns#" xmlns:rdf="http://www.w3.org/1999/02/22-rdf-syntax-ns#">
   <cc:Work>
    <dc:type rdf:resource="http://purl.org/dc/dcmitype/StillImage"/>
    <dc:date>2023-10-23T21:33:01.911774</dc:date>
    <dc:format>image/svg+xml</dc:format>
    <dc:creator>
     <cc:Agent>
      <dc:title>Matplotlib v3.8.0, https://matplotlib.org/</dc:title>
     </cc:Agent>
    </dc:creator>
   </cc:Work>
  </rdf:RDF>
 </metadata>
 <defs>
  <style type="text/css">*{stroke-linejoin: round; stroke-linecap: butt}</style>
 </defs>
 <g id="figure_1">
  <g id="patch_1">
   <path d="M 0 345.6 
L 460.8 345.6 
L 460.8 0 
L 0 0 
z
" style="fill: #ffffff"/>
  </g>
  <g id="patch_2">
   <path d="M 103.104 307.584 
L 369.216 307.584 
L 369.216 41.472 
L 103.104 41.472 
z
" style="fill: #ffffff"/>
  </g>
  <g id="pane3d_1">
   <g id="patch_3">
    <path d="M 123.197291 241.969309 
L 211.076164 168.307495 
L 209.854564 62.073991 
L 117.770234 129.272941 
" style="fill: #f2f2f2; opacity: 0.5; stroke: #f2f2f2; stroke-linejoin: miter"/>
   </g>
  </g>
  <g id="pane3d_2">
   <g id="patch_4">
    <path d="M 211.076164 168.307495 
L 352.090401 209.294766 
L 357.122702 99.402171 
L 209.854564 62.073991 
" style="fill: #e6e6e6; opacity: 0.5; stroke: #e6e6e6; stroke-linejoin: miter"/>
   </g>
  </g>
  <g id="pane3d_3">
   <g id="patch_5">
    <path d="M 123.197291 241.969309 
L 272.679269 290.790123 
L 352.090401 209.294766 
L 211.076164 168.307495 
" style="fill: #ececec; opacity: 0.5; stroke: #ececec; stroke-linejoin: miter"/>
   </g>
  </g>
  <g id="grid3d_1">
   <g id="Line3DCollection_1">
    <path d="M 139.745029 247.3738 
L 226.747915 172.862654 
L 226.190662 66.214715 
" style="fill: none; stroke: #b0b0b0; stroke-width: 0.8"/>
    <path d="M 167.574724 256.462979 
L 253.069813 180.513391 
L 253.645623 73.173748 
" style="fill: none; stroke: #b0b0b0; stroke-width: 0.8"/>
    <path d="M 195.967881 265.736184 
L 279.880048 188.306068 
L 281.632185 80.267526 
" style="fill: none; stroke: #b0b0b0; stroke-width: 0.8"/>
    <path d="M 224.941789 275.199062 
L 307.192338 196.244672 
L 310.165939 87.500001 
" style="fill: none; stroke: #b0b0b0; stroke-width: 0.8"/>
    <path d="M 254.514447 284.857492 
L 335.020917 204.333341 
L 339.263092 94.875281 
" style="fill: none; stroke: #b0b0b0; stroke-width: 0.8"/>
   </g>
  </g>
  <g id="grid3d_2">
   <g id="Line3DCollection_2">
    <path d="M 129.321936 120.843035 
L 134.184874 232.759299 
L 282.646541 280.56125 
" style="fill: none; stroke: #b0b0b0; stroke-width: 0.8"/>
    <path d="M 147.908894 107.279119 
L 151.886109 217.921773 
L 298.68087 264.106083 
" style="fill: none; stroke: #b0b0b0; stroke-width: 0.8"/>
    <path d="M 165.860779 94.178651 
L 169.008295 203.569617 
L 314.163547 248.217048 
" style="fill: none; stroke: #b0b0b0; stroke-width: 0.8"/>
    <path d="M 183.209592 81.518278 
L 185.579387 189.679399 
L 329.122557 232.865423 
" style="fill: none; stroke: #b0b0b0; stroke-width: 0.8"/>
    <path d="M 199.985219 69.276189 
L 201.62557 176.22917 
L 343.584028 218.024397 
" style="fill: none; stroke: #b0b0b0; stroke-width: 0.8"/>
   </g>
  </g>
  <g id="grid3d_3">
   <g id="Line3DCollection_3">
    <path d="M 352.651911 197.032811 
L 210.939601 156.431576 
L 122.59264 229.41333 
" style="fill: none; stroke: #b0b0b0; stroke-width: 0.8"/>
    <path d="M 353.593746 176.465549 
L 210.710684 136.52439 
L 121.577933 208.34229 
" style="fill: none; stroke: #b0b0b0; stroke-width: 0.8"/>
    <path d="M 354.551427 155.552235 
L 210.478101 116.298387 
L 120.545497 186.903085 
" style="fill: none; stroke: #b0b0b0; stroke-width: 0.8"/>
    <path d="M 355.525359 134.284061 
L 210.241763 95.745848 
L 119.494863 165.085982 
" style="fill: none; stroke: #b0b0b0; stroke-width: 0.8"/>
    <path d="M 356.515957 112.651918 
L 210.001579 74.858801 
L 118.425545 142.8809 
" style="fill: none; stroke: #b0b0b0; stroke-width: 0.8"/>
   </g>
  </g>
  <g id="axis3d_1">
   <g id="line2d_1">
    <path d="M 123.197291 241.969309 
L 272.679269 290.790123 
" style="fill: none; stroke: #000000; stroke-width: 0.8; stroke-linecap: square"/>
   </g>
   <g id="xtick_1">
    <g id="line2d_2">
     <path d="M 140.502812 246.724819 
L 138.226203 248.674556 
" style="fill: none; stroke: #000000; stroke-width: 0.8; stroke-linecap: square"/>
    </g>
    <g id="text_1">
     <!-- −0.4 -->
     <g transform="translate(120.082057 270.734746) scale(0.1 -0.1)">
      <defs>
       <path id="DejaVuSans-2212" d="M 678 2272 
L 4684 2272 
L 4684 1741 
L 678 1741 
L 678 2272 
z
" transform="scale(0.015625)"/>
       <path id="DejaVuSans-30" d="M 2034 4250 
Q 1547 4250 1301 3770 
Q 1056 3291 1056 2328 
Q 1056 1369 1301 889 
Q 1547 409 2034 409 
Q 2525 409 2770 889 
Q 3016 1369 3016 2328 
Q 3016 3291 2770 3770 
Q 2525 4250 2034 4250 
z
M 2034 4750 
Q 2819 4750 3233 4129 
Q 3647 3509 3647 2328 
Q 3647 1150 3233 529 
Q 2819 -91 2034 -91 
Q 1250 -91 836 529 
Q 422 1150 422 2328 
Q 422 3509 836 4129 
Q 1250 4750 2034 4750 
z
" transform="scale(0.015625)"/>
       <path id="DejaVuSans-2e" d="M 684 794 
L 1344 794 
L 1344 0 
L 684 0 
L 684 794 
z
" transform="scale(0.015625)"/>
       <path id="DejaVuSans-34" d="M 2419 4116 
L 825 1625 
L 2419 1625 
L 2419 4116 
z
M 2253 4666 
L 3047 4666 
L 3047 1625 
L 3713 1625 
L 3713 1100 
L 3047 1100 
L 3047 0 
L 2419 0 
L 2419 1100 
L 313 1100 
L 313 1709 
L 2253 4666 
z
" transform="scale(0.015625)"/>
      </defs>
      <use xlink:href="#DejaVuSans-2212"/>
      <use xlink:href="#DejaVuSans-30" x="83.789062"/>
      <use xlink:href="#DejaVuSans-2e" x="147.412109"/>
      <use xlink:href="#DejaVuSans-34" x="179.199219"/>
     </g>
    </g>
   </g>
   <g id="xtick_2">
    <g id="line2d_3">
     <path d="M 168.319982 255.800928 
L 166.08097 257.789956 
" style="fill: none; stroke: #000000; stroke-width: 0.8; stroke-linecap: square"/>
    </g>
    <g id="text_2">
     <!-- −0.2 -->
     <g transform="translate(147.940862 280.01671) scale(0.1 -0.1)">
      <defs>
       <path id="DejaVuSans-32" d="M 1228 531 
L 3431 531 
L 3431 0 
L 469 0 
L 469 531 
Q 828 903 1448 1529 
Q 2069 2156 2228 2338 
Q 2531 2678 2651 2914 
Q 2772 3150 2772 3378 
Q 2772 3750 2511 3984 
Q 2250 4219 1831 4219 
Q 1534 4219 1204 4116 
Q 875 4013 500 3803 
L 500 4441 
Q 881 4594 1212 4672 
Q 1544 4750 1819 4750 
Q 2544 4750 2975 4387 
Q 3406 4025 3406 3419 
Q 3406 3131 3298 2873 
Q 3191 2616 2906 2266 
Q 2828 2175 2409 1742 
Q 1991 1309 1228 531 
z
" transform="scale(0.015625)"/>
      </defs>
      <use xlink:href="#DejaVuSans-2212"/>
      <use xlink:href="#DejaVuSans-30" x="83.789062"/>
      <use xlink:href="#DejaVuSans-2e" x="147.412109"/>
      <use xlink:href="#DejaVuSans-32" x="179.199219"/>
     </g>
    </g>
   </g>
   <g id="xtick_3">
    <g id="line2d_4">
     <path d="M 196.69995 265.060666 
L 194.500531 267.090184 
" style="fill: none; stroke: #000000; stroke-width: 0.8; stroke-linecap: square"/>
    </g>
    <g id="text_3">
     <!-- 0.0 -->
     <g transform="translate(180.555708 289.487318) scale(0.1 -0.1)">
      <use xlink:href="#DejaVuSans-30"/>
      <use xlink:href="#DejaVuSans-2e" x="63.623047"/>
      <use xlink:href="#DejaVuSans-30" x="95.410156"/>
     </g>
    </g>
   </g>
   <g id="xtick_4">
    <g id="line2d_5">
     <path d="M 225.659969 274.509662 
L 223.502242 276.580919 
" style="fill: none; stroke: #000000; stroke-width: 0.8; stroke-linecap: square"/>
    </g>
    <g id="text_4">
     <!-- 0.2 -->
     <g transform="translate(209.564345 299.152381) scale(0.1 -0.1)">
      <use xlink:href="#DejaVuSans-30"/>
      <use xlink:href="#DejaVuSans-2e" x="63.623047"/>
      <use xlink:href="#DejaVuSans-32" x="95.410156"/>
     </g>
    </g>
   </g>
   <g id="xtick_5">
    <g id="line2d_6">
     <path d="M 255.218008 284.153777 
L 253.104175 286.268074 
" style="fill: none; stroke: #000000; stroke-width: 0.8; stroke-linecap: square"/>
    </g>
    <g id="text_5">
     <!-- 0.4 -->
     <g transform="translate(239.174779 309.01795) scale(0.1 -0.1)">
      <use xlink:href="#DejaVuSans-30"/>
      <use xlink:href="#DejaVuSans-2e" x="63.623047"/>
      <use xlink:href="#DejaVuSans-34" x="95.410156"/>
     </g>
    </g>
   </g>
   <g id="text_6">
    <!-- r -->
    <g transform="translate(177.620959 303.76759) scale(0.1 -0.1)">
     <defs>
      <path id="DejaVuSans-72" d="M 2631 2963 
Q 2534 3019 2420 3045 
Q 2306 3072 2169 3072 
Q 1681 3072 1420 2755 
Q 1159 2438 1159 1844 
L 1159 0 
L 581 0 
L 581 3500 
L 1159 3500 
L 1159 2956 
Q 1341 3275 1631 3429 
Q 1922 3584 2338 3584 
Q 2397 3584 2469 3576 
Q 2541 3569 2628 3553 
L 2631 2963 
z
" transform="scale(0.015625)"/>
     </defs>
     <use xlink:href="#DejaVuSans-72"/>
    </g>
   </g>
  </g>
  <g id="axis3d_2">
   <g id="line2d_7">
    <path d="M 352.090401 209.294766 
L 272.679269 290.790123 
" style="fill: none; stroke: #000000; stroke-width: 0.8; stroke-linecap: square"/>
   </g>
   <g id="xtick_6">
    <g id="line2d_8">
     <path d="M 281.395758 280.158521 
L 285.151326 281.367745 
" style="fill: none; stroke: #000000; stroke-width: 0.8; stroke-linecap: square"/>
    </g>
    <g id="text_7">
     <!-- −0.4 -->
     <g transform="translate(283.325813 301.514986) scale(0.1 -0.1)">
      <use xlink:href="#DejaVuSans-2212"/>
      <use xlink:href="#DejaVuSans-30" x="83.789062"/>
      <use xlink:href="#DejaVuSans-2e" x="147.412109"/>
      <use xlink:href="#DejaVuSans-34" x="179.199219"/>
     </g>
    </g>
   </g>
   <g id="xtick_7">
    <g id="line2d_9">
     <path d="M 297.445222 263.717326 
L 301.155291 264.884581 
" style="fill: none; stroke: #000000; stroke-width: 0.8; stroke-linecap: square"/>
    </g>
    <g id="text_8">
     <!-- −0.2 -->
     <g transform="translate(299.144994 284.816287) scale(0.1 -0.1)">
      <use xlink:href="#DejaVuSans-2212"/>
      <use xlink:href="#DejaVuSans-30" x="83.789062"/>
      <use xlink:href="#DejaVuSans-2e" x="147.412109"/>
      <use xlink:href="#DejaVuSans-32" x="179.199219"/>
     </g>
    </g>
   </g>
   <g id="xtick_8">
    <g id="line2d_10">
     <path d="M 312.942742 247.841548 
L 316.608191 248.968982 
" style="fill: none; stroke: #000000; stroke-width: 0.8; stroke-linecap: square"/>
    </g>
    <g id="text_9">
     <!-- 0.0 -->
     <g transform="translate(318.609453 268.692429) scale(0.1 -0.1)">
      <use xlink:href="#DejaVuSans-30"/>
      <use xlink:href="#DejaVuSans-2e" x="63.623047"/>
      <use xlink:href="#DejaVuSans-30" x="95.410156"/>
     </g>
    </g>
   </g>
   <g id="xtick_9">
    <g id="line2d_11">
     <path d="M 327.916306 232.502514 
L 331.538007 233.592129 
" style="fill: none; stroke: #000000; stroke-width: 0.8; stroke-linecap: square"/>
    </g>
    <g id="text_10">
     <!-- 0.2 -->
     <g transform="translate(333.367149 253.114231) scale(0.1 -0.1)">
      <use xlink:href="#DejaVuSans-30"/>
      <use xlink:href="#DejaVuSans-2e" x="63.623047"/>
      <use xlink:href="#DejaVuSans-32" x="95.410156"/>
     </g>
    </g>
   </g>
   <g id="xtick_10">
    <g id="line2d_12">
     <path d="M 342.392046 217.673455 
L 345.970856 218.727124 
" style="fill: none; stroke: #000000; stroke-width: 0.8; stroke-linecap: square"/>
    </g>
    <g id="text_11">
     <!-- 0.4 -->
     <g transform="translate(347.633727 238.054456) scale(0.1 -0.1)">
      <use xlink:href="#DejaVuSans-30"/>
      <use xlink:href="#DejaVuSans-2e" x="63.623047"/>
      <use xlink:href="#DejaVuSans-34" x="95.410156"/>
     </g>
    </g>
   </g>
   <g id="text_12">
    <!-- z -->
    <g transform="translate(338.508563 278.988697) scale(0.1 -0.1)">
     <defs>
      <path id="DejaVuSans-7a" d="M 353 3500 
L 3084 3500 
L 3084 2975 
L 922 459 
L 3084 459 
L 3084 0 
L 275 0 
L 275 525 
L 2438 3041 
L 353 3041 
L 353 3500 
z
" transform="scale(0.015625)"/>
     </defs>
     <use xlink:href="#DejaVuSans-7a"/>
    </g>
   </g>
  </g>
  <g id="axis3d_3">
   <g id="line2d_13">
    <path d="M 352.090401 209.294766 
L 357.122702 99.402171 
" style="fill: none; stroke: #000000; stroke-width: 0.8; stroke-linecap: square"/>
   </g>
   <g id="xtick_11">
    <g id="line2d_14">
     <path d="M 351.462276 196.691975 
L 355.034024 197.715298 
" style="fill: none; stroke: #000000; stroke-width: 0.8; stroke-linecap: square"/>
    </g>
    <g id="text_13">
     <!-- −0.4 -->
     <g transform="translate(358.848394 202.050217) scale(0.1 -0.1)">
      <use xlink:href="#DejaVuSans-2212"/>
      <use xlink:href="#DejaVuSans-30" x="83.789062"/>
      <use xlink:href="#DejaVuSans-2e" x="147.412109"/>
      <use xlink:href="#DejaVuSans-34" x="179.199219"/>
     </g>
    </g>
   </g>
   <g id="xtick_12">
    <g id="line2d_15">
     <path d="M 352.393813 176.130123 
L 355.996504 177.13721 
" style="fill: none; stroke: #000000; stroke-width: 0.8; stroke-linecap: square"/>
    </g>
    <g id="text_14">
     <!-- −0.2 -->
     <g transform="translate(359.939887 181.523976) scale(0.1 -0.1)">
      <use xlink:href="#DejaVuSans-2212"/>
      <use xlink:href="#DejaVuSans-30" x="83.789062"/>
      <use xlink:href="#DejaVuSans-2e" x="147.412109"/>
      <use xlink:href="#DejaVuSans-32" x="179.199219"/>
     </g>
    </g>
   </g>
   <g id="xtick_13">
    <g id="line2d_16">
     <path d="M 353.341016 155.22245 
L 356.975191 156.212608 
" style="fill: none; stroke: #000000; stroke-width: 0.8; stroke-linecap: square"/>
    </g>
    <g id="text_15">
     <!-- 0.0 -->
     <g transform="translate(365.239531 160.653431) scale(0.1 -0.1)">
      <use xlink:href="#DejaVuSans-30"/>
      <use xlink:href="#DejaVuSans-2e" x="63.623047"/>
      <use xlink:href="#DejaVuSans-30" x="95.410156"/>
     </g>
    </g>
   </g>
   <g id="xtick_14">
    <g id="line2d_17">
     <path d="M 354.304285 133.960157 
L 357.970499 134.932664 
" style="fill: none; stroke: #000000; stroke-width: 0.8; stroke-linecap: square"/>
    </g>
    <g id="text_16">
     <!-- 0.2 -->
     <g transform="translate(366.368105 139.429846) scale(0.1 -0.1)">
      <use xlink:href="#DejaVuSans-30"/>
      <use xlink:href="#DejaVuSans-2e" x="63.623047"/>
      <use xlink:href="#DejaVuSans-32" x="95.410156"/>
     </g>
    </g>
   </g>
   <g id="xtick_15">
    <g id="line2d_18">
     <path d="M 355.284032 112.334145 
L 358.982853 113.288249 
" style="fill: none; stroke: #000000; stroke-width: 0.8; stroke-linecap: square"/>
    </g>
    <g id="text_17">
     <!-- 0.4 -->
     <g transform="translate(367.515933 117.844187) scale(0.1 -0.1)">
      <use xlink:href="#DejaVuSans-30"/>
      <use xlink:href="#DejaVuSans-2e" x="63.623047"/>
      <use xlink:href="#DejaVuSans-34" x="95.410156"/>
     </g>
    </g>
   </g>
   <g id="text_18">
    <!-- p_r -->
    <g transform="translate(387.197542 152.624154) scale(0.1 -0.1)">
     <defs>
      <path id="DejaVuSans-70" d="M 1159 525 
L 1159 -1331 
L 581 -1331 
L 581 3500 
L 1159 3500 
L 1159 2969 
Q 1341 3281 1617 3432 
Q 1894 3584 2278 3584 
Q 2916 3584 3314 3078 
Q 3713 2572 3713 1747 
Q 3713 922 3314 415 
Q 2916 -91 2278 -91 
Q 1894 -91 1617 61 
Q 1341 213 1159 525 
z
M 3116 1747 
Q 3116 2381 2855 2742 
Q 2594 3103 2138 3103 
Q 1681 3103 1420 2742 
Q 1159 2381 1159 1747 
Q 1159 1113 1420 752 
Q 1681 391 2138 391 
Q 2594 391 2855 752 
Q 3116 1113 3116 1747 
z
" transform="scale(0.015625)"/>
      <path id="DejaVuSans-5f" d="M 3263 -1063 
L 3263 -1509 
L -63 -1509 
L -63 -1063 
L 3263 -1063 
z
" transform="scale(0.015625)"/>
     </defs>
     <use xlink:href="#DejaVuSans-70"/>
     <use xlink:href="#DejaVuSans-5f" x="63.476562"/>
     <use xlink:href="#DejaVuSans-72" x="113.476562"/>
    </g>
   </g>
  </g>
  <g id="axes_1">
   <g id="line2d_19">
    <path d="M 197.797059 166.327351 
L 197.873249 165.829408 
L 198.726603 161.364989 
L 203.800034 147.004094 
L 211.884023 134.824232 
L 224.730986 124.115768 
L 241.02187 118.215255 
L 257.438205 118.671017 
L 268.739202 123.256215 
L 276.90039 130.449429 
L 282.288876 140.849291 
L 283.442308 154.313314 
L 279.685101 169.319133 
L 273.814087 181.340585 
L 266.148271 192.915938 
L 257.301672 203.555725 
L 246.436377 213.674397 
L 234.6249 220.809777 
L 225.428608 222.956204 
L 216.793647 221.485549 
L 208.392117 215.574214 
L 201.501555 204.931524 
L 197.181499 189.32062 
L 197.279681 170.124829 
L 201.530794 154.172036 
L 209.501185 139.900429 
L 221.255435 128.190496 
L 236.955442 120.38808 
L 253.678814 118.731081 
L 266.001175 122.033457 
L 275.417424 128.816789 
L 280.957845 137.709329 
L 282.833384 149.904962 
L 279.821844 164.031501 
L 273.670034 176.728552 
L 266.227359 187.744926 
L 257.854972 197.817312 
L 247.107244 208.390829 
L 235.005155 217.224982 
L 222.882677 221.965674 
L 213.524114 221.768953 
L 205.416356 217.667155 
L 198.180373 208.727701 
L 193.305625 194.596249 
L 192.636205 176.28827 
L 196.555716 159.49198 
L 204.767261 144.035064 
L 216.71747 131.595105 
L 233.179294 122.662666 
L 251.315489 119.796136 
L 264.97913 122.190916 
L 275.945881 128.213521 
L 283.326437 137.140132 
L 286.524692 148.364737 
L 284.997409 161.914234 
L 278.825704 176.152877 
L 271.647198 186.934371 
L 263.153566 197.014428 
L 252.159954 207.53903 
L 239.275753 216.764777 
L 225.876253 222.22113 
L 216.162458 222.710295 
L 207.314927 219.649669 
L 199.037684 212.100047 
L 192.615023 199.256473 
L 190.026798 181.799562 
L 193.062352 162.083608 
L 201.15222 145.387943 
L 212.834312 132.697339 
L 229.433472 123.296234 
L 248.408051 119.852691 
L 263.30472 121.884623 
L 275.703752 127.715711 
L 284.77553 136.878086 
L 289.261767 147.778433 
L 289.314927 161.223603 
L 284.481976 175.820412 
L 278.044843 186.929676 
L 270.157608 197.176588 
L 259.858349 207.664754 
L 247.292189 217.078667 
L 233.653839 222.936603 
L 223.590298 223.759987 
L 214.283623 221.141828 
L 205.385473 214.397876 
L 197.68722 202.456066 
L 193.181553 185.672473 
L 193.827106 165.903424 
L 198.632586 150.737002 
L 206.435791 138.240289 
L 219.400056 126.703196 
L 236.578836 119.635567 
L 254.692987 118.968835 
L 268.191028 123.061577 
L 278.483535 130.28615 
L 285.11049 139.550121 
L 288.331117 152.12038 
L 286.693931 166.784325 
L 281.586208 179.858726 
L 273.927592 192.471327 
L 265.456505 203.000865 
L 254.578765 213.284844 
L 242.160097 220.990522 
L 231.829847 223.751543 
L 221.929065 222.647542 
L 212.508119 217.180032 
L 204.53069 207.291044 
L 198.641086 192.299633 
L 196.848722 173.400264 
L 199.810668 156.270249 
L 207.130828 140.711789 
L 217.812506 128.769184 
L 232.832423 120.246408 
L 249.787878 117.663074 
L 263.37849 120.536377 
L 274.171748 127.367001 
L 280.763655 136.292309 
L 283.92487 148.69172 
L 282.212188 163.325617 
L 276.984145 176.670562 
L 270.428669 187.890322 
L 262.7157 198.287319 
L 252.776386 208.963009 
L 241.275174 217.898453 
L 229.532439 222.658662 
L 219.432585 222.253964 
L 210.82271 217.420435 
L 203.542119 208.095902 
L 198.310704 193.644257 
L 197.013532 175.125414 
L 200.352713 157.761618 
L 208.086761 141.883114 
L 218.949835 129.85565 
L 234.013986 121.18791 
L 250.766969 118.425302 
L 263.935442 121.088414 
L 273.312292 126.833146 
L 279.58043 134.944854 
L 282.618818 146.445623 
L 280.886397 160.300057 
L 274.703386 174.741669 
L 267.850902 185.491889 
L 260.211544 195.201898 
L 250.062185 205.852851 
L 238.285062 215.350163 
L 226.126461 221.289702 
L 217.088325 222.307254 
L 209.032448 219.836694 
L 201.432961 213.052611 
L 195.38439 201.014753 
L 192.741604 184.225888 
L 195.289595 164.606898 
L 201.772687 149.158054 
L 211.516047 136.381247 
L 226.185986 125.623803 
L 243.989644 120.0819 
L 260.956584 120.937307 
L 273.636345 126.527073 
L 281.850375 135.05027 
L 285.781797 145.662146 
L 285.197195 158.861568 
L 279.805045 173.105483 
L 272.915731 184.192789 
L 264.792301 194.344023 
L 254.41642 204.85924 
L 241.935688 214.630578 
L 228.602645 221.232551 
L 217.935733 222.800103 
L 208.193608 220.227315 
L 199.878289 213.384919 
L 193.186342 201.272438 
L 190.064509 184.376314 
L 192.368755 164.742669 
L 198.931871 149.160464 
L 209.10764 136.220327 
L 224.460636 125.548031 
L 243.177286 120.238357 
L 259.414083 120.964224 
L 273.294729 126.190289 
L 283.261361 134.824268 
L 288.447469 144.892463 
L 289.583016 157.790462 
L 285.776047 172.233187 
L 279.575365 183.964435 
L 271.366179 195.145793 
L 261.514761 205.583738 
L 249.242124 215.384748 
L 235.61352 222.132498 
L 224.725028 223.79991 
L 214.531886 221.512866 
L 205.354942 214.983156 
L 197.552152 203.384701 
L 192.852256 186.879536 
L 193.224152 167.216522 
L 197.740088 152.140077 
L 205.343264 139.445377 
L 218.01869 127.666656 
L 235.089798 120.133585 
L 253.409726 118.950759 
L 267.038329 122.596944 
L 277.519256 129.280381 
L 284.607402 138.093065 
L 288.505643 150.161911 
L 287.668842 164.538421 
L 282.906468 178.049908 
L 276.532361 189.272858 
L 269.063441 199.289741 
L 258.897253 209.882727 
L 246.791389 218.780452 
L 235.381348 223.275055 
L 224.308751 223.34841 
L 214.941275 219.225196 
L 206.752135 211.055502 
L 199.909687 197.609815 
L 196.55817 179.726073 
L 198.529127 159.713278 
L 204.493536 144.559956 
L 213.697696 132.274979 
L 227.594648 122.339198 
L 244.440821 117.767688 
L 260.598731 119.553952 
L 271.559401 125.103844 
L 279.328288 133.367413 
L 283.829241 144.871629 
L 283.694035 159.037833 
L 278.801974 174.220844 
L 272.606975 185.659067 
L 265.322445 196.040321 
L 255.888754 206.77683 
L 244.637618 216.313628 
L 232.764561 222.1626 
L 223.363872 223.00731 
L 214.92114 220.073512 
L 207.045498 212.814492 
L 200.602672 200.52286 
L 197.252049 183.551251 
L 198.818805 163.77584 
L 204.051786 148.842974 
L 211.923066 136.71357 
L 224.522496 125.666492 
L 240.603999 119.170133 
L 256.893006 118.972306 
L 267.987504 123.011758 
L 276.279418 130.016125 
L 281.350527 139.747404 
L 282.330154 152.58331 
L 278.427393 167.007153 
L 272.061541 179.233813 
L 263.733316 191.07106 
L 254.593643 201.586673 
L 243.437679 211.84177 
L 231.355814 219.495495 
L 221.159521 222.340268 
L 211.744399 220.933653 
L 203.779739 215.26174 
L 197.172308 204.545756 
L 193.475272 188.847892 
L 194.512959 169.639803 
L 199.26325 154.72658 
L 207.369065 141.331771 
L 220.027661 129.356482 
L 236.811628 121.431688 
L 254.485497 119.771987 
L 266.948669 122.833687 
L 276.723617 129.100433 
L 283.072685 137.836192 
L 285.669536 149.403004 
L 283.442245 163.132984 
L 276.770496 177.286542 
L 269.155968 188.230125 
L 260.574524 198.116757 
L 249.316134 208.624621 
L 236.419816 217.502856 
L 223.320045 222.317068 
L 213.572912 222.186411 
L 205.229751 218.497114 
L 197.328788 210.01006 
L 191.674453 196.258583 
L 190.21669 178.172528 
L 193.596695 161.209607 
L 201.520826 145.439928 
L 213.294351 132.7725 
L 229.954792 123.397022 
L 248.883712 119.993749 
L 263.605468 122.030062 
L 275.808631 127.822957 
L 284.696832 136.943251 
L 288.998944 147.801884 
L 288.841246 161.19281 
L 283.807646 175.698546 
L 277.159508 186.851578 
L 269.029626 197.171199 
L 258.544551 207.645586 
L 245.82036 217.030361 
L 232.091204 222.834137 
L 222.003522 223.600477 
L 212.624818 220.857182 
L 203.886922 214.033903 
L 196.360839 201.917958 
L 192.174338 184.992674 
L 193.265566 165.209283 
L 198.586247 149.874145 
L 207.16602 137.168967 
L 220.944665 125.944386 
L 238.710461 119.549288 
L 256.87221 119.614403 
L 271.513093 124.928844 
L 281.618058 133.424171 
L 287.388719 143.863261 
L 289.064957 157.175839 
L 285.801244 172.074797 
L 280.147341 183.987556 
L 272.526969 195.344709 
L 263.2423 205.969505 
L 251.681265 215.78494 
L 238.862161 222.377326 
L 229.21928 223.936377 
L 220.084686 222.141631 
L 210.634562 215.879636 
L 202.723927 204.992037 
L 197.333495 189.128134 
L 196.448778 169.735395 
L 200.036823 153.661555 
L 207.522052 139.269091 
L 218.893351 127.525332 
L 234.51015 119.610851 
L 251.681869 117.834465 
L 264.848036 121.184215 
L 275.244344 128.170124 
L 281.811201 137.444416 
L 284.800158 150.111374 
L 282.883241 164.903803 
L 277.63741 178.054246 
L 271.000903 189.304533 
L 263.28673 199.575656 
L 253.179716 210.191699 
L 241.544796 218.810798 
L 231.13098 222.810839 
L 221.171493 222.559027 
L 212.403981 217.981789 
L 204.93654 209.080008 
L 199.26907 195.005437 
L 197.340809 176.729755 
L 200.154301 158.918537 
L 207.592821 142.488784 
L 217.938821 130.399159 
L 232.575834 121.400047 
L 249.22061 118.156315 
L 264.079907 121.047167 
L 274.383434 127.948943 
L 280.227489 136.774207 
L 282.486727 148.973289 
L 279.867689 163.222134 
L 273.962678 176.177221 
L 266.910471 187.117713 
L 259.062414 197.003072 
L 248.761682 207.636994 
L 237.011385 216.720498 
L 225.095968 221.86128 
L 215.823604 222.049013 
L 207.726196 218.361242 
L 200.431359 210.019124 
L 195.186323 196.462518 
L 193.82186 178.548685 
L 197.207231 160.961465 
L 205.230529 144.606356 
L 216.49841 132.12251 
L 232.263472 122.846602 
L 249.970505 119.464111 
L 263.842223 121.596796 
L 274.937638 127.639681 
L 282.068313 136.403284 
L 285.140754 147.653506 
L 283.463937 161.219628 
L 277.213053 175.422781 
L 270.085028 186.127325 
L 261.748108 196.120929 
L 250.928205 206.690937 
L 238.31436 216.04217 
L 225.250016 221.741249 
L 215.598847 222.47535 
L 206.836607 219.55909 
L 198.793178 212.176579 
L 192.603129 199.509738 
L 190.197954 182.20214 
L 193.355336 162.531766 
L 201.555492 145.74971 
L 213.267499 133.02678 
L 229.844658 123.561567 
L 248.720514 120.037239 
L 263.468516 121.99613 
L 275.683029 127.755154 
L 284.520029 136.834341 
L 288.764228 147.64991 
L 288.544252 161.002479 
L 283.450981 175.464773 
L 276.719879 186.650987 
L 268.502296 197.00351 
L 257.966896 207.475739 
L 245.202935 216.878417 
L 231.455166 222.720228 
L 221.266753 223.511689 
L 211.822257 220.715551 
L 203.084361 213.765092 
L 195.681703 201.525437 
L 191.705227 184.504098 
L 193.0764 164.714004 
L 198.70978 149.30065 
L 207.732147 136.52418 
L 221.956905 125.510319 
L 240.005549 119.519615 
L 258.125678 119.997156 
L 272.47775 125.5332 
L 282.454293 134.290674 
L 287.969071 144.926758 
L 289.283658 158.341486 
L 285.66444 173.228837 
L 279.9105 184.855802 
L 272.300133 195.91599 
L 262.824513 206.524822 
L 251.081365 216.230019 
L 238.124562 222.60395 
L 228.325181 223.948385 
L 219.281574 221.942564 
L 209.856701 215.44915 
L 201.973713 204.249473 
L 196.757978 188.116558 
L 196.189765 168.590334 
L 199.954629 152.932436 
L 207.446317 138.95899 
L 219.041175 127.259828 
L 234.872656 119.501783 
L 252.164644 117.934431 
L 265.246492 121.385452 
L 275.588142 128.374395 
L 282.203458 137.672237 
L 285.257008 150.354979 
L 283.407308 165.16286 
L 278.213973 178.30891 
L 271.57366 189.60615 
L 263.873173 199.854978 
L 253.734228 210.457423 
L 242.046893 219.020907 
L 231.638659 222.929837 
L 221.668062 222.626451 
L 212.810418 218.001133 
L 205.275187 209.08739 
L 199.507076 194.997902 
L 197.465512 176.709298 
L 200.178894 158.877255 
L 207.533121 142.421731 
L 217.783695 130.343669 
L 232.338297 121.325644 
L 248.953402 118.043089 
L 263.854924 120.908638 
L 274.237404 127.823558 
L 280.155115 136.689012 
L 282.485749 148.94008 
L 279.935476 163.255606 
L 274.095546 176.256564 
L 267.121577 187.204986 
L 259.362836 197.082011 
L 249.147447 207.722781 
L 237.473858 216.804032 
L 225.62344 221.925472 
L 216.340314 222.083737 
L 208.202641 218.31037 
L 200.931347 209.906185 
L 195.689263 196.295499 
L 194.307617 178.345519 
L 197.666663 160.719976 
L 205.657731 144.348869 
L 216.83994 131.913239 
L 232.476405 122.683544 
L 250.029356 119.337626 
L 263.810374 121.510015 
L 274.790989 127.609478 
L 281.739147 136.331905 
L 284.707855 147.650912 
L 282.908055 161.260171 
L 276.579141 175.458981 
L 269.422047 186.166015 
L 261.159937 196.077901 
L 250.37011 206.65967 
L 237.840296 215.997376 
L 224.90919 221.668497 
L 215.408684 222.394682 
L 206.787337 219.514971 
L 198.826624 212.161669 
L 192.71757 199.526918 
L 190.377007 182.249327 
L 193.576492 162.586521 
L 201.809729 145.779035 
L 213.519089 133.057536 
L 230.065459 123.588247 
L 248.872713 120.057086 
L 263.544652 122.010004 
L 275.664525 127.765094 
L 284.371234 136.815346 
L 288.50874 147.63525 
L 288.157867 160.980554 
L 282.945924 175.403862 
L 276.122259 186.58623 
L 267.814611 196.948369 
L 257.20189 207.422163 
L 244.38876 216.815465 
L 230.640394 222.63533 
L 220.431168 223.403465 
L 210.99633 220.546861 
L 202.286299 213.465309 
L 195.025916 201.094796 
L 191.278843 183.973678 
L 192.947288 164.181932 
L 198.906104 148.703939 
L 208.372187 135.884688 
L 223.032675 125.098905 
L 241.332662 119.519562 
L 259.373069 120.398231 
L 273.406573 126.133336 
L 283.201719 135.099528 
L 288.459482 145.901381 
L 289.427749 159.397354 
L 285.474027 174.259359 
L 279.635177 185.609934 
L 272.040771 196.387857 
L 262.389886 206.975715 
L 250.476882 216.585247 
L 237.388826 222.776068 
L 227.466655 223.938473 
L 218.479028 221.759093 
L 209.104539 215.099131 
L 201.250307 203.65172 
L 196.189098 187.306106 
L 195.896691 167.683047 
L 199.796966 152.404886 
L 207.272438 138.79812 
L 219.054829 127.120997 
L 235.0793 119.466812 
L 252.501296 118.042613 
L 265.540268 121.549666 
L 275.872667 128.515414 
L 282.552638 137.776549 
L 285.722079 150.4276 
L 283.998766 165.222241 
L 278.874937 178.401276 
L 272.264906 189.720207 
L 264.583025 199.964311 
L 254.433301 210.5629 
L 242.697413 219.121506 
L 232.239955 223.019086 
L 222.202156 222.717111 
L 213.256901 218.103497 
L 205.641642 209.24684 
L 199.737094 195.204557 
L 197.526917 176.944192 
L 200.094184 159.043584 
L 206.413925 144.038986 
L 215.901044 131.870504 
L 229.872571 122.217656 
L 246.395256 118.012317 
L 261.799268 120.077489 
L 271.775783 125.585438 
L 278.625819 133.594183 
L 282.320466 144.989346 
L 281.315614 158.933304 
L 275.717304 173.693051 
L 269.181446 184.750075 
L 261.687605 194.848318 
L 252.010108 205.528099 
L 240.629582 215.165025 
L 228.742081 221.320192 
L 219.737422 222.524389 
L 211.864966 220.293142 
L 204.434745 214.08269 
L 198.098468 202.625344 
L 194.805312 186.312131 
L 196.369365 166.818418 
L 201.625362 151.777881 
L 209.686212 139.232617 
L 222.566292 127.67846 
L 239.217917 120.493354 
L 256.271918 119.626694 
L 267.901162 123.143687 
L 276.81725 129.661681 
L 282.294008 138.226661 
L 284.316333 150.135521 
L 281.462241 164.040761 
L 275.301132 176.66964 
L 267.785711 187.563019 
L 259.30872 197.488791 
L 248.267109 208.042438 
L 235.694384 217.005675 
L 222.973643 221.98173 
L 213.461424 222.03363 
L 205.324118 218.51786 
L 197.640896 210.239998 
L 192.14799 196.701728 
L 190.751235 178.778375 
L 194.172758 161.635996 
L 202.191424 145.655433 
L 213.907148 132.974993 
L 230.435363 123.540924 
L 249.157102 120.054241 
L 263.70708 122.035495 
L 275.683077 127.805606 
L 284.215272 136.832387 
L 288.21953 147.684775 
L 287.700597 161.041344 
L 282.340546 175.428363 
L 275.424896 186.584074 
L 267.035993 196.937929 
L 256.33869 207.416472 
L 243.480955 216.788034 
L 229.751768 222.558649 
L 219.569071 223.282776 
L 210.187521 220.367239 
L 201.528044 213.163652 
L 194.420276 200.670036 
L 190.907217 183.45708 
L 192.870215 163.670856 
L 199.145691 148.143883 
L 209.02897 135.307036 
L 224.088755 124.746846 
L 242.596863 119.554057 
L 260.531467 120.793579 
L 274.242208 126.690671 
L 283.830473 135.806732 
L 288.847138 146.734643 
L 289.503818 160.286379 
L 285.253438 175.111165 
L 279.344881 186.211267 
L 271.767244 196.737451 
L 261.962595 207.302352 
L 249.897001 216.83743 
L 236.685544 222.89153 
L 226.676598 223.916594 
L 217.696932 221.602094 
L 208.38884 214.839793 
L 200.5605 203.209909 
L 195.629047 186.707272 
L 195.566506 167.019144 
L 199.566017 152.071411 
L 207.012063 138.771608 
L 218.949107 127.094881 
L 235.147095 119.496268 
L 252.708068 118.156216 
L 265.741713 121.681324 
L 276.104008 128.603264 
L 282.857239 137.772402 
L 286.18449 150.348231 
L 284.638277 165.101935 
L 279.59911 178.346835 
L 273.04915 189.664542 
L 265.393865 199.915056 
L 255.253789 210.518615 
L 243.474352 219.119497 
L 232.915346 223.080047 
L 222.756951 222.827492 
L 213.729029 218.279778 
L 206.026029 209.543093 
L 199.955404 195.604723 
L 197.529532 177.410699 
L 200.462267 157.464701 
L 208.124742 141.007013 
L 218.740741 129.08623 
L 233.567034 120.537356 
L 250.199999 117.877089 
L 263.470083 120.672097 
L 273.867808 127.431698 
L 280.016566 136.241232 
L 282.666991 148.497962 
L 280.442746 162.906663 
L 274.818338 176.07332 
L 268.114041 186.971693 
L 260.365069 197.105351 
L 250.33204 207.769905 
L 238.79457 216.890708 
L 227.024507 222.047756 
L 216.733942 221.993603 
L 208.450848 217.575973 
L 201.308146 208.494309 
L 196.34395 194.262492 
L 195.391051 175.894241 
L 199.051042 158.666207 
L 207.085441 142.863954 
L 218.432521 130.654689 
L 234.060863 121.878705 
L 251.299269 119.08215 
L 264.567865 121.639552 
L 274.978562 127.987448 
L 281.312657 136.625564 
L 283.917959 148.208747 
L 281.700512 161.976304 
L 275.099917 176.169615 
L 267.664975 187.086741 
L 259.348418 196.960467 
L 248.468961 207.540603 
L 236.04622 216.622993 
L 223.43336 221.81348 
L 214.026377 222.085324 
L 205.99963 218.866325 
L 198.313231 210.971014 
L 192.673168 197.805276 
L 190.973212 180.149297 
L 194.151022 162.664117 
L 202.101445 146.247441 
L 213.549143 133.500954 
L 229.823906 123.845467 
L 248.437638 120.048087 
L 263.155742 121.839573 
L 275.282734 127.550813 
L 283.813302 136.496121 
L 287.818183 147.27539 
L 287.309466 160.580603 
L 281.95882 174.931436 
L 275.013332 186.123705 
L 266.610198 196.495739 
L 255.943999 206.980342 
L 243.122663 216.423574 
L 229.429779 222.340911 
L 219.109537 223.195369 
L 209.623705 220.296229 
L 201.014568 213.098466 
L 194.004552 200.613883 
L 190.616637 183.411303 
L 192.722497 163.649175 
L 199.147014 148.098136 
L 209.218844 135.243339 
L 224.464099 124.748582 
L 243.083088 119.67474 
L 260.997155 121.017971 
L 274.591504 126.937503 
L 284.12106 136.089531 
L 289.036971 147.000517 
L 289.584726 160.517661 
L 285.228057 175.288065 
L 279.253624 186.329467 
L 271.621196 196.795842 
L 261.727484 207.33797 
L 249.557795 216.857257 
L 236.235318 222.898918 
L 226.214704 223.909112 
L 217.107749 221.55227 
L 207.826723 214.790171 
L 199.993571 203.107517 
L 195.114193 186.55545 
L 195.160172 166.849521 
L 199.209265 152.061841 
L 206.640952 138.914258 
L 218.68346 127.208319 
L 235.024291 119.600383 
L 252.734058 118.266815 
L 265.819238 121.766661 
L 276.266033 128.628144 
L 283.098189 137.643051 
L 286.628685 150.094991 
L 285.317048 164.776568 
L 280.383839 178.122579 
L 273.930863 189.411391 
L 266.321492 199.672333 
L 256.220594 210.290449 
L 244.409584 218.989146 
L 233.690851 223.103263 
L 223.351173 222.961187 
L 214.250663 218.547476 
L 206.456547 210.014728 
L 200.183772 196.256844 
L 197.480853 178.182243 
L 200.100006 158.212917 
L 206.5793 143.126906 
L 216.294628 131.006394 
L 230.467589 121.618032 
L 247.074218 117.799458 
L 262.413402 120.226184 
L 272.319922 125.983075 
L 279.00349 134.060243 
L 282.659851 145.713623 
L 281.57431 159.869192 
L 275.924259 174.77117 
L 269.337696 185.959781 
L 261.691842 196.266855 
L 251.907949 206.963451 
L 240.505207 216.321925 
L 228.716815 221.89528 
L 219.458864 222.489792 
L 211.26536 219.256502 
L 203.879656 211.73753 
L 198.026711 198.976118 
L 195.599611 181.644728 
L 198.347858 161.84153 
L 204.886861 146.556136 
L 214.571157 134.091434 
L 228.886634 123.921801 
L 245.901015 119.110379 
L 261.787984 120.614476 
L 273.372953 126.683336 
L 280.342152 135.180202 
L 283.478068 146.433526 
L 281.872343 160.053214 
L 275.735696 174.328821 
L 268.870102 184.935435 
L 261.051716 194.670309 
L 250.713266 205.287065 
L 238.624599 214.893053 
L 226.052015 221.089841 
L 216.476533 222.330657 
L 207.767224 219.795867 
L 199.956536 212.908193 
L 193.829435 200.762189 
L 191.248754 183.875152 
L 194.008527 164.265303 
L 200.8612 148.703991 
L 211.217662 135.826875 
L 226.572364 125.310831 
L 244.940241 120.22986 
L 260.505718 121.119539 
L 273.562234 126.416662 
L 282.576444 134.933584 
L 287.065257 145.184174 
L 287.257237 158.160916 
L 282.537603 172.444427 
L 275.972972 183.668034 
L 267.736468 194.274217 
L 257.580891 204.710261 
L 245.108813 214.563343 
L 231.498099 221.408991 
L 220.388945 223.199143 
L 210.15404 220.759001 
L 201.53441 214.175591 
L 194.323116 202.337013 
L 190.515638 185.642 
L 192.026112 166.009497 
L 197.795048 150.548335 
L 206.976338 137.664589 
L 221.419929 126.47493 
L 239.755411 120.251755 
L 258.142282 120.48871 
L 272.685952 125.783047 
L 282.922411 134.420924 
L 288.431881 144.569299 
L 289.932356 157.57131 
L 286.497264 172.170805 
L 280.54259 184.086584 
L 272.530854 195.438372 
L 262.908415 205.936903 
L 250.897713 215.715798 
L 237.524433 222.367685 
L 227.11207 223.955952 
L 217.279212 221.856757 
L 207.843908 215.374022 
L 199.879911 204.017444 
L 194.783737 187.729564 
L 194.538855 168.133031 
L 198.47142 153.012001 
L 205.952586 139.505691 
L 217.939033 127.686562 
L 234.316045 119.88299 
L 252.196105 118.334094 
L 265.526636 121.701325 
L 276.236197 128.485285 
L 283.169766 137.218267 
L 287.013348 149.447844 
L 286.074313 163.99892 
L 281.312766 177.520622 
L 275.053884 188.716929 
L 267.56323 198.979132 
L 257.588237 209.631173 
L 245.79367 218.550546 
L 234.807831 223.029085 
L 224.167658 223.154498 
L 215.024209 219.046254 
L 207.149061 210.955551 
L 200.575109 197.597953 
L 197.414304 179.80058 
L 199.480171 159.821198 
L 205.408577 144.753338 
L 214.442189 132.549025 
L 228.077022 122.576142 
L 244.591318 117.880776 
L 260.411266 119.514139 
L 270.976373 124.868349 
L 278.385736 132.844344 
L 282.650903 144.141447 
L 282.292129 158.12528 
L 277.217153 173.116995 
L 270.953318 184.397071 
L 263.621768 194.719306 
L 254.247845 205.417068 
L 243.069553 215.153178 
L 231.252793 221.456335 
L 222.197847 222.782779 
L 214.270599 220.675314 
L 206.396825 214.276579 
L 199.882065 202.880882 
L 196.264183 186.630994 
L 197.368628 167.144228 
L 202.062915 152.375715 
L 209.977243 139.2593 
L 222.247989 127.686792 
L 238.337501 120.275196 
L 255.105263 119.101299 
L 267.012578 122.604763 
L 276.067908 129.356151 
L 281.476719 138.289059 
L 283.187301 150.488441 
L 280.006273 164.564435 
L 273.758517 177.125887 
L 265.213897 189.348764 
L 256.230511 199.671624 
L 245.019157 210.100567 
L 232.64057 218.381357 
L 220.501638 222.233836 
L 210.309103 220.866988 
L 202.290605 215.274318 
L 195.577532 204.566683 
L 191.878411 188.858107 
L 193.042316 169.658423 
L 198.061068 154.583437 
L 206.19667 141.578909 
L 219.26473 129.564891 
L 236.562284 121.69749 
L 254.721543 120.145037 
L 267.698686 123.336888 
L 277.53432 129.461077 
L 284.355148 138.350684 
L 287.28153 149.804052 
L 285.433 163.487438 
L 279.003863 177.727174 
L 271.561412 188.612472 
L 263.13166 198.386271 
L 251.884243 208.858159 
L 238.79317 217.781715 
L 225.29898 222.66983 
L 215.299779 222.578147 
L 206.721469 219.000118 
L 198.454956 210.705731 
L 192.282159 197.129321 
L 190.202496 179.143077 
L 193.105092 161.850762 
L 200.754944 145.694678 
L 212.129291 132.985081 
L 228.489077 123.412636 
L 247.426341 119.722145 
L 262.611773 121.622664 
L 275.314595 127.453532 
L 284.577877 136.610854 
L 289.251084 147.509391 
L 289.524257 160.978148 
L 284.902464 175.644539 
L 278.660121 186.733016 
L 270.929273 197.009312 
L 260.812767 207.513427 
L 248.414849 216.973945 
L 234.89433 222.921882 
L 224.843213 223.835934 
L 215.588405 221.339115 
L 206.473965 214.565116 
L 198.697606 202.728633 
L 194.013294 186.039868 
L 194.386246 166.293912 
L 198.858084 151.275576 
L 206.390318 138.645618 
L 218.901041 127.005241 
L 235.690527 119.646921 
L 253.653697 118.633733 
L 266.81157 122.33809 
L 277.043622 129.115271 
L 283.877503 137.996301 
L 287.544764 150.327498 
L 286.407367 164.910095 
L 281.543722 178.298428 
L 275.09012 189.602737 
L 267.52608 199.754749 
L 257.363315 210.352297 
L 245.405237 219.071189 
L 234.45715 223.235046 
L 223.869066 223.110385 
L 214.618306 218.740451 
L 206.648527 210.280997 
L 200.145434 196.580172 
L 197.197837 178.53451 
L 199.585887 158.544865 
L 205.891215 143.439882 
L 215.449565 131.271786 
L 229.546698 121.735992 
L 246.246352 117.718735 
L 261.864527 119.986766 
L 271.997975 125.615762 
L 279.07433 133.73886 
L 283.089328 145.355334 
L 282.399169 159.548037 
L 277.06084 174.597045 
L 270.614861 185.944023 
L 263.079234 196.345844 
L 253.435872 207.060916 
L 242.107356 216.454515 
L 230.31994 222.060062 
L 220.985962 222.671855 
L 212.658287 219.416242 
L 205.253 212.039946 
L 199.191332 199.409269 
L 196.428296 182.17616 
L 198.743324 162.366031 
L 204.790156 147.206337 
L 213.806011 134.838527 
L 227.479527 124.369182 
L 244.130383 118.995663 
L 260.116038 119.959566 
L 270.889142 124.888501 
L 278.357463 132.499728 
L 282.49372 143.005193 
L 282.157435 156.262905 
L 277.062842 170.640783 
L 270.432285 181.945579 
L 262.229745 192.811231 
L 252.449151 203.411977 
L 240.794469 213.370492 
L 228.442503 220.319951 
L 218.499335 222.34566 
L 209.402475 220.313844 
L 201.627064 214.0989 
L 195.263956 202.668659 
L 192.140904 186.362873 
L 194.079202 166.911642 
L 199.943352 151.559872 
L 208.877999 138.79551 
L 222.887054 127.392997 
L 240.588865 120.751195 
L 258.222748 120.527146 
L 271.999685 125.473383 
L 281.044928 133.416087 
L 285.835657 143.184333 
L 286.534446 155.857993 
L 282.302865 170.032621 
L 275.781425 181.654984 
L 267.309747 192.807406 
L 257.414578 203.205793 
L 245.1776 213.257276 
L 231.748981 220.585923 
L 220.360272 222.963574 
L 209.873813 220.886411 
L 201.367742 214.701516 
L 201.367742 214.701516 
" clip-path="url(#p31c5ea1fe8)" style="fill: none; stroke: #1f77b4; stroke-width: 0.5; stroke-linecap: square"/>
   </g>
   <g id="text_19">
    <!-- Projection onto r-z-p_r space with initial r = -0.30 -->
    <g transform="translate(89.055 35.472) scale(0.12 -0.12)">
     <defs>
      <path id="DejaVuSans-50" d="M 1259 4147 
L 1259 2394 
L 2053 2394 
Q 2494 2394 2734 2622 
Q 2975 2850 2975 3272 
Q 2975 3691 2734 3919 
Q 2494 4147 2053 4147 
L 1259 4147 
z
M 628 4666 
L 2053 4666 
Q 2838 4666 3239 4311 
Q 3641 3956 3641 3272 
Q 3641 2581 3239 2228 
Q 2838 1875 2053 1875 
L 1259 1875 
L 1259 0 
L 628 0 
L 628 4666 
z
" transform="scale(0.015625)"/>
      <path id="DejaVuSans-6f" d="M 1959 3097 
Q 1497 3097 1228 2736 
Q 959 2375 959 1747 
Q 959 1119 1226 758 
Q 1494 397 1959 397 
Q 2419 397 2687 759 
Q 2956 1122 2956 1747 
Q 2956 2369 2687 2733 
Q 2419 3097 1959 3097 
z
M 1959 3584 
Q 2709 3584 3137 3096 
Q 3566 2609 3566 1747 
Q 3566 888 3137 398 
Q 2709 -91 1959 -91 
Q 1206 -91 779 398 
Q 353 888 353 1747 
Q 353 2609 779 3096 
Q 1206 3584 1959 3584 
z
" transform="scale(0.015625)"/>
      <path id="DejaVuSans-6a" d="M 603 3500 
L 1178 3500 
L 1178 -63 
Q 1178 -731 923 -1031 
Q 669 -1331 103 -1331 
L -116 -1331 
L -116 -844 
L 38 -844 
Q 366 -844 484 -692 
Q 603 -541 603 -63 
L 603 3500 
z
M 603 4863 
L 1178 4863 
L 1178 4134 
L 603 4134 
L 603 4863 
z
" transform="scale(0.015625)"/>
      <path id="DejaVuSans-65" d="M 3597 1894 
L 3597 1613 
L 953 1613 
Q 991 1019 1311 708 
Q 1631 397 2203 397 
Q 2534 397 2845 478 
Q 3156 559 3463 722 
L 3463 178 
Q 3153 47 2828 -22 
Q 2503 -91 2169 -91 
Q 1331 -91 842 396 
Q 353 884 353 1716 
Q 353 2575 817 3079 
Q 1281 3584 2069 3584 
Q 2775 3584 3186 3129 
Q 3597 2675 3597 1894 
z
M 3022 2063 
Q 3016 2534 2758 2815 
Q 2500 3097 2075 3097 
Q 1594 3097 1305 2825 
Q 1016 2553 972 2059 
L 3022 2063 
z
" transform="scale(0.015625)"/>
      <path id="DejaVuSans-63" d="M 3122 3366 
L 3122 2828 
Q 2878 2963 2633 3030 
Q 2388 3097 2138 3097 
Q 1578 3097 1268 2742 
Q 959 2388 959 1747 
Q 959 1106 1268 751 
Q 1578 397 2138 397 
Q 2388 397 2633 464 
Q 2878 531 3122 666 
L 3122 134 
Q 2881 22 2623 -34 
Q 2366 -91 2075 -91 
Q 1284 -91 818 406 
Q 353 903 353 1747 
Q 353 2603 823 3093 
Q 1294 3584 2113 3584 
Q 2378 3584 2631 3529 
Q 2884 3475 3122 3366 
z
" transform="scale(0.015625)"/>
      <path id="DejaVuSans-74" d="M 1172 4494 
L 1172 3500 
L 2356 3500 
L 2356 3053 
L 1172 3053 
L 1172 1153 
Q 1172 725 1289 603 
Q 1406 481 1766 481 
L 2356 481 
L 2356 0 
L 1766 0 
Q 1100 0 847 248 
Q 594 497 594 1153 
L 594 3053 
L 172 3053 
L 172 3500 
L 594 3500 
L 594 4494 
L 1172 4494 
z
" transform="scale(0.015625)"/>
      <path id="DejaVuSans-69" d="M 603 3500 
L 1178 3500 
L 1178 0 
L 603 0 
L 603 3500 
z
M 603 4863 
L 1178 4863 
L 1178 4134 
L 603 4134 
L 603 4863 
z
" transform="scale(0.015625)"/>
      <path id="DejaVuSans-6e" d="M 3513 2113 
L 3513 0 
L 2938 0 
L 2938 2094 
Q 2938 2591 2744 2837 
Q 2550 3084 2163 3084 
Q 1697 3084 1428 2787 
Q 1159 2491 1159 1978 
L 1159 0 
L 581 0 
L 581 3500 
L 1159 3500 
L 1159 2956 
Q 1366 3272 1645 3428 
Q 1925 3584 2291 3584 
Q 2894 3584 3203 3211 
Q 3513 2838 3513 2113 
z
" transform="scale(0.015625)"/>
      <path id="DejaVuSans-20" transform="scale(0.015625)"/>
      <path id="DejaVuSans-2d" d="M 313 2009 
L 1997 2009 
L 1997 1497 
L 313 1497 
L 313 2009 
z
" transform="scale(0.015625)"/>
      <path id="DejaVuSans-73" d="M 2834 3397 
L 2834 2853 
Q 2591 2978 2328 3040 
Q 2066 3103 1784 3103 
Q 1356 3103 1142 2972 
Q 928 2841 928 2578 
Q 928 2378 1081 2264 
Q 1234 2150 1697 2047 
L 1894 2003 
Q 2506 1872 2764 1633 
Q 3022 1394 3022 966 
Q 3022 478 2636 193 
Q 2250 -91 1575 -91 
Q 1294 -91 989 -36 
Q 684 19 347 128 
L 347 722 
Q 666 556 975 473 
Q 1284 391 1588 391 
Q 1994 391 2212 530 
Q 2431 669 2431 922 
Q 2431 1156 2273 1281 
Q 2116 1406 1581 1522 
L 1381 1569 
Q 847 1681 609 1914 
Q 372 2147 372 2553 
Q 372 3047 722 3315 
Q 1072 3584 1716 3584 
Q 2034 3584 2315 3537 
Q 2597 3491 2834 3397 
z
" transform="scale(0.015625)"/>
      <path id="DejaVuSans-61" d="M 2194 1759 
Q 1497 1759 1228 1600 
Q 959 1441 959 1056 
Q 959 750 1161 570 
Q 1363 391 1709 391 
Q 2188 391 2477 730 
Q 2766 1069 2766 1631 
L 2766 1759 
L 2194 1759 
z
M 3341 1997 
L 3341 0 
L 2766 0 
L 2766 531 
Q 2569 213 2275 61 
Q 1981 -91 1556 -91 
Q 1019 -91 701 211 
Q 384 513 384 1019 
Q 384 1609 779 1909 
Q 1175 2209 1959 2209 
L 2766 2209 
L 2766 2266 
Q 2766 2663 2505 2880 
Q 2244 3097 1772 3097 
Q 1472 3097 1187 3025 
Q 903 2953 641 2809 
L 641 3341 
Q 956 3463 1253 3523 
Q 1550 3584 1831 3584 
Q 2591 3584 2966 3190 
Q 3341 2797 3341 1997 
z
" transform="scale(0.015625)"/>
      <path id="DejaVuSans-77" d="M 269 3500 
L 844 3500 
L 1563 769 
L 2278 3500 
L 2956 3500 
L 3675 769 
L 4391 3500 
L 4966 3500 
L 4050 0 
L 3372 0 
L 2619 2869 
L 1863 0 
L 1184 0 
L 269 3500 
z
" transform="scale(0.015625)"/>
      <path id="DejaVuSans-68" d="M 3513 2113 
L 3513 0 
L 2938 0 
L 2938 2094 
Q 2938 2591 2744 2837 
Q 2550 3084 2163 3084 
Q 1697 3084 1428 2787 
Q 1159 2491 1159 1978 
L 1159 0 
L 581 0 
L 581 4863 
L 1159 4863 
L 1159 2956 
Q 1366 3272 1645 3428 
Q 1925 3584 2291 3584 
Q 2894 3584 3203 3211 
Q 3513 2838 3513 2113 
z
" transform="scale(0.015625)"/>
      <path id="DejaVuSans-6c" d="M 603 4863 
L 1178 4863 
L 1178 0 
L 603 0 
L 603 4863 
z
" transform="scale(0.015625)"/>
      <path id="DejaVuSans-3d" d="M 678 2906 
L 4684 2906 
L 4684 2381 
L 678 2381 
L 678 2906 
z
M 678 1631 
L 4684 1631 
L 4684 1100 
L 678 1100 
L 678 1631 
z
" transform="scale(0.015625)"/>
      <path id="DejaVuSans-33" d="M 2597 2516 
Q 3050 2419 3304 2112 
Q 3559 1806 3559 1356 
Q 3559 666 3084 287 
Q 2609 -91 1734 -91 
Q 1441 -91 1130 -33 
Q 819 25 488 141 
L 488 750 
Q 750 597 1062 519 
Q 1375 441 1716 441 
Q 2309 441 2620 675 
Q 2931 909 2931 1356 
Q 2931 1769 2642 2001 
Q 2353 2234 1838 2234 
L 1294 2234 
L 1294 2753 
L 1863 2753 
Q 2328 2753 2575 2939 
Q 2822 3125 2822 3475 
Q 2822 3834 2567 4026 
Q 2313 4219 1838 4219 
Q 1578 4219 1281 4162 
Q 984 4106 628 3988 
L 628 4550 
Q 988 4650 1302 4700 
Q 1616 4750 1894 4750 
Q 2613 4750 3031 4423 
Q 3450 4097 3450 3541 
Q 3450 3153 3228 2886 
Q 3006 2619 2597 2516 
z
" transform="scale(0.015625)"/>
     </defs>
     <use xlink:href="#DejaVuSans-50"/>
     <use xlink:href="#DejaVuSans-72" x="58.552734"/>
     <use xlink:href="#DejaVuSans-6f" x="97.416016"/>
     <use xlink:href="#DejaVuSans-6a" x="158.597656"/>
     <use xlink:href="#DejaVuSans-65" x="186.380859"/>
     <use xlink:href="#DejaVuSans-63" x="247.904297"/>
     <use xlink:href="#DejaVuSans-74" x="302.884766"/>
     <use xlink:href="#DejaVuSans-69" x="342.09375"/>
     <use xlink:href="#DejaVuSans-6f" x="369.876953"/>
     <use xlink:href="#DejaVuSans-6e" x="431.058594"/>
     <use xlink:href="#DejaVuSans-20" x="494.4375"/>
     <use xlink:href="#DejaVuSans-6f" x="526.224609"/>
     <use xlink:href="#DejaVuSans-6e" x="587.40625"/>
     <use xlink:href="#DejaVuSans-74" x="650.785156"/>
     <use xlink:href="#DejaVuSans-6f" x="689.994141"/>
     <use xlink:href="#DejaVuSans-20" x="751.175781"/>
     <use xlink:href="#DejaVuSans-72" x="782.962891"/>
     <use xlink:href="#DejaVuSans-2d" x="817.701172"/>
     <use xlink:href="#DejaVuSans-7a" x="853.785156"/>
     <use xlink:href="#DejaVuSans-2d" x="906.275391"/>
     <use xlink:href="#DejaVuSans-70" x="942.359375"/>
     <use xlink:href="#DejaVuSans-5f" x="1005.835938"/>
     <use xlink:href="#DejaVuSans-72" x="1055.835938"/>
     <use xlink:href="#DejaVuSans-20" x="1096.949219"/>
     <use xlink:href="#DejaVuSans-73" x="1128.736328"/>
     <use xlink:href="#DejaVuSans-70" x="1180.835938"/>
     <use xlink:href="#DejaVuSans-61" x="1244.3125"/>
     <use xlink:href="#DejaVuSans-63" x="1305.591797"/>
     <use xlink:href="#DejaVuSans-65" x="1360.572266"/>
     <use xlink:href="#DejaVuSans-20" x="1422.095703"/>
     <use xlink:href="#DejaVuSans-77" x="1453.882812"/>
     <use xlink:href="#DejaVuSans-69" x="1535.669922"/>
     <use xlink:href="#DejaVuSans-74" x="1563.453125"/>
     <use xlink:href="#DejaVuSans-68" x="1602.662109"/>
     <use xlink:href="#DejaVuSans-20" x="1666.041016"/>
     <use xlink:href="#DejaVuSans-69" x="1697.828125"/>
     <use xlink:href="#DejaVuSans-6e" x="1725.611328"/>
     <use xlink:href="#DejaVuSans-69" x="1788.990234"/>
     <use xlink:href="#DejaVuSans-74" x="1816.773438"/>
     <use xlink:href="#DejaVuSans-69" x="1855.982422"/>
     <use xlink:href="#DejaVuSans-61" x="1883.765625"/>
     <use xlink:href="#DejaVuSans-6c" x="1945.044922"/>
     <use xlink:href="#DejaVuSans-20" x="1972.828125"/>
     <use xlink:href="#DejaVuSans-72" x="2004.615234"/>
     <use xlink:href="#DejaVuSans-20" x="2045.728516"/>
     <use xlink:href="#DejaVuSans-3d" x="2077.515625"/>
     <use xlink:href="#DejaVuSans-20" x="2161.304688"/>
     <use xlink:href="#DejaVuSans-2d" x="2193.091797"/>
     <use xlink:href="#DejaVuSans-30" x="2229.175781"/>
     <use xlink:href="#DejaVuSans-2e" x="2292.798828"/>
     <use xlink:href="#DejaVuSans-33" x="2324.585938"/>
     <use xlink:href="#DejaVuSans-30" x="2388.208984"/>
    </g>
   </g>
  </g>
 </g>
 <defs>
  <clipPath id="p31c5ea1fe8">
   <rect x="103.104" y="41.472" width="266.112" height="266.112"/>
  </clipPath>
 </defs>
</svg>
