<?xml version="1.0" encoding="utf-8" standalone="no"?>
<!DOCTYPE svg PUBLIC "-//W3C//DTD SVG 1.1//EN"
  "http://www.w3.org/Graphics/SVG/1.1/DTD/svg11.dtd">
<svg xmlns:xlink="http://www.w3.org/1999/xlink" width="460.8pt" height="345.6pt" viewBox="0 0 460.8 345.6" xmlns="http://www.w3.org/2000/svg" version="1.1">
 <metadata>
  <rdf:RDF xmlns:dc="http://purl.org/dc/elements/1.1/" xmlns:cc="http://creativecommons.org/ns#" xmlns:rdf="http://www.w3.org/1999/02/22-rdf-syntax-ns#">
   <cc:Work>
    <dc:type rdf:resource="http://purl.org/dc/dcmitype/StillImage"/>
    <dc:date>2023-10-23T21:33:03.160149</dc:date>
    <dc:format>image/svg+xml</dc:format>
    <dc:creator>
     <cc:Agent>
      <dc:title>Matplotlib v3.8.0, https://matplotlib.org/</dc:title>
     </cc:Agent>
    </dc:creator>
   </cc:Work>
  </rdf:RDF>
 </metadata>
 <defs>
  <style type="text/css">*{stroke-linejoin: round; stroke-linecap: butt}</style>
 </defs>
 <g id="figure_1">
  <g id="patch_1">
   <path d="M 0 345.6 
L 460.8 345.6 
L 460.8 0 
L 0 0 
z
" style="fill: #ffffff"/>
  </g>
  <g id="patch_2">
   <path d="M 103.104 307.584 
L 369.216 307.584 
L 369.216 41.472 
L 103.104 41.472 
z
" style="fill: #ffffff"/>
  </g>
  <g id="pane3d_1">
   <g id="patch_3">
    <path d="M 123.197291 241.969309 
L 211.076164 168.307495 
L 209.854564 62.073991 
L 117.770234 129.272941 
" style="fill: #f2f2f2; opacity: 0.5; stroke: #f2f2f2; stroke-linejoin: miter"/>
   </g>
  </g>
  <g id="pane3d_2">
   <g id="patch_4">
    <path d="M 211.076164 168.307495 
L 352.090401 209.294766 
L 357.122702 99.402171 
L 209.854564 62.073991 
" style="fill: #e6e6e6; opacity: 0.5; stroke: #e6e6e6; stroke-linejoin: miter"/>
   </g>
  </g>
  <g id="pane3d_3">
   <g id="patch_5">
    <path d="M 123.197291 241.969309 
L 272.679269 290.790123 
L 352.090401 209.294766 
L 211.076164 168.307495 
" style="fill: #ececec; opacity: 0.5; stroke: #ececec; stroke-linejoin: miter"/>
   </g>
  </g>
  <g id="grid3d_1">
   <g id="Line3DCollection_1">
    <path d="M 139.745029 247.3738 
L 226.747915 172.862654 
L 226.190662 66.214715 
" style="fill: none; stroke: #b0b0b0; stroke-width: 0.8"/>
    <path d="M 167.574724 256.462979 
L 253.069813 180.513391 
L 253.645623 73.173748 
" style="fill: none; stroke: #b0b0b0; stroke-width: 0.8"/>
    <path d="M 195.967881 265.736184 
L 279.880048 188.306068 
L 281.632185 80.267526 
" style="fill: none; stroke: #b0b0b0; stroke-width: 0.8"/>
    <path d="M 224.941789 275.199062 
L 307.192338 196.244672 
L 310.165939 87.500001 
" style="fill: none; stroke: #b0b0b0; stroke-width: 0.8"/>
    <path d="M 254.514447 284.857492 
L 335.020917 204.333341 
L 339.263092 94.875281 
" style="fill: none; stroke: #b0b0b0; stroke-width: 0.8"/>
   </g>
  </g>
  <g id="grid3d_2">
   <g id="Line3DCollection_2">
    <path d="M 129.321936 120.843035 
L 134.184874 232.759299 
L 282.646541 280.56125 
" style="fill: none; stroke: #b0b0b0; stroke-width: 0.8"/>
    <path d="M 147.908894 107.279119 
L 151.886109 217.921773 
L 298.68087 264.106083 
" style="fill: none; stroke: #b0b0b0; stroke-width: 0.8"/>
    <path d="M 165.860779 94.178651 
L 169.008295 203.569617 
L 314.163547 248.217048 
" style="fill: none; stroke: #b0b0b0; stroke-width: 0.8"/>
    <path d="M 183.209592 81.518278 
L 185.579387 189.679399 
L 329.122557 232.865423 
" style="fill: none; stroke: #b0b0b0; stroke-width: 0.8"/>
    <path d="M 199.985219 69.276189 
L 201.62557 176.22917 
L 343.584028 218.024397 
" style="fill: none; stroke: #b0b0b0; stroke-width: 0.8"/>
   </g>
  </g>
  <g id="grid3d_3">
   <g id="Line3DCollection_3">
    <path d="M 352.651911 197.032811 
L 210.939601 156.431576 
L 122.59264 229.41333 
" style="fill: none; stroke: #b0b0b0; stroke-width: 0.8"/>
    <path d="M 353.593746 176.465549 
L 210.710684 136.52439 
L 121.577933 208.34229 
" style="fill: none; stroke: #b0b0b0; stroke-width: 0.8"/>
    <path d="M 354.551427 155.552235 
L 210.478101 116.298387 
L 120.545497 186.903085 
" style="fill: none; stroke: #b0b0b0; stroke-width: 0.8"/>
    <path d="M 355.525359 134.284061 
L 210.241763 95.745848 
L 119.494863 165.085982 
" style="fill: none; stroke: #b0b0b0; stroke-width: 0.8"/>
    <path d="M 356.515957 112.651918 
L 210.001579 74.858801 
L 118.425545 142.8809 
" style="fill: none; stroke: #b0b0b0; stroke-width: 0.8"/>
   </g>
  </g>
  <g id="axis3d_1">
   <g id="line2d_1">
    <path d="M 123.197291 241.969309 
L 272.679269 290.790123 
" style="fill: none; stroke: #000000; stroke-width: 0.8; stroke-linecap: square"/>
   </g>
   <g id="xtick_1">
    <g id="line2d_2">
     <path d="M 140.502812 246.724819 
L 138.226203 248.674556 
" style="fill: none; stroke: #000000; stroke-width: 0.8; stroke-linecap: square"/>
    </g>
    <g id="text_1">
     <!-- −0.4 -->
     <g transform="translate(120.082057 270.734746) scale(0.1 -0.1)">
      <defs>
       <path id="DejaVuSans-2212" d="M 678 2272 
L 4684 2272 
L 4684 1741 
L 678 1741 
L 678 2272 
z
" transform="scale(0.015625)"/>
       <path id="DejaVuSans-30" d="M 2034 4250 
Q 1547 4250 1301 3770 
Q 1056 3291 1056 2328 
Q 1056 1369 1301 889 
Q 1547 409 2034 409 
Q 2525 409 2770 889 
Q 3016 1369 3016 2328 
Q 3016 3291 2770 3770 
Q 2525 4250 2034 4250 
z
M 2034 4750 
Q 2819 4750 3233 4129 
Q 3647 3509 3647 2328 
Q 3647 1150 3233 529 
Q 2819 -91 2034 -91 
Q 1250 -91 836 529 
Q 422 1150 422 2328 
Q 422 3509 836 4129 
Q 1250 4750 2034 4750 
z
" transform="scale(0.015625)"/>
       <path id="DejaVuSans-2e" d="M 684 794 
L 1344 794 
L 1344 0 
L 684 0 
L 684 794 
z
" transform="scale(0.015625)"/>
       <path id="DejaVuSans-34" d="M 2419 4116 
L 825 1625 
L 2419 1625 
L 2419 4116 
z
M 2253 4666 
L 3047 4666 
L 3047 1625 
L 3713 1625 
L 3713 1100 
L 3047 1100 
L 3047 0 
L 2419 0 
L 2419 1100 
L 313 1100 
L 313 1709 
L 2253 4666 
z
" transform="scale(0.015625)"/>
      </defs>
      <use xlink:href="#DejaVuSans-2212"/>
      <use xlink:href="#DejaVuSans-30" x="83.789062"/>
      <use xlink:href="#DejaVuSans-2e" x="147.412109"/>
      <use xlink:href="#DejaVuSans-34" x="179.199219"/>
     </g>
    </g>
   </g>
   <g id="xtick_2">
    <g id="line2d_3">
     <path d="M 168.319982 255.800928 
L 166.08097 257.789956 
" style="fill: none; stroke: #000000; stroke-width: 0.8; stroke-linecap: square"/>
    </g>
    <g id="text_2">
     <!-- −0.2 -->
     <g transform="translate(147.940862 280.01671) scale(0.1 -0.1)">
      <defs>
       <path id="DejaVuSans-32" d="M 1228 531 
L 3431 531 
L 3431 0 
L 469 0 
L 469 531 
Q 828 903 1448 1529 
Q 2069 2156 2228 2338 
Q 2531 2678 2651 2914 
Q 2772 3150 2772 3378 
Q 2772 3750 2511 3984 
Q 2250 4219 1831 4219 
Q 1534 4219 1204 4116 
Q 875 4013 500 3803 
L 500 4441 
Q 881 4594 1212 4672 
Q 1544 4750 1819 4750 
Q 2544 4750 2975 4387 
Q 3406 4025 3406 3419 
Q 3406 3131 3298 2873 
Q 3191 2616 2906 2266 
Q 2828 2175 2409 1742 
Q 1991 1309 1228 531 
z
" transform="scale(0.015625)"/>
      </defs>
      <use xlink:href="#DejaVuSans-2212"/>
      <use xlink:href="#DejaVuSans-30" x="83.789062"/>
      <use xlink:href="#DejaVuSans-2e" x="147.412109"/>
      <use xlink:href="#DejaVuSans-32" x="179.199219"/>
     </g>
    </g>
   </g>
   <g id="xtick_3">
    <g id="line2d_4">
     <path d="M 196.69995 265.060666 
L 194.500531 267.090184 
" style="fill: none; stroke: #000000; stroke-width: 0.8; stroke-linecap: square"/>
    </g>
    <g id="text_3">
     <!-- 0.0 -->
     <g transform="translate(180.555708 289.487318) scale(0.1 -0.1)">
      <use xlink:href="#DejaVuSans-30"/>
      <use xlink:href="#DejaVuSans-2e" x="63.623047"/>
      <use xlink:href="#DejaVuSans-30" x="95.410156"/>
     </g>
    </g>
   </g>
   <g id="xtick_4">
    <g id="line2d_5">
     <path d="M 225.659969 274.509662 
L 223.502242 276.580919 
" style="fill: none; stroke: #000000; stroke-width: 0.8; stroke-linecap: square"/>
    </g>
    <g id="text_4">
     <!-- 0.2 -->
     <g transform="translate(209.564345 299.152381) scale(0.1 -0.1)">
      <use xlink:href="#DejaVuSans-30"/>
      <use xlink:href="#DejaVuSans-2e" x="63.623047"/>
      <use xlink:href="#DejaVuSans-32" x="95.410156"/>
     </g>
    </g>
   </g>
   <g id="xtick_5">
    <g id="line2d_6">
     <path d="M 255.218008 284.153777 
L 253.104175 286.268074 
" style="fill: none; stroke: #000000; stroke-width: 0.8; stroke-linecap: square"/>
    </g>
    <g id="text_5">
     <!-- 0.4 -->
     <g transform="translate(239.174779 309.01795) scale(0.1 -0.1)">
      <use xlink:href="#DejaVuSans-30"/>
      <use xlink:href="#DejaVuSans-2e" x="63.623047"/>
      <use xlink:href="#DejaVuSans-34" x="95.410156"/>
     </g>
    </g>
   </g>
   <g id="text_6">
    <!-- r -->
    <g transform="translate(177.620959 303.76759) scale(0.1 -0.1)">
     <defs>
      <path id="DejaVuSans-72" d="M 2631 2963 
Q 2534 3019 2420 3045 
Q 2306 3072 2169 3072 
Q 1681 3072 1420 2755 
Q 1159 2438 1159 1844 
L 1159 0 
L 581 0 
L 581 3500 
L 1159 3500 
L 1159 2956 
Q 1341 3275 1631 3429 
Q 1922 3584 2338 3584 
Q 2397 3584 2469 3576 
Q 2541 3569 2628 3553 
L 2631 2963 
z
" transform="scale(0.015625)"/>
     </defs>
     <use xlink:href="#DejaVuSans-72"/>
    </g>
   </g>
  </g>
  <g id="axis3d_2">
   <g id="line2d_7">
    <path d="M 352.090401 209.294766 
L 272.679269 290.790123 
" style="fill: none; stroke: #000000; stroke-width: 0.8; stroke-linecap: square"/>
   </g>
   <g id="xtick_6">
    <g id="line2d_8">
     <path d="M 281.395758 280.158521 
L 285.151326 281.367745 
" style="fill: none; stroke: #000000; stroke-width: 0.8; stroke-linecap: square"/>
    </g>
    <g id="text_7">
     <!-- −0.4 -->
     <g transform="translate(283.325813 301.514986) scale(0.1 -0.1)">
      <use xlink:href="#DejaVuSans-2212"/>
      <use xlink:href="#DejaVuSans-30" x="83.789062"/>
      <use xlink:href="#DejaVuSans-2e" x="147.412109"/>
      <use xlink:href="#DejaVuSans-34" x="179.199219"/>
     </g>
    </g>
   </g>
   <g id="xtick_7">
    <g id="line2d_9">
     <path d="M 297.445222 263.717326 
L 301.155291 264.884581 
" style="fill: none; stroke: #000000; stroke-width: 0.8; stroke-linecap: square"/>
    </g>
    <g id="text_8">
     <!-- −0.2 -->
     <g transform="translate(299.144994 284.816287) scale(0.1 -0.1)">
      <use xlink:href="#DejaVuSans-2212"/>
      <use xlink:href="#DejaVuSans-30" x="83.789062"/>
      <use xlink:href="#DejaVuSans-2e" x="147.412109"/>
      <use xlink:href="#DejaVuSans-32" x="179.199219"/>
     </g>
    </g>
   </g>
   <g id="xtick_8">
    <g id="line2d_10">
     <path d="M 312.942742 247.841548 
L 316.608191 248.968982 
" style="fill: none; stroke: #000000; stroke-width: 0.8; stroke-linecap: square"/>
    </g>
    <g id="text_9">
     <!-- 0.0 -->
     <g transform="translate(318.609453 268.692429) scale(0.1 -0.1)">
      <use xlink:href="#DejaVuSans-30"/>
      <use xlink:href="#DejaVuSans-2e" x="63.623047"/>
      <use xlink:href="#DejaVuSans-30" x="95.410156"/>
     </g>
    </g>
   </g>
   <g id="xtick_9">
    <g id="line2d_11">
     <path d="M 327.916306 232.502514 
L 331.538007 233.592129 
" style="fill: none; stroke: #000000; stroke-width: 0.8; stroke-linecap: square"/>
    </g>
    <g id="text_10">
     <!-- 0.2 -->
     <g transform="translate(333.367149 253.114231) scale(0.1 -0.1)">
      <use xlink:href="#DejaVuSans-30"/>
      <use xlink:href="#DejaVuSans-2e" x="63.623047"/>
      <use xlink:href="#DejaVuSans-32" x="95.410156"/>
     </g>
    </g>
   </g>
   <g id="xtick_10">
    <g id="line2d_12">
     <path d="M 342.392046 217.673455 
L 345.970856 218.727124 
" style="fill: none; stroke: #000000; stroke-width: 0.8; stroke-linecap: square"/>
    </g>
    <g id="text_11">
     <!-- 0.4 -->
     <g transform="translate(347.633727 238.054456) scale(0.1 -0.1)">
      <use xlink:href="#DejaVuSans-30"/>
      <use xlink:href="#DejaVuSans-2e" x="63.623047"/>
      <use xlink:href="#DejaVuSans-34" x="95.410156"/>
     </g>
    </g>
   </g>
   <g id="text_12">
    <!-- z -->
    <g transform="translate(338.508563 278.988697) scale(0.1 -0.1)">
     <defs>
      <path id="DejaVuSans-7a" d="M 353 3500 
L 3084 3500 
L 3084 2975 
L 922 459 
L 3084 459 
L 3084 0 
L 275 0 
L 275 525 
L 2438 3041 
L 353 3041 
L 353 3500 
z
" transform="scale(0.015625)"/>
     </defs>
     <use xlink:href="#DejaVuSans-7a"/>
    </g>
   </g>
  </g>
  <g id="axis3d_3">
   <g id="line2d_13">
    <path d="M 352.090401 209.294766 
L 357.122702 99.402171 
" style="fill: none; stroke: #000000; stroke-width: 0.8; stroke-linecap: square"/>
   </g>
   <g id="xtick_11">
    <g id="line2d_14">
     <path d="M 351.462276 196.691975 
L 355.034024 197.715298 
" style="fill: none; stroke: #000000; stroke-width: 0.8; stroke-linecap: square"/>
    </g>
    <g id="text_13">
     <!-- −0.4 -->
     <g transform="translate(358.848394 202.050217) scale(0.1 -0.1)">
      <use xlink:href="#DejaVuSans-2212"/>
      <use xlink:href="#DejaVuSans-30" x="83.789062"/>
      <use xlink:href="#DejaVuSans-2e" x="147.412109"/>
      <use xlink:href="#DejaVuSans-34" x="179.199219"/>
     </g>
    </g>
   </g>
   <g id="xtick_12">
    <g id="line2d_15">
     <path d="M 352.393813 176.130123 
L 355.996504 177.13721 
" style="fill: none; stroke: #000000; stroke-width: 0.8; stroke-linecap: square"/>
    </g>
    <g id="text_14">
     <!-- −0.2 -->
     <g transform="translate(359.939887 181.523976) scale(0.1 -0.1)">
      <use xlink:href="#DejaVuSans-2212"/>
      <use xlink:href="#DejaVuSans-30" x="83.789062"/>
      <use xlink:href="#DejaVuSans-2e" x="147.412109"/>
      <use xlink:href="#DejaVuSans-32" x="179.199219"/>
     </g>
    </g>
   </g>
   <g id="xtick_13">
    <g id="line2d_16">
     <path d="M 353.341016 155.22245 
L 356.975191 156.212608 
" style="fill: none; stroke: #000000; stroke-width: 0.8; stroke-linecap: square"/>
    </g>
    <g id="text_15">
     <!-- 0.0 -->
     <g transform="translate(365.239531 160.653431) scale(0.1 -0.1)">
      <use xlink:href="#DejaVuSans-30"/>
      <use xlink:href="#DejaVuSans-2e" x="63.623047"/>
      <use xlink:href="#DejaVuSans-30" x="95.410156"/>
     </g>
    </g>
   </g>
   <g id="xtick_14">
    <g id="line2d_17">
     <path d="M 354.304285 133.960157 
L 357.970499 134.932664 
" style="fill: none; stroke: #000000; stroke-width: 0.8; stroke-linecap: square"/>
    </g>
    <g id="text_16">
     <!-- 0.2 -->
     <g transform="translate(366.368105 139.429846) scale(0.1 -0.1)">
      <use xlink:href="#DejaVuSans-30"/>
      <use xlink:href="#DejaVuSans-2e" x="63.623047"/>
      <use xlink:href="#DejaVuSans-32" x="95.410156"/>
     </g>
    </g>
   </g>
   <g id="xtick_15">
    <g id="line2d_18">
     <path d="M 355.284032 112.334145 
L 358.982853 113.288249 
" style="fill: none; stroke: #000000; stroke-width: 0.8; stroke-linecap: square"/>
    </g>
    <g id="text_17">
     <!-- 0.4 -->
     <g transform="translate(367.515933 117.844187) scale(0.1 -0.1)">
      <use xlink:href="#DejaVuSans-30"/>
      <use xlink:href="#DejaVuSans-2e" x="63.623047"/>
      <use xlink:href="#DejaVuSans-34" x="95.410156"/>
     </g>
    </g>
   </g>
   <g id="text_18">
    <!-- p_r -->
    <g transform="translate(387.197542 152.624154) scale(0.1 -0.1)">
     <defs>
      <path id="DejaVuSans-70" d="M 1159 525 
L 1159 -1331 
L 581 -1331 
L 581 3500 
L 1159 3500 
L 1159 2969 
Q 1341 3281 1617 3432 
Q 1894 3584 2278 3584 
Q 2916 3584 3314 3078 
Q 3713 2572 3713 1747 
Q 3713 922 3314 415 
Q 2916 -91 2278 -91 
Q 1894 -91 1617 61 
Q 1341 213 1159 525 
z
M 3116 1747 
Q 3116 2381 2855 2742 
Q 2594 3103 2138 3103 
Q 1681 3103 1420 2742 
Q 1159 2381 1159 1747 
Q 1159 1113 1420 752 
Q 1681 391 2138 391 
Q 2594 391 2855 752 
Q 3116 1113 3116 1747 
z
" transform="scale(0.015625)"/>
      <path id="DejaVuSans-5f" d="M 3263 -1063 
L 3263 -1509 
L -63 -1509 
L -63 -1063 
L 3263 -1063 
z
" transform="scale(0.015625)"/>
     </defs>
     <use xlink:href="#DejaVuSans-70"/>
     <use xlink:href="#DejaVuSans-5f" x="63.476562"/>
     <use xlink:href="#DejaVuSans-72" x="113.476562"/>
    </g>
   </g>
  </g>
  <g id="axes_1">
   <g id="line2d_19">
    <path d="M 244.48517 185.092051 
L 245.199903 183.612749 
L 248.263825 176.621156 
L 251.542032 167.295017 
L 253.059629 159.613431 
L 252.377027 153.613193 
L 249.309656 149.147447 
L 244.505206 145.600698 
L 239.197542 142.432577 
L 233.504106 138.894079 
L 226.125393 133.453248 
L 226.265694 134.583038 
L 228.97288 140.513051 
L 232.519031 149.095974 
L 236.70706 160.332946 
L 241.101185 172.77904 
L 245.69687 185.337009 
L 249.099949 193.326137 
L 252.291493 198.970522 
L 255.424979 202.006918 
L 258.044018 201.867969 
L 260.132372 198.537958 
L 260.8684 193.598891 
L 260.211283 187.813293 
L 257.258244 180.519516 
L 251.160313 172.482768 
L 242.221885 163.627099 
L 233.39326 154.536206 
L 226.417578 145.119013 
L 222.630868 136.864493 
L 221.670124 129.763534 
L 223.38143 125.095057 
L 227.909363 123.260452 
L 235.018705 126.168721 
L 243.573078 134.871541 
L 250.390229 145.532986 
L 256.31063 157.717835 
L 261.839846 171.696814 
L 271.759954 200.18046 
L 273.411815 204.135413 
L 274.129378 205.409015 
L 273.269474 203.88253 
L 270.397143 200.431564 
L 265.82811 196.300133 
L 257.449267 190.171551 
L 245.568782 181.992722 
L 232.916066 171.787951 
L 222.457185 160.089578 
L 215.421344 147.05951 
L 213.324042 137.548071 
L 214.197665 129.353907 
L 218.28017 123.022338 
L 225.941966 120.092213 
L 236.569833 122.427056 
L 248.471834 130.652632 
L 259.169589 142.842939 
L 267.852902 156.648816 
L 274.516012 170.177268 
L 279.797472 183.03212 
L 282.993725 191.840821 
L 285.203942 198.625279 
L 286.378932 203.281848 
L 286.2139 205.92478 
L 283.981784 206.354912 
L 279.527367 205.119173 
L 273.277019 202.993654 
L 262.694844 199.160891 
L 248.636244 193.157199 
L 233.453794 184.395803 
L 220.413731 173.383645 
L 210.977985 160.958443 
L 205.775718 148.16506 
L 204.997227 137.59486 
L 207.698118 129.191839 
L 214.65226 122.924966 
L 225.828335 121.343599 
L 239.892288 125.790211 
L 254.375108 135.519421 
L 267.251921 148.117994 
L 277.475196 160.82464 
L 285.988398 173.330718 
L 291.535591 182.502339 
L 295.701001 190.13252 
L 298.412601 196.027569 
L 299.589638 200.729122 
L 298.388498 203.876739 
L 294.661709 205.604221 
L 288.945937 206.427533 
L 279.015823 206.568717 
L 263.629144 205.117936 
L 248.83195 201.910562 
L 233.35949 196.201679 
L 219.036779 187.891819 
L 205.608839 175.540611 
L 196.490435 160.470174 
L 193.876166 149.108895 
L 195.203064 139.227085 
L 201.130658 131.201598 
L 212.410764 127.30431 
L 227.968027 129.351433 
L 244.731964 136.447467 
L 260.140607 145.854231 
L 272.567845 154.868703 
L 283.695542 163.734604 
L 293.600692 172.163623 
L 302.188483 180.116189 
L 307.641383 186.243275 
L 310.176233 190.823801 
L 310.44878 194.791767 
L 307.835258 199.114915 
L 301.099382 203.604875 
L 292.527479 206.963814 
L 281.529912 209.686247 
L 267.520623 211.427613 
L 249.71599 211.189394 
L 230.001896 207.467799 
L 212.573559 200.268674 
L 196.872134 188.757182 
L 185.839149 174.053333 
L 181.812924 161.723913 
L 182.54132 150.716706 
L 187.94151 142.295138 
L 198.715417 137.230523 
L 214.163142 137.008287 
L 232.609482 141.264943 
L 250.501665 147.691574 
L 269.544864 155.694579 
L 287.485972 163.83767 
L 297.533673 168.909497 
L 305.164706 173.654679 
L 310.481546 178.848629 
L 312.187409 184.822054 
L 309.846401 190.531533 
L 303.87486 196.445721 
L 294.98831 202.003374 
L 281.511168 207.706198 
L 264.041665 212.215743 
L 244.769233 214.106245 
L 226.848057 212.850914 
L 208.678179 207.920214 
L 191.272707 198.026592 
L 178.977726 184.604351 
L 173.901191 172.590321 
L 173.827408 161.432378 
L 178.088987 153.16925 
L 186.779861 147.280851 
L 198.55256 144.714751 
L 215.400943 145.147977 
L 235.421138 148.384895 
L 254.522811 152.588475 
L 274.715815 157.56991 
L 287.956838 161.375948 
L 297.761114 165.107216 
L 305.460578 170.015819 
L 308.758335 176.266031 
L 307.341218 182.251968 
L 302.184793 188.693499 
L 293.232359 195.422218 
L 279.339754 202.457132 
L 261.338261 208.354887 
L 241.764251 211.646764 
L 222.83075 211.749175 
L 203.682152 208.102993 
L 186.001063 199.716451 
L 173.890649 188.058844 
L 169.138514 177.996271 
L 168.993207 168.659062 
L 172.870065 161.622241 
L 180.630341 156.526002 
L 191.365461 153.813642 
L 208.219155 153.027425 
L 228.409956 154.052539 
L 248.542741 155.607759 
L 267.897306 157.295577 
L 282.144808 159.110709 
L 292.985488 161.719873 
L 300.471294 166.040509 
L 302.548117 171.374215 
L 300.052826 177.607992 
L 293.939472 183.85319 
L 283.22469 190.789759 
L 267.445112 197.587575 
L 248.007211 202.707653 
L 227.79931 204.938889 
L 209.655799 204.150635 
L 190.655788 199.697149 
L 176.09306 192.088969 
L 169.067935 184.963762 
L 166.795316 179.242619 
L 167.725375 174.615141 
L 172.438181 170.573654 
L 180.977091 167.930134 
L 194.700853 166.117003 
L 212.946053 164.355369 
L 233.626915 161.785437 
L 255.374247 158.615814 
L 270.339779 156.945138 
L 282.002765 156.953008 
L 289.796991 159.356642 
L 291.896497 163.358603 
L 289.600905 168.568727 
L 283.261103 174.331645 
L 272.626738 180.320478 
L 257.275579 185.830005 
L 241.328796 189.159259 
L 225.647567 190.556796 
L 208.445755 190.128208 
L 191.946367 187.785125 
L 181.174174 185.195532 
L 173.36318 182.833395 
L 173.656301 182.875018 
L 177.910427 183.514595 
L 185.824588 183.310043 
L 195.872091 181.060132 
L 207.909383 176.413043 
L 221.786946 169.690294 
L 237.090411 161.920782 
L 250.872359 155.5663 
L 263.104769 151.211638 
L 272.716303 149.545443 
L 278.350388 150.726159 
L 279.588193 153.857899 
L 277.106999 158.090007 
L 271.426021 162.658938 
L 261.665931 167.556272 
L 250.077686 171.2494 
L 236.588362 173.762084 
L 221.870444 174.95804 
L 207.618977 175.205869 
L 197.405076 175.638781 
L 190.531391 177.325631 
L 186.957227 180.647248 
L 186.233726 185.714468 
L 187.870253 190.15693 
L 191.247929 193.174187 
L 195.636969 193.661647 
L 200.943168 191.650301 
L 206.029718 188.238178 
L 211.846694 183.406125 
L 226.200908 170.272518 
L 236.585902 161.276179 
L 248.049095 152.741117 
L 256.933866 147.573163 
L 263.373181 145.02144 
L 267.546723 144.382655 
L 269.858459 145.159664 
L 270.1691 146.887762 
L 268.206679 149.78841 
L 263.674611 153.200943 
L 255.850584 156.93444 
L 245.566456 160.023277 
L 233.908829 162.08432 
L 221.923074 163.361554 
L 211.897305 164.690856 
L 204.650977 167.304373 
L 200.141567 172.448729 
L 198.618451 179.908327 
L 199.325308 187.619742 
L 201.32569 193.772945 
L 204.084564 197.429228 
L 206.90943 198.405226 
L 210.258005 197.360234 
L 214.319862 194.139468 
L 219.399241 188.499241 
L 233.167898 170.924815 
L 241.774534 160.690681 
L 249.156906 153.022561 
L 254.250848 148.49345 
L 258.159801 145.56925 
L 260.990918 143.928229 
L 262.162796 143.682798 
L 261.056378 144.71637 
L 257.480545 146.520065 
L 251.686229 148.460526 
L 243.917781 150.070109 
L 235.031237 151.037318 
L 225.99821 151.612315 
L 217.898314 152.966836 
L 213.001472 156.825541 
L 211.354426 164.307926 
L 211.940547 172.375015 
L 213.310072 179.615811 
L 215.268456 186.707226 
L 218.126106 193.791765 
L 221.436266 198.461838 
L 224.619313 199.993049 
L 227.929061 199.089355 
L 232.174562 195.156578 
L 237.054621 188.119142 
L 242.165215 179.125722 
L 246.912293 169.939619 
L 251.328969 160.557085 
L 253.768611 153.657366 
L 253.818043 149.113466 
L 251.428943 146.314496 
L 247.668172 144.60711 
L 236.808667 141.115669 
L 230.807023 138.955061 
L 225.903619 137.407898 
L 224.022879 138.537876 
L 224.966888 144.080301 
L 227.500655 152.361035 
L 231.075206 163.401623 
L 234.850159 174.66763 
L 239.187675 186.363049 
L 242.695625 194.000564 
L 245.947904 198.955131 
L 249.38959 201.387695 
L 252.439164 200.638448 
L 255.286453 196.628343 
L 257.13313 190.103748 
L 257.420265 183.410705 
L 255.652313 175.434992 
L 251.454425 168.01829 
L 244.411394 160.105224 
L 236.627005 152.223655 
L 229.962169 144.279814 
L 225.549082 136.713135 
L 223.862104 130.242219 
L 224.837135 126.349154 
L 228.413542 125.305358 
L 234.451091 128.999072 
L 241.944078 138.474738 
L 248.12101 149.864252 
L 253.722788 162.99341 
L 258.844842 177.025774 
L 263.161971 189.466634 
L 265.994622 197.07474 
L 268.183592 201.982703 
L 269.822667 204.473016 
L 270.568475 204.188566 
L 269.644572 201.16504 
L 266.85089 196.820566 
L 261.707327 191.413243 
L 252.446844 183.882875 
L 241.240341 175.152594 
L 229.969485 164.600564 
L 221.194455 152.836312 
L 216.593209 142.104106 
L 215.510176 133.50934 
L 217.085618 126.747516 
L 221.876314 121.705847 
L 229.970833 120.666476 
L 240.464704 125.216281 
L 251.473879 135.387756 
L 259.59226 146.61775 
L 266.356225 158.884447 
L 272.399631 172.538401 
L 277.177824 185.33564 
L 279.961486 193.609063 
L 281.909477 199.872485 
L 282.995844 204.180805 
L 282.791314 206.257552 
L 280.585848 205.953123 
L 259.40601 196.29106 
L 245.844961 189.372395 
L 232.000308 180.175299 
L 219.878323 168.577565 
L 211.283005 155.303818 
L 207.674344 143.616977 
L 208.036834 133.162177 
L 212.070195 125.463947 
L 220.242095 120.904083 
L 232.076603 121.573922 
L 245.875146 128.267413 
L 258.959719 139.384502 
L 270.103988 152.586542 
L 278.818678 165.582979 
L 285.891305 178.07012 
L 290.27404 186.820642 
L 293.43817 193.907769 
L 295.357051 199.314924 
L 295.733632 203.237423 
L 293.791729 205.457205 
L 289.453643 206.216221 
L 283.12225 206.086713 
L 272.398917 204.909684 
L 255.997044 201.493957 
L 241.272438 196.443605 
L 226.803677 188.893683 
L 213.954453 178.767999 
L 203.006244 164.743454 
L 197.928954 151.576691 
L 197.822014 139.582369 
L 202.145384 130.968701 
L 211.538603 125.625829 
L 225.536219 125.891507 
L 241.903279 132.080565 
L 256.882543 141.402261 
L 271.484256 153.061355 
L 282.349787 163.072794 
L 291.580962 172.348509 
L 298.663988 180.023653 
L 304.453499 187.135793 
L 307.821201 193.109627 
L 308.232402 196.970014 
L 306.586721 200.166997 
L 301.82215 203.569171 
L 292.707519 206.880457 
L 281.581565 209.075666 
L 268.055493 210.112182 
L 252.851428 209.409361 
L 234.621648 205.756136 
L 217.731284 198.906713 
L 201.826955 187.746581 
L 190.075668 173.123665 
L 185.255256 160.233571 
L 185.48614 148.60528 
L 190.42825 139.987924 
L 200.868719 134.690779 
L 216.251787 134.591871 
L 232.53061 138.754494 
L 249.376857 145.495725 
L 266.605858 153.767635 
L 283.319443 162.481673 
L 295.904809 169.529132 
L 303.982922 174.76661 
L 309.33442 179.440674 
L 312.34815 184.78209 
L 311.439626 190.721242 
L 307.360811 195.766845 
L 300.379356 200.798405 
L 289.94831 205.859047 
L 275.050104 210.57661 
L 256.66211 213.531483 
L 237.213912 213.449712 
L 218.044735 209.67585 
L 199.695432 201.32151 
L 185.058236 188.668686 
L 176.758374 174.167682 
L 175.108719 163.606645 
L 177.149184 155.020807 
L 183.736562 147.47554 
L 194.728757 143.204767 
L 208.455335 142.489839 
L 227.443643 145.105004 
L 246.951934 149.748287 
L 268.442028 155.776853 
L 283.928914 160.579628 
L 296.586894 165.376867 
L 304.854328 170.095173 
L 309.507944 175.941854 
L 309.10873 182.802016 
L 304.180678 189.613759 
L 296.051877 196.001605 
L 283.090253 202.85996 
L 265.81776 208.838847 
L 248.697088 212.16667 
L 231.216878 213.021739 
L 210.439949 210.179678 
L 191.73833 202.589259 
L 177.804548 191.035612 
L 171.135254 179.75482 
L 169.58568 170.62216 
L 171.452321 163.078868 
L 177.386122 156.379641 
L 186.625494 152.285824 
L 200.349055 150.442666 
L 219.278291 151.059903 
L 239.833691 153.205042 
L 261.662936 155.959316 
L 276.780245 158.208764 
L 289.496351 160.925865 
L 298.990668 164.670952 
L 304.169075 170.120314 
L 303.965058 176.142106 
L 299.262956 182.927271 
L 290.966388 189.575692 
L 277.543642 196.745226 
L 259.621517 202.997342 
L 239.469907 206.830648 
L 220.672088 207.527896 
L 201.222526 204.817332 
L 183.585239 197.950509 
L 171.797459 188.476774 
L 167.421348 180.919553 
L 167.085845 174.084771 
L 170.526397 168.761816 
L 177.927216 164.89567 
L 188.949883 162.673653 
L 205.828399 161.422334 
L 225.8457 160.450772 
L 263.578083 157.984873 
L 278.160413 157.792159 
L 288.706377 159.309686 
L 294.576394 163.141786 
L 294.606139 168.593135 
L 289.703953 174.835386 
L 281.25874 180.827382 
L 267.683727 187.123189 
L 249.925644 192.212294 
L 230.951975 194.851174 
L 213.432182 194.982595 
L 195.617999 192.70189 
L 180.97285 188.513758 
L 173.801528 185.168344 
L 170.513781 182.556361 
L 170.777394 181.037022 
L 174.872888 180.157979 
L 183.718944 179.266707 
L 196.132245 176.975982 
L 210.874763 172.546989 
L 227.556531 166.202485 
L 244.907211 159.349779 
L 259.421911 154.421704 
L 271.481095 151.857612 
L 279.647513 152.265942 
L 282.581663 154.623188 
L 282.213989 158.12438 
L 278.073297 163.039123 
L 270.478601 168.060899 
L 258.556988 173.056575 
L 245.213259 176.470288 
L 230.584974 178.41112 
L 215.05571 178.91853 
L 200.704481 178.518588 
L 191.55351 178.521873 
L 185.647099 179.692244 
L 182.80722 182.344662 
L 182.953566 186.471922 
L 185.414803 189.769061 
L 189.675021 191.541137 
L 195.220813 190.905263 
L 201.839142 187.801471 
L 209.323137 182.676281 
L 217.79772 175.986306 
L 228.108806 167.659888 
L 240.446955 158.431451 
L 251.39238 151.548849 
L 259.264136 147.726977 
L 264.810335 145.898362 
L 268.915632 145.364399 
L 271.787084 146.11297 
L 272.563724 148.02562 
L 271.000168 151.017536 
L 266.76998 154.658888 
L 259.126683 158.743202 
L 248.742592 162.263089 
L 236.6364 164.70585 
L 223.86548 166.118076 
L 211.74054 167.251651 
L 202.527685 169.576748 
L 197.509461 173.789475 
L 195.383653 180.399066 
L 195.777557 187.632977 
L 197.754432 193.492825 
L 200.676483 196.840014 
L 203.711237 197.49427 
L 207.367737 196.096673 
L 211.651748 192.678247 
L 217.184097 186.807821 
L 231.975212 169.361049 
L 240.963359 159.672728 
L 249.249705 152.003348 
L 256.136627 146.836323 
L 260.366874 144.440411 
L 263.184987 143.48009 
L 264.390598 143.788222 
L 263.491469 145.314639 
L 260.025677 147.666248 
L 254.097556 150.215098 
L 245.898859 152.451394 
L 236.364168 153.955722 
L 226.426962 154.888668 
L 217.238784 156.220399 
L 211.085261 159.463984 
L 208.101836 166.011316 
L 207.856061 173.742306 
L 208.89461 181.380051 
L 210.81896 188.867667 
L 213.187326 194.602659 
L 216.201614 198.555044 
L 219.287693 199.724991 
L 222.607398 198.573094 
L 226.952008 194.494337 
L 232.008425 187.603474 
L 237.283169 179.283537 
L 253.54072 152.732795 
L 255.808719 148.078737 
L 255.521848 145.690361 
L 252.821847 144.692624 
L 242.495896 143.757247 
L 235.753595 142.88166 
L 229.111456 141.812724 
L 223.5881 141.635103 
L 221.165256 144.367506 
L 221.538374 150.702879 
L 223.464093 159.135835 
L 226.439751 169.626788 
L 229.834187 180.061417 
L 233.90208 190.312136 
L 237.887839 197.290568 
L 241.226649 200.341691 
L 244.479634 200.650786 
L 247.999882 197.903256 
L 251.35542 191.937736 
L 253.797231 184.128263 
L 254.771082 176.204778 
L 253.759543 168.064663 
L 250.372353 161.025181 
L 244.594003 154.313055 
L 237.986234 147.937385 
L 232.16613 141.793923 
L 227.707757 135.596989 
L 225.682127 130.560296 
L 226.200842 127.952453 
L 229.202378 128.631515 
L 234.506484 134.434154 
L 239.581811 142.944977 
L 244.805898 154.237858 
L 249.976286 167.584132 
L 258.485153 191.254477 
L 261.654777 198.638909 
L 264.149255 202.729815 
L 266.00022 203.877984 
L 266.939712 202.011909 
L 266.388699 198.296232 
L 264.236793 193.514168 
L 259.482565 187.26797 
L 250.786859 179.155566 
L 240.508892 170.375682 
L 230.231979 160.073634 
L 222.372747 148.863525 
L 218.52635 139.145878 
L 217.917836 130.550021 
L 220.231113 124.613427 
L 225.700058 121.318321 
L 234.084685 122.657575 
L 244.171627 129.804376 
L 253.931436 141.85987 
L 261.934146 156.10035 
L 267.957999 169.961391 
L 272.820353 183.283181 
L 278.155626 199.628009 
L 279.464021 204.030726 
L 279.679935 206.087879 
L 278.114892 205.581762 
L 274.969344 203.526297 
L 270.214576 200.61638 
L 247.969428 188.19891 
L 234.050212 178.606722 
L 222.121242 167.052633 
L 213.556989 153.821603 
L 210.006793 142.488008 
L 210.246435 132.357866 
L 213.965399 124.933748 
L 221.594236 120.505451 
L 232.717255 121.141877 
L 245.75945 127.768677 
L 258.204653 139.042171 
L 267.920122 151.421816 
L 275.928549 164.387597 
L 282.551216 177.316275 
L 286.954577 187.199466 
L 290.066337 195.097468 
L 291.749265 200.408298 
L 292.119703 204.147633 
L 290.413843 206.022821 
L 287.128898 206.279469 
L 282.228691 205.743248 
L 273.592568 204.163856 
L 259.79193 200.684101 
L 245.03984 195.350642 
L 230.505866 187.664351 
L 217.698836 177.628827 
L 206.964354 164.32963 
L 201.350917 151.008118 
L 200.548963 139.943059 
L 203.560906 131.193081 
L 211.250607 124.791906 
L 223.559694 123.39307 
L 238.916848 128.133199 
L 254.355303 137.596726 
L 267.865831 149.009218 
L 279.94224 161.410611 
L 288.613428 171.497309 
L 295.61644 180.396097 
L 300.543878 187.309644 
L 304.111938 193.48819 
L 305.315905 198.417748 
L 304.127432 201.43762 
L 301.075684 203.769051 
L 294.650296 206.086777 
L 283.59803 207.965817 
L 270.202964 208.535502 
L 254.613583 207.294474 
L 239.197247 203.90513 
L 223.366621 197.621182 
L 207.564329 187.155336 
L 195.157977 173.077504 
L 189.172527 159.566872 
L 188.583735 147.101166 
L 192.723259 138.227173 
L 202.307884 132.36471 
L 217.048841 131.822824 
L 234.644681 136.685205 
L 249.58143 143.394838 
L 264.057477 151.257118 
L 278.810591 160.096086 
L 292.508953 168.840051 
L 302.040855 175.531167 
L 308.057271 180.737554 
L 311.490838 185.421485 
L 312.21189 190.6287 
L 308.892192 196.267771 
L 303.383198 200.61464 
L 295.455206 204.767987 
L 283.664127 208.960657 
L 267.590535 212.300557 
L 248.478974 213.3198 
L 228.837016 210.873691 
L 211.200041 204.893395 
L 194.295338 193.987622 
L 182.467792 179.785506 
L 177.75939 167.334623 
L 178.040749 155.981134 
L 182.855227 147.491686 
L 192.643164 141.829965 
L 206.576989 140.229544 
L 223.347657 142.327024 
L 242.606277 147.250506 
L 262.614872 153.620402 
L 281.17746 160.096658 
L 292.932897 164.712965 
L 301.587161 168.965879 
L 308.275429 174.117926 
L 311.014761 180.301434 
L 309.366569 186.209345 
L 304.02632 192.464563 
L 295.314204 198.691553 
L 281.849353 205.200598 
L 264.308455 210.614918 
L 245.053456 213.474279 
L 226.629434 213.176466 
L 207.445878 209.041381 
L 189.638668 200.036492 
L 177.008469 187.417982 
L 171.664491 175.976949 
L 171.096434 166.293294 
L 174.353656 158.32915 
L 181.806486 152.135974 
L 192.027949 148.885324 
L 207.709875 148.004189 
L 227.54491 149.791439 
L 247.586698 152.81735 
L 270.828905 156.898552 
L 284.907936 159.942834 
L 295.393846 163.228851 
L 303.342426 167.88016 
L 306.454742 174.107043 
L 304.763869 180.008445 
L 299.407251 186.389438 
L 289.899895 193.319185 
L 275.34127 200.450385 
L 256.754487 206.284014 
L 236.806715 209.402803 
L 217.506926 209.292762 
L 197.900091 205.25269 
L 181.209851 196.89884 
L 170.739752 186.158412 
L 167.444597 178.063207 
L 167.948406 170.794121 
L 172.282176 164.869036 
L 180.357285 160.802791 
L 192.435947 158.552167 
L 210.122979 157.796298 
L 267.3775 157.841019 
L 281.749157 158.677767 
L 292.056003 160.944073 
L 297.800636 165.331609 
L 297.670787 171.281296 
L 292.566899 177.826648 
L 283.821883 184.1446 
L 269.89586 190.777378 
L 251.66935 196.224147 
L 233.727257 198.995337 
L 216.646374 199.43059 
L 197.990196 197.191746 
L 181.798876 192.136889 
L 172.764298 186.953698 
L 169.044327 183.136586 
L 168.235875 179.980845 
L 170.728401 177.355738 
L 177.446835 175.498695 
L 189.105493 173.785091 
L 205.043599 170.968684 
L 223.557254 166.375279 
L 243.497266 160.597611 
L 258.642118 156.528239 
L 271.17761 154.214162 
L 281.125354 154.285169 
L 285.543721 156.535381 
L 285.993558 160.476061 
L 282.220134 165.656438 
L 275.22261 170.736 
L 263.474675 176.18497 
L 250.344264 180.033648 
L 236.896625 182.320507 
L 220.893612 183.309757 
L 204.945339 182.754418 
L 190.966413 181.49257 
L 184.211294 181.155443 
L 180.173116 181.778724 
L 178.639352 183.74393 
L 180.473193 186.697676 
L 184.411255 188.534367 
L 190.06335 188.678626 
L 197.47219 186.456099 
L 206.26133 181.815565 
L 216.426671 175.159979 
L 228.338664 166.922858 
L 242.020745 158.061785 
L 252.184611 152.468893 
L 261.310526 148.606805 
L 268.357675 146.876408 
L 273.289479 147.180726 
L 275.149969 149.317834 
L 273.995017 152.551416 
L 269.648724 156.703736 
L 261.863022 161.140714 
L 251.513126 164.908178 
L 239.040332 167.652885 
L 225.547463 169.201628 
L 212.383647 170.044305 
L 203.303042 171.114406 
L 196.898121 173.418307 
L 192.898466 177.938069 
L 191.796823 184.325308 
L 193.042747 190.55979 
L 195.319571 194.386466 
L 198.514219 196.233406 
L 201.927714 195.897129 
L 206.004419 193.67591 
L 210.570891 189.835247 
L 216.417469 183.886884 
L 223.385498 176.30173 
L 231.509098 167.640518 
L 239.653298 159.670175 
L 249.246728 151.619315 
L 256.964238 146.532486 
L 262.824871 143.950654 
L 265.670189 143.610115 
L 266.684222 144.451492 
L 265.64142 146.503928 
L 261.944241 149.364584 
L 255.521645 152.44874 
L 246.653351 155.153607 
L 236.354063 157.019716 
L 225.574434 158.201893 
L 215.530671 159.632581 
L 208.782279 162.593171 
L 204.969512 168.560408 
L 204.111755 175.939458 
L 204.83913 183.484102 
L 206.364036 189.844017 
L 208.553816 195.094346 
L 211.262576 198.39475 
L 214.200318 199.325658 
L 217.418667 198.155086 
L 221.66576 194.349269 
L 226.402027 188.400458 
L 231.136923 181.646028 
L 237.387023 172.462833 
L 244.389625 162.574255 
L 251.394929 153.526537 
L 256.10093 147.942207 
L 258.21069 145.221498 
L 257.813259 144.396712 
L 254.985529 144.690955 
L 250.411423 145.330728 
L 244.021497 145.848338 
L 236.550488 145.905948 
L 228.937552 145.629434 
L 222.132836 145.992228 
L 218.241397 148.861086 
L 217.488865 155.986578 
L 218.761112 164.276071 
L 220.888828 173.134109 
L 223.59749 182.105611 
L 227.187883 191.252295 
L 230.982791 197.550566 
L 234.246962 200.111331 
L 237.569972 200.086931 
L 241.418775 197.054303 
L 245.517306 190.738818 
L 249.273281 182.248564 
L 251.864997 173.989745 
L 253.197119 165.563152 
L 252.420649 158.640478 
L 249.22451 152.882177 
L 244.14398 148.058467 
L 238.443723 143.634906 
L 232.99382 139.157098 
L 228.800603 134.971677 
L 226.595889 131.979263 
L 226.561372 131.108123 
L 229.007028 134.148993 
L 233.103569 141.589608 
L 237.342301 151.161502 
L 241.643908 162.330994 
L 246.403744 175.629564 
L 250.982992 188.034214 
L 254.328154 195.723776 
L 257.217442 200.585085 
L 259.886971 202.828065 
L 262.035183 201.975816 
L 263.139901 198.05674 
L 262.541686 192.443114 
L 260.024394 186.263511 
L 254.257211 178.530358 
L 235.535992 160.470151 
L 227.268792 150.467327 
L 221.749367 139.970668 
L 220.167261 132.549074 
L 220.966606 126.920035 
L 224.520351 122.967342 
L 231.004036 122.857899 
L 239.672204 128.215887 
L 247.8258 137.604531 
L 255.20502 149.904859 
L 261.293908 163.18229 
L 266.570566 177.131877 
L 276.148805 205.134976 
L 276.06131 205.615557 
L 274.053355 203.551035 
L 270.155112 200.155008 
L 263.780214 195.60486 
L 252.916104 188.714393 
L 240.402072 180.231155 
L 228.089469 169.534835 
L 218.422163 157.149674 
L 213.205167 145.408982 
L 211.894179 136.109964 
L 213.322731 128.641553 
L 218.16241 122.431238 
L 226.67844 119.984531 
L 238.07425 123.05047 
L 250.454101 131.929604 
L 261.103358 144.050624 
L 269.495744 157.004551 
L 276.39354 170.382491 
L 281.85544 183.031214 
L 285.086695 191.518235 
L 287.317791 198.113826 
L 288.516288 202.849209 
L 288.287739 205.668353 
L 285.900299 206.393899 
L 281.279827 205.539173 
L 274.726785 203.772274 
L 263.730451 200.379956 
L 249.007483 194.707922 
L 233.112564 186.085079 
L 219.813788 175.340569 
L 210.015616 163.016965 
L 204.338192 149.870759 
L 203.316306 139.117126 
L 205.810223 130.540023 
L 212.655149 123.906822 
L 223.925413 121.902792 
L 238.311039 125.942959 
L 253.323114 135.317212 
L 266.231323 146.976651 
L 277.296146 159.535699 
L 286.556121 171.871929 
L 292.415956 180.580587 
L 296.937365 187.949889 
L 300.174951 194.098828 
L 301.788869 199.140758 
L 300.918358 202.720004 
L 297.505577 204.923992 
L 291.874272 206.300895 
L 282.004165 207.150025 
L 266.7929 206.631528 
L 252.623113 204.447588 
L 237.605754 200.080467 
L 222.581685 192.93284 
L 207.904767 181.748718 
L 196.805225 167.243962 
L 192.170572 154.326285 
L 192.468102 142.729605 
L 197.401672 134.177157 
L 207.75561 129.189201 
L 222.911982 129.899873 
L 240.093119 135.969099 
L 256.00501 144.561872 
L 269.313572 153.193523 
L 280.940917 161.46593 
L 292.45405 170.18417 
L 302.224975 178.250646 
L 307.727924 183.747705 
L 310.863175 188.600699 
L 311.378618 193.126008 
L 308.510192 198.011548 
L 301.336918 203.014842 
L 291.185326 207.190931 
L 279.423559 210.229534 
L 263.411538 212.240623 
L 244.273569 211.720416 
L 224.458693 207.426901 
L 207.273476 199.546589 
L 191.961247 186.964353 
L 182.452034 172.063518 
L 179.842825 160.888555 
L 181.30104 151.091924 
L 187.430919 143.021066 
L 198.768614 138.482837 
L 214.404865 138.541374 
L 232.950634 142.659999 
L 251.074276 148.718137 
L 270.931976 156.385367 
L 287.076419 163.115837 
L 287.076419 163.115837 
" clip-path="url(#p22082157c0)" style="fill: none; stroke: #1f77b4; stroke-width: 0.5; stroke-linecap: square"/>
   </g>
   <g id="text_19">
    <!-- Projection onto r-z-p_r space with initial r = 0.03 -->
    <g transform="translate(91.219688 35.472) scale(0.12 -0.12)">
     <defs>
      <path id="DejaVuSans-50" d="M 1259 4147 
L 1259 2394 
L 2053 2394 
Q 2494 2394 2734 2622 
Q 2975 2850 2975 3272 
Q 2975 3691 2734 3919 
Q 2494 4147 2053 4147 
L 1259 4147 
z
M 628 4666 
L 2053 4666 
Q 2838 4666 3239 4311 
Q 3641 3956 3641 3272 
Q 3641 2581 3239 2228 
Q 2838 1875 2053 1875 
L 1259 1875 
L 1259 0 
L 628 0 
L 628 4666 
z
" transform="scale(0.015625)"/>
      <path id="DejaVuSans-6f" d="M 1959 3097 
Q 1497 3097 1228 2736 
Q 959 2375 959 1747 
Q 959 1119 1226 758 
Q 1494 397 1959 397 
Q 2419 397 2687 759 
Q 2956 1122 2956 1747 
Q 2956 2369 2687 2733 
Q 2419 3097 1959 3097 
z
M 1959 3584 
Q 2709 3584 3137 3096 
Q 3566 2609 3566 1747 
Q 3566 888 3137 398 
Q 2709 -91 1959 -91 
Q 1206 -91 779 398 
Q 353 888 353 1747 
Q 353 2609 779 3096 
Q 1206 3584 1959 3584 
z
" transform="scale(0.015625)"/>
      <path id="DejaVuSans-6a" d="M 603 3500 
L 1178 3500 
L 1178 -63 
Q 1178 -731 923 -1031 
Q 669 -1331 103 -1331 
L -116 -1331 
L -116 -844 
L 38 -844 
Q 366 -844 484 -692 
Q 603 -541 603 -63 
L 603 3500 
z
M 603 4863 
L 1178 4863 
L 1178 4134 
L 603 4134 
L 603 4863 
z
" transform="scale(0.015625)"/>
      <path id="DejaVuSans-65" d="M 3597 1894 
L 3597 1613 
L 953 1613 
Q 991 1019 1311 708 
Q 1631 397 2203 397 
Q 2534 397 2845 478 
Q 3156 559 3463 722 
L 3463 178 
Q 3153 47 2828 -22 
Q 2503 -91 2169 -91 
Q 1331 -91 842 396 
Q 353 884 353 1716 
Q 353 2575 817 3079 
Q 1281 3584 2069 3584 
Q 2775 3584 3186 3129 
Q 3597 2675 3597 1894 
z
M 3022 2063 
Q 3016 2534 2758 2815 
Q 2500 3097 2075 3097 
Q 1594 3097 1305 2825 
Q 1016 2553 972 2059 
L 3022 2063 
z
" transform="scale(0.015625)"/>
      <path id="DejaVuSans-63" d="M 3122 3366 
L 3122 2828 
Q 2878 2963 2633 3030 
Q 2388 3097 2138 3097 
Q 1578 3097 1268 2742 
Q 959 2388 959 1747 
Q 959 1106 1268 751 
Q 1578 397 2138 397 
Q 2388 397 2633 464 
Q 2878 531 3122 666 
L 3122 134 
Q 2881 22 2623 -34 
Q 2366 -91 2075 -91 
Q 1284 -91 818 406 
Q 353 903 353 1747 
Q 353 2603 823 3093 
Q 1294 3584 2113 3584 
Q 2378 3584 2631 3529 
Q 2884 3475 3122 3366 
z
" transform="scale(0.015625)"/>
      <path id="DejaVuSans-74" d="M 1172 4494 
L 1172 3500 
L 2356 3500 
L 2356 3053 
L 1172 3053 
L 1172 1153 
Q 1172 725 1289 603 
Q 1406 481 1766 481 
L 2356 481 
L 2356 0 
L 1766 0 
Q 1100 0 847 248 
Q 594 497 594 1153 
L 594 3053 
L 172 3053 
L 172 3500 
L 594 3500 
L 594 4494 
L 1172 4494 
z
" transform="scale(0.015625)"/>
      <path id="DejaVuSans-69" d="M 603 3500 
L 1178 3500 
L 1178 0 
L 603 0 
L 603 3500 
z
M 603 4863 
L 1178 4863 
L 1178 4134 
L 603 4134 
L 603 4863 
z
" transform="scale(0.015625)"/>
      <path id="DejaVuSans-6e" d="M 3513 2113 
L 3513 0 
L 2938 0 
L 2938 2094 
Q 2938 2591 2744 2837 
Q 2550 3084 2163 3084 
Q 1697 3084 1428 2787 
Q 1159 2491 1159 1978 
L 1159 0 
L 581 0 
L 581 3500 
L 1159 3500 
L 1159 2956 
Q 1366 3272 1645 3428 
Q 1925 3584 2291 3584 
Q 2894 3584 3203 3211 
Q 3513 2838 3513 2113 
z
" transform="scale(0.015625)"/>
      <path id="DejaVuSans-20" transform="scale(0.015625)"/>
      <path id="DejaVuSans-2d" d="M 313 2009 
L 1997 2009 
L 1997 1497 
L 313 1497 
L 313 2009 
z
" transform="scale(0.015625)"/>
      <path id="DejaVuSans-73" d="M 2834 3397 
L 2834 2853 
Q 2591 2978 2328 3040 
Q 2066 3103 1784 3103 
Q 1356 3103 1142 2972 
Q 928 2841 928 2578 
Q 928 2378 1081 2264 
Q 1234 2150 1697 2047 
L 1894 2003 
Q 2506 1872 2764 1633 
Q 3022 1394 3022 966 
Q 3022 478 2636 193 
Q 2250 -91 1575 -91 
Q 1294 -91 989 -36 
Q 684 19 347 128 
L 347 722 
Q 666 556 975 473 
Q 1284 391 1588 391 
Q 1994 391 2212 530 
Q 2431 669 2431 922 
Q 2431 1156 2273 1281 
Q 2116 1406 1581 1522 
L 1381 1569 
Q 847 1681 609 1914 
Q 372 2147 372 2553 
Q 372 3047 722 3315 
Q 1072 3584 1716 3584 
Q 2034 3584 2315 3537 
Q 2597 3491 2834 3397 
z
" transform="scale(0.015625)"/>
      <path id="DejaVuSans-61" d="M 2194 1759 
Q 1497 1759 1228 1600 
Q 959 1441 959 1056 
Q 959 750 1161 570 
Q 1363 391 1709 391 
Q 2188 391 2477 730 
Q 2766 1069 2766 1631 
L 2766 1759 
L 2194 1759 
z
M 3341 1997 
L 3341 0 
L 2766 0 
L 2766 531 
Q 2569 213 2275 61 
Q 1981 -91 1556 -91 
Q 1019 -91 701 211 
Q 384 513 384 1019 
Q 384 1609 779 1909 
Q 1175 2209 1959 2209 
L 2766 2209 
L 2766 2266 
Q 2766 2663 2505 2880 
Q 2244 3097 1772 3097 
Q 1472 3097 1187 3025 
Q 903 2953 641 2809 
L 641 3341 
Q 956 3463 1253 3523 
Q 1550 3584 1831 3584 
Q 2591 3584 2966 3190 
Q 3341 2797 3341 1997 
z
" transform="scale(0.015625)"/>
      <path id="DejaVuSans-77" d="M 269 3500 
L 844 3500 
L 1563 769 
L 2278 3500 
L 2956 3500 
L 3675 769 
L 4391 3500 
L 4966 3500 
L 4050 0 
L 3372 0 
L 2619 2869 
L 1863 0 
L 1184 0 
L 269 3500 
z
" transform="scale(0.015625)"/>
      <path id="DejaVuSans-68" d="M 3513 2113 
L 3513 0 
L 2938 0 
L 2938 2094 
Q 2938 2591 2744 2837 
Q 2550 3084 2163 3084 
Q 1697 3084 1428 2787 
Q 1159 2491 1159 1978 
L 1159 0 
L 581 0 
L 581 4863 
L 1159 4863 
L 1159 2956 
Q 1366 3272 1645 3428 
Q 1925 3584 2291 3584 
Q 2894 3584 3203 3211 
Q 3513 2838 3513 2113 
z
" transform="scale(0.015625)"/>
      <path id="DejaVuSans-6c" d="M 603 4863 
L 1178 4863 
L 1178 0 
L 603 0 
L 603 4863 
z
" transform="scale(0.015625)"/>
      <path id="DejaVuSans-3d" d="M 678 2906 
L 4684 2906 
L 4684 2381 
L 678 2381 
L 678 2906 
z
M 678 1631 
L 4684 1631 
L 4684 1100 
L 678 1100 
L 678 1631 
z
" transform="scale(0.015625)"/>
      <path id="DejaVuSans-33" d="M 2597 2516 
Q 3050 2419 3304 2112 
Q 3559 1806 3559 1356 
Q 3559 666 3084 287 
Q 2609 -91 1734 -91 
Q 1441 -91 1130 -33 
Q 819 25 488 141 
L 488 750 
Q 750 597 1062 519 
Q 1375 441 1716 441 
Q 2309 441 2620 675 
Q 2931 909 2931 1356 
Q 2931 1769 2642 2001 
Q 2353 2234 1838 2234 
L 1294 2234 
L 1294 2753 
L 1863 2753 
Q 2328 2753 2575 2939 
Q 2822 3125 2822 3475 
Q 2822 3834 2567 4026 
Q 2313 4219 1838 4219 
Q 1578 4219 1281 4162 
Q 984 4106 628 3988 
L 628 4550 
Q 988 4650 1302 4700 
Q 1616 4750 1894 4750 
Q 2613 4750 3031 4423 
Q 3450 4097 3450 3541 
Q 3450 3153 3228 2886 
Q 3006 2619 2597 2516 
z
" transform="scale(0.015625)"/>
     </defs>
     <use xlink:href="#DejaVuSans-50"/>
     <use xlink:href="#DejaVuSans-72" x="58.552734"/>
     <use xlink:href="#DejaVuSans-6f" x="97.416016"/>
     <use xlink:href="#DejaVuSans-6a" x="158.597656"/>
     <use xlink:href="#DejaVuSans-65" x="186.380859"/>
     <use xlink:href="#DejaVuSans-63" x="247.904297"/>
     <use xlink:href="#DejaVuSans-74" x="302.884766"/>
     <use xlink:href="#DejaVuSans-69" x="342.09375"/>
     <use xlink:href="#DejaVuSans-6f" x="369.876953"/>
     <use xlink:href="#DejaVuSans-6e" x="431.058594"/>
     <use xlink:href="#DejaVuSans-20" x="494.4375"/>
     <use xlink:href="#DejaVuSans-6f" x="526.224609"/>
     <use xlink:href="#DejaVuSans-6e" x="587.40625"/>
     <use xlink:href="#DejaVuSans-74" x="650.785156"/>
     <use xlink:href="#DejaVuSans-6f" x="689.994141"/>
     <use xlink:href="#DejaVuSans-20" x="751.175781"/>
     <use xlink:href="#DejaVuSans-72" x="782.962891"/>
     <use xlink:href="#DejaVuSans-2d" x="817.701172"/>
     <use xlink:href="#DejaVuSans-7a" x="853.785156"/>
     <use xlink:href="#DejaVuSans-2d" x="906.275391"/>
     <use xlink:href="#DejaVuSans-70" x="942.359375"/>
     <use xlink:href="#DejaVuSans-5f" x="1005.835938"/>
     <use xlink:href="#DejaVuSans-72" x="1055.835938"/>
     <use xlink:href="#DejaVuSans-20" x="1096.949219"/>
     <use xlink:href="#DejaVuSans-73" x="1128.736328"/>
     <use xlink:href="#DejaVuSans-70" x="1180.835938"/>
     <use xlink:href="#DejaVuSans-61" x="1244.3125"/>
     <use xlink:href="#DejaVuSans-63" x="1305.591797"/>
     <use xlink:href="#DejaVuSans-65" x="1360.572266"/>
     <use xlink:href="#DejaVuSans-20" x="1422.095703"/>
     <use xlink:href="#DejaVuSans-77" x="1453.882812"/>
     <use xlink:href="#DejaVuSans-69" x="1535.669922"/>
     <use xlink:href="#DejaVuSans-74" x="1563.453125"/>
     <use xlink:href="#DejaVuSans-68" x="1602.662109"/>
     <use xlink:href="#DejaVuSans-20" x="1666.041016"/>
     <use xlink:href="#DejaVuSans-69" x="1697.828125"/>
     <use xlink:href="#DejaVuSans-6e" x="1725.611328"/>
     <use xlink:href="#DejaVuSans-69" x="1788.990234"/>
     <use xlink:href="#DejaVuSans-74" x="1816.773438"/>
     <use xlink:href="#DejaVuSans-69" x="1855.982422"/>
     <use xlink:href="#DejaVuSans-61" x="1883.765625"/>
     <use xlink:href="#DejaVuSans-6c" x="1945.044922"/>
     <use xlink:href="#DejaVuSans-20" x="1972.828125"/>
     <use xlink:href="#DejaVuSans-72" x="2004.615234"/>
     <use xlink:href="#DejaVuSans-20" x="2045.728516"/>
     <use xlink:href="#DejaVuSans-3d" x="2077.515625"/>
     <use xlink:href="#DejaVuSans-20" x="2161.304688"/>
     <use xlink:href="#DejaVuSans-30" x="2193.091797"/>
     <use xlink:href="#DejaVuSans-2e" x="2256.714844"/>
     <use xlink:href="#DejaVuSans-30" x="2288.501953"/>
     <use xlink:href="#DejaVuSans-33" x="2352.125"/>
    </g>
   </g>
  </g>
 </g>
 <defs>
  <clipPath id="p22082157c0">
   <rect x="103.104" y="41.472" width="266.112" height="266.112"/>
  </clipPath>
 </defs>
</svg>
