<?xml version="1.0" encoding="utf-8" standalone="no"?>
<!DOCTYPE svg PUBLIC "-//W3C//DTD SVG 1.1//EN"
  "http://www.w3.org/Graphics/SVG/1.1/DTD/svg11.dtd">
<svg xmlns:xlink="http://www.w3.org/1999/xlink" width="460.8pt" height="345.6pt" viewBox="0 0 460.8 345.6" xmlns="http://www.w3.org/2000/svg" version="1.1">
 <metadata>
  <rdf:RDF xmlns:dc="http://purl.org/dc/elements/1.1/" xmlns:cc="http://creativecommons.org/ns#" xmlns:rdf="http://www.w3.org/1999/02/22-rdf-syntax-ns#">
   <cc:Work>
    <dc:type rdf:resource="http://purl.org/dc/dcmitype/StillImage"/>
    <dc:date>2023-10-23T21:33:13.272801</dc:date>
    <dc:format>image/svg+xml</dc:format>
    <dc:creator>
     <cc:Agent>
      <dc:title>Matplotlib v3.8.0, https://matplotlib.org/</dc:title>
     </cc:Agent>
    </dc:creator>
   </cc:Work>
  </rdf:RDF>
 </metadata>
 <defs>
  <style type="text/css">*{stroke-linejoin: round; stroke-linecap: butt}</style>
 </defs>
 <g id="figure_1">
  <g id="patch_1">
   <path d="M 0 345.6 
L 460.8 345.6 
L 460.8 0 
L 0 0 
z
" style="fill: #ffffff"/>
  </g>
  <g id="axes_1">
   <g id="patch_2">
    <path d="M 57.6 307.584 
L 414.72 307.584 
L 414.72 41.472 
L 57.6 41.472 
z
" style="fill: #ffffff"/>
   </g>
   <g id="matplotlib.axis_1">
    <g id="xtick_1">
     <g id="line2d_1">
      <defs>
       <path id="m866a2b37d3" d="M 0 0 
L 0 3.5 
" style="stroke: #000000; stroke-width: 0.8"/>
      </defs>
      <g>
       <use xlink:href="#m866a2b37d3" x="93.312" y="307.584" style="stroke: #000000; stroke-width: 0.8"/>
      </g>
     </g>
     <g id="text_1">
      <!-- −0.4 -->
      <g transform="translate(81.170594 322.182437) scale(0.1 -0.1)">
       <defs>
        <path id="DejaVuSans-2212" d="M 678 2272 
L 4684 2272 
L 4684 1741 
L 678 1741 
L 678 2272 
z
" transform="scale(0.015625)"/>
        <path id="DejaVuSans-30" d="M 2034 4250 
Q 1547 4250 1301 3770 
Q 1056 3291 1056 2328 
Q 1056 1369 1301 889 
Q 1547 409 2034 409 
Q 2525 409 2770 889 
Q 3016 1369 3016 2328 
Q 3016 3291 2770 3770 
Q 2525 4250 2034 4250 
z
M 2034 4750 
Q 2819 4750 3233 4129 
Q 3647 3509 3647 2328 
Q 3647 1150 3233 529 
Q 2819 -91 2034 -91 
Q 1250 -91 836 529 
Q 422 1150 422 2328 
Q 422 3509 836 4129 
Q 1250 4750 2034 4750 
z
" transform="scale(0.015625)"/>
        <path id="DejaVuSans-2e" d="M 684 794 
L 1344 794 
L 1344 0 
L 684 0 
L 684 794 
z
" transform="scale(0.015625)"/>
        <path id="DejaVuSans-34" d="M 2419 4116 
L 825 1625 
L 2419 1625 
L 2419 4116 
z
M 2253 4666 
L 3047 4666 
L 3047 1625 
L 3713 1625 
L 3713 1100 
L 3047 1100 
L 3047 0 
L 2419 0 
L 2419 1100 
L 313 1100 
L 313 1709 
L 2253 4666 
z
" transform="scale(0.015625)"/>
       </defs>
       <use xlink:href="#DejaVuSans-2212"/>
       <use xlink:href="#DejaVuSans-30" x="83.789062"/>
       <use xlink:href="#DejaVuSans-2e" x="147.412109"/>
       <use xlink:href="#DejaVuSans-34" x="179.199219"/>
      </g>
     </g>
    </g>
    <g id="xtick_2">
     <g id="line2d_2">
      <g>
       <use xlink:href="#m866a2b37d3" x="164.736" y="307.584" style="stroke: #000000; stroke-width: 0.8"/>
      </g>
     </g>
     <g id="text_2">
      <!-- −0.2 -->
      <g transform="translate(152.594594 322.182437) scale(0.1 -0.1)">
       <defs>
        <path id="DejaVuSans-32" d="M 1228 531 
L 3431 531 
L 3431 0 
L 469 0 
L 469 531 
Q 828 903 1448 1529 
Q 2069 2156 2228 2338 
Q 2531 2678 2651 2914 
Q 2772 3150 2772 3378 
Q 2772 3750 2511 3984 
Q 2250 4219 1831 4219 
Q 1534 4219 1204 4116 
Q 875 4013 500 3803 
L 500 4441 
Q 881 4594 1212 4672 
Q 1544 4750 1819 4750 
Q 2544 4750 2975 4387 
Q 3406 4025 3406 3419 
Q 3406 3131 3298 2873 
Q 3191 2616 2906 2266 
Q 2828 2175 2409 1742 
Q 1991 1309 1228 531 
z
" transform="scale(0.015625)"/>
       </defs>
       <use xlink:href="#DejaVuSans-2212"/>
       <use xlink:href="#DejaVuSans-30" x="83.789062"/>
       <use xlink:href="#DejaVuSans-2e" x="147.412109"/>
       <use xlink:href="#DejaVuSans-32" x="179.199219"/>
      </g>
     </g>
    </g>
    <g id="xtick_3">
     <g id="line2d_3">
      <g>
       <use xlink:href="#m866a2b37d3" x="236.16" y="307.584" style="stroke: #000000; stroke-width: 0.8"/>
      </g>
     </g>
     <g id="text_3">
      <!-- 0.0 -->
      <g transform="translate(228.208438 322.182437) scale(0.1 -0.1)">
       <use xlink:href="#DejaVuSans-30"/>
       <use xlink:href="#DejaVuSans-2e" x="63.623047"/>
       <use xlink:href="#DejaVuSans-30" x="95.410156"/>
      </g>
     </g>
    </g>
    <g id="xtick_4">
     <g id="line2d_4">
      <g>
       <use xlink:href="#m866a2b37d3" x="307.584" y="307.584" style="stroke: #000000; stroke-width: 0.8"/>
      </g>
     </g>
     <g id="text_4">
      <!-- 0.2 -->
      <g transform="translate(299.632437 322.182437) scale(0.1 -0.1)">
       <use xlink:href="#DejaVuSans-30"/>
       <use xlink:href="#DejaVuSans-2e" x="63.623047"/>
       <use xlink:href="#DejaVuSans-32" x="95.410156"/>
      </g>
     </g>
    </g>
    <g id="xtick_5">
     <g id="line2d_5">
      <g>
       <use xlink:href="#m866a2b37d3" x="379.008" y="307.584" style="stroke: #000000; stroke-width: 0.8"/>
      </g>
     </g>
     <g id="text_5">
      <!-- 0.4 -->
      <g transform="translate(371.056437 322.182437) scale(0.1 -0.1)">
       <use xlink:href="#DejaVuSans-30"/>
       <use xlink:href="#DejaVuSans-2e" x="63.623047"/>
       <use xlink:href="#DejaVuSans-34" x="95.410156"/>
      </g>
     </g>
    </g>
    <g id="text_6">
     <!-- r -->
     <g transform="translate(234.104531 335.860562) scale(0.1 -0.1)">
      <defs>
       <path id="DejaVuSans-72" d="M 2631 2963 
Q 2534 3019 2420 3045 
Q 2306 3072 2169 3072 
Q 1681 3072 1420 2755 
Q 1159 2438 1159 1844 
L 1159 0 
L 581 0 
L 581 3500 
L 1159 3500 
L 1159 2956 
Q 1341 3275 1631 3429 
Q 1922 3584 2338 3584 
Q 2397 3584 2469 3576 
Q 2541 3569 2628 3553 
L 2631 2963 
z
" transform="scale(0.015625)"/>
      </defs>
      <use xlink:href="#DejaVuSans-72"/>
     </g>
    </g>
   </g>
   <g id="matplotlib.axis_2">
    <g id="ytick_1">
     <g id="line2d_6">
      <defs>
       <path id="m3a0d5350a1" d="M 0 0 
L -3.5 0 
" style="stroke: #000000; stroke-width: 0.8"/>
      </defs>
      <g>
       <use xlink:href="#m3a0d5350a1" x="57.6" y="280.9728" style="stroke: #000000; stroke-width: 0.8"/>
      </g>
     </g>
     <g id="text_7">
      <!-- −0.4 -->
      <g transform="translate(26.317187 284.772019) scale(0.1 -0.1)">
       <use xlink:href="#DejaVuSans-2212"/>
       <use xlink:href="#DejaVuSans-30" x="83.789062"/>
       <use xlink:href="#DejaVuSans-2e" x="147.412109"/>
       <use xlink:href="#DejaVuSans-34" x="179.199219"/>
      </g>
     </g>
    </g>
    <g id="ytick_2">
     <g id="line2d_7">
      <g>
       <use xlink:href="#m3a0d5350a1" x="57.6" y="227.7504" style="stroke: #000000; stroke-width: 0.8"/>
      </g>
     </g>
     <g id="text_8">
      <!-- −0.2 -->
      <g transform="translate(26.317187 231.549619) scale(0.1 -0.1)">
       <use xlink:href="#DejaVuSans-2212"/>
       <use xlink:href="#DejaVuSans-30" x="83.789062"/>
       <use xlink:href="#DejaVuSans-2e" x="147.412109"/>
       <use xlink:href="#DejaVuSans-32" x="179.199219"/>
      </g>
     </g>
    </g>
    <g id="ytick_3">
     <g id="line2d_8">
      <g>
       <use xlink:href="#m3a0d5350a1" x="57.6" y="174.528" style="stroke: #000000; stroke-width: 0.8"/>
      </g>
     </g>
     <g id="text_9">
      <!-- 0.0 -->
      <g transform="translate(34.696875 178.327219) scale(0.1 -0.1)">
       <use xlink:href="#DejaVuSans-30"/>
       <use xlink:href="#DejaVuSans-2e" x="63.623047"/>
       <use xlink:href="#DejaVuSans-30" x="95.410156"/>
      </g>
     </g>
    </g>
    <g id="ytick_4">
     <g id="line2d_9">
      <g>
       <use xlink:href="#m3a0d5350a1" x="57.6" y="121.3056" style="stroke: #000000; stroke-width: 0.8"/>
      </g>
     </g>
     <g id="text_10">
      <!-- 0.2 -->
      <g transform="translate(34.696875 125.104819) scale(0.1 -0.1)">
       <use xlink:href="#DejaVuSans-30"/>
       <use xlink:href="#DejaVuSans-2e" x="63.623047"/>
       <use xlink:href="#DejaVuSans-32" x="95.410156"/>
      </g>
     </g>
    </g>
    <g id="ytick_5">
     <g id="line2d_10">
      <g>
       <use xlink:href="#m3a0d5350a1" x="57.6" y="68.0832" style="stroke: #000000; stroke-width: 0.8"/>
      </g>
     </g>
     <g id="text_11">
      <!-- 0.4 -->
      <g transform="translate(34.696875 71.882419) scale(0.1 -0.1)">
       <use xlink:href="#DejaVuSans-30"/>
       <use xlink:href="#DejaVuSans-2e" x="63.623047"/>
       <use xlink:href="#DejaVuSans-34" x="95.410156"/>
      </g>
     </g>
    </g>
    <g id="text_12">
     <!-- z -->
     <g transform="translate(20.2375 177.152219) rotate(-90) scale(0.1 -0.1)">
      <defs>
       <path id="DejaVuSans-7a" d="M 353 3500 
L 3084 3500 
L 3084 2975 
L 922 459 
L 3084 459 
L 3084 0 
L 275 0 
L 275 525 
L 2438 3041 
L 353 3041 
L 353 3500 
z
" transform="scale(0.015625)"/>
      </defs>
      <use xlink:href="#DejaVuSans-7a"/>
     </g>
    </g>
   </g>
   <g id="line2d_11">
    <path d="M 188.544 174.528 
L 186.493846 169.409219 
L 178.172063 141.954518 
L 174.736266 112.573278 
L 176.916148 87.605665 
L 182.092868 69.767288 
L 187.72421 59.329288 
L 191.892732 56.244294 
L 194.683231 59.185243 
L 196.032659 67.13164 
L 196.540975 76.801051 
L 196.905859 89.180984 
L 197.462281 102.956151 
L 198.866241 121.866758 
L 202.295974 147.595687 
L 209.497468 180.791718 
L 220.844675 217.3001 
L 229.852029 241.080224 
L 241.46202 269.649054 
L 244.116358 277.395961 
L 244.177396 280.477769 
L 241.713641 279.126722 
L 235.947563 272.336564 
L 226.787425 259.041126 
L 215.980529 240.705729 
L 204.262954 216.70641 
L 193.695271 187.744872 
L 186.684924 154.674484 
L 185.539845 119.922815 
L 189.352602 92.668162 
L 195.349547 71.712522 
L 199.717463 61.250821 
L 202.118117 57.546047 
L 202.768952 58.598637 
L 202.176979 63.432171 
L 198.279677 84.675509 
L 195.862477 102.256432 
L 194.417646 124.172625 
L 195.10651 149.608504 
L 199.280407 179.859858 
L 209.229931 217.143149 
L 219.198573 243.544617 
L 227.556474 262.297623 
L 236.348321 280.473139 
L 237.302823 282.80034 
L 236.253827 281.437151 
L 232.774265 275.639863 
L 226.30571 263.809951 
L 217.626171 246.078987 
L 208.009832 222.848663 
L 199.17182 194.720631 
L 193.078709 162.274681 
L 191.691058 127.86542 
L 195.173167 95.750977 
L 199.561074 75.806191 
L 204.386928 58.644881 
L 204.392225 57.929234 
L 203.337803 60.275459 
L 200.872012 66.899815 
L 197.157498 78.726015 
L 193.063338 95.771236 
L 189.906152 117.689364 
L 189.245075 144.293394 
L 192.566869 174.043826 
L 203.090921 212.939969 
L 214.659228 240.809259 
L 224.906152 260.707086 
L 232.447858 273.4217 
L 236.858905 279.929663 
L 239.023334 282.223632 
L 238.730554 280.080454 
L 236.097663 273.682413 
L 230.785576 261.717702 
L 223.617689 244.984667 
L 215.060287 222.655016 
L 206.551963 195.328944 
L 199.759534 163.645192 
L 196.420001 130.091791 
L 196.782981 99.689647 
L 198.435429 80.341922 
L 199.742725 67.906234 
L 200.16874 60.910317 
L 199.634704 57.393645 
L 197.975646 57.455423 
L 194.986953 61.649706 
L 190.719944 71.028763 
L 186.084076 85.713463 
L 182.436182 105.481826 
L 181.47015 130.294073 
L 185.034516 159.234604 
L 197.168942 198.16912 
L 212.035435 228.614368 
L 225.75762 250.770773 
L 236.231944 265.109408 
L 244.477821 274.540604 
L 249.502529 278.292251 
L 251.047561 275.852225 
L 248.948312 267.734073 
L 243.775634 253.971584 
L 235.739554 233.867457 
L 227.182954 211.589674 
L 218.448429 186.427458 
L 209.530865 155.948765 
L 202.31112 124.211051 
L 197.267993 95.248942 
L 194.057467 76.078443 
L 190.757844 63.06621 
L 186.959635 56.895166 
L 182.3594 56.42286 
L 177.41733 61.077014 
L 172.482579 70.99529 
L 168.875841 86.174485 
L 168.328412 106.481123 
L 172.69339 131.289024 
L 186.969431 167.232512 
L 207.082994 200.533717 
L 227.026904 226.818332 
L 242.617463 244.510078 
L 256.19563 257.887409 
L 268.240919 267.121949 
L 274.907463 268.781228 
L 276.682893 263.370129 
L 274.006522 251.865139 
L 267.361004 234.217047 
L 256.513935 209.290911 
L 242.849373 179.592543 
L 228.360128 149.028119 
L 213.688638 119.560432 
L 197.953351 91.725656 
L 183.338726 72.192495 
L 170.096361 61.729532 
L 159.11049 59.559023 
L 151.462492 63.858598 
L 147.78151 74.318244 
L 150.980064 92.050714 
L 164.590154 117.445963 
L 188.398447 147.880088 
L 217.503579 178.986987 
L 242.661778 203.464429 
L 266.843252 225.340185 
L 288.450589 242.895128 
L 304.451605 252.764075 
L 311.201125 253.358362 
L 312.809568 247.771258 
L 309.34601 235.700613 
L 300.300481 216.725007 
L 285.035092 190.821349 
L 267.321087 165.022094 
L 247.453488 140.154219 
L 221.561262 113.69088 
L 193.621364 92.387401 
L 164.620606 77.967449 
L 142.913933 72.89712 
L 130.784267 74.77032 
L 129.335858 79.97187 
L 135.006484 88.012604 
L 148.97391 99.965779 
L 172.849775 117.28148 
L 206.085452 140.767121 
L 244.894177 169.379508 
L 274.996749 192.725726 
L 301.137571 213.492325 
L 322.911165 230.299663 
L 336.89425 239.168092 
L 341.459123 239.423496 
L 340.877166 234.361271 
L 334.942105 223.396844 
L 321.762348 205.032136 
L 301.321027 181.318259 
L 276.414787 157.191857 
L 249.837987 136.096936 
L 213.701383 114.001217 
L 172.835021 96.81437 
L 142.245948 88.872725 
L 124.152153 86.952127 
L 119.988311 88.433596 
L 124.080545 92.027552 
L 136.109547 97.829951 
L 157.875144 107.244156 
L 189.253865 121.527758 
L 227.681478 141.572915 
L 267.253494 165.905525 
L 296.413149 186.417859 
L 320.030577 204.536132 
L 340.048874 220.581371 
L 352.790912 230.332268 
L 356.588369 231.978924 
L 354.774689 228.067212 
L 347.063251 218.481073 
L 331.724589 202.243143 
L 308.744019 181.166874 
L 281.128591 159.718796 
L 252.146575 141.104813 
L 212.418937 121.153129 
L 172.391754 106.523988 
L 140.364184 98.208089 
L 121.157202 94.801729 
L 116.80377 94.642017 
L 119.369294 95.91774 
L 129.091005 98.831466 
L 148.066949 104.380559 
L 176.812238 113.812625 
L 213.779864 128.576839 
L 253.969341 148.794633 
L 289.408765 170.850273 
L 316.386373 190.578828 
L 337.315702 207.701133 
L 353.123727 221.634028 
L 361.011381 228.746876 
L 361.048185 228.493914 
L 356.349319 223.750177 
L 344.871132 212.888949 
L 325.381166 195.888185 
L 298.723542 175.24158 
L 269.042211 155.535736 
L 235.265003 136.923215 
L 191.935551 118.18546 
L 154.470883 105.826858 
L 128.322747 98.840684 
L 117.711311 96.162485 
L 116.753411 95.642629 
L 122.206749 96.451338 
L 134.746568 98.926168 
L 156.562187 104.209035 
L 187.827618 113.845429 
L 225.997466 129.345158 
L 265.039099 150.260801 
L 301.654475 175.416505 
L 325.892535 195.494816 
L 343.948823 212.56751 
L 355.861675 225.334003 
L 359.438989 230.341896 
L 356.748807 229.099125 
L 348.891073 222.861716 
L 333.576506 210.201593 
L 310.217167 191.693935 
L 280.661899 170.437917 
L 249.997677 151.093069 
L 212.985614 131.223908 
L 175.556417 114.50011 
L 123.354577 94.51099 
L 118.37449 91.47615 
L 121.454062 90.537277 
L 131.197752 91.363274 
L 147.631848 94.372867 
L 173.449253 101.320453 
L 207.447207 114.248066 
L 244.981599 134.084103 
L 279.666036 158.555238 
L 304.377244 180.241679 
L 324.667825 201.266931 
L 339.651769 219.502025 
L 347.825755 232.265665 
L 348.044048 236.359445 
L 342.294733 234.155889 
L 331.070927 226.295009 
L 285.46357 190.742417 
L 254.082269 167.522908 
L 223.375733 146.51977 
L 190.357115 125.774364 
L 157.477615 106.402764 
L 134.262885 92.048796 
L 125.489086 84.216542 
L 125.575684 80.244922 
L 131.405952 78.605354 
L 144.02272 79.461804 
L 162.293114 83.832524 
L 189.308039 94.686502 
L 221.654961 114.225202 
L 254.569435 142.111158 
L 283.977004 174.752073 
L 303.124792 200.73469 
L 316.833653 223.031861 
L 324.402318 240.026958 
L 324.420423 247.225818 
L 318.862044 247.577118 
L 308.754372 242.179242 
L 291.50482 229.539067 
L 267.154612 209.461154 
L 238.192104 184.334442 
L 209.547279 158.684349 
L 183.887539 134.650509 
L 159.061761 108.72997 
L 143.583445 86.947585 
L 139.880633 74.87147 
L 142.523673 66.877686 
L 150.062917 63.472571 
L 163.443068 65.517021 
L 182.707644 76.902301 
L 205.165786 99.747438 
L 228.009189 131.745297 
L 250.579209 169.906539 
L 266.728263 200.471708 
L 279.552438 227.451462 
L 287.790226 248.967668 
L 289.531135 259.928687 
L 286.109697 263.888795 
L 277.522827 260.705748 
L 264.016281 250.6381 
L 244.672622 232.561183 
L 225.261706 211.75711 
L 206.888786 189.546194 
L 187.401079 161.867136 
L 171.750645 132.697354 
L 162.282801 101.477185 
L 161.453662 83.17351 
L 164.386427 69.041014 
L 170.916191 58.6685 
L 177.798061 56.398824 
L 184.452121 61.242247 
L 190.358158 72.422358 
L 196.104469 89.261425 
L 202.593292 111.636912 
L 211.040831 140.165167 
L 222.47759 174.585944 
L 233.777969 204.854632 
L 250.744543 247.297622 
L 256.644251 263.470293 
L 258.683797 273.316924 
L 256.332783 275.645824 
L 250.158042 271.666124 
L 239.673195 260.825379 
L 225.723739 243.140802 
L 211.976563 222.608899 
L 197.544589 196.321402 
L 185.260831 165.528572 
L 178.182087 132.313019 
L 177.579291 107.093769 
L 180.715219 85.668018 
L 186.781311 67.264472 
L 191.872296 58.524581 
L 195.229028 56.566163 
L 197.107706 60.185335 
L 197.610867 66.763224 
L 197.58542 74.16059 
L 197.192966 94.468583 
L 197.295554 108.223651 
L 198.125223 125.412796 
L 200.977232 150.799505 
L 207.792984 184.225085 
L 218.743505 220.06485 
L 227.800966 243.909984 
L 239.036645 271.008078 
L 241.577006 277.864127 
L 241.977958 281.218718 
L 239.688247 279.723544 
L 234.266123 272.820252 
L 225.942302 260.076469 
L 215.578483 241.661644 
L 204.395846 217.631614 
L 194.397589 188.674767 
L 187.895532 155.56564 
L 187.080418 120.974102 
L 190.983528 93.462835 
L 196.929994 72.195987 
L 201.093365 61.644653 
L 203.267289 57.786655 
L 203.718824 58.57602 
L 202.961368 62.935283 
L 201.133966 71.086606 
L 198.379983 84.194299 
L 195.516297 102.055392 
L 193.667295 124.42308 
L 194.120499 150.64006 
L 198.144998 180.688036 
L 208.090217 217.87009 
L 218.219381 244.289735 
L 226.77723 263.024816 
L 236.830211 282.907693 
L 236.236298 281.998424 
L 233.621436 277.374315 
L 228.005871 266.817238 
L 219.986259 250.31803 
L 210.712941 228.240581 
L 201.792854 201.199228 
L 195.062964 169.661015 
L 192.522912 135.02211 
L 194.609482 104.278255 
L 199.092086 79.671478 
L 204.115759 59.507536 
L 204.279244 57.766521 
L 203.318033 59.22936 
L 200.982673 64.707312 
L 197.281966 75.320041 
L 192.981116 91.254787 
L 189.381359 112.084599 
L 188.010059 137.848066 
L 190.548406 167.374019 
L 200.297447 206.245859 
L 212.259312 235.773373 
L 223.279634 257.144614 
L 231.70552 271.129676 
L 236.913224 278.635865 
L 239.821794 281.779133 
L 240.15097 280.270145 
L 237.988827 274.353635 
L 226.535837 247.419264 
L 218.358816 226.429948 
L 209.732509 200.147934 
L 202.291503 169.344674 
L 197.751297 135.742666 
L 196.906006 103.684197 
L 197.832521 84.011083 
L 198.723583 71.127591 
L 199.038333 63.157346 
L 198.597204 58.338632 
L 197.15471 56.773846 
L 194.344592 59.20348 
L 190.267078 66.553085 
L 185.551925 79.240444 
L 181.473777 96.97833 
L 179.589471 119.935689 
L 181.830551 147.412611 
L 192.024068 184.735815 
L 207.337632 217.902149 
L 222.454924 242.767816 
L 234.650975 259.565893 
L 244.752503 271.270215 
L 251.14016 276.662271 
L 254.222943 275.96988 
L 253.191895 269.051222 
L 249.139099 257.2564 
L 233.652891 218.077728 
L 225.262642 195.647516 
L 216.000733 168.081032 
L 207.102172 136.83759 
L 199.268781 103.391423 
L 194.228468 80.724179 
L 189.981993 66.29025 
L 185.269166 58.052845 
L 180.017558 56.105996 
L 174.566183 59.732433 
L 169.458737 68.568921 
L 165.811458 82.764524 
L 165.403061 102.128167 
L 170.093682 126.128713 
L 184.983649 161.208091 
L 205.888457 194.209983 
L 227.15669 221.204489 
L 244.275532 240.017622 
L 258.869222 254.042032 
L 272.330039 264.301833 
L 280.032424 266.644135 
L 282.462209 261.546811 
L 280.010874 249.958414 
L 273.423475 232.471347 
L 262.267611 207.545153 
L 247.749234 177.648353 
L 231.925122 146.982361 
L 215.220997 117.316605 
L 197.565941 90.817686 
L 180.641879 72.225566 
L 165.444194 62.678789 
L 153.49573 61.417437 
L 146.195768 66.434326 
L 144.312152 78.404971 
L 152.808414 99.484295 
L 171.314671 124.666049 
L 199.717509 155.303956 
L 228.195037 182.914953 
L 254.503424 206.968863 
L 278.336269 227.495756 
L 299.458719 243.697774 
L 313.414715 251.003454 
L 318.354466 249.244064 
L 317.674892 241.017088 
L 311.980449 227.123954 
L 299.81438 205.31928 
L 281.51749 178.084945 
L 259.84263 150.842405 
L 235.70472 125.824187 
L 205.143618 101.532797 
L 172.779776 84.142285 
L 146.917886 76.434795 
L 131.047393 76.07547 
L 126.875242 79.974389 
L 131.329676 87.080607 
L 143.705685 97.005338 
L 165.830514 111.7626 
L 197.546752 132.388871 
L 235.91927 158.76825 
L 266.929518 181.668772 
L 295.358264 203.752773 
L 319.131453 222.448105 
L 336.210846 234.824769 
L 343.773487 238.248114 
L 344.869418 234.816165 
L 340.05782 225.542168 
L 328.311433 209.26875 
L 308.995416 187.014378 
L 287.882338 166.338541 
L 263.859531 146.470262 
L 231.108825 124.763959 
L 189.144303 104.673291 
L 153.107303 93.368829 
L 129.352511 89.075741 
L 120.446977 88.990653 
L 119.848328 90.955571 
L 126.304151 94.54935 
L 141.523495 100.87985 
L 166.631876 111.055399 
L 200.858306 126.399464 
L 240.537802 147.390942 
L 278.730899 171.451308 
L 307.233264 192.008064 
L 329.925341 209.821993 
L 347.372215 223.975838 
L 356.766531 230.889509 
L 357.896135 230.250848 
L 353.975882 224.782165 
L 343.400165 212.984853 
L 324.903817 194.933758 
L 299.40833 173.420955 
L 271.192475 153.367478 
L 237.920287 134.119423 
L 194.2823 115.005125 
L 156.190164 103.060061 
L 129.553138 97.035593 
L 118.359832 95.275441 
L 116.758348 95.50221 
L 121.575022 97.038983 
L 134.269978 100.480906 
L 156.512864 106.863249 
L 188.309011 117.59384 
L 227.051662 133.954525 
L 266.718493 155.238048 
L 299.134739 176.579339 
L 326.443864 197.590032 
L 345.516949 213.981425 
L 361.854008 229.116822 
L 359.213417 226.542386 
L 350.850595 218.668836 
L 334.845669 204.414692 
L 310.924708 185.029929 
L 285.932679 167.146913 
L 258.225352 149.982452 
L 220.595652 130.722435 
L 180.393819 114.577215 
L 145.889989 103.68066 
L 123.598656 97.655244 
L 116.728577 95.62616 
L 118.011838 95.41126 
L 125.141526 96.464051 
L 140.06483 99.437551 
L 164.443434 105.60421 
L 197.903818 116.653862 
L 236.825132 133.810556 
L 274.637573 155.766694 
L 304.14869 177.168544 
L 328.59283 198.187712 
L 345.714801 215.099222 
L 356.204801 227.059858 
L 358.405638 231.02367 
L 354.126766 228.630697 
L 344.265837 220.824238 
L 326.63683 206.485785 
L 301.166502 186.785489 
L 274.123326 167.750521 
L 244.755839 149.391758 
L 206.942929 129.109132 
L 169.607408 112.26833 
L 139.184639 100.133001 
L 123.094517 93.384788 
L 118.947546 90.254909 
L 123.274881 89.216256 
L 134.283846 90.243055 
L 152.129219 93.726838 
L 179.313434 101.629235 
L 214.008556 116.027302 
L 251.042758 137.415786 
L 283.940441 162.578636 
L 307.525659 184.847147 
L 325.238274 204.464285 
L 339.097253 222.561567 
L 345.807755 234.574791 
L 344.753749 237.76939 
L 337.806974 234.658236 
L 325.038901 225.599269 
L 276.586584 187.756312 
L 244.850698 164.119935 
L 215.140747 143.425352 
L 182.787848 122.326658 
L 152.0677 102.870045 
L 132.268107 88.706333 
L 126.443039 81.388169 
L 129.125192 77.202082 
L 138.244666 76.302439 
L 153.065297 78.604687 
L 175.29353 86.012602 
L 204.755435 101.702514 
L 236.997395 126.724079 
L 267.977842 159.232501 
L 288.26536 185.55082 
L 303.992096 209.471381 
L 315.675532 231.139287 
L 320.340256 245.727131 
L 317.066776 250.453766 
L 307.699165 247.011389 
L 292.911448 236.935857 
L 270.902201 219.091763 
L 243.508191 195.026321 
L 215.212327 168.847895 
L 190.455978 144.562529 
L 165.931671 117.687964 
L 148.682545 92.970997 
L 143.239771 77.863109 
L 144.184454 68.361396 
L 149.432828 62.928022 
L 160.248381 62.0134 
L 176.49196 69.758636 
L 195.816104 88.646779 
L 215.483799 116.472069 
L 235.731711 151.47223 
L 252.057854 182.725794 
L 266.823931 213.078689 
L 278.001288 238.747098 
L 283.751418 256.877935 
L 283.491025 264.549428 
L 278.957908 265.844708 
L 269.800191 260.968594 
L 255.140613 248.749285 
L 235.503217 228.825403 
L 215.526477 205.406109 
L 196.757563 179.717505 
L 179.576355 150.156988 
L 167.547886 118.295332 
L 164.163417 94.604199 
L 166.054761 75.602808 
L 171.150656 62.792263 
L 177.829846 56.455492 
L 183.541231 57.37185 
L 188.546488 64.338416 
L 193.024104 77.059863 
L 197.470445 94.733456 
L 202.881811 117.650046 
L 210.525708 146.711773 
L 221.51819 181.71582 
L 232.296436 211.294245 
L 247.428873 249.494519 
L 253.051756 264.661251 
L 255.334451 274.306849 
L 253.445003 276.84462 
L 247.908665 273.191458 
L 238.227807 262.831465 
L 225.231418 245.793837 
L 211.977674 225.294061 
L 198.167797 199.122255 
L 186.465046 168.371364 
L 179.788814 134.806336 
L 179.427497 108.947862 
L 182.763503 86.898188 
L 188.909019 67.947995 
L 193.826795 58.969144 
L 196.932421 56.737519 
L 198.390322 59.43284 
L 198.686641 65.027612 
L 198.35263 73.516289 
L 197.718678 84.350798 
L 197.103071 98.563515 
L 197.027475 115.798542 
L 197.943793 134.204399 
L 201.419825 161.920493 
L 209.624301 197.724601 
L 219.573884 228.018748 
L 228.279483 250.11384 
L 238.46743 274.193317 
L 240.46195 279.683304 
L 240.3618 281.714348 
L 237.829714 279.293158 
L 232.008983 271.148327 
L 223.634783 257.454439 
L 213.295223 237.837653 
L 202.549265 212.784744 
L 193.411299 182.944349 
L 188.174514 149.135908 
L 188.366322 118.660478 
L 192.260023 92.958247 
L 198.121135 71.832706 
L 202.021834 61.580541 
L 203.931024 57.88128 
L 204.190367 58.619951 
L 203.316438 62.662312 
L 201.280035 70.787617 
L 198.257912 83.959479 
L 195.1109 101.98952 
L 193.022026 124.629488 
L 193.358124 151.282314 
L 197.383965 181.388826 
L 207.432764 218.47537 
L 217.725754 244.83907 
L 226.448809 263.496398 
L 232.54288 275.292547 
L 236.770623 282.939462 
L 236.240993 281.893759 
L 233.723252 277.143473 
L 228.27549 266.526776 
L 220.446928 250.011811 
L 211.352129 227.936914 
L 202.566468 200.913083 
L 195.885671 169.403915 
L 193.259629 134.865159 
L 195.130381 104.080736 
L 199.312475 79.481522 
L 203.788239 59.559234 
L 203.804064 57.697672 
L 202.768173 58.979407 
L 200.307117 64.304749 
L 196.478276 74.787571 
L 192.07178 90.606843 
L 188.408324 111.363681 
L 187.051206 137.084717 
L 189.726046 166.66059 
L 199.854185 205.667522 
L 212.207916 235.233428 
L 223.586129 256.628102 
L 232.293129 270.593288 
L 237.648673 278.004038 
L 240.827513 281.29916 
L 241.514982 279.96517 
L 239.46574 273.852974 
L 228.122852 246.613334 
L 220.157091 226.113359 
L 211.519623 200.16606 
L 203.814741 169.614731 
L 198.736231 136.232849 
L 197.140638 103.943014 
L 197.434254 86.316588 
L 197.865018 74.254277 
L 198.005059 66.007565 
L 197.648099 60.279401 
L 196.449297 56.981369 
L 193.969032 57.296265 
L 190.287194 62.146297 
L 185.635936 72.292465 
L 181.148271 87.59822 
L 178.249123 108.118661 
L 178.810059 133.507366 
L 185.348016 165.401224 
L 201.225873 204.379464 
L 217.564411 232.486454 
L 231.651427 252.350331 
L 242.189708 265.054042 
L 250.114295 272.92552 
L 255.945902 276.14584 
L 257.356345 272.237957 
L 254.902064 262.687716 
L 249.148244 247.20096 
L 240.265027 225.042595 
L 231.336712 202.308108 
L 222.809313 179.127549 
L 212.950269 149.357871 
L 203.624115 117.075971 
L 195.695339 87.738852 
L 190.019325 70.321665 
L 184.175082 59.7176 
L 178.15918 56.211268 
L 172.171839 58.702675 
L 166.828486 66.450953 
L 163.068237 79.655269 
L 162.719197 98.102438 
L 167.681602 121.401724 
L 183.062297 155.583353 
L 204.360559 187.886907 
L 226.835186 215.57333 
L 245.248286 235.337928 
L 260.949174 250.194619 
L 275.721673 261.503948 
L 284.484726 264.662883 
L 287.599582 260.01236 
L 285.436886 248.579389 
L 278.987323 231.445558 
L 267.648783 206.736463 
L 252.47112 176.908581 
L 235.617459 146.476737 
L 217.453311 117.208362 
L 198.125779 91.518291 
L 179.073478 73.267974 
L 162.09158 64.079206 
L 149.292079 63.199977 
L 142.263028 68.53401 
L 141.853118 80.17043 
L 149.906312 96.560427 
L 167.39561 118.499396 
L 195.120593 146.750698 
L 226.703085 176.108489 
L 254.33807 200.698023 
L 279.197313 221.909876 
L 301.502989 239.337299 
L 316.763968 248.303015 
L 322.568472 248.103688 
L 323.053088 242.086031 
L 318.606486 230.175785 
L 307.820584 210.640905 
L 290.387337 184.87258 
L 268.459229 157.639093 
L 245.804983 134.231757 
L 215.288203 109.461305 
L 181.152686 90.071824 
L 151.635022 79.989368 
L 132.465779 77.776288 
L 125.531279 80.366085 
L 127.412293 85.542121 
L 136.478835 93.066344 
L 154.933256 104.839484 
L 183.270242 121.913598 
L 219.776104 145.012924 
L 254.801842 169.215309 
L 286.750197 193.112254 
L 312.061772 212.934764 
L 332.315501 228.576246 
L 344.530837 236.369093 
L 347.764876 235.94641 
L 345.804989 230.339948 
L 337.839743 218.348654 
L 322.282495 199.427051 
L 299.61948 176.16092 
L 273.459807 153.743435 
L 243.67289 133.03895 
L 203.842333 112.173719 
L 164.332971 97.997766 
L 135.895015 91.522457 
L 122.042751 90.079473 
L 118.59377 91.112507 
L 122.924147 93.970464 
L 135.229183 98.953368 
L 157.25851 107.295636 
L 188.882247 120.299218 
L 227.499958 138.987823 
L 267.199116 162.184142 
L 295.852916 181.704893 
L 320.601849 200.443334 
L 354.334447 227.812241 
L 358.926601 230.719552 
L 357.279379 227.53778 
L 349.802314 218.917824 
L 334.755385 203.751514 
L 311.8985 183.511467 
L 287.260418 164.678731 
L 260.823322 147.492453 
L 223.422258 127.862965 
L 180.857136 111.182627 
L 146.063234 101.281729 
L 123.704241 96.556978 
L 116.801672 95.556103 
L 118.481809 96.343906 
L 144.80127 103.229061 
L 172.166097 111.46918 
L 208.151812 124.852656 
L 248.19986 143.909795 
L 284.972423 165.997681 
L 312.289702 185.634311 
L 333.137959 202.627202 
L 350.214245 217.922245 
L 360.053104 227.392995 
L 361.633229 229.112191 
L 347.614319 216.368468 
L 329.689987 200.893008 
L 304.107691 180.862238 
L 274.156706 160.449844 
L 243.136268 142.544166 
L 201.572931 123.124852 
L 163.006305 109.0288 
L 133.790833 100.264634 
L 119.641182 96.210348 
L 116.745763 94.883576 
L 121.59555 95.190689 
L 132.490213 97.013992 
L 152.36859 101.419652 
L 181.730972 109.941267 
L 218.672391 124.297554 
L 257.635257 144.595271 
L 291.998996 167.732235 
L 317.031937 188.20152 
L 335.869278 205.988063 
L 350.205907 221.447928 
L 356.9239 230.450916 
L 356.083495 231.549821 
L 350.110264 227.558011 
L 317.21196 201.305513 
L 289.452309 180.397769 
L 258.053787 159.134678 
L 225.72234 139.943184 
L 187.993265 120.712732 
L 153.124304 105.32384 
L 129.192295 95.126905 
L 120.364883 90.15881 
L 120.802428 88.031439 
L 127.668214 87.745549 
L 140.134724 89.332309 
L 160.946747 94.062933 
L 190.707383 104.129817 
L 226.401347 121.406097 
L 262.315078 145.37961 
L 295.897638 174.912775 
L 317.174437 197.980681 
L 332.506495 217.670281 
L 341.637636 232.639097 
L 342.784551 238.795515 
L 338.326296 238.436404 
L 329.240286 232.958801 
L 312.660751 220.56403 
L 288.334544 201.333056 
L 258.15746 177.792324 
L 226.508272 154.232413 
L 195.290461 132.213565 
L 163.443107 110.447262 
L 139.519312 92.940545 
L 129.514504 82.625103 
L 128.541874 77.216783 
L 133.410078 74.287719 
L 144.75898 74.226605 
L 160.302871 77.731555 
L 184.748324 88.08827 
L 214.672065 107.903072 
L 245.881049 137.242885 
L 274.8049 172.883293 
L 293.227763 200.439897 
L 306.619111 224.239821 
L 314.243596 242.792349 
L 314.591724 251.084154 
L 309.563781 252.629456 
L 299.367236 247.773703 
L 282.893794 235.825418 
L 259.647344 216.144003 
L 232.319707 190.976809 
L 206.510659 165.513228 
L 183.056097 140.202032 
L 161.302993 112.318148 
L 148.591756 87.875987 
L 146.360397 74.345508 
L 149.287594 65.007753 
L 156.635458 60.303416 
L 169.399403 62.544984 
L 185.347392 75.296036 
L 201.54932 97.011276 
L 218.430045 126.344575 
L 236.490872 161.910983 
L 251.307237 192.749652 
L 264.05966 220.556283 
L 274.042609 244.719542 
L 278.699937 261.026298 
L 277.691962 267.445042 
L 272.289975 267.33527 
L 263.044107 261.368372 
L 247.933568 247.62981 
L 231.165098 229.496776 
L 213.806201 207.987715 
L 195.89036 181.861498 
L 179.900688 151.789919 
L 169.336032 119.492841 
L 166.952398 95.852255 
L 169.304005 76.701474 
L 174.776708 62.870883 
L 180.919762 56.493248 
L 185.91429 56.990138 
L 190.015256 63.238215 
L 193.417611 74.920092 
L 196.589598 91.053386 
L 200.394403 111.671167 
L 206.061512 138.192681 
L 214.922327 171.078199 
L 226.029176 204.404755 
L 235.164585 228.485664 
L 242.64767 247.246611 
L 248.385798 261.984769 
L 251.895247 273.039418 
L 251.900192 277.549843 
L 249.035495 277.123579 
L 242.758959 271.403172 
L 232.176661 258.499706 
L 220.418947 241.514065 
L 207.25847 219.006449 
L 194.460042 191.175849 
L 184.705072 159.135225 
L 180.735626 125.776039 
L 182.537122 98.981425 
L 187.57072 77.523775 
L 193.088629 63.686596 
L 197.041199 57.619425 
L 199.104169 57.411899 
L 199.728984 61.155014 
L 199.394387 68.449029 
L 197.36763 91.764248 
L 196.541871 108.866756 
L 196.750565 129.335958 
L 198.742649 152.698701 
L 204.922605 186.251187 
L 215.502367 221.808578 
L 224.793008 246.065102 
L 239.163796 279.8109 
L 239.475773 282.067397 
L 237.455191 280.164879 
L 232.418882 272.923487 
L 224.620865 259.918802 
L 214.762691 241.000716 
L 204.296117 216.606127 
L 195.141195 187.365085 
L 189.499028 154.007397 
L 189.118847 122.605988 
L 192.796043 95.209423 
L 198.468268 73.30735 
L 202.302898 62.393297 
L 204.185176 58.103225 
L 204.422016 58.359456 
L 203.519308 61.892671 
L 201.391123 69.547234 
L 198.186422 82.296442 
L 194.759352 100.03011 
L 192.330982 122.446801 
L 192.324312 149.121414 
L 195.833734 177.897204 
L 205.785213 215.7527 
L 216.381784 242.891305 
L 225.556217 262.209824 
L 232.123447 274.544059 
L 235.79088 280.895644 
L 237.068888 282.828569 
L 236.618024 281.616338 
L 228.78818 265.766087 
L 221.138807 249.201134 
L 212.199107 227.085092 
L 203.510618 200.024234 
L 196.831822 168.505758 
L 194.055166 134.121359 
L 195.606988 103.390052 
L 198.939008 81.122283 
L 201.678337 67.339881 
L 201.678337 67.339881 
" clip-path="url(#p8da91116b4)" style="fill: none; stroke: #1f77b4; stroke-width: 0.5; stroke-linecap: square"/>
   </g>
   <g id="patch_3">
    <path d="M 57.6 307.584 
L 57.6 41.472 
" style="fill: none; stroke: #000000; stroke-width: 0.8; stroke-linejoin: miter; stroke-linecap: square"/>
   </g>
   <g id="patch_4">
    <path d="M 414.72 307.584 
L 414.72 41.472 
" style="fill: none; stroke: #000000; stroke-width: 0.8; stroke-linejoin: miter; stroke-linecap: square"/>
   </g>
   <g id="patch_5">
    <path d="M 57.6 307.584 
L 414.72 307.584 
" style="fill: none; stroke: #000000; stroke-width: 0.8; stroke-linejoin: miter; stroke-linecap: square"/>
   </g>
   <g id="patch_6">
    <path d="M 57.6 41.472 
L 414.72 41.472 
" style="fill: none; stroke: #000000; stroke-width: 0.8; stroke-linejoin: miter; stroke-linecap: square"/>
   </g>
   <g id="text_13">
    <!-- Real Space Projection onto r-z plane with initial r = -0.13 -->
    <g transform="translate(66.41625 35.472) scale(0.12 -0.12)">
     <defs>
      <path id="DejaVuSans-52" d="M 2841 2188 
Q 3044 2119 3236 1894 
Q 3428 1669 3622 1275 
L 4263 0 
L 3584 0 
L 2988 1197 
Q 2756 1666 2539 1819 
Q 2322 1972 1947 1972 
L 1259 1972 
L 1259 0 
L 628 0 
L 628 4666 
L 2053 4666 
Q 2853 4666 3247 4331 
Q 3641 3997 3641 3322 
Q 3641 2881 3436 2590 
Q 3231 2300 2841 2188 
z
M 1259 4147 
L 1259 2491 
L 2053 2491 
Q 2509 2491 2742 2702 
Q 2975 2913 2975 3322 
Q 2975 3731 2742 3939 
Q 2509 4147 2053 4147 
L 1259 4147 
z
" transform="scale(0.015625)"/>
      <path id="DejaVuSans-65" d="M 3597 1894 
L 3597 1613 
L 953 1613 
Q 991 1019 1311 708 
Q 1631 397 2203 397 
Q 2534 397 2845 478 
Q 3156 559 3463 722 
L 3463 178 
Q 3153 47 2828 -22 
Q 2503 -91 2169 -91 
Q 1331 -91 842 396 
Q 353 884 353 1716 
Q 353 2575 817 3079 
Q 1281 3584 2069 3584 
Q 2775 3584 3186 3129 
Q 3597 2675 3597 1894 
z
M 3022 2063 
Q 3016 2534 2758 2815 
Q 2500 3097 2075 3097 
Q 1594 3097 1305 2825 
Q 1016 2553 972 2059 
L 3022 2063 
z
" transform="scale(0.015625)"/>
      <path id="DejaVuSans-61" d="M 2194 1759 
Q 1497 1759 1228 1600 
Q 959 1441 959 1056 
Q 959 750 1161 570 
Q 1363 391 1709 391 
Q 2188 391 2477 730 
Q 2766 1069 2766 1631 
L 2766 1759 
L 2194 1759 
z
M 3341 1997 
L 3341 0 
L 2766 0 
L 2766 531 
Q 2569 213 2275 61 
Q 1981 -91 1556 -91 
Q 1019 -91 701 211 
Q 384 513 384 1019 
Q 384 1609 779 1909 
Q 1175 2209 1959 2209 
L 2766 2209 
L 2766 2266 
Q 2766 2663 2505 2880 
Q 2244 3097 1772 3097 
Q 1472 3097 1187 3025 
Q 903 2953 641 2809 
L 641 3341 
Q 956 3463 1253 3523 
Q 1550 3584 1831 3584 
Q 2591 3584 2966 3190 
Q 3341 2797 3341 1997 
z
" transform="scale(0.015625)"/>
      <path id="DejaVuSans-6c" d="M 603 4863 
L 1178 4863 
L 1178 0 
L 603 0 
L 603 4863 
z
" transform="scale(0.015625)"/>
      <path id="DejaVuSans-20" transform="scale(0.015625)"/>
      <path id="DejaVuSans-53" d="M 3425 4513 
L 3425 3897 
Q 3066 4069 2747 4153 
Q 2428 4238 2131 4238 
Q 1616 4238 1336 4038 
Q 1056 3838 1056 3469 
Q 1056 3159 1242 3001 
Q 1428 2844 1947 2747 
L 2328 2669 
Q 3034 2534 3370 2195 
Q 3706 1856 3706 1288 
Q 3706 609 3251 259 
Q 2797 -91 1919 -91 
Q 1588 -91 1214 -16 
Q 841 59 441 206 
L 441 856 
Q 825 641 1194 531 
Q 1563 422 1919 422 
Q 2459 422 2753 634 
Q 3047 847 3047 1241 
Q 3047 1584 2836 1778 
Q 2625 1972 2144 2069 
L 1759 2144 
Q 1053 2284 737 2584 
Q 422 2884 422 3419 
Q 422 4038 858 4394 
Q 1294 4750 2059 4750 
Q 2388 4750 2728 4690 
Q 3069 4631 3425 4513 
z
" transform="scale(0.015625)"/>
      <path id="DejaVuSans-70" d="M 1159 525 
L 1159 -1331 
L 581 -1331 
L 581 3500 
L 1159 3500 
L 1159 2969 
Q 1341 3281 1617 3432 
Q 1894 3584 2278 3584 
Q 2916 3584 3314 3078 
Q 3713 2572 3713 1747 
Q 3713 922 3314 415 
Q 2916 -91 2278 -91 
Q 1894 -91 1617 61 
Q 1341 213 1159 525 
z
M 3116 1747 
Q 3116 2381 2855 2742 
Q 2594 3103 2138 3103 
Q 1681 3103 1420 2742 
Q 1159 2381 1159 1747 
Q 1159 1113 1420 752 
Q 1681 391 2138 391 
Q 2594 391 2855 752 
Q 3116 1113 3116 1747 
z
" transform="scale(0.015625)"/>
      <path id="DejaVuSans-63" d="M 3122 3366 
L 3122 2828 
Q 2878 2963 2633 3030 
Q 2388 3097 2138 3097 
Q 1578 3097 1268 2742 
Q 959 2388 959 1747 
Q 959 1106 1268 751 
Q 1578 397 2138 397 
Q 2388 397 2633 464 
Q 2878 531 3122 666 
L 3122 134 
Q 2881 22 2623 -34 
Q 2366 -91 2075 -91 
Q 1284 -91 818 406 
Q 353 903 353 1747 
Q 353 2603 823 3093 
Q 1294 3584 2113 3584 
Q 2378 3584 2631 3529 
Q 2884 3475 3122 3366 
z
" transform="scale(0.015625)"/>
      <path id="DejaVuSans-50" d="M 1259 4147 
L 1259 2394 
L 2053 2394 
Q 2494 2394 2734 2622 
Q 2975 2850 2975 3272 
Q 2975 3691 2734 3919 
Q 2494 4147 2053 4147 
L 1259 4147 
z
M 628 4666 
L 2053 4666 
Q 2838 4666 3239 4311 
Q 3641 3956 3641 3272 
Q 3641 2581 3239 2228 
Q 2838 1875 2053 1875 
L 1259 1875 
L 1259 0 
L 628 0 
L 628 4666 
z
" transform="scale(0.015625)"/>
      <path id="DejaVuSans-6f" d="M 1959 3097 
Q 1497 3097 1228 2736 
Q 959 2375 959 1747 
Q 959 1119 1226 758 
Q 1494 397 1959 397 
Q 2419 397 2687 759 
Q 2956 1122 2956 1747 
Q 2956 2369 2687 2733 
Q 2419 3097 1959 3097 
z
M 1959 3584 
Q 2709 3584 3137 3096 
Q 3566 2609 3566 1747 
Q 3566 888 3137 398 
Q 2709 -91 1959 -91 
Q 1206 -91 779 398 
Q 353 888 353 1747 
Q 353 2609 779 3096 
Q 1206 3584 1959 3584 
z
" transform="scale(0.015625)"/>
      <path id="DejaVuSans-6a" d="M 603 3500 
L 1178 3500 
L 1178 -63 
Q 1178 -731 923 -1031 
Q 669 -1331 103 -1331 
L -116 -1331 
L -116 -844 
L 38 -844 
Q 366 -844 484 -692 
Q 603 -541 603 -63 
L 603 3500 
z
M 603 4863 
L 1178 4863 
L 1178 4134 
L 603 4134 
L 603 4863 
z
" transform="scale(0.015625)"/>
      <path id="DejaVuSans-74" d="M 1172 4494 
L 1172 3500 
L 2356 3500 
L 2356 3053 
L 1172 3053 
L 1172 1153 
Q 1172 725 1289 603 
Q 1406 481 1766 481 
L 2356 481 
L 2356 0 
L 1766 0 
Q 1100 0 847 248 
Q 594 497 594 1153 
L 594 3053 
L 172 3053 
L 172 3500 
L 594 3500 
L 594 4494 
L 1172 4494 
z
" transform="scale(0.015625)"/>
      <path id="DejaVuSans-69" d="M 603 3500 
L 1178 3500 
L 1178 0 
L 603 0 
L 603 3500 
z
M 603 4863 
L 1178 4863 
L 1178 4134 
L 603 4134 
L 603 4863 
z
" transform="scale(0.015625)"/>
      <path id="DejaVuSans-6e" d="M 3513 2113 
L 3513 0 
L 2938 0 
L 2938 2094 
Q 2938 2591 2744 2837 
Q 2550 3084 2163 3084 
Q 1697 3084 1428 2787 
Q 1159 2491 1159 1978 
L 1159 0 
L 581 0 
L 581 3500 
L 1159 3500 
L 1159 2956 
Q 1366 3272 1645 3428 
Q 1925 3584 2291 3584 
Q 2894 3584 3203 3211 
Q 3513 2838 3513 2113 
z
" transform="scale(0.015625)"/>
      <path id="DejaVuSans-2d" d="M 313 2009 
L 1997 2009 
L 1997 1497 
L 313 1497 
L 313 2009 
z
" transform="scale(0.015625)"/>
      <path id="DejaVuSans-77" d="M 269 3500 
L 844 3500 
L 1563 769 
L 2278 3500 
L 2956 3500 
L 3675 769 
L 4391 3500 
L 4966 3500 
L 4050 0 
L 3372 0 
L 2619 2869 
L 1863 0 
L 1184 0 
L 269 3500 
z
" transform="scale(0.015625)"/>
      <path id="DejaVuSans-68" d="M 3513 2113 
L 3513 0 
L 2938 0 
L 2938 2094 
Q 2938 2591 2744 2837 
Q 2550 3084 2163 3084 
Q 1697 3084 1428 2787 
Q 1159 2491 1159 1978 
L 1159 0 
L 581 0 
L 581 4863 
L 1159 4863 
L 1159 2956 
Q 1366 3272 1645 3428 
Q 1925 3584 2291 3584 
Q 2894 3584 3203 3211 
Q 3513 2838 3513 2113 
z
" transform="scale(0.015625)"/>
      <path id="DejaVuSans-3d" d="M 678 2906 
L 4684 2906 
L 4684 2381 
L 678 2381 
L 678 2906 
z
M 678 1631 
L 4684 1631 
L 4684 1100 
L 678 1100 
L 678 1631 
z
" transform="scale(0.015625)"/>
      <path id="DejaVuSans-31" d="M 794 531 
L 1825 531 
L 1825 4091 
L 703 3866 
L 703 4441 
L 1819 4666 
L 2450 4666 
L 2450 531 
L 3481 531 
L 3481 0 
L 794 0 
L 794 531 
z
" transform="scale(0.015625)"/>
      <path id="DejaVuSans-33" d="M 2597 2516 
Q 3050 2419 3304 2112 
Q 3559 1806 3559 1356 
Q 3559 666 3084 287 
Q 2609 -91 1734 -91 
Q 1441 -91 1130 -33 
Q 819 25 488 141 
L 488 750 
Q 750 597 1062 519 
Q 1375 441 1716 441 
Q 2309 441 2620 675 
Q 2931 909 2931 1356 
Q 2931 1769 2642 2001 
Q 2353 2234 1838 2234 
L 1294 2234 
L 1294 2753 
L 1863 2753 
Q 2328 2753 2575 2939 
Q 2822 3125 2822 3475 
Q 2822 3834 2567 4026 
Q 2313 4219 1838 4219 
Q 1578 4219 1281 4162 
Q 984 4106 628 3988 
L 628 4550 
Q 988 4650 1302 4700 
Q 1616 4750 1894 4750 
Q 2613 4750 3031 4423 
Q 3450 4097 3450 3541 
Q 3450 3153 3228 2886 
Q 3006 2619 2597 2516 
z
" transform="scale(0.015625)"/>
     </defs>
     <use xlink:href="#DejaVuSans-52"/>
     <use xlink:href="#DejaVuSans-65" x="64.982422"/>
     <use xlink:href="#DejaVuSans-61" x="126.505859"/>
     <use xlink:href="#DejaVuSans-6c" x="187.785156"/>
     <use xlink:href="#DejaVuSans-20" x="215.568359"/>
     <use xlink:href="#DejaVuSans-53" x="247.355469"/>
     <use xlink:href="#DejaVuSans-70" x="310.832031"/>
     <use xlink:href="#DejaVuSans-61" x="374.308594"/>
     <use xlink:href="#DejaVuSans-63" x="435.587891"/>
     <use xlink:href="#DejaVuSans-65" x="490.568359"/>
     <use xlink:href="#DejaVuSans-20" x="552.091797"/>
     <use xlink:href="#DejaVuSans-50" x="583.878906"/>
     <use xlink:href="#DejaVuSans-72" x="642.431641"/>
     <use xlink:href="#DejaVuSans-6f" x="681.294922"/>
     <use xlink:href="#DejaVuSans-6a" x="742.476562"/>
     <use xlink:href="#DejaVuSans-65" x="770.259766"/>
     <use xlink:href="#DejaVuSans-63" x="831.783203"/>
     <use xlink:href="#DejaVuSans-74" x="886.763672"/>
     <use xlink:href="#DejaVuSans-69" x="925.972656"/>
     <use xlink:href="#DejaVuSans-6f" x="953.755859"/>
     <use xlink:href="#DejaVuSans-6e" x="1014.9375"/>
     <use xlink:href="#DejaVuSans-20" x="1078.316406"/>
     <use xlink:href="#DejaVuSans-6f" x="1110.103516"/>
     <use xlink:href="#DejaVuSans-6e" x="1171.285156"/>
     <use xlink:href="#DejaVuSans-74" x="1234.664062"/>
     <use xlink:href="#DejaVuSans-6f" x="1273.873047"/>
     <use xlink:href="#DejaVuSans-20" x="1335.054688"/>
     <use xlink:href="#DejaVuSans-72" x="1366.841797"/>
     <use xlink:href="#DejaVuSans-2d" x="1401.580078"/>
     <use xlink:href="#DejaVuSans-7a" x="1437.664062"/>
     <use xlink:href="#DejaVuSans-20" x="1490.154297"/>
     <use xlink:href="#DejaVuSans-70" x="1521.941406"/>
     <use xlink:href="#DejaVuSans-6c" x="1585.417969"/>
     <use xlink:href="#DejaVuSans-61" x="1613.201172"/>
     <use xlink:href="#DejaVuSans-6e" x="1674.480469"/>
     <use xlink:href="#DejaVuSans-65" x="1737.859375"/>
     <use xlink:href="#DejaVuSans-20" x="1799.382812"/>
     <use xlink:href="#DejaVuSans-77" x="1831.169922"/>
     <use xlink:href="#DejaVuSans-69" x="1912.957031"/>
     <use xlink:href="#DejaVuSans-74" x="1940.740234"/>
     <use xlink:href="#DejaVuSans-68" x="1979.949219"/>
     <use xlink:href="#DejaVuSans-20" x="2043.328125"/>
     <use xlink:href="#DejaVuSans-69" x="2075.115234"/>
     <use xlink:href="#DejaVuSans-6e" x="2102.898438"/>
     <use xlink:href="#DejaVuSans-69" x="2166.277344"/>
     <use xlink:href="#DejaVuSans-74" x="2194.060547"/>
     <use xlink:href="#DejaVuSans-69" x="2233.269531"/>
     <use xlink:href="#DejaVuSans-61" x="2261.052734"/>
     <use xlink:href="#DejaVuSans-6c" x="2322.332031"/>
     <use xlink:href="#DejaVuSans-20" x="2350.115234"/>
     <use xlink:href="#DejaVuSans-72" x="2381.902344"/>
     <use xlink:href="#DejaVuSans-20" x="2423.015625"/>
     <use xlink:href="#DejaVuSans-3d" x="2454.802734"/>
     <use xlink:href="#DejaVuSans-20" x="2538.591797"/>
     <use xlink:href="#DejaVuSans-2d" x="2570.378906"/>
     <use xlink:href="#DejaVuSans-30" x="2606.462891"/>
     <use xlink:href="#DejaVuSans-2e" x="2670.085938"/>
     <use xlink:href="#DejaVuSans-31" x="2701.873047"/>
     <use xlink:href="#DejaVuSans-33" x="2765.496094"/>
    </g>
   </g>
  </g>
 </g>
 <defs>
  <clipPath id="p8da91116b4">
   <rect x="57.6" y="41.472" width="357.12" height="266.112"/>
  </clipPath>
 </defs>
</svg>
