<?xml version="1.0" encoding="utf-8" standalone="no"?>
<!DOCTYPE svg PUBLIC "-//W3C//DTD SVG 1.1//EN"
  "http://www.w3.org/Graphics/SVG/1.1/DTD/svg11.dtd">
<svg xmlns:xlink="http://www.w3.org/1999/xlink" width="460.8pt" height="345.6pt" viewBox="0 0 460.8 345.6" xmlns="http://www.w3.org/2000/svg" version="1.1">
 <metadata>
  <rdf:RDF xmlns:dc="http://purl.org/dc/elements/1.1/" xmlns:cc="http://creativecommons.org/ns#" xmlns:rdf="http://www.w3.org/1999/02/22-rdf-syntax-ns#">
   <cc:Work>
    <dc:type rdf:resource="http://purl.org/dc/dcmitype/StillImage"/>
    <dc:date>2023-10-23T21:33:14.198293</dc:date>
    <dc:format>image/svg+xml</dc:format>
    <dc:creator>
     <cc:Agent>
      <dc:title>Matplotlib v3.8.0, https://matplotlib.org/</dc:title>
     </cc:Agent>
    </dc:creator>
   </cc:Work>
  </rdf:RDF>
 </metadata>
 <defs>
  <style type="text/css">*{stroke-linejoin: round; stroke-linecap: butt}</style>
 </defs>
 <g id="figure_1">
  <g id="patch_1">
   <path d="M 0 345.6 
L 460.8 345.6 
L 460.8 0 
L 0 0 
z
" style="fill: #ffffff"/>
  </g>
  <g id="axes_1">
   <g id="patch_2">
    <path d="M 57.6 307.584 
L 414.72 307.584 
L 414.72 41.472 
L 57.6 41.472 
z
" style="fill: #ffffff"/>
   </g>
   <g id="matplotlib.axis_1">
    <g id="xtick_1">
     <g id="line2d_1">
      <defs>
       <path id="mf54793035e" d="M 0 0 
L 0 3.5 
" style="stroke: #000000; stroke-width: 0.8"/>
      </defs>
      <g>
       <use xlink:href="#mf54793035e" x="93.312" y="307.584" style="stroke: #000000; stroke-width: 0.8"/>
      </g>
     </g>
     <g id="text_1">
      <!-- −0.4 -->
      <g transform="translate(81.170594 322.182437) scale(0.1 -0.1)">
       <defs>
        <path id="DejaVuSans-2212" d="M 678 2272 
L 4684 2272 
L 4684 1741 
L 678 1741 
L 678 2272 
z
" transform="scale(0.015625)"/>
        <path id="DejaVuSans-30" d="M 2034 4250 
Q 1547 4250 1301 3770 
Q 1056 3291 1056 2328 
Q 1056 1369 1301 889 
Q 1547 409 2034 409 
Q 2525 409 2770 889 
Q 3016 1369 3016 2328 
Q 3016 3291 2770 3770 
Q 2525 4250 2034 4250 
z
M 2034 4750 
Q 2819 4750 3233 4129 
Q 3647 3509 3647 2328 
Q 3647 1150 3233 529 
Q 2819 -91 2034 -91 
Q 1250 -91 836 529 
Q 422 1150 422 2328 
Q 422 3509 836 4129 
Q 1250 4750 2034 4750 
z
" transform="scale(0.015625)"/>
        <path id="DejaVuSans-2e" d="M 684 794 
L 1344 794 
L 1344 0 
L 684 0 
L 684 794 
z
" transform="scale(0.015625)"/>
        <path id="DejaVuSans-34" d="M 2419 4116 
L 825 1625 
L 2419 1625 
L 2419 4116 
z
M 2253 4666 
L 3047 4666 
L 3047 1625 
L 3713 1625 
L 3713 1100 
L 3047 1100 
L 3047 0 
L 2419 0 
L 2419 1100 
L 313 1100 
L 313 1709 
L 2253 4666 
z
" transform="scale(0.015625)"/>
       </defs>
       <use xlink:href="#DejaVuSans-2212"/>
       <use xlink:href="#DejaVuSans-30" x="83.789062"/>
       <use xlink:href="#DejaVuSans-2e" x="147.412109"/>
       <use xlink:href="#DejaVuSans-34" x="179.199219"/>
      </g>
     </g>
    </g>
    <g id="xtick_2">
     <g id="line2d_2">
      <g>
       <use xlink:href="#mf54793035e" x="164.736" y="307.584" style="stroke: #000000; stroke-width: 0.8"/>
      </g>
     </g>
     <g id="text_2">
      <!-- −0.2 -->
      <g transform="translate(152.594594 322.182437) scale(0.1 -0.1)">
       <defs>
        <path id="DejaVuSans-32" d="M 1228 531 
L 3431 531 
L 3431 0 
L 469 0 
L 469 531 
Q 828 903 1448 1529 
Q 2069 2156 2228 2338 
Q 2531 2678 2651 2914 
Q 2772 3150 2772 3378 
Q 2772 3750 2511 3984 
Q 2250 4219 1831 4219 
Q 1534 4219 1204 4116 
Q 875 4013 500 3803 
L 500 4441 
Q 881 4594 1212 4672 
Q 1544 4750 1819 4750 
Q 2544 4750 2975 4387 
Q 3406 4025 3406 3419 
Q 3406 3131 3298 2873 
Q 3191 2616 2906 2266 
Q 2828 2175 2409 1742 
Q 1991 1309 1228 531 
z
" transform="scale(0.015625)"/>
       </defs>
       <use xlink:href="#DejaVuSans-2212"/>
       <use xlink:href="#DejaVuSans-30" x="83.789062"/>
       <use xlink:href="#DejaVuSans-2e" x="147.412109"/>
       <use xlink:href="#DejaVuSans-32" x="179.199219"/>
      </g>
     </g>
    </g>
    <g id="xtick_3">
     <g id="line2d_3">
      <g>
       <use xlink:href="#mf54793035e" x="236.16" y="307.584" style="stroke: #000000; stroke-width: 0.8"/>
      </g>
     </g>
     <g id="text_3">
      <!-- 0.0 -->
      <g transform="translate(228.208438 322.182437) scale(0.1 -0.1)">
       <use xlink:href="#DejaVuSans-30"/>
       <use xlink:href="#DejaVuSans-2e" x="63.623047"/>
       <use xlink:href="#DejaVuSans-30" x="95.410156"/>
      </g>
     </g>
    </g>
    <g id="xtick_4">
     <g id="line2d_4">
      <g>
       <use xlink:href="#mf54793035e" x="307.584" y="307.584" style="stroke: #000000; stroke-width: 0.8"/>
      </g>
     </g>
     <g id="text_4">
      <!-- 0.2 -->
      <g transform="translate(299.632437 322.182437) scale(0.1 -0.1)">
       <use xlink:href="#DejaVuSans-30"/>
       <use xlink:href="#DejaVuSans-2e" x="63.623047"/>
       <use xlink:href="#DejaVuSans-32" x="95.410156"/>
      </g>
     </g>
    </g>
    <g id="xtick_5">
     <g id="line2d_5">
      <g>
       <use xlink:href="#mf54793035e" x="379.008" y="307.584" style="stroke: #000000; stroke-width: 0.8"/>
      </g>
     </g>
     <g id="text_5">
      <!-- 0.4 -->
      <g transform="translate(371.056437 322.182437) scale(0.1 -0.1)">
       <use xlink:href="#DejaVuSans-30"/>
       <use xlink:href="#DejaVuSans-2e" x="63.623047"/>
       <use xlink:href="#DejaVuSans-34" x="95.410156"/>
      </g>
     </g>
    </g>
    <g id="text_6">
     <!-- r -->
     <g transform="translate(234.104531 335.860562) scale(0.1 -0.1)">
      <defs>
       <path id="DejaVuSans-72" d="M 2631 2963 
Q 2534 3019 2420 3045 
Q 2306 3072 2169 3072 
Q 1681 3072 1420 2755 
Q 1159 2438 1159 1844 
L 1159 0 
L 581 0 
L 581 3500 
L 1159 3500 
L 1159 2956 
Q 1341 3275 1631 3429 
Q 1922 3584 2338 3584 
Q 2397 3584 2469 3576 
Q 2541 3569 2628 3553 
L 2631 2963 
z
" transform="scale(0.015625)"/>
      </defs>
      <use xlink:href="#DejaVuSans-72"/>
     </g>
    </g>
   </g>
   <g id="matplotlib.axis_2">
    <g id="ytick_1">
     <g id="line2d_6">
      <defs>
       <path id="m4d4de622a8" d="M 0 0 
L -3.5 0 
" style="stroke: #000000; stroke-width: 0.8"/>
      </defs>
      <g>
       <use xlink:href="#m4d4de622a8" x="57.6" y="280.9728" style="stroke: #000000; stroke-width: 0.8"/>
      </g>
     </g>
     <g id="text_7">
      <!-- −0.4 -->
      <g transform="translate(26.317187 284.772019) scale(0.1 -0.1)">
       <use xlink:href="#DejaVuSans-2212"/>
       <use xlink:href="#DejaVuSans-30" x="83.789062"/>
       <use xlink:href="#DejaVuSans-2e" x="147.412109"/>
       <use xlink:href="#DejaVuSans-34" x="179.199219"/>
      </g>
     </g>
    </g>
    <g id="ytick_2">
     <g id="line2d_7">
      <g>
       <use xlink:href="#m4d4de622a8" x="57.6" y="227.7504" style="stroke: #000000; stroke-width: 0.8"/>
      </g>
     </g>
     <g id="text_8">
      <!-- −0.2 -->
      <g transform="translate(26.317187 231.549619) scale(0.1 -0.1)">
       <use xlink:href="#DejaVuSans-2212"/>
       <use xlink:href="#DejaVuSans-30" x="83.789062"/>
       <use xlink:href="#DejaVuSans-2e" x="147.412109"/>
       <use xlink:href="#DejaVuSans-32" x="179.199219"/>
      </g>
     </g>
    </g>
    <g id="ytick_3">
     <g id="line2d_8">
      <g>
       <use xlink:href="#m4d4de622a8" x="57.6" y="174.528" style="stroke: #000000; stroke-width: 0.8"/>
      </g>
     </g>
     <g id="text_9">
      <!-- 0.0 -->
      <g transform="translate(34.696875 178.327219) scale(0.1 -0.1)">
       <use xlink:href="#DejaVuSans-30"/>
       <use xlink:href="#DejaVuSans-2e" x="63.623047"/>
       <use xlink:href="#DejaVuSans-30" x="95.410156"/>
      </g>
     </g>
    </g>
    <g id="ytick_4">
     <g id="line2d_9">
      <g>
       <use xlink:href="#m4d4de622a8" x="57.6" y="121.3056" style="stroke: #000000; stroke-width: 0.8"/>
      </g>
     </g>
     <g id="text_10">
      <!-- 0.2 -->
      <g transform="translate(34.696875 125.104819) scale(0.1 -0.1)">
       <use xlink:href="#DejaVuSans-30"/>
       <use xlink:href="#DejaVuSans-2e" x="63.623047"/>
       <use xlink:href="#DejaVuSans-32" x="95.410156"/>
      </g>
     </g>
    </g>
    <g id="ytick_5">
     <g id="line2d_10">
      <g>
       <use xlink:href="#m4d4de622a8" x="57.6" y="68.0832" style="stroke: #000000; stroke-width: 0.8"/>
      </g>
     </g>
     <g id="text_11">
      <!-- 0.4 -->
      <g transform="translate(34.696875 71.882419) scale(0.1 -0.1)">
       <use xlink:href="#DejaVuSans-30"/>
       <use xlink:href="#DejaVuSans-2e" x="63.623047"/>
       <use xlink:href="#DejaVuSans-34" x="95.410156"/>
      </g>
     </g>
    </g>
    <g id="text_12">
     <!-- z -->
     <g transform="translate(20.2375 177.152219) rotate(-90) scale(0.1 -0.1)">
      <defs>
       <path id="DejaVuSans-7a" d="M 353 3500 
L 3084 3500 
L 3084 2975 
L 922 459 
L 3084 459 
L 3084 0 
L 275 0 
L 275 525 
L 2438 3041 
L 353 3041 
L 353 3500 
z
" transform="scale(0.015625)"/>
      </defs>
      <use xlink:href="#DejaVuSans-7a"/>
     </g>
    </g>
   </g>
   <g id="line2d_11">
    <path d="M 287.744 174.528 
L 285.558452 169.410504 
L 275.480254 148.932939 
L 258.683975 123.12468 
L 236.202802 100.07345 
L 211.619619 85.497015 
L 183.985804 78.559996 
L 162.271353 78.866592 
L 144.514025 83.434158 
L 130.322708 93.597281 
L 127.394026 105.225771 
L 133.868211 118.913657 
L 150.259315 135.108553 
L 178.373877 155.217416 
L 216.237535 178.301196 
L 249.278604 196.86424 
L 280.85589 213.301714 
L 311.144371 226.755066 
L 334.509016 233.047358 
L 346.955549 231.751927 
L 353.448786 225.042078 
L 354.348857 211.462238 
L 348.713804 193.335719 
L 335.995421 171.347732 
L 318.936937 151.626686 
L 295.708295 133.399863 
L 262.238499 117.533613 
L 220.124032 108.456426 
L 187.717882 107.159725 
L 157.884058 109.716922 
L 132.231147 115.706731 
L 116.476749 124.914591 
L 115.199019 133.053923 
L 123.243001 141.919096 
L 142.933888 152.931344 
L 175.570888 166.190271 
L 218.046801 180.893721 
L 260.754413 194.30106 
L 297.669366 204.53424 
L 332.059835 211.630208 
L 354.38839 213.306648 
L 371.043502 210.819583 
L 381.894346 204.146435 
L 386.901104 192.601675 
L 384.312831 177.684199 
L 376.307908 164.896621 
L 363.533699 153.454715 
L 342.024797 142.57139 
L 309.855651 135.204423 
L 277.18198 133.465808 
L 241.396428 135.474768 
L 204.567245 140.491018 
L 168.096257 148.064019 
L 135.979391 157.83015 
L 115.707167 168.819315 
L 111.679029 177.84106 
L 119.152405 186.755136 
L 138.206362 195.736855 
L 170.515608 204.950023 
L 212.323562 212.658006 
L 250.604041 216.522223 
L 286.894418 216.704615 
L 316.350931 213.10916 
L 344.250494 204.502441 
L 366.644614 190.571023 
L 379.083842 176.196151 
L 384.955901 161.617611 
L 384.478521 149.840826 
L 377.34021 140.174702 
L 361.580376 134.998581 
L 343.387473 135.206505 
L 322.027579 138.647121 
L 291.361193 146.330399 
L 252.970376 158.033037 
L 211.139853 172.084706 
L 174.945496 185.277522 
L 141.804028 199.334619 
L 120.553555 212.502559 
L 115.133667 222.083152 
L 120.742477 230.489734 
L 135.972998 237.297893 
L 161.87892 242.533458 
L 195.604658 244.214872 
L 232.829973 240.327297 
L 266.902895 230.174243 
L 298.114139 212.705392 
L 325.741767 186.500745 
L 339.449678 166.522016 
L 347.927371 148.121192 
L 351.468734 130.773247 
L 347.899975 118.581212 
L 336.550131 113.990458 
L 319.045826 116.851088 
L 297.132341 125.232595 
L 267.165557 140.022921 
L 231.83338 159.728802 
L 197.673132 180.397627 
L 167.546973 200.649335 
L 142.319441 221.818149 
L 129.794026 240.402769 
L 129.43902 251.720958 
L 135.413209 260.732273 
L 149.120903 268.566085 
L 170.09996 272.678215 
L 195.714626 270.356753 
L 221.873216 259.455112 
L 245.255929 239.915641 
L 265.536603 212.210354 
L 282.530855 177.679135 
L 292.451043 149.100559 
L 297.951508 123.846404 
L 298.536775 106.552723 
L 294.686155 94.742616 
L 284.720833 88.950449 
L 268.795971 91.222358 
L 249.596316 100.017847 
L 227.416364 114.291057 
L 204.67743 132.391213 
L 181.247534 155.478495 
L 161.503057 182.203603 
L 150.45799 210.622135 
L 149.989183 230.612516 
L 155.453001 248.096026 
L 167.538338 265.164178 
L 184.790175 278.173817 
L 202.997381 283.376001 
L 217.81492 279.414389 
L 228.546983 267.584147 
L 236.452498 247.832035 
L 241.141491 226.590269 
L 244.634695 202.697182 
L 247.599073 174.95588 
L 249.830521 146.287369 
L 250.783898 120.602633 
L 249.998963 100.763534 
L 247.093808 85.578909 
L 241.054804 74.737185 
L 231.51602 69.992097 
L 219.010326 71.549412 
L 203.896551 79.10854 
L 186.311662 93.524895 
L 169.871112 113.936865 
L 158.352016 139.600812 
L 155.799908 165.920864 
L 162.247658 192.502451 
L 177.188074 218.76047 
L 199.529354 243.682952 
L 220.668274 260.386281 
L 237.53251 269.424412 
L 251.469011 272.407824 
L 261.53255 268.601943 
L 267.409464 257.094741 
L 268.829227 241.057773 
L 267.31623 220.645263 
L 263.551189 197.009102 
L 257.305799 168.308969 
L 249.220748 139.157623 
L 238.764576 111.13556 
L 227.280354 90.531939 
L 215.060319 77.180354 
L 198.629617 68.568602 
L 182.469122 67.266882 
L 166.6346 71.58189 
L 151.876822 81.757243 
L 142.059117 98.210891 
L 141.543917 116.252851 
L 149.246651 135.541636 
L 167.303182 159.201977 
L 196.395767 186.274678 
L 230.413426 211.919322 
L 261.339053 231.495812 
L 286.217103 243.811539 
L 306.829252 248.958852 
L 318.79587 245.155861 
L 323.658519 234.164718 
L 322.426856 215.882164 
L 316.00742 194.420729 
L 303.530353 167.994568 
L 287.662786 144.095253 
L 265.778984 121.000406 
L 236.311735 101.67732 
L 203.118316 90.798149 
L 174.820997 88.196357 
L 149.650955 90.695489 
L 130.412934 97.417287 
L 121.224944 108.477447 
L 124.938043 119.489369 
L 138.177394 131.746633 
L 163.414152 147.422577 
L 199.842127 166.19375 
L 236.694547 183.748148 
L 272.701873 200.054022 
L 306.642801 214.032363 
L 335.246489 222.995182 
L 352.238333 224.887607 
L 363.436803 221.561312 
L 368.832496 212.876479 
L 367.734127 198.179069 
L 359.575794 180.124227 
L 346.907147 163.534431 
L 330.041798 148.547823 
L 303.665055 133.465453 
L 266.150369 122.138744 
L 229.026715 118.121541 
L 195.606054 118.734974 
L 165.167391 122.299186 
L 135.746752 129.181178 
L 116.501796 138.645496 
L 112.770412 147.282212 
L 120.287586 156.463468 
L 139.408133 166.565136 
L 171.936426 178.233389 
L 214.780294 190.410494 
L 253.953423 199.698125 
L 291.029075 206.603944 
L 327.224563 210.278154 
L 351.235376 209.417554 
L 369.272467 205.097356 
L 383.399334 196.273711 
L 390.752629 183.342801 
L 390.823644 171.961263 
L 385.890643 160.900323 
L 374.919698 150.545217 
L 355.251435 142.187501 
L 325.929855 138.35295 
L 296.868539 139.219626 
L 265.255554 142.990871 
L 225.777944 150.241179 
L 186.048732 159.698515 
L 150.268925 170.503574 
L 123.508175 182.152933 
L 112.278541 193.477214 
L 115.775891 202.204256 
L 129.531261 210.089341 
L 155.9101 217.964495 
L 192.953862 224.076902 
L 234.78778 226.360314 
L 273.044551 223.556475 
L 306.601472 215.436899 
L 336.578921 200.733985 
L 359.264067 180.595578 
L 369.63877 164.970698 
L 374.477443 151.272728 
L 373.929361 138.34329 
L 366.118005 129.997284 
L 352.692275 127.726841 
L 333.512098 130.457771 
L 308.920266 137.652028 
L 275.829427 149.930961 
L 236.835317 165.927146 
L 197.847532 182.800481 
L 164.462141 198.363299 
L 135.662843 214.521744 
L 120.586189 228.667511 
L 119.40532 237.468308 
L 126.128474 244.952528 
L 142.066681 251.461276 
L 167.17544 255.388592 
L 198.358454 254.622225 
L 232.318359 246.956292 
L 262.704164 232.222845 
L 290.529698 209.051563 
L 311.482155 181.869889 
L 323.945481 158.302301 
L 331.094333 137.485301 
L 332.85816 118.90922 
L 327.768129 107.871085 
L 315.210885 104.549103 
L 297.473783 108.766626 
L 274.448616 119.228767 
L 244.487523 136.597194 
L 212.170366 158.274801 
L 184.047712 179.792846 
L 158.743699 203.27084 
L 141.398381 227.34399 
L 136.917404 244.497623 
L 140.641557 259.110156 
L 150.67373 270.122166 
L 167.478056 278.077274 
L 188.685255 279.642613 
L 209.80831 272.426851 
L 228.229627 256.380095 
L 244.188719 231.518454 
L 256.942054 201.490965 
L 267.404935 167.859404 
L 274.357486 137.2226 
L 277.464553 111.376102 
L 275.981016 93.383611 
L 270.166826 83.316555 
L 258.70406 80.05862 
L 242.958669 84.407269 
L 223.472121 95.583149 
L 203.30858 111.553389 
L 182.346334 133.329201 
L 164.740302 159.663785 
L 155.041495 189.179989 
L 155.44999 212.542175 
L 162.156788 232.980211 
L 176.218322 254.156867 
L 195.094215 271.152289 
L 213.597652 280.056637 
L 226.176026 280.369433 
L 235.550152 274.275411 
L 242.144624 260.777256 
L 245.629451 240.483392 
L 246.736813 217.537101 
L 246.735338 199.065828 
L 246.320296 180.619317 
L 245.417666 158.24878 
L 243.865295 134.252616 
L 241.245093 111.033085 
L 237.251875 92.356245 
L 231.910788 79.41151 
L 224.768346 70.904725 
L 213.307397 66.476153 
L 198.739669 68.865586 
L 183.582813 77.299996 
L 168.043771 92.295833 
L 156.032086 113.273516 
L 151.949056 139.79798 
L 158.811679 167.621322 
L 175.088841 194.791487 
L 200.262434 222.306416 
L 224.854913 242.532114 
L 244.262264 254.929247 
L 261.090925 262.359106 
L 276.252098 263.874945 
L 285.222922 257.811051 
L 289.181724 243.629494 
L 288.015485 223.362311 
L 283.443282 201.078052 
L 274.837979 172.782386 
L 263.143791 143.987417 
L 248.074159 116.749676 
L 231.816961 96.587632 
L 213.509933 82.405017 
L 190.646586 73.897979 
L 171.022414 72.935901 
L 153.377409 77.002886 
L 138.474966 86.635377 
L 132.18251 102.150274 
L 138.291867 119.919421 
L 154.223401 138.60846 
L 181.59725 161.251358 
L 218.442929 186.558894 
L 249.070731 205.441494 
L 278.204885 221.629457 
L 306.351387 234.356555 
L 325.608034 239.059269 
L 338.083768 236.363622 
L 343.340026 227.304891 
L 342.418965 211.078278 
L 335.47243 191.187122 
L 323.559829 169.965282 
L 307.119543 149.252706 
L 284.074255 129.135672 
L 251.471976 111.681873 
L 211.801224 101.621861 
L 180.517517 99.808321 
L 152.309021 102.315506 
L 129.50205 108.510707 
L 117.198976 118.242406 
L 118.764791 127.418721 
L 129.581609 137.1849 
L 152.642741 149.832883 
L 187.899978 165.048583 
L 231.210971 181.806255 
L 271.603809 196.431674 
L 307.888229 208.211112 
L 339.034656 215.689635 
L 357.995741 217.152372 
L 371.415224 214.229199 
L 379.378234 206.672115 
L 381.10782 193.836522 
L 375.345105 177.75474 
L 363.218746 162.146763 
L 346.725111 149.291311 
L 320.670692 137.395823 
L 283.439724 129.700137 
L 248.984468 128.207909 
L 212.987661 130.411776 
L 178.456481 135.420913 
L 145.024274 143.335714 
L 120.577675 153.317855 
L 111.808877 162.949991 
L 116.790917 172.843092 
L 133.028572 182.015495 
L 162.796422 192.176776 
L 203.749972 202.010757 
L 248.066482 209.39013 
L 287.188204 212.704007 
L 318.159162 212.020364 
L 343.385251 207.75716 
L 365.738195 198.730629 
L 381.705461 185.144358 
L 388.295836 172.853845 
L 389.40013 160.777976 
L 384.820507 150.096826 
L 372.628319 141.545674 
L 351.487706 137.677719 
L 328.302993 138.712136 
L 301.334249 142.954634 
L 265.444612 151.108281 
L 223.685238 162.506557 
L 184.218097 174.679745 
L 149.299863 187.246016 
L 123.524996 199.988582 
L 113.919667 210.239713 
L 116.373868 218.540334 
L 128.186541 225.664851 
L 151.593323 232.289914 
L 184.908774 236.534331 
L 223.63212 236.373453 
L 260.621446 230.512164 
L 292.725003 219.034085 
L 323.513168 199.120632 
L 343.269748 178.250662 
L 354.803994 159.61967 
L 360.646812 143.199926 
L 360.52572 128.963946 
L 353.321901 121.095806 
L 341.086126 119.695946 
L 323.655698 123.400901 
L 299.502657 132.443781 
L 267.290454 147.30694 
L 230.037127 166.18958 
L 194.438572 185.359996 
L 163.070271 203.861928 
L 137.339674 222.726239 
L 125.713862 237.433649 
L 124.87466 247.393659 
L 130.992975 255.660925 
L 145.339943 262.705351 
L 167.738936 266.535574 
L 195.419182 264.748445 
L 225.065664 254.983562 
L 251.68929 237.121828 
L 274.580415 211.804638 
L 292.843957 181.632592 
L 304.213811 154.993937 
L 310.827038 131.331308 
L 312.202365 110.930246 
L 307.500373 99.171354 
L 296.027542 94.793411 
L 278.968058 98.415057 
L 257.606446 108.572272 
L 230.288156 126.006907 
L 203.63936 146.593101 
L 178.523074 170.080436 
L 157.650362 196.270086 
L 146.112276 223.282904 
L 145.606655 241.013029 
L 150.876793 256.207446 
L 162.636886 270.514193 
L 179.811077 280.641269 
L 198.744682 283.016187 
L 214.549416 276.502317 
L 227.265318 261.708526 
L 237.413108 238.863507 
L 244.891358 212.1325 
L 250.798682 183.47545 
L 255.852706 152.015273 
L 258.910928 124.074056 
L 259.458503 104.687262 
L 257.645075 89.377261 
L 252.414851 78.241667 
L 242.675899 73.25989 
L 228.721091 75.59794 
L 212.399842 84.309186 
L 193.57862 99.671838 
L 175.377646 120.855614 
L 161.486584 146.993725 
L 156.253557 177.030123 
L 161.746547 205.24569 
L 175.009138 230.03373 
L 195.130293 252.98205 
L 216.533399 269.087149 
L 232.228821 275.722816 
L 243.410308 275.886309 
L 251.228108 270.577985 
L 256.538673 257.213063 
L 257.921796 240.281059 
L 257.005472 219.395538 
L 254.588771 196.811859 
L 250.571822 169.397041 
L 245.235562 140.617274 
L 239.144564 115.779964 
L 232.955771 97.878795 
L 225.971098 84.268333 
L 215.426023 72.361572 
L 201.224436 66.090642 
L 185.097501 67.148211 
L 170.493141 73.833054 
L 156.227481 86.965806 
L 147.011505 106.233435 
L 146.783306 127.14612 
L 154.717101 148.680882 
L 172.996814 174.576009 
L 201.586717 202.78304 
L 229.616119 224.774964 
L 257.068846 242.301351 
L 278.641564 252.294147 
L 294.988621 255.213384 
L 305.512388 250.553946 
L 310.054781 238.277858 
L 308.770602 218.986564 
L 302.972494 196.935792 
L 291.810499 169.355098 
L 277.248293 143.302793 
L 257.677771 118.371597 
L 232.110095 97.574565 
L 204.589919 85.537286 
L 178.053625 81.369178 
L 153.865167 83.242846 
L 135.856923 89.60311 
L 125.456177 101.207752 
L 127.267928 112.982363 
L 137.753531 125.896254 
L 159.626117 142.717534 
L 192.980568 163.123666 
L 228.569984 182.749387 
L 264.895364 201.560419 
L 297.466144 216.93212 
L 325.895884 227.519431 
L 343.442922 230.393518 
L 354.739946 227.178676 
L 359.640329 218.20802 
L 358.10993 202.755202 
L 349.76048 183.486489 
L 337.396205 165.718137 
L 321.668486 149.686879 
L 296.749749 132.446508 
L 261.233604 118.303583 
L 223.833104 111.761211 
L 191.555249 110.927702 
L 161.515408 113.598814 
L 134.336118 119.634043 
L 116.739827 128.72522 
L 114.109644 137.061319 
L 121.832107 146.140136 
L 141.064295 156.741555 
L 173.43307 169.375461 
L 215.95459 183.201542 
L 258.809373 195.544051 
L 295.747054 204.667691 
L 330.897723 210.751872 
L 353.097561 211.749742 
L 370.111182 209.069351 
L 382.324049 202.252268 
L 388.652613 190.755752 
L 387.3158 176.205632 
L 379.325484 162.789464 
L 366.303704 151.731416 
L 344.373308 141.967706 
L 311.970197 136.282647 
L 282.525113 135.781265 
L 250.38216 138.222749 
L 212.518199 143.830344 
L 175.84936 151.636047 
L 141.937358 161.619573 
L 118.633723 172.749239 
L 111.647251 182.338144 
L 117.502317 191.698702 
L 134.487447 200.29473 
L 164.606866 209.041401 
L 204.894434 216.228366 
L 247.974811 219.76651 
L 285.26352 218.613779 
L 316.652388 213.007763 
L 344.963284 201.747805 
L 366.696739 185.207666 
L 376.943207 171.382298 
L 381.931952 157.915478 
L 381.349998 145.729039 
L 373.782608 136.559386 
L 357.615126 132.616532 
L 335.874184 134.542444 
L 310.703786 140.415193 
L 276.829937 150.862672 
L 236.738831 164.841164 
L 196.370545 179.903796 
L 161.571487 194.077188 
L 132.451439 208.635388 
L 117.627392 221.536792 
L 117.036764 229.869719 
L 124.577593 236.843673 
L 142.2232 243.294391 
L 169.672942 247.44794 
L 203.549997 247.282801 
L 239.807953 240.780451 
L 271.581234 227.987801 
L 301.89101 206.440885 
L 323.748722 181.606308 
L 336.483891 160.183343 
L 343.700337 141.29483 
L 345.525888 124.180078 
L 340.199773 113.805993 
L 328.867018 110.952383 
L 311.658649 114.506709 
L 289.007856 123.86128 
L 258.655462 139.801709 
L 223.896034 160.480409 
L 192.682269 180.87651 
L 164.090654 202.120402 
L 141.371277 224.239852 
L 132.072055 241.348523 
L 132.298062 253.452145 
L 138.468675 262.887931 
L 152.223689 271.231426 
L 172.741281 275.456677 
L 197.322543 272.67456 
L 221.340711 261.096381 
L 242.694524 240.697733 
L 261.452742 211.5142 
L 276.546907 177.087878 
L 286.556999 144.694957 
L 291.226997 118.867856 
L 291.039105 101.794492 
L 286.726756 90.97437 
L 276.352325 85.831089 
L 260.447855 88.672415 
L 241.111766 98.141976 
L 217.30687 114.620646 
L 194.810234 134.369191 
L 173.122052 159.038325 
L 157.081762 186.97338 
L 151.354128 212.513907 
L 154.826697 236.100795 
L 164.713105 254.864477 
L 180.826304 271.364857 
L 199.360349 281.282178 
L 213.607961 282.528647 
L 225.206563 276.649151 
L 234.005379 262.930159 
L 239.011998 246.067684 
L 242.246403 226.379298 
L 244.61227 202.408793 
L 246.296997 175.921103 
L 247.340866 149.428052 
L 247.561636 128.937395 
L 246.905723 110.462999 
L 244.692846 93.186509 
L 240.061856 79.420789 
L 232.701036 71.110963 
L 223.250294 68.448879 
L 209.289275 71.560409 
L 193.397496 80.97334 
L 176.513882 97.027446 
L 162.3253 118.898889 
L 154.950978 145.955679 
L 157.370698 172.227011 
L 168.083259 197.684124 
L 187.966563 224.654193 
L 213.015515 248.07782 
L 233.018735 261.624138 
L 250.510665 268.958165 
L 263.073471 269.156887 
L 270.996313 262.880399 
L 275.025042 248.329091 
L 274.802939 231.306842 
L 272.190474 211.847498 
L 266.598344 185.511811 
L 258.198043 155.631833 
L 248.11995 127.974016 
L 236.571941 104.743934 
L 223.159517 86.716969 
L 207.518506 74.561278 
L 188.144555 68.682524 
L 169.295975 70.324675 
L 153.899864 77.2683 
L 141.500926 90.529175 
L 137.996597 107.545981 
L 144.650932 127.423274 
L 161.194683 149.258107 
L 188.991297 174.863746 
L 221.10153 199.046493 
L 249.473552 217.7193 
L 275.295119 232.423135 
L 300.52157 243.170343 
L 316.516891 245.585746 
L 326.600673 241.125637 
L 330.712994 229.576988 
L 328.572632 211.117989 
L 320.749468 188.830763 
L 308.917835 166.461207 
L 293.294175 144.893648 
L 270.447825 122.777474 
L 239.29283 104.276175 
L 203.512805 94.030822 
L 174.486667 92.032423 
L 148.785336 94.709938 
L 128.728949 101.464643 
L 119.764547 110.910976 
L 122.20349 120.969356 
L 133.879399 132.029685 
L 157.566259 146.342234 
L 192.949949 163.639396 
L 231.290997 180.780808 
L 270.137373 197.271645 
L 305.031009 210.819986 
L 335.030212 219.891402 
L 353.646945 222.219073 
L 366.238323 219.334313 
L 372.661024 211.421446 
L 372.7849 197.693593 
L 365.903098 180.825073 
L 354.527662 165.378466 
L 339.184169 151.453679 
L 314.595957 137.119349 
L 278.961995 126.045688 
L 241.220483 121.751383 
L 207.611247 122.19602 
L 176.470565 125.493941 
L 144.606531 132.039577 
L 120.835907 141.203049 
L 112.321522 150.514853 
L 117.343283 160.411437 
L 133.575812 169.9301 
L 163.321028 180.918057 
L 204.487714 192.359344 
L 248.977512 202.109467 
L 288.408812 208.294683 
L 321.149829 210.570453 
L 348.344739 208.757872 
L 368.179496 203.127405 
L 383.167831 192.914292 
L 390.815468 179.082506 
L 390.964789 167.738934 
L 386.513981 157.673135 
L 375.297333 147.74155 
L 355.135866 140.697751 
L 330.817114 138.670294 
L 301.273827 140.503786 
L 268.260576 145.478818 
L 227.90308 153.973545 
L 187.409635 164.449837 
L 151.493719 175.825856 
L 124.385023 187.829758 
L 112.75292 199.252592 
L 115.755909 207.822047 
L 128.700668 215.414334 
L 153.937788 222.840171 
L 189.66887 228.302321 
L 230.567109 229.750028 
L 268.533664 225.917644 
L 302.127359 216.498138 
L 332.534164 199.951123 
L 353.05384 180.852246 
L 364.17858 164.397268 
L 369.788857 149.888413 
L 370.08274 136.233714 
L 363.272105 127.553141 
L 350.608171 125.077191 
L 332.0877 127.903371 
L 308.215429 135.423706 
L 275.900283 148.311788 
L 237.675204 165.154236 
L 199.342118 182.96484 
L 166.470042 199.379204 
L 137.790938 216.493761 
L 122.460087 231.464117 
L 120.941417 240.813091 
L 127.332484 248.692436 
L 142.506164 255.33125 
L 166.519392 259.232898 
L 196.410088 258.209795 
L 229.062678 249.965786 
L 258.4388 234.28183 
L 284.683082 210.541001 
L 305.044174 182.216395 
L 317.276066 157.613848 
L 324.355045 135.850603 
L 326.129466 116.507513 
L 321.244241 105.029369 
L 309.111041 101.257875 
L 291.566077 105.252389 
L 269.118596 115.598794 
L 240.000098 133.030246 
L 209.294025 154.648055 
L 182.100424 176.93383 
L 158.21022 201.438187 
L 142.836328 226.561753 
L 139.800867 243.961528 
L 144.13474 258.921475 
L 154.693301 270.925033 
L 171.583074 279.493559 
L 192.031599 281.141233 
L 211.051644 273.948911 
L 227.333465 258.077214 
L 241.188468 233.602268 
L 252.026176 204.596646 
L 261.012515 172.196959 
L 267.587909 140.610657 
L 270.830861 113.833601 
L 270.351324 96.343503 
L 266.542855 84.583432 
L 257.762986 78.025586 
L 243.824061 79.089266 
L 227.61908 86.535244 
L 209.189356 99.484645 
L 188.798148 118.737565 
L 170.295026 143.16729 
L 157.949912 171.623893 
L 155.509758 196.891107 
L 161.069294 221.031513 
L 173.837032 243.672802 
L 192.634018 263.590413 
L 212.271193 276.212658 
L 226.697369 279.735809 
L 237.793725 275.999195 
L 244.723402 265.653223 
L 248.605874 247.429661 
L 249.520463 228.478405 
L 249.073786 206.73012 
L 247.863325 185.040284 
L 245.83248 159.497161 
L 242.986033 133.302192 
L 238.940886 108.834864 
L 234.890056 93.620953 
L 229.63876 81.447411 
L 221.498418 71.349374 
L 209.414483 66.063452 
L 194.51643 67.77641 
L 179.735105 75.374305 
L 164.657589 89.50812 
L 153.381436 109.70191 
L 150.426909 135.627585 
L 158.240619 162.184262 
L 175.754479 189.329077 
L 202.236853 217.016948 
L 227.776313 237.568441 
L 249.203642 251.17899 
L 267.224818 259.202429 
L 283.267007 260.97766 
L 292.38059 254.908067 
L 296.179409 240.78767 
L 294.633736 220.550337 
L 289.28388 197.678855 
L 279.436101 169.215575 
L 266.580153 141.632652 
L 249.504259 115.133989 
L 230.559864 95.499924 
L 209.430183 82.418948 
L 183.851816 75.663906 
L 163.2454 76.176579 
L 146.211032 81.17156 
L 132.659513 92.000551 
L 129.820002 104.596558 
L 136.331365 119.399697 
L 152.714368 136.821119 
L 180.714929 158.261178 
L 218.24298 182.528361 
L 250.386932 201.458225 
L 280.496691 217.660069 
L 309.631355 230.704986 
L 329.845765 235.962616 
L 342.032363 234.451328 
L 348.286748 227.257936 
L 348.840137 212.960823 
L 343.138092 194.503317 
L 330.45115 171.670315 
L 313.399639 150.915938 
L 290.413978 131.758832 
L 257.493611 114.971734 
L 216.517359 105.176096 
L 184.398884 103.489757 
L 155.105933 105.953911 
L 130.867558 111.953761 
L 116.735423 121.344227 
L 116.780412 129.937754 
L 125.538726 138.750705 
L 146.293812 150.381899 
L 179.728743 164.448052 
L 222.416053 180.111296 
L 264.951753 194.518085 
L 301.784757 205.686543 
L 334.845395 213.266533 
L 356.025301 215.118965 
L 371.421983 212.567602 
L 380.879697 205.661264 
L 384.372064 193.678817 
L 380.293615 178.22364 
L 371.096666 164.843281 
L 357.269214 152.844622 
L 334.4902 141.245255 
L 300.83286 133.149568 
L 266.476489 130.967941 
L 229.391823 132.811894 
L 193.493051 137.607813 
L 157.965953 145.17185 
L 128.738711 154.912525 
L 113.009358 165.851053 
L 112.81404 174.438899 
L 122.039643 182.466986 
L 143.918762 191.886715 
L 178.939101 201.562849 
L 222.170277 209.67155 
L 264.986349 214.167764 
L 296.73281 214.47634 
L 324.555257 211.416775 
L 350.630385 203.736116 
L 371.412754 190.981979 
L 382.936328 177.166974 
L 387.49546 164.558644 
L 386.7653 153.369962 
L 379.642208 143.419373 
L 363.97048 137.285736 
L 345.745041 136.483373 
L 322.902796 139.150808 
L 292.858939 145.549364 
L 254.732898 155.913974 
L 212.548995 168.903723 
L 176.007771 181.309648 
L 142.95642 194.440764 
L 120.596717 207.277378 
L 114.289746 216.92829 
L 119.61659 225.513611 
L 134.789106 232.483892 
L 161.061568 238.153437 
L 195.658768 240.572679 
L 233.932443 237.734396 
L 268.799055 228.915189 
L 300.882979 213.030361 
L 329.176813 188.793586 
L 343.585302 169.616836 
L 352.889648 150.982025 
L 356.715312 134.221328 
L 353.53146 121.949486 
L 342.50002 116.963264 
L 325.033124 119.329726 
L 303.554772 126.977636 
L 273.795018 140.81309 
L 238.05962 159.56154 
L 202.058663 179.848721 
L 170.736989 199.095017 
L 143.421845 219.308394 
L 128.469955 237.210046 
L 126.666432 248.368409 
L 132.269632 257.658892 
L 145.563648 265.186721 
L 166.69615 269.484079 
L 193.0787 267.997628 
L 221.272492 258.306559 
L 246.682526 240.197427 
L 268.308972 214.73738 
L 287.491873 180.584596 
L 298.315717 152.917392 
L 304.530523 128.414011 
L 305.728723 110.008915 
L 301.808599 97.585801 
L 291.536996 91.997242 
L 275.223666 94.519757 
L 255.393132 103.529935 
L 229.536625 119.962912 
L 204.232037 139.820339 
L 179.940354 163.200332 
L 159.620628 189.750703 
L 148.334774 217.549722 
L 147.856523 236.385978 
L 153.202474 252.674933 
L 165.070818 268.293347 
L 182.195253 279.767473 
L 200.650119 283.443812 
L 215.857867 278.066017 
L 227.482292 264.616698 
L 236.412385 243.217489 
L 242.711502 217.678427 
L 247.335855 191.172646 
L 251.400563 161.074538 
L 254.122469 133.132729 
L 254.97654 111.60358 
L 253.779843 93.883563 
L 249.82977 80.767443 
L 242.006451 72.919091 
L 230.054938 71.913288 
L 215.672146 77.318175 
L 198.116322 89.422861 
L 179.967117 107.86148 
L 164.73933 131.724071 
L 156.565439 160.202927 
L 158.165657 186.167252 
L 167.335509 210.457017 
L 184.988962 235.914188 
L 207.496825 257.365045 
L 226.263706 269.468091 
L 240.111346 274.290975 
L 250.960903 273.412653 
L 258.490295 266.176827 
L 262.440279 250.730776 
L 262.677329 234.485511 
L 261.044348 215.281941 
L 257.445109 190.567561 
L 251.908988 161.686043 
L 245.148931 133.784873 
L 237.567451 110.242083 
L 228.51196 90.95408 
L 218.229854 77.46971 
L 204.015654 68.287432 
L 187.194042 66.342884 
L 171.489959 70.895076 
L 156.710012 81.356254 
L 145.942915 98.106411 
L 143.838645 117.911126 
L 151.17058 140.094281 
L 168.532365 164.849169 
L 196.682932 192.588268 
L 229.333896 218.098406 
L 255.844315 235.285933 
L 278.945739 247.01228 
L 299.114058 252.268549 
L 311.265364 248.577596 
L 316.374403 237.529464 
L 315.538855 219.074277 
L 309.924068 197.966644 
L 298.578651 171.106015 
L 283.429469 145.506487 
L 263.302429 121.397289 
L 236.241859 100.712293 
L 206.02643 88.467946 
L 178.188904 84.542741 
L 152.944518 86.422514 
L 134.154862 92.617414 
L 123.537789 103.720036 
L 125.475818 114.848063 
L 136.226756 127.054902 
L 158.529643 142.967739 
L 192.392959 162.309473 
L 229.376195 181.465513 
L 267.054283 199.895513 
L 300.422723 214.82619 
L 329.282971 225.018299 
L 347.124321 227.779918 
L 358.753431 224.699638 
L 364.015338 216.097296 
L 362.874122 201.197068 
L 354.834128 182.663913 
L 342.649801 165.627578 
L 326.961263 150.289751 
L 302.004032 133.954908 
L 266.246346 120.748195 
L 266.246346 120.748195 
" clip-path="url(#pe336bfe4d1)" style="fill: none; stroke: #1f77b4; stroke-width: 0.5; stroke-linecap: square"/>
   </g>
   <g id="patch_3">
    <path d="M 57.6 307.584 
L 57.6 41.472 
" style="fill: none; stroke: #000000; stroke-width: 0.8; stroke-linejoin: miter; stroke-linecap: square"/>
   </g>
   <g id="patch_4">
    <path d="M 414.72 307.584 
L 414.72 41.472 
" style="fill: none; stroke: #000000; stroke-width: 0.8; stroke-linejoin: miter; stroke-linecap: square"/>
   </g>
   <g id="patch_5">
    <path d="M 57.6 307.584 
L 414.72 307.584 
" style="fill: none; stroke: #000000; stroke-width: 0.8; stroke-linejoin: miter; stroke-linecap: square"/>
   </g>
   <g id="patch_6">
    <path d="M 57.6 41.472 
L 414.72 41.472 
" style="fill: none; stroke: #000000; stroke-width: 0.8; stroke-linejoin: miter; stroke-linecap: square"/>
   </g>
   <g id="text_13">
    <!-- Real Space Projection onto r-z plane with initial r = 0.14 -->
    <g transform="translate(68.580938 35.472) scale(0.12 -0.12)">
     <defs>
      <path id="DejaVuSans-52" d="M 2841 2188 
Q 3044 2119 3236 1894 
Q 3428 1669 3622 1275 
L 4263 0 
L 3584 0 
L 2988 1197 
Q 2756 1666 2539 1819 
Q 2322 1972 1947 1972 
L 1259 1972 
L 1259 0 
L 628 0 
L 628 4666 
L 2053 4666 
Q 2853 4666 3247 4331 
Q 3641 3997 3641 3322 
Q 3641 2881 3436 2590 
Q 3231 2300 2841 2188 
z
M 1259 4147 
L 1259 2491 
L 2053 2491 
Q 2509 2491 2742 2702 
Q 2975 2913 2975 3322 
Q 2975 3731 2742 3939 
Q 2509 4147 2053 4147 
L 1259 4147 
z
" transform="scale(0.015625)"/>
      <path id="DejaVuSans-65" d="M 3597 1894 
L 3597 1613 
L 953 1613 
Q 991 1019 1311 708 
Q 1631 397 2203 397 
Q 2534 397 2845 478 
Q 3156 559 3463 722 
L 3463 178 
Q 3153 47 2828 -22 
Q 2503 -91 2169 -91 
Q 1331 -91 842 396 
Q 353 884 353 1716 
Q 353 2575 817 3079 
Q 1281 3584 2069 3584 
Q 2775 3584 3186 3129 
Q 3597 2675 3597 1894 
z
M 3022 2063 
Q 3016 2534 2758 2815 
Q 2500 3097 2075 3097 
Q 1594 3097 1305 2825 
Q 1016 2553 972 2059 
L 3022 2063 
z
" transform="scale(0.015625)"/>
      <path id="DejaVuSans-61" d="M 2194 1759 
Q 1497 1759 1228 1600 
Q 959 1441 959 1056 
Q 959 750 1161 570 
Q 1363 391 1709 391 
Q 2188 391 2477 730 
Q 2766 1069 2766 1631 
L 2766 1759 
L 2194 1759 
z
M 3341 1997 
L 3341 0 
L 2766 0 
L 2766 531 
Q 2569 213 2275 61 
Q 1981 -91 1556 -91 
Q 1019 -91 701 211 
Q 384 513 384 1019 
Q 384 1609 779 1909 
Q 1175 2209 1959 2209 
L 2766 2209 
L 2766 2266 
Q 2766 2663 2505 2880 
Q 2244 3097 1772 3097 
Q 1472 3097 1187 3025 
Q 903 2953 641 2809 
L 641 3341 
Q 956 3463 1253 3523 
Q 1550 3584 1831 3584 
Q 2591 3584 2966 3190 
Q 3341 2797 3341 1997 
z
" transform="scale(0.015625)"/>
      <path id="DejaVuSans-6c" d="M 603 4863 
L 1178 4863 
L 1178 0 
L 603 0 
L 603 4863 
z
" transform="scale(0.015625)"/>
      <path id="DejaVuSans-20" transform="scale(0.015625)"/>
      <path id="DejaVuSans-53" d="M 3425 4513 
L 3425 3897 
Q 3066 4069 2747 4153 
Q 2428 4238 2131 4238 
Q 1616 4238 1336 4038 
Q 1056 3838 1056 3469 
Q 1056 3159 1242 3001 
Q 1428 2844 1947 2747 
L 2328 2669 
Q 3034 2534 3370 2195 
Q 3706 1856 3706 1288 
Q 3706 609 3251 259 
Q 2797 -91 1919 -91 
Q 1588 -91 1214 -16 
Q 841 59 441 206 
L 441 856 
Q 825 641 1194 531 
Q 1563 422 1919 422 
Q 2459 422 2753 634 
Q 3047 847 3047 1241 
Q 3047 1584 2836 1778 
Q 2625 1972 2144 2069 
L 1759 2144 
Q 1053 2284 737 2584 
Q 422 2884 422 3419 
Q 422 4038 858 4394 
Q 1294 4750 2059 4750 
Q 2388 4750 2728 4690 
Q 3069 4631 3425 4513 
z
" transform="scale(0.015625)"/>
      <path id="DejaVuSans-70" d="M 1159 525 
L 1159 -1331 
L 581 -1331 
L 581 3500 
L 1159 3500 
L 1159 2969 
Q 1341 3281 1617 3432 
Q 1894 3584 2278 3584 
Q 2916 3584 3314 3078 
Q 3713 2572 3713 1747 
Q 3713 922 3314 415 
Q 2916 -91 2278 -91 
Q 1894 -91 1617 61 
Q 1341 213 1159 525 
z
M 3116 1747 
Q 3116 2381 2855 2742 
Q 2594 3103 2138 3103 
Q 1681 3103 1420 2742 
Q 1159 2381 1159 1747 
Q 1159 1113 1420 752 
Q 1681 391 2138 391 
Q 2594 391 2855 752 
Q 3116 1113 3116 1747 
z
" transform="scale(0.015625)"/>
      <path id="DejaVuSans-63" d="M 3122 3366 
L 3122 2828 
Q 2878 2963 2633 3030 
Q 2388 3097 2138 3097 
Q 1578 3097 1268 2742 
Q 959 2388 959 1747 
Q 959 1106 1268 751 
Q 1578 397 2138 397 
Q 2388 397 2633 464 
Q 2878 531 3122 666 
L 3122 134 
Q 2881 22 2623 -34 
Q 2366 -91 2075 -91 
Q 1284 -91 818 406 
Q 353 903 353 1747 
Q 353 2603 823 3093 
Q 1294 3584 2113 3584 
Q 2378 3584 2631 3529 
Q 2884 3475 3122 3366 
z
" transform="scale(0.015625)"/>
      <path id="DejaVuSans-50" d="M 1259 4147 
L 1259 2394 
L 2053 2394 
Q 2494 2394 2734 2622 
Q 2975 2850 2975 3272 
Q 2975 3691 2734 3919 
Q 2494 4147 2053 4147 
L 1259 4147 
z
M 628 4666 
L 2053 4666 
Q 2838 4666 3239 4311 
Q 3641 3956 3641 3272 
Q 3641 2581 3239 2228 
Q 2838 1875 2053 1875 
L 1259 1875 
L 1259 0 
L 628 0 
L 628 4666 
z
" transform="scale(0.015625)"/>
      <path id="DejaVuSans-6f" d="M 1959 3097 
Q 1497 3097 1228 2736 
Q 959 2375 959 1747 
Q 959 1119 1226 758 
Q 1494 397 1959 397 
Q 2419 397 2687 759 
Q 2956 1122 2956 1747 
Q 2956 2369 2687 2733 
Q 2419 3097 1959 3097 
z
M 1959 3584 
Q 2709 3584 3137 3096 
Q 3566 2609 3566 1747 
Q 3566 888 3137 398 
Q 2709 -91 1959 -91 
Q 1206 -91 779 398 
Q 353 888 353 1747 
Q 353 2609 779 3096 
Q 1206 3584 1959 3584 
z
" transform="scale(0.015625)"/>
      <path id="DejaVuSans-6a" d="M 603 3500 
L 1178 3500 
L 1178 -63 
Q 1178 -731 923 -1031 
Q 669 -1331 103 -1331 
L -116 -1331 
L -116 -844 
L 38 -844 
Q 366 -844 484 -692 
Q 603 -541 603 -63 
L 603 3500 
z
M 603 4863 
L 1178 4863 
L 1178 4134 
L 603 4134 
L 603 4863 
z
" transform="scale(0.015625)"/>
      <path id="DejaVuSans-74" d="M 1172 4494 
L 1172 3500 
L 2356 3500 
L 2356 3053 
L 1172 3053 
L 1172 1153 
Q 1172 725 1289 603 
Q 1406 481 1766 481 
L 2356 481 
L 2356 0 
L 1766 0 
Q 1100 0 847 248 
Q 594 497 594 1153 
L 594 3053 
L 172 3053 
L 172 3500 
L 594 3500 
L 594 4494 
L 1172 4494 
z
" transform="scale(0.015625)"/>
      <path id="DejaVuSans-69" d="M 603 3500 
L 1178 3500 
L 1178 0 
L 603 0 
L 603 3500 
z
M 603 4863 
L 1178 4863 
L 1178 4134 
L 603 4134 
L 603 4863 
z
" transform="scale(0.015625)"/>
      <path id="DejaVuSans-6e" d="M 3513 2113 
L 3513 0 
L 2938 0 
L 2938 2094 
Q 2938 2591 2744 2837 
Q 2550 3084 2163 3084 
Q 1697 3084 1428 2787 
Q 1159 2491 1159 1978 
L 1159 0 
L 581 0 
L 581 3500 
L 1159 3500 
L 1159 2956 
Q 1366 3272 1645 3428 
Q 1925 3584 2291 3584 
Q 2894 3584 3203 3211 
Q 3513 2838 3513 2113 
z
" transform="scale(0.015625)"/>
      <path id="DejaVuSans-2d" d="M 313 2009 
L 1997 2009 
L 1997 1497 
L 313 1497 
L 313 2009 
z
" transform="scale(0.015625)"/>
      <path id="DejaVuSans-77" d="M 269 3500 
L 844 3500 
L 1563 769 
L 2278 3500 
L 2956 3500 
L 3675 769 
L 4391 3500 
L 4966 3500 
L 4050 0 
L 3372 0 
L 2619 2869 
L 1863 0 
L 1184 0 
L 269 3500 
z
" transform="scale(0.015625)"/>
      <path id="DejaVuSans-68" d="M 3513 2113 
L 3513 0 
L 2938 0 
L 2938 2094 
Q 2938 2591 2744 2837 
Q 2550 3084 2163 3084 
Q 1697 3084 1428 2787 
Q 1159 2491 1159 1978 
L 1159 0 
L 581 0 
L 581 4863 
L 1159 4863 
L 1159 2956 
Q 1366 3272 1645 3428 
Q 1925 3584 2291 3584 
Q 2894 3584 3203 3211 
Q 3513 2838 3513 2113 
z
" transform="scale(0.015625)"/>
      <path id="DejaVuSans-3d" d="M 678 2906 
L 4684 2906 
L 4684 2381 
L 678 2381 
L 678 2906 
z
M 678 1631 
L 4684 1631 
L 4684 1100 
L 678 1100 
L 678 1631 
z
" transform="scale(0.015625)"/>
      <path id="DejaVuSans-31" d="M 794 531 
L 1825 531 
L 1825 4091 
L 703 3866 
L 703 4441 
L 1819 4666 
L 2450 4666 
L 2450 531 
L 3481 531 
L 3481 0 
L 794 0 
L 794 531 
z
" transform="scale(0.015625)"/>
     </defs>
     <use xlink:href="#DejaVuSans-52"/>
     <use xlink:href="#DejaVuSans-65" x="64.982422"/>
     <use xlink:href="#DejaVuSans-61" x="126.505859"/>
     <use xlink:href="#DejaVuSans-6c" x="187.785156"/>
     <use xlink:href="#DejaVuSans-20" x="215.568359"/>
     <use xlink:href="#DejaVuSans-53" x="247.355469"/>
     <use xlink:href="#DejaVuSans-70" x="310.832031"/>
     <use xlink:href="#DejaVuSans-61" x="374.308594"/>
     <use xlink:href="#DejaVuSans-63" x="435.587891"/>
     <use xlink:href="#DejaVuSans-65" x="490.568359"/>
     <use xlink:href="#DejaVuSans-20" x="552.091797"/>
     <use xlink:href="#DejaVuSans-50" x="583.878906"/>
     <use xlink:href="#DejaVuSans-72" x="642.431641"/>
     <use xlink:href="#DejaVuSans-6f" x="681.294922"/>
     <use xlink:href="#DejaVuSans-6a" x="742.476562"/>
     <use xlink:href="#DejaVuSans-65" x="770.259766"/>
     <use xlink:href="#DejaVuSans-63" x="831.783203"/>
     <use xlink:href="#DejaVuSans-74" x="886.763672"/>
     <use xlink:href="#DejaVuSans-69" x="925.972656"/>
     <use xlink:href="#DejaVuSans-6f" x="953.755859"/>
     <use xlink:href="#DejaVuSans-6e" x="1014.9375"/>
     <use xlink:href="#DejaVuSans-20" x="1078.316406"/>
     <use xlink:href="#DejaVuSans-6f" x="1110.103516"/>
     <use xlink:href="#DejaVuSans-6e" x="1171.285156"/>
     <use xlink:href="#DejaVuSans-74" x="1234.664062"/>
     <use xlink:href="#DejaVuSans-6f" x="1273.873047"/>
     <use xlink:href="#DejaVuSans-20" x="1335.054688"/>
     <use xlink:href="#DejaVuSans-72" x="1366.841797"/>
     <use xlink:href="#DejaVuSans-2d" x="1401.580078"/>
     <use xlink:href="#DejaVuSans-7a" x="1437.664062"/>
     <use xlink:href="#DejaVuSans-20" x="1490.154297"/>
     <use xlink:href="#DejaVuSans-70" x="1521.941406"/>
     <use xlink:href="#DejaVuSans-6c" x="1585.417969"/>
     <use xlink:href="#DejaVuSans-61" x="1613.201172"/>
     <use xlink:href="#DejaVuSans-6e" x="1674.480469"/>
     <use xlink:href="#DejaVuSans-65" x="1737.859375"/>
     <use xlink:href="#DejaVuSans-20" x="1799.382812"/>
     <use xlink:href="#DejaVuSans-77" x="1831.169922"/>
     <use xlink:href="#DejaVuSans-69" x="1912.957031"/>
     <use xlink:href="#DejaVuSans-74" x="1940.740234"/>
     <use xlink:href="#DejaVuSans-68" x="1979.949219"/>
     <use xlink:href="#DejaVuSans-20" x="2043.328125"/>
     <use xlink:href="#DejaVuSans-69" x="2075.115234"/>
     <use xlink:href="#DejaVuSans-6e" x="2102.898438"/>
     <use xlink:href="#DejaVuSans-69" x="2166.277344"/>
     <use xlink:href="#DejaVuSans-74" x="2194.060547"/>
     <use xlink:href="#DejaVuSans-69" x="2233.269531"/>
     <use xlink:href="#DejaVuSans-61" x="2261.052734"/>
     <use xlink:href="#DejaVuSans-6c" x="2322.332031"/>
     <use xlink:href="#DejaVuSans-20" x="2350.115234"/>
     <use xlink:href="#DejaVuSans-72" x="2381.902344"/>
     <use xlink:href="#DejaVuSans-20" x="2423.015625"/>
     <use xlink:href="#DejaVuSans-3d" x="2454.802734"/>
     <use xlink:href="#DejaVuSans-20" x="2538.591797"/>
     <use xlink:href="#DejaVuSans-30" x="2570.378906"/>
     <use xlink:href="#DejaVuSans-2e" x="2634.001953"/>
     <use xlink:href="#DejaVuSans-31" x="2665.789062"/>
     <use xlink:href="#DejaVuSans-34" x="2729.412109"/>
    </g>
   </g>
  </g>
 </g>
 <defs>
  <clipPath id="pe336bfe4d1">
   <rect x="57.6" y="41.472" width="357.12" height="266.112"/>
  </clipPath>
 </defs>
</svg>
