<?xml version="1.0" encoding="utf-8" standalone="no"?>
<!DOCTYPE svg PUBLIC "-//W3C//DTD SVG 1.1//EN"
  "http://www.w3.org/Graphics/SVG/1.1/DTD/svg11.dtd">
<svg xmlns:xlink="http://www.w3.org/1999/xlink" width="460.8pt" height="345.6pt" viewBox="0 0 460.8 345.6" xmlns="http://www.w3.org/2000/svg" version="1.1">
 <metadata>
  <rdf:RDF xmlns:dc="http://purl.org/dc/elements/1.1/" xmlns:cc="http://creativecommons.org/ns#" xmlns:rdf="http://www.w3.org/1999/02/22-rdf-syntax-ns#">
   <cc:Work>
    <dc:type rdf:resource="http://purl.org/dc/dcmitype/StillImage"/>
    <dc:date>2023-10-23T21:33:13.447946</dc:date>
    <dc:format>image/svg+xml</dc:format>
    <dc:creator>
     <cc:Agent>
      <dc:title>Matplotlib v3.8.0, https://matplotlib.org/</dc:title>
     </cc:Agent>
    </dc:creator>
   </cc:Work>
  </rdf:RDF>
 </metadata>
 <defs>
  <style type="text/css">*{stroke-linejoin: round; stroke-linecap: butt}</style>
 </defs>
 <g id="figure_1">
  <g id="patch_1">
   <path d="M 0 345.6 
L 460.8 345.6 
L 460.8 0 
L 0 0 
z
" style="fill: #ffffff"/>
  </g>
  <g id="axes_1">
   <g id="patch_2">
    <path d="M 57.6 307.584 
L 414.72 307.584 
L 414.72 41.472 
L 57.6 41.472 
z
" style="fill: #ffffff"/>
   </g>
   <g id="matplotlib.axis_1">
    <g id="xtick_1">
     <g id="line2d_1">
      <defs>
       <path id="m8c714594ca" d="M 0 0 
L 0 3.5 
" style="stroke: #000000; stroke-width: 0.8"/>
      </defs>
      <g>
       <use xlink:href="#m8c714594ca" x="93.312" y="307.584" style="stroke: #000000; stroke-width: 0.8"/>
      </g>
     </g>
     <g id="text_1">
      <!-- −0.4 -->
      <g transform="translate(81.170594 322.182437) scale(0.1 -0.1)">
       <defs>
        <path id="DejaVuSans-2212" d="M 678 2272 
L 4684 2272 
L 4684 1741 
L 678 1741 
L 678 2272 
z
" transform="scale(0.015625)"/>
        <path id="DejaVuSans-30" d="M 2034 4250 
Q 1547 4250 1301 3770 
Q 1056 3291 1056 2328 
Q 1056 1369 1301 889 
Q 1547 409 2034 409 
Q 2525 409 2770 889 
Q 3016 1369 3016 2328 
Q 3016 3291 2770 3770 
Q 2525 4250 2034 4250 
z
M 2034 4750 
Q 2819 4750 3233 4129 
Q 3647 3509 3647 2328 
Q 3647 1150 3233 529 
Q 2819 -91 2034 -91 
Q 1250 -91 836 529 
Q 422 1150 422 2328 
Q 422 3509 836 4129 
Q 1250 4750 2034 4750 
z
" transform="scale(0.015625)"/>
        <path id="DejaVuSans-2e" d="M 684 794 
L 1344 794 
L 1344 0 
L 684 0 
L 684 794 
z
" transform="scale(0.015625)"/>
        <path id="DejaVuSans-34" d="M 2419 4116 
L 825 1625 
L 2419 1625 
L 2419 4116 
z
M 2253 4666 
L 3047 4666 
L 3047 1625 
L 3713 1625 
L 3713 1100 
L 3047 1100 
L 3047 0 
L 2419 0 
L 2419 1100 
L 313 1100 
L 313 1709 
L 2253 4666 
z
" transform="scale(0.015625)"/>
       </defs>
       <use xlink:href="#DejaVuSans-2212"/>
       <use xlink:href="#DejaVuSans-30" x="83.789062"/>
       <use xlink:href="#DejaVuSans-2e" x="147.412109"/>
       <use xlink:href="#DejaVuSans-34" x="179.199219"/>
      </g>
     </g>
    </g>
    <g id="xtick_2">
     <g id="line2d_2">
      <g>
       <use xlink:href="#m8c714594ca" x="164.736" y="307.584" style="stroke: #000000; stroke-width: 0.8"/>
      </g>
     </g>
     <g id="text_2">
      <!-- −0.2 -->
      <g transform="translate(152.594594 322.182437) scale(0.1 -0.1)">
       <defs>
        <path id="DejaVuSans-32" d="M 1228 531 
L 3431 531 
L 3431 0 
L 469 0 
L 469 531 
Q 828 903 1448 1529 
Q 2069 2156 2228 2338 
Q 2531 2678 2651 2914 
Q 2772 3150 2772 3378 
Q 2772 3750 2511 3984 
Q 2250 4219 1831 4219 
Q 1534 4219 1204 4116 
Q 875 4013 500 3803 
L 500 4441 
Q 881 4594 1212 4672 
Q 1544 4750 1819 4750 
Q 2544 4750 2975 4387 
Q 3406 4025 3406 3419 
Q 3406 3131 3298 2873 
Q 3191 2616 2906 2266 
Q 2828 2175 2409 1742 
Q 1991 1309 1228 531 
z
" transform="scale(0.015625)"/>
       </defs>
       <use xlink:href="#DejaVuSans-2212"/>
       <use xlink:href="#DejaVuSans-30" x="83.789062"/>
       <use xlink:href="#DejaVuSans-2e" x="147.412109"/>
       <use xlink:href="#DejaVuSans-32" x="179.199219"/>
      </g>
     </g>
    </g>
    <g id="xtick_3">
     <g id="line2d_3">
      <g>
       <use xlink:href="#m8c714594ca" x="236.16" y="307.584" style="stroke: #000000; stroke-width: 0.8"/>
      </g>
     </g>
     <g id="text_3">
      <!-- 0.0 -->
      <g transform="translate(228.208438 322.182437) scale(0.1 -0.1)">
       <use xlink:href="#DejaVuSans-30"/>
       <use xlink:href="#DejaVuSans-2e" x="63.623047"/>
       <use xlink:href="#DejaVuSans-30" x="95.410156"/>
      </g>
     </g>
    </g>
    <g id="xtick_4">
     <g id="line2d_4">
      <g>
       <use xlink:href="#m8c714594ca" x="307.584" y="307.584" style="stroke: #000000; stroke-width: 0.8"/>
      </g>
     </g>
     <g id="text_4">
      <!-- 0.2 -->
      <g transform="translate(299.632437 322.182437) scale(0.1 -0.1)">
       <use xlink:href="#DejaVuSans-30"/>
       <use xlink:href="#DejaVuSans-2e" x="63.623047"/>
       <use xlink:href="#DejaVuSans-32" x="95.410156"/>
      </g>
     </g>
    </g>
    <g id="xtick_5">
     <g id="line2d_5">
      <g>
       <use xlink:href="#m8c714594ca" x="379.008" y="307.584" style="stroke: #000000; stroke-width: 0.8"/>
      </g>
     </g>
     <g id="text_5">
      <!-- 0.4 -->
      <g transform="translate(371.056437 322.182437) scale(0.1 -0.1)">
       <use xlink:href="#DejaVuSans-30"/>
       <use xlink:href="#DejaVuSans-2e" x="63.623047"/>
       <use xlink:href="#DejaVuSans-34" x="95.410156"/>
      </g>
     </g>
    </g>
    <g id="text_6">
     <!-- r -->
     <g transform="translate(234.104531 335.860562) scale(0.1 -0.1)">
      <defs>
       <path id="DejaVuSans-72" d="M 2631 2963 
Q 2534 3019 2420 3045 
Q 2306 3072 2169 3072 
Q 1681 3072 1420 2755 
Q 1159 2438 1159 1844 
L 1159 0 
L 581 0 
L 581 3500 
L 1159 3500 
L 1159 2956 
Q 1341 3275 1631 3429 
Q 1922 3584 2338 3584 
Q 2397 3584 2469 3576 
Q 2541 3569 2628 3553 
L 2631 2963 
z
" transform="scale(0.015625)"/>
      </defs>
      <use xlink:href="#DejaVuSans-72"/>
     </g>
    </g>
   </g>
   <g id="matplotlib.axis_2">
    <g id="ytick_1">
     <g id="line2d_6">
      <defs>
       <path id="m4244c54f4e" d="M 0 0 
L -3.5 0 
" style="stroke: #000000; stroke-width: 0.8"/>
      </defs>
      <g>
       <use xlink:href="#m4244c54f4e" x="57.6" y="280.9728" style="stroke: #000000; stroke-width: 0.8"/>
      </g>
     </g>
     <g id="text_7">
      <!-- −0.4 -->
      <g transform="translate(26.317187 284.772019) scale(0.1 -0.1)">
       <use xlink:href="#DejaVuSans-2212"/>
       <use xlink:href="#DejaVuSans-30" x="83.789062"/>
       <use xlink:href="#DejaVuSans-2e" x="147.412109"/>
       <use xlink:href="#DejaVuSans-34" x="179.199219"/>
      </g>
     </g>
    </g>
    <g id="ytick_2">
     <g id="line2d_7">
      <g>
       <use xlink:href="#m4244c54f4e" x="57.6" y="227.7504" style="stroke: #000000; stroke-width: 0.8"/>
      </g>
     </g>
     <g id="text_8">
      <!-- −0.2 -->
      <g transform="translate(26.317187 231.549619) scale(0.1 -0.1)">
       <use xlink:href="#DejaVuSans-2212"/>
       <use xlink:href="#DejaVuSans-30" x="83.789062"/>
       <use xlink:href="#DejaVuSans-2e" x="147.412109"/>
       <use xlink:href="#DejaVuSans-32" x="179.199219"/>
      </g>
     </g>
    </g>
    <g id="ytick_3">
     <g id="line2d_8">
      <g>
       <use xlink:href="#m4244c54f4e" x="57.6" y="174.528" style="stroke: #000000; stroke-width: 0.8"/>
      </g>
     </g>
     <g id="text_9">
      <!-- 0.0 -->
      <g transform="translate(34.696875 178.327219) scale(0.1 -0.1)">
       <use xlink:href="#DejaVuSans-30"/>
       <use xlink:href="#DejaVuSans-2e" x="63.623047"/>
       <use xlink:href="#DejaVuSans-30" x="95.410156"/>
      </g>
     </g>
    </g>
    <g id="ytick_4">
     <g id="line2d_9">
      <g>
       <use xlink:href="#m4244c54f4e" x="57.6" y="121.3056" style="stroke: #000000; stroke-width: 0.8"/>
      </g>
     </g>
     <g id="text_10">
      <!-- 0.2 -->
      <g transform="translate(34.696875 125.104819) scale(0.1 -0.1)">
       <use xlink:href="#DejaVuSans-30"/>
       <use xlink:href="#DejaVuSans-2e" x="63.623047"/>
       <use xlink:href="#DejaVuSans-32" x="95.410156"/>
      </g>
     </g>
    </g>
    <g id="ytick_5">
     <g id="line2d_10">
      <g>
       <use xlink:href="#m4244c54f4e" x="57.6" y="68.0832" style="stroke: #000000; stroke-width: 0.8"/>
      </g>
     </g>
     <g id="text_11">
      <!-- 0.4 -->
      <g transform="translate(34.696875 71.882419) scale(0.1 -0.1)">
       <use xlink:href="#DejaVuSans-30"/>
       <use xlink:href="#DejaVuSans-2e" x="63.623047"/>
       <use xlink:href="#DejaVuSans-34" x="95.410156"/>
      </g>
     </g>
    </g>
    <g id="text_12">
     <!-- z -->
     <g transform="translate(20.2375 177.152219) rotate(-90) scale(0.1 -0.1)">
      <defs>
       <path id="DejaVuSans-7a" d="M 353 3500 
L 3084 3500 
L 3084 2975 
L 922 459 
L 3084 459 
L 3084 0 
L 275 0 
L 275 525 
L 2438 3041 
L 353 3041 
L 353 3500 
z
" transform="scale(0.015625)"/>
      </defs>
      <use xlink:href="#DejaVuSans-7a"/>
     </g>
    </g>
   </g>
   <g id="line2d_11">
    <path d="M 208.384 174.528 
L 206.297264 169.409403 
L 196.922496 143.40513 
L 187.741955 108.368154 
L 183.364131 81.36469 
L 181.687223 66.782659 
L 180.614192 59.016124 
L 179.419913 55.132063 
L 177.97 55.110644 
L 176.342521 58.835409 
L 174.809111 66.345395 
L 173.903077 77.616119 
L 174.313504 92.117961 
L 176.955678 110.823795 
L 185.322397 140.521799 
L 203.071518 179.91702 
L 221.650519 211.163508 
L 237.193351 233.606761 
L 251.484424 252.052404 
L 262.619672 264.694796 
L 269.921148 270.821156 
L 271.520063 269.241046 
L 269.080464 261.760684 
L 262.620501 247.932749 
L 238.090417 199.462638 
L 224.342871 171.158593 
L 211.281797 142.596672 
L 185.074508 81.677613 
L 176.63118 65.561976 
L 169.304778 57.292513 
L 163.609042 56.615393 
L 159.748597 61.520597 
L 158.039779 71.59526 
L 159.594956 86.07896 
L 167.039723 108.770981 
L 185.866437 143.393315 
L 211.095153 178.523066 
L 234.053482 206.141522 
L 256.623849 230.715468 
L 274.572313 248.257523 
L 288.492372 259.312515 
L 294.632293 261.120001 
L 295.453204 255.895853 
L 291.569492 244.859207 
L 282.515316 226.421959 
L 268.085413 200.672466 
L 249.812488 170.651363 
L 230.638586 141.583834 
L 209.145855 112.501379 
L 186.252757 86.9649 
L 165.505702 70.274145 
L 149.922552 63.520872 
L 141.188515 65.053986 
L 140.350917 72.852126 
L 147.517347 86.018009 
L 163.512003 105.091427 
L 189.425116 131.364702 
L 224.24898 164.705473 
L 251.556869 190.517142 
L 275.681133 213.108511 
L 298.138426 233.442966 
L 314.316488 246.404496 
L 321.205195 249.497784 
L 321.930358 245.302385 
L 317.193519 235.105939 
L 306.091925 217.343373 
L 288.216918 192.718631 
L 265.364748 165.082878 
L 242.12599 140.656337 
L 212.764205 114.873491 
L 178.487417 91.808978 
L 149.819271 78.413518 
L 132.615372 73.931192 
L 128.039399 75.050992 
L 131.311871 79.498388 
L 141.639055 86.963885 
L 160.866963 99.319602 
L 189.31839 118.035351 
L 225.210758 144.007526 
L 258.830749 171.193051 
L 286.112512 195.256323 
L 308.878141 216.480301 
L 326.562496 233.253106 
L 336.127114 241.599368 
L 337.329025 241.290116 
L 333.648695 235.708159 
L 323.650081 223.208316 
L 306.1647 203.432592 
L 282.00961 178.776131 
L 254.708546 154.158228 
L 225.480767 131.444062 
L 189.680106 108.472508 
L 155.502296 91.100205 
L 133.051577 81.88184 
L 125.096948 79.046894 
L 125.313553 79.212791 
L 130.866961 81.330552 
L 143.916328 86.568729 
L 165.681897 96.438012 
L 195.953113 112.83106 
L 232.057634 136.90782 
L 268.369228 166.529835 
L 293.770468 190.645083 
L 313.780157 211.728708 
L 329.440604 229.806421 
L 337.394003 240.278565 
L 337.428072 241.723641 
L 332.430946 237.588105 
L 321.208454 226.952269 
L 302.393101 208.946514 
L 276.717982 185.339396 
L 247.413906 160.315157 
L 219.400683 138.489199 
L 187.689725 116.202412 
L 134.838772 82.672341 
L 127.879044 76.770209 
L 128.819059 74.64461 
L 135.414064 75.162575 
L 147.688378 78.655292 
L 168.250652 87.354231 
L 196.646802 103.783062 
L 230.170142 129.548981 
L 264.078159 162.826479 
L 286.538062 189.039277 
L 303.842022 211.86301 
L 317.46966 232.483253 
L 323.784747 245.534037 
L 322.536545 248.743312 
L 315.757953 245.334214 
L 303.217285 235.364854 
L 283.364363 217.629661 
L 228.663735 166.761855 
L 202.557982 142.434661 
L 175.219653 116.49402 
L 151.957159 92.305114 
L 140.857876 76.930893 
L 138.589032 68.678587 
L 141.985969 64.477683 
L 150.597349 64.749703 
L 164.485741 70.856837 
L 186.565043 87.774891 
L 213.715979 117.33592 
L 242.407889 156.474806 
L 261.55465 186.069576 
L 277.951528 213.610327 
L 290.833244 237.772671 
L 297.4146 254.150239 
L 297.117664 259.97395 
L 292.06979 259.252607 
L 282.531199 252.562384 
L 266.471078 237.970561 
L 244.941561 215.792941 
L 221.694147 189.513169 
L 201.687375 164.610687 
L 182.38943 137.165741 
L 165.471091 106.243519 
L 157.896246 83.308677 
L 156.756532 68.612434 
L 159.411026 59.434749 
L 165.49831 56.516669 
L 173.320055 62.246161 
L 181.580528 75.02797 
L 191.145464 94.615251 
L 203.174555 121.53902 
L 218.780069 155.810693 
L 233.98438 187.379126 
L 247.517975 214.288108 
L 259.38627 237.581411 
L 268.634317 256.598346 
L 272.835332 267.926259 
L 271.687594 270.440135 
L 266.49791 266.904781 
L 256.56556 256.552662 
L 241.67642 238.350011 
L 224.663208 214.857688 
L 209.500259 191.060115 
L 193.885548 161.848118 
L 181.566124 131.084429 
L 174.240588 99.784024 
L 172.928884 77.534487 
L 174.615668 62.239706 
L 176.636632 56.0723 
L 178.592997 54.832293 
L 180.14186 58.167247 
L 181.462907 65.327334 
L 182.891775 75.815758 
L 185.054226 90.562631 
L 189.005194 111.154751 
L 196.528194 139.315231 
L 209.861507 175.714806 
L 224.784971 208.060548 
L 236.933471 231.114709 
L 248.010419 250.588818 
L 261.377761 273.165958 
L 261.790872 274.338001 
L 258.942363 270.463108 
L 252.062665 260.208079 
L 240.887903 242.443545 
L 229.121804 222.216609 
L 217.564378 200.27828 
L 204.716499 171.995059 
L 193.3842 140.18309 
L 185.129618 104.887982 
L 182.073305 78.940156 
L 181.056348 59.789946 
L 180.659551 55.884509 
L 180.028578 54.620275 
L 179.092682 56.339959 
L 177.958363 61.412734 
L 176.9536 69.823759 
L 176.548673 81.617278 
L 177.294408 95.870677 
L 180.477835 116.518454 
L 189.404555 147.497913 
L 207.46453 187.850494 
L 224.743588 217.592456 
L 238.592878 238.30737 
L 251.069409 255.142698 
L 260.996401 267.027335 
L 266.988841 272.312124 
L 267.706085 270.366063 
L 264.841983 263.054905 
L 257.905472 249.004711 
L 246.815065 227.507026 
L 233.484412 200.996709 
L 221.062267 174.648063 
L 208.411543 145.208689 
L 195.949957 112.557593 
L 185.401256 82.576859 
L 178.861955 66.123074 
L 173.702522 57.738731 
L 168.969546 55.510952 
L 165.172721 58.890164 
L 162.674696 67.156043 
L 162.328687 79.908715 
L 164.861861 95.697693 
L 174.642656 123.570118 
L 195.453551 161.144312 
L 218.134278 193.073758 
L 238.326416 217.896168 
L 257.600681 239.267899 
L 273.516366 254.844169 
L 284.968123 263.292597 
L 289.108627 262.941955 
L 288.459332 256.353264 
L 283.728301 244.340358 
L 273.79476 224.316335 
L 259.089335 197.40869 
L 241.468786 166.918737 
L 223.805633 137.977803 
L 203.704244 107.885754 
L 183.613063 82.738071 
L 166.119957 67.032349 
L 152.997151 61.121863 
L 145.338082 63.205408 
L 144.023211 72.15652 
L 153.069134 91.380051 
L 172.108092 116.142537 
L 200.777598 147.396943 
L 230.253782 177.284713 
L 256.386595 202.881055 
L 279.817107 225.03264 
L 299.93171 242.664553 
L 312.811785 251.42895 
L 316.814827 250.919666 
L 315.616152 244.408189 
L 309.337938 231.666344 
L 296.519427 210.974027 
L 277.516716 184.238678 
L 254.810451 156.128016 
L 231.67041 131.318028 
L 201.719698 104.954197 
L 169.988325 84.22185 
L 145.633221 73.820157 
L 132.078686 71.811519 
L 130.076847 74.654902 
L 135.080896 80.726804 
L 147.64036 90.643629 
L 169.427368 106.168232 
L 200.352409 128.641426 
L 237.692526 158.018705 
L 266.237206 182.363924 
L 292.266704 205.833258 
L 313.964407 225.923526 
L 328.983905 239.342494 
L 334.833234 243.259361 
L 334.166035 239.911403 
L 327.928332 230.691404 
L 314.63705 213.942839 
L 294.068761 190.758953 
L 268.33766 165.05427 
L 242.611288 142.662597 
L 209.664581 118.56667 
L 172.780734 97.294168 
L 143.667414 84.463687 
L 128.541907 79.318811 
L 124.682738 78.578668 
L 127.770552 80.376727 
L 137.46051 84.730918 
L 155.640198 93.12439 
L 182.734949 107.236858 
L 217.273099 128.672744 
L 254.729543 156.815072 
L 282.280253 180.953927 
L 306.191098 204.318303 
L 324.636284 223.949981 
L 336.244522 237.273365 
L 339.21934 241.303706 
L 335.832401 238.367042 
L 310.337678 212.960034 
L 286.572851 190.378257 
L 258.071446 165.390753 
L 230.223456 143.341843 
L 196.806807 119.946341 
L 162.883338 99.263361 
L 138.031844 85.339092 
L 127.649541 78.829781 
L 126.485613 76.542496 
L 131.38418 76.703083 
L 141.534082 79.366444 
L 159.846992 86.317561 
L 186.455246 99.790031 
L 219.548662 121.840899 
L 254.664986 151.943108 
L 280.601771 178.838867 
L 302.667439 205.147792 
L 318.350557 226.472495 
L 327.27004 241.346048 
L 328.185629 246.384943 
L 323.266626 244.691905 
L 313.187649 236.939429 
L 295.769525 221.579949 
L 271.386778 199.289303 
L 242.638256 173.196728 
L 214.155773 147.974763 
L 186.129542 123.679571 
L 158.538929 99.399696 
L 140.474338 80.955962 
L 135.341178 71.894554 
L 137.502349 67.175419 
L 145.036921 66.887197 
L 157.65173 71.039776 
L 178.21448 83.193866 
L 205.551803 106.807223 
L 236.267745 141.880022 
L 259.899039 174.133141 
L 278.745073 202.971669 
L 293.436831 228.098389 
L 302.59763 247.260074 
L 304.349373 255.880978 
L 300.394903 257.238188 
L 291.539825 251.899306 
L 276.562554 239.19546 
L 255.328492 218.618957 
L 230.606581 192.615279 
L 207.864615 166.827853 
L 186.53027 140.140798 
L 166.650782 110.424311 
L 155.381464 86.221573 
L 152.31827 70.820112 
L 154.262822 61.036672 
L 160.124284 57.520053 
L 169.367849 62.012982 
L 180.446441 75.176818 
L 193.005244 96.061443 
L 208.037658 124.755953 
L 226.298969 160.72249 
L 267.664715 241.316731 
L 275.661947 259.01978 
L 277.706977 267.100126 
L 274.894258 268.214872 
L 267.83997 262.89199 
L 255.528094 250.184152 
L 238.465324 229.783634 
L 220.420577 205.451403 
L 203.841657 179.880136 
L 187.829904 149.898122 
L 175.512472 117.433637 
L 170.241079 90.62947 
L 170.132205 70.3097 
L 172.683765 58.605637 
L 175.329834 54.919468 
L 177.934348 56.409515 
L 180.260775 62.574455 
L 182.644605 72.974286 
L 185.692459 87.93174 
L 190.436908 108.663112 
L 198.49613 136.640638 
L 211.803692 172.44809 
L 226.549459 204.924907 
L 238.248207 227.835521 
L 248.954204 247.506933 
L 257.432886 262.701838 
L 262.454491 272.204007 
L 262.801295 274.089172 
L 259.816298 270.83637 
L 252.74133 261.268988 
L 241.214487 244.126459 
L 229.027793 224.312584 
L 217.042755 202.70273 
L 203.699348 174.724176 
L 191.896815 142.977167 
L 183.560657 108.047317 
L 180.779507 81.463789 
L 180.552189 68.538414 
L 180.736368 54.613849 
L 180.409867 55.730897 
L 179.853102 59.419877 
L 179.220574 66.023607 
L 178.825871 75.422937 
L 179.061796 87.400856 
L 180.524567 103.031359 
L 185.231681 127.35481 
L 196.372082 161.465064 
L 212.734706 196.667928 
L 228.590947 224.30791 
L 240.567372 242.78512 
L 251.107168 257.671529 
L 259.94917 268.919907 
L 264.690712 273.407097 
L 264.51333 270.909882 
L 261.095569 263.546825 
L 241.888292 227.105393 
L 230.504638 204.563857 
L 219.720158 181.563215 
L 207.355412 152.035431 
L 196.033714 120.095414 
L 186.374781 87.17678 
L 181.152153 68.899976 
L 177.319587 59.110325 
L 173.641617 55.140154 
L 170.340804 56.671067 
L 167.645024 62.835182 
L 166.115686 73.475147 
L 166.647194 87.966952 
L 170.377403 107.102927 
L 182.286917 138.923318 
L 204.978436 179.005825 
L 226.133301 208.764253 
L 243.0622 229.793926 
L 258.309531 246.940054 
L 272.137332 260.476148 
L 281.094046 266.346998 
L 283.340133 263.91351 
L 280.968255 255.123915 
L 274.249747 240.035178 
L 262.613215 217.190465 
L 247.269087 188.562455 
L 230.513004 158.007196 
L 215.024787 130.488561 
L 196.413436 99.611184 
L 179.583524 76.274148 
L 165.630699 62.97676 
L 155.365619 59.066104 
L 149.323432 62.43636 
L 148.075954 72.111834 
L 153.78617 89.096104 
L 170.500148 115.839144 
L 197.396246 148.935845 
L 225.403367 179.521131 
L 249.731685 204.503627 
L 271.50297 225.744241 
L 291.655295 243.846827 
L 305.487909 253.685755 
L 310.437376 254.123301 
L 310.326736 248.466207 
L 305.70319 237.410559 
L 294.991989 218.247773 
L 278.146066 192.217338 
L 256.991762 163.182202 
L 235.848154 137.585069 
L 209.114198 110.227909 
L 179.894934 87.145253 
L 154.365035 73.406977 
L 137.927575 69.179611 
L 132.339965 71.577241 
L 135.852859 78.804122 
L 146.796426 89.328727 
L 166.837055 105.554494 
L 196.328818 128.78776 
L 233.086826 159.02857 
L 261.189331 183.477808 
L 287.112535 206.906575 
L 309.40799 227.269118 
L 325.126019 240.808865 
L 331.588755 244.718862 
L 331.537626 241.26426 
L 326.033499 232.10177 
L 313.645463 215.308708 
L 294.059689 191.89808 
L 269.219003 165.716367 
L 244.052942 142.68126 
L 212.158661 118.251134 
L 175.262019 96.245166 
L 145.642438 83.206143 
L 128.753753 78.03553 
L 125.241088 77.993376 
L 128.333877 80.359001 
L 138.163376 85.456954 
L 156.632801 94.779775 
L 184.113678 109.936402 
L 219.062165 132.367944 
L 256.786688 161.101215 
L 282.919733 183.878905 
L 305.566695 205.498942 
L 324.433351 224.792069 
L 339.610068 241.122271 
L 327.829502 228.416091 
L 311.654595 211.647258 
L 288.195973 188.820857 
L 263.107244 166.45772 
L 236.216493 144.893278 
L 202.486928 121.302411 
L 167.391472 100.517556 
L 127.745747 80.001362 
L 125.337794 77.811572 
L 129.74918 78.213264 
L 139.78721 81.107987 
L 158.005773 88.088251 
L 184.69789 101.208348 
L 218.194936 122.441063 
L 254.013418 151.383407 
L 281.347923 178.078444 
L 304.64719 204.260594 
L 321.035017 225.124805 
L 330.656559 239.682597 
L 332.082132 244.6045 
L 327.404114 242.609232 
L 317.436039 234.527705 
L 300.072006 218.911838 
L 275.615629 196.5725 
L 246.63095 170.793843 
L 217.860444 146.369324 
L 188.878873 122.933682 
L 159.423799 99.705523 
L 139.285427 82.426123 
L 132.708036 73.88729 
L 133.553186 69.957827 
L 139.589442 69.229044 
L 151.210381 72.133687 
L 170.092068 81.030561 
L 196.533979 99.358885 
L 227.835692 128.828486 
L 256.616377 162.821305 
L 277.077176 190.845984 
L 293.160151 215.482443 
L 305.544972 237.404743 
L 310.769976 251.165867 
L 308.851825 254.780991 
L 301.495638 251.500386 
L 288.648678 241.486844 
L 268.932045 223.487953 
L 244.001982 198.903527 
L 218.038867 171.846614 
L 195.287312 146.623684 
L 172.397959 118.440152 
L 154.862005 91.150274 
L 148.544253 74.371515 
L 148.428866 64.849891 
L 152.068232 59.839684 
L 161.081504 60.34567 
L 175.696548 71.826808 
L 192.142329 93.163703 
L 210.370633 122.591099 
L 231.175482 159.423283 
L 247.823947 189.850502 
L 262.301559 216.89181 
L 274.717439 241.327019 
L 282.021966 258.488299 
L 283.052293 265.379089 
L 279.519655 265.885587 
L 271.800755 260.317191 
L 258.409302 247.180353 
L 240.046471 226.318351 
L 220.513261 201.384611 
L 202.939876 175.914789 
L 185.911665 146.338535 
L 172.45552 114.002755 
L 166.767121 88.367389 
L 166.560554 69.151652 
L 169.298574 58.501317 
L 172.734523 55.066533 
L 176.389841 57.493842 
L 179.907976 65.124484 
L 183.763188 77.730996 
L 188.738906 95.80527 
L 196.096859 120.45542 
L 207.504849 152.610203 
L 222.026504 186.842809 
L 235.301456 214.407806 
L 246.795532 236.621417 
L 256.275395 254.433902 
L 263.054892 267.683088 
L 265.009764 273.078029 
L 262.671562 271.933587 
L 256.566222 264.844643 
L 245.718554 250.24171 
L 233.169229 231.573366 
L 219.863493 209.606051 
L 205.977069 183.213918 
L 192.917822 152.247285 
L 183.387125 119.197412 
L 179.303805 90.571651 
L 178.975842 71.197464 
L 179.603266 61.912352 
L 180.308662 56.386931 
L 180.741596 54.621447 
L 180.854663 55.531007 
L 180.523663 69.062118 
L 180.594588 77.172873 
L 181.134976 88.008511 
L 183.061136 105.135125 
L 188.218844 130.231614 
L 199.531096 164.697605 
L 215.451303 199.670467 
L 230.286492 226.46214 
L 241.744154 244.941292 
L 251.073878 258.863927 
L 259.111367 269.901893 
L 262.969767 274.120761 
L 261.767671 270.669908 
L 256.911046 261.64871 
L 247.745761 245.19682 
L 235.387844 222.247564 
L 223.083876 197.560591 
L 210.997729 170.317272 
L 199.389433 139.165498 
L 189.481979 104.642058 
L 180.845809 64.901241 
L 178.442854 57.43211 
L 175.94829 54.816103 
L 173.450379 56.880775 
L 171.222638 63.191486 
L 169.784149 73.705791 
L 169.946825 87.949669 
L 172.450833 105.250648 
L 181.197217 134.365534 
L 199.969266 173.218293 
L 220.205264 205.057835 
L 237.466096 228.4053 
L 253.590019 247.880541 
L 266.449413 261.470174 
L 275.275845 268.292848 
L 277.815808 266.944717 
L 275.912389 259.347955 
L 269.932808 245.724822 
L 259.243984 224.332712 
L 229.543836 166.85761 
L 215.55589 139.395585 
L 199.239525 107.614356 
L 184.179368 80.914422 
L 171.908167 64.504358 
L 162.422921 57.928252 
L 155.855109 59.040038 
L 152.541207 65.875889 
L 153.202322 78.462079 
L 160.065488 97.907939 
L 178.557944 129.034197 
L 207.380999 166.135066 
L 232.58562 194.619679 
L 257.308996 220.453034 
L 277.669842 240.042362 
L 294.092353 253.597899 
L 302.395974 257.547225 
L 304.483311 253.544086 
L 301.001769 243.012731 
L 292.175252 225.549637 
L 277.405963 200.628522 
L 258.032628 171.293435 
L 237.27357 143.084466 
L 213.575511 115.139427 
L 187.182022 90.118891 
L 162.537618 73.494881 
L 144.734492 66.903564 
L 135.80669 68.499133 
L 136.49379 75.110108 
L 143.944724 85.057495 
L 160.077592 100.79338 
L 185.933873 123.454316 
L 220.526828 153.465032 
L 249.524612 179.282757 
L 300.02666 225.303445 
L 317.874164 240.661479 
L 326.639865 246.376677 
L 328.519884 244.675924 
L 325.083378 237.018085 
L 315.503534 222.271502 
L 298.774242 200.196284 
L 276.005219 173.754012 
L 250.970327 148.450312 
L 222.339437 124.009532 
L 186.85607 100.072 
L 154.219888 84.013374 
L 133.598521 77.204144 
L 126.714753 76.474682 
L 127.298899 78.554071 
L 133.872599 82.942281 
L 148.617622 91.238927 
L 172.496319 104.830504 
L 204.909899 125.285548 
L 242.505498 152.727867 
L 273.295664 178.391179 
L 300.612884 203.50002 
L 320.896219 223.388544 
L 334.439534 236.980502 
L 339.082502 241.282405 
L 337.126913 238.365202 
L 329.522801 229.448748 
L 314.636345 213.155509 
L 292.369359 190.581172 
L 265.032443 165.547117 
L 237.926438 143.586134 
L 203.907647 119.931331 
L 168.118428 99.385232 
L 140.584243 86.142349 
L 127.442871 80.21906 
L 124.741551 78.549519 
L 128.948607 79.417577 
L 139.274069 82.811578 
L 157.894017 90.274636 
L 185.118121 103.741653 
L 219.236447 125.033494 
L 255.63331 153.592149 
L 282.91261 179.212101 
L 306.246365 204.207501 
L 323.193991 224.550926 
L 333.339249 238.615774 
L 335.15108 243.194736 
L 330.746893 240.82945 
L 320.904464 232.365453 
L 279.170587 193.989702 
L 250.12518 168.510635 
L 221.443956 144.962794 
L 191.882386 122.393496 
L 160.793526 100.072012 
L 138.740988 83.822446 
L 130.681274 75.789631 
L 130.707235 72.342415 
L 135.854231 71.693426 
L 146.672854 74.09903 
L 164.711941 81.48024 
L 190.660953 96.857002 
L 222.316221 122.401555 
L 255.559983 157.065592 
L 276.906609 183.538896 
L 295.130772 209.03824 
L 309.114517 231.45359 
L 316.320043 246.771156 
L 315.978011 251.858911 
L 310.298258 250.240944 
L 299.552196 242.469 
L 281.681538 226.862311 
L 257.495034 204.063333 
L 230.112656 177.242449 
L 204.77831 151.612768 
L 180.051563 125.223145 
L 157.816031 98.226477 
L 146.445866 79.329568 
L 143.720454 68.407612 
L 146.476103 62.228606 
L 153.915564 61.262529 
L 167.401191 67.894093 
L 187.433614 87.024189 
L 209.725836 116.553982 
L 233.602138 153.931375 
L 251.367487 184.014939 
L 267.694842 213.10824 
L 280.740267 238.195281 
L 288.209801 255.83276 
L 289.076965 262.842421 
L 285.262085 263.473665 
L 277.087104 257.976963 
L 263.029465 244.923128 
L 243.619378 224.053526 
L 222.406094 198.601561 
L 204.004612 173.877541 
L 185.652721 145.049275 
L 170.441424 113.388351 
L 163.351757 88.008207 
L 162.331695 70.962408 
L 164.742974 59.87 
L 169.084484 55.514557 
L 174.180285 58.252963 
L 179.279762 66.997124 
L 185.000029 81.471284 
L 192.245556 102.157842 
L 202.356792 129.934483 
L 216.726941 165.00518 
L 231.550209 197.113737 
L 243.680231 221.470721 
L 254.125585 241.743862 
L 262.991329 259.221228 
L 267.565625 269.943037 
L 267.114838 272.349118 
L 263.03894 269.178885 
L 254.48628 259.434713 
L 241.190931 241.947366 
L 227.282652 221.542268 
L 213.69901 199.179737 
L 199.037613 170.76734 
L 186.591494 139.190845 
L 178.297563 103.976351 
L 176.579712 79.762056 
L 177.400727 65.541673 
L 178.647412 58.058524 
L 179.824719 54.782374 
L 180.60926 55.639045 
L 181.054881 59.794426 
L 181.783156 74.624248 
L 182.715299 86.640157 
L 184.992217 104.125535 
L 190.259429 129.047247 
L 201.079244 162.807334 
L 216.36863 197.855419 
L 230.654263 224.945166 
L 241.709316 243.775395 
L 250.642321 257.995297 
L 258.33856 269.558748 
L 261.94324 274.456339 
L 260.577871 271.706009 
L 246.207536 247.421967 
L 233.702166 225.103464 
L 221.58128 201.478441 
L 209.270729 174.192656 
L 197.657234 142.760541 
L 188.409928 108.313416 
L 183.6699 81.382672 
L 181.643553 66.592074 
L 180.263557 58.709176 
L 178.759034 55.007296 
L 177.031557 55.444611 
L 175.20655 59.803552 
L 173.621436 68.032469 
L 172.869227 80.103082 
L 173.666294 95.205413 
L 177.38858 116.319121 
L 188.108445 148.79224 
L 206.160833 185.274975 
L 224.836222 215.054961 
L 239.746852 235.766187 
L 253.308252 252.715146 
L 264.58597 265.043996 
L 271.643096 270.392304 
L 272.908187 268.105936 
L 270.181692 260.009685 
L 263.327289 245.348894 
L 238.08167 195.51315 
L 224.041375 166.840406 
L 210.708695 138.234854 
L 196.136916 105.669466 
L 183.592579 78.865072 
L 173.83743 62.918992 
L 166.298353 56.762783 
L 160.743406 57.874402 
L 157.391627 64.39214 
L 156.825286 76.099006 
L 160.042607 91.757115 
L 172.645587 120.731921 
L 196.546428 157.676301 
L 220.790673 188.381297 
L 241.998235 212.53496 
L 262.217661 233.712466 
L 280.069087 250.444345 
L 292.788772 259.558176 
L 297.485599 259.550337 
L 297.272461 253.467231 
L 292.918165 242.130659 
L 283.047344 222.692173 
L 267.782506 196.213454 
L 248.830209 166.089073 
L 229.546466 138.072977 
L 206.817895 109.055053 
L 183.155902 84.724835 
L 162.031727 69.502252 
L 146.836926 64.105389 
L 139.183704 66.750998 
L 140.095803 75.349562 
L 148.523024 88.176689 
L 166.005645 107.34713 
L 193.414345 133.843446 
L 281.514186 215.911376 
L 303.2083 235.340234 
L 317.96788 246.773668 
L 323.401071 248.553045 
L 323.219728 243.753879 
L 317.957766 233.323114 
L 306.044279 214.995807 
L 287.35158 190.076089 
L 266.586336 165.607458 
L 243.754258 142.021917 
L 214.250344 116.468548 
L 179.386971 93.232737 
L 150.022524 79.508349 
L 132.366148 74.686405 
L 127.56737 75.475336 
L 130.527234 79.46295 
L 140.436555 86.365251 
L 159.170279 97.991227 
L 187.114011 115.823817 
L 222.6393 140.91582 
L 256.600612 167.936498 
L 283.794165 191.719024 
L 306.629441 212.986331 
L 325.133372 230.742737 
L 335.887955 240.62881 
L 338.019489 241.592064 
L 335.038539 236.940809 
L 326.09667 225.826003 
L 309.719 207.325254 
L 286.340147 183.327179 
L 258.998645 158.376248 
L 231.442093 136.476954 
L 195.981732 112.863981 
L 160.578462 93.995813 
L 135.914895 83.305484 
L 124.773821 78.945356 
L 129.434491 80.55782 
L 140.929511 84.929993 
L 160.972172 93.609921 
L 189.66051 108.475737 
L 224.889541 131.044645 
L 261.59289 160.080763 
L 286.771804 183.451769 
L 308.149189 205.624038 
L 325.318441 225.246149 
L 335.543678 238.39522 
L 337.366433 242.166888 
L 333.106878 239.21441 
L 323.208059 230.122309 
L 305.822329 213.608341 
L 281.263265 190.876256 
L 252.239193 165.656044 
L 224.080036 143.152497 
L 192.860836 120.473664 
L 160.598716 99.1496 
L 137.636704 84.252369 
L 128.933497 77.124006 
L 128.672839 74.319613 
L 133.856302 74.089158 
L 144.298176 76.571623 
L 162.554052 83.68237 
L 188.868683 98.029328 
L 221.225029 121.757187 
L 255.305107 154.096811 
L 278.803715 180.903075 
L 298.813615 206.94016 
L 313.554501 228.909823 
L 321.533953 244.131414 
L 321.76851 249.269059 
L 316.572665 247.816595 
L 306.324767 240.344108 
L 288.842997 225.156821 
L 264.662893 202.809879 
L 236.547471 176.322153 
L 209.2542 150.428034 
L 182.978964 125.018292 
L 158.175282 99.185525 
L 143.093344 79.102017 
L 139.764238 69.368364 
L 142.530485 64.101059 
L 150.277541 63.632348 
L 163.441129 69.074329 
L 184.532131 85.355377 
L 210.59327 114.331638 
L 238.199543 152.71462 
L 257.345281 182.706967 
L 274.518013 211.787514 
L 287.760197 236.586781 
L 294.985588 253.8625 
L 295.376281 260.41443 
L 291.092004 260.6297 
L 291.092004 260.6297 
" clip-path="url(#p8641fcf40c)" style="fill: none; stroke: #1f77b4; stroke-width: 0.5; stroke-linecap: square"/>
   </g>
   <g id="patch_3">
    <path d="M 57.6 307.584 
L 57.6 41.472 
" style="fill: none; stroke: #000000; stroke-width: 0.8; stroke-linejoin: miter; stroke-linecap: square"/>
   </g>
   <g id="patch_4">
    <path d="M 414.72 307.584 
L 414.72 41.472 
" style="fill: none; stroke: #000000; stroke-width: 0.8; stroke-linejoin: miter; stroke-linecap: square"/>
   </g>
   <g id="patch_5">
    <path d="M 57.6 307.584 
L 414.72 307.584 
" style="fill: none; stroke: #000000; stroke-width: 0.8; stroke-linejoin: miter; stroke-linecap: square"/>
   </g>
   <g id="patch_6">
    <path d="M 57.6 41.472 
L 414.72 41.472 
" style="fill: none; stroke: #000000; stroke-width: 0.8; stroke-linejoin: miter; stroke-linecap: square"/>
   </g>
   <g id="text_13">
    <!-- Real Space Projection onto r-z plane with initial r = -0.08 -->
    <g transform="translate(66.41625 35.472) scale(0.12 -0.12)">
     <defs>
      <path id="DejaVuSans-52" d="M 2841 2188 
Q 3044 2119 3236 1894 
Q 3428 1669 3622 1275 
L 4263 0 
L 3584 0 
L 2988 1197 
Q 2756 1666 2539 1819 
Q 2322 1972 1947 1972 
L 1259 1972 
L 1259 0 
L 628 0 
L 628 4666 
L 2053 4666 
Q 2853 4666 3247 4331 
Q 3641 3997 3641 3322 
Q 3641 2881 3436 2590 
Q 3231 2300 2841 2188 
z
M 1259 4147 
L 1259 2491 
L 2053 2491 
Q 2509 2491 2742 2702 
Q 2975 2913 2975 3322 
Q 2975 3731 2742 3939 
Q 2509 4147 2053 4147 
L 1259 4147 
z
" transform="scale(0.015625)"/>
      <path id="DejaVuSans-65" d="M 3597 1894 
L 3597 1613 
L 953 1613 
Q 991 1019 1311 708 
Q 1631 397 2203 397 
Q 2534 397 2845 478 
Q 3156 559 3463 722 
L 3463 178 
Q 3153 47 2828 -22 
Q 2503 -91 2169 -91 
Q 1331 -91 842 396 
Q 353 884 353 1716 
Q 353 2575 817 3079 
Q 1281 3584 2069 3584 
Q 2775 3584 3186 3129 
Q 3597 2675 3597 1894 
z
M 3022 2063 
Q 3016 2534 2758 2815 
Q 2500 3097 2075 3097 
Q 1594 3097 1305 2825 
Q 1016 2553 972 2059 
L 3022 2063 
z
" transform="scale(0.015625)"/>
      <path id="DejaVuSans-61" d="M 2194 1759 
Q 1497 1759 1228 1600 
Q 959 1441 959 1056 
Q 959 750 1161 570 
Q 1363 391 1709 391 
Q 2188 391 2477 730 
Q 2766 1069 2766 1631 
L 2766 1759 
L 2194 1759 
z
M 3341 1997 
L 3341 0 
L 2766 0 
L 2766 531 
Q 2569 213 2275 61 
Q 1981 -91 1556 -91 
Q 1019 -91 701 211 
Q 384 513 384 1019 
Q 384 1609 779 1909 
Q 1175 2209 1959 2209 
L 2766 2209 
L 2766 2266 
Q 2766 2663 2505 2880 
Q 2244 3097 1772 3097 
Q 1472 3097 1187 3025 
Q 903 2953 641 2809 
L 641 3341 
Q 956 3463 1253 3523 
Q 1550 3584 1831 3584 
Q 2591 3584 2966 3190 
Q 3341 2797 3341 1997 
z
" transform="scale(0.015625)"/>
      <path id="DejaVuSans-6c" d="M 603 4863 
L 1178 4863 
L 1178 0 
L 603 0 
L 603 4863 
z
" transform="scale(0.015625)"/>
      <path id="DejaVuSans-20" transform="scale(0.015625)"/>
      <path id="DejaVuSans-53" d="M 3425 4513 
L 3425 3897 
Q 3066 4069 2747 4153 
Q 2428 4238 2131 4238 
Q 1616 4238 1336 4038 
Q 1056 3838 1056 3469 
Q 1056 3159 1242 3001 
Q 1428 2844 1947 2747 
L 2328 2669 
Q 3034 2534 3370 2195 
Q 3706 1856 3706 1288 
Q 3706 609 3251 259 
Q 2797 -91 1919 -91 
Q 1588 -91 1214 -16 
Q 841 59 441 206 
L 441 856 
Q 825 641 1194 531 
Q 1563 422 1919 422 
Q 2459 422 2753 634 
Q 3047 847 3047 1241 
Q 3047 1584 2836 1778 
Q 2625 1972 2144 2069 
L 1759 2144 
Q 1053 2284 737 2584 
Q 422 2884 422 3419 
Q 422 4038 858 4394 
Q 1294 4750 2059 4750 
Q 2388 4750 2728 4690 
Q 3069 4631 3425 4513 
z
" transform="scale(0.015625)"/>
      <path id="DejaVuSans-70" d="M 1159 525 
L 1159 -1331 
L 581 -1331 
L 581 3500 
L 1159 3500 
L 1159 2969 
Q 1341 3281 1617 3432 
Q 1894 3584 2278 3584 
Q 2916 3584 3314 3078 
Q 3713 2572 3713 1747 
Q 3713 922 3314 415 
Q 2916 -91 2278 -91 
Q 1894 -91 1617 61 
Q 1341 213 1159 525 
z
M 3116 1747 
Q 3116 2381 2855 2742 
Q 2594 3103 2138 3103 
Q 1681 3103 1420 2742 
Q 1159 2381 1159 1747 
Q 1159 1113 1420 752 
Q 1681 391 2138 391 
Q 2594 391 2855 752 
Q 3116 1113 3116 1747 
z
" transform="scale(0.015625)"/>
      <path id="DejaVuSans-63" d="M 3122 3366 
L 3122 2828 
Q 2878 2963 2633 3030 
Q 2388 3097 2138 3097 
Q 1578 3097 1268 2742 
Q 959 2388 959 1747 
Q 959 1106 1268 751 
Q 1578 397 2138 397 
Q 2388 397 2633 464 
Q 2878 531 3122 666 
L 3122 134 
Q 2881 22 2623 -34 
Q 2366 -91 2075 -91 
Q 1284 -91 818 406 
Q 353 903 353 1747 
Q 353 2603 823 3093 
Q 1294 3584 2113 3584 
Q 2378 3584 2631 3529 
Q 2884 3475 3122 3366 
z
" transform="scale(0.015625)"/>
      <path id="DejaVuSans-50" d="M 1259 4147 
L 1259 2394 
L 2053 2394 
Q 2494 2394 2734 2622 
Q 2975 2850 2975 3272 
Q 2975 3691 2734 3919 
Q 2494 4147 2053 4147 
L 1259 4147 
z
M 628 4666 
L 2053 4666 
Q 2838 4666 3239 4311 
Q 3641 3956 3641 3272 
Q 3641 2581 3239 2228 
Q 2838 1875 2053 1875 
L 1259 1875 
L 1259 0 
L 628 0 
L 628 4666 
z
" transform="scale(0.015625)"/>
      <path id="DejaVuSans-6f" d="M 1959 3097 
Q 1497 3097 1228 2736 
Q 959 2375 959 1747 
Q 959 1119 1226 758 
Q 1494 397 1959 397 
Q 2419 397 2687 759 
Q 2956 1122 2956 1747 
Q 2956 2369 2687 2733 
Q 2419 3097 1959 3097 
z
M 1959 3584 
Q 2709 3584 3137 3096 
Q 3566 2609 3566 1747 
Q 3566 888 3137 398 
Q 2709 -91 1959 -91 
Q 1206 -91 779 398 
Q 353 888 353 1747 
Q 353 2609 779 3096 
Q 1206 3584 1959 3584 
z
" transform="scale(0.015625)"/>
      <path id="DejaVuSans-6a" d="M 603 3500 
L 1178 3500 
L 1178 -63 
Q 1178 -731 923 -1031 
Q 669 -1331 103 -1331 
L -116 -1331 
L -116 -844 
L 38 -844 
Q 366 -844 484 -692 
Q 603 -541 603 -63 
L 603 3500 
z
M 603 4863 
L 1178 4863 
L 1178 4134 
L 603 4134 
L 603 4863 
z
" transform="scale(0.015625)"/>
      <path id="DejaVuSans-74" d="M 1172 4494 
L 1172 3500 
L 2356 3500 
L 2356 3053 
L 1172 3053 
L 1172 1153 
Q 1172 725 1289 603 
Q 1406 481 1766 481 
L 2356 481 
L 2356 0 
L 1766 0 
Q 1100 0 847 248 
Q 594 497 594 1153 
L 594 3053 
L 172 3053 
L 172 3500 
L 594 3500 
L 594 4494 
L 1172 4494 
z
" transform="scale(0.015625)"/>
      <path id="DejaVuSans-69" d="M 603 3500 
L 1178 3500 
L 1178 0 
L 603 0 
L 603 3500 
z
M 603 4863 
L 1178 4863 
L 1178 4134 
L 603 4134 
L 603 4863 
z
" transform="scale(0.015625)"/>
      <path id="DejaVuSans-6e" d="M 3513 2113 
L 3513 0 
L 2938 0 
L 2938 2094 
Q 2938 2591 2744 2837 
Q 2550 3084 2163 3084 
Q 1697 3084 1428 2787 
Q 1159 2491 1159 1978 
L 1159 0 
L 581 0 
L 581 3500 
L 1159 3500 
L 1159 2956 
Q 1366 3272 1645 3428 
Q 1925 3584 2291 3584 
Q 2894 3584 3203 3211 
Q 3513 2838 3513 2113 
z
" transform="scale(0.015625)"/>
      <path id="DejaVuSans-2d" d="M 313 2009 
L 1997 2009 
L 1997 1497 
L 313 1497 
L 313 2009 
z
" transform="scale(0.015625)"/>
      <path id="DejaVuSans-77" d="M 269 3500 
L 844 3500 
L 1563 769 
L 2278 3500 
L 2956 3500 
L 3675 769 
L 4391 3500 
L 4966 3500 
L 4050 0 
L 3372 0 
L 2619 2869 
L 1863 0 
L 1184 0 
L 269 3500 
z
" transform="scale(0.015625)"/>
      <path id="DejaVuSans-68" d="M 3513 2113 
L 3513 0 
L 2938 0 
L 2938 2094 
Q 2938 2591 2744 2837 
Q 2550 3084 2163 3084 
Q 1697 3084 1428 2787 
Q 1159 2491 1159 1978 
L 1159 0 
L 581 0 
L 581 4863 
L 1159 4863 
L 1159 2956 
Q 1366 3272 1645 3428 
Q 1925 3584 2291 3584 
Q 2894 3584 3203 3211 
Q 3513 2838 3513 2113 
z
" transform="scale(0.015625)"/>
      <path id="DejaVuSans-3d" d="M 678 2906 
L 4684 2906 
L 4684 2381 
L 678 2381 
L 678 2906 
z
M 678 1631 
L 4684 1631 
L 4684 1100 
L 678 1100 
L 678 1631 
z
" transform="scale(0.015625)"/>
      <path id="DejaVuSans-38" d="M 2034 2216 
Q 1584 2216 1326 1975 
Q 1069 1734 1069 1313 
Q 1069 891 1326 650 
Q 1584 409 2034 409 
Q 2484 409 2743 651 
Q 3003 894 3003 1313 
Q 3003 1734 2745 1975 
Q 2488 2216 2034 2216 
z
M 1403 2484 
Q 997 2584 770 2862 
Q 544 3141 544 3541 
Q 544 4100 942 4425 
Q 1341 4750 2034 4750 
Q 2731 4750 3128 4425 
Q 3525 4100 3525 3541 
Q 3525 3141 3298 2862 
Q 3072 2584 2669 2484 
Q 3125 2378 3379 2068 
Q 3634 1759 3634 1313 
Q 3634 634 3220 271 
Q 2806 -91 2034 -91 
Q 1263 -91 848 271 
Q 434 634 434 1313 
Q 434 1759 690 2068 
Q 947 2378 1403 2484 
z
M 1172 3481 
Q 1172 3119 1398 2916 
Q 1625 2713 2034 2713 
Q 2441 2713 2670 2916 
Q 2900 3119 2900 3481 
Q 2900 3844 2670 4047 
Q 2441 4250 2034 4250 
Q 1625 4250 1398 4047 
Q 1172 3844 1172 3481 
z
" transform="scale(0.015625)"/>
     </defs>
     <use xlink:href="#DejaVuSans-52"/>
     <use xlink:href="#DejaVuSans-65" x="64.982422"/>
     <use xlink:href="#DejaVuSans-61" x="126.505859"/>
     <use xlink:href="#DejaVuSans-6c" x="187.785156"/>
     <use xlink:href="#DejaVuSans-20" x="215.568359"/>
     <use xlink:href="#DejaVuSans-53" x="247.355469"/>
     <use xlink:href="#DejaVuSans-70" x="310.832031"/>
     <use xlink:href="#DejaVuSans-61" x="374.308594"/>
     <use xlink:href="#DejaVuSans-63" x="435.587891"/>
     <use xlink:href="#DejaVuSans-65" x="490.568359"/>
     <use xlink:href="#DejaVuSans-20" x="552.091797"/>
     <use xlink:href="#DejaVuSans-50" x="583.878906"/>
     <use xlink:href="#DejaVuSans-72" x="642.431641"/>
     <use xlink:href="#DejaVuSans-6f" x="681.294922"/>
     <use xlink:href="#DejaVuSans-6a" x="742.476562"/>
     <use xlink:href="#DejaVuSans-65" x="770.259766"/>
     <use xlink:href="#DejaVuSans-63" x="831.783203"/>
     <use xlink:href="#DejaVuSans-74" x="886.763672"/>
     <use xlink:href="#DejaVuSans-69" x="925.972656"/>
     <use xlink:href="#DejaVuSans-6f" x="953.755859"/>
     <use xlink:href="#DejaVuSans-6e" x="1014.9375"/>
     <use xlink:href="#DejaVuSans-20" x="1078.316406"/>
     <use xlink:href="#DejaVuSans-6f" x="1110.103516"/>
     <use xlink:href="#DejaVuSans-6e" x="1171.285156"/>
     <use xlink:href="#DejaVuSans-74" x="1234.664062"/>
     <use xlink:href="#DejaVuSans-6f" x="1273.873047"/>
     <use xlink:href="#DejaVuSans-20" x="1335.054688"/>
     <use xlink:href="#DejaVuSans-72" x="1366.841797"/>
     <use xlink:href="#DejaVuSans-2d" x="1401.580078"/>
     <use xlink:href="#DejaVuSans-7a" x="1437.664062"/>
     <use xlink:href="#DejaVuSans-20" x="1490.154297"/>
     <use xlink:href="#DejaVuSans-70" x="1521.941406"/>
     <use xlink:href="#DejaVuSans-6c" x="1585.417969"/>
     <use xlink:href="#DejaVuSans-61" x="1613.201172"/>
     <use xlink:href="#DejaVuSans-6e" x="1674.480469"/>
     <use xlink:href="#DejaVuSans-65" x="1737.859375"/>
     <use xlink:href="#DejaVuSans-20" x="1799.382812"/>
     <use xlink:href="#DejaVuSans-77" x="1831.169922"/>
     <use xlink:href="#DejaVuSans-69" x="1912.957031"/>
     <use xlink:href="#DejaVuSans-74" x="1940.740234"/>
     <use xlink:href="#DejaVuSans-68" x="1979.949219"/>
     <use xlink:href="#DejaVuSans-20" x="2043.328125"/>
     <use xlink:href="#DejaVuSans-69" x="2075.115234"/>
     <use xlink:href="#DejaVuSans-6e" x="2102.898438"/>
     <use xlink:href="#DejaVuSans-69" x="2166.277344"/>
     <use xlink:href="#DejaVuSans-74" x="2194.060547"/>
     <use xlink:href="#DejaVuSans-69" x="2233.269531"/>
     <use xlink:href="#DejaVuSans-61" x="2261.052734"/>
     <use xlink:href="#DejaVuSans-6c" x="2322.332031"/>
     <use xlink:href="#DejaVuSans-20" x="2350.115234"/>
     <use xlink:href="#DejaVuSans-72" x="2381.902344"/>
     <use xlink:href="#DejaVuSans-20" x="2423.015625"/>
     <use xlink:href="#DejaVuSans-3d" x="2454.802734"/>
     <use xlink:href="#DejaVuSans-20" x="2538.591797"/>
     <use xlink:href="#DejaVuSans-2d" x="2570.378906"/>
     <use xlink:href="#DejaVuSans-30" x="2606.462891"/>
     <use xlink:href="#DejaVuSans-2e" x="2670.085938"/>
     <use xlink:href="#DejaVuSans-30" x="2701.873047"/>
     <use xlink:href="#DejaVuSans-38" x="2765.496094"/>
    </g>
   </g>
  </g>
 </g>
 <defs>
  <clipPath id="p8641fcf40c">
   <rect x="57.6" y="41.472" width="357.12" height="266.112"/>
  </clipPath>
 </defs>
</svg>
