<?xml version="1.0" encoding="utf-8" standalone="no"?>
<!DOCTYPE svg PUBLIC "-//W3C//DTD SVG 1.1//EN"
  "http://www.w3.org/Graphics/SVG/1.1/DTD/svg11.dtd">
<svg xmlns:xlink="http://www.w3.org/1999/xlink" width="460.8pt" height="345.6pt" viewBox="0 0 460.8 345.6" xmlns="http://www.w3.org/2000/svg" version="1.1">
 <metadata>
  <rdf:RDF xmlns:dc="http://purl.org/dc/elements/1.1/" xmlns:cc="http://creativecommons.org/ns#" xmlns:rdf="http://www.w3.org/1999/02/22-rdf-syntax-ns#">
   <cc:Work>
    <dc:type rdf:resource="http://purl.org/dc/dcmitype/StillImage"/>
    <dc:date>2023-10-23T21:33:13.822179</dc:date>
    <dc:format>image/svg+xml</dc:format>
    <dc:creator>
     <cc:Agent>
      <dc:title>Matplotlib v3.8.0, https://matplotlib.org/</dc:title>
     </cc:Agent>
    </dc:creator>
   </cc:Work>
  </rdf:RDF>
 </metadata>
 <defs>
  <style type="text/css">*{stroke-linejoin: round; stroke-linecap: butt}</style>
 </defs>
 <g id="figure_1">
  <g id="patch_1">
   <path d="M 0 345.6 
L 460.8 345.6 
L 460.8 0 
L 0 0 
z
" style="fill: #ffffff"/>
  </g>
  <g id="axes_1">
   <g id="patch_2">
    <path d="M 57.6 307.584 
L 414.72 307.584 
L 414.72 41.472 
L 57.6 41.472 
z
" style="fill: #ffffff"/>
   </g>
   <g id="matplotlib.axis_1">
    <g id="xtick_1">
     <g id="line2d_1">
      <defs>
       <path id="m5712fda1c4" d="M 0 0 
L 0 3.5 
" style="stroke: #000000; stroke-width: 0.8"/>
      </defs>
      <g>
       <use xlink:href="#m5712fda1c4" x="93.312" y="307.584" style="stroke: #000000; stroke-width: 0.8"/>
      </g>
     </g>
     <g id="text_1">
      <!-- −0.4 -->
      <g transform="translate(81.170594 322.182437) scale(0.1 -0.1)">
       <defs>
        <path id="DejaVuSans-2212" d="M 678 2272 
L 4684 2272 
L 4684 1741 
L 678 1741 
L 678 2272 
z
" transform="scale(0.015625)"/>
        <path id="DejaVuSans-30" d="M 2034 4250 
Q 1547 4250 1301 3770 
Q 1056 3291 1056 2328 
Q 1056 1369 1301 889 
Q 1547 409 2034 409 
Q 2525 409 2770 889 
Q 3016 1369 3016 2328 
Q 3016 3291 2770 3770 
Q 2525 4250 2034 4250 
z
M 2034 4750 
Q 2819 4750 3233 4129 
Q 3647 3509 3647 2328 
Q 3647 1150 3233 529 
Q 2819 -91 2034 -91 
Q 1250 -91 836 529 
Q 422 1150 422 2328 
Q 422 3509 836 4129 
Q 1250 4750 2034 4750 
z
" transform="scale(0.015625)"/>
        <path id="DejaVuSans-2e" d="M 684 794 
L 1344 794 
L 1344 0 
L 684 0 
L 684 794 
z
" transform="scale(0.015625)"/>
        <path id="DejaVuSans-34" d="M 2419 4116 
L 825 1625 
L 2419 1625 
L 2419 4116 
z
M 2253 4666 
L 3047 4666 
L 3047 1625 
L 3713 1625 
L 3713 1100 
L 3047 1100 
L 3047 0 
L 2419 0 
L 2419 1100 
L 313 1100 
L 313 1709 
L 2253 4666 
z
" transform="scale(0.015625)"/>
       </defs>
       <use xlink:href="#DejaVuSans-2212"/>
       <use xlink:href="#DejaVuSans-30" x="83.789062"/>
       <use xlink:href="#DejaVuSans-2e" x="147.412109"/>
       <use xlink:href="#DejaVuSans-34" x="179.199219"/>
      </g>
     </g>
    </g>
    <g id="xtick_2">
     <g id="line2d_2">
      <g>
       <use xlink:href="#m5712fda1c4" x="164.736" y="307.584" style="stroke: #000000; stroke-width: 0.8"/>
      </g>
     </g>
     <g id="text_2">
      <!-- −0.2 -->
      <g transform="translate(152.594594 322.182437) scale(0.1 -0.1)">
       <defs>
        <path id="DejaVuSans-32" d="M 1228 531 
L 3431 531 
L 3431 0 
L 469 0 
L 469 531 
Q 828 903 1448 1529 
Q 2069 2156 2228 2338 
Q 2531 2678 2651 2914 
Q 2772 3150 2772 3378 
Q 2772 3750 2511 3984 
Q 2250 4219 1831 4219 
Q 1534 4219 1204 4116 
Q 875 4013 500 3803 
L 500 4441 
Q 881 4594 1212 4672 
Q 1544 4750 1819 4750 
Q 2544 4750 2975 4387 
Q 3406 4025 3406 3419 
Q 3406 3131 3298 2873 
Q 3191 2616 2906 2266 
Q 2828 2175 2409 1742 
Q 1991 1309 1228 531 
z
" transform="scale(0.015625)"/>
       </defs>
       <use xlink:href="#DejaVuSans-2212"/>
       <use xlink:href="#DejaVuSans-30" x="83.789062"/>
       <use xlink:href="#DejaVuSans-2e" x="147.412109"/>
       <use xlink:href="#DejaVuSans-32" x="179.199219"/>
      </g>
     </g>
    </g>
    <g id="xtick_3">
     <g id="line2d_3">
      <g>
       <use xlink:href="#m5712fda1c4" x="236.16" y="307.584" style="stroke: #000000; stroke-width: 0.8"/>
      </g>
     </g>
     <g id="text_3">
      <!-- 0.0 -->
      <g transform="translate(228.208438 322.182437) scale(0.1 -0.1)">
       <use xlink:href="#DejaVuSans-30"/>
       <use xlink:href="#DejaVuSans-2e" x="63.623047"/>
       <use xlink:href="#DejaVuSans-30" x="95.410156"/>
      </g>
     </g>
    </g>
    <g id="xtick_4">
     <g id="line2d_4">
      <g>
       <use xlink:href="#m5712fda1c4" x="307.584" y="307.584" style="stroke: #000000; stroke-width: 0.8"/>
      </g>
     </g>
     <g id="text_4">
      <!-- 0.2 -->
      <g transform="translate(299.632437 322.182437) scale(0.1 -0.1)">
       <use xlink:href="#DejaVuSans-30"/>
       <use xlink:href="#DejaVuSans-2e" x="63.623047"/>
       <use xlink:href="#DejaVuSans-32" x="95.410156"/>
      </g>
     </g>
    </g>
    <g id="xtick_5">
     <g id="line2d_5">
      <g>
       <use xlink:href="#m5712fda1c4" x="379.008" y="307.584" style="stroke: #000000; stroke-width: 0.8"/>
      </g>
     </g>
     <g id="text_5">
      <!-- 0.4 -->
      <g transform="translate(371.056437 322.182437) scale(0.1 -0.1)">
       <use xlink:href="#DejaVuSans-30"/>
       <use xlink:href="#DejaVuSans-2e" x="63.623047"/>
       <use xlink:href="#DejaVuSans-34" x="95.410156"/>
      </g>
     </g>
    </g>
    <g id="text_6">
     <!-- r -->
     <g transform="translate(234.104531 335.860562) scale(0.1 -0.1)">
      <defs>
       <path id="DejaVuSans-72" d="M 2631 2963 
Q 2534 3019 2420 3045 
Q 2306 3072 2169 3072 
Q 1681 3072 1420 2755 
Q 1159 2438 1159 1844 
L 1159 0 
L 581 0 
L 581 3500 
L 1159 3500 
L 1159 2956 
Q 1341 3275 1631 3429 
Q 1922 3584 2338 3584 
Q 2397 3584 2469 3576 
Q 2541 3569 2628 3553 
L 2631 2963 
z
" transform="scale(0.015625)"/>
      </defs>
      <use xlink:href="#DejaVuSans-72"/>
     </g>
    </g>
   </g>
   <g id="matplotlib.axis_2">
    <g id="ytick_1">
     <g id="line2d_6">
      <defs>
       <path id="mca9a2806ed" d="M 0 0 
L -3.5 0 
" style="stroke: #000000; stroke-width: 0.8"/>
      </defs>
      <g>
       <use xlink:href="#mca9a2806ed" x="57.6" y="280.9728" style="stroke: #000000; stroke-width: 0.8"/>
      </g>
     </g>
     <g id="text_7">
      <!-- −0.4 -->
      <g transform="translate(26.317187 284.772019) scale(0.1 -0.1)">
       <use xlink:href="#DejaVuSans-2212"/>
       <use xlink:href="#DejaVuSans-30" x="83.789062"/>
       <use xlink:href="#DejaVuSans-2e" x="147.412109"/>
       <use xlink:href="#DejaVuSans-34" x="179.199219"/>
      </g>
     </g>
    </g>
    <g id="ytick_2">
     <g id="line2d_7">
      <g>
       <use xlink:href="#mca9a2806ed" x="57.6" y="227.7504" style="stroke: #000000; stroke-width: 0.8"/>
      </g>
     </g>
     <g id="text_8">
      <!-- −0.2 -->
      <g transform="translate(26.317187 231.549619) scale(0.1 -0.1)">
       <use xlink:href="#DejaVuSans-2212"/>
       <use xlink:href="#DejaVuSans-30" x="83.789062"/>
       <use xlink:href="#DejaVuSans-2e" x="147.412109"/>
       <use xlink:href="#DejaVuSans-32" x="179.199219"/>
      </g>
     </g>
    </g>
    <g id="ytick_3">
     <g id="line2d_8">
      <g>
       <use xlink:href="#mca9a2806ed" x="57.6" y="174.528" style="stroke: #000000; stroke-width: 0.8"/>
      </g>
     </g>
     <g id="text_9">
      <!-- 0.0 -->
      <g transform="translate(34.696875 178.327219) scale(0.1 -0.1)">
       <use xlink:href="#DejaVuSans-30"/>
       <use xlink:href="#DejaVuSans-2e" x="63.623047"/>
       <use xlink:href="#DejaVuSans-30" x="95.410156"/>
      </g>
     </g>
    </g>
    <g id="ytick_4">
     <g id="line2d_9">
      <g>
       <use xlink:href="#mca9a2806ed" x="57.6" y="121.3056" style="stroke: #000000; stroke-width: 0.8"/>
      </g>
     </g>
     <g id="text_10">
      <!-- 0.2 -->
      <g transform="translate(34.696875 125.104819) scale(0.1 -0.1)">
       <use xlink:href="#DejaVuSans-30"/>
       <use xlink:href="#DejaVuSans-2e" x="63.623047"/>
       <use xlink:href="#DejaVuSans-32" x="95.410156"/>
      </g>
     </g>
    </g>
    <g id="ytick_5">
     <g id="line2d_10">
      <g>
       <use xlink:href="#mca9a2806ed" x="57.6" y="68.0832" style="stroke: #000000; stroke-width: 0.8"/>
      </g>
     </g>
     <g id="text_11">
      <!-- 0.4 -->
      <g transform="translate(34.696875 71.882419) scale(0.1 -0.1)">
       <use xlink:href="#DejaVuSans-30"/>
       <use xlink:href="#DejaVuSans-2e" x="63.623047"/>
       <use xlink:href="#DejaVuSans-34" x="95.410156"/>
      </g>
     </g>
    </g>
    <g id="text_12">
     <!-- z -->
     <g transform="translate(20.2375 177.152219) rotate(-90) scale(0.1 -0.1)">
      <defs>
       <path id="DejaVuSans-7a" d="M 353 3500 
L 3084 3500 
L 3084 2975 
L 922 459 
L 3084 459 
L 3084 0 
L 275 0 
L 275 525 
L 2438 3041 
L 353 3041 
L 353 3500 
z
" transform="scale(0.015625)"/>
      </defs>
      <use xlink:href="#DejaVuSans-7a"/>
     </g>
    </g>
   </g>
   <g id="line2d_11">
    <path d="M 248.064 174.528 
L 245.925196 169.410099 
L 235.770578 146.079337 
L 221.182629 116.033445 
L 206.555477 91.683362 
L 191.174103 73.795746 
L 175.637194 63.953364 
L 161.591227 62.120349 
L 151.02148 66.542301 
L 144.323242 77.156872 
L 145.540027 95.382712 
L 156.528165 116.94092 
L 177.652457 143.108209 
L 208.891492 174.004828 
L 237.345442 199.034931 
L 265.136129 221.504793 
L 289.168542 238.748815 
L 308.07279 248.872387 
L 317.057969 249.858286 
L 320.79746 244.597737 
L 319.097896 232.264623 
L 312.015494 214.345344 
L 298.420734 189.370562 
L 282.112726 165.166958 
L 262.992069 141.879262 
L 236.876283 117.176927 
L 205.508537 96.577355 
L 172.361342 83.822293 
L 146.133399 79.971035 
L 129.472417 82.110459 
L 124.048807 87.698511 
L 128.414773 96.152952 
L 141.355565 106.652543 
L 164.795062 121.408838 
L 198.328067 141.088278 
L 238.38693 165.177162 
L 270.967098 185.754994 
L 299.535586 204.31798 
L 325.333293 220.698533 
L 344.135946 230.73175 
L 352.792181 232.58152 
L 355.654042 228.662834 
L 352.612906 218.876082 
L 342.761985 202.865532 
L 325.195069 181.632309 
L 302.202824 159.975216 
L 277.247643 141.727794 
L 241.817986 122.883106 
L 200.469435 108.903883 
L 162.076746 102.056843 
L 133.643506 100.798833 
L 117.299177 103.257797 
L 115.029697 106.97241 
L 121.69216 112.080532 
L 138.235878 119.212878 
L 203.906765 143.215072 
L 246.992667 160.630873 
L 287.180321 178.930679 
L 320.878855 195.662803 
L 346.73306 208.687623 
L 365.748832 217.011961 
L 375.015853 218.887888 
L 378.484662 215.99134 
L 376.121737 208.424458 
L 366.80517 195.663451 
L 349.559089 178.961396 
L 326.754859 162.409887 
L 301.086494 148.47592 
L 264.056535 134.513964 
L 220.631846 124.775218 
L 177.774739 120.385559 
L 143.552714 120.220845 
L 120.850466 122.549204 
L 110.714124 126.41502 
L 112.692675 130.836888 
L 124.236215 135.952386 
L 148.109813 142.99955 
L 228.068036 163.64834 
L 273.36663 176.238359 
L 313.668815 188.13402 
L 345.234762 197.32582 
L 370.262339 203.353761 
L 384.90794 204.919255 
L 393.820036 203.036605 
L 396.982693 197.886893 
L 393.863438 188.939321 
L 383.132149 177.305838 
L 366.357551 165.977321 
L 345.917082 156.670224 
L 315.050654 147.800478 
L 271.899177 141.703584 
L 232.989667 140.227486 
L 193.985559 141.476489 
L 159.281008 144.667616 
L 128.57371 149.805233 
L 110.566846 156.249 
L 108.688025 161.541169 
L 117.219775 167.033376 
L 138.130141 173.382102 
L 172.77993 180.527733 
L 217.315347 187.662413 
L 262.916702 193.379516 
L 302.848239 196.689397 
L 333.393795 197.40938 
L 359.054801 195.816523 
L 379.987881 191.671249 
L 395.832535 184.600521 
L 403.628817 176.571834 
L 405.009687 169.287561 
L 401.542286 162.796101 
L 391.458675 156.730004 
L 372.772599 152.812895 
L 351.530593 152.103255 
L 325.58195 153.596285 
L 293.342973 157.246061 
L 252.847991 163.233861 
L 208.274735 170.803318 
L 169.265676 178.202565 
L 135.167975 185.943045 
L 113.432432 193.446984 
L 108.463922 199.057211 
L 115.379838 204.147314 
L 133.503933 208.596827 
L 164.137319 212.286041 
L 204.088238 213.978 
L 248.085395 212.362631 
L 287.465595 207.087396 
L 325.800863 196.876347 
L 358.229139 181.957654 
L 374.529009 170.681336 
L 385.625639 159.974216 
L 391.918593 150.051384 
L 391.56394 142.853278 
L 384.734373 140.506794 
L 371.822491 142.238165 
L 353.993335 147.368121 
L 327.528174 156.499729 
L 293.065027 168.662824 
L 254.319466 181.554702 
L 217.514861 192.781701 
L 179.622252 203.484963 
L 143.393032 213.549016 
L 119.115124 221.598099 
L 111.262245 226.808263 
L 115.286542 230.76821 
L 128.812128 233.153434 
L 151.91555 234.000198 
L 180.376171 232.605608 
L 217.830636 227.40531 
L 258.433297 216.87361 
L 293.661352 202.356122 
L 327.380206 181.939489 
L 347.513062 165.380621 
L 361.241108 151.052587 
L 370.817801 137.603491 
L 373.218204 128.824154 
L 368.848653 126.867781 
L 358.760922 129.910222 
L 342.629553 137.775399 
L 318.093166 151.14256 
L 286.039642 168.43594 
L 250.378573 186.320769 
L 214.971114 202.439249 
L 178.419491 217.633107 
L 144.653697 231.183625 
L 122.879677 241.367899 
L 116.497105 247.265747 
L 120.326157 251.267525 
L 132.320763 253.103509 
L 151.916799 252.691724 
L 176.185439 249.435688 
L 210.556489 240.464005 
L 247.313136 224.549852 
L 280.031168 203.458262 
L 308.279381 178.354514 
L 327.161776 156.642101 
L 340.194758 137.689898 
L 347.667711 121.871339 
L 347.611787 113.94564 
L 341.128165 112.88518 
L 329.683186 117.64016 
L 311.200551 128.69388 
L 284.786286 146.394557 
L 252.478279 168.543301 
L 218.839395 191.262396 
L 188.694629 211.337904 
L 157.806557 232.541021 
L 136.09293 250.326524 
L 128.292587 261.452482 
L 129.012371 268.377808 
L 135.507189 272.664681 
L 149.211434 274.374285 
L 168.442917 271.647013 
L 194.297912 261.755683 
L 223.338112 242.236186 
L 251.476001 213.678027 
L 277.305098 177.769769 
L 293.254879 149.746825 
L 304.335228 125.349021 
L 309.848558 105.813221 
L 308.528171 96.228649 
L 301.504117 94.017276 
L 289.187876 98.718907 
L 271.016745 110.442902 
L 246.50757 129.836585 
L 222.31281 151.462992 
L 199.752512 173.89958 
L 176.933401 200.231336 
L 158.402582 228.626274 
L 150.31225 251.221834 
L 149.770738 265.995196 
L 153.544092 277.613108 
L 162.10123 286.568126 
L 174.973006 289.165662 
L 188.751102 282.234711 
L 200.972006 267.027277 
L 212.440988 244.589692 
L 223.950396 216.011041 
L 236.022344 182.918657 
L 246.837271 152.269069 
L 256.318596 124.206709 
L 263.158413 100.748663 
L 265.692696 84.589731 
L 263.458891 76.962241 
L 256.922588 76.414319 
L 246.712678 82.098598 
L 231.516017 95.223759 
L 215.179787 113.01696 
L 198.075017 135.883231 
L 182.239546 163.779286 
L 171.270524 195.319601 
L 168.395729 223.282181 
L 172.006915 248.332919 
L 180.047005 268.560031 
L 190.984047 283.808395 
L 199.826275 289.684607 
L 206.433817 287.784436 
L 210.091569 279.244924 
L 211.844491 265.4757 
L 212.515897 250.841271 
L 213.01922 233.558646 
L 213.754399 215.067668 
L 215.374838 191.424946 
L 218.672881 162.268904 
L 223.708044 131.246089 
L 231.536903 90.078717 
L 233.154734 77.881289 
L 232.981642 69.562355 
L 230.938961 65.61287 
L 226.05063 65.70761 
L 218.461792 71.131016 
L 207.504509 83.427259 
L 195.180506 102.184826 
L 183.9013 126.514617 
L 176.365935 156.007636 
L 175.504007 186.745621 
L 181.485701 216.548257 
L 193.595221 245.044513 
L 208.162262 267.416507 
L 220.373899 280.327674 
L 228.315774 284.23899 
L 232.067396 280.737815 
L 232.615957 273.003584 
L 231.267445 261.230504 
L 228.411456 245.245878 
L 224.45445 224.512254 
L 220.165119 199.42575 
L 216.419882 170.494287 
L 214.008954 139.305612 
L 213.103706 113.633372 
L 212.71481 95.990296 
L 212.104251 81.890023 
L 210.672384 70.255788 
L 207.701651 62.202332 
L 202.619104 59.193579 
L 195.50043 62.052521 
L 187.025084 70.780101 
L 178.174652 85.674235 
L 171.163218 106.44102 
L 168.758203 133.071191 
L 174.66881 166.463512 
L 189.718295 200.496636 
L 210.908129 231.814764 
L 228.457248 251.828405 
L 241.394593 263.824527 
L 252.027489 271.243628 
L 260.604591 273.431985 
L 264.462526 268.301164 
L 264.113816 258.153674 
L 260.974411 243.950443 
L 254.46645 222.348726 
L 245.270673 195.001316 
L 234.818966 164.9378 
L 224.452873 135.824146 
L 212.853302 105.874494 
L 201.663453 82.891474 
L 190.187992 67.607955 
L 178.398881 60.322376 
L 168.340846 60.085817 
L 159.390003 64.984746 
L 152.159419 76.086539 
L 150.207379 93.646073 
L 158.032735 119.626642 
L 176.227546 148.575528 
L 204.439038 181.100605 
L 231.323627 207.152756 
L 258.031166 229.995218 
L 279.426946 245.664531 
L 296.944267 254.746831 
L 305.543792 254.927879 
L 308.841202 248.981058 
L 307.124772 235.789533 
L 300.518924 217.293831 
L 288.043269 191.546368 
L 270.709037 162.493474 
L 252.451958 137.334691 
L 228.144037 111.145212 
L 202.375895 91.510383 
L 173.925764 78.406634 
L 150.157206 74.175965 
L 134.419772 76.499022 
L 128.277896 83.342476 
L 132.361279 93.913263 
L 144.972444 106.473513 
L 167.91929 123.754797 
L 200.954186 146.294746 
L 240.375639 172.977274 
L 301.196113 214.713325 
L 324.996771 229.719803 
L 340.74456 236.679395 
L 346.81662 235.503036 
L 347.227984 228.76658 
L 342.052904 216.228138 
L 329.638226 196.784345 
L 310.098667 173.29106 
L 287.032911 151.503762 
L 258.88504 131.168644 
L 220.672195 112.010529 
L 182.683087 100.493679 
L 149.357624 95.676854 
L 126.574048 95.970889 
L 117.230564 99.190494 
L 118.295972 103.77457 
L 127.340505 109.655286 
L 146.964602 118.473593 
L 177.565516 130.874296 
L 216.952149 147.450313 
L 259.531958 167.336504 
L 292.215207 184.200047 
L 344.902927 212.99817 
L 362.598158 221.14541 
L 370.437479 222.435333 
L 372.849205 218.995484 
L 369.535524 210.474753 
L 359.092183 196.398507 
L 340.771705 178.282564 
L 317.265128 160.551291 
L 290.511407 145.312496 
L 252.368824 130.144713 
L 209.644635 119.882735 
L 169.965999 115.247022 
L 137.863144 114.771689 
L 117.399882 117.124897 
L 111.226156 120.763347 
L 116.498898 125.606013 
L 132.006363 131.450541 
L 159.644083 139.512122 
L 198.11854 150.234643 
L 242.794503 163.546026 
L 285.693474 177.710219 
L 351.275889 201.029328 
L 373.1745 207.487195 
L 384.942317 208.908674 
L 391.157213 206.602739 
L 391.78707 200.579672 
L 385.833262 190.428202 
L 372.108892 177.256663 
L 352.669736 164.505862 
L 329.540828 153.834808 
L 295.396883 143.589287 
L 248.443725 136.398156 
L 209.109329 134.544992 
L 172.263368 135.503894 
L 141.156195 138.475416 
L 116.909207 143.495685 
L 108.559172 148.859802 
L 113.766035 154.801744 
L 130.308731 160.802952 
L 160.493956 168.093956 
L 202.328933 176.330752 
L 249.194064 184.551727 
L 290.638569 190.982609 
L 329.432662 195.60341 
L 356.726602 197.06756 
L 378.176042 195.888708 
L 392.80811 192.29482 
L 402.444686 185.81488 
L 404.879501 177.126312 
L 401.184263 169.866811 
L 393.058314 163.396935 
L 377.451034 157.068889 
L 352.337697 152.631678 
L 324.139758 151.436072 
L 291.276182 152.654527 
L 255.205382 155.854122 
L 212.654423 161.218391 
L 173.918596 167.362037 
L 138.640412 174.521563 
L 114.84236 182.020955 
L 108.127782 188.105998 
L 114.311948 193.875894 
L 131.86264 199.03517 
L 162.725297 203.957138 
L 204.02969 207.445042 
L 244.652728 208.213152 
L 283.882315 205.977043 
L 320.993265 199.984352 
L 353.728636 189.677018 
L 375.798025 178.034635 
L 388.329718 167.937875 
L 395.301309 159.035385 
L 397.279598 150.771858 
L 391.980479 145.526618 
L 381.842018 144.587602 
L 366.635211 146.691756 
L 344.997807 151.905623 
L 314.539079 160.561653 
L 276.718113 171.535028 
L 236.078193 182.766172 
L 195.419058 193.307911 
L 156.3809 203.178321 
L 126.174122 211.70479 
L 111.34115 218.50294 
L 111.335485 222.608502 
L 119.788915 225.645489 
L 139.075474 227.994185 
L 167.472654 228.533592 
L 200.069033 226.568272 
L 241.560927 220.139196 
L 280.469731 209.149177 
L 319.229117 191.523112 
L 344.500421 174.808644 
L 363.321106 158.085911 
L 374.308013 144.836104 
L 379.005943 134.720201 
L 375.682748 130.555411 
L 365.549257 132.616169 
L 350.479676 139.048909 
L 295.637139 166.25142 
L 263.850959 181.067226 
L 230.582071 195.228608 
L 190.055091 210.772911 
L 153.155436 223.929962 
L 126.504109 234.121288 
L 115.607372 240.531574 
L 115.667604 244.402638 
L 123.088032 246.793445 
L 139.498928 247.79089 
L 161.916795 246.502646 
L 192.172602 241.674442 
L 229.924369 230.740225 
L 266.727689 213.736617 
L 301.688379 189.922658 
L 323.617718 169.836067 
L 340.553699 150.299306 
L 351.882363 133.297587 
L 356.388322 121.077998 
L 353.3867 116.868935 
L 343.858847 119.196837 
L 329.14936 126.959571 
L 306.271582 141.233895 
L 275.955623 160.833595 
L 241.582076 182.462018 
L 209.130621 201.923311 
L 175.395635 221.446149 
L 145.504129 239.332036 
L 127.656537 253.035076 
L 123.671195 260.659294 
L 127.911856 265.856719 
L 139.204373 268.319091 
L 157.426032 267.526172 
L 180.611071 262.279399 
L 211.389728 248.983255 
L 242.917047 227.028181 
L 271.679469 198.094984 
L 292.282831 170.914942 
L 308.468662 144.214266 
L 318.634742 122.084961 
L 322.091716 106.120095 
L 317.950136 99.657063 
L 307.356309 101.509772 
L 292.266405 109.683227 
L 269.729436 125.495603 
L 241.524419 147.897238 
L 212.511594 172.931179 
L 186.973278 197.048961 
L 163.133722 223.355016 
L 147.160456 248.394945 
L 142.922709 264.360077 
L 145.404155 276.52693 
L 152.680649 283.935565 
L 165.510643 286.772695 
L 182.709006 281.04135 
L 200.36536 265.321038 
L 217.088311 241.130442 
L 233.427752 209.844888 
L 249.118548 174.694445 
L 261.654661 143.642962 
L 271.393725 116.182866 
L 276.64924 95.18886 
L 276.607719 84.70162 
L 272.742268 80.383916 
L 263.735897 82.184799 
L 250.650303 90.563907 
L 232.25184 106.746761 
L 213.376805 126.979699 
L 194.657057 151.268725 
L 177.762864 180.057124 
L 166.708763 211.329082 
L 164.287335 236.22863 
L 167.6887 257.881991 
L 175.316877 275.288013 
L 185.991857 287.562628 
L 194.610866 290.68988 
L 201.448583 286.410284 
L 206.054864 275.524883 
L 209.166606 259.39364 
L 211.662106 239.585224 
L 214.400201 216.67534 
L 218.345157 189.082392 
L 224.237943 156.893504 
L 230.394335 128.933089 
L 235.118789 108.832203 
L 238.351917 94.317004 
L 240.368091 82.910089 
L 240.876227 73.575414 
L 239.176114 68.4371 
L 234.693711 67.651752 
L 227.20117 72.10965 
L 215.925185 83.327218 
L 202.56822 101.085251 
L 189.373507 124.521014 
L 178.939998 153.039984 
L 174.440194 186.021259 
L 178.361508 219.358611 
L 188.043441 246.350287 
L 201.196508 268.705023 
L 213.087889 282.081299 
L 221.142255 286.169703 
L 225.115416 282.457793 
L 225.926513 274.434964 
L 224.98827 262.263759 
L 222.860513 246.538829 
L 219.886857 225.676086 
L 216.952799 200.788584 
L 214.909899 172.398055 
L 214.423301 142.513359 
L 215.240371 116.141374 
L 216.344168 94.429497 
L 216.742459 80.53932 
L 216.177301 70.070177 
L 214.14927 63.129772 
L 209.842363 60.40194 
L 203.097035 63.337625 
L 194.444624 72.262918 
L 184.792527 87.564847 
L 176.379503 108.707745 
L 171.82477 135.596841 
L 174.535479 168.477261 
L 185.790419 201.696524 
L 203.877905 233.175539 
L 220.534037 254.500697 
L 233.917145 267.982697 
L 244.70439 275.671331 
L 251.336557 276.895869 
L 254.50605 271.835171 
L 254.102392 261.986412 
L 251.243377 248.204413 
L 245.564793 227.490813 
L 238.000276 201.850371 
L 230.16438 174.830633 
L 222.558188 147.288162 
L 214.093191 115.847044 
L 206.210641 89.710605 
L 198.414904 71.680282 
L 189.885498 61.386556 
L 180.559643 58.38966 
L 171.356595 61.809304 
L 163.066726 70.906306 
L 157.19376 86.097121 
L 156.723624 107.546647 
L 165.988586 137.196543 
L 185.524947 169.416306 
L 210.494239 199.555785 
L 234.152155 223.352118 
L 256.955027 243.023308 
L 275.058423 255.618392 
L 289.06186 261.011028 
L 295.683464 257.181355 
L 296.225054 247.437969 
L 292.633884 232.486126 
L 284.218249 210.226659 
L 270.860695 181.803779 
L 254.206255 151.826154 
L 236.028872 124.598937 
L 214.239399 99.30569 
L 191.775932 81.358878 
L 168.68845 71.000725 
L 149.730195 69.002287 
L 137.629797 73.147451 
L 133.294791 82.476795 
L 138.810275 96.038737 
L 153.124002 112.31252 
L 177.861329 133.830787 
L 212.274673 160.624451 
L 242.649316 183.458691 
L 272.428448 205.422552 
L 299.710855 224.605589 
L 321.424741 237.665987 
L 333.26363 241.578781 
L 338.462891 238.186951 
L 337.257242 228.359705 
L 330.198379 212.703104 
L 315.868891 190.198455 
L 298.142067 168.102897 
L 276.83298 146.686437 
L 248.318787 124.703752 
L 211.0486 105.052143 
L 175.760538 94.024972 
L 145.512569 89.864269 
L 125.768543 90.974515 
L 119.005939 94.975413 
L 122.672588 101.275978 
L 135.13354 109.098136 
L 158.333247 120.377514 
L 191.918123 135.885292 
L 232.618812 155.771964 
L 273.529387 177.77219 
L 308.345047 197.988777 
L 334.529756 213.404186 
L 353.906772 223.524006 
L 363.507926 226.196342 
L 366.892537 223.156287 
L 364.215388 214.857516 
L 354.668525 200.724149 
L 337.217279 181.76306 
L 316.965432 164.534921 
L 293.651766 148.89322 
L 259.532974 132.005446 
L 213.382031 117.585764 
L 171.935495 110.892391 
L 139.50278 109.393384 
L 118.665391 111.242212 
L 112.403648 114.653293 
L 117.262276 119.445114 
L 131.98494 125.366459 
L 158.465451 133.720908 
L 195.6892 145.085437 
L 239.445333 159.552124 
L 282.149432 175.436358 
L 316.26475 189.358521 
L 344.488778 201.218505 
L 366.843963 209.745972 
L 379.838279 212.76711 
L 386.358637 211.052628 
L 386.623604 205.37392 
L 380.561198 195.191536 
L 366.665504 181.099057 
L 350.004741 168.773884 
L 329.913194 157.471911 
L 299.600821 145.289141 
L 256.980936 134.885606 
L 215.328603 129.969327 
L 176.743753 128.913756 
L 144.590565 130.511119 
L 119.753566 134.277514 
L 109.413368 139.059513 
L 111.895307 144.038788 
L 124.558826 149.451892 
L 150.316254 156.481093 
L 188.443547 165.059393 
L 234.286219 174.781442 
L 279.35637 184.204938 
L 317.906396 191.857039 
L 351.068834 197.244767 
L 373.362542 199.076634 
L 389.533545 197.910639 
L 398.933682 194.136516 
L 402.997705 187.23105 
L 399.783128 177.889975 
L 391.720573 169.968918 
L 379.659866 162.892089 
L 359.177106 155.675137 
L 328.243414 150.245012 
L 293.465512 148.341667 
L 254.691357 149.269755 
L 217.393316 152.164193 
L 180.001557 156.650549 
L 143.973199 162.767087 
L 117.854239 169.799018 
L 108.245689 176.191537 
L 112.752014 182.529348 
L 128.614519 188.128211 
L 158.240905 194.068544 
L 199.526642 199.344036 
L 245.406684 202.561744 
L 282.006715 202.888352 
L 315.358904 200.707255 
L 346.876908 195.228711 
L 373.351883 186.127191 
L 389.563132 176.386199 
L 398.145499 167.57868 
L 401.35547 159.790445 
L 398.777621 152.871865 
L 388.450734 148.821867 
L 375.14929 148.458729 
L 357.427232 150.438624 
L 331.973729 155.191832 
L 297.669628 162.86269 
L 256.719178 172.416879 
L 175.922982 190.894891 
L 139.747828 199.687974 
L 116.182269 207.315401 
L 109.354707 212.700846 
L 114.729228 217.228027 
L 130.479716 220.584291 
L 157.436528 222.760039 
L 192.292525 222.685409 
L 230.990938 219.413642 
L 271.864633 211.676029 
L 310.536599 198.804325 
L 342.926235 181.860004 
L 361.558303 168.151609 
L 374.098951 156.050174 
L 382.532771 144.469401 
L 384.124685 136.475352 
L 379.062361 134.279137 
L 368.09645 136.623728 
L 351.587082 143.027269 
L 293.732507 168.717251 
L 256.832174 183.897446 
L 220.579422 197.350161 
L 182.01009 210.299164 
L 146.042568 221.791497 
L 121.653049 230.636257 
L 113.348319 236.086636 
L 115.679091 239.636134 
L 126.449862 241.789423 
L 146.220518 242.326584 
L 170.659109 240.657119 
L 204.987288 235.019707 
L 244.384203 223.460385 
L 280.336603 206.931995 
L 317.676015 181.509066 
L 338.103983 162.558777 
L 352.08029 146.233354 
L 361.406604 131.530859 
L 363.193493 122.517636 
L 358.418446 121.005731 
L 348.198479 124.66648 
L 331.48453 133.764175 
L 274.388937 168.288816 
L 239.352554 188.283893 
L 204.783955 206.606655 
L 169.278839 224.36597 
L 139.64205 239.562266 
L 123.106385 250.76431 
L 120.433139 256.681411 
L 125.734058 260.618573 
L 138.682442 262.341004 
L 158.247099 261.128145 
L 183.94481 255.732037 
L 217.145006 242.951188 
L 250.72589 222.368542 
L 279.980266 196.613743 
L 301.836645 171.293061 
L 318.856746 146.407321 
L 329.55313 125.802729 
L 333.458325 110.852377 
L 329.40703 104.982844 
L 318.744504 107.335491 
L 303.244086 115.850438 
L 280.000325 131.739124 
L 250.498075 153.825656 
L 222.034422 176.075883 
L 195.538474 197.601089 
L 167.824867 221.931595 
L 146.272285 245.163154 
L 137.37668 261.18278 
L 136.729745 270.953431 
L 141.124543 278.012997 
L 151.408995 282.333422 
L 167.570636 281.385929 
L 188.664327 271.967442 
L 211.623031 252.012328 
L 233.825637 222.80052 
L 254.799051 186.626873 
L 269.439337 156.593782 
L 280.673675 129.821789 
L 288.269666 106.111503 
L 289.812026 92.668173 
L 286.358362 85.961312 
L 277.438546 86.476208 
L 264.810804 93.294898 
L 245.816859 107.978577 
L 226.104955 126.370059 
L 207.247444 146.672826 
L 186.842177 172.851259 
L 169.784558 202.143018 
L 160.000912 233.103408 
L 159.34545 252.472368 
L 163.064733 268.710515 
L 171.169863 282.686107 
L 182.26497 290.427975 
L 191.123328 289.450259 
L 198.511009 281.643702 
L 204.718346 267.028072 
L 210.085434 246.92799 
L 222.048628 193.022742 
L 230.296432 159.611432 
L 243.05397 112.509018 
L 247.510368 94.505851 
L 249.726603 80.42207 
L 248.662436 72.339083 
L 244.34635 70.297938 
L 236.199525 74.205955 
L 224.203477 84.903746 
L 210.100983 101.550299 
L 195.208153 124.055157 
L 182.120468 151.660475 
L 173.991697 183.551081 
L 173.290298 210.935773 
L 178.138929 236.336182 
L 188.112847 260.386053 
L 200.250224 278.362572 
L 210.345486 287.009124 
L 215.962104 287.20414 
L 218.93819 281.427473 
L 219.630192 272.096835 
L 219.038039 259.052942 
L 216.113952 223.299622 
L 214.867361 199.793462 
L 214.656462 173.555846 
L 215.711858 148.472767 
L 218.231284 120.084742 
L 220.809386 97.564549 
L 222.459612 79.766613 
L 222.367289 69.795407 
L 220.728201 64.007516 
L 216.62615 62.016927 
L 209.809469 65.623283 
L 200.583143 75.456697 
L 190.021739 91.812625 
L 180.437796 113.960367 
L 174.426553 141.696171 
L 175.297537 174.916147 
L 184.000213 206.731788 
L 199.479029 237.423329 
L 214.80236 258.861928 
L 227.568612 272.457556 
L 236.479687 278.981243 
L 242.475798 279.948883 
L 245.172605 275.24619 
L 244.938178 266.120493 
L 242.636056 253.437435 
L 238.09709 234.604737 
L 232.505504 212.666668 
L 227.185962 190.821089 
L 221.072223 162.789565 
L 215.429124 132.493522 
L 210.339894 102.446951 
L 205.797766 80.496692 
L 200.704154 66.499192 
L 194.281502 59.323783 
L 186.436653 58.685203 
L 178.324062 63.746492 
L 170.017608 74.736291 
L 163.616745 91.677828 
L 161.835747 114.641715 
L 168.557566 145.183796 
L 185.307409 178.468849 
L 210.489834 212.236336 
L 231.713817 234.878381 
L 249.787535 251.089201 
L 264.778636 261.767364 
L 276.990927 266.324158 
L 282.901356 262.236031 
L 283.336741 252.701026 
L 280.179974 238.249889 
L 272.856904 216.586347 
L 261.391002 188.491624 
L 247.079526 157.505087 
L 232.573654 129.869751 
L 215.527923 102.97755 
L 197.934877 82.491462 
L 179.396638 69.135819 
L 162.284258 64.244395 
L 149.020923 66.526725 
L 140.943355 74.56154 
L 140.086101 87.421931 
L 147.428315 103.916058 
L 164.281807 125.251962 
L 191.741627 152.104649 
L 223.65598 179.678586 
L 252.027631 202.644498 
L 277.637816 222.14214 
L 301.689788 238.394608 
L 318.871388 246.37028 
L 326.287625 245.445498 
L 328.048016 238.453946 
L 324.355948 224.842234 
L 314.51848 204.624865 
L 297.965737 178.773278 
L 277.163322 152.911396 
L 253.472111 129.789752 
L 221.65687 107.231303 
L 186.899871 91.648288 
L 155.339844 84.551285 
L 133.376049 84.283064 
L 122.510516 88.756892 
L 123.339644 94.812416 
L 131.658833 102.432813 
L 150.010463 113.765739 
L 216.907495 149.950445 
L 253.248202 170.84284 
L 287.135607 191.552525 
L 315.345371 209.270955 
L 338.545559 223.106255 
L 353.750561 229.763941 
L 359.434076 228.980048 
L 359.653741 223.25449 
L 354.215336 211.961891 
L 341.231676 194.266545 
L 320.88623 173.060521 
L 296.974447 153.660258 
L 267.503387 135.566051 
L 226.863308 118.511347 
L 186.694505 108.507156 
L 151.2273 104.388076 
L 126.128866 104.661639 
L 114.912725 107.482456 
L 114.832838 111.305488 
L 122.647372 116.050024 
L 141.179053 123.22902 
L 171.149851 133.344894 
L 210.632007 147.010787 
L 254.335396 163.843322 
L 293.214464 180.693565 
L 350.391024 207.558665 
L 369.258024 215.105085 
L 378.29453 216.551298 
L 381.805759 213.631061 
L 379.632446 206.206626 
L 370.487598 193.831851 
L 353.440044 177.84743 
L 330.997356 162.275269 
L 305.134458 149.026115 
L 267.815976 135.999445 
L 223.377772 127.103297 
L 179.303236 123.487184 
L 144.87308 123.883226 
L 121.506027 126.54024 
L 110.39682 130.697583 
L 111.848607 135.213264 
L 122.835638 140.267253 
L 146.327866 147.141628 
L 182.129997 155.959138 
L 226.477465 166.650364 
L 272.26592 178.181027 
L 311.342164 188.348375 
L 344.173129 196.510014 
L 370.249826 201.532845 
L 385.178022 202.476688 
L 394.85199 200.491101 
L 399.335925 195.413948 
L 397.555722 186.834575 
L 388.226162 175.982021 
L 373.064918 165.755888 
L 353.464288 157.201278 
L 323.625721 149.363524 
L 281.935159 144.406247 
L 245.294763 143.603373 
L 207.839005 145.145237 
L 171.57588 148.564519 
L 137.725731 153.854606 
L 114.575042 160.412327 
L 108.057947 166.387561 
L 114.572928 172.513828 
L 132.763248 178.555057 
L 164.829325 185.233421 
L 207.993619 191.707534 
L 254.070739 196.582402 
L 294.448961 198.807611 
L 326.33133 198.451701 
L 352.426921 195.826039 
L 376.110473 190.152423 
L 393.697309 181.529881 
L 401.683187 173.646145 
L 404.189206 165.879646 
L 401.13246 159.066727 
L 390.910828 153.636247 
L 372.228068 151.233647 
L 348.332031 152.226087 
L 321.705599 155.449866 
L 286.008981 161.263945 
L 243.482936 169.096133 
L 199.443309 177.674016 
L 161.547611 185.575194 
L 128.938108 193.683417 
L 111.124788 200.939242 
L 109.220691 205.818289 
L 117.299375 210.125755 
L 136.797049 214.043142 
L 167.990444 216.806866 
L 207.27255 217.212715 
L 250.20986 214.021009 
L 288.832227 207.051783 
L 327.380763 194.467287 
L 355.617707 179.696294 
L 355.617707 179.696294 
" clip-path="url(#pec59e92967)" style="fill: none; stroke: #1f77b4; stroke-width: 0.5; stroke-linecap: square"/>
   </g>
   <g id="patch_3">
    <path d="M 57.6 307.584 
L 57.6 41.472 
" style="fill: none; stroke: #000000; stroke-width: 0.8; stroke-linejoin: miter; stroke-linecap: square"/>
   </g>
   <g id="patch_4">
    <path d="M 414.72 307.584 
L 414.72 41.472 
" style="fill: none; stroke: #000000; stroke-width: 0.8; stroke-linejoin: miter; stroke-linecap: square"/>
   </g>
   <g id="patch_5">
    <path d="M 57.6 307.584 
L 414.72 307.584 
" style="fill: none; stroke: #000000; stroke-width: 0.8; stroke-linejoin: miter; stroke-linecap: square"/>
   </g>
   <g id="patch_6">
    <path d="M 57.6 41.472 
L 414.72 41.472 
" style="fill: none; stroke: #000000; stroke-width: 0.8; stroke-linejoin: miter; stroke-linecap: square"/>
   </g>
   <g id="text_13">
    <!-- Real Space Projection onto r-z plane with initial r = 0.03 -->
    <g transform="translate(68.580938 35.472) scale(0.12 -0.12)">
     <defs>
      <path id="DejaVuSans-52" d="M 2841 2188 
Q 3044 2119 3236 1894 
Q 3428 1669 3622 1275 
L 4263 0 
L 3584 0 
L 2988 1197 
Q 2756 1666 2539 1819 
Q 2322 1972 1947 1972 
L 1259 1972 
L 1259 0 
L 628 0 
L 628 4666 
L 2053 4666 
Q 2853 4666 3247 4331 
Q 3641 3997 3641 3322 
Q 3641 2881 3436 2590 
Q 3231 2300 2841 2188 
z
M 1259 4147 
L 1259 2491 
L 2053 2491 
Q 2509 2491 2742 2702 
Q 2975 2913 2975 3322 
Q 2975 3731 2742 3939 
Q 2509 4147 2053 4147 
L 1259 4147 
z
" transform="scale(0.015625)"/>
      <path id="DejaVuSans-65" d="M 3597 1894 
L 3597 1613 
L 953 1613 
Q 991 1019 1311 708 
Q 1631 397 2203 397 
Q 2534 397 2845 478 
Q 3156 559 3463 722 
L 3463 178 
Q 3153 47 2828 -22 
Q 2503 -91 2169 -91 
Q 1331 -91 842 396 
Q 353 884 353 1716 
Q 353 2575 817 3079 
Q 1281 3584 2069 3584 
Q 2775 3584 3186 3129 
Q 3597 2675 3597 1894 
z
M 3022 2063 
Q 3016 2534 2758 2815 
Q 2500 3097 2075 3097 
Q 1594 3097 1305 2825 
Q 1016 2553 972 2059 
L 3022 2063 
z
" transform="scale(0.015625)"/>
      <path id="DejaVuSans-61" d="M 2194 1759 
Q 1497 1759 1228 1600 
Q 959 1441 959 1056 
Q 959 750 1161 570 
Q 1363 391 1709 391 
Q 2188 391 2477 730 
Q 2766 1069 2766 1631 
L 2766 1759 
L 2194 1759 
z
M 3341 1997 
L 3341 0 
L 2766 0 
L 2766 531 
Q 2569 213 2275 61 
Q 1981 -91 1556 -91 
Q 1019 -91 701 211 
Q 384 513 384 1019 
Q 384 1609 779 1909 
Q 1175 2209 1959 2209 
L 2766 2209 
L 2766 2266 
Q 2766 2663 2505 2880 
Q 2244 3097 1772 3097 
Q 1472 3097 1187 3025 
Q 903 2953 641 2809 
L 641 3341 
Q 956 3463 1253 3523 
Q 1550 3584 1831 3584 
Q 2591 3584 2966 3190 
Q 3341 2797 3341 1997 
z
" transform="scale(0.015625)"/>
      <path id="DejaVuSans-6c" d="M 603 4863 
L 1178 4863 
L 1178 0 
L 603 0 
L 603 4863 
z
" transform="scale(0.015625)"/>
      <path id="DejaVuSans-20" transform="scale(0.015625)"/>
      <path id="DejaVuSans-53" d="M 3425 4513 
L 3425 3897 
Q 3066 4069 2747 4153 
Q 2428 4238 2131 4238 
Q 1616 4238 1336 4038 
Q 1056 3838 1056 3469 
Q 1056 3159 1242 3001 
Q 1428 2844 1947 2747 
L 2328 2669 
Q 3034 2534 3370 2195 
Q 3706 1856 3706 1288 
Q 3706 609 3251 259 
Q 2797 -91 1919 -91 
Q 1588 -91 1214 -16 
Q 841 59 441 206 
L 441 856 
Q 825 641 1194 531 
Q 1563 422 1919 422 
Q 2459 422 2753 634 
Q 3047 847 3047 1241 
Q 3047 1584 2836 1778 
Q 2625 1972 2144 2069 
L 1759 2144 
Q 1053 2284 737 2584 
Q 422 2884 422 3419 
Q 422 4038 858 4394 
Q 1294 4750 2059 4750 
Q 2388 4750 2728 4690 
Q 3069 4631 3425 4513 
z
" transform="scale(0.015625)"/>
      <path id="DejaVuSans-70" d="M 1159 525 
L 1159 -1331 
L 581 -1331 
L 581 3500 
L 1159 3500 
L 1159 2969 
Q 1341 3281 1617 3432 
Q 1894 3584 2278 3584 
Q 2916 3584 3314 3078 
Q 3713 2572 3713 1747 
Q 3713 922 3314 415 
Q 2916 -91 2278 -91 
Q 1894 -91 1617 61 
Q 1341 213 1159 525 
z
M 3116 1747 
Q 3116 2381 2855 2742 
Q 2594 3103 2138 3103 
Q 1681 3103 1420 2742 
Q 1159 2381 1159 1747 
Q 1159 1113 1420 752 
Q 1681 391 2138 391 
Q 2594 391 2855 752 
Q 3116 1113 3116 1747 
z
" transform="scale(0.015625)"/>
      <path id="DejaVuSans-63" d="M 3122 3366 
L 3122 2828 
Q 2878 2963 2633 3030 
Q 2388 3097 2138 3097 
Q 1578 3097 1268 2742 
Q 959 2388 959 1747 
Q 959 1106 1268 751 
Q 1578 397 2138 397 
Q 2388 397 2633 464 
Q 2878 531 3122 666 
L 3122 134 
Q 2881 22 2623 -34 
Q 2366 -91 2075 -91 
Q 1284 -91 818 406 
Q 353 903 353 1747 
Q 353 2603 823 3093 
Q 1294 3584 2113 3584 
Q 2378 3584 2631 3529 
Q 2884 3475 3122 3366 
z
" transform="scale(0.015625)"/>
      <path id="DejaVuSans-50" d="M 1259 4147 
L 1259 2394 
L 2053 2394 
Q 2494 2394 2734 2622 
Q 2975 2850 2975 3272 
Q 2975 3691 2734 3919 
Q 2494 4147 2053 4147 
L 1259 4147 
z
M 628 4666 
L 2053 4666 
Q 2838 4666 3239 4311 
Q 3641 3956 3641 3272 
Q 3641 2581 3239 2228 
Q 2838 1875 2053 1875 
L 1259 1875 
L 1259 0 
L 628 0 
L 628 4666 
z
" transform="scale(0.015625)"/>
      <path id="DejaVuSans-6f" d="M 1959 3097 
Q 1497 3097 1228 2736 
Q 959 2375 959 1747 
Q 959 1119 1226 758 
Q 1494 397 1959 397 
Q 2419 397 2687 759 
Q 2956 1122 2956 1747 
Q 2956 2369 2687 2733 
Q 2419 3097 1959 3097 
z
M 1959 3584 
Q 2709 3584 3137 3096 
Q 3566 2609 3566 1747 
Q 3566 888 3137 398 
Q 2709 -91 1959 -91 
Q 1206 -91 779 398 
Q 353 888 353 1747 
Q 353 2609 779 3096 
Q 1206 3584 1959 3584 
z
" transform="scale(0.015625)"/>
      <path id="DejaVuSans-6a" d="M 603 3500 
L 1178 3500 
L 1178 -63 
Q 1178 -731 923 -1031 
Q 669 -1331 103 -1331 
L -116 -1331 
L -116 -844 
L 38 -844 
Q 366 -844 484 -692 
Q 603 -541 603 -63 
L 603 3500 
z
M 603 4863 
L 1178 4863 
L 1178 4134 
L 603 4134 
L 603 4863 
z
" transform="scale(0.015625)"/>
      <path id="DejaVuSans-74" d="M 1172 4494 
L 1172 3500 
L 2356 3500 
L 2356 3053 
L 1172 3053 
L 1172 1153 
Q 1172 725 1289 603 
Q 1406 481 1766 481 
L 2356 481 
L 2356 0 
L 1766 0 
Q 1100 0 847 248 
Q 594 497 594 1153 
L 594 3053 
L 172 3053 
L 172 3500 
L 594 3500 
L 594 4494 
L 1172 4494 
z
" transform="scale(0.015625)"/>
      <path id="DejaVuSans-69" d="M 603 3500 
L 1178 3500 
L 1178 0 
L 603 0 
L 603 3500 
z
M 603 4863 
L 1178 4863 
L 1178 4134 
L 603 4134 
L 603 4863 
z
" transform="scale(0.015625)"/>
      <path id="DejaVuSans-6e" d="M 3513 2113 
L 3513 0 
L 2938 0 
L 2938 2094 
Q 2938 2591 2744 2837 
Q 2550 3084 2163 3084 
Q 1697 3084 1428 2787 
Q 1159 2491 1159 1978 
L 1159 0 
L 581 0 
L 581 3500 
L 1159 3500 
L 1159 2956 
Q 1366 3272 1645 3428 
Q 1925 3584 2291 3584 
Q 2894 3584 3203 3211 
Q 3513 2838 3513 2113 
z
" transform="scale(0.015625)"/>
      <path id="DejaVuSans-2d" d="M 313 2009 
L 1997 2009 
L 1997 1497 
L 313 1497 
L 313 2009 
z
" transform="scale(0.015625)"/>
      <path id="DejaVuSans-77" d="M 269 3500 
L 844 3500 
L 1563 769 
L 2278 3500 
L 2956 3500 
L 3675 769 
L 4391 3500 
L 4966 3500 
L 4050 0 
L 3372 0 
L 2619 2869 
L 1863 0 
L 1184 0 
L 269 3500 
z
" transform="scale(0.015625)"/>
      <path id="DejaVuSans-68" d="M 3513 2113 
L 3513 0 
L 2938 0 
L 2938 2094 
Q 2938 2591 2744 2837 
Q 2550 3084 2163 3084 
Q 1697 3084 1428 2787 
Q 1159 2491 1159 1978 
L 1159 0 
L 581 0 
L 581 4863 
L 1159 4863 
L 1159 2956 
Q 1366 3272 1645 3428 
Q 1925 3584 2291 3584 
Q 2894 3584 3203 3211 
Q 3513 2838 3513 2113 
z
" transform="scale(0.015625)"/>
      <path id="DejaVuSans-3d" d="M 678 2906 
L 4684 2906 
L 4684 2381 
L 678 2381 
L 678 2906 
z
M 678 1631 
L 4684 1631 
L 4684 1100 
L 678 1100 
L 678 1631 
z
" transform="scale(0.015625)"/>
      <path id="DejaVuSans-33" d="M 2597 2516 
Q 3050 2419 3304 2112 
Q 3559 1806 3559 1356 
Q 3559 666 3084 287 
Q 2609 -91 1734 -91 
Q 1441 -91 1130 -33 
Q 819 25 488 141 
L 488 750 
Q 750 597 1062 519 
Q 1375 441 1716 441 
Q 2309 441 2620 675 
Q 2931 909 2931 1356 
Q 2931 1769 2642 2001 
Q 2353 2234 1838 2234 
L 1294 2234 
L 1294 2753 
L 1863 2753 
Q 2328 2753 2575 2939 
Q 2822 3125 2822 3475 
Q 2822 3834 2567 4026 
Q 2313 4219 1838 4219 
Q 1578 4219 1281 4162 
Q 984 4106 628 3988 
L 628 4550 
Q 988 4650 1302 4700 
Q 1616 4750 1894 4750 
Q 2613 4750 3031 4423 
Q 3450 4097 3450 3541 
Q 3450 3153 3228 2886 
Q 3006 2619 2597 2516 
z
" transform="scale(0.015625)"/>
     </defs>
     <use xlink:href="#DejaVuSans-52"/>
     <use xlink:href="#DejaVuSans-65" x="64.982422"/>
     <use xlink:href="#DejaVuSans-61" x="126.505859"/>
     <use xlink:href="#DejaVuSans-6c" x="187.785156"/>
     <use xlink:href="#DejaVuSans-20" x="215.568359"/>
     <use xlink:href="#DejaVuSans-53" x="247.355469"/>
     <use xlink:href="#DejaVuSans-70" x="310.832031"/>
     <use xlink:href="#DejaVuSans-61" x="374.308594"/>
     <use xlink:href="#DejaVuSans-63" x="435.587891"/>
     <use xlink:href="#DejaVuSans-65" x="490.568359"/>
     <use xlink:href="#DejaVuSans-20" x="552.091797"/>
     <use xlink:href="#DejaVuSans-50" x="583.878906"/>
     <use xlink:href="#DejaVuSans-72" x="642.431641"/>
     <use xlink:href="#DejaVuSans-6f" x="681.294922"/>
     <use xlink:href="#DejaVuSans-6a" x="742.476562"/>
     <use xlink:href="#DejaVuSans-65" x="770.259766"/>
     <use xlink:href="#DejaVuSans-63" x="831.783203"/>
     <use xlink:href="#DejaVuSans-74" x="886.763672"/>
     <use xlink:href="#DejaVuSans-69" x="925.972656"/>
     <use xlink:href="#DejaVuSans-6f" x="953.755859"/>
     <use xlink:href="#DejaVuSans-6e" x="1014.9375"/>
     <use xlink:href="#DejaVuSans-20" x="1078.316406"/>
     <use xlink:href="#DejaVuSans-6f" x="1110.103516"/>
     <use xlink:href="#DejaVuSans-6e" x="1171.285156"/>
     <use xlink:href="#DejaVuSans-74" x="1234.664062"/>
     <use xlink:href="#DejaVuSans-6f" x="1273.873047"/>
     <use xlink:href="#DejaVuSans-20" x="1335.054688"/>
     <use xlink:href="#DejaVuSans-72" x="1366.841797"/>
     <use xlink:href="#DejaVuSans-2d" x="1401.580078"/>
     <use xlink:href="#DejaVuSans-7a" x="1437.664062"/>
     <use xlink:href="#DejaVuSans-20" x="1490.154297"/>
     <use xlink:href="#DejaVuSans-70" x="1521.941406"/>
     <use xlink:href="#DejaVuSans-6c" x="1585.417969"/>
     <use xlink:href="#DejaVuSans-61" x="1613.201172"/>
     <use xlink:href="#DejaVuSans-6e" x="1674.480469"/>
     <use xlink:href="#DejaVuSans-65" x="1737.859375"/>
     <use xlink:href="#DejaVuSans-20" x="1799.382812"/>
     <use xlink:href="#DejaVuSans-77" x="1831.169922"/>
     <use xlink:href="#DejaVuSans-69" x="1912.957031"/>
     <use xlink:href="#DejaVuSans-74" x="1940.740234"/>
     <use xlink:href="#DejaVuSans-68" x="1979.949219"/>
     <use xlink:href="#DejaVuSans-20" x="2043.328125"/>
     <use xlink:href="#DejaVuSans-69" x="2075.115234"/>
     <use xlink:href="#DejaVuSans-6e" x="2102.898438"/>
     <use xlink:href="#DejaVuSans-69" x="2166.277344"/>
     <use xlink:href="#DejaVuSans-74" x="2194.060547"/>
     <use xlink:href="#DejaVuSans-69" x="2233.269531"/>
     <use xlink:href="#DejaVuSans-61" x="2261.052734"/>
     <use xlink:href="#DejaVuSans-6c" x="2322.332031"/>
     <use xlink:href="#DejaVuSans-20" x="2350.115234"/>
     <use xlink:href="#DejaVuSans-72" x="2381.902344"/>
     <use xlink:href="#DejaVuSans-20" x="2423.015625"/>
     <use xlink:href="#DejaVuSans-3d" x="2454.802734"/>
     <use xlink:href="#DejaVuSans-20" x="2538.591797"/>
     <use xlink:href="#DejaVuSans-30" x="2570.378906"/>
     <use xlink:href="#DejaVuSans-2e" x="2634.001953"/>
     <use xlink:href="#DejaVuSans-30" x="2665.789062"/>
     <use xlink:href="#DejaVuSans-33" x="2729.412109"/>
    </g>
   </g>
  </g>
 </g>
 <defs>
  <clipPath id="pec59e92967">
   <rect x="57.6" y="41.472" width="357.12" height="266.112"/>
  </clipPath>
 </defs>
</svg>
