<?xml version="1.0" encoding="utf-8" standalone="no"?>
<!DOCTYPE svg PUBLIC "-//W3C//DTD SVG 1.1//EN"
  "http://www.w3.org/Graphics/SVG/1.1/DTD/svg11.dtd">
<svg xmlns:xlink="http://www.w3.org/1999/xlink" width="460.8pt" height="345.6pt" viewBox="0 0 460.8 345.6" xmlns="http://www.w3.org/2000/svg" version="1.1">
 <metadata>
  <rdf:RDF xmlns:dc="http://purl.org/dc/elements/1.1/" xmlns:cc="http://creativecommons.org/ns#" xmlns:rdf="http://www.w3.org/1999/02/22-rdf-syntax-ns#">
   <cc:Work>
    <dc:type rdf:resource="http://purl.org/dc/dcmitype/StillImage"/>
    <dc:date>2023-10-23T21:33:14.378279</dc:date>
    <dc:format>image/svg+xml</dc:format>
    <dc:creator>
     <cc:Agent>
      <dc:title>Matplotlib v3.8.0, https://matplotlib.org/</dc:title>
     </cc:Agent>
    </dc:creator>
   </cc:Work>
  </rdf:RDF>
 </metadata>
 <defs>
  <style type="text/css">*{stroke-linejoin: round; stroke-linecap: butt}</style>
 </defs>
 <g id="figure_1">
  <g id="patch_1">
   <path d="M 0 345.6 
L 460.8 345.6 
L 460.8 0 
L 0 0 
z
" style="fill: #ffffff"/>
  </g>
  <g id="axes_1">
   <g id="patch_2">
    <path d="M 57.6 307.584 
L 414.72 307.584 
L 414.72 41.472 
L 57.6 41.472 
z
" style="fill: #ffffff"/>
   </g>
   <g id="matplotlib.axis_1">
    <g id="xtick_1">
     <g id="line2d_1">
      <defs>
       <path id="mda3ea0d5da" d="M 0 0 
L 0 3.5 
" style="stroke: #000000; stroke-width: 0.8"/>
      </defs>
      <g>
       <use xlink:href="#mda3ea0d5da" x="93.312" y="307.584" style="stroke: #000000; stroke-width: 0.8"/>
      </g>
     </g>
     <g id="text_1">
      <!-- −0.4 -->
      <g transform="translate(81.170594 322.182437) scale(0.1 -0.1)">
       <defs>
        <path id="DejaVuSans-2212" d="M 678 2272 
L 4684 2272 
L 4684 1741 
L 678 1741 
L 678 2272 
z
" transform="scale(0.015625)"/>
        <path id="DejaVuSans-30" d="M 2034 4250 
Q 1547 4250 1301 3770 
Q 1056 3291 1056 2328 
Q 1056 1369 1301 889 
Q 1547 409 2034 409 
Q 2525 409 2770 889 
Q 3016 1369 3016 2328 
Q 3016 3291 2770 3770 
Q 2525 4250 2034 4250 
z
M 2034 4750 
Q 2819 4750 3233 4129 
Q 3647 3509 3647 2328 
Q 3647 1150 3233 529 
Q 2819 -91 2034 -91 
Q 1250 -91 836 529 
Q 422 1150 422 2328 
Q 422 3509 836 4129 
Q 1250 4750 2034 4750 
z
" transform="scale(0.015625)"/>
        <path id="DejaVuSans-2e" d="M 684 794 
L 1344 794 
L 1344 0 
L 684 0 
L 684 794 
z
" transform="scale(0.015625)"/>
        <path id="DejaVuSans-34" d="M 2419 4116 
L 825 1625 
L 2419 1625 
L 2419 4116 
z
M 2253 4666 
L 3047 4666 
L 3047 1625 
L 3713 1625 
L 3713 1100 
L 3047 1100 
L 3047 0 
L 2419 0 
L 2419 1100 
L 313 1100 
L 313 1709 
L 2253 4666 
z
" transform="scale(0.015625)"/>
       </defs>
       <use xlink:href="#DejaVuSans-2212"/>
       <use xlink:href="#DejaVuSans-30" x="83.789062"/>
       <use xlink:href="#DejaVuSans-2e" x="147.412109"/>
       <use xlink:href="#DejaVuSans-34" x="179.199219"/>
      </g>
     </g>
    </g>
    <g id="xtick_2">
     <g id="line2d_2">
      <g>
       <use xlink:href="#mda3ea0d5da" x="164.736" y="307.584" style="stroke: #000000; stroke-width: 0.8"/>
      </g>
     </g>
     <g id="text_2">
      <!-- −0.2 -->
      <g transform="translate(152.594594 322.182437) scale(0.1 -0.1)">
       <defs>
        <path id="DejaVuSans-32" d="M 1228 531 
L 3431 531 
L 3431 0 
L 469 0 
L 469 531 
Q 828 903 1448 1529 
Q 2069 2156 2228 2338 
Q 2531 2678 2651 2914 
Q 2772 3150 2772 3378 
Q 2772 3750 2511 3984 
Q 2250 4219 1831 4219 
Q 1534 4219 1204 4116 
Q 875 4013 500 3803 
L 500 4441 
Q 881 4594 1212 4672 
Q 1544 4750 1819 4750 
Q 2544 4750 2975 4387 
Q 3406 4025 3406 3419 
Q 3406 3131 3298 2873 
Q 3191 2616 2906 2266 
Q 2828 2175 2409 1742 
Q 1991 1309 1228 531 
z
" transform="scale(0.015625)"/>
       </defs>
       <use xlink:href="#DejaVuSans-2212"/>
       <use xlink:href="#DejaVuSans-30" x="83.789062"/>
       <use xlink:href="#DejaVuSans-2e" x="147.412109"/>
       <use xlink:href="#DejaVuSans-32" x="179.199219"/>
      </g>
     </g>
    </g>
    <g id="xtick_3">
     <g id="line2d_3">
      <g>
       <use xlink:href="#mda3ea0d5da" x="236.16" y="307.584" style="stroke: #000000; stroke-width: 0.8"/>
      </g>
     </g>
     <g id="text_3">
      <!-- 0.0 -->
      <g transform="translate(228.208438 322.182437) scale(0.1 -0.1)">
       <use xlink:href="#DejaVuSans-30"/>
       <use xlink:href="#DejaVuSans-2e" x="63.623047"/>
       <use xlink:href="#DejaVuSans-30" x="95.410156"/>
      </g>
     </g>
    </g>
    <g id="xtick_4">
     <g id="line2d_4">
      <g>
       <use xlink:href="#mda3ea0d5da" x="307.584" y="307.584" style="stroke: #000000; stroke-width: 0.8"/>
      </g>
     </g>
     <g id="text_4">
      <!-- 0.2 -->
      <g transform="translate(299.632437 322.182437) scale(0.1 -0.1)">
       <use xlink:href="#DejaVuSans-30"/>
       <use xlink:href="#DejaVuSans-2e" x="63.623047"/>
       <use xlink:href="#DejaVuSans-32" x="95.410156"/>
      </g>
     </g>
    </g>
    <g id="xtick_5">
     <g id="line2d_5">
      <g>
       <use xlink:href="#mda3ea0d5da" x="379.008" y="307.584" style="stroke: #000000; stroke-width: 0.8"/>
      </g>
     </g>
     <g id="text_5">
      <!-- 0.4 -->
      <g transform="translate(371.056437 322.182437) scale(0.1 -0.1)">
       <use xlink:href="#DejaVuSans-30"/>
       <use xlink:href="#DejaVuSans-2e" x="63.623047"/>
       <use xlink:href="#DejaVuSans-34" x="95.410156"/>
      </g>
     </g>
    </g>
    <g id="text_6">
     <!-- r -->
     <g transform="translate(234.104531 335.860562) scale(0.1 -0.1)">
      <defs>
       <path id="DejaVuSans-72" d="M 2631 2963 
Q 2534 3019 2420 3045 
Q 2306 3072 2169 3072 
Q 1681 3072 1420 2755 
Q 1159 2438 1159 1844 
L 1159 0 
L 581 0 
L 581 3500 
L 1159 3500 
L 1159 2956 
Q 1341 3275 1631 3429 
Q 1922 3584 2338 3584 
Q 2397 3584 2469 3576 
Q 2541 3569 2628 3553 
L 2631 2963 
z
" transform="scale(0.015625)"/>
      </defs>
      <use xlink:href="#DejaVuSans-72"/>
     </g>
    </g>
   </g>
   <g id="matplotlib.axis_2">
    <g id="ytick_1">
     <g id="line2d_6">
      <defs>
       <path id="m5eeba04bef" d="M 0 0 
L -3.5 0 
" style="stroke: #000000; stroke-width: 0.8"/>
      </defs>
      <g>
       <use xlink:href="#m5eeba04bef" x="57.6" y="280.9728" style="stroke: #000000; stroke-width: 0.8"/>
      </g>
     </g>
     <g id="text_7">
      <!-- −0.4 -->
      <g transform="translate(26.317187 284.772019) scale(0.1 -0.1)">
       <use xlink:href="#DejaVuSans-2212"/>
       <use xlink:href="#DejaVuSans-30" x="83.789062"/>
       <use xlink:href="#DejaVuSans-2e" x="147.412109"/>
       <use xlink:href="#DejaVuSans-34" x="179.199219"/>
      </g>
     </g>
    </g>
    <g id="ytick_2">
     <g id="line2d_7">
      <g>
       <use xlink:href="#m5eeba04bef" x="57.6" y="227.7504" style="stroke: #000000; stroke-width: 0.8"/>
      </g>
     </g>
     <g id="text_8">
      <!-- −0.2 -->
      <g transform="translate(26.317187 231.549619) scale(0.1 -0.1)">
       <use xlink:href="#DejaVuSans-2212"/>
       <use xlink:href="#DejaVuSans-30" x="83.789062"/>
       <use xlink:href="#DejaVuSans-2e" x="147.412109"/>
       <use xlink:href="#DejaVuSans-32" x="179.199219"/>
      </g>
     </g>
    </g>
    <g id="ytick_3">
     <g id="line2d_8">
      <g>
       <use xlink:href="#m5eeba04bef" x="57.6" y="174.528" style="stroke: #000000; stroke-width: 0.8"/>
      </g>
     </g>
     <g id="text_9">
      <!-- 0.0 -->
      <g transform="translate(34.696875 178.327219) scale(0.1 -0.1)">
       <use xlink:href="#DejaVuSans-30"/>
       <use xlink:href="#DejaVuSans-2e" x="63.623047"/>
       <use xlink:href="#DejaVuSans-30" x="95.410156"/>
      </g>
     </g>
    </g>
    <g id="ytick_4">
     <g id="line2d_9">
      <g>
       <use xlink:href="#m5eeba04bef" x="57.6" y="121.3056" style="stroke: #000000; stroke-width: 0.8"/>
      </g>
     </g>
     <g id="text_10">
      <!-- 0.2 -->
      <g transform="translate(34.696875 125.104819) scale(0.1 -0.1)">
       <use xlink:href="#DejaVuSans-30"/>
       <use xlink:href="#DejaVuSans-2e" x="63.623047"/>
       <use xlink:href="#DejaVuSans-32" x="95.410156"/>
      </g>
     </g>
    </g>
    <g id="ytick_5">
     <g id="line2d_10">
      <g>
       <use xlink:href="#m5eeba04bef" x="57.6" y="68.0832" style="stroke: #000000; stroke-width: 0.8"/>
      </g>
     </g>
     <g id="text_11">
      <!-- 0.4 -->
      <g transform="translate(34.696875 71.882419) scale(0.1 -0.1)">
       <use xlink:href="#DejaVuSans-30"/>
       <use xlink:href="#DejaVuSans-2e" x="63.623047"/>
       <use xlink:href="#DejaVuSans-34" x="95.410156"/>
      </g>
     </g>
    </g>
    <g id="text_12">
     <!-- z -->
     <g transform="translate(20.2375 177.152219) rotate(-90) scale(0.1 -0.1)">
      <defs>
       <path id="DejaVuSans-7a" d="M 353 3500 
L 3084 3500 
L 3084 2975 
L 922 459 
L 3084 459 
L 3084 0 
L 275 0 
L 275 525 
L 2438 3041 
L 353 3041 
L 353 3500 
z
" transform="scale(0.015625)"/>
      </defs>
      <use xlink:href="#DejaVuSans-7a"/>
     </g>
    </g>
   </g>
   <g id="line2d_11">
    <path d="M 307.584 174.528 
L 305.371163 169.411133 
L 295.535998 150.535479 
L 278.393468 127.102938 
L 253.723746 105.985416 
L 223.400834 92.522257 
L 194.444719 88.063282 
L 166.419877 89.750027 
L 144.119129 95.712899 
L 126.952994 106.539771 
L 122.494387 118.267093 
L 128.76509 131.563912 
L 145.427614 146.253778 
L 174.464209 164.045882 
L 213.686032 183.878771 
L 249.06113 199.852187 
L 283.017658 213.482409 
L 315.573126 223.69307 
L 337.92519 226.991067 
L 353.938844 224.330614 
L 363.011796 216.262609 
L 366.101067 201.788313 
L 361.845856 182.928193 
L 353.028017 166.433611 
L 340.47961 151.554405 
L 319.431821 135.80917 
L 288.034332 123.208688 
L 252.048888 117.659537 
L 220.53301 117.671814 
L 190.909139 120.766771 
L 158.257216 127.49545 
L 130.616163 137.383649 
L 115.45849 149.375376 
L 115.330215 159.257475 
L 124.453401 168.736069 
L 146.138135 180.300513 
L 180.901018 192.876894 
L 223.798929 204.568386 
L 265.965805 212.890512 
L 302.55733 216.61929 
L 329.971634 215.713004 
L 351.468832 210.813821 
L 369.446143 200.660572 
L 380.753313 185.598348 
L 383.772313 172.127087 
L 381.509302 158.948705 
L 373.435175 146.980793 
L 357.102382 137.322749 
L 331.360245 132.86726 
L 304.90008 133.841686 
L 275.442954 138.21843 
L 237.705238 146.724329 
L 197.143732 158.35067 
L 161.149423 170.990594 
L 131.921085 184.725164 
L 116.387663 198.324934 
L 115.793751 207.947809 
L 124.082398 216.558384 
L 143.641816 225.521684 
L 174.493508 233.140622 
L 212.531081 237.154689 
L 246.332554 236.05332 
L 277.362711 229.955249 
L 308.047852 216.56456 
L 333.807578 195.400126 
L 348.397753 175.044567 
L 356.746436 154.646683 
L 358.563793 137.930269 
L 353.754714 124.960098 
L 340.765418 118.264478 
L 324.351954 118.622273 
L 304.444184 123.439104 
L 275.736047 134.088985 
L 240.197215 150.225963 
L 203.267076 169.155299 
L 171.003184 187.843066 
L 143.425339 207.64472 
L 127.780802 226.234238 
L 125.771692 238.510032 
L 131.749 249.168028 
L 145.973602 258.41476 
L 168.630078 264.910898 
L 196.76102 265.94138 
L 225.691813 259.172243 
L 250.883902 244.473041 
L 271.922571 222.501324 
L 290.654034 190.623927 
L 300.585457 164.879192 
L 306.619659 140.265323 
L 308.117164 117.555484 
L 304.093257 102.307358 
L 293.656834 93.829531 
L 279.692446 93.181668 
L 261.715266 98.29925 
L 237.254808 110.353051 
L 209.891089 128.275476 
L 184.476018 149.107849 
L 161.717409 173.814472 
L 147.039396 200.576456 
L 144.133843 221.404882 
L 149.209558 240.450192 
L 161.277561 257.293043 
L 179.991604 271.381398 
L 201.357459 278.853948 
L 218.360235 278.029923 
L 232.235399 270.138756 
L 243.584299 254.028916 
L 251.873745 229.826639 
L 257.083572 201.826639 
L 260.251194 172.00063 
L 261.566219 143.708177 
L 260.957123 119.940974 
L 258.258607 100.908926 
L 252.153269 84.966351 
L 241.875284 75.361348 
L 227.461538 73.17108 
L 210.514469 77.861362 
L 191.375054 88.935849 
L 172.042392 106.293152 
L 156.56931 129.030952 
L 149.600293 156.232413 
L 154.364455 183.824242 
L 168.060714 208.345511 
L 190.777575 233.067494 
L 217.37182 253.101922 
L 237.588422 263.493196 
L 255.036652 267.813836 
L 268.485404 265.100995 
L 277.136134 254.858545 
L 281.035613 236.190932 
L 280.652923 216.3082 
L 277.847629 194.575264 
L 271.931433 166.963537 
L 263.419271 139.351271 
L 251.22924 112.424998 
L 235.627106 91.297038 
L 218.520325 78.797538 
L 197.563035 72.953161 
L 175.980542 74.510997 
L 157.920257 81.282968 
L 142.059197 94.114117 
L 134.885436 112.484648 
L 140.308739 133.046643 
L 155.763436 153.460459 
L 182.75487 177.215625 
L 218.68879 202.121239 
L 247.817763 219.26735 
L 275.284453 232.850113 
L 301.745336 241.921685 
L 318.096969 243.108331 
L 329.155378 238.272161 
L 335.112789 226.258099 
L 334.624562 207.041909 
L 328.599211 185.881065 
L 318.382932 164.554807 
L 304.668208 144.746665 
L 282.975197 123.772345 
L 252.416471 106.739276 
L 215.835082 97.990429 
L 187.260783 97.145778 
L 160.577229 100.403961 
L 136.199963 107.809929 
L 120.788307 119.102491 
L 119.164038 129.27965 
L 126.861104 140.392291 
L 145.833814 153.854574 
L 177.532023 169.870158 
L 218.912699 187.250548 
L 259.895187 202.387133 
L 294.93365 213.34897 
L 327.510375 220.261165 
L 347.04513 221.017558 
L 361.591872 217.531308 
L 371.755859 208.835128 
L 375.641611 194.408234 
L 371.881079 176.565852 
L 361.795098 159.878893 
L 346.770389 145.925837 
L 322.441875 133.443708 
L 287.418576 125.914116 
L 255.798025 124.917474 
L 222.263941 127.63797 
L 187.772143 133.54156 
L 153.577213 142.634777 
L 126.704848 154.061552 
L 113.999451 166.690913 
L 116.391716 176.973497 
L 128.972582 186.790565 
L 154.667538 197.849721 
L 192.319609 208.624536 
L 235.335138 216.79792 
L 275.095011 220.362957 
L 309.564309 218.797606 
L 335.885079 212.534776 
L 358.155944 200.516088 
L 373.42447 183.423981 
L 378.954861 169.81841 
L 379.756067 156.702104 
L 375.010023 144.227961 
L 362.432549 134.553814 
L 340.89712 130.598915 
L 314.650119 132.665279 
L 285.668456 138.697246 
L 248.579768 149.25944 
L 207.698453 163.100153 
L 171.978502 177.018681 
L 140.760613 191.978889 
L 121.075329 206.762936 
L 116.935627 217.622939 
L 123.266833 227.427561 
L 139.393733 235.9932 
L 166.239221 243.056247 
L 200.633522 246.332023 
L 237.186752 243.584293 
L 268.771016 234.501299 
L 297.944359 217.557642 
L 322.761833 191.866043 
L 335.592806 170.319425 
L 343.197535 149.258269 
L 345.09366 130.724772 
L 340.350474 117.303082 
L 327.733222 110.833379 
L 311.14827 111.829665 
L 290.615892 117.947275 
L 261.803538 130.554861 
L 227.412692 148.867901 
L 195.059436 168.596759 
L 165.532274 189.67039 
L 142.200482 211.912473 
L 131.984084 230.413918 
L 131.999224 243.840106 
L 138.322875 254.729363 
L 152.711232 265.175437 
L 174.327002 272.05976 
L 199.929162 272.38438 
L 223.721429 264.55307 
L 244.598653 248.318653 
L 262.017206 224.122456 
L 276.468672 191.975034 
L 284.800909 164.416556 
L 289.924412 137.824824 
L 291.172817 116.104301 
L 288.277019 99.378948 
L 280.124867 88.541575 
L 265.543658 85.413551 
L 247.058959 90.070747 
L 224.700421 101.433849 
L 202.682449 116.776673 
L 179.404761 137.878089 
L 159.809832 163.218239 
L 148.928895 191.224482 
L 148.982473 212.708775 
L 155.523786 231.369469 
L 170.012283 251.169545 
L 190.540524 267.633063 
L 211.984207 276.774757 
L 227.246922 277.451269 
L 239.531796 271.608202 
L 248.638901 258.813941 
L 254.853624 237.426105 
L 257.747867 211.734001 
L 258.512682 188.190271 
L 258.129236 163.903855 
L 256.760671 141.616272 
L 253.683873 117.673147 
L 248.058117 96.262838 
L 239.45384 80.886084 
L 227.999796 72.450048 
L 213.320758 70.45534 
L 196.345556 74.823233 
L 178.082447 85.376731 
L 160.823405 102.194343 
L 149.069754 124.535507 
L 147.071164 147.048288 
L 154.150541 170.511672 
L 170.94302 195.657601 
L 197.276096 221.507442 
L 223.871611 240.969738 
L 245.215212 252.848107 
L 263.863616 259.663011 
L 279.401965 260.661473 
L 290.201435 254.974423 
L 296.463548 241.053597 
L 297.341074 223.178333 
L 294.509199 201.530788 
L 287.741898 175.117449 
L 277.122565 147.276609 
L 262.726749 121.306651 
L 242.915912 98.697382 
L 220.046928 84.521251 
L 194.777979 78.459436 
L 172.585692 79.278333 
L 153.126962 84.655486 
L 136.011465 95.657045 
L 128.902862 111.631768 
L 134.902963 128.873394 
L 151.025596 146.554279 
L 179.027327 167.66529 
L 216.722995 190.760556 
L 248.872264 208.047913 
L 279.521521 222.440553 
L 309.072441 232.94636 
L 328.613162 235.742462 
L 342.049387 232.121644 
L 349.160732 222.224428 
L 349.927074 205.254719 
L 344.237707 185.160265 
L 334.357759 166.205786 
L 320.581751 148.401712 
L 298.653249 129.769565 
L 266.84327 114.48867 
L 227.166381 106.784209 
L 197.307402 106.449199 
L 169.040795 109.64221 
L 141.097162 116.709473 
L 121.250357 127.225353 
L 116.028579 137.656916 
L 122.558398 148.96654 
L 140.167992 160.957926 
L 170.901463 175.026537 
L 212.194419 190.05433 
L 250.268402 201.826666 
L 286.775214 211.077316 
L 321.94379 216.709611 
L 344.081955 216.925248 
L 360.601266 213.464393 
L 373.974453 205.026389 
L 381.192898 191.311315 
L 381.086601 176.665986 
L 374.929338 161.88181 
L 363.626675 149.313857 
L 343.757389 138.07006 
L 313.631387 131.312182 
L 284.998708 130.495228 
L 253.289294 133.200543 
L 216.477787 139.482235 
L 180.952781 148.147922 
L 146.956796 159.444212 
L 122.478951 172.159321 
L 113.80946 183.494372 
L 118.468852 194.54924 
L 133.920895 204.251643 
L 162.178884 214.19093 
L 200.655977 222.452214 
L 242.337132 226.679442 
L 278.922232 225.579365 
L 309.200834 219.472056 
L 336.611326 206.929802 
L 357.601775 188.237709 
L 367.649974 171.905336 
L 372.171674 155.893893 
L 370.899738 141.7657 
L 362.617218 130.984909 
L 345.545647 125.97514 
L 325.423498 127.257492 
L 301.240141 132.728939 
L 268.333347 143.35168 
L 229.399956 158.313558 
L 191.555099 174.602411 
L 158.204864 191.06076 
L 132.065897 208.025821 
L 120.412912 223.292943 
L 122.090048 233.745789 
L 131.913462 242.418094 
L 151.829035 250.313875 
L 180.36527 255.05201 
L 213.580652 254.191811 
L 245.382238 246.1929 
L 271.998485 231.801836 
L 297.807121 207.086351 
L 314.990095 180.218465 
L 324.802491 156.299716 
L 329.408546 135.092783 
L 328.30095 116.830091 
L 320.861349 106.141733 
L 305.576558 102.813293 
L 285.674206 107.137443 
L 260.833223 117.680952 
L 229.855073 134.931551 
L 199.769062 154.947792 
L 172.004262 177.12531 
L 149.573958 201.168441 
L 137.958557 225.055042 
L 138.077001 240.928874 
L 144.274647 253.91906 
L 158.082655 266.647028 
L 178.319287 275.535772 
L 201.324444 277.301491 
L 221.579071 270.486062 
L 238.490086 255.309437 
L 252.423886 231.525999 
L 263.073304 201.511086 
L 270.666546 168.825083 
L 274.891013 138.913508 
L 275.739736 116.87412 
L 273.541743 99.01479 
L 267.181193 85.815932 
L 255.303521 79.323977 
L 238.509534 80.946089 
L 219.940261 88.918909 
L 198.853182 102.94304 
L 177.39914 122.8176 
L 159.725331 147.453245 
L 150.539137 175.635283 
L 152.054909 199.229285 
L 160.990832 220.773064 
L 178.460799 243.159133 
L 201.352274 261.73376 
L 223.534396 272.43856 
L 238.501764 274.506498 
L 250.285483 270.421025 
L 258.999566 258.857854 
L 263.80126 238.976279 
L 264.833188 218.303851 
L 263.904162 194.950644 
L 261.480048 170.487316 
L 257.231849 143.371264 
L 250.65679 116.482398 
L 241.404675 94.213303 
L 231.411796 80.87546 
L 219.528224 72.838006 
L 201.97832 69.766188 
L 183.769647 73.646039 
L 166.035846 83.343387 
L 150.553514 99.246608 
L 142.473958 120.771154 
L 145.119631 142.358963 
L 156.855494 164.458494 
L 179.628166 189.931659 
L 210.887647 215.438826 
L 238.346018 233.30353 
L 264.236378 246.416788 
L 286.418057 253.025984 
L 301.246577 252.015579 
L 310.344909 244.497031 
L 314.534975 228.634384 
L 312.721793 206.807994 
L 306.255467 182.816493 
L 294.692575 155.874666 
L 279.953132 132.32872 
L 258.028183 109.488002 
L 230.189643 93.372138 
L 199.874212 86.247695 
L 175.336654 86.258665 
L 153.943216 90.273814 
L 133.907161 99.318197 
L 123.953306 112.79351 
L 126.823542 125.759795 
L 139.109591 139.64326 
L 163.46104 156.979546 
L 199.243962 176.994672 
L 236.181583 195.100289 
L 272.726295 211.107903 
L 305.772701 223.012615 
L 332.924675 228.600266 
L 348.713951 227.217246 
L 358.47127 220.708089 
L 362.979281 207.634837 
L 360.305615 189.115627 
L 352.210645 171.319185 
L 339.053519 153.898877 
L 319.381559 137.453877 
L 289.65745 123.402837 
L 250.047068 115.730664 
L 218.8803 115.156003 
L 188.177957 118.022697 
L 156.357796 124.456349 
L 129.560177 134.178813 
L 115.393821 146.119363 
L 116.114469 156.186417 
L 126.337778 165.989158 
L 149.367165 177.932406 
L 185.269612 190.957491 
L 228.493921 203.085873 
L 270.163758 211.831607 
L 306.994794 216.106317 
L 333.231713 215.598975 
L 353.46638 211.307626 
L 370.604495 201.890612 
L 381.319185 187.464485 
L 384.000283 173.661214 
L 381.023534 159.989479 
L 372.347023 147.985825 
L 355.397863 138.011321 
L 328.835205 133.006278 
L 302.392346 133.474273 
L 273.695778 137.15347 
L 236.408086 144.856119 
L 196.146951 155.772316 
L 160.16117 167.974399 
L 131.104036 181.392393 
L 115.863007 194.834067 
L 115.629496 204.513268 
L 124.228422 213.064272 
L 144.426727 222.22119 
L 176.100818 230.154047 
L 214.926509 234.606978 
L 248.475805 234.060242 
L 279.085265 228.887594 
L 309.895763 216.780179 
L 335.904593 197.125652 
L 351.286416 177.026833 
L 359.442187 158.617672 
L 361.972657 142.379944 
L 358.18694 128.682637 
L 346.413578 120.794049 
L 331.201403 119.92756 
L 311.318281 123.739854 
L 284.052019 132.849217 
L 249.239368 147.534059 
L 211.243118 165.760432 
L 178.409981 183.342857 
L 149.255628 201.874166 
L 129.407584 220.384633 
L 124.153431 233.834494 
L 128.798813 245.534212 
L 141.57292 254.733813 
L 163.323292 261.794697 
L 191.480545 264.085164 
L 221.845724 259.0736 
L 248.796171 246.21091 
L 270.608641 227.064119 
L 291.513727 196.727415 
L 303.437699 169.894015 
L 310.841986 143.59973 
L 312.987755 120.884923 
L 309.315676 104.929176 
L 299.163825 96.166362 
L 285.137429 95.262675 
L 266.860519 100.256148 
L 242.185528 112.066587 
L 213.666416 130.139806 
L 187.806828 150.381087 
L 163.802781 174.581219 
L 147.281469 200.807013 
L 142.697178 222.192428 
L 146.954113 241.630615 
L 158.061491 257.685158 
L 176.091814 271.344734 
L 197.510068 278.792139 
L 215.201872 278.061472 
L 229.917776 270.193221 
L 242.268694 253.973806 
L 251.638548 229.420127 
L 257.824138 200.903155 
L 261.858963 170.323792 
L 263.795939 141.447675 
L 263.616778 119.63717 
L 261.460666 101.839371 
L 255.877152 86.109347 
L 245.857059 76.416699 
L 231.336341 74.292576 
L 214.314785 79.153913 
L 194.877253 90.419879 
L 174.983332 107.946283 
L 158.591225 130.794674 
L 150.27866 158.022422 
L 152.595472 182.538037 
L 163.085603 205.79958 
L 182.872301 230.381443 
L 208.341684 251.574688 
L 229.815557 263.794843 
L 246.766616 269.094511 
L 260.04204 268.426795 
L 269.763805 261.351743 
L 275.798037 245.601894 
L 277.082071 226.670017 
L 275.464057 204.101721 
L 271.410657 178.747471 
L 264.549054 150.109343 
L 255.06021 122.735087 
L 241.961841 98.523155 
L 226.690967 82.454969 
L 210.212659 74.04122 
L 189.070494 71.85246 
L 169.91124 76.189001 
L 152.244025 86.138643 
L 139.446627 102.05486 
L 136.801966 119.475439 
L 143.744155 138.812588 
L 160.841105 160.460015 
L 189.376543 185.263948 
L 224.618942 209.57616 
L 253.920877 226.505626 
L 279.923241 238.592689 
L 304.282041 245.283069 
L 319.019994 243.936683 
L 327.77072 236.346336 
L 331.253482 220.825759 
L 328.312339 199.659437 
L 319.656749 175.529602 
L 305.948738 151.356862 
L 287.548595 129.644844 
L 260.640235 110.063459 
L 226.633434 97.751995 
L 196.051437 94.390282 
L 166.684255 96.488434 
L 142.434263 102.601746 
L 124.2967 113.079901 
L 119.660568 124.050744 
L 126.058957 136.332064 
L 143.104539 149.804218 
L 172.804889 166.037186 
L 212.854205 184.031251 
L 249.473732 198.650534 
L 284.664972 211.022104 
L 318.468887 220.078257 
L 341.45259 222.702174 
L 358.368616 219.985436 
L 368.736785 212.216418 
L 373.192485 198.48312 
L 370.115341 180.539204 
L 361.974198 165.047981 
L 349.589738 151.11589 
L 328.62905 137.062359 
L 297.163427 126.584886 
L 262.803499 122.910098 
L 229.277337 124.038216 
L 196.105816 128.442347 
L 161.751603 136.220499 
L 132.533776 146.783238 
L 115.724163 159.065661 
L 114.257962 168.704609 
L 122.640101 178.401051 
L 142.991435 189.291961 
L 176.523482 200.824904 
L 218.70662 211.011112 
L 260.939673 217.455225 
L 296.406119 219.029166 
L 325.677124 215.939996 
L 349.629835 207.966408 
L 368.314987 194.384236 
L 378.401247 178.868344 
L 381.470487 164.960606 
L 379.502949 152.571266 
L 371.077267 140.986625 
L 353.93386 133.250605 
L 333.164906 131.538495 
L 307.322028 134.123635 
L 276.211423 140.624785 
L 237.565983 151.440383 
L 197.039818 164.930283 
L 161.501935 178.849459 
L 132.733998 193.529596 
L 117.65055 207.616649 
L 117.136241 217.318508 
L 125.130579 225.786527 
L 143.885664 234.328782 
L 173.241851 241.08193 
L 209.365926 243.747494 
L 246.148515 240.270297 
L 276.762838 230.912473 
L 306.176328 213.144238 
L 329.956246 187.467657 
L 341.254015 167.611564 
L 347.704025 148.650488 
L 348.937608 130.931036 
L 343.511733 118.50163 
L 329.973334 112.799023 
L 310.078036 114.963338 
L 287.001279 122.581608 
L 255.985545 136.564536 
L 220.393066 155.510574 
L 189.368093 174.188199 
L 160.060189 194.881059 
L 137.973817 216.382954 
L 129.786018 233.249525 
L 131.340881 246.187967 
L 139.805726 256.771438 
L 156.637518 266.095524 
L 180.287702 271.201517 
L 207.121759 269.206747 
L 231.499658 258.940278 
L 252.495523 240.47541 
L 270.952331 212.426804 
L 284.853791 178.847115 
L 292.455145 150.503665 
L 295.874352 125.20789 
L 294.407274 105.058377 
L 287.956619 92.770308 
L 274.922887 87.427971 
L 256.645675 90.390657 
L 235.405238 99.846796 
L 210.626538 115.654349 
L 186.606316 135.531418 
L 164.809304 159.893438 
L 150.317609 187.178155 
L 147.134001 209.870032 
L 152.332872 231.071283 
L 164.765038 250.119745 
L 183.957617 266.736537 
L 205.456231 276.786065 
L 221.95973 278.27942 
L 235.525774 272.711978 
L 245.694855 259.744126 
L 252.797635 238.28083 
L 256.566775 212.29181 
L 258.169035 184.667913 
L 258.356143 162.898298 
L 257.650968 141.800105 
L 255.534677 119.506564 
L 250.990943 98.388564 
L 243.284689 82.432021 
L 232.267807 73.315165 
L 218.617094 70.963968 
L 201.727691 74.943224 
L 183.388249 85.119388 
L 165.34225 101.633664 
L 151.919457 123.698028 
L 147.936333 150.441177 
L 155.259636 176.188676 
L 172.045293 201.504791 
L 197.944876 226.960862 
L 223.660739 245.572587 
L 243.934198 256.46851 
L 261.791383 262.342447 
L 277.659851 261.840942 
L 287.125068 254.370881 
L 292.184744 238.283819 
L 292.258694 219.994977 
L 289.372245 199.346556 
L 282.668296 172.380892 
L 272.512907 144.531225 
L 258.495963 118.121392 
L 239.705795 95.948716 
L 218.504098 82.426153 
L 194.301294 76.579837 
L 170.643744 78.105339 
L 151.648064 84.565039 
L 135.920107 96.811447 
L 130.589849 111.813454 
L 136.259158 129.142593 
L 151.906497 147.451298 
L 179.366454 169.281327 
L 216.482983 193.017365 
L 248.022427 210.563119 
L 278.067738 225.029338 
L 306.850815 235.352642 
L 325.687231 237.857299 
L 338.555142 233.934262 
L 345.328586 223.509345 
L 345.705748 205.917848 
L 339.946801 185.709261 
L 330.028441 166.190872 
L 316.180281 147.679546 
L 294.339832 128.363176 
L 262.848238 112.464805 
L 223.889967 104.308281 
L 194.304513 103.754618 
L 166.238108 106.930845 
L 139.348557 114.029433 
L 120.823139 124.699021 
L 116.785175 135.025289 
L 123.802472 146.256415 
L 141.943623 158.636436 
L 173.101139 173.226001 
L 214.52942 188.90008 
L 251.867944 201.097644 
L 287.558538 210.874276 
L 322.346888 217.253683 
L 344.048311 217.989287 
L 360.823247 214.735436 
L 373.423123 206.592449 
L 379.970978 193.031319 
L 379.271804 177.927608 
L 372.303323 162.482422 
L 360.49684 149.624873 
L 340.082822 137.837035 
L 309.270948 130.373308 
L 279.091068 129.088558 
L 245.824493 131.642282 
L 209.312704 137.682905 
L 173.476395 146.429408 
L 140.944137 157.683927 
L 119.237202 170.334417 
L 113.577526 181.083592 
L 120.069718 191.619907 
L 137.677235 201.65705 
L 168.194335 211.873063 
L 208.216051 220.289845 
L 245.707841 224.351852 
L 281.276179 224.036341 
L 310.333689 219.228291 
L 337.505117 208.394214 
L 358.782967 191.41473 
L 369.860086 174.853027 
L 374.7248 158.276474 
L 373.448751 144.477328 
L 365.286991 133.443064 
L 348.306412 127.754432 
L 328.862257 128.260328 
L 306.051965 132.589413 
L 274.179133 141.831872 
L 235.557966 155.560429 
L 196.271585 171.370732 
L 161.944095 187.1537 
L 134.007015 203.632556 
L 120.073908 218.767833 
L 120.045704 228.918232 
L 127.754644 237.301925 
L 145.59144 245.584098 
L 172.987932 251.450661 
L 206.361224 252.510694 
L 240.292286 246.711208 
L 269.119414 234.310991 
L 296.237087 212.735782 
L 317.991395 183.032171 
L 328.475178 159.911607 
L 333.697589 139.560512 
L 333.572983 120.953632 
L 327.357525 109.724808 
L 313.192166 105.078009 
L 293.436757 108.387282 
L 269.632411 117.664059 
L 238.883806 133.717143 
L 206.490022 153.929746 
L 177.726321 175.078938 
L 152.950936 198.303816 
L 137.848191 221.87325 
L 135.527817 238.0593 
L 140.749955 252.28641 
L 153.106954 264.558858 
L 172.577738 273.742787 
L 196.016243 276.542179 
L 218.33981 270.720944 
L 236.938532 256.519365 
L 252.449466 233.790153 
L 264.85261 203.637632 
L 273.737412 170.540957 
L 278.791941 140.191841 
L 280.03707 117.473732 
L 277.804293 99.294322 
L 271.166442 86.621717 
L 258.727916 80.871805 
L 241.417694 83.282601 
L 221.851754 92.142852 
L 200.475544 106.572367 
L 178.480726 126.807813 
L 160.177173 151.672403 
L 150.342978 179.861363 
L 151.244448 202.860133 
L 159.239717 223.537351 
L 175.601001 245.231897 
L 197.676604 263.347696 
L 219.631047 273.796684 
L 234.920756 275.59265 
L 246.967939 270.892458 
L 255.605539 258.98768 
L 260.702315 238.684409 
L 262.140906 217.1357 
L 261.6587 192.854975 
L 259.938953 169.760926 
L 256.638271 143.573372 
L 251.206561 117.197589 
L 243.160231 94.979015 
L 233.903121 81.199603 
L 222.257997 72.737993 
L 205.702041 69.711612 
L 187.837668 73.57453 
L 170.027953 83.344506 
L 153.936885 99.361462 
L 144.489958 121.000064 
L 145.330422 142.486133 
L 154.601985 163.92834 
L 174.576032 189.151964 
L 203.908876 215.050505 
L 231.713207 234.180409 
L 258.354857 248.272163 
L 279.612938 255.071478 
L 294.609219 254.750991 
L 304.09024 248.178669 
L 309.17776 233.236449 
L 308.707206 214.33592 
L 304.321865 192.78249 
L 294.912715 165.663355 
L 282.301412 140.83396 
L 263.9233 116.368937 
L 239.323694 96.756068 
L 211.475224 85.953264 
L 185.579983 83.287268 
L 161.083963 86.196457 
L 140.55113 93.739607 
L 126.991088 106.347659 
L 125.705589 118.273414 
L 133.057824 131.491659 
L 151.137535 147.835402 
L 181.375183 167.456204 
L 220.890531 188.871242 
L 259.151061 207.22722 
L 291.400658 220.547996 
L 321.03362 229.262953 
L 338.813597 230.604344 
L 351.164996 226.62839 
L 358.279086 216.609418 
L 358.877026 199.99054 
L 352.730702 180.575719 
L 341.804466 162.229112 
L 326.599146 145.622174 
L 302.351853 129.055289 
L 267.603827 116.815878 
L 232.351457 112.531156 
L 199.954157 113.402161 
L 169.887371 117.626726 
L 140.417146 125.587697 
L 120.051463 136.50181 
L 114.819243 146.901783 
L 121.54007 157.924049 
L 139.544138 169.412434 
L 170.833284 182.556166 
L 212.34597 195.982477 
L 250.649417 205.99011 
L 287.267446 213.138686 
L 322.421149 216.270475 
L 348.123308 213.954579 
L 366.010171 207.190392 
L 378.65509 195.15992 
L 383.780707 179.119808 
L 381.967534 165.825525 
L 375.460451 153.984264 
L 361.618609 142.504076 
L 338.322488 134.536458 
L 311.745524 132.415261 
L 280.433253 134.575037 
L 246.036042 140.246674 
L 206.088745 149.67639 
L 169.672618 160.71155 
L 137.911491 173.49974 
L 118.094921 186.933368 
L 114.331999 197.297845 
L 121.541298 207.118022 
L 139.663242 216.495741 
L 169.88577 225.224147 
L 208.532042 231.141704 
L 243.505508 232.247831 
L 276.413311 228.646846 
L 307.55277 218.968478 
L 334.641823 201.981074 
L 352.531823 181.900585 
L 361.496776 164.605883 
L 365.178499 149.340475 
L 363.444644 134.688289 
L 354.366284 124.800247 
L 339.28461 121.652047 
L 318.167046 124.307608 
L 292.575429 131.779264 
L 258.84522 144.798146 
L 220.401674 161.925898 
L 186.224649 178.835391 
L 154.951358 196.721486 
L 131.607783 214.943966 
L 123.109706 229.089165 
L 125.088989 240.105307 
L 134.844507 249.184907 
L 154.066524 257.140292 
L 181.131482 261.428379 
L 212.249838 259.48948 
L 241.628958 249.89674 
L 266.411875 233.317436 
L 289.833302 206.170402 
L 305.075263 177.97977 
L 314.06445 152.277108 
L 318.019237 129.518714 
L 316.248475 111.032918 
L 308.372254 100.368677 
L 293.012295 97.368141 
L 273.403158 102.051825 
L 248.87254 113.23416 
L 222.493429 129.001352 
L 197.329956 147.07404 
L 171.362492 169.97555 
L 150.959405 195.296963 
L 141.430014 220.872469 
L 143.086842 238.796068 
L 151.232372 253.931456 
L 166.83126 268.020206 
L 187.610017 277.288341 
L 206.846402 278.811996 
L 224.025967 272.708946 
L 238.27233 258.431647 
L 249.538765 235.662054 
L 257.542077 207.496166 
L 263.096849 176.471971 
L 266.324248 146.088294 
L 266.999748 123.346879 
L 265.393491 103.964161 
L 260.519836 88.20918 
L 251.024656 78.063327 
L 236.657817 75.560045 
L 219.458061 80.284733 
L 199.8531 91.35187 
L 179.298289 108.688876 
L 161.617695 131.343108 
L 151.299132 158.341295 
L 151.379134 181.873585 
L 158.761327 203.445052 
L 175.240705 227.507779 
L 198.87753 249.544534 
L 223.311788 264.701952 
L 240.233014 270.512495 
L 254.131605 270.384917 
L 264.07113 264.066667 
L 270.830776 249.144987 
L 272.873514 229.993793 
L 271.892367 206.75687 
L 268.833464 182.766519 
L 263.259385 154.552155 
L 255.468689 127.349793 
L 244.298585 102.102717 
L 232.623663 86.272372 
L 218.707749 75.908215 
L 199.682463 70.889338 
L 179.773753 73.198017 
L 162.079587 80.964106 
L 146.407473 94.923606 
L 138.55428 114.562217 
L 141.761236 134.408949 
L 154.258574 155.185932 
L 178.101759 179.602529 
L 211.493969 205.274229 
L 240.807299 223.807947 
L 268.721051 238.200414 
L 293.548631 246.740301 
L 309.223976 247.600922 
L 319.845944 242.417448 
L 325.675999 229.650083 
L 325.55568 212.066009 
L 320.835726 191.686555 
L 310.237623 166.050151 
L 296.196141 143.342031 
L 275.521276 121.014547 
L 246.827807 102.848833 
L 213.103095 93.207411 
L 185.21815 91.75356 
L 159.229426 94.936022 
L 136.520324 102.429996 
L 122.40132 114.203639 
L 121.53381 124.979098 
L 129.441255 136.501146 
L 148.62209 150.999361 
L 180.280571 168.328826 
L 221.269583 187.201732 
L 221.269583 187.201732 
" clip-path="url(#pacb11ed4d4)" style="fill: none; stroke: #1f77b4; stroke-width: 0.5; stroke-linecap: square"/>
   </g>
   <g id="patch_3">
    <path d="M 57.6 307.584 
L 57.6 41.472 
" style="fill: none; stroke: #000000; stroke-width: 0.8; stroke-linejoin: miter; stroke-linecap: square"/>
   </g>
   <g id="patch_4">
    <path d="M 414.72 307.584 
L 414.72 41.472 
" style="fill: none; stroke: #000000; stroke-width: 0.8; stroke-linejoin: miter; stroke-linecap: square"/>
   </g>
   <g id="patch_5">
    <path d="M 57.6 307.584 
L 414.72 307.584 
" style="fill: none; stroke: #000000; stroke-width: 0.8; stroke-linejoin: miter; stroke-linecap: square"/>
   </g>
   <g id="patch_6">
    <path d="M 57.6 41.472 
L 414.72 41.472 
" style="fill: none; stroke: #000000; stroke-width: 0.8; stroke-linejoin: miter; stroke-linecap: square"/>
   </g>
   <g id="text_13">
    <!-- Real Space Projection onto r-z plane with initial r = 0.20 -->
    <g transform="translate(68.580938 35.472) scale(0.12 -0.12)">
     <defs>
      <path id="DejaVuSans-52" d="M 2841 2188 
Q 3044 2119 3236 1894 
Q 3428 1669 3622 1275 
L 4263 0 
L 3584 0 
L 2988 1197 
Q 2756 1666 2539 1819 
Q 2322 1972 1947 1972 
L 1259 1972 
L 1259 0 
L 628 0 
L 628 4666 
L 2053 4666 
Q 2853 4666 3247 4331 
Q 3641 3997 3641 3322 
Q 3641 2881 3436 2590 
Q 3231 2300 2841 2188 
z
M 1259 4147 
L 1259 2491 
L 2053 2491 
Q 2509 2491 2742 2702 
Q 2975 2913 2975 3322 
Q 2975 3731 2742 3939 
Q 2509 4147 2053 4147 
L 1259 4147 
z
" transform="scale(0.015625)"/>
      <path id="DejaVuSans-65" d="M 3597 1894 
L 3597 1613 
L 953 1613 
Q 991 1019 1311 708 
Q 1631 397 2203 397 
Q 2534 397 2845 478 
Q 3156 559 3463 722 
L 3463 178 
Q 3153 47 2828 -22 
Q 2503 -91 2169 -91 
Q 1331 -91 842 396 
Q 353 884 353 1716 
Q 353 2575 817 3079 
Q 1281 3584 2069 3584 
Q 2775 3584 3186 3129 
Q 3597 2675 3597 1894 
z
M 3022 2063 
Q 3016 2534 2758 2815 
Q 2500 3097 2075 3097 
Q 1594 3097 1305 2825 
Q 1016 2553 972 2059 
L 3022 2063 
z
" transform="scale(0.015625)"/>
      <path id="DejaVuSans-61" d="M 2194 1759 
Q 1497 1759 1228 1600 
Q 959 1441 959 1056 
Q 959 750 1161 570 
Q 1363 391 1709 391 
Q 2188 391 2477 730 
Q 2766 1069 2766 1631 
L 2766 1759 
L 2194 1759 
z
M 3341 1997 
L 3341 0 
L 2766 0 
L 2766 531 
Q 2569 213 2275 61 
Q 1981 -91 1556 -91 
Q 1019 -91 701 211 
Q 384 513 384 1019 
Q 384 1609 779 1909 
Q 1175 2209 1959 2209 
L 2766 2209 
L 2766 2266 
Q 2766 2663 2505 2880 
Q 2244 3097 1772 3097 
Q 1472 3097 1187 3025 
Q 903 2953 641 2809 
L 641 3341 
Q 956 3463 1253 3523 
Q 1550 3584 1831 3584 
Q 2591 3584 2966 3190 
Q 3341 2797 3341 1997 
z
" transform="scale(0.015625)"/>
      <path id="DejaVuSans-6c" d="M 603 4863 
L 1178 4863 
L 1178 0 
L 603 0 
L 603 4863 
z
" transform="scale(0.015625)"/>
      <path id="DejaVuSans-20" transform="scale(0.015625)"/>
      <path id="DejaVuSans-53" d="M 3425 4513 
L 3425 3897 
Q 3066 4069 2747 4153 
Q 2428 4238 2131 4238 
Q 1616 4238 1336 4038 
Q 1056 3838 1056 3469 
Q 1056 3159 1242 3001 
Q 1428 2844 1947 2747 
L 2328 2669 
Q 3034 2534 3370 2195 
Q 3706 1856 3706 1288 
Q 3706 609 3251 259 
Q 2797 -91 1919 -91 
Q 1588 -91 1214 -16 
Q 841 59 441 206 
L 441 856 
Q 825 641 1194 531 
Q 1563 422 1919 422 
Q 2459 422 2753 634 
Q 3047 847 3047 1241 
Q 3047 1584 2836 1778 
Q 2625 1972 2144 2069 
L 1759 2144 
Q 1053 2284 737 2584 
Q 422 2884 422 3419 
Q 422 4038 858 4394 
Q 1294 4750 2059 4750 
Q 2388 4750 2728 4690 
Q 3069 4631 3425 4513 
z
" transform="scale(0.015625)"/>
      <path id="DejaVuSans-70" d="M 1159 525 
L 1159 -1331 
L 581 -1331 
L 581 3500 
L 1159 3500 
L 1159 2969 
Q 1341 3281 1617 3432 
Q 1894 3584 2278 3584 
Q 2916 3584 3314 3078 
Q 3713 2572 3713 1747 
Q 3713 922 3314 415 
Q 2916 -91 2278 -91 
Q 1894 -91 1617 61 
Q 1341 213 1159 525 
z
M 3116 1747 
Q 3116 2381 2855 2742 
Q 2594 3103 2138 3103 
Q 1681 3103 1420 2742 
Q 1159 2381 1159 1747 
Q 1159 1113 1420 752 
Q 1681 391 2138 391 
Q 2594 391 2855 752 
Q 3116 1113 3116 1747 
z
" transform="scale(0.015625)"/>
      <path id="DejaVuSans-63" d="M 3122 3366 
L 3122 2828 
Q 2878 2963 2633 3030 
Q 2388 3097 2138 3097 
Q 1578 3097 1268 2742 
Q 959 2388 959 1747 
Q 959 1106 1268 751 
Q 1578 397 2138 397 
Q 2388 397 2633 464 
Q 2878 531 3122 666 
L 3122 134 
Q 2881 22 2623 -34 
Q 2366 -91 2075 -91 
Q 1284 -91 818 406 
Q 353 903 353 1747 
Q 353 2603 823 3093 
Q 1294 3584 2113 3584 
Q 2378 3584 2631 3529 
Q 2884 3475 3122 3366 
z
" transform="scale(0.015625)"/>
      <path id="DejaVuSans-50" d="M 1259 4147 
L 1259 2394 
L 2053 2394 
Q 2494 2394 2734 2622 
Q 2975 2850 2975 3272 
Q 2975 3691 2734 3919 
Q 2494 4147 2053 4147 
L 1259 4147 
z
M 628 4666 
L 2053 4666 
Q 2838 4666 3239 4311 
Q 3641 3956 3641 3272 
Q 3641 2581 3239 2228 
Q 2838 1875 2053 1875 
L 1259 1875 
L 1259 0 
L 628 0 
L 628 4666 
z
" transform="scale(0.015625)"/>
      <path id="DejaVuSans-6f" d="M 1959 3097 
Q 1497 3097 1228 2736 
Q 959 2375 959 1747 
Q 959 1119 1226 758 
Q 1494 397 1959 397 
Q 2419 397 2687 759 
Q 2956 1122 2956 1747 
Q 2956 2369 2687 2733 
Q 2419 3097 1959 3097 
z
M 1959 3584 
Q 2709 3584 3137 3096 
Q 3566 2609 3566 1747 
Q 3566 888 3137 398 
Q 2709 -91 1959 -91 
Q 1206 -91 779 398 
Q 353 888 353 1747 
Q 353 2609 779 3096 
Q 1206 3584 1959 3584 
z
" transform="scale(0.015625)"/>
      <path id="DejaVuSans-6a" d="M 603 3500 
L 1178 3500 
L 1178 -63 
Q 1178 -731 923 -1031 
Q 669 -1331 103 -1331 
L -116 -1331 
L -116 -844 
L 38 -844 
Q 366 -844 484 -692 
Q 603 -541 603 -63 
L 603 3500 
z
M 603 4863 
L 1178 4863 
L 1178 4134 
L 603 4134 
L 603 4863 
z
" transform="scale(0.015625)"/>
      <path id="DejaVuSans-74" d="M 1172 4494 
L 1172 3500 
L 2356 3500 
L 2356 3053 
L 1172 3053 
L 1172 1153 
Q 1172 725 1289 603 
Q 1406 481 1766 481 
L 2356 481 
L 2356 0 
L 1766 0 
Q 1100 0 847 248 
Q 594 497 594 1153 
L 594 3053 
L 172 3053 
L 172 3500 
L 594 3500 
L 594 4494 
L 1172 4494 
z
" transform="scale(0.015625)"/>
      <path id="DejaVuSans-69" d="M 603 3500 
L 1178 3500 
L 1178 0 
L 603 0 
L 603 3500 
z
M 603 4863 
L 1178 4863 
L 1178 4134 
L 603 4134 
L 603 4863 
z
" transform="scale(0.015625)"/>
      <path id="DejaVuSans-6e" d="M 3513 2113 
L 3513 0 
L 2938 0 
L 2938 2094 
Q 2938 2591 2744 2837 
Q 2550 3084 2163 3084 
Q 1697 3084 1428 2787 
Q 1159 2491 1159 1978 
L 1159 0 
L 581 0 
L 581 3500 
L 1159 3500 
L 1159 2956 
Q 1366 3272 1645 3428 
Q 1925 3584 2291 3584 
Q 2894 3584 3203 3211 
Q 3513 2838 3513 2113 
z
" transform="scale(0.015625)"/>
      <path id="DejaVuSans-2d" d="M 313 2009 
L 1997 2009 
L 1997 1497 
L 313 1497 
L 313 2009 
z
" transform="scale(0.015625)"/>
      <path id="DejaVuSans-77" d="M 269 3500 
L 844 3500 
L 1563 769 
L 2278 3500 
L 2956 3500 
L 3675 769 
L 4391 3500 
L 4966 3500 
L 4050 0 
L 3372 0 
L 2619 2869 
L 1863 0 
L 1184 0 
L 269 3500 
z
" transform="scale(0.015625)"/>
      <path id="DejaVuSans-68" d="M 3513 2113 
L 3513 0 
L 2938 0 
L 2938 2094 
Q 2938 2591 2744 2837 
Q 2550 3084 2163 3084 
Q 1697 3084 1428 2787 
Q 1159 2491 1159 1978 
L 1159 0 
L 581 0 
L 581 4863 
L 1159 4863 
L 1159 2956 
Q 1366 3272 1645 3428 
Q 1925 3584 2291 3584 
Q 2894 3584 3203 3211 
Q 3513 2838 3513 2113 
z
" transform="scale(0.015625)"/>
      <path id="DejaVuSans-3d" d="M 678 2906 
L 4684 2906 
L 4684 2381 
L 678 2381 
L 678 2906 
z
M 678 1631 
L 4684 1631 
L 4684 1100 
L 678 1100 
L 678 1631 
z
" transform="scale(0.015625)"/>
     </defs>
     <use xlink:href="#DejaVuSans-52"/>
     <use xlink:href="#DejaVuSans-65" x="64.982422"/>
     <use xlink:href="#DejaVuSans-61" x="126.505859"/>
     <use xlink:href="#DejaVuSans-6c" x="187.785156"/>
     <use xlink:href="#DejaVuSans-20" x="215.568359"/>
     <use xlink:href="#DejaVuSans-53" x="247.355469"/>
     <use xlink:href="#DejaVuSans-70" x="310.832031"/>
     <use xlink:href="#DejaVuSans-61" x="374.308594"/>
     <use xlink:href="#DejaVuSans-63" x="435.587891"/>
     <use xlink:href="#DejaVuSans-65" x="490.568359"/>
     <use xlink:href="#DejaVuSans-20" x="552.091797"/>
     <use xlink:href="#DejaVuSans-50" x="583.878906"/>
     <use xlink:href="#DejaVuSans-72" x="642.431641"/>
     <use xlink:href="#DejaVuSans-6f" x="681.294922"/>
     <use xlink:href="#DejaVuSans-6a" x="742.476562"/>
     <use xlink:href="#DejaVuSans-65" x="770.259766"/>
     <use xlink:href="#DejaVuSans-63" x="831.783203"/>
     <use xlink:href="#DejaVuSans-74" x="886.763672"/>
     <use xlink:href="#DejaVuSans-69" x="925.972656"/>
     <use xlink:href="#DejaVuSans-6f" x="953.755859"/>
     <use xlink:href="#DejaVuSans-6e" x="1014.9375"/>
     <use xlink:href="#DejaVuSans-20" x="1078.316406"/>
     <use xlink:href="#DejaVuSans-6f" x="1110.103516"/>
     <use xlink:href="#DejaVuSans-6e" x="1171.285156"/>
     <use xlink:href="#DejaVuSans-74" x="1234.664062"/>
     <use xlink:href="#DejaVuSans-6f" x="1273.873047"/>
     <use xlink:href="#DejaVuSans-20" x="1335.054688"/>
     <use xlink:href="#DejaVuSans-72" x="1366.841797"/>
     <use xlink:href="#DejaVuSans-2d" x="1401.580078"/>
     <use xlink:href="#DejaVuSans-7a" x="1437.664062"/>
     <use xlink:href="#DejaVuSans-20" x="1490.154297"/>
     <use xlink:href="#DejaVuSans-70" x="1521.941406"/>
     <use xlink:href="#DejaVuSans-6c" x="1585.417969"/>
     <use xlink:href="#DejaVuSans-61" x="1613.201172"/>
     <use xlink:href="#DejaVuSans-6e" x="1674.480469"/>
     <use xlink:href="#DejaVuSans-65" x="1737.859375"/>
     <use xlink:href="#DejaVuSans-20" x="1799.382812"/>
     <use xlink:href="#DejaVuSans-77" x="1831.169922"/>
     <use xlink:href="#DejaVuSans-69" x="1912.957031"/>
     <use xlink:href="#DejaVuSans-74" x="1940.740234"/>
     <use xlink:href="#DejaVuSans-68" x="1979.949219"/>
     <use xlink:href="#DejaVuSans-20" x="2043.328125"/>
     <use xlink:href="#DejaVuSans-69" x="2075.115234"/>
     <use xlink:href="#DejaVuSans-6e" x="2102.898438"/>
     <use xlink:href="#DejaVuSans-69" x="2166.277344"/>
     <use xlink:href="#DejaVuSans-74" x="2194.060547"/>
     <use xlink:href="#DejaVuSans-69" x="2233.269531"/>
     <use xlink:href="#DejaVuSans-61" x="2261.052734"/>
     <use xlink:href="#DejaVuSans-6c" x="2322.332031"/>
     <use xlink:href="#DejaVuSans-20" x="2350.115234"/>
     <use xlink:href="#DejaVuSans-72" x="2381.902344"/>
     <use xlink:href="#DejaVuSans-20" x="2423.015625"/>
     <use xlink:href="#DejaVuSans-3d" x="2454.802734"/>
     <use xlink:href="#DejaVuSans-20" x="2538.591797"/>
     <use xlink:href="#DejaVuSans-30" x="2570.378906"/>
     <use xlink:href="#DejaVuSans-2e" x="2634.001953"/>
     <use xlink:href="#DejaVuSans-32" x="2665.789062"/>
     <use xlink:href="#DejaVuSans-30" x="2729.412109"/>
    </g>
   </g>
  </g>
 </g>
 <defs>
  <clipPath id="pacb11ed4d4">
   <rect x="57.6" y="41.472" width="357.12" height="266.112"/>
  </clipPath>
 </defs>
</svg>
