<?xml version="1.0" encoding="utf-8" standalone="no"?>
<!DOCTYPE svg PUBLIC "-//W3C//DTD SVG 1.1//EN"
  "http://www.w3.org/Graphics/SVG/1.1/DTD/svg11.dtd">
<svg xmlns:xlink="http://www.w3.org/1999/xlink" width="460.8pt" height="345.6pt" viewBox="0 0 460.8 345.6" xmlns="http://www.w3.org/2000/svg" version="1.1">
 <metadata>
  <rdf:RDF xmlns:dc="http://purl.org/dc/elements/1.1/" xmlns:cc="http://creativecommons.org/ns#" xmlns:rdf="http://www.w3.org/1999/02/22-rdf-syntax-ns#">
   <cc:Work>
    <dc:type rdf:resource="http://purl.org/dc/dcmitype/StillImage"/>
    <dc:date>2023-10-23T21:33:12.889320</dc:date>
    <dc:format>image/svg+xml</dc:format>
    <dc:creator>
     <cc:Agent>
      <dc:title>Matplotlib v3.8.0, https://matplotlib.org/</dc:title>
     </cc:Agent>
    </dc:creator>
   </cc:Work>
  </rdf:RDF>
 </metadata>
 <defs>
  <style type="text/css">*{stroke-linejoin: round; stroke-linecap: butt}</style>
 </defs>
 <g id="figure_1">
  <g id="patch_1">
   <path d="M 0 345.6 
L 460.8 345.6 
L 460.8 0 
L 0 0 
z
" style="fill: #ffffff"/>
  </g>
  <g id="axes_1">
   <g id="patch_2">
    <path d="M 57.6 307.584 
L 414.72 307.584 
L 414.72 41.472 
L 57.6 41.472 
z
" style="fill: #ffffff"/>
   </g>
   <g id="matplotlib.axis_1">
    <g id="xtick_1">
     <g id="line2d_1">
      <defs>
       <path id="ma98d8af864" d="M 0 0 
L 0 3.5 
" style="stroke: #000000; stroke-width: 0.8"/>
      </defs>
      <g>
       <use xlink:href="#ma98d8af864" x="93.312" y="307.584" style="stroke: #000000; stroke-width: 0.8"/>
      </g>
     </g>
     <g id="text_1">
      <!-- −0.4 -->
      <g transform="translate(81.170594 322.182437) scale(0.1 -0.1)">
       <defs>
        <path id="DejaVuSans-2212" d="M 678 2272 
L 4684 2272 
L 4684 1741 
L 678 1741 
L 678 2272 
z
" transform="scale(0.015625)"/>
        <path id="DejaVuSans-30" d="M 2034 4250 
Q 1547 4250 1301 3770 
Q 1056 3291 1056 2328 
Q 1056 1369 1301 889 
Q 1547 409 2034 409 
Q 2525 409 2770 889 
Q 3016 1369 3016 2328 
Q 3016 3291 2770 3770 
Q 2525 4250 2034 4250 
z
M 2034 4750 
Q 2819 4750 3233 4129 
Q 3647 3509 3647 2328 
Q 3647 1150 3233 529 
Q 2819 -91 2034 -91 
Q 1250 -91 836 529 
Q 422 1150 422 2328 
Q 422 3509 836 4129 
Q 1250 4750 2034 4750 
z
" transform="scale(0.015625)"/>
        <path id="DejaVuSans-2e" d="M 684 794 
L 1344 794 
L 1344 0 
L 684 0 
L 684 794 
z
" transform="scale(0.015625)"/>
        <path id="DejaVuSans-34" d="M 2419 4116 
L 825 1625 
L 2419 1625 
L 2419 4116 
z
M 2253 4666 
L 3047 4666 
L 3047 1625 
L 3713 1625 
L 3713 1100 
L 3047 1100 
L 3047 0 
L 2419 0 
L 2419 1100 
L 313 1100 
L 313 1709 
L 2253 4666 
z
" transform="scale(0.015625)"/>
       </defs>
       <use xlink:href="#DejaVuSans-2212"/>
       <use xlink:href="#DejaVuSans-30" x="83.789062"/>
       <use xlink:href="#DejaVuSans-2e" x="147.412109"/>
       <use xlink:href="#DejaVuSans-34" x="179.199219"/>
      </g>
     </g>
    </g>
    <g id="xtick_2">
     <g id="line2d_2">
      <g>
       <use xlink:href="#ma98d8af864" x="164.736" y="307.584" style="stroke: #000000; stroke-width: 0.8"/>
      </g>
     </g>
     <g id="text_2">
      <!-- −0.2 -->
      <g transform="translate(152.594594 322.182437) scale(0.1 -0.1)">
       <defs>
        <path id="DejaVuSans-32" d="M 1228 531 
L 3431 531 
L 3431 0 
L 469 0 
L 469 531 
Q 828 903 1448 1529 
Q 2069 2156 2228 2338 
Q 2531 2678 2651 2914 
Q 2772 3150 2772 3378 
Q 2772 3750 2511 3984 
Q 2250 4219 1831 4219 
Q 1534 4219 1204 4116 
Q 875 4013 500 3803 
L 500 4441 
Q 881 4594 1212 4672 
Q 1544 4750 1819 4750 
Q 2544 4750 2975 4387 
Q 3406 4025 3406 3419 
Q 3406 3131 3298 2873 
Q 3191 2616 2906 2266 
Q 2828 2175 2409 1742 
Q 1991 1309 1228 531 
z
" transform="scale(0.015625)"/>
       </defs>
       <use xlink:href="#DejaVuSans-2212"/>
       <use xlink:href="#DejaVuSans-30" x="83.789062"/>
       <use xlink:href="#DejaVuSans-2e" x="147.412109"/>
       <use xlink:href="#DejaVuSans-32" x="179.199219"/>
      </g>
     </g>
    </g>
    <g id="xtick_3">
     <g id="line2d_3">
      <g>
       <use xlink:href="#ma98d8af864" x="236.16" y="307.584" style="stroke: #000000; stroke-width: 0.8"/>
      </g>
     </g>
     <g id="text_3">
      <!-- 0.0 -->
      <g transform="translate(228.208438 322.182437) scale(0.1 -0.1)">
       <use xlink:href="#DejaVuSans-30"/>
       <use xlink:href="#DejaVuSans-2e" x="63.623047"/>
       <use xlink:href="#DejaVuSans-30" x="95.410156"/>
      </g>
     </g>
    </g>
    <g id="xtick_4">
     <g id="line2d_4">
      <g>
       <use xlink:href="#ma98d8af864" x="307.584" y="307.584" style="stroke: #000000; stroke-width: 0.8"/>
      </g>
     </g>
     <g id="text_4">
      <!-- 0.2 -->
      <g transform="translate(299.632437 322.182437) scale(0.1 -0.1)">
       <use xlink:href="#DejaVuSans-30"/>
       <use xlink:href="#DejaVuSans-2e" x="63.623047"/>
       <use xlink:href="#DejaVuSans-32" x="95.410156"/>
      </g>
     </g>
    </g>
    <g id="xtick_5">
     <g id="line2d_5">
      <g>
       <use xlink:href="#ma98d8af864" x="379.008" y="307.584" style="stroke: #000000; stroke-width: 0.8"/>
      </g>
     </g>
     <g id="text_5">
      <!-- 0.4 -->
      <g transform="translate(371.056437 322.182437) scale(0.1 -0.1)">
       <use xlink:href="#DejaVuSans-30"/>
       <use xlink:href="#DejaVuSans-2e" x="63.623047"/>
       <use xlink:href="#DejaVuSans-34" x="95.410156"/>
      </g>
     </g>
    </g>
    <g id="text_6">
     <!-- r -->
     <g transform="translate(234.104531 335.860562) scale(0.1 -0.1)">
      <defs>
       <path id="DejaVuSans-72" d="M 2631 2963 
Q 2534 3019 2420 3045 
Q 2306 3072 2169 3072 
Q 1681 3072 1420 2755 
Q 1159 2438 1159 1844 
L 1159 0 
L 581 0 
L 581 3500 
L 1159 3500 
L 1159 2956 
Q 1341 3275 1631 3429 
Q 1922 3584 2338 3584 
Q 2397 3584 2469 3576 
Q 2541 3569 2628 3553 
L 2631 2963 
z
" transform="scale(0.015625)"/>
      </defs>
      <use xlink:href="#DejaVuSans-72"/>
     </g>
    </g>
   </g>
   <g id="matplotlib.axis_2">
    <g id="ytick_1">
     <g id="line2d_6">
      <defs>
       <path id="mda1b58fc9a" d="M 0 0 
L -3.5 0 
" style="stroke: #000000; stroke-width: 0.8"/>
      </defs>
      <g>
       <use xlink:href="#mda1b58fc9a" x="57.6" y="280.9728" style="stroke: #000000; stroke-width: 0.8"/>
      </g>
     </g>
     <g id="text_7">
      <!-- −0.4 -->
      <g transform="translate(26.317187 284.772019) scale(0.1 -0.1)">
       <use xlink:href="#DejaVuSans-2212"/>
       <use xlink:href="#DejaVuSans-30" x="83.789062"/>
       <use xlink:href="#DejaVuSans-2e" x="147.412109"/>
       <use xlink:href="#DejaVuSans-34" x="179.199219"/>
      </g>
     </g>
    </g>
    <g id="ytick_2">
     <g id="line2d_7">
      <g>
       <use xlink:href="#mda1b58fc9a" x="57.6" y="227.7504" style="stroke: #000000; stroke-width: 0.8"/>
      </g>
     </g>
     <g id="text_8">
      <!-- −0.2 -->
      <g transform="translate(26.317187 231.549619) scale(0.1 -0.1)">
       <use xlink:href="#DejaVuSans-2212"/>
       <use xlink:href="#DejaVuSans-30" x="83.789062"/>
       <use xlink:href="#DejaVuSans-2e" x="147.412109"/>
       <use xlink:href="#DejaVuSans-32" x="179.199219"/>
      </g>
     </g>
    </g>
    <g id="ytick_3">
     <g id="line2d_8">
      <g>
       <use xlink:href="#mda1b58fc9a" x="57.6" y="174.528" style="stroke: #000000; stroke-width: 0.8"/>
      </g>
     </g>
     <g id="text_9">
      <!-- 0.0 -->
      <g transform="translate(34.696875 178.327219) scale(0.1 -0.1)">
       <use xlink:href="#DejaVuSans-30"/>
       <use xlink:href="#DejaVuSans-2e" x="63.623047"/>
       <use xlink:href="#DejaVuSans-30" x="95.410156"/>
      </g>
     </g>
    </g>
    <g id="ytick_4">
     <g id="line2d_9">
      <g>
       <use xlink:href="#mda1b58fc9a" x="57.6" y="121.3056" style="stroke: #000000; stroke-width: 0.8"/>
      </g>
     </g>
     <g id="text_10">
      <!-- 0.2 -->
      <g transform="translate(34.696875 125.104819) scale(0.1 -0.1)">
       <use xlink:href="#DejaVuSans-30"/>
       <use xlink:href="#DejaVuSans-2e" x="63.623047"/>
       <use xlink:href="#DejaVuSans-32" x="95.410156"/>
      </g>
     </g>
    </g>
    <g id="ytick_5">
     <g id="line2d_10">
      <g>
       <use xlink:href="#mda1b58fc9a" x="57.6" y="68.0832" style="stroke: #000000; stroke-width: 0.8"/>
      </g>
     </g>
     <g id="text_11">
      <!-- 0.4 -->
      <g transform="translate(34.696875 71.882419) scale(0.1 -0.1)">
       <use xlink:href="#DejaVuSans-30"/>
       <use xlink:href="#DejaVuSans-2e" x="63.623047"/>
       <use xlink:href="#DejaVuSans-34" x="95.410156"/>
      </g>
     </g>
    </g>
    <g id="text_12">
     <!-- z -->
     <g transform="translate(20.2375 177.152219) rotate(-90) scale(0.1 -0.1)">
      <defs>
       <path id="DejaVuSans-7a" d="M 353 3500 
L 3084 3500 
L 3084 2975 
L 922 459 
L 3084 459 
L 3084 0 
L 275 0 
L 275 525 
L 2438 3041 
L 353 3041 
L 353 3500 
z
" transform="scale(0.015625)"/>
      </defs>
      <use xlink:href="#DejaVuSans-7a"/>
     </g>
    </g>
   </g>
   <g id="line2d_11">
    <path d="M 148.864 174.528 
L 148.653891 174.016412 
L 146.967159 169.409298 
L 144.247869 146.669336 
L 150.391574 125.919533 
L 164.565217 106.338038 
L 186.179152 88.876115 
L 210.301629 77.678583 
L 229.072176 75.008003 
L 244.685409 79.407442 
L 255.641909 90.050284 
L 264.198151 110.285492 
L 268.526111 136.483026 
L 269.668981 161.062627 
L 268.967615 186.508529 
L 266.651867 209.875326 
L 261.653614 234.383726 
L 253.007881 255.243373 
L 240.433598 268.985627 
L 224.30109 274.895921 
L 204.729197 273.424199 
L 185.690055 266.191819 
L 165.547255 252.583769 
L 149.28256 233.33746 
L 142.043907 209.349659 
L 147.24627 184.461936 
L 162.197037 161.333497 
L 187.70787 136.626339 
L 219.198442 114.506318 
L 243.483585 101.68021 
L 265.507481 93.913043 
L 285.238714 92.583865 
L 297.873493 98.651594 
L 305.584637 112.933428 
L 307.324399 134.810562 
L 304.115753 158.602622 
L 296.545983 185.152025 
L 285.80804 209.32397 
L 269.123794 233.577647 
L 246.11311 252.674194 
L 218.974801 262.916693 
L 193.881367 264.89728 
L 169.329079 261.465136 
L 146.986662 253.200498 
L 130.451639 239.882257 
L 126.162448 225.79005 
L 132.574328 210.179024 
L 149.416544 193.270397 
L 178.530597 173.418677 
L 217.212158 152.383107 
L 250.245587 137.044887 
L 281.410691 124.963484 
L 311.81611 117.056153 
L 330.405562 116.257889 
L 343.97021 120.557387 
L 353.05404 131.256868 
L 355.673058 148.840929 
L 351.129042 169.870357 
L 340.458419 190.732286 
L 325.399267 208.224827 
L 301.330879 224.546629 
L 267.110237 235.353298 
L 234.516151 237.994748 
L 200.570172 235.585735 
L 169.188244 229.466846 
L 140.006286 219.546144 
L 120.648615 206.812529 
L 116.388024 195.277862 
L 123.581776 183.30466 
L 142.127372 170.738507 
L 173.774849 156.807371 
L 214.897737 143.344893 
L 251.48408 134.268519 
L 286.145004 128.662526 
L 314.560454 127.513689 
L 338.121783 130.826792 
L 357.235039 139.314044 
L 370.771576 153.696904 
L 376.288173 170.094285 
L 375.567868 184.969789 
L 369.998498 198.261226 
L 357.196093 210.923754 
L 335.047075 219.467305 
L 309.90825 221.511306 
L 280.089433 218.951205 
L 246.435664 212.437876 
L 207.331396 201.740429 
L 171.815315 189.36733 
L 140.5376 175.002279 
L 120.710521 159.887529 
L 116.653421 148.152774 
L 123.502013 137.083284 
L 140.85493 126.712112 
L 169.822622 117.137238 
L 206.764385 110.755175 
L 240.070994 109.699832 
L 271.246031 113.83356 
L 300.471415 124.604285 
L 325.871915 143.533417 
L 342.46782 166.014437 
L 350.511686 185.398261 
L 353.421137 202.534061 
L 350.915136 218.926912 
L 341.160459 230.263642 
L 325.056688 234.306785 
L 302.757504 231.74763 
L 276.871004 223.984457 
L 243.388574 210.213806 
L 207.061036 192.271406 
L 175.21196 173.861161 
L 147.513261 153.751884 
L 130.292289 133.539222 
L 127.137283 119.148807 
L 132.849952 106.318759 
L 146.850873 95.184608 
L 169.54384 86.358402 
L 197.75128 82.774589 
L 226.275805 86.931787 
L 250.240103 98.832788 
L 269.842394 117.836625 
L 287.345683 147.323307 
L 297.614319 175.797782 
L 303.363941 204.068505 
L 304.191177 225.612647 
L 300.639687 242.609483 
L 291.083283 254.487123 
L 274.452463 258.28477 
L 253.788254 254.024589 
L 229.539488 243.320111 
L 203.748814 227.490611 
L 178.345045 207.22391 
L 156.672396 183.033293 
L 144.12683 156.564691 
L 143.243147 136.997767 
L 149.530283 118.852273 
L 163.92715 100.462691 
L 185.422483 84.68602 
L 209.206871 75.446486 
L 227.16568 74.481194 
L 242.189466 80.188325 
L 253.552246 92.493922 
L 262.47621 114.401268 
L 267.370483 141.768656 
L 269.228153 170.741569 
L 268.985147 194.479563 
L 267.211329 216.22512 
L 262.76306 239.113397 
L 254.499947 258.255039 
L 241.970715 270.321008 
L 225.452305 274.506974 
L 206.041057 271.331724 
L 186.033493 262.175321 
L 165.750867 246.739437 
L 149.88266 225.895473 
L 143.497472 200.64369 
L 149.374903 175.486854 
L 164.818714 151.979335 
L 190.311471 127.570123 
L 220.639133 106.807542 
L 243.305932 95.597029 
L 263.524258 89.638251 
L 281.310844 90.319282 
L 292.400627 97.965107 
L 299.097453 114.349907 
L 300.203067 134.128417 
L 297.506123 157.232278 
L 290.910075 183.792474 
L 281.087452 209.050854 
L 265.997967 234.086722 
L 245.218102 253.980541 
L 220.685717 265.089582 
L 196.408988 267.924154 
L 172.220763 264.780384 
L 150.614147 256.697801 
L 133.727883 243.259125 
L 128.29785 228.073206 
L 134.090351 211.083219 
L 150.116903 193.368667 
L 178.253928 172.601904 
L 215.996248 150.633875 
L 248.286552 134.704178 
L 278.959381 122.138061 
L 308.432816 114.080589 
L 326.465138 113.311771 
L 339.487972 117.813439 
L 348.020292 128.997904 
L 350.056193 147.27251 
L 345.224493 168.715849 
L 334.337346 190.609837 
L 319.326389 208.964269 
L 295.459487 226.380939 
L 261.728671 238.279561 
L 229.095055 241.661009 
L 195.292712 239.615551 
L 165.204103 233.763706 
L 137.486513 223.939379 
L 119.993025 211.132251 
L 117.280806 199.913146 
L 125.040802 188.185622 
L 144.328584 175.124742 
L 176.650942 160.487744 
L 218.036343 146.13906 
L 255.28928 136.003405 
L 289.223209 129.557565 
L 318.300531 127.526581 
L 341.977552 130.411246 
L 359.612716 138.309567 
L 371.79822 152.100913 
L 376.329613 170.199187 
L 374.003931 185.25247 
L 366.822997 198.673004 
L 352.067605 211.416635 
L 327.684335 219.99493 
L 300.835862 222.028716 
L 269.618684 219.500672 
L 235.091709 213.099902 
L 196.701403 202.862507 
L 161.522806 190.518384 
L 132.824991 176.377772 
L 117.416106 161.626691 
L 117.065418 150.818954 
L 125.639045 141.044233 
L 145.836282 130.367739 
L 177.631041 120.629794 
L 216.419267 114.284128 
L 248.694712 113.26442 
L 278.583887 116.874849 
L 307.614333 126.89137 
L 332.482887 144.602889 
L 349.89991 168.307959 
L 356.921247 187.065703 
L 358.626408 203.621826 
L 354.513765 218.63896 
L 342.545008 228.758481 
L 325.397356 231.457265 
L 302.65558 228.343562 
L 275.122964 220.162447 
L 240.19706 206.286877 
L 203.157536 188.802079 
L 170.608835 170.822934 
L 143.187434 151.53451 
L 127.254099 132.531262 
L 125.253384 119.515509 
L 131.605305 107.885448 
L 146.722174 97.282041 
L 170.778794 89.036001 
L 200.422931 85.971122 
L 230.27426 90.471519 
L 255.379346 102.468485 
L 276.988095 122.574882 
L 295.338937 152.462701 
L 305.30235 179.157099 
L 310.753898 205.307044 
L 311.317568 225.779068 
L 307.288533 241.624437 
L 296.711777 252.403193 
L 281.195625 254.979831 
L 260.854212 250.703664 
L 235.976566 240.011012 
L 207.964184 223.423926 
L 181.634342 203.509647 
L 158.349894 179.760382 
L 143.690336 153.894182 
L 141.207072 133.868877 
L 146.878961 115.292399 
L 160.247035 98.094506 
L 180.948992 83.294519 
L 204.688866 74.717294 
L 223.173869 74.232751 
L 238.737717 80.374079 
L 251.398281 93.861842 
L 261.327175 116.757013 
L 267.283539 145.046435 
L 270.150669 175.054045 
L 270.587834 198.748112 
L 269.273063 220.863494 
L 265.343468 242.167709 
L 257.387355 259.896892 
L 244.762193 270.600853 
L 227.730099 273.27245 
L 208.559166 268.782751 
L 187.795384 258.137801 
L 167.142076 241.359214 
L 151.096292 219.383856 
L 144.659081 193.298172 
L 150.416861 167.799674 
L 165.496947 144.360551 
L 190.203713 120.499275 
L 219.250408 100.864465 
L 241.178148 90.64341 
L 260.468406 86.084807 
L 276.5504 88.453112 
L 287.05459 98.266457 
L 292.689392 116.866846 
L 293.209215 136.727607 
L 290.66041 159.258098 
L 284.582925 186.087849 
L 275.707515 211.274934 
L 261.751726 236.716215 
L 242.79986 256.48326 
L 220.573917 267.488001 
L 195.463084 270.430393 
L 172.366573 266.715476 
L 151.536807 257.838783 
L 135.51406 243.449111 
L 130.628456 227.314107 
L 136.683552 209.355054 
L 152.942769 190.487919 
L 181.148601 168.59741 
L 218.290052 145.972163 
L 249.187452 130.171804 
L 278.092027 118.073844 
L 306.188817 110.569147 
L 323.641303 110.522769 
L 335.159034 115.673766 
L 342.767985 128.073153 
L 343.748299 147.578577 
L 338.416707 169.178592 
L 327.225956 191.86216 
L 311.846317 211.215321 
L 287.709505 229.487644 
L 254.18364 241.88025 
L 222.397075 245.466591 
L 189.953859 243.598916 
L 161.170276 237.831261 
L 135.080304 227.923775 
L 119.686429 214.884136 
L 118.572457 203.866377 
L 126.818014 192.455669 
L 146.866857 178.807307 
L 179.815221 163.384559 
L 221.282849 148.138477 
L 262.454226 136.066526 
L 297.443265 128.939037 
L 324.677088 126.966724 
L 346.406349 129.946739 
L 362.219163 138.007012 
L 372.416299 152.01219 
L 374.943359 170.278068 
L 371.068616 185.602548 
L 362.362126 199.305607 
L 345.764936 212.328573 
L 319.279562 221.124446 
L 290.77037 223.248388 
L 258.22968 220.768766 
L 223.198705 214.474961 
L 187.209571 205.021953 
L 153.08388 192.843167 
L 127.143039 178.906812 
L 116.20405 165.921358 
L 118.009629 154.821483 
L 129.419271 144.582494 
L 153.207217 133.531344 
L 188.176061 123.662271 
L 228.46168 117.510977 
L 261.453965 116.763683 
L 291.132049 120.75797 
L 319.094989 131.107917 
L 342.144491 148.700338 
L 356.044847 168.701439 
L 362.215777 186.410436 
L 363.171303 202.147611 
L 358.303181 216.401002 
L 345.334708 226.221603 
L 327.408009 228.798887 
L 303.942911 225.809425 
L 275.714232 217.97346 
L 240.025835 204.696255 
L 202.188872 187.955512 
L 168.956309 170.735852 
L 141.135188 152.320904 
L 125.220126 134.267035 
L 123.40792 121.935117 
L 130.034218 110.868079 
L 145.796069 100.603844 
L 170.870226 92.556379 
L 201.82658 89.454271 
L 233.160057 93.650092 
L 259.502544 105.070496 
L 282.823989 124.946562 
L 302.312068 154.340278 
L 312.505485 179.774556 
L 318.048653 204.613071 
L 318.344572 226.391585 
L 313.392468 241.070474 
L 301.241388 250.276309 
L 285.556445 251.342137 
L 265.62837 246.548367 
L 239.491446 235.206922 
L 209.838123 217.938065 
L 182.667386 198.120325 
L 158.281412 174.68813 
L 142.467515 149.453243 
L 139.166019 129.778444 
L 144.43494 111.710468 
L 157.239687 95.708315 
L 177.525555 82.040993 
L 201.394108 74.395881 
L 220.928646 74.716882 
L 237.262647 81.842807 
L 250.974083 96.724872 
L 261.905805 120.999691 
L 268.864147 150.441138 
L 272.603318 181.386229 
L 273.489209 206.264684 
L 272.111778 228.829819 
L 267.71866 248.393803 
L 258.776519 263.510148 
L 244.705221 271.111715 
L 228.742226 271.02617 
L 211.217515 265.572089 
L 189.788655 253.617105 
L 168.628182 235.681607 
L 152.194714 212.778048 
L 145.450186 186.081233 
L 150.887248 160.377342 
L 165.371073 137.285563 
L 189.101957 114.166218 
L 216.909539 95.659186 
L 238.343537 86.348207 
L 256.961715 83.162212 
L 271.517223 87.017999 
L 281.466344 98.751549 
L 286.406597 119.050424 
L 286.717321 139.079873 
L 284.462586 161.3544 
L 279.101138 188.177605 
L 271.272451 213.244558 
L 258.675741 238.867519 
L 241.647471 258.443675 
L 221.609013 269.379721 
L 198.497531 272.526772 
L 176.234337 268.908092 
L 155.839387 259.978096 
L 139.327172 245.330748 
L 133.020355 225.895969 
L 139.578217 205.871106 
L 156.390823 185.685919 
L 184.913666 162.700384 
L 220.804702 140.085095 
L 250.863667 124.407662 
L 277.680933 113.259952 
L 304.120125 106.834378 
L 320.867025 108.067091 
L 331.601134 115.316659 
L 337.346566 130.372879 
L 336.297106 151.812254 
L 329.559401 174.322103 
L 317.573077 197.09035 
L 300.458368 217.624948 
L 274.545699 235.874899 
L 240.338983 247.010213 
L 209.906139 249.396251 
L 179.72818 246.732236 
L 152.175634 240.007907 
L 129.416327 229.10897 
L 119.128346 215.2493 
L 122.804503 202.726779 
L 136.717071 189.818781 
L 163.490726 174.430342 
L 201.767589 157.746947 
L 243.731193 142.746352 
L 281.167748 132.140481 
L 315.301253 126.274717 
L 337.330905 126.362945 
L 353.272256 130.571633 
L 366.110337 140.538856 
L 372.536147 156.399938 
L 371.724038 172.921888 
L 365.020379 189.499373 
L 353.034414 203.838758 
L 332.318245 216.552347 
L 301.349929 224.080761 
L 272.510961 224.94304 
L 240.95648 221.943129 
L 205.061087 215.06466 
L 169.978926 205.170162 
L 139.031708 192.614484 
L 119.43157 178.573298 
L 115.554449 167.080341 
L 122.846852 155.821086 
L 141.322079 144.588941 
L 172.381045 133.296193 
L 212.066419 124.201129 
L 247.672079 120.05048 
L 281.093528 120.49622 
L 308.743819 125.754458 
L 334.353667 137.558027 
L 353.996743 156.016934 
L 363.846697 174.123238 
L 367.519449 192.249487 
L 365.14315 207.356722 
L 355.713083 219.573088 
L 337.316708 225.984709 
L 316.973687 225.672478 
L 293.713994 221.348463 
L 261.488345 211.824321 
L 223.284625 197.51537 
L 187.688094 181.887798 
L 155.264891 164.831168 
L 131.035261 147.014936 
L 121.735982 132.327648 
L 123.66122 120.563756 
L 133.901914 110.480485 
L 154.399223 100.927751 
L 183.522711 94.456722 
L 216.78396 93.724166 
L 247.177776 100.112549 
L 272.118803 112.759316 
L 296.264532 135.643861 
L 314.313642 165.981225 
L 322.662169 190.121232 
L 326.053146 211.51956 
L 324.135973 230.676571 
L 315.954651 243.155384 
L 299.831988 248.21321 
L 278.470238 244.989288 
L 253.788985 235.725047 
L 223.173586 219.773739 
L 195.262383 201.808755 
L 167.962791 180.002134 
L 146.757519 155.950912 
L 137.176566 131.806998 
L 139.296563 114.522501 
L 148.51561 99.713995 
L 165.914148 85.826044 
L 189.105815 76.418156 
L 213.232522 74.685879 
L 232.848675 81.242703 
L 248.647554 95.609978 
L 261.501628 119.114083 
L 270.435785 148.872766 
L 275.760277 180.659358 
L 277.665552 209.280009 
L 276.395229 232.815207 
L 271.749964 251.026275 
L 262.100045 264.341668 
L 246.910114 269.809518 
L 227.700285 267.137513 
L 207.288701 258.356083 
L 184.815168 243.312323 
L 164.021015 222.807173 
L 149.541703 197.916892 
L 145.897428 174.224185 
L 151.944697 150.678639 
L 166.785397 128.065659 
L 190.260107 106.148995 
L 216.916007 89.607574 
L 237.259353 82.134428 
L 254.588536 81.064218 
L 267.300021 86.699884 
L 276.512548 100.801476 
L 280.726308 122.90132 
L 280.860662 143.512759 
L 278.870036 165.520505 
L 274.161024 192.220561 
L 266.789388 218.254821 
L 255.160054 243.339542 
L 239.597507 261.666381 
L 221.234305 271.547159 
L 199.366134 273.948505 
L 178.378418 269.748806 
L 158.318339 259.997487 
L 142.003579 244.447184 
L 135.395099 223.962004 
L 141.553238 202.590575 
L 157.870053 181.482806 
L 185.702206 157.728416 
L 220.754574 134.721423 
L 249.300181 119.480141 
L 274.969267 108.818549 
L 299.980591 103.2395 
L 317.39813 106.041962 
L 327.051446 115.772901 
L 330.889919 133.530361 
L 328.191624 156.251638 
L 319.956617 180.635178 
L 307.516472 203.071898 
L 288.834766 224.542861 
L 261.630235 242.325714 
L 227.732259 251.905197 
L 199.415897 253.157946 
L 171.881464 249.834996 
L 145.882845 242.190956 
L 126.369163 230.319521 
L 120.314562 217.821347 
L 126.145708 204.121826 
L 142.672008 189.98483 
L 171.976017 173.384113 
L 211.724431 155.674693 
L 248.125826 141.988898 
L 283.015396 131.259367 
L 316.288888 124.74701 
L 337.168264 124.458446 
L 352.487662 128.469239 
L 364.30372 138.263032 
L 369.77586 154.187219 
L 368.109096 171.493807 
L 360.350331 189.07607 
L 347.636324 203.991327 
L 326.128035 217.550766 
L 294.241773 226.031506 
L 263.727591 227.467517 
L 230.635951 224.639795 
L 195.728446 218.103627 
L 161.389146 208.259874 
L 132.824526 195.773275 
L 117.004843 181.810393 
L 116.303544 171.000037 
L 124.997847 160.686274 
L 145.749994 148.976518 
L 179.07082 137.167737 
L 220.082407 127.600644 
L 256.343424 122.99721 
L 289.040128 122.952403 
L 315.027206 127.301866 
L 339.535301 137.7457 
L 358.357595 154.63206 
L 367.953238 172.285516 
L 371.022236 190.208349 
L 368.025162 204.744524 
L 357.920872 216.965432 
L 338.765734 223.744961 
L 318.391199 223.957693 
L 294.837709 220.316429 
L 262.68844 211.854327 
L 224.213474 198.685844 
L 187.74361 183.858386 
L 154.712011 167.649535 
L 130.006235 150.673193 
L 120.296532 136.436126 
L 122.142188 124.979304 
L 132.534916 115.073948 
L 153.567726 105.503561 
L 183.687909 98.722933 
L 218.26597 97.340172 
L 250.306756 102.904533 
L 276.028358 114.329905 
L 301.371777 135.708369 
L 320.496917 164.707581 
L 329.261335 187.617471 
L 333.000329 207.831714 
L 331.543773 226.754504 
L 323.750525 239.292561 
L 307.800105 244.726605 
L 286.266746 241.895864 
L 261.632364 233.206499 
L 230.355745 217.868771 
L 199.276414 199.137084 
L 170.656761 178.090365 
L 147.466227 154.930408 
L 135.466618 131.607518 
L 135.707661 115.613712 
L 142.556651 102.235826 
L 157.709807 88.810582 
L 179.920699 78.797038 
L 205.122548 75.474093 
L 227.742032 80.666451 
L 245.900075 93.764283 
L 260.294438 114.412836 
L 271.829848 143.686581 
L 279.26109 176.058863 
L 282.660632 205.952333 
L 282.513526 227.985042 
L 279.409825 245.375735 
L 271.456055 259.853353 
L 257.554073 267.09563 
L 240.972243 266.398598 
L 222.091804 259.969823 
L 200.090223 247.617497 
L 177.12231 229.317131 
L 157.677098 206.216502 
L 146.705526 179.551987 
L 146.916676 157.52861 
L 154.464306 137.61243 
L 171.185304 115.660813 
L 195.239408 95.921594 
L 220.581511 82.835729 
L 238.870276 78.587311 
L 253.992593 80.660942 
L 265.378777 89.703372 
L 273.093487 107.787374 
L 276.026956 132.296813 
L 275.659372 154.96413 
L 273.436202 178.010395 
L 268.788096 204.387834 
L 261.011091 230.762273 
L 249.318783 253.158452 
L 234.141892 267.751132 
L 216.509899 274.333684 
L 198.105045 274.331465 
L 179.951035 269.409165 
L 160.019959 258.360519 
L 144.079995 241.552015 
L 137.69153 219.812917 
L 143.892094 197.296243 
L 160.175126 175.248024 
L 187.713241 150.862958 
L 221.880416 127.931574 
L 249.061092 113.423666 
L 273.026013 103.858918 
L 296.300315 99.671898 
L 312.007684 103.73496 
L 320.885197 115.12136 
L 323.715174 134.542973 
L 320.473358 157.795474 
L 312.00865 183.120593 
L 299.853774 205.883207 
L 281.221394 228.259125 
L 254.669395 246.3108 
L 222.447252 255.77289 
L 195.312756 256.975293 
L 169.066853 253.506469 
L 144.422217 245.529391 
L 126.544106 233.117877 
L 121.930459 220.409665 
L 128.39515 206.465984 
L 145.548085 191.466101 
L 175.323256 173.848961 
L 215.098085 155.095709 
L 250.152961 141.002852 
L 283.568075 129.861104 
L 315.976054 122.766712 
L 335.88507 122.18148 
L 350.782172 126.159416 
L 361.646036 136.022215 
L 366.166429 152.256873 
L 363.074618 172.150718 
L 353.710648 190.763848 
L 339.382204 206.431658 
L 315.950218 220.482477 
L 282.123308 229.044886 
L 251.082686 230.334333 
L 218.119462 227.412932 
L 185.204974 221.096369 
L 152.296813 211.153897 
L 126.898772 198.584821 
L 115.685216 184.638717 
L 119.257618 173.027479 
L 133.296449 161.790346 
L 160.407746 149.302602 
L 198.703368 137.316245 
L 240.895588 128.464293 
L 278.541926 124.748866 
L 311.241449 126.53007 
L 335.802667 133.394722 
L 356.095769 146.481967 
L 369.295095 164.994588 
L 373.420678 179.817376 
L 372.840844 194.049365 
L 366.627086 207.585289 
L 352.293355 218.264045 
L 328.818938 222.769532 
L 300.788788 220.723218 
L 270.857857 214.473499 
L 233.408037 203.450086 
L 194.675811 189.426367 
L 160.308607 174.345823 
L 133.031276 158.191701 
L 119.485566 142.477777 
L 120.104023 131.292603 
L 129.100503 121.672642 
L 148.983619 111.812554 
L 178.88359 104.066502 
L 214.413063 100.996594 
L 245.213999 103.840524 
L 273.085331 112.5135 
L 300.232694 129.877159 
L 322.153293 155.78411 
L 333.292261 178.248428 
L 339.167162 200.268819 
L 339.327348 219.489444 
L 333.609532 232.906429 
L 319.784935 240.667213 
L 302.929717 240.678926 
L 283.042687 235.852899 
L 254.784294 224.665494 
L 221.148813 207.507699 
L 191.407925 189.45092 
L 162.713983 168.261946 
L 141.150537 145.718636 
L 132.599216 126.564266 
L 134.115751 111.483343 
L 142.709873 98.716487 
L 159.826249 86.717624 
L 183.674096 78.722801 
L 209.924633 77.826056 
L 232.354066 84.979561 
L 251.247839 100.035156 
L 267.308205 124.374925 
L 279.233986 155.666524 
L 285.673944 183.418347 
L 288.852236 210.289279 
L 288.151268 233.867496 
L 283.486044 250.293661 
L 273.045746 261.70219 
L 256.362604 264.867725 
L 236.433127 260.250652 
L 213.469787 249.21301 
L 189.719888 232.876789 
L 167.194077 211.374812 
L 150.731179 185.970544 
L 145.242439 161.60582 
L 150.052579 137.91496 
L 163.021935 117.088345 
L 184.23312 97.26827 
L 209.075581 82.82357 
L 229.267291 77.028913 
L 244.510598 77.881596 
L 256.092905 84.396731 
L 265.791878 99.826177 
L 271.018014 123.096776 
L 272.330112 146.392117 
L 271.458285 171.619193 
L 268.797549 196.24075 
L 263.678725 222.083399 
L 255.049145 246.118027 
L 242.671926 263.636532 
L 227.011416 273.156206 
L 208.65316 275.307735 
L 189.008913 271.071949 
L 169.000836 260.988626 
L 151.120708 244.896406 
L 140.699248 223.592191 
L 141.301095 203.412542 
L 150.297304 183.550466 
L 170.19539 159.962894 
L 200.128871 135.43892 
L 229.718053 116.761077 
L 258.381354 103.089385 
L 281.219794 96.751859 
L 297.846818 97.388199 
L 308.840483 104.314356 
L 315.413612 119.63829 
L 316.0527 138.58085 
L 312.365067 160.696232 
L 303.696925 186.813263 
L 292.087911 209.354854 
L 273.609658 232.492459 
L 247.99206 250.480598 
L 217.725735 259.580909 
L 192.017574 260.620333 
L 167.23913 256.956863 
L 143.848827 248.562015 
L 127.374107 235.513296 
L 123.836497 222.4541 
L 130.688032 208.12596 
L 148.21759 192.194087 
L 178.202432 173.503173 
L 217.77661 153.706818 
L 252.172602 138.990267 
L 284.046006 127.642286 
L 315.399212 120.270338 
L 334.492283 119.689774 
L 348.490387 123.860557 
L 358.348125 134.172825 
L 361.767266 151.075006 
L 357.750691 171.514149 
L 347.571433 191.067107 
L 332.615481 207.543693 
L 308.520499 222.519356 
L 274.087098 231.922681 
L 242.218595 233.661215 
L 208.761931 230.879429 
L 176.12826 224.507829 
L 145.009868 214.49034 
L 122.823315 201.813882 
L 115.772261 189.747925 
L 121.563166 177.329248 
L 138.445688 165.385784 
L 168.484776 152.251244 
L 208.690634 139.7348 
L 246.448213 131.331571 
L 282.487037 126.791902 
L 311.003413 126.92477 
L 333.666435 131.107049 
L 354.268623 140.997536 
L 368.897109 156.810157 
L 374.942025 173.117026 
L 374.718187 189.575258 
L 368.868364 203.132572 
L 355.311825 214.815026 
L 332.355029 221.225571 
L 309.262227 221.391715 
L 283.494208 217.985429 
L 249.164112 210.125591 
L 209.684067 198.081615 
L 174.429085 184.877369 
L 142.909074 169.787813 
L 122.364603 154.101526 
L 117.564724 141.946452 
L 123.82386 130.640669 
L 140.151208 120.502359 
L 167.681846 111.379554 
L 203.061993 105.705155 
L 235.558001 105.49964 
L 265.450803 110.633522 
L 294.005911 122.75811 
L 319.230373 143.678721 
L 335.369076 167.412415 
L 343.500783 188.244847 
L 346.410032 206.737869 
L 343.663865 223.544407 
L 333.701129 234.605335 
L 317.827553 238.049785 
L 296.101973 234.923356 
L 270.101036 226.293951 
L 236.989367 211.424647 
L 202.462448 192.784755 
L 171.780278 173.123199 
L 146.136448 151.791816 
L 131.595508 130.553821 
L 130.195323 116.33315 
L 136.331035 103.632291 
L 150.699592 91.824416 
L 173.142839 82.752097 
L 200.208666 79.491318 
L 226.483505 84.359733 
L 248.242054 97.108718 
L 265.818675 117.059107 
L 281.041841 146.934009 
L 290.096893 176.113982 
L 295.089711 205.056396 
L 295.675789 226.544611 
L 292.47335 243.840279 
L 283.78795 256.76519 
L 268.387119 261.988171 
L 248.31915 258.81992 
L 225.760275 249.279965 
L 202.484702 235.096208 
L 178.079437 215.344781 
L 157.340744 191.311774 
L 145.505541 164.513765 
L 145.111372 143.821841 
L 151.839885 125.080561 
L 167.054176 105.275301 
L 189.348303 88.02754 
L 213.446113 77.431674 
L 231.556443 75.346907 
L 246.490777 80.083402 
L 257.454954 91.634538 
L 265.432075 112.511765 
L 269.198341 138.905062 
L 269.945004 162.67567 
L 268.986069 187.138817 
L 266.351775 210.879143 
L 260.913593 235.545675 
L 251.788992 256.182666 
L 238.806763 269.517694 
L 222.427902 275.041018 
L 202.596458 273.252508 
L 183.369509 265.694386 
L 163.432234 251.797235 
L 147.815284 232.314988 
L 141.714571 208.173438 
L 147.92995 183.832478 
L 163.961017 160.522891 
L 190.469381 135.812027 
L 222.327287 114.051552 
L 246.227106 101.7596 
L 267.434513 94.488684 
L 285.421253 93.06596 
L 298.417067 98.42849 
L 306.590391 111.820936 
L 308.827474 133.089377 
L 305.844263 156.979184 
L 298.470078 183.244263 
L 287.624763 207.788642 
L 271.067321 231.980763 
L 247.98355 251.386635 
L 220.512782 262.025497 
L 194.962002 264.262896 
L 169.909292 260.983373 
L 147.349154 252.93794 
L 130.426879 239.862153 
L 125.766268 225.858727 
L 132.010598 210.314029 
L 148.66567 193.6492 
L 177.620986 174.048807 
L 216.292279 153.196457 
L 249.550383 137.874164 
L 281.174368 125.688612 
L 311.847704 117.706166 
L 330.779342 116.804979 
L 344.620035 121.036139 
L 353.868521 131.587707 
L 356.675598 148.986767 
L 352.261233 169.920885 
L 341.691602 190.600174 
L 326.715871 207.913194 
L 302.725906 224.050577 
L 268.537737 234.710833 
L 235.953517 237.274744 
L 201.950316 234.832851 
L 170.362507 228.70108 
L 140.849778 218.792034 
L 120.999131 206.090083 
L 116.275681 194.466225 
L 123.259994 182.412798 
L 141.54177 169.954193 
L 172.930128 156.162811 
L 213.921697 142.855784 
L 250.731086 133.876969 
L 285.642022 128.429761 
L 313.791585 127.469243 
L 337.219585 130.859788 
L 356.614232 139.471806 
L 370.40825 153.985417 
L 376.115326 170.380977 
L 375.575175 185.29169 
L 370.135302 198.60461 
L 357.456786 211.194894 
L 335.442254 219.577159 
L 310.661146 221.462529 
L 281.258007 218.819224 
L 247.635538 212.190556 
L 208.485247 201.354321 
L 173.015625 188.926214 
L 141.517617 174.489321 
L 121.250042 159.302901 
L 116.773373 147.419703 
L 123.388366 136.232458 
L 140.403445 125.911074 
L 168.991918 116.390381 
L 205.621137 110.063859 
L 238.894272 109.06902 
L 270.07879 113.32079 
L 299.257325 124.245098 
L 324.700179 143.418742 
L 341.315584 166.096511 
L 349.417317 185.677035 
L 352.374845 202.995998 
L 349.899045 219.486113 
L 340.198292 230.822334 
L 324.170333 234.834127 
L 301.971662 232.22342 
L 276.128695 224.368741 
L 242.739774 210.467273 
L 206.636392 192.41099 
L 174.9492 173.835444 
L 147.49268 153.555879 
L 147.49268 153.555879 
" clip-path="url(#p70a94c084f)" style="fill: none; stroke: #1f77b4; stroke-width: 0.5; stroke-linecap: square"/>
   </g>
   <g id="patch_3">
    <path d="M 57.6 307.584 
L 57.6 41.472 
" style="fill: none; stroke: #000000; stroke-width: 0.8; stroke-linejoin: miter; stroke-linecap: square"/>
   </g>
   <g id="patch_4">
    <path d="M 414.72 307.584 
L 414.72 41.472 
" style="fill: none; stroke: #000000; stroke-width: 0.8; stroke-linejoin: miter; stroke-linecap: square"/>
   </g>
   <g id="patch_5">
    <path d="M 57.6 307.584 
L 414.72 307.584 
" style="fill: none; stroke: #000000; stroke-width: 0.8; stroke-linejoin: miter; stroke-linecap: square"/>
   </g>
   <g id="patch_6">
    <path d="M 57.6 41.472 
L 414.72 41.472 
" style="fill: none; stroke: #000000; stroke-width: 0.8; stroke-linejoin: miter; stroke-linecap: square"/>
   </g>
   <g id="text_13">
    <!-- Real Space Projection onto r-z plane with initial r = -0.24 -->
    <g transform="translate(66.41625 35.472) scale(0.12 -0.12)">
     <defs>
      <path id="DejaVuSans-52" d="M 2841 2188 
Q 3044 2119 3236 1894 
Q 3428 1669 3622 1275 
L 4263 0 
L 3584 0 
L 2988 1197 
Q 2756 1666 2539 1819 
Q 2322 1972 1947 1972 
L 1259 1972 
L 1259 0 
L 628 0 
L 628 4666 
L 2053 4666 
Q 2853 4666 3247 4331 
Q 3641 3997 3641 3322 
Q 3641 2881 3436 2590 
Q 3231 2300 2841 2188 
z
M 1259 4147 
L 1259 2491 
L 2053 2491 
Q 2509 2491 2742 2702 
Q 2975 2913 2975 3322 
Q 2975 3731 2742 3939 
Q 2509 4147 2053 4147 
L 1259 4147 
z
" transform="scale(0.015625)"/>
      <path id="DejaVuSans-65" d="M 3597 1894 
L 3597 1613 
L 953 1613 
Q 991 1019 1311 708 
Q 1631 397 2203 397 
Q 2534 397 2845 478 
Q 3156 559 3463 722 
L 3463 178 
Q 3153 47 2828 -22 
Q 2503 -91 2169 -91 
Q 1331 -91 842 396 
Q 353 884 353 1716 
Q 353 2575 817 3079 
Q 1281 3584 2069 3584 
Q 2775 3584 3186 3129 
Q 3597 2675 3597 1894 
z
M 3022 2063 
Q 3016 2534 2758 2815 
Q 2500 3097 2075 3097 
Q 1594 3097 1305 2825 
Q 1016 2553 972 2059 
L 3022 2063 
z
" transform="scale(0.015625)"/>
      <path id="DejaVuSans-61" d="M 2194 1759 
Q 1497 1759 1228 1600 
Q 959 1441 959 1056 
Q 959 750 1161 570 
Q 1363 391 1709 391 
Q 2188 391 2477 730 
Q 2766 1069 2766 1631 
L 2766 1759 
L 2194 1759 
z
M 3341 1997 
L 3341 0 
L 2766 0 
L 2766 531 
Q 2569 213 2275 61 
Q 1981 -91 1556 -91 
Q 1019 -91 701 211 
Q 384 513 384 1019 
Q 384 1609 779 1909 
Q 1175 2209 1959 2209 
L 2766 2209 
L 2766 2266 
Q 2766 2663 2505 2880 
Q 2244 3097 1772 3097 
Q 1472 3097 1187 3025 
Q 903 2953 641 2809 
L 641 3341 
Q 956 3463 1253 3523 
Q 1550 3584 1831 3584 
Q 2591 3584 2966 3190 
Q 3341 2797 3341 1997 
z
" transform="scale(0.015625)"/>
      <path id="DejaVuSans-6c" d="M 603 4863 
L 1178 4863 
L 1178 0 
L 603 0 
L 603 4863 
z
" transform="scale(0.015625)"/>
      <path id="DejaVuSans-20" transform="scale(0.015625)"/>
      <path id="DejaVuSans-53" d="M 3425 4513 
L 3425 3897 
Q 3066 4069 2747 4153 
Q 2428 4238 2131 4238 
Q 1616 4238 1336 4038 
Q 1056 3838 1056 3469 
Q 1056 3159 1242 3001 
Q 1428 2844 1947 2747 
L 2328 2669 
Q 3034 2534 3370 2195 
Q 3706 1856 3706 1288 
Q 3706 609 3251 259 
Q 2797 -91 1919 -91 
Q 1588 -91 1214 -16 
Q 841 59 441 206 
L 441 856 
Q 825 641 1194 531 
Q 1563 422 1919 422 
Q 2459 422 2753 634 
Q 3047 847 3047 1241 
Q 3047 1584 2836 1778 
Q 2625 1972 2144 2069 
L 1759 2144 
Q 1053 2284 737 2584 
Q 422 2884 422 3419 
Q 422 4038 858 4394 
Q 1294 4750 2059 4750 
Q 2388 4750 2728 4690 
Q 3069 4631 3425 4513 
z
" transform="scale(0.015625)"/>
      <path id="DejaVuSans-70" d="M 1159 525 
L 1159 -1331 
L 581 -1331 
L 581 3500 
L 1159 3500 
L 1159 2969 
Q 1341 3281 1617 3432 
Q 1894 3584 2278 3584 
Q 2916 3584 3314 3078 
Q 3713 2572 3713 1747 
Q 3713 922 3314 415 
Q 2916 -91 2278 -91 
Q 1894 -91 1617 61 
Q 1341 213 1159 525 
z
M 3116 1747 
Q 3116 2381 2855 2742 
Q 2594 3103 2138 3103 
Q 1681 3103 1420 2742 
Q 1159 2381 1159 1747 
Q 1159 1113 1420 752 
Q 1681 391 2138 391 
Q 2594 391 2855 752 
Q 3116 1113 3116 1747 
z
" transform="scale(0.015625)"/>
      <path id="DejaVuSans-63" d="M 3122 3366 
L 3122 2828 
Q 2878 2963 2633 3030 
Q 2388 3097 2138 3097 
Q 1578 3097 1268 2742 
Q 959 2388 959 1747 
Q 959 1106 1268 751 
Q 1578 397 2138 397 
Q 2388 397 2633 464 
Q 2878 531 3122 666 
L 3122 134 
Q 2881 22 2623 -34 
Q 2366 -91 2075 -91 
Q 1284 -91 818 406 
Q 353 903 353 1747 
Q 353 2603 823 3093 
Q 1294 3584 2113 3584 
Q 2378 3584 2631 3529 
Q 2884 3475 3122 3366 
z
" transform="scale(0.015625)"/>
      <path id="DejaVuSans-50" d="M 1259 4147 
L 1259 2394 
L 2053 2394 
Q 2494 2394 2734 2622 
Q 2975 2850 2975 3272 
Q 2975 3691 2734 3919 
Q 2494 4147 2053 4147 
L 1259 4147 
z
M 628 4666 
L 2053 4666 
Q 2838 4666 3239 4311 
Q 3641 3956 3641 3272 
Q 3641 2581 3239 2228 
Q 2838 1875 2053 1875 
L 1259 1875 
L 1259 0 
L 628 0 
L 628 4666 
z
" transform="scale(0.015625)"/>
      <path id="DejaVuSans-6f" d="M 1959 3097 
Q 1497 3097 1228 2736 
Q 959 2375 959 1747 
Q 959 1119 1226 758 
Q 1494 397 1959 397 
Q 2419 397 2687 759 
Q 2956 1122 2956 1747 
Q 2956 2369 2687 2733 
Q 2419 3097 1959 3097 
z
M 1959 3584 
Q 2709 3584 3137 3096 
Q 3566 2609 3566 1747 
Q 3566 888 3137 398 
Q 2709 -91 1959 -91 
Q 1206 -91 779 398 
Q 353 888 353 1747 
Q 353 2609 779 3096 
Q 1206 3584 1959 3584 
z
" transform="scale(0.015625)"/>
      <path id="DejaVuSans-6a" d="M 603 3500 
L 1178 3500 
L 1178 -63 
Q 1178 -731 923 -1031 
Q 669 -1331 103 -1331 
L -116 -1331 
L -116 -844 
L 38 -844 
Q 366 -844 484 -692 
Q 603 -541 603 -63 
L 603 3500 
z
M 603 4863 
L 1178 4863 
L 1178 4134 
L 603 4134 
L 603 4863 
z
" transform="scale(0.015625)"/>
      <path id="DejaVuSans-74" d="M 1172 4494 
L 1172 3500 
L 2356 3500 
L 2356 3053 
L 1172 3053 
L 1172 1153 
Q 1172 725 1289 603 
Q 1406 481 1766 481 
L 2356 481 
L 2356 0 
L 1766 0 
Q 1100 0 847 248 
Q 594 497 594 1153 
L 594 3053 
L 172 3053 
L 172 3500 
L 594 3500 
L 594 4494 
L 1172 4494 
z
" transform="scale(0.015625)"/>
      <path id="DejaVuSans-69" d="M 603 3500 
L 1178 3500 
L 1178 0 
L 603 0 
L 603 3500 
z
M 603 4863 
L 1178 4863 
L 1178 4134 
L 603 4134 
L 603 4863 
z
" transform="scale(0.015625)"/>
      <path id="DejaVuSans-6e" d="M 3513 2113 
L 3513 0 
L 2938 0 
L 2938 2094 
Q 2938 2591 2744 2837 
Q 2550 3084 2163 3084 
Q 1697 3084 1428 2787 
Q 1159 2491 1159 1978 
L 1159 0 
L 581 0 
L 581 3500 
L 1159 3500 
L 1159 2956 
Q 1366 3272 1645 3428 
Q 1925 3584 2291 3584 
Q 2894 3584 3203 3211 
Q 3513 2838 3513 2113 
z
" transform="scale(0.015625)"/>
      <path id="DejaVuSans-2d" d="M 313 2009 
L 1997 2009 
L 1997 1497 
L 313 1497 
L 313 2009 
z
" transform="scale(0.015625)"/>
      <path id="DejaVuSans-77" d="M 269 3500 
L 844 3500 
L 1563 769 
L 2278 3500 
L 2956 3500 
L 3675 769 
L 4391 3500 
L 4966 3500 
L 4050 0 
L 3372 0 
L 2619 2869 
L 1863 0 
L 1184 0 
L 269 3500 
z
" transform="scale(0.015625)"/>
      <path id="DejaVuSans-68" d="M 3513 2113 
L 3513 0 
L 2938 0 
L 2938 2094 
Q 2938 2591 2744 2837 
Q 2550 3084 2163 3084 
Q 1697 3084 1428 2787 
Q 1159 2491 1159 1978 
L 1159 0 
L 581 0 
L 581 4863 
L 1159 4863 
L 1159 2956 
Q 1366 3272 1645 3428 
Q 1925 3584 2291 3584 
Q 2894 3584 3203 3211 
Q 3513 2838 3513 2113 
z
" transform="scale(0.015625)"/>
      <path id="DejaVuSans-3d" d="M 678 2906 
L 4684 2906 
L 4684 2381 
L 678 2381 
L 678 2906 
z
M 678 1631 
L 4684 1631 
L 4684 1100 
L 678 1100 
L 678 1631 
z
" transform="scale(0.015625)"/>
     </defs>
     <use xlink:href="#DejaVuSans-52"/>
     <use xlink:href="#DejaVuSans-65" x="64.982422"/>
     <use xlink:href="#DejaVuSans-61" x="126.505859"/>
     <use xlink:href="#DejaVuSans-6c" x="187.785156"/>
     <use xlink:href="#DejaVuSans-20" x="215.568359"/>
     <use xlink:href="#DejaVuSans-53" x="247.355469"/>
     <use xlink:href="#DejaVuSans-70" x="310.832031"/>
     <use xlink:href="#DejaVuSans-61" x="374.308594"/>
     <use xlink:href="#DejaVuSans-63" x="435.587891"/>
     <use xlink:href="#DejaVuSans-65" x="490.568359"/>
     <use xlink:href="#DejaVuSans-20" x="552.091797"/>
     <use xlink:href="#DejaVuSans-50" x="583.878906"/>
     <use xlink:href="#DejaVuSans-72" x="642.431641"/>
     <use xlink:href="#DejaVuSans-6f" x="681.294922"/>
     <use xlink:href="#DejaVuSans-6a" x="742.476562"/>
     <use xlink:href="#DejaVuSans-65" x="770.259766"/>
     <use xlink:href="#DejaVuSans-63" x="831.783203"/>
     <use xlink:href="#DejaVuSans-74" x="886.763672"/>
     <use xlink:href="#DejaVuSans-69" x="925.972656"/>
     <use xlink:href="#DejaVuSans-6f" x="953.755859"/>
     <use xlink:href="#DejaVuSans-6e" x="1014.9375"/>
     <use xlink:href="#DejaVuSans-20" x="1078.316406"/>
     <use xlink:href="#DejaVuSans-6f" x="1110.103516"/>
     <use xlink:href="#DejaVuSans-6e" x="1171.285156"/>
     <use xlink:href="#DejaVuSans-74" x="1234.664062"/>
     <use xlink:href="#DejaVuSans-6f" x="1273.873047"/>
     <use xlink:href="#DejaVuSans-20" x="1335.054688"/>
     <use xlink:href="#DejaVuSans-72" x="1366.841797"/>
     <use xlink:href="#DejaVuSans-2d" x="1401.580078"/>
     <use xlink:href="#DejaVuSans-7a" x="1437.664062"/>
     <use xlink:href="#DejaVuSans-20" x="1490.154297"/>
     <use xlink:href="#DejaVuSans-70" x="1521.941406"/>
     <use xlink:href="#DejaVuSans-6c" x="1585.417969"/>
     <use xlink:href="#DejaVuSans-61" x="1613.201172"/>
     <use xlink:href="#DejaVuSans-6e" x="1674.480469"/>
     <use xlink:href="#DejaVuSans-65" x="1737.859375"/>
     <use xlink:href="#DejaVuSans-20" x="1799.382812"/>
     <use xlink:href="#DejaVuSans-77" x="1831.169922"/>
     <use xlink:href="#DejaVuSans-69" x="1912.957031"/>
     <use xlink:href="#DejaVuSans-74" x="1940.740234"/>
     <use xlink:href="#DejaVuSans-68" x="1979.949219"/>
     <use xlink:href="#DejaVuSans-20" x="2043.328125"/>
     <use xlink:href="#DejaVuSans-69" x="2075.115234"/>
     <use xlink:href="#DejaVuSans-6e" x="2102.898438"/>
     <use xlink:href="#DejaVuSans-69" x="2166.277344"/>
     <use xlink:href="#DejaVuSans-74" x="2194.060547"/>
     <use xlink:href="#DejaVuSans-69" x="2233.269531"/>
     <use xlink:href="#DejaVuSans-61" x="2261.052734"/>
     <use xlink:href="#DejaVuSans-6c" x="2322.332031"/>
     <use xlink:href="#DejaVuSans-20" x="2350.115234"/>
     <use xlink:href="#DejaVuSans-72" x="2381.902344"/>
     <use xlink:href="#DejaVuSans-20" x="2423.015625"/>
     <use xlink:href="#DejaVuSans-3d" x="2454.802734"/>
     <use xlink:href="#DejaVuSans-20" x="2538.591797"/>
     <use xlink:href="#DejaVuSans-2d" x="2570.378906"/>
     <use xlink:href="#DejaVuSans-30" x="2606.462891"/>
     <use xlink:href="#DejaVuSans-2e" x="2670.085938"/>
     <use xlink:href="#DejaVuSans-32" x="2701.873047"/>
     <use xlink:href="#DejaVuSans-34" x="2765.496094"/>
    </g>
   </g>
  </g>
 </g>
 <defs>
  <clipPath id="p70a94c084f">
   <rect x="57.6" y="41.472" width="357.12" height="266.112"/>
  </clipPath>
 </defs>
</svg>
