<?xml version="1.0" encoding="utf-8" standalone="no"?>
<!DOCTYPE svg PUBLIC "-//W3C//DTD SVG 1.1//EN"
  "http://www.w3.org/Graphics/SVG/1.1/DTD/svg11.dtd">
<svg xmlns:xlink="http://www.w3.org/1999/xlink" width="460.8pt" height="345.6pt" viewBox="0 0 460.8 345.6" xmlns="http://www.w3.org/2000/svg" version="1.1">
 <metadata>
  <rdf:RDF xmlns:dc="http://purl.org/dc/elements/1.1/" xmlns:cc="http://creativecommons.org/ns#" xmlns:rdf="http://www.w3.org/1999/02/22-rdf-syntax-ns#">
   <cc:Work>
    <dc:type rdf:resource="http://purl.org/dc/dcmitype/StillImage"/>
    <dc:date>2023-10-23T21:33:13.078054</dc:date>
    <dc:format>image/svg+xml</dc:format>
    <dc:creator>
     <cc:Agent>
      <dc:title>Matplotlib v3.8.0, https://matplotlib.org/</dc:title>
     </cc:Agent>
    </dc:creator>
   </cc:Work>
  </rdf:RDF>
 </metadata>
 <defs>
  <style type="text/css">*{stroke-linejoin: round; stroke-linecap: butt}</style>
 </defs>
 <g id="figure_1">
  <g id="patch_1">
   <path d="M 0 345.6 
L 460.8 345.6 
L 460.8 0 
L 0 0 
z
" style="fill: #ffffff"/>
  </g>
  <g id="axes_1">
   <g id="patch_2">
    <path d="M 57.6 307.584 
L 414.72 307.584 
L 414.72 41.472 
L 57.6 41.472 
z
" style="fill: #ffffff"/>
   </g>
   <g id="matplotlib.axis_1">
    <g id="xtick_1">
     <g id="line2d_1">
      <defs>
       <path id="mf6974f129e" d="M 0 0 
L 0 3.5 
" style="stroke: #000000; stroke-width: 0.8"/>
      </defs>
      <g>
       <use xlink:href="#mf6974f129e" x="93.312" y="307.584" style="stroke: #000000; stroke-width: 0.8"/>
      </g>
     </g>
     <g id="text_1">
      <!-- −0.4 -->
      <g transform="translate(81.170594 322.182437) scale(0.1 -0.1)">
       <defs>
        <path id="DejaVuSans-2212" d="M 678 2272 
L 4684 2272 
L 4684 1741 
L 678 1741 
L 678 2272 
z
" transform="scale(0.015625)"/>
        <path id="DejaVuSans-30" d="M 2034 4250 
Q 1547 4250 1301 3770 
Q 1056 3291 1056 2328 
Q 1056 1369 1301 889 
Q 1547 409 2034 409 
Q 2525 409 2770 889 
Q 3016 1369 3016 2328 
Q 3016 3291 2770 3770 
Q 2525 4250 2034 4250 
z
M 2034 4750 
Q 2819 4750 3233 4129 
Q 3647 3509 3647 2328 
Q 3647 1150 3233 529 
Q 2819 -91 2034 -91 
Q 1250 -91 836 529 
Q 422 1150 422 2328 
Q 422 3509 836 4129 
Q 1250 4750 2034 4750 
z
" transform="scale(0.015625)"/>
        <path id="DejaVuSans-2e" d="M 684 794 
L 1344 794 
L 1344 0 
L 684 0 
L 684 794 
z
" transform="scale(0.015625)"/>
        <path id="DejaVuSans-34" d="M 2419 4116 
L 825 1625 
L 2419 1625 
L 2419 4116 
z
M 2253 4666 
L 3047 4666 
L 3047 1625 
L 3713 1625 
L 3713 1100 
L 3047 1100 
L 3047 0 
L 2419 0 
L 2419 1100 
L 313 1100 
L 313 1709 
L 2253 4666 
z
" transform="scale(0.015625)"/>
       </defs>
       <use xlink:href="#DejaVuSans-2212"/>
       <use xlink:href="#DejaVuSans-30" x="83.789062"/>
       <use xlink:href="#DejaVuSans-2e" x="147.412109"/>
       <use xlink:href="#DejaVuSans-34" x="179.199219"/>
      </g>
     </g>
    </g>
    <g id="xtick_2">
     <g id="line2d_2">
      <g>
       <use xlink:href="#mf6974f129e" x="164.736" y="307.584" style="stroke: #000000; stroke-width: 0.8"/>
      </g>
     </g>
     <g id="text_2">
      <!-- −0.2 -->
      <g transform="translate(152.594594 322.182437) scale(0.1 -0.1)">
       <defs>
        <path id="DejaVuSans-32" d="M 1228 531 
L 3431 531 
L 3431 0 
L 469 0 
L 469 531 
Q 828 903 1448 1529 
Q 2069 2156 2228 2338 
Q 2531 2678 2651 2914 
Q 2772 3150 2772 3378 
Q 2772 3750 2511 3984 
Q 2250 4219 1831 4219 
Q 1534 4219 1204 4116 
Q 875 4013 500 3803 
L 500 4441 
Q 881 4594 1212 4672 
Q 1544 4750 1819 4750 
Q 2544 4750 2975 4387 
Q 3406 4025 3406 3419 
Q 3406 3131 3298 2873 
Q 3191 2616 2906 2266 
Q 2828 2175 2409 1742 
Q 1991 1309 1228 531 
z
" transform="scale(0.015625)"/>
       </defs>
       <use xlink:href="#DejaVuSans-2212"/>
       <use xlink:href="#DejaVuSans-30" x="83.789062"/>
       <use xlink:href="#DejaVuSans-2e" x="147.412109"/>
       <use xlink:href="#DejaVuSans-32" x="179.199219"/>
      </g>
     </g>
    </g>
    <g id="xtick_3">
     <g id="line2d_3">
      <g>
       <use xlink:href="#mf6974f129e" x="236.16" y="307.584" style="stroke: #000000; stroke-width: 0.8"/>
      </g>
     </g>
     <g id="text_3">
      <!-- 0.0 -->
      <g transform="translate(228.208438 322.182437) scale(0.1 -0.1)">
       <use xlink:href="#DejaVuSans-30"/>
       <use xlink:href="#DejaVuSans-2e" x="63.623047"/>
       <use xlink:href="#DejaVuSans-30" x="95.410156"/>
      </g>
     </g>
    </g>
    <g id="xtick_4">
     <g id="line2d_4">
      <g>
       <use xlink:href="#mf6974f129e" x="307.584" y="307.584" style="stroke: #000000; stroke-width: 0.8"/>
      </g>
     </g>
     <g id="text_4">
      <!-- 0.2 -->
      <g transform="translate(299.632437 322.182437) scale(0.1 -0.1)">
       <use xlink:href="#DejaVuSans-30"/>
       <use xlink:href="#DejaVuSans-2e" x="63.623047"/>
       <use xlink:href="#DejaVuSans-32" x="95.410156"/>
      </g>
     </g>
    </g>
    <g id="xtick_5">
     <g id="line2d_5">
      <g>
       <use xlink:href="#mf6974f129e" x="379.008" y="307.584" style="stroke: #000000; stroke-width: 0.8"/>
      </g>
     </g>
     <g id="text_5">
      <!-- 0.4 -->
      <g transform="translate(371.056437 322.182437) scale(0.1 -0.1)">
       <use xlink:href="#DejaVuSans-30"/>
       <use xlink:href="#DejaVuSans-2e" x="63.623047"/>
       <use xlink:href="#DejaVuSans-34" x="95.410156"/>
      </g>
     </g>
    </g>
    <g id="text_6">
     <!-- r -->
     <g transform="translate(234.104531 335.860562) scale(0.1 -0.1)">
      <defs>
       <path id="DejaVuSans-72" d="M 2631 2963 
Q 2534 3019 2420 3045 
Q 2306 3072 2169 3072 
Q 1681 3072 1420 2755 
Q 1159 2438 1159 1844 
L 1159 0 
L 581 0 
L 581 3500 
L 1159 3500 
L 1159 2956 
Q 1341 3275 1631 3429 
Q 1922 3584 2338 3584 
Q 2397 3584 2469 3576 
Q 2541 3569 2628 3553 
L 2631 2963 
z
" transform="scale(0.015625)"/>
      </defs>
      <use xlink:href="#DejaVuSans-72"/>
     </g>
    </g>
   </g>
   <g id="matplotlib.axis_2">
    <g id="ytick_1">
     <g id="line2d_6">
      <defs>
       <path id="m33ad67b965" d="M 0 0 
L -3.5 0 
" style="stroke: #000000; stroke-width: 0.8"/>
      </defs>
      <g>
       <use xlink:href="#m33ad67b965" x="57.6" y="280.9728" style="stroke: #000000; stroke-width: 0.8"/>
      </g>
     </g>
     <g id="text_7">
      <!-- −0.4 -->
      <g transform="translate(26.317187 284.772019) scale(0.1 -0.1)">
       <use xlink:href="#DejaVuSans-2212"/>
       <use xlink:href="#DejaVuSans-30" x="83.789062"/>
       <use xlink:href="#DejaVuSans-2e" x="147.412109"/>
       <use xlink:href="#DejaVuSans-34" x="179.199219"/>
      </g>
     </g>
    </g>
    <g id="ytick_2">
     <g id="line2d_7">
      <g>
       <use xlink:href="#m33ad67b965" x="57.6" y="227.7504" style="stroke: #000000; stroke-width: 0.8"/>
      </g>
     </g>
     <g id="text_8">
      <!-- −0.2 -->
      <g transform="translate(26.317187 231.549619) scale(0.1 -0.1)">
       <use xlink:href="#DejaVuSans-2212"/>
       <use xlink:href="#DejaVuSans-30" x="83.789062"/>
       <use xlink:href="#DejaVuSans-2e" x="147.412109"/>
       <use xlink:href="#DejaVuSans-32" x="179.199219"/>
      </g>
     </g>
    </g>
    <g id="ytick_3">
     <g id="line2d_8">
      <g>
       <use xlink:href="#m33ad67b965" x="57.6" y="174.528" style="stroke: #000000; stroke-width: 0.8"/>
      </g>
     </g>
     <g id="text_9">
      <!-- 0.0 -->
      <g transform="translate(34.696875 178.327219) scale(0.1 -0.1)">
       <use xlink:href="#DejaVuSans-30"/>
       <use xlink:href="#DejaVuSans-2e" x="63.623047"/>
       <use xlink:href="#DejaVuSans-30" x="95.410156"/>
      </g>
     </g>
    </g>
    <g id="ytick_4">
     <g id="line2d_9">
      <g>
       <use xlink:href="#m33ad67b965" x="57.6" y="121.3056" style="stroke: #000000; stroke-width: 0.8"/>
      </g>
     </g>
     <g id="text_10">
      <!-- 0.2 -->
      <g transform="translate(34.696875 125.104819) scale(0.1 -0.1)">
       <use xlink:href="#DejaVuSans-30"/>
       <use xlink:href="#DejaVuSans-2e" x="63.623047"/>
       <use xlink:href="#DejaVuSans-32" x="95.410156"/>
      </g>
     </g>
    </g>
    <g id="ytick_5">
     <g id="line2d_10">
      <g>
       <use xlink:href="#m33ad67b965" x="57.6" y="68.0832" style="stroke: #000000; stroke-width: 0.8"/>
      </g>
     </g>
     <g id="text_11">
      <!-- 0.4 -->
      <g transform="translate(34.696875 71.882419) scale(0.1 -0.1)">
       <use xlink:href="#DejaVuSans-30"/>
       <use xlink:href="#DejaVuSans-2e" x="63.623047"/>
       <use xlink:href="#DejaVuSans-34" x="95.410156"/>
      </g>
     </g>
    </g>
    <g id="text_12">
     <!-- z -->
     <g transform="translate(20.2375 177.152219) rotate(-90) scale(0.1 -0.1)">
      <defs>
       <path id="DejaVuSans-7a" d="M 353 3500 
L 3084 3500 
L 3084 2975 
L 922 459 
L 3084 459 
L 3084 0 
L 275 0 
L 275 525 
L 2438 3041 
L 353 3041 
L 353 3500 
z
" transform="scale(0.015625)"/>
      </defs>
      <use xlink:href="#DejaVuSans-7a"/>
     </g>
    </g>
   </g>
   <g id="line2d_11">
    <path d="M 168.704 174.528 
L 168.492911 174.016411 
L 166.708433 169.409175 
L 160.590501 141.489516 
L 162.278234 117.678336 
L 169.53774 97.157187 
L 182.398919 78.193492 
L 197.398307 65.78583 
L 208.991119 62.548622 
L 217.868544 66.969392 
L 223.512797 78.629648 
L 226.612543 96.363619 
L 228.119572 117.246752 
L 229.923735 161.715252 
L 231.119877 186.150886 
L 233.745766 231.881846 
L 234.250115 247.692134 
L 233.923345 261.107244 
L 232.479462 271.455391 
L 229.206484 279.540085 
L 223.020118 283.874528 
L 213.221057 282.346211 
L 201.366656 274.71832 
L 187.408277 260.219518 
L 174.361025 239.651565 
L 165.372973 213.466283 
L 164.37105 182.109276 
L 172.237656 153.283027 
L 188.203948 124.355894 
L 209.342562 98.853533 
L 226.689231 83.58172 
L 239.446656 75.799344 
L 249.42208 73.39906 
L 256.319932 77.294219 
L 259.16658 88.545834 
L 258.167979 105.351076 
L 254.876945 124.642168 
L 249.236566 150.197713 
L 241.992209 179.588736 
L 233.938862 209.676614 
L 225.334302 237.40909 
L 216.556362 258.881559 
L 206.172606 275.213878 
L 193.802353 284.858855 
L 180.178792 286.992365 
L 167.579753 282.681627 
L 156.295923 272.463883 
L 148.962402 255.826578 
L 150.065632 232.267417 
L 160.954118 207.543966 
L 182.259539 179.152597 
L 213.002029 148.514971 
L 238.916974 126.89923 
L 263.665468 109.240708 
L 284.887192 97.557915 
L 299.515786 93.883152 
L 307.966446 98.118513 
L 310.156227 109.766686 
L 306.889035 127.414335 
L 298.57472 150.567268 
L 284.743595 178.788516 
L 267.904649 205.436991 
L 246.485882 230.954494 
L 219.914437 252.473057 
L 192.902393 265.336094 
L 164.905825 270.830636 
L 143.369413 269.367962 
L 129.786054 263.213151 
L 125.989867 254.243423 
L 131.688827 242.751355 
L 146.668355 228.909133 
L 172.845481 210.787247 
L 209.066763 188.469498 
L 243.237511 168.074219 
L 276.77813 148.346175 
L 307.255521 131.311699 
L 332.005839 119.7798 
L 346.339005 116.413436 
L 354.179286 119.528733 
L 355.554424 128.509793 
L 350.641991 143.400238 
L 338.424866 163.779577 
L 323.235757 182.110775 
L 304.274952 199.57073 
L 276.409101 218.088147 
L 237.940959 234.047791 
L 199.480791 242.17288 
L 163.497664 244.26542 
L 136.440264 242.118351 
L 118.212246 236.67239 
L 114.171931 230.442941 
L 120.727194 222.961409 
L 137.825295 214.019217 
L 167.316862 202.414462 
L 252.067523 172.122975 
L 291.322419 157.889155 
L 325.30871 146.011132 
L 353.18076 137.974925 
L 370.352376 135.589772 
L 381.37893 137.73353 
L 386.122429 143.982736 
L 384.670173 155.06177 
L 375.761131 169.52888 
L 362.75216 182.288585 
L 345.782927 193.771843 
L 319.130411 205.562624 
L 280.864362 214.669311 
L 241.140098 218.113957 
L 205.860911 217.675575 
L 173.415781 214.876727 
L 140.856432 209.428076 
L 117.379764 201.904599 
L 109.869427 194.50971 
L 115.648189 186.67509 
L 132.861507 178.923008 
L 163.793487 169.975323 
L 206.121257 160.636152 
L 251.53608 152.644002 
L 291.747317 147.515711 
L 325.364903 145.548892 
L 353.427914 146.934585 
L 373.869428 151.399598 
L 389.682897 159.568863 
L 398.306842 170.697846 
L 399.247666 179.804215 
L 395.632074 187.874559 
L 385.538454 195.86934 
L 366.806164 201.560281 
L 343.760146 203.208972 
L 315.374493 201.701154 
L 283.133275 197.59824 
L 242.820977 190.562574 
L 199.377698 181.494521 
L 161.277376 172.202903 
L 129.819487 162.400582 
L 112.384428 152.956906 
L 110.688385 146.351979 
L 118.826788 140.282177 
L 138.504366 134.327299 
L 170.324833 129.384004 
L 210.603306 127.060353 
L 248.872697 128.537586 
L 284.880617 134.083201 
L 320.748633 145.512449 
L 351.057653 162.743676 
L 367.133369 177.062634 
L 377.656299 191.078777 
L 382.399377 203.326875 
L 380.372728 212.562461 
L 370.381303 216.163055 
L 354.320947 214.039125 
L 333.761003 207.84361 
L 304.47469 196.903164 
L 267.808355 182.355707 
L 227.969917 166.708517 
L 192.233551 152.978652 
L 155.820585 138.702961 
L 128.386986 126.042963 
L 116.483225 116.814345 
L 116.182535 110.579005 
L 123.597554 105.809977 
L 140.759716 102.005439 
L 166.709584 100.764873 
L 197.468517 103.361641 
L 234.38835 112.170694 
L 268.615081 127.3121 
L 301.222344 150.561425 
L 323.37695 173.68035 
L 339.409578 196.875974 
L 347.886297 215.207511 
L 349.732275 229.273046 
L 343.901913 235.441019 
L 332.917221 234.534532 
L 317.404364 228.525427 
L 293.60392 215.931395 
L 262.44909 197.275784 
L 227.427887 175.266438 
L 195.070792 154.276728 
L 164.332041 132.931074 
L 140.341432 112.653453 
L 129.96756 97.968219 
L 129.197015 88.588337 
L 134.49761 81.309093 
L 146.900909 75.961877 
L 166.230888 74.631914 
L 189.992706 79.545244 
L 216.980994 93.567423 
L 242.351947 116.688296 
L 265.439649 148.343056 
L 281.592746 178.124754 
L 293.915334 207.442609 
L 300.934921 231.877157 
L 302.091723 247.376028 
L 298.090922 256.453241 
L 287.917174 258.394108 
L 273.179671 253.14734 
L 252.745856 240.766349 
L 227.327699 221.178164 
L 204.006121 199.892958 
L 181.09556 174.742833 
L 162.298919 146.915761 
L 152.117515 118.195727 
L 151.956544 99.815112 
L 156.6706 84.823832 
L 166.933925 70.989728 
L 181.315088 62.469151 
L 194.155477 62.150782 
L 205.258502 68.970842 
L 214.996658 83.803316 
L 222.96514 105.563224 
L 229.813306 132.092594 
L 236.231633 161.229598 
L 242.549632 191.566704 
L 248.10137 219.983811 
L 251.847142 243.987421 
L 252.831348 260.127991 
L 251.064352 271.369746 
L 245.889083 277.239498 
L 236.448465 276.842691 
L 224.400444 270.384579 
L 208.807579 257.206697 
L 191.888781 237.728408 
L 176.572561 212.84934 
L 166.353816 183.359227 
L 164.590757 155.778044 
L 170.19018 129.317719 
L 182.460898 104.219123 
L 199.307951 82.972273 
L 215.430445 70.082099 
L 227.411808 66.465309 
L 234.637682 70.743457 
L 238.13549 81.625124 
L 238.797573 94.340406 
L 238.091706 110.166685 
L 236.550545 127.94593 
L 232.615694 167.058519 
L 230.2137 192.848487 
L 227.751562 220.683724 
L 225.219362 244.449804 
L 221.946317 263.179111 
L 217.09013 276.998794 
L 209.85206 285.271603 
L 199.904756 287.028875 
L 188.674252 282.401134 
L 176.490625 271.542647 
L 165.444567 254.404025 
L 158.798114 231.203342 
L 160.686645 201.773123 
L 171.962807 172.910523 
L 192.746152 142.208498 
L 218.792032 114.50192 
L 238.295426 98.14229 
L 255.72803 86.920658 
L 269.720779 82.108271 
L 278.831792 85.236511 
L 282.074256 95.938716 
L 280.528539 113.033263 
L 275.561585 133.739403 
L 266.691949 161.170078 
L 254.675012 191.84447 
L 241.740524 219.257837 
L 227.582829 242.998908 
L 212.768676 261.122563 
L 194.210061 275.324144 
L 174.489172 281.804618 
L 157.193222 280.719536 
L 144.797046 274.416402 
L 137.295894 261.37578 
L 139.605877 245.651319 
L 150.507206 227.746749 
L 172.065522 204.943812 
L 204.20218 177.771661 
L 235.56682 154.137713 
L 266.429375 132.748859 
L 293.514485 116.167718 
L 315.516639 106.308313 
L 326.776761 105.230999 
L 332.703251 110.160698 
L 333.156216 122.134236 
L 328.006604 138.977918 
L 316.177636 162.449517 
L 301.249964 184.499706 
L 283.2768 205.142992 
L 256.962013 227.354276 
L 222.512179 245.974175 
L 184.920341 256.384633 
L 153.697411 258.536183 
L 132.132085 255.740119 
L 119.88463 248.75344 
L 120.554138 241.275425 
L 129.358853 232.789994 
L 149.141361 220.932775 
L 180.490685 205.475951 
L 220.765958 186.562493 
L 257.344334 169.125625 
L 291.485823 152.60605 
L 322.573644 138.068144 
L 347.413709 128.401773 
L 361.702431 125.755233 
L 369.775288 128.575296 
L 371.634116 136.465273 
L 366.993769 149.919806 
L 354.765702 167.820285 
L 338.971784 183.840282 
L 319.608882 198.308148 
L 290.120555 213.547274 
L 248.959814 225.861873 
L 209.725235 231.038244 
L 176.296414 231.626194 
L 146.963636 229.31609 
L 122.565991 224.129945 
L 111.929608 217.545171 
L 113.948175 210.837992 
L 125.793795 203.655954 
L 150.488994 194.38674 
L 187.607461 183.225441 
L 232.66882 170.837465 
L 275.976934 159.483711 
L 314.241433 150.338714 
L 347.005712 144.40768 
L 367.718466 143.020838 
L 382.832902 145.065365 
L 392.28218 150.536165 
L 395.917845 159.98758 
L 392.032121 172.181457 
L 382.95794 182.661217 
L 369.104536 192.025355 
L 346.311919 200.875735 
L 312.669442 206.793356 
L 279.188306 208.087769 
L 242.77409 206.363655 
L 204.855405 202.147887 
L 167.472929 195.849635 
L 134.591347 187.774075 
L 113.845125 178.73963 
L 109.650204 171.343403 
L 117.145442 164.047069 
L 136.376576 156.71211 
L 169.141191 149.178841 
L 211.835214 142.864435 
L 251.517778 139.70209 
L 285.573147 139.501304 
L 316.293571 142.211342 
L 346.039852 149.020512 
L 370.653128 160.299099 
L 385.270279 172.345886 
L 392.519624 183.296231 
L 394.385174 192.986003 
L 390.169809 201.564114 
L 377.891906 206.616665 
L 362.879786 207.100276 
L 343.384078 204.679272 
L 316.109609 198.881218 
L 280.191302 189.530947 
L 238.41652 177.84067 
L 196.642438 165.824516 
L 159.345048 154.497306 
L 128.907289 143.454171 
L 113.354169 133.871698 
L 112.690545 127.704375 
L 120.747687 122.570972 
L 139.666412 117.92124 
L 169.03461 115.128849 
L 205.226245 115.700851 
L 245.232699 121.320089 
L 280.988146 132.03559 
L 316.337955 150.385868 
L 340.889235 170.26182 
L 355.949376 187.596263 
L 365.144587 202.828098 
L 368.864182 216.194847 
L 364.850289 223.914334 
L 355.79428 224.847581 
L 341.737982 221.21227 
L 320.548242 212.410691 
L 290.944982 198.04418 
L 254.964751 179.91403 
L 217.385285 161.198057 
L 183.981181 144.72741 
L 150.780105 127.563156 
L 128.10914 112.885688 
L 120.449216 103.047047 
L 122.524924 96.085652 
L 132.036338 91.138737 
L 150.362371 88.199324 
L 175.367308 89.049248 
L 205.240915 95.421192 
L 238.061768 109.762485 
L 267.541746 131.119631 
L 296.350764 162.830786 
L 312.275902 187.246328 
L 322.711369 208.419394 
L 328.878162 228.509207 
L 328.323026 240.852939 
L 321.669884 246.040473 
L 308.307204 243.993885 
L 290.672007 235.814897 
L 265.384902 220.289922 
L 234.727303 198.640208 
L 204.660132 175.227204 
L 177.704162 151.693843 
L 154.250877 126.446808 
L 141.067986 103.301364 
L 139.358462 89.2913 
L 143.639842 78.020278 
L 153.671764 69.516749 
L 169.548026 65.519914 
L 189.255114 69.463364 
L 208.463626 82.876536 
L 225.951564 105.279178 
L 241.875935 135.472213 
L 255.194842 167.872665 
L 265.833279 198.716701 
L 273.608209 226.54592 
L 277.318664 249.293541 
L 275.713707 263.039159 
L 269.475103 268.553927 
L 257.818338 266.920947 
L 242.729148 258.71972 
L 222.761784 243.073733 
L 203.569288 224.105347 
L 183.939757 199.547138 
L 167.978074 170.878679 
L 159.948364 139.840604 
L 161.0996 116.544186 
L 167.669672 96.737532 
L 179.926839 78.084048 
L 194.774032 65.616963 
L 206.612684 62.238259 
L 215.863275 66.615138 
L 221.918076 78.283691 
L 225.48792 96.160801 
L 227.477777 117.50307 
L 230.30075 164.442972 
L 232.102934 190.697456 
L 235.209646 232.706919 
L 235.853842 246.093303 
L 235.945148 255.54186 
L 235.544447 263.77941 
L 234.332581 271.662682 
L 231.495063 278.813073 
L 225.841323 283.173038 
L 216.387032 282.104817 
L 204.766348 275.035493 
L 190.629336 261.034873 
L 176.973639 240.892753 
L 166.875573 215.145224 
L 164.165867 184.270295 
L 170.993782 153.721106 
L 185.68928 125.020092 
L 206.043712 99.246912 
L 223.476125 83.314883 
L 236.780151 74.950239 
L 247.110616 72.513204 
L 253.725362 76.486108 
L 256.561619 87.764768 
L 255.912373 102.474825 
L 253.177144 120.543613 
L 248.215099 144.998407 
L 241.719377 173.553831 
L 234.420088 203.598917 
L 226.406184 232.876728 
L 218.515931 255.331691 
L 209.27143 272.710388 
L 198.058587 283.73062 
L 185.15153 287.395665 
L 172.324925 284.188181 
L 160.736884 275.22968 
L 151.850824 259.867337 
L 149.814155 237.932114 
L 158.138004 211.734617 
L 176.5015 183.664781 
L 204.87995 152.94955 
L 231.635033 129.344102 
L 257.839998 109.793641 
L 278.667489 97.575307 
L 295.573934 92.493289 
L 304.618984 96.546572 
L 307.019992 108.077501 
L 304.003759 125.717632 
L 296.151 148.637547 
L 282.917671 176.954784 
L 266.490566 204.348853 
L 246.01553 230.259668 
L 220.639645 252.38073 
L 195.120822 265.776509 
L 167.644609 272.117042 
L 145.941262 271.141764 
L 132.137013 265.483397 
L 127.043294 256.150245 
L 132.12657 243.903393 
L 146.366457 229.774028 
L 171.706676 211.308606 
L 207.243253 188.564103 
L 241.209251 167.696044 
L 274.712852 147.534375 
L 305.040607 130.268815 
L 329.764516 118.572415 
L 344.087152 115.173299 
L 351.912021 118.358526 
L 353.265416 127.514033 
L 348.367582 142.594975 
L 336.228597 163.272689 
L 321.128668 181.946303 
L 302.157974 199.887729 
L 274.503964 218.81649 
L 236.429511 235.185428 
L 198.253415 243.628513 
L 162.581869 245.887912 
L 135.910702 243.774033 
L 118.263284 238.28331 
L 114.67937 232.04799 
L 121.374568 224.537903 
L 138.581133 215.407591 
L 168.087833 203.520547 
L 252.549982 172.351484 
L 291.511817 157.680413 
L 325.122094 145.427804 
L 352.653464 137.071416 
L 369.608419 134.513474 
L 380.337133 136.648283 
L 384.706757 142.984054 
L 382.854351 154.263787 
L 373.524164 169.084108 
L 360.227415 182.14841 
L 343.11498 193.901663 
L 316.27129 206.110136 
L 277.798558 215.69965 
L 237.667085 219.516224 
L 202.895593 219.301791 
L 171.373104 216.746165 
L 139.432774 211.497321 
L 116.709011 204.100236 
L 109.963581 196.864429 
L 116.144697 189.146659 
L 133.786904 181.310055 
L 165.11492 172.193323 
L 207.736612 162.539875 
L 253.028437 154.131394 
L 292.90485 148.492848 
L 330.327817 145.823173 
L 355.604346 146.815361 
L 374.943904 150.70812 
L 390.154825 158.263736 
L 398.482485 168.978142 
L 399.352377 177.670755 
L 395.722803 186.019892 
L 386.034353 194.209512 
L 367.917266 200.593467 
L 343.715095 203.14097 
L 313.509353 202.165773 
L 282.024528 198.66319 
L 242.210751 192.246367 
L 198.993084 183.652033 
L 160.890626 174.616517 
L 129.516788 164.960333 
L 112.186069 155.540303 
L 110.602369 148.912092 
L 118.831075 142.76953 
L 138.733878 136.632993 
L 170.955226 131.399939 
L 211.734529 128.680051 
L 249.779399 129.679798 
L 285.455235 134.545622 
L 321.171281 145.032264 
L 351.490711 161.20675 
L 368.410059 175.599425 
L 379.345508 189.846092 
L 383.988528 201.840458 
L 381.98323 211.103109 
L 372.012736 214.994809 
L 355.762204 213.200266 
L 335.426085 207.462569 
L 306.329353 197.097076 
L 229.558171 167.871109 
L 192.978503 154.263576 
L 156.289839 140.330216 
L 128.426071 127.895702 
L 116.114483 118.737954 
L 115.608168 112.555346 
L 123.010603 107.72723 
L 140.23562 103.842767 
L 166.460391 102.418924 
L 197.783487 104.761393 
L 235.09957 113.132747 
L 269.678187 127.702752 
L 302.720419 150.309884 
L 325.332365 173.108222 
L 340.302968 193.804666 
L 349.420252 211.865717 
L 352.366411 226.5257 
L 347.477029 233.797712 
L 337.715721 233.803557 
L 324.008777 229.151988 
L 302.025648 218.212787 
L 272.206614 200.999639 
L 237.331719 179.75183 
L 202.977806 158.309483 
L 171.763215 137.923801 
L 144.688083 117.566862 
L 129.8104 100.591223 
L 127.735856 90.656122 
L 132.73562 82.959962 
L 144.743342 77.640984 
L 163.964255 76.018042 
L 187.844675 80.216541 
L 215.695653 93.202978 
L 242.102645 115.195767 
L 265.965836 145.457698 
L 283.386623 175.580643 
L 296.634303 205.526974 
L 304.005014 229.811979 
L 305.438229 245.736835 
L 301.427876 255.027209 
L 291.140686 256.92767 
L 276.286795 251.657736 
L 255.610959 239.279341 
L 229.682395 219.652516 
L 205.129935 197.760367 
L 181.687974 172.83084 
L 162.192469 145.37649 
L 151.147338 117.083668 
L 150.388048 99.405932 
L 154.753482 84.325395 
L 164.521116 71.030345 
L 178.7767 62.669355 
L 192.121095 62.328304 
L 203.929455 69.278006 
L 214.460468 84.365817 
L 223.286911 106.582632 
L 230.992837 133.768322 
L 238.166762 163.46102 
L 245.022122 193.853828 
L 250.939441 222.432494 
L 254.706145 246.302463 
L 255.391793 261.385898 
L 253.26785 271.625872 
L 247.432526 276.70134 
L 237.181725 275.197021 
L 223.917779 267.306526 
L 207.725013 252.952317 
L 190.489377 232.466512 
L 175.224778 206.7347 
L 165.558393 176.618656 
L 164.48391 150.376789 
L 170.078093 125.393769 
L 182.266979 100.906051 
L 198.781128 80.539524 
L 214.45065 68.615343 
L 225.007833 65.830943 
L 232.256227 70.125746 
L 235.961484 81.229102 
L 236.747801 91.271649 
L 236.637884 103.048908 
L 235.947083 115.785394 
L 234.930813 129.207874 
L 231.633438 169.006488 
L 229.721727 195.309097 
L 227.906567 222.287264 
L 225.979721 244.981194 
L 223.254842 263.091882 
L 218.935063 276.623657 
L 212.212217 284.876806 
L 202.651238 286.787221 
L 191.509196 282.277405 
L 179.217206 271.507331 
L 167.743861 254.440933 
L 160.255438 231.338655 
L 160.773096 202.141903 
L 170.380571 173.773521 
L 189.416968 143.292386 
L 214.540267 115.105839 
L 234.483757 97.701224 
L 252.432837 85.782779 
L 265.889188 80.88299 
L 275.159804 83.525592 
L 278.695128 93.665823 
L 277.524907 110.414119 
L 273.104244 130.292064 
L 264.982904 157.075144 
L 253.808118 187.690334 
L 241.706659 215.648579 
L 228.769042 239.795623 
L 215.328446 258.590421 
L 198.392895 274.002248 
L 179.692369 282.130418 
L 164.329984 282.750807 
L 151.138985 278.276219 
L 140.92586 267.62912 
L 138.870357 252.782581 
L 145.957039 234.610111 
L 162.733585 213.004303 
L 190.464123 186.758214 
L 221.464341 161.70977 
L 249.468821 141.0964 
L 275.383535 123.699343 
L 300.600036 109.465084 
L 319.127623 103.506065 
L 328.479992 106.765097 
L 330.636793 116.882752 
L 326.856701 133.390274 
L 316.93189 155.675586 
L 300.658839 181.811387 
L 281.721816 204.799277 
L 256.251104 227.432678 
L 222.896335 246.638766 
L 186.7326 257.606862 
L 155.593772 260.311296 
L 133.72406 257.734773 
L 120.996288 250.860371 
L 120.909693 243.421786 
L 128.581536 235.068674 
L 146.877059 223.252795 
L 176.762987 207.752171 
L 216.039939 188.62916 
L 252.35899 170.79913 
L 286.817175 153.635515 
L 318.185205 138.437972 
L 343.664782 127.913033 
L 358.864237 124.5382 
L 367.525699 127.020435 
L 369.650989 134.625822 
L 365.372802 147.966682 
L 353.580489 165.984541 
L 338.563104 181.976432 
L 320.083498 196.668445 
L 291.964901 212.44814 
L 252.437215 225.79333 
L 212.891711 232.15215 
L 175.362212 233.380633 
L 145.303186 231.121092 
L 121.778812 225.99152 
L 112.061324 219.497328 
L 114.729385 212.708586 
L 127.385865 205.322985 
L 152.891103 195.795933 
L 190.554498 184.275363 
L 235.704894 171.437522 
L 278.779003 159.603118 
L 316.50902 150.0324 
L 348.519127 143.753205 
L 368.805049 142.160733 
L 383.352372 144.172036 
L 392.008691 149.675786 
L 394.823135 159.265076 
L 390.128477 171.707192 
L 380.44661 182.435926 
L 366.136406 192.043391 
L 342.79278 201.285152 
L 308.460472 207.670579 
L 273.708169 209.289821 
L 236.147858 207.690918 
L 198.724814 203.625169 
L 161.762457 197.361481 
L 130.417818 189.324029 
L 112.140475 180.326308 
L 110.021085 173.314616 
L 118.402863 166.360437 
L 138.941777 158.838119 
L 173.005885 151.078434 
L 216.455453 144.518814 
L 260.913499 140.891943 
L 294.516424 140.793733 
L 323.598411 143.497488 
L 351.913377 150.205992 
L 374.9656 161.21564 
L 388.168669 172.798687 
L 394.369698 183.444178 
L 395.189828 192.857561 
L 389.751438 201.077275 
L 376.094756 205.82872 
L 360.277753 206.16761 
L 340.211815 203.781225 
L 311.940782 198.092978 
L 275.109469 188.985962 
L 232.748596 177.649197 
L 191.24176 166.097456 
L 154.22137 154.997177 
L 125.479626 144.289312 
L 112.22776 134.993935 
L 113.551083 128.73174 
L 123.916289 123.630022 
L 145.726801 119.101645 
L 177.5458 116.694099 
L 215.418146 117.933406 
L 255.570066 124.394446 
L 289.174015 135.223907 
L 324.099232 154.318903 
L 346.189323 172.979596 
L 360.334012 189.944507 
L 368.568846 204.781144 
L 370.757559 217.050109 
L 365.126631 223.269537 
L 354.796816 223.150145 
L 340.581988 219.023836 
L 317.901307 209.510485 
L 286.912494 194.710451 
L 250.069775 176.686977 
L 212.54083 158.649872 
L 177.892263 142.143084 
L 145.578337 125.750792 
L 125.012546 112.0313 
L 119.401186 103.178679 
L 123.649903 96.26781 
L 135.953768 91.780406 
L 156.922565 89.787798 
L 183.525689 91.847731 
L 216.26105 100.330428 
L 249.027154 116.523048 
L 277.052367 138.503186 
L 301.881526 166.751533 
L 317.377086 190.767017 
L 327.440907 211.869126 
L 332.411352 230.650935 
L 329.89552 241.983929 
L 320.34467 244.58106 
L 305.479864 240.041251 
L 284.637655 229.036975 
L 256.565987 210.92985 
L 224.613134 187.982984 
L 196.217944 165.768799 
L 169.983882 142.673097 
L 148.169825 118.116228 
L 138.70755 99.336341 
L 138.043494 87.053951 
L 142.725978 77.234324 
L 153.517331 69.507094 
L 170.201926 66.510813 
L 190.807214 71.536492 
L 211.12402 86.142255 
L 229.706506 109.816115 
L 246.646126 141.297649 
L 260.67138 174.732178 
L 272.015317 207.746655 
L 278.914403 234.60859 
L 280.829138 252.219702 
L 278.196226 263.439469 
L 270.56893 267.502621 
L 257.724915 264.180377 
L 240.794937 254.007418 
L 219.744781 236.746795 
L 199.757586 216.348989 
L 180.070915 190.720977 
L 164.962701 161.460103 
L 158.676693 130.74023 
L 161.374659 107.927029 
L 169.523331 88.686109 
L 182.767474 72.15744 
L 197.431164 62.969414 
L 207.85216 62.600246 
L 215.777003 68.845958 
L 221.581863 82.490444 
L 225.172213 101.870394 
L 227.500128 124.395672 
L 231.623974 174.605449 
L 236.037047 221.98012 
L 237.299065 237.449883 
L 237.972044 250.950344 
L 237.77042 263.042894 
L 236.373544 272.318472 
L 233.518748 278.83659 
L 228.256139 282.540413 
L 218.87121 281.350272 
L 207.073098 274.130385 
L 192.63858 259.952124 
L 178.53834 239.63252 
L 167.844593 213.777722 
L 164.343787 182.913414 
L 170.526326 151.840619 
L 184.415344 123.505877 
L 204.054496 97.974478 
L 221.26427 82.020998 
L 234.621706 73.676811 
L 244.885794 71.617701 
L 251.027519 75.87029 
L 253.74259 87.403571 
L 253.132744 102.114963 
L 250.582782 120.067164 
L 246.013287 144.208058 
L 240.134544 172.230409 
L 233.628742 201.767207 
L 226.538106 230.926411 
L 219.474391 253.844773 
L 211.213138 271.592012 
L 201.018167 283.157807 
L 188.88217 287.551083 
L 176.232125 284.94846 
L 164.584163 276.619458 
L 154.828598 261.897677 
L 150.870251 240.796643 
L 157.153586 213.302287 
L 173.488016 185.15829 
L 199.932846 154.438521 
L 226.615058 129.777096 
L 249.416171 111.92701 
L 269.105099 99.220443 
L 287.378289 91.534981 
L 297.830434 92.14504 
L 302.796047 99.240156 
L 303.064727 111.766465 
L 299.341677 128.872857 
L 290.609026 153.346776 
L 276.888409 182.375087 
L 260.88199 209.056403 
L 240.023724 235.342491 
L 215.77683 256.124896 
L 190.124814 268.957042 
L 164.344336 273.965528 
L 144.43475 272.043161 
L 131.691527 265.168041 
L 128.416422 255.333198 
L 134.350883 242.836598 
L 149.568273 227.667574 
L 175.914716 208.00368 
L 212.121866 184.132627 
L 244.859334 163.462249 
L 275.910941 144.398826 
L 305.593189 127.370857 
L 329.428829 116.36429 
L 342.591003 113.790532 
L 349.609206 117.536651 
L 350.47558 127.452299 
L 345.185801 142.967113 
L 332.641516 164.288289 
L 316.95546 183.748802 
L 298.16586 201.623032 
L 270.024696 221.007746 
L 231.720684 237.456403 
L 194.212771 245.649162 
L 159.508666 247.679579 
L 134.04755 245.3718 
L 117.739298 239.572552 
L 115.423222 233.360304 
L 122.568555 225.920364 
L 140.335832 216.458456 
L 170.295569 204.119792 
L 249.954762 173.678768 
L 288.269445 158.661327 
L 321.810089 145.792133 
L 349.682392 136.614489 
L 367.392382 133.341825 
L 378.544372 135.128236 
L 382.918551 141.185273 
L 381.205676 152.327466 
L 372.082381 167.285944 
L 359.371588 180.354481 
L 342.815972 192.465852 
L 317.110603 205.233599 
L 280.001712 215.846601 
L 238.801976 220.853305 
L 204.508479 221.285356 
L 171.966102 219.119599 
L 140.453544 214.329318 
L 117.395452 207.228507 
L 110.134203 200.067644 
L 115.964238 192.336455 
L 133.161006 184.512171 
L 163.991945 175.282459 
L 206.222448 165.302592 
L 251.383093 156.305386 
L 291.58752 149.857682 
L 329.352188 146.1856 
L 353.587755 146.234696 
L 371.766867 148.767946 
L 387.498265 154.768792 
L 397.275267 164.317996 
L 399.439199 174.078692 
L 395.700843 183.87748 
L 386.559416 192.212732 
L 369.305856 199.329011 
L 342.438379 203.129563 
L 316.156129 203.045003 
L 288.099125 200.77062 
L 250.591331 195.669708 
L 207.816802 187.998498 
L 169.492265 179.620295 
L 135.873387 170.248166 
L 114.549188 160.677753 
L 109.976314 153.335466 
L 117.089379 146.462559 
L 135.457892 140.117899 
L 166.536807 134.36048 
L 207.006162 130.752885 
L 245.197141 130.69527 
L 280.815108 134.219226 
L 316.617631 142.806368 
L 347.909072 157.032865 
L 367.679696 171.901313 
L 379.172605 185.2383 
L 384.994611 196.991694 
L 385.047588 207.258424 
L 377.624909 213.021415 
L 366.209646 213.600759 
L 350.142221 210.680735 
L 326.538808 203.654765 
L 294.26995 192.276971 
L 255.492382 178.041847 
L 215.203233 163.450343 
L 179.028863 150.46979 
L 144.300033 137.241261 
L 121.35872 125.859968 
L 114.342498 118.019987 
L 118.681017 111.617476 
L 132.189939 107.168254 
L 155.703032 104.501849 
L 186.235123 105.084912 
L 221.558761 110.444183 
L 258.203915 122.21897 
L 289.969266 139.377412 
L 322.233271 166.679568 
L 338.72973 186.895521 
L 349.181944 204.411496 
L 354.759403 220.518344 
L 352.76414 230.696277 
L 344.587055 232.98049 
L 330.621502 229.393251 
L 310.614425 220.185365 
L 282.433039 204.613926 
L 248.131422 184.39634 
L 212.500022 162.978317 
L 181.836007 144.085186 
L 151.672864 123.772329 
L 132.018329 106.166465 
L 126.373101 94.75144 
L 129.731252 85.879767 
L 140.002508 80.263644 
L 157.97215 77.6403 
L 181.433526 80.139624 
L 209.782205 90.584803 
L 237.640884 110.006886 
L 262.810533 137.592731 
L 283.080495 168.851308 
L 296.693227 196.411567 
L 296.693227 196.411567 
" clip-path="url(#paa2b0b0723)" style="fill: none; stroke: #1f77b4; stroke-width: 0.5; stroke-linecap: square"/>
   </g>
   <g id="patch_3">
    <path d="M 57.6 307.584 
L 57.6 41.472 
" style="fill: none; stroke: #000000; stroke-width: 0.8; stroke-linejoin: miter; stroke-linecap: square"/>
   </g>
   <g id="patch_4">
    <path d="M 414.72 307.584 
L 414.72 41.472 
" style="fill: none; stroke: #000000; stroke-width: 0.8; stroke-linejoin: miter; stroke-linecap: square"/>
   </g>
   <g id="patch_5">
    <path d="M 57.6 307.584 
L 414.72 307.584 
" style="fill: none; stroke: #000000; stroke-width: 0.8; stroke-linejoin: miter; stroke-linecap: square"/>
   </g>
   <g id="patch_6">
    <path d="M 57.6 41.472 
L 414.72 41.472 
" style="fill: none; stroke: #000000; stroke-width: 0.8; stroke-linejoin: miter; stroke-linecap: square"/>
   </g>
   <g id="text_13">
    <!-- Real Space Projection onto r-z plane with initial r = -0.19 -->
    <g transform="translate(66.41625 35.472) scale(0.12 -0.12)">
     <defs>
      <path id="DejaVuSans-52" d="M 2841 2188 
Q 3044 2119 3236 1894 
Q 3428 1669 3622 1275 
L 4263 0 
L 3584 0 
L 2988 1197 
Q 2756 1666 2539 1819 
Q 2322 1972 1947 1972 
L 1259 1972 
L 1259 0 
L 628 0 
L 628 4666 
L 2053 4666 
Q 2853 4666 3247 4331 
Q 3641 3997 3641 3322 
Q 3641 2881 3436 2590 
Q 3231 2300 2841 2188 
z
M 1259 4147 
L 1259 2491 
L 2053 2491 
Q 2509 2491 2742 2702 
Q 2975 2913 2975 3322 
Q 2975 3731 2742 3939 
Q 2509 4147 2053 4147 
L 1259 4147 
z
" transform="scale(0.015625)"/>
      <path id="DejaVuSans-65" d="M 3597 1894 
L 3597 1613 
L 953 1613 
Q 991 1019 1311 708 
Q 1631 397 2203 397 
Q 2534 397 2845 478 
Q 3156 559 3463 722 
L 3463 178 
Q 3153 47 2828 -22 
Q 2503 -91 2169 -91 
Q 1331 -91 842 396 
Q 353 884 353 1716 
Q 353 2575 817 3079 
Q 1281 3584 2069 3584 
Q 2775 3584 3186 3129 
Q 3597 2675 3597 1894 
z
M 3022 2063 
Q 3016 2534 2758 2815 
Q 2500 3097 2075 3097 
Q 1594 3097 1305 2825 
Q 1016 2553 972 2059 
L 3022 2063 
z
" transform="scale(0.015625)"/>
      <path id="DejaVuSans-61" d="M 2194 1759 
Q 1497 1759 1228 1600 
Q 959 1441 959 1056 
Q 959 750 1161 570 
Q 1363 391 1709 391 
Q 2188 391 2477 730 
Q 2766 1069 2766 1631 
L 2766 1759 
L 2194 1759 
z
M 3341 1997 
L 3341 0 
L 2766 0 
L 2766 531 
Q 2569 213 2275 61 
Q 1981 -91 1556 -91 
Q 1019 -91 701 211 
Q 384 513 384 1019 
Q 384 1609 779 1909 
Q 1175 2209 1959 2209 
L 2766 2209 
L 2766 2266 
Q 2766 2663 2505 2880 
Q 2244 3097 1772 3097 
Q 1472 3097 1187 3025 
Q 903 2953 641 2809 
L 641 3341 
Q 956 3463 1253 3523 
Q 1550 3584 1831 3584 
Q 2591 3584 2966 3190 
Q 3341 2797 3341 1997 
z
" transform="scale(0.015625)"/>
      <path id="DejaVuSans-6c" d="M 603 4863 
L 1178 4863 
L 1178 0 
L 603 0 
L 603 4863 
z
" transform="scale(0.015625)"/>
      <path id="DejaVuSans-20" transform="scale(0.015625)"/>
      <path id="DejaVuSans-53" d="M 3425 4513 
L 3425 3897 
Q 3066 4069 2747 4153 
Q 2428 4238 2131 4238 
Q 1616 4238 1336 4038 
Q 1056 3838 1056 3469 
Q 1056 3159 1242 3001 
Q 1428 2844 1947 2747 
L 2328 2669 
Q 3034 2534 3370 2195 
Q 3706 1856 3706 1288 
Q 3706 609 3251 259 
Q 2797 -91 1919 -91 
Q 1588 -91 1214 -16 
Q 841 59 441 206 
L 441 856 
Q 825 641 1194 531 
Q 1563 422 1919 422 
Q 2459 422 2753 634 
Q 3047 847 3047 1241 
Q 3047 1584 2836 1778 
Q 2625 1972 2144 2069 
L 1759 2144 
Q 1053 2284 737 2584 
Q 422 2884 422 3419 
Q 422 4038 858 4394 
Q 1294 4750 2059 4750 
Q 2388 4750 2728 4690 
Q 3069 4631 3425 4513 
z
" transform="scale(0.015625)"/>
      <path id="DejaVuSans-70" d="M 1159 525 
L 1159 -1331 
L 581 -1331 
L 581 3500 
L 1159 3500 
L 1159 2969 
Q 1341 3281 1617 3432 
Q 1894 3584 2278 3584 
Q 2916 3584 3314 3078 
Q 3713 2572 3713 1747 
Q 3713 922 3314 415 
Q 2916 -91 2278 -91 
Q 1894 -91 1617 61 
Q 1341 213 1159 525 
z
M 3116 1747 
Q 3116 2381 2855 2742 
Q 2594 3103 2138 3103 
Q 1681 3103 1420 2742 
Q 1159 2381 1159 1747 
Q 1159 1113 1420 752 
Q 1681 391 2138 391 
Q 2594 391 2855 752 
Q 3116 1113 3116 1747 
z
" transform="scale(0.015625)"/>
      <path id="DejaVuSans-63" d="M 3122 3366 
L 3122 2828 
Q 2878 2963 2633 3030 
Q 2388 3097 2138 3097 
Q 1578 3097 1268 2742 
Q 959 2388 959 1747 
Q 959 1106 1268 751 
Q 1578 397 2138 397 
Q 2388 397 2633 464 
Q 2878 531 3122 666 
L 3122 134 
Q 2881 22 2623 -34 
Q 2366 -91 2075 -91 
Q 1284 -91 818 406 
Q 353 903 353 1747 
Q 353 2603 823 3093 
Q 1294 3584 2113 3584 
Q 2378 3584 2631 3529 
Q 2884 3475 3122 3366 
z
" transform="scale(0.015625)"/>
      <path id="DejaVuSans-50" d="M 1259 4147 
L 1259 2394 
L 2053 2394 
Q 2494 2394 2734 2622 
Q 2975 2850 2975 3272 
Q 2975 3691 2734 3919 
Q 2494 4147 2053 4147 
L 1259 4147 
z
M 628 4666 
L 2053 4666 
Q 2838 4666 3239 4311 
Q 3641 3956 3641 3272 
Q 3641 2581 3239 2228 
Q 2838 1875 2053 1875 
L 1259 1875 
L 1259 0 
L 628 0 
L 628 4666 
z
" transform="scale(0.015625)"/>
      <path id="DejaVuSans-6f" d="M 1959 3097 
Q 1497 3097 1228 2736 
Q 959 2375 959 1747 
Q 959 1119 1226 758 
Q 1494 397 1959 397 
Q 2419 397 2687 759 
Q 2956 1122 2956 1747 
Q 2956 2369 2687 2733 
Q 2419 3097 1959 3097 
z
M 1959 3584 
Q 2709 3584 3137 3096 
Q 3566 2609 3566 1747 
Q 3566 888 3137 398 
Q 2709 -91 1959 -91 
Q 1206 -91 779 398 
Q 353 888 353 1747 
Q 353 2609 779 3096 
Q 1206 3584 1959 3584 
z
" transform="scale(0.015625)"/>
      <path id="DejaVuSans-6a" d="M 603 3500 
L 1178 3500 
L 1178 -63 
Q 1178 -731 923 -1031 
Q 669 -1331 103 -1331 
L -116 -1331 
L -116 -844 
L 38 -844 
Q 366 -844 484 -692 
Q 603 -541 603 -63 
L 603 3500 
z
M 603 4863 
L 1178 4863 
L 1178 4134 
L 603 4134 
L 603 4863 
z
" transform="scale(0.015625)"/>
      <path id="DejaVuSans-74" d="M 1172 4494 
L 1172 3500 
L 2356 3500 
L 2356 3053 
L 1172 3053 
L 1172 1153 
Q 1172 725 1289 603 
Q 1406 481 1766 481 
L 2356 481 
L 2356 0 
L 1766 0 
Q 1100 0 847 248 
Q 594 497 594 1153 
L 594 3053 
L 172 3053 
L 172 3500 
L 594 3500 
L 594 4494 
L 1172 4494 
z
" transform="scale(0.015625)"/>
      <path id="DejaVuSans-69" d="M 603 3500 
L 1178 3500 
L 1178 0 
L 603 0 
L 603 3500 
z
M 603 4863 
L 1178 4863 
L 1178 4134 
L 603 4134 
L 603 4863 
z
" transform="scale(0.015625)"/>
      <path id="DejaVuSans-6e" d="M 3513 2113 
L 3513 0 
L 2938 0 
L 2938 2094 
Q 2938 2591 2744 2837 
Q 2550 3084 2163 3084 
Q 1697 3084 1428 2787 
Q 1159 2491 1159 1978 
L 1159 0 
L 581 0 
L 581 3500 
L 1159 3500 
L 1159 2956 
Q 1366 3272 1645 3428 
Q 1925 3584 2291 3584 
Q 2894 3584 3203 3211 
Q 3513 2838 3513 2113 
z
" transform="scale(0.015625)"/>
      <path id="DejaVuSans-2d" d="M 313 2009 
L 1997 2009 
L 1997 1497 
L 313 1497 
L 313 2009 
z
" transform="scale(0.015625)"/>
      <path id="DejaVuSans-77" d="M 269 3500 
L 844 3500 
L 1563 769 
L 2278 3500 
L 2956 3500 
L 3675 769 
L 4391 3500 
L 4966 3500 
L 4050 0 
L 3372 0 
L 2619 2869 
L 1863 0 
L 1184 0 
L 269 3500 
z
" transform="scale(0.015625)"/>
      <path id="DejaVuSans-68" d="M 3513 2113 
L 3513 0 
L 2938 0 
L 2938 2094 
Q 2938 2591 2744 2837 
Q 2550 3084 2163 3084 
Q 1697 3084 1428 2787 
Q 1159 2491 1159 1978 
L 1159 0 
L 581 0 
L 581 4863 
L 1159 4863 
L 1159 2956 
Q 1366 3272 1645 3428 
Q 1925 3584 2291 3584 
Q 2894 3584 3203 3211 
Q 3513 2838 3513 2113 
z
" transform="scale(0.015625)"/>
      <path id="DejaVuSans-3d" d="M 678 2906 
L 4684 2906 
L 4684 2381 
L 678 2381 
L 678 2906 
z
M 678 1631 
L 4684 1631 
L 4684 1100 
L 678 1100 
L 678 1631 
z
" transform="scale(0.015625)"/>
      <path id="DejaVuSans-31" d="M 794 531 
L 1825 531 
L 1825 4091 
L 703 3866 
L 703 4441 
L 1819 4666 
L 2450 4666 
L 2450 531 
L 3481 531 
L 3481 0 
L 794 0 
L 794 531 
z
" transform="scale(0.015625)"/>
      <path id="DejaVuSans-39" d="M 703 97 
L 703 672 
Q 941 559 1184 500 
Q 1428 441 1663 441 
Q 2288 441 2617 861 
Q 2947 1281 2994 2138 
Q 2813 1869 2534 1725 
Q 2256 1581 1919 1581 
Q 1219 1581 811 2004 
Q 403 2428 403 3163 
Q 403 3881 828 4315 
Q 1253 4750 1959 4750 
Q 2769 4750 3195 4129 
Q 3622 3509 3622 2328 
Q 3622 1225 3098 567 
Q 2575 -91 1691 -91 
Q 1453 -91 1209 -44 
Q 966 3 703 97 
z
M 1959 2075 
Q 2384 2075 2632 2365 
Q 2881 2656 2881 3163 
Q 2881 3666 2632 3958 
Q 2384 4250 1959 4250 
Q 1534 4250 1286 3958 
Q 1038 3666 1038 3163 
Q 1038 2656 1286 2365 
Q 1534 2075 1959 2075 
z
" transform="scale(0.015625)"/>
     </defs>
     <use xlink:href="#DejaVuSans-52"/>
     <use xlink:href="#DejaVuSans-65" x="64.982422"/>
     <use xlink:href="#DejaVuSans-61" x="126.505859"/>
     <use xlink:href="#DejaVuSans-6c" x="187.785156"/>
     <use xlink:href="#DejaVuSans-20" x="215.568359"/>
     <use xlink:href="#DejaVuSans-53" x="247.355469"/>
     <use xlink:href="#DejaVuSans-70" x="310.832031"/>
     <use xlink:href="#DejaVuSans-61" x="374.308594"/>
     <use xlink:href="#DejaVuSans-63" x="435.587891"/>
     <use xlink:href="#DejaVuSans-65" x="490.568359"/>
     <use xlink:href="#DejaVuSans-20" x="552.091797"/>
     <use xlink:href="#DejaVuSans-50" x="583.878906"/>
     <use xlink:href="#DejaVuSans-72" x="642.431641"/>
     <use xlink:href="#DejaVuSans-6f" x="681.294922"/>
     <use xlink:href="#DejaVuSans-6a" x="742.476562"/>
     <use xlink:href="#DejaVuSans-65" x="770.259766"/>
     <use xlink:href="#DejaVuSans-63" x="831.783203"/>
     <use xlink:href="#DejaVuSans-74" x="886.763672"/>
     <use xlink:href="#DejaVuSans-69" x="925.972656"/>
     <use xlink:href="#DejaVuSans-6f" x="953.755859"/>
     <use xlink:href="#DejaVuSans-6e" x="1014.9375"/>
     <use xlink:href="#DejaVuSans-20" x="1078.316406"/>
     <use xlink:href="#DejaVuSans-6f" x="1110.103516"/>
     <use xlink:href="#DejaVuSans-6e" x="1171.285156"/>
     <use xlink:href="#DejaVuSans-74" x="1234.664062"/>
     <use xlink:href="#DejaVuSans-6f" x="1273.873047"/>
     <use xlink:href="#DejaVuSans-20" x="1335.054688"/>
     <use xlink:href="#DejaVuSans-72" x="1366.841797"/>
     <use xlink:href="#DejaVuSans-2d" x="1401.580078"/>
     <use xlink:href="#DejaVuSans-7a" x="1437.664062"/>
     <use xlink:href="#DejaVuSans-20" x="1490.154297"/>
     <use xlink:href="#DejaVuSans-70" x="1521.941406"/>
     <use xlink:href="#DejaVuSans-6c" x="1585.417969"/>
     <use xlink:href="#DejaVuSans-61" x="1613.201172"/>
     <use xlink:href="#DejaVuSans-6e" x="1674.480469"/>
     <use xlink:href="#DejaVuSans-65" x="1737.859375"/>
     <use xlink:href="#DejaVuSans-20" x="1799.382812"/>
     <use xlink:href="#DejaVuSans-77" x="1831.169922"/>
     <use xlink:href="#DejaVuSans-69" x="1912.957031"/>
     <use xlink:href="#DejaVuSans-74" x="1940.740234"/>
     <use xlink:href="#DejaVuSans-68" x="1979.949219"/>
     <use xlink:href="#DejaVuSans-20" x="2043.328125"/>
     <use xlink:href="#DejaVuSans-69" x="2075.115234"/>
     <use xlink:href="#DejaVuSans-6e" x="2102.898438"/>
     <use xlink:href="#DejaVuSans-69" x="2166.277344"/>
     <use xlink:href="#DejaVuSans-74" x="2194.060547"/>
     <use xlink:href="#DejaVuSans-69" x="2233.269531"/>
     <use xlink:href="#DejaVuSans-61" x="2261.052734"/>
     <use xlink:href="#DejaVuSans-6c" x="2322.332031"/>
     <use xlink:href="#DejaVuSans-20" x="2350.115234"/>
     <use xlink:href="#DejaVuSans-72" x="2381.902344"/>
     <use xlink:href="#DejaVuSans-20" x="2423.015625"/>
     <use xlink:href="#DejaVuSans-3d" x="2454.802734"/>
     <use xlink:href="#DejaVuSans-20" x="2538.591797"/>
     <use xlink:href="#DejaVuSans-2d" x="2570.378906"/>
     <use xlink:href="#DejaVuSans-30" x="2606.462891"/>
     <use xlink:href="#DejaVuSans-2e" x="2670.085938"/>
     <use xlink:href="#DejaVuSans-31" x="2701.873047"/>
     <use xlink:href="#DejaVuSans-39" x="2765.496094"/>
    </g>
   </g>
  </g>
 </g>
 <defs>
  <clipPath id="paa2b0b0723">
   <rect x="57.6" y="41.472" width="357.12" height="266.112"/>
  </clipPath>
 </defs>
</svg>
