<?xml version="1.0" encoding="utf-8" standalone="no"?>
<!DOCTYPE svg PUBLIC "-//W3C//DTD SVG 1.1//EN"
  "http://www.w3.org/Graphics/SVG/1.1/DTD/svg11.dtd">
<svg xmlns:xlink="http://www.w3.org/1999/xlink" width="460.8pt" height="345.6pt" viewBox="0 0 460.8 345.6" xmlns="http://www.w3.org/2000/svg" version="1.1">
 <metadata>
  <rdf:RDF xmlns:dc="http://purl.org/dc/elements/1.1/" xmlns:cc="http://creativecommons.org/ns#" xmlns:rdf="http://www.w3.org/1999/02/22-rdf-syntax-ns#">
   <cc:Work>
    <dc:type rdf:resource="http://purl.org/dc/dcmitype/StillImage"/>
    <dc:date>2023-10-23T21:33:14.006720</dc:date>
    <dc:format>image/svg+xml</dc:format>
    <dc:creator>
     <cc:Agent>
      <dc:title>Matplotlib v3.8.0, https://matplotlib.org/</dc:title>
     </cc:Agent>
    </dc:creator>
   </cc:Work>
  </rdf:RDF>
 </metadata>
 <defs>
  <style type="text/css">*{stroke-linejoin: round; stroke-linecap: butt}</style>
 </defs>
 <g id="figure_1">
  <g id="patch_1">
   <path d="M 0 345.6 
L 460.8 345.6 
L 460.8 0 
L 0 0 
z
" style="fill: #ffffff"/>
  </g>
  <g id="axes_1">
   <g id="patch_2">
    <path d="M 57.6 307.584 
L 414.72 307.584 
L 414.72 41.472 
L 57.6 41.472 
z
" style="fill: #ffffff"/>
   </g>
   <g id="matplotlib.axis_1">
    <g id="xtick_1">
     <g id="line2d_1">
      <defs>
       <path id="m4c0999b6d7" d="M 0 0 
L 0 3.5 
" style="stroke: #000000; stroke-width: 0.8"/>
      </defs>
      <g>
       <use xlink:href="#m4c0999b6d7" x="93.312" y="307.584" style="stroke: #000000; stroke-width: 0.8"/>
      </g>
     </g>
     <g id="text_1">
      <!-- −0.4 -->
      <g transform="translate(81.170594 322.182437) scale(0.1 -0.1)">
       <defs>
        <path id="DejaVuSans-2212" d="M 678 2272 
L 4684 2272 
L 4684 1741 
L 678 1741 
L 678 2272 
z
" transform="scale(0.015625)"/>
        <path id="DejaVuSans-30" d="M 2034 4250 
Q 1547 4250 1301 3770 
Q 1056 3291 1056 2328 
Q 1056 1369 1301 889 
Q 1547 409 2034 409 
Q 2525 409 2770 889 
Q 3016 1369 3016 2328 
Q 3016 3291 2770 3770 
Q 2525 4250 2034 4250 
z
M 2034 4750 
Q 2819 4750 3233 4129 
Q 3647 3509 3647 2328 
Q 3647 1150 3233 529 
Q 2819 -91 2034 -91 
Q 1250 -91 836 529 
Q 422 1150 422 2328 
Q 422 3509 836 4129 
Q 1250 4750 2034 4750 
z
" transform="scale(0.015625)"/>
        <path id="DejaVuSans-2e" d="M 684 794 
L 1344 794 
L 1344 0 
L 684 0 
L 684 794 
z
" transform="scale(0.015625)"/>
        <path id="DejaVuSans-34" d="M 2419 4116 
L 825 1625 
L 2419 1625 
L 2419 4116 
z
M 2253 4666 
L 3047 4666 
L 3047 1625 
L 3713 1625 
L 3713 1100 
L 3047 1100 
L 3047 0 
L 2419 0 
L 2419 1100 
L 313 1100 
L 313 1709 
L 2253 4666 
z
" transform="scale(0.015625)"/>
       </defs>
       <use xlink:href="#DejaVuSans-2212"/>
       <use xlink:href="#DejaVuSans-30" x="83.789062"/>
       <use xlink:href="#DejaVuSans-2e" x="147.412109"/>
       <use xlink:href="#DejaVuSans-34" x="179.199219"/>
      </g>
     </g>
    </g>
    <g id="xtick_2">
     <g id="line2d_2">
      <g>
       <use xlink:href="#m4c0999b6d7" x="164.736" y="307.584" style="stroke: #000000; stroke-width: 0.8"/>
      </g>
     </g>
     <g id="text_2">
      <!-- −0.2 -->
      <g transform="translate(152.594594 322.182437) scale(0.1 -0.1)">
       <defs>
        <path id="DejaVuSans-32" d="M 1228 531 
L 3431 531 
L 3431 0 
L 469 0 
L 469 531 
Q 828 903 1448 1529 
Q 2069 2156 2228 2338 
Q 2531 2678 2651 2914 
Q 2772 3150 2772 3378 
Q 2772 3750 2511 3984 
Q 2250 4219 1831 4219 
Q 1534 4219 1204 4116 
Q 875 4013 500 3803 
L 500 4441 
Q 881 4594 1212 4672 
Q 1544 4750 1819 4750 
Q 2544 4750 2975 4387 
Q 3406 4025 3406 3419 
Q 3406 3131 3298 2873 
Q 3191 2616 2906 2266 
Q 2828 2175 2409 1742 
Q 1991 1309 1228 531 
z
" transform="scale(0.015625)"/>
       </defs>
       <use xlink:href="#DejaVuSans-2212"/>
       <use xlink:href="#DejaVuSans-30" x="83.789062"/>
       <use xlink:href="#DejaVuSans-2e" x="147.412109"/>
       <use xlink:href="#DejaVuSans-32" x="179.199219"/>
      </g>
     </g>
    </g>
    <g id="xtick_3">
     <g id="line2d_3">
      <g>
       <use xlink:href="#m4c0999b6d7" x="236.16" y="307.584" style="stroke: #000000; stroke-width: 0.8"/>
      </g>
     </g>
     <g id="text_3">
      <!-- 0.0 -->
      <g transform="translate(228.208438 322.182437) scale(0.1 -0.1)">
       <use xlink:href="#DejaVuSans-30"/>
       <use xlink:href="#DejaVuSans-2e" x="63.623047"/>
       <use xlink:href="#DejaVuSans-30" x="95.410156"/>
      </g>
     </g>
    </g>
    <g id="xtick_4">
     <g id="line2d_4">
      <g>
       <use xlink:href="#m4c0999b6d7" x="307.584" y="307.584" style="stroke: #000000; stroke-width: 0.8"/>
      </g>
     </g>
     <g id="text_4">
      <!-- 0.2 -->
      <g transform="translate(299.632437 322.182437) scale(0.1 -0.1)">
       <use xlink:href="#DejaVuSans-30"/>
       <use xlink:href="#DejaVuSans-2e" x="63.623047"/>
       <use xlink:href="#DejaVuSans-32" x="95.410156"/>
      </g>
     </g>
    </g>
    <g id="xtick_5">
     <g id="line2d_5">
      <g>
       <use xlink:href="#m4c0999b6d7" x="379.008" y="307.584" style="stroke: #000000; stroke-width: 0.8"/>
      </g>
     </g>
     <g id="text_5">
      <!-- 0.4 -->
      <g transform="translate(371.056437 322.182437) scale(0.1 -0.1)">
       <use xlink:href="#DejaVuSans-30"/>
       <use xlink:href="#DejaVuSans-2e" x="63.623047"/>
       <use xlink:href="#DejaVuSans-34" x="95.410156"/>
      </g>
     </g>
    </g>
    <g id="text_6">
     <!-- r -->
     <g transform="translate(234.104531 335.860562) scale(0.1 -0.1)">
      <defs>
       <path id="DejaVuSans-72" d="M 2631 2963 
Q 2534 3019 2420 3045 
Q 2306 3072 2169 3072 
Q 1681 3072 1420 2755 
Q 1159 2438 1159 1844 
L 1159 0 
L 581 0 
L 581 3500 
L 1159 3500 
L 1159 2956 
Q 1341 3275 1631 3429 
Q 1922 3584 2338 3584 
Q 2397 3584 2469 3576 
Q 2541 3569 2628 3553 
L 2631 2963 
z
" transform="scale(0.015625)"/>
      </defs>
      <use xlink:href="#DejaVuSans-72"/>
     </g>
    </g>
   </g>
   <g id="matplotlib.axis_2">
    <g id="ytick_1">
     <g id="line2d_6">
      <defs>
       <path id="m9508d2eb71" d="M 0 0 
L -3.5 0 
" style="stroke: #000000; stroke-width: 0.8"/>
      </defs>
      <g>
       <use xlink:href="#m9508d2eb71" x="57.6" y="280.9728" style="stroke: #000000; stroke-width: 0.8"/>
      </g>
     </g>
     <g id="text_7">
      <!-- −0.4 -->
      <g transform="translate(26.317187 284.772019) scale(0.1 -0.1)">
       <use xlink:href="#DejaVuSans-2212"/>
       <use xlink:href="#DejaVuSans-30" x="83.789062"/>
       <use xlink:href="#DejaVuSans-2e" x="147.412109"/>
       <use xlink:href="#DejaVuSans-34" x="179.199219"/>
      </g>
     </g>
    </g>
    <g id="ytick_2">
     <g id="line2d_7">
      <g>
       <use xlink:href="#m9508d2eb71" x="57.6" y="227.7504" style="stroke: #000000; stroke-width: 0.8"/>
      </g>
     </g>
     <g id="text_8">
      <!-- −0.2 -->
      <g transform="translate(26.317187 231.549619) scale(0.1 -0.1)">
       <use xlink:href="#DejaVuSans-2212"/>
       <use xlink:href="#DejaVuSans-30" x="83.789062"/>
       <use xlink:href="#DejaVuSans-2e" x="147.412109"/>
       <use xlink:href="#DejaVuSans-32" x="179.199219"/>
      </g>
     </g>
    </g>
    <g id="ytick_3">
     <g id="line2d_8">
      <g>
       <use xlink:href="#m9508d2eb71" x="57.6" y="174.528" style="stroke: #000000; stroke-width: 0.8"/>
      </g>
     </g>
     <g id="text_9">
      <!-- 0.0 -->
      <g transform="translate(34.696875 178.327219) scale(0.1 -0.1)">
       <use xlink:href="#DejaVuSans-30"/>
       <use xlink:href="#DejaVuSans-2e" x="63.623047"/>
       <use xlink:href="#DejaVuSans-30" x="95.410156"/>
      </g>
     </g>
    </g>
    <g id="ytick_4">
     <g id="line2d_9">
      <g>
       <use xlink:href="#m9508d2eb71" x="57.6" y="121.3056" style="stroke: #000000; stroke-width: 0.8"/>
      </g>
     </g>
     <g id="text_10">
      <!-- 0.2 -->
      <g transform="translate(34.696875 125.104819) scale(0.1 -0.1)">
       <use xlink:href="#DejaVuSans-30"/>
       <use xlink:href="#DejaVuSans-2e" x="63.623047"/>
       <use xlink:href="#DejaVuSans-32" x="95.410156"/>
      </g>
     </g>
    </g>
    <g id="ytick_5">
     <g id="line2d_10">
      <g>
       <use xlink:href="#m9508d2eb71" x="57.6" y="68.0832" style="stroke: #000000; stroke-width: 0.8"/>
      </g>
     </g>
     <g id="text_11">
      <!-- 0.4 -->
      <g transform="translate(34.696875 71.882419) scale(0.1 -0.1)">
       <use xlink:href="#DejaVuSans-30"/>
       <use xlink:href="#DejaVuSans-2e" x="63.623047"/>
       <use xlink:href="#DejaVuSans-34" x="95.410156"/>
      </g>
     </g>
    </g>
    <g id="text_12">
     <!-- z -->
     <g transform="translate(20.2375 177.152219) rotate(-90) scale(0.1 -0.1)">
      <defs>
       <path id="DejaVuSans-7a" d="M 353 3500 
L 3084 3500 
L 3084 2975 
L 922 459 
L 3084 459 
L 3084 0 
L 275 0 
L 275 525 
L 2438 3041 
L 353 3041 
L 353 3500 
z
" transform="scale(0.015625)"/>
      </defs>
      <use xlink:href="#DejaVuSans-7a"/>
     </g>
    </g>
   </g>
   <g id="line2d_11">
    <path d="M 267.904 174.528 
L 265.742252 169.410113 
L 255.5432 147.448534 
L 239.561921 119.457703 
L 220.972758 95.782065 
L 202.078058 80.185655 
L 180.0871 70.844269 
L 161.91291 69.405133 
L 146.740084 73.345789 
L 136.025224 83.121264 
L 134.433485 95.485919 
L 141.146087 110.514768 
L 157.448057 129.374801 
L 184.854893 152.992757 
L 221.382955 180.17278 
L 252.190297 201.400754 
L 279.989089 219.240385 
L 306.725739 234.091536 
L 326.452401 240.971764 
L 335.953307 239.463236 
L 339.535154 231.953729 
L 337.282912 217.383394 
L 328.841855 197.555888 
L 313.438386 172.953972 
L 294.030706 150.036696 
L 269.470621 128.857693 
L 235.658497 109.651453 
L 196.030444 97.598855 
L 164.743623 94.268357 
L 138.827638 95.783508 
L 121.931071 101.079771 
L 117.588479 107.896524 
L 123.532138 116.390213 
L 139.417825 126.560206 
L 167.18617 139.960088 
L 248.773583 175.768424 
L 287.431169 193.070087 
L 320.008326 207.288653 
L 346.649614 217.210527 
L 363.020815 220.533622 
L 372.854245 218.354828 
L 376.062744 211.430459 
L 372.957753 198.981346 
L 362.371338 182.300201 
L 348.344339 167.590556 
L 330.793517 154.153018 
L 303.665502 139.770782 
L 265.052189 127.755352 
L 224.894632 122.131996 
L 190.170112 121.317447 
L 158.335652 123.476138 
L 130.394566 128.3762 
L 113.205595 135.694206 
L 111.404538 142.142176 
L 119.591995 149.159303 
L 139.694462 157.671001 
L 173.083381 167.888269 
L 216.5684 179.21674 
L 260.965214 189.71168 
L 299.431812 197.73486 
L 335.50919 203.309159 
L 359.261878 204.636309 
L 377.467075 202.697713 
L 389.970238 197.479713 
L 396.924433 188.440254 
L 396.389335 176.719636 
L 390.087968 166.793676 
L 378.943648 157.943964 
L 359.462086 149.673101 
L 329.730151 144.280549 
L 299.558389 143.242737 
L 265.74832 145.055477 
L 228.033324 149.433703 
L 187.848833 156.153329 
L 151.110444 164.370583 
L 122.979849 173.606616 
L 110.146338 183.050795 
L 112.80787 190.343715 
L 125.837564 197.060031 
L 152.088899 204.174581 
L 190.231803 210.351463 
L 234.318004 213.855309 
L 275.773359 213.336559 
L 309.811028 208.957435 
L 341.528093 199.687851 
L 367.102539 185.632895 
L 380.600111 173.152771 
L 388.349697 160.850205 
L 390.209863 150.247853 
L 385.290834 142.035162 
L 372.153886 138.524885 
L 353.168984 140.171988 
L 330.450764 145.312902 
L 298.842489 154.530799 
L 259.942696 166.908508 
L 181.817285 192.261021 
L 146.079736 204.77129 
L 121.571889 215.916367 
L 113.24659 223.992648 
L 117.095589 230.790257 
L 130.480604 235.652848 
L 154.53183 239.085631 
L 186.58895 239.548979 
L 222.361693 235.700022 
L 260.00654 225.891845 
L 292.961305 210.681287 
L 325.837037 186.162547 
L 342.68042 167.725447 
L 354.146997 150.559302 
L 360.715804 134.67705 
L 360.178667 123.403128 
L 352.157584 119.626224 
L 337.860784 122.483779 
L 318.471284 130.569979 
L 290.703452 144.743174 
L 256.201691 163.574867 
L 191.360569 199.456626 
L 158.489865 218.602143 
L 134.156949 235.791798 
L 124.305648 247.887136 
L 124.392722 255.917996 
L 130.810377 261.71041 
L 145.455527 266.059597 
L 167.449175 266.745276 
L 193.342709 262.173248 
L 224.019067 249.302945 
L 252.666379 228.214554 
L 277.972366 199.831697 
L 295.912117 172.05408 
L 309.195671 144.617865 
L 316.463426 121.955594 
L 317.518483 107.097977 
L 312.828637 98.833263 
L 303.039601 97.62477 
L 288.374932 102.581756 
L 267.164688 114.493513 
L 239.737329 133.688134 
L 211.136861 156.770793 
L 185.742082 180.347907 
L 163.256604 206.087625 
L 148.120608 232.775525 
L 144.673474 251.086335 
L 148.11269 266.342854 
L 156.835611 277.658614 
L 171.050802 285.015961 
L 188.346242 284.590676 
L 203.598142 275.459961 
L 217.314308 257.702134 
L 229.430193 232.324358 
L 240.194278 202.09248 
L 249.291774 172.032156 
L 257.907145 139.706198 
L 263.695891 112.356791 
L 265.552713 94.123753 
L 263.699182 81.756806 
L 257.770557 76.095557 
L 246.885981 77.297544 
L 232.953041 84.926875 
L 215.566614 99.052001 
L 197.051744 118.673891 
L 179.415972 143.649594 
L 166.400176 172.888773 
L 162.045463 204.812213 
L 167.073411 231.804776 
L 178.062279 254.208659 
L 193.560139 272.797694 
L 208.793661 283.186389 
L 219.039867 284.588922 
L 226.316749 279.112003 
L 230.578955 266.501111 
L 232.063029 251.342015 
L 232.325592 235.614985 
L 232.063827 217.83756 
L 231.204329 178.633955 
L 230.836362 138.987113 
L 230.697175 122.297809 
L 230.288058 106.18198 
L 229.125753 90.385182 
L 226.566994 77.104054 
L 221.832351 67.703539 
L 214.067781 63.531878 
L 203.325692 65.868851 
L 191.098049 74.344092 
L 177.862473 89.475754 
L 166.709903 110.644633 
L 161.139465 137.555857 
L 165.201396 169.360823 
L 178.218038 198.799243 
L 199.32104 228.034818 
L 220.164021 249.218251 
L 237.146253 262.500824 
L 251.620587 270.174408 
L 262.381799 271.240042 
L 268.444033 265.324248 
L 270.085503 251.762059 
L 267.8747 233.925366 
L 262.814543 211.4558 
L 254.837171 183.145537 
L 244.786982 152.264229 
L 233.646286 123.181059 
L 222.099728 99.519302 
L 209.381667 81.30364 
L 194.244485 68.803783 
L 177.898105 64.00041 
L 162.956836 66.371292 
L 150.979141 74.266357 
L 143.18218 88.771484 
L 143.998887 106.927921 
L 153.31252 127.098403 
L 173.078276 152.116309 
L 203.448216 181.078498 
L 233.15238 205.224982 
L 262.553909 226.343891 
L 287.167748 241.194111 
L 307.234841 249.019548 
L 317.613042 248.120398 
L 322.225019 240.97817 
L 321.417727 226.267677 
L 315.456882 207.403934 
L 303.167015 181.831645 
L 285.897203 155.069025 
L 266.058855 131.850814 
L 238.368725 109.022334 
L 206.224468 92.946921 
L 172.810925 85.285566 
L 149.411895 84.940578 
L 131.888025 88.636898 
L 122.215204 97.130843 
L 124.921317 106.313288 
L 136.341663 117.030987 
L 158.95491 131.509307 
L 192.622418 149.950734 
L 269.447465 190.50599 
L 301.6744 207.28771 
L 329.875487 220.590871 
L 350.339148 227.127271 
L 360.19619 226.552666 
L 364.444574 221.281616 
L 363.218049 209.859525 
L 355.226562 193.435267 
L 339.676772 173.21024 
L 319.762301 154.830435 
L 294.165668 138.113914 
L 257.620017 122.973056 
L 218.018089 114.420939 
L 179.206177 111.796536 
L 147.731491 113.473336 
L 124.28965 118.086085 
L 112.790462 125.383523 
L 115.689524 132.411674 
L 128.542258 140.121902 
L 154.088825 150.132024 
L 191.59486 162.358895 
L 236.433184 176.14649 
L 279.555853 189.156862 
L 316.56001 199.672169 
L 347.929711 206.85825 
L 368.204927 209.047788 
L 382.390845 207.190944 
L 390.136867 201.673955 
L 392.073152 191.806112 
L 386.550246 178.77491 
L 376.409882 167.515592 
L 362.108501 157.413853 
L 338.774137 147.22415 
L 304.396636 139.61953 
L 267.544344 137.025733 
L 227.870814 138.21151 
L 191.868983 141.895322 
L 155.873459 147.989813 
L 126.448182 155.975016 
L 110.936202 165.00585 
L 111.147227 172.183643 
L 120.906215 178.893798 
L 143.605219 186.849944 
L 179.712055 195.139509 
L 224.118053 202.249994 
L 268.083449 206.449036 
L 301.852965 207.091944 
L 331.521057 204.704227 
L 357.806526 198.628195 
L 378.977491 188.402269 
L 391.063786 177.091914 
L 396.032576 166.860261 
L 395.833841 157.774078 
L 389.466142 149.535531 
L 374.811768 144.365696 
L 357.255904 143.597517 
L 334.973771 145.767232 
L 305.70735 151.01543 
L 267.928557 159.575208 
L 224.936507 170.376335 
L 184.289408 181.283758 
L 148.352071 192.04884 
L 121.823458 202.530734 
L 111.69476 210.754361 
L 113.845796 217.224553 
L 125.435285 222.639185 
L 148.77313 227.475065 
L 182.179886 230.173982 
L 221.502734 229.124876 
L 261.46124 222.944193 
L 296.193283 211.836209 
L 330.201366 193.013202 
L 350.90285 175.199636 
L 365.122701 157.319919 
L 372.03645 143.008601 
L 372.430915 131.811597 
L 365.219811 126.878894 
L 353.113836 127.845301 
L 336.467902 133.041252 
L 311.221152 143.62834 
L 277.979406 159.029125 
L 239.936621 176.846248 
L 167.360513 210.330564 
L 137.531841 225.702668 
L 121.107086 238.274155 
L 118.849393 245.79714 
L 124.899828 251.716214 
L 139.486209 255.94586 
L 162.535605 257.402102 
L 190.502283 254.63645 
L 224.574093 245.040221 
L 257.066459 228.089019 
L 285.733484 204.487488 
L 308.200004 177.862493 
L 322.891846 154.191013 
L 332.034724 133.437377 
L 335.280967 116.235125 
L 330.98186 107.125873 
L 321.562173 105.987495 
L 307.119876 110.622517 
L 285.766451 121.795713 
L 257.143267 139.94785 
L 224.631131 162.766378 
L 195.637341 184.817507 
L 169.159788 207.35826 
L 146.976894 231.357366 
L 137.344573 249.624958 
L 136.657348 261.559474 
L 141.438731 271.100553 
L 152.489021 278.597701 
L 169.616263 281.502904 
L 190.849828 276.64098 
L 212.158014 262.217392 
L 231.685825 238.623006 
L 249.467763 206.90795 
L 264.25455 172.46735 
L 275.453675 139.947289 
L 281.995359 113.555648 
L 283.416763 96.830348 
L 280.379506 86.279845 
L 272.122493 82.569511 
L 258.720988 86.308594 
L 241.051035 96.95575 
L 219.348391 114.61542 
L 198.930192 135.214299 
L 178.909473 160.953791 
L 163.690182 190.159055 
L 157.664115 217.661132 
L 159.647671 239.917137 
L 167.05698 258.754876 
L 179.898017 275.518131 
L 194.870735 285.500636 
L 206.043036 286.617609 
L 214.896509 280.725375 
L 221.360893 267.382433 
L 225.53213 247.961318 
L 228.312821 225.080016 
L 235.864864 145.545186 
L 237.716462 126.374855 
L 239.049222 109.529113 
L 239.568823 94.074327 
L 238.76403 81.890843 
L 236.258573 73.029249 
L 231.819028 67.936887 
L 224.018689 66.919136 
L 212.991001 71.68519 
L 198.932734 83.18183 
L 183.988428 101.220252 
L 171.195578 124.961364 
L 164.077548 153.86618 
L 165.568352 182.279646 
L 174.466618 209.128677 
L 191.178818 236.751937 
L 211.469691 259.340289 
L 227.364542 271.758364 
L 238.752885 276.984099 
L 247.179213 276.617824 
L 252.279845 270.276627 
L 253.972982 258.226928 
L 252.806018 241.162998 
L 249.709822 221.077306 
L 244.776615 195.404544 
L 238.750195 166.558586 
L 232.201477 137.162783 
L 225.715072 111.825383 
L 218.510484 90.549277 
L 209.772098 74.306777 
L 198.90549 64.412789 
L 186.20831 61.796027 
L 173.634299 65.805672 
L 161.854317 75.69414 
L 152.895366 91.949683 
L 150.838435 114.71821 
L 159.120523 141.444649 
L 177.404485 169.856267 
L 205.516142 200.532681 
L 231.671845 223.599841 
L 257.1305 242.364681 
L 277.207551 253.718885 
L 293.405768 257.859374 
L 301.871837 253.105858 
L 304.016478 240.772724 
L 300.886615 222.729627 
L 293.061589 199.335548 
L 280.078074 170.698613 
L 264.143603 143.236529 
L 244.044252 116.994462 
L 219.671847 95.163962 
L 194.864777 81.877278 
L 168.245112 75.76847 
L 147.030708 76.961064 
L 133.259456 82.918185 
L 127.984149 92.796188 
L 133.032426 105.719416 
L 147.265451 120.438558 
L 172.602428 139.533546 
L 208.12412 162.855758 
L 241.261337 183.569097 
L 273.661506 203.241922 
L 303.818042 220.397536 
L 328.406103 231.810476 
L 342.446481 234.836298 
L 350.147651 231.367857 
L 351.514838 221.80876 
L 346.627142 206.346863 
L 334.558296 185.302844 
L 319.402783 166.191638 
L 300.731039 148.222614 
L 273.086783 129.021244 
L 235.18741 112.606756 
L 197.4472 104.297742 
L 162.177316 102.203739 
L 135.935966 104.481039 
L 118.474496 110.207461 
L 115.033433 116.633928 
L 121.777669 124.344676 
L 139.037518 133.734291 
L 168.592008 145.923672 
L 248.41516 175.910909 
L 287.21737 190.681934 
L 321.260437 203.263885 
L 349.550249 212.102651 
L 367.461882 215.1007 
L 378.936356 213.194285 
L 383.742824 207.061631 
L 382.456811 195.903713 
L 373.789108 181.105333 
L 361.301735 168.113996 
L 345.347427 156.442803 
L 319.92607 143.946434 
L 283.147072 133.734014 
L 242.488525 129.121912 
L 208.731356 128.910266 
L 176.698303 131.161212 
L 144.215563 136.087566 
L 119.508507 143.321569 
L 110.294479 150.849128 
L 114.96785 158.943142 
L 130.925845 166.710878 
L 160.536194 175.837909 
L 202.000063 185.632456 
L 247.357815 194.402505 
L 288.369207 200.530789 
L 326.48897 203.631216 
L 352.016934 203.017762 
L 371.599011 199.604789 
L 387.681544 192.515368 
L 397.227655 182.018392 
L 399.026181 172.679525 
L 395.72904 163.56185 
L 386.639285 155.183253 
L 369.283797 148.452787 
L 342.614386 145.422877 
L 315.2342 146.24394 
L 284.646133 149.532591 
L 245.456029 155.788534 
L 202.257856 164.379998 
L 164.047712 173.436971 
L 131.868592 183.211026 
L 113.125044 192.852127 
L 110.507465 199.857588 
L 118.391872 206.351277 
L 137.710557 212.605023 
L 169.400959 218.009865 
L 209.849545 220.943597 
L 248.013733 220.124056 
L 283.855996 215.370674 
L 319.514128 205.007595 
L 349.953415 188.839297 
L 367.304493 174.054971 
L 378.491227 159.345639 
L 383.158907 147.147012 
L 381.217739 137.634162 
L 371.320049 133.50694 
L 356.950577 134.771186 
L 337.895419 139.828033 
L 310.047249 149.574882 
L 159.740839 207.229764 
L 130.775475 220.158549 
L 116.394596 230.766833 
L 116.030078 237.171272 
L 123.506949 242.110878 
L 140.810836 246.126262 
L 167.069836 247.617981 
L 198.437522 245.22529 
L 235.481909 236.675331 
L 269.612712 221.861996 
L 302.261744 198.826991 
L 324.418233 175.7633 
L 340.359873 152.568373 
L 348.650186 134.3258 
L 350.332047 120.253615 
L 344.381614 114.006498 
L 333.347926 114.779259 
L 317.882119 120.57837 
L 294.101079 132.905857 
L 262.908637 151.304156 
L 227.750352 173.132367 
L 195.157575 194.057487 
L 164.362769 215.253329 
L 140.244874 235.482928 
L 129.763301 250.222548 
L 128.966645 259.668457 
L 134.299548 267.054004 
L 146.789179 272.546566 
L 166.271468 274.078107 
L 190.264087 269.39051 
L 217.356325 255.676903 
L 242.741202 232.919834 
L 265.744082 201.685443 
L 282.028816 171.73509 
L 294.391415 142.160508 
L 301.314776 117.703721 
L 302.414131 102.120996 
L 298.386521 92.901638 
L 288.156069 90.764945 
L 273.26666 95.890984 
L 252.79514 108.101343 
L 227.292699 127.531634 
L 203.863987 148.715072 
L 180.855426 173.769478 
L 161.985477 201.522753 
L 151.799626 230.168302 
L 151.681422 248.592549 
L 156.468867 263.586996 
L 166.893152 277.529338 
L 181.488568 286.211385 
L 194.504425 286.728478 
L 205.897959 280.038699 
L 215.794923 265.32113 
L 223.842764 243.592039 
L 230.665405 217.093601 
L 236.939375 188.174627 
L 242.972509 158.460206 
L 248.340926 130.034056 
L 251.952584 105.753858 
L 252.82695 89.563437 
L 251.022301 78.160193 
L 245.815335 71.968025 
L 236.347422 72.033278 
L 224.466683 78.063723 
L 208.860669 90.846018 
L 191.844548 109.981646 
L 176.371039 134.556463 
L 165.941877 163.785932 
L 164.005457 191.482636 
L 169.631662 218.135432 
L 182.036912 243.326361 
L 199.21629 264.846022 
L 215.798598 278.105507 
L 228.234121 282.091925 
L 235.84233 278.143433 
L 239.611681 267.721292 
L 240.465966 254.394359 
L 239.723842 237.54375 
L 238.021597 218.622784 
L 230.889399 150.080912 
L 228.038439 122.537823 
L 225.002368 100.030613 
L 220.994538 82.349191 
L 215.158162 69.668963 
L 206.753333 62.847978 
L 195.802935 62.80048 
L 184.719111 68.464093 
L 172.362583 80.641153 
L 162.002544 99.023208 
L 157.140667 123.488928 
L 162.044233 153.776632 
L 176.539725 183.278745 
L 200.090532 213.708697 
L 223.47943 236.641427 
L 242.081119 251.407274 
L 258.602041 261.486453 
L 272.953821 265.898235 
L 281.854661 262.130716 
L 284.875011 250.716663 
L 283.04615 233.146875 
L 277.669031 211.683025 
L 268.246494 183.720387 
L 255.651927 153.212488 
L 241.533198 125.453705 
L 226.23782 102.380986 
L 210.087073 85.223999 
L 190.001786 72.612227 
L 169.581455 68.039997 
L 152.666411 70.536129 
L 140.579704 78.3988 
L 135.662426 93.055431 
L 142.339741 111.174944 
L 158.582042 131.046562 
L 185.770843 155.465821 
L 222.002386 183.259563 
L 252.10754 204.433356 
L 279.28737 222.05977 
L 305.373799 236.459063 
L 324.406748 242.642783 
L 334.114286 239.724029 
L 336.492267 230.155849 
L 332.813195 214.047381 
L 322.766019 192.30234 
L 308.199365 169.680988 
L 289.504866 147.598257 
L 264.399384 125.878678 
L 230.46017 106.754314 
L 191.891942 95.299785 
L 158.686615 92.368969 
L 134.983469 94.68054 
L 120.389101 101.006879 
L 118.74316 107.851234 
L 125.746501 116.138993 
L 143.040687 127.019625 
L 172.146345 141.297144 
L 249.121872 176.296102 
L 285.902868 193.335493 
L 318.223321 207.948323 
L 344.793888 218.263229 
L 361.181958 221.821622 
L 370.942684 219.683644 
L 373.994558 212.689694 
L 370.740601 200.058566 
L 360.024803 183.034567 
L 346.019951 168.046451 
L 328.158459 154.00475 
L 301.068997 139.163726 
L 262.551693 126.607821 
L 222.751462 120.578749 
L 187.668383 119.487978 
L 155.776871 121.553026 
L 128.77645 126.378417 
L 112.839024 133.673768 
L 112.036176 140.113963 
L 120.65997 146.942848 
L 141.435818 155.62897 
L 175.34563 166.12066 
L 219.010122 177.850598 
L 263.959821 189.007764 
L 302.578937 197.622461 
L 337.895349 203.638915 
L 361.330854 205.273998 
L 378.991035 203.445574 
L 390.498517 198.307763 
L 396.47651 189.267283 
L 395.001254 177.396304 
L 388.029847 167.319866 
L 376.43947 158.311222 
L 356.450767 149.656715 
L 326.077285 143.721208 
L 294.250752 142.260694 
L 258.723881 143.903907 
L 221.185563 148.073812 
L 182.914652 154.346255 
L 146.986238 162.426151 
L 120.461445 171.576068 
L 110.096444 179.886919 
L 112.808495 187.191275 
L 125.922039 194.024039 
L 152.360689 201.371408 
L 190.82955 207.94404 
L 235.198426 212.010197 
L 271.607508 212.397591 
L 304.934552 209.508854 
L 336.728082 202.240287 
L 363.46631 190.149104 
L 379.885021 177.147455 
L 388.512112 165.440932 
L 391.694245 155.0866 
L 388.97269 145.860835 
L 378.360606 140.385989 
L 364.422961 139.773924 
L 345.84647 142.33332 
L 319.777488 148.487326 
L 285.028517 158.462307 
L 244.153489 170.969853 
L 202.622487 183.871544 
L 165.434097 195.81787 
L 133.438725 207.616212 
L 115.479061 217.831696 
L 112.939709 224.50824 
L 120.036564 230.168516 
L 137.271258 234.843953 
L 164.847179 237.661657 
L 199.332256 237.105157 
L 238.120936 231.467424 
L 274.217302 220.23835 
L 308.926391 201.592128 
L 334.487579 180.239325 
L 349.917858 161.941806 
L 359.496128 145.873083 
L 363.854146 131.424542 
L 360.550379 122.675323 
L 351.658344 121.16265 
L 337.382672 124.779399 
L 316.515289 133.708835 
L 287.30981 148.508477 
L 214.802749 187.179232 
L 182.261333 204.651502 
L 150.325555 222.996406 
L 129.094382 238.760621 
L 122.509756 249.181898 
L 125.80068 257.337501 
L 136.617057 262.514893 
L 155.775349 265.120263 
L 180.819099 263.290549 
L 211.249356 254.597851 
L 241.921864 237.557885 
L 269.008439 213.421453 
L 292.300669 183.301166 
L 306.994004 157.624917 
L 316.598823 134.999314 
L 321.285781 114.809719 
L 318.781981 102.500094 
L 309.616262 99.022195 
L 294.760891 103.063225 
L 274.636543 113.68103 
L 247.693226 131.700962 
L 220.888029 152.212178 
L 195.916675 173.588307 
L 171.051048 198.451785 
L 151.49922 224.938082 
L 143.632867 245.741263 
L 143.901804 260.350381 
L 149.029885 271.576392 
L 160.154216 281.186191 
L 176.232985 285.336663 
L 194.375402 280.654174 
L 210.338915 266.960774 
L 224.49719 244.825383 
L 237.160134 215.847949 
L 248.069697 184.540401 
L 258.220136 150.61957 
L 265.292544 122.08712 
L 268.803228 98.962885 
L 268.010118 85.618773 
L 263.474813 78.426231 
L 253.834263 77.466857 
L 240.772349 83.175963 
L 223.061117 96.09232 
L 204.807882 113.634756 
L 186.010233 136.924513 
L 170.329866 164.815814 
L 161.867681 195.9837 
L 162.549049 220.648787 
L 168.918496 241.968721 
L 181.458044 263.073184 
L 197.085443 278.614659 
L 211.156163 285.22527 
L 221.041919 282.77741 
L 226.879173 273.107033 
L 229.905671 256.819066 
L 230.851942 239.884727 
L 231.066346 223.092852 
L 231.153401 169.099924 
L 231.846038 112.150582 
L 231.46499 97.421642 
L 230.100693 83.727442 
L 227.060944 72.698918 
L 221.476328 65.673272 
L 212.536143 64.282118 
L 201.394894 69.162341 
L 188.173122 80.573553 
L 175.018857 98.372632 
L 165.014985 122.041239 
L 161.957033 151.271988 
L 168.777606 182.258233 
L 184.151418 211.803532 
L 206.240137 239.494009 
L 225.554168 257.45776 
L 240.192643 267.631633 
L 252.241026 272.589359 
L 261.471107 271.272636 
L 265.983314 262.967614 
L 266.484422 250.425066 
L 264.282179 233.695197 
L 259.328915 210.9412 
L 251.76138 182.619314 
L 242.406547 151.811041 
L 233.202682 125.467103 
L 223.327594 102.518886 
L 211.94773 83.475892 
L 198.308555 69.842882 
L 183.004736 63.624596 
L 168.134213 64.839592 
L 156.066436 71.503436 
L 146.577963 84.669611 
L 144.72435 104.596157 
L 153.300821 127.454008 
L 171.920485 153.040567 
L 201.093856 182.316576 
L 230.39937 206.932719 
L 259.638758 228.362136 
L 283.434797 242.891935 
L 303.292482 250.716134 
L 313.744722 249.837274 
L 318.461404 242.638744 
L 317.817817 227.808333 
L 312.208799 209.077147 
L 300.476248 183.409075 
L 283.736804 156.046588 
L 264.79626 132.488661 
L 238.301812 108.999468 
L 207.732433 92.238865 
L 175.285123 83.714709 
L 151.711957 82.886544 
L 133.764533 86.453648 
L 123.501133 94.984664 
L 125.418013 104.283461 
L 135.716683 115.043496 
L 156.982499 129.690438 
L 189.41066 148.415865 
L 265.099206 189.846916 
L 297.092126 207.041229 
L 325.669091 221.06492 
L 346.742874 228.359995 
L 356.924876 228.326741 
L 361.601964 223.74957 
L 361.208639 212.994778 
L 354.418281 197.357379 
L 339.976751 176.938888 
L 320.32863 157.307856 
L 296.475498 140.231516 
L 262.035635 124.021112 
L 216.966158 112.896401 
L 181.073204 109.902016 
L 149.271548 111.097873 
L 125.99459 115.266877 
L 113.48862 122.354984 
L 115.335329 129.201795 
L 126.680183 136.681419 
L 150.439335 146.567451 
L 186.366374 158.826471 
L 230.400871 172.96677 
L 274.567466 187.015145 
L 311.42307 198.317974 
L 343.422741 206.70659 
L 365.325071 210.070912 
L 379.143725 209.272941 
L 387.413503 205.057288 
L 390.728354 196.397257 
L 386.900805 183.789456 
L 377.995941 172.09097 
L 364.080736 160.678147 
L 343.32034 149.819539 
L 312.017487 140.601584 
L 269.720208 135.741493 
L 235.440006 135.731365 
L 202.708189 138.048385 
L 166.911092 142.906035 
L 134.747768 150.032828 
L 114.123552 158.64392 
L 109.865075 166.070169 
L 117.434587 173.634633 
L 136.819678 181.497094 
L 169.92762 190.064236 
L 213.184713 198.104649 
L 253.198125 203.337453 
L 291.372781 205.949036 
L 322.803874 205.410567 
L 348.523746 201.919148 
L 371.552571 194.48846 
L 388.310308 183.282224 
L 395.544762 173.158894 
L 397.334064 163.211326 
L 393.503624 154.408363 
L 382.268597 147.40314 
L 362.328984 144.302344 
L 340.018421 145.267507 
L 313.661565 148.950411 
L 278.205629 155.931457 
L 236.115345 165.626751 
L 193.350584 176.394063 
L 156.393041 186.745822 
L 126.552624 197.294055 
L 112.027861 206.791461 
L 112.481161 213.310705 
L 121.856727 218.742559 
L 142.975733 224.040249 
L 175.073513 227.655703 
L 214.239932 227.966573 
L 251.273054 224.124285 
L 285.862398 215.807964 
L 321.29488 200.295199 
L 347.285373 181.650451 
L 362.060386 166.047958 
L 371.007505 152.420141 
L 375.383237 139.306815 
L 372.463723 130.468503 
L 363.416769 128.132073 
L 348.469554 130.853468 
L 327.933449 138.121337 
L 298.788618 150.619109 
L 262.621383 166.958009 
L 223.832242 184.312396 
L 188.806868 199.727088 
L 153.830922 215.617745 
L 128.507942 229.499597 
L 118.51411 239.276786 
L 119.230352 246.003573 
L 127.358053 250.95368 
L 144.845869 254.571184 
L 170.192736 255.060677 
L 199.117744 251.235034 
L 234.007519 240.26716 
L 265.987883 222.461039 
L 296.488319 195.7561 
L 315.686773 171.753118 
L 329.626442 148.118156 
L 337.288932 128.345406 
L 338.118629 113.738121 
L 331.846889 107.77625 
L 320.369077 108.801879 
L 304.371745 115.279972 
L 280.284099 128.757149 
L 249.518086 148.623975 
L 216.350982 171.805372 
L 187.946629 193.166113 
L 160.54914 216.55562 
L 141.091662 238.994703 
L 134.717601 254.514417 
L 136.317984 265.684795 
L 143.599876 273.847053 
L 157.68026 279.342461 
L 177.32969 279.15292 
L 200.352159 270.198271 
L 222.362671 251.690958 
L 242.516684 224.161063 
L 260.350412 189.982978 
L 272.401512 160.815131 
L 281.302784 134.179929 
L 286.847369 109.470311 
L 287.131643 95.062318 
L 283.325692 86.708322 
L 273.821329 84.367896 
L 259.717562 89.286877 
L 240.640721 101.333564 
L 218.003357 120.057721 
L 196.982508 141.39116 
L 176.704039 167.613315 
L 161.739891 196.894359 
L 156.37755 223.113639 
L 159.295275 246.683275 
L 167.616945 264.563105 
L 180.999058 279.460345 
L 195.865997 286.874187 
L 206.867206 285.548005 
L 215.319802 277.138007 
L 221.619933 261.281294 
L 225.948137 239.949267 
L 229.251596 215.514736 
L 240.685766 117.751266 
L 242.036704 99.352132 
L 241.796 84.762849 
L 239.679255 74.933406 
L 234.980825 68.858839 
L 227.698745 67.702371 
L 216.73 72.156147 
L 202.55981 83.323436 
L 187.139001 101.091366 
L 173.466837 124.556102 
L 164.97273 153.127677 
L 164.749116 180.429663 
L 171.433635 206.097986 
L 185.90198 233.456934 
L 205.294384 257.161626 
L 221.744826 271.200563 
L 234.272797 277.722641 
L 243.572935 277.814659 
L 248.716919 272.034812 
L 250.815532 258.819691 
L 249.75857 241.308145 
L 246.958046 221.443657 
L 242.571424 196.282551 
L 237.332982 168.224072 
L 231.69755 139.31083 
L 225.902912 113.020596 
L 219.616496 91.51388 
L 211.919598 75.097333 
L 202.094558 64.816713 
L 190.159149 61.625436 
L 177.728722 65.201452 
L 165.819555 74.643689 
L 155.985127 90.446221 
L 152.05663 112.57818 
L 158.395421 140.737522 
L 174.705814 169.268833 
L 200.934145 199.991101 
L 200.934145 199.991101 
" clip-path="url(#p76f00deb46)" style="fill: none; stroke: #1f77b4; stroke-width: 0.5; stroke-linecap: square"/>
   </g>
   <g id="patch_3">
    <path d="M 57.6 307.584 
L 57.6 41.472 
" style="fill: none; stroke: #000000; stroke-width: 0.8; stroke-linejoin: miter; stroke-linecap: square"/>
   </g>
   <g id="patch_4">
    <path d="M 414.72 307.584 
L 414.72 41.472 
" style="fill: none; stroke: #000000; stroke-width: 0.8; stroke-linejoin: miter; stroke-linecap: square"/>
   </g>
   <g id="patch_5">
    <path d="M 57.6 307.584 
L 414.72 307.584 
" style="fill: none; stroke: #000000; stroke-width: 0.8; stroke-linejoin: miter; stroke-linecap: square"/>
   </g>
   <g id="patch_6">
    <path d="M 57.6 41.472 
L 414.72 41.472 
" style="fill: none; stroke: #000000; stroke-width: 0.8; stroke-linejoin: miter; stroke-linecap: square"/>
   </g>
   <g id="text_13">
    <!-- Real Space Projection onto r-z plane with initial r = 0.09 -->
    <g transform="translate(68.580938 35.472) scale(0.12 -0.12)">
     <defs>
      <path id="DejaVuSans-52" d="M 2841 2188 
Q 3044 2119 3236 1894 
Q 3428 1669 3622 1275 
L 4263 0 
L 3584 0 
L 2988 1197 
Q 2756 1666 2539 1819 
Q 2322 1972 1947 1972 
L 1259 1972 
L 1259 0 
L 628 0 
L 628 4666 
L 2053 4666 
Q 2853 4666 3247 4331 
Q 3641 3997 3641 3322 
Q 3641 2881 3436 2590 
Q 3231 2300 2841 2188 
z
M 1259 4147 
L 1259 2491 
L 2053 2491 
Q 2509 2491 2742 2702 
Q 2975 2913 2975 3322 
Q 2975 3731 2742 3939 
Q 2509 4147 2053 4147 
L 1259 4147 
z
" transform="scale(0.015625)"/>
      <path id="DejaVuSans-65" d="M 3597 1894 
L 3597 1613 
L 953 1613 
Q 991 1019 1311 708 
Q 1631 397 2203 397 
Q 2534 397 2845 478 
Q 3156 559 3463 722 
L 3463 178 
Q 3153 47 2828 -22 
Q 2503 -91 2169 -91 
Q 1331 -91 842 396 
Q 353 884 353 1716 
Q 353 2575 817 3079 
Q 1281 3584 2069 3584 
Q 2775 3584 3186 3129 
Q 3597 2675 3597 1894 
z
M 3022 2063 
Q 3016 2534 2758 2815 
Q 2500 3097 2075 3097 
Q 1594 3097 1305 2825 
Q 1016 2553 972 2059 
L 3022 2063 
z
" transform="scale(0.015625)"/>
      <path id="DejaVuSans-61" d="M 2194 1759 
Q 1497 1759 1228 1600 
Q 959 1441 959 1056 
Q 959 750 1161 570 
Q 1363 391 1709 391 
Q 2188 391 2477 730 
Q 2766 1069 2766 1631 
L 2766 1759 
L 2194 1759 
z
M 3341 1997 
L 3341 0 
L 2766 0 
L 2766 531 
Q 2569 213 2275 61 
Q 1981 -91 1556 -91 
Q 1019 -91 701 211 
Q 384 513 384 1019 
Q 384 1609 779 1909 
Q 1175 2209 1959 2209 
L 2766 2209 
L 2766 2266 
Q 2766 2663 2505 2880 
Q 2244 3097 1772 3097 
Q 1472 3097 1187 3025 
Q 903 2953 641 2809 
L 641 3341 
Q 956 3463 1253 3523 
Q 1550 3584 1831 3584 
Q 2591 3584 2966 3190 
Q 3341 2797 3341 1997 
z
" transform="scale(0.015625)"/>
      <path id="DejaVuSans-6c" d="M 603 4863 
L 1178 4863 
L 1178 0 
L 603 0 
L 603 4863 
z
" transform="scale(0.015625)"/>
      <path id="DejaVuSans-20" transform="scale(0.015625)"/>
      <path id="DejaVuSans-53" d="M 3425 4513 
L 3425 3897 
Q 3066 4069 2747 4153 
Q 2428 4238 2131 4238 
Q 1616 4238 1336 4038 
Q 1056 3838 1056 3469 
Q 1056 3159 1242 3001 
Q 1428 2844 1947 2747 
L 2328 2669 
Q 3034 2534 3370 2195 
Q 3706 1856 3706 1288 
Q 3706 609 3251 259 
Q 2797 -91 1919 -91 
Q 1588 -91 1214 -16 
Q 841 59 441 206 
L 441 856 
Q 825 641 1194 531 
Q 1563 422 1919 422 
Q 2459 422 2753 634 
Q 3047 847 3047 1241 
Q 3047 1584 2836 1778 
Q 2625 1972 2144 2069 
L 1759 2144 
Q 1053 2284 737 2584 
Q 422 2884 422 3419 
Q 422 4038 858 4394 
Q 1294 4750 2059 4750 
Q 2388 4750 2728 4690 
Q 3069 4631 3425 4513 
z
" transform="scale(0.015625)"/>
      <path id="DejaVuSans-70" d="M 1159 525 
L 1159 -1331 
L 581 -1331 
L 581 3500 
L 1159 3500 
L 1159 2969 
Q 1341 3281 1617 3432 
Q 1894 3584 2278 3584 
Q 2916 3584 3314 3078 
Q 3713 2572 3713 1747 
Q 3713 922 3314 415 
Q 2916 -91 2278 -91 
Q 1894 -91 1617 61 
Q 1341 213 1159 525 
z
M 3116 1747 
Q 3116 2381 2855 2742 
Q 2594 3103 2138 3103 
Q 1681 3103 1420 2742 
Q 1159 2381 1159 1747 
Q 1159 1113 1420 752 
Q 1681 391 2138 391 
Q 2594 391 2855 752 
Q 3116 1113 3116 1747 
z
" transform="scale(0.015625)"/>
      <path id="DejaVuSans-63" d="M 3122 3366 
L 3122 2828 
Q 2878 2963 2633 3030 
Q 2388 3097 2138 3097 
Q 1578 3097 1268 2742 
Q 959 2388 959 1747 
Q 959 1106 1268 751 
Q 1578 397 2138 397 
Q 2388 397 2633 464 
Q 2878 531 3122 666 
L 3122 134 
Q 2881 22 2623 -34 
Q 2366 -91 2075 -91 
Q 1284 -91 818 406 
Q 353 903 353 1747 
Q 353 2603 823 3093 
Q 1294 3584 2113 3584 
Q 2378 3584 2631 3529 
Q 2884 3475 3122 3366 
z
" transform="scale(0.015625)"/>
      <path id="DejaVuSans-50" d="M 1259 4147 
L 1259 2394 
L 2053 2394 
Q 2494 2394 2734 2622 
Q 2975 2850 2975 3272 
Q 2975 3691 2734 3919 
Q 2494 4147 2053 4147 
L 1259 4147 
z
M 628 4666 
L 2053 4666 
Q 2838 4666 3239 4311 
Q 3641 3956 3641 3272 
Q 3641 2581 3239 2228 
Q 2838 1875 2053 1875 
L 1259 1875 
L 1259 0 
L 628 0 
L 628 4666 
z
" transform="scale(0.015625)"/>
      <path id="DejaVuSans-6f" d="M 1959 3097 
Q 1497 3097 1228 2736 
Q 959 2375 959 1747 
Q 959 1119 1226 758 
Q 1494 397 1959 397 
Q 2419 397 2687 759 
Q 2956 1122 2956 1747 
Q 2956 2369 2687 2733 
Q 2419 3097 1959 3097 
z
M 1959 3584 
Q 2709 3584 3137 3096 
Q 3566 2609 3566 1747 
Q 3566 888 3137 398 
Q 2709 -91 1959 -91 
Q 1206 -91 779 398 
Q 353 888 353 1747 
Q 353 2609 779 3096 
Q 1206 3584 1959 3584 
z
" transform="scale(0.015625)"/>
      <path id="DejaVuSans-6a" d="M 603 3500 
L 1178 3500 
L 1178 -63 
Q 1178 -731 923 -1031 
Q 669 -1331 103 -1331 
L -116 -1331 
L -116 -844 
L 38 -844 
Q 366 -844 484 -692 
Q 603 -541 603 -63 
L 603 3500 
z
M 603 4863 
L 1178 4863 
L 1178 4134 
L 603 4134 
L 603 4863 
z
" transform="scale(0.015625)"/>
      <path id="DejaVuSans-74" d="M 1172 4494 
L 1172 3500 
L 2356 3500 
L 2356 3053 
L 1172 3053 
L 1172 1153 
Q 1172 725 1289 603 
Q 1406 481 1766 481 
L 2356 481 
L 2356 0 
L 1766 0 
Q 1100 0 847 248 
Q 594 497 594 1153 
L 594 3053 
L 172 3053 
L 172 3500 
L 594 3500 
L 594 4494 
L 1172 4494 
z
" transform="scale(0.015625)"/>
      <path id="DejaVuSans-69" d="M 603 3500 
L 1178 3500 
L 1178 0 
L 603 0 
L 603 3500 
z
M 603 4863 
L 1178 4863 
L 1178 4134 
L 603 4134 
L 603 4863 
z
" transform="scale(0.015625)"/>
      <path id="DejaVuSans-6e" d="M 3513 2113 
L 3513 0 
L 2938 0 
L 2938 2094 
Q 2938 2591 2744 2837 
Q 2550 3084 2163 3084 
Q 1697 3084 1428 2787 
Q 1159 2491 1159 1978 
L 1159 0 
L 581 0 
L 581 3500 
L 1159 3500 
L 1159 2956 
Q 1366 3272 1645 3428 
Q 1925 3584 2291 3584 
Q 2894 3584 3203 3211 
Q 3513 2838 3513 2113 
z
" transform="scale(0.015625)"/>
      <path id="DejaVuSans-2d" d="M 313 2009 
L 1997 2009 
L 1997 1497 
L 313 1497 
L 313 2009 
z
" transform="scale(0.015625)"/>
      <path id="DejaVuSans-77" d="M 269 3500 
L 844 3500 
L 1563 769 
L 2278 3500 
L 2956 3500 
L 3675 769 
L 4391 3500 
L 4966 3500 
L 4050 0 
L 3372 0 
L 2619 2869 
L 1863 0 
L 1184 0 
L 269 3500 
z
" transform="scale(0.015625)"/>
      <path id="DejaVuSans-68" d="M 3513 2113 
L 3513 0 
L 2938 0 
L 2938 2094 
Q 2938 2591 2744 2837 
Q 2550 3084 2163 3084 
Q 1697 3084 1428 2787 
Q 1159 2491 1159 1978 
L 1159 0 
L 581 0 
L 581 4863 
L 1159 4863 
L 1159 2956 
Q 1366 3272 1645 3428 
Q 1925 3584 2291 3584 
Q 2894 3584 3203 3211 
Q 3513 2838 3513 2113 
z
" transform="scale(0.015625)"/>
      <path id="DejaVuSans-3d" d="M 678 2906 
L 4684 2906 
L 4684 2381 
L 678 2381 
L 678 2906 
z
M 678 1631 
L 4684 1631 
L 4684 1100 
L 678 1100 
L 678 1631 
z
" transform="scale(0.015625)"/>
      <path id="DejaVuSans-39" d="M 703 97 
L 703 672 
Q 941 559 1184 500 
Q 1428 441 1663 441 
Q 2288 441 2617 861 
Q 2947 1281 2994 2138 
Q 2813 1869 2534 1725 
Q 2256 1581 1919 1581 
Q 1219 1581 811 2004 
Q 403 2428 403 3163 
Q 403 3881 828 4315 
Q 1253 4750 1959 4750 
Q 2769 4750 3195 4129 
Q 3622 3509 3622 2328 
Q 3622 1225 3098 567 
Q 2575 -91 1691 -91 
Q 1453 -91 1209 -44 
Q 966 3 703 97 
z
M 1959 2075 
Q 2384 2075 2632 2365 
Q 2881 2656 2881 3163 
Q 2881 3666 2632 3958 
Q 2384 4250 1959 4250 
Q 1534 4250 1286 3958 
Q 1038 3666 1038 3163 
Q 1038 2656 1286 2365 
Q 1534 2075 1959 2075 
z
" transform="scale(0.015625)"/>
     </defs>
     <use xlink:href="#DejaVuSans-52"/>
     <use xlink:href="#DejaVuSans-65" x="64.982422"/>
     <use xlink:href="#DejaVuSans-61" x="126.505859"/>
     <use xlink:href="#DejaVuSans-6c" x="187.785156"/>
     <use xlink:href="#DejaVuSans-20" x="215.568359"/>
     <use xlink:href="#DejaVuSans-53" x="247.355469"/>
     <use xlink:href="#DejaVuSans-70" x="310.832031"/>
     <use xlink:href="#DejaVuSans-61" x="374.308594"/>
     <use xlink:href="#DejaVuSans-63" x="435.587891"/>
     <use xlink:href="#DejaVuSans-65" x="490.568359"/>
     <use xlink:href="#DejaVuSans-20" x="552.091797"/>
     <use xlink:href="#DejaVuSans-50" x="583.878906"/>
     <use xlink:href="#DejaVuSans-72" x="642.431641"/>
     <use xlink:href="#DejaVuSans-6f" x="681.294922"/>
     <use xlink:href="#DejaVuSans-6a" x="742.476562"/>
     <use xlink:href="#DejaVuSans-65" x="770.259766"/>
     <use xlink:href="#DejaVuSans-63" x="831.783203"/>
     <use xlink:href="#DejaVuSans-74" x="886.763672"/>
     <use xlink:href="#DejaVuSans-69" x="925.972656"/>
     <use xlink:href="#DejaVuSans-6f" x="953.755859"/>
     <use xlink:href="#DejaVuSans-6e" x="1014.9375"/>
     <use xlink:href="#DejaVuSans-20" x="1078.316406"/>
     <use xlink:href="#DejaVuSans-6f" x="1110.103516"/>
     <use xlink:href="#DejaVuSans-6e" x="1171.285156"/>
     <use xlink:href="#DejaVuSans-74" x="1234.664062"/>
     <use xlink:href="#DejaVuSans-6f" x="1273.873047"/>
     <use xlink:href="#DejaVuSans-20" x="1335.054688"/>
     <use xlink:href="#DejaVuSans-72" x="1366.841797"/>
     <use xlink:href="#DejaVuSans-2d" x="1401.580078"/>
     <use xlink:href="#DejaVuSans-7a" x="1437.664062"/>
     <use xlink:href="#DejaVuSans-20" x="1490.154297"/>
     <use xlink:href="#DejaVuSans-70" x="1521.941406"/>
     <use xlink:href="#DejaVuSans-6c" x="1585.417969"/>
     <use xlink:href="#DejaVuSans-61" x="1613.201172"/>
     <use xlink:href="#DejaVuSans-6e" x="1674.480469"/>
     <use xlink:href="#DejaVuSans-65" x="1737.859375"/>
     <use xlink:href="#DejaVuSans-20" x="1799.382812"/>
     <use xlink:href="#DejaVuSans-77" x="1831.169922"/>
     <use xlink:href="#DejaVuSans-69" x="1912.957031"/>
     <use xlink:href="#DejaVuSans-74" x="1940.740234"/>
     <use xlink:href="#DejaVuSans-68" x="1979.949219"/>
     <use xlink:href="#DejaVuSans-20" x="2043.328125"/>
     <use xlink:href="#DejaVuSans-69" x="2075.115234"/>
     <use xlink:href="#DejaVuSans-6e" x="2102.898438"/>
     <use xlink:href="#DejaVuSans-69" x="2166.277344"/>
     <use xlink:href="#DejaVuSans-74" x="2194.060547"/>
     <use xlink:href="#DejaVuSans-69" x="2233.269531"/>
     <use xlink:href="#DejaVuSans-61" x="2261.052734"/>
     <use xlink:href="#DejaVuSans-6c" x="2322.332031"/>
     <use xlink:href="#DejaVuSans-20" x="2350.115234"/>
     <use xlink:href="#DejaVuSans-72" x="2381.902344"/>
     <use xlink:href="#DejaVuSans-20" x="2423.015625"/>
     <use xlink:href="#DejaVuSans-3d" x="2454.802734"/>
     <use xlink:href="#DejaVuSans-20" x="2538.591797"/>
     <use xlink:href="#DejaVuSans-30" x="2570.378906"/>
     <use xlink:href="#DejaVuSans-2e" x="2634.001953"/>
     <use xlink:href="#DejaVuSans-30" x="2665.789062"/>
     <use xlink:href="#DejaVuSans-39" x="2729.412109"/>
    </g>
   </g>
  </g>
 </g>
 <defs>
  <clipPath id="p76f00deb46">
   <rect x="57.6" y="41.472" width="357.12" height="266.112"/>
  </clipPath>
 </defs>
</svg>
