<?xml version="1.0" encoding="utf-8" standalone="no"?>
<!DOCTYPE svg PUBLIC "-//W3C//DTD SVG 1.1//EN"
  "http://www.w3.org/Graphics/SVG/1.1/DTD/svg11.dtd">
<svg xmlns:xlink="http://www.w3.org/1999/xlink" width="460.8pt" height="345.6pt" viewBox="0 0 460.8 345.6" xmlns="http://www.w3.org/2000/svg" version="1.1">
 <metadata>
  <rdf:RDF xmlns:dc="http://purl.org/dc/elements/1.1/" xmlns:cc="http://creativecommons.org/ns#" xmlns:rdf="http://www.w3.org/1999/02/22-rdf-syntax-ns#">
   <cc:Work>
    <dc:type rdf:resource="http://purl.org/dc/dcmitype/StillImage"/>
    <dc:date>2023-10-23T21:33:12.708627</dc:date>
    <dc:format>image/svg+xml</dc:format>
    <dc:creator>
     <cc:Agent>
      <dc:title>Matplotlib v3.8.0, https://matplotlib.org/</dc:title>
     </cc:Agent>
    </dc:creator>
   </cc:Work>
  </rdf:RDF>
 </metadata>
 <defs>
  <style type="text/css">*{stroke-linejoin: round; stroke-linecap: butt}</style>
 </defs>
 <g id="figure_1">
  <g id="patch_1">
   <path d="M 0 345.6 
L 460.8 345.6 
L 460.8 0 
L 0 0 
z
" style="fill: #ffffff"/>
  </g>
  <g id="axes_1">
   <g id="patch_2">
    <path d="M 57.6 307.584 
L 414.72 307.584 
L 414.72 41.472 
L 57.6 41.472 
z
" style="fill: #ffffff"/>
   </g>
   <g id="matplotlib.axis_1">
    <g id="xtick_1">
     <g id="line2d_1">
      <defs>
       <path id="mc1e032ace3" d="M 0 0 
L 0 3.5 
" style="stroke: #000000; stroke-width: 0.8"/>
      </defs>
      <g>
       <use xlink:href="#mc1e032ace3" x="93.312" y="307.584" style="stroke: #000000; stroke-width: 0.8"/>
      </g>
     </g>
     <g id="text_1">
      <!-- −0.4 -->
      <g transform="translate(81.170594 322.182437) scale(0.1 -0.1)">
       <defs>
        <path id="DejaVuSans-2212" d="M 678 2272 
L 4684 2272 
L 4684 1741 
L 678 1741 
L 678 2272 
z
" transform="scale(0.015625)"/>
        <path id="DejaVuSans-30" d="M 2034 4250 
Q 1547 4250 1301 3770 
Q 1056 3291 1056 2328 
Q 1056 1369 1301 889 
Q 1547 409 2034 409 
Q 2525 409 2770 889 
Q 3016 1369 3016 2328 
Q 3016 3291 2770 3770 
Q 2525 4250 2034 4250 
z
M 2034 4750 
Q 2819 4750 3233 4129 
Q 3647 3509 3647 2328 
Q 3647 1150 3233 529 
Q 2819 -91 2034 -91 
Q 1250 -91 836 529 
Q 422 1150 422 2328 
Q 422 3509 836 4129 
Q 1250 4750 2034 4750 
z
" transform="scale(0.015625)"/>
        <path id="DejaVuSans-2e" d="M 684 794 
L 1344 794 
L 1344 0 
L 684 0 
L 684 794 
z
" transform="scale(0.015625)"/>
        <path id="DejaVuSans-34" d="M 2419 4116 
L 825 1625 
L 2419 1625 
L 2419 4116 
z
M 2253 4666 
L 3047 4666 
L 3047 1625 
L 3713 1625 
L 3713 1100 
L 3047 1100 
L 3047 0 
L 2419 0 
L 2419 1100 
L 313 1100 
L 313 1709 
L 2253 4666 
z
" transform="scale(0.015625)"/>
       </defs>
       <use xlink:href="#DejaVuSans-2212"/>
       <use xlink:href="#DejaVuSans-30" x="83.789062"/>
       <use xlink:href="#DejaVuSans-2e" x="147.412109"/>
       <use xlink:href="#DejaVuSans-34" x="179.199219"/>
      </g>
     </g>
    </g>
    <g id="xtick_2">
     <g id="line2d_2">
      <g>
       <use xlink:href="#mc1e032ace3" x="164.736" y="307.584" style="stroke: #000000; stroke-width: 0.8"/>
      </g>
     </g>
     <g id="text_2">
      <!-- −0.2 -->
      <g transform="translate(152.594594 322.182437) scale(0.1 -0.1)">
       <defs>
        <path id="DejaVuSans-32" d="M 1228 531 
L 3431 531 
L 3431 0 
L 469 0 
L 469 531 
Q 828 903 1448 1529 
Q 2069 2156 2228 2338 
Q 2531 2678 2651 2914 
Q 2772 3150 2772 3378 
Q 2772 3750 2511 3984 
Q 2250 4219 1831 4219 
Q 1534 4219 1204 4116 
Q 875 4013 500 3803 
L 500 4441 
Q 881 4594 1212 4672 
Q 1544 4750 1819 4750 
Q 2544 4750 2975 4387 
Q 3406 4025 3406 3419 
Q 3406 3131 3298 2873 
Q 3191 2616 2906 2266 
Q 2828 2175 2409 1742 
Q 1991 1309 1228 531 
z
" transform="scale(0.015625)"/>
       </defs>
       <use xlink:href="#DejaVuSans-2212"/>
       <use xlink:href="#DejaVuSans-30" x="83.789062"/>
       <use xlink:href="#DejaVuSans-2e" x="147.412109"/>
       <use xlink:href="#DejaVuSans-32" x="179.199219"/>
      </g>
     </g>
    </g>
    <g id="xtick_3">
     <g id="line2d_3">
      <g>
       <use xlink:href="#mc1e032ace3" x="236.16" y="307.584" style="stroke: #000000; stroke-width: 0.8"/>
      </g>
     </g>
     <g id="text_3">
      <!-- 0.0 -->
      <g transform="translate(228.208438 322.182437) scale(0.1 -0.1)">
       <use xlink:href="#DejaVuSans-30"/>
       <use xlink:href="#DejaVuSans-2e" x="63.623047"/>
       <use xlink:href="#DejaVuSans-30" x="95.410156"/>
      </g>
     </g>
    </g>
    <g id="xtick_4">
     <g id="line2d_4">
      <g>
       <use xlink:href="#mc1e032ace3" x="307.584" y="307.584" style="stroke: #000000; stroke-width: 0.8"/>
      </g>
     </g>
     <g id="text_4">
      <!-- 0.2 -->
      <g transform="translate(299.632437 322.182437) scale(0.1 -0.1)">
       <use xlink:href="#DejaVuSans-30"/>
       <use xlink:href="#DejaVuSans-2e" x="63.623047"/>
       <use xlink:href="#DejaVuSans-32" x="95.410156"/>
      </g>
     </g>
    </g>
    <g id="xtick_5">
     <g id="line2d_5">
      <g>
       <use xlink:href="#mc1e032ace3" x="379.008" y="307.584" style="stroke: #000000; stroke-width: 0.8"/>
      </g>
     </g>
     <g id="text_5">
      <!-- 0.4 -->
      <g transform="translate(371.056437 322.182437) scale(0.1 -0.1)">
       <use xlink:href="#DejaVuSans-30"/>
       <use xlink:href="#DejaVuSans-2e" x="63.623047"/>
       <use xlink:href="#DejaVuSans-34" x="95.410156"/>
      </g>
     </g>
    </g>
    <g id="text_6">
     <!-- r -->
     <g transform="translate(234.104531 335.860562) scale(0.1 -0.1)">
      <defs>
       <path id="DejaVuSans-72" d="M 2631 2963 
Q 2534 3019 2420 3045 
Q 2306 3072 2169 3072 
Q 1681 3072 1420 2755 
Q 1159 2438 1159 1844 
L 1159 0 
L 581 0 
L 581 3500 
L 1159 3500 
L 1159 2956 
Q 1341 3275 1631 3429 
Q 1922 3584 2338 3584 
Q 2397 3584 2469 3576 
Q 2541 3569 2628 3553 
L 2631 2963 
z
" transform="scale(0.015625)"/>
      </defs>
      <use xlink:href="#DejaVuSans-72"/>
     </g>
    </g>
   </g>
   <g id="matplotlib.axis_2">
    <g id="ytick_1">
     <g id="line2d_6">
      <defs>
       <path id="m382cae7d67" d="M 0 0 
L -3.5 0 
" style="stroke: #000000; stroke-width: 0.8"/>
      </defs>
      <g>
       <use xlink:href="#m382cae7d67" x="57.6" y="280.9728" style="stroke: #000000; stroke-width: 0.8"/>
      </g>
     </g>
     <g id="text_7">
      <!-- −0.4 -->
      <g transform="translate(26.317187 284.772019) scale(0.1 -0.1)">
       <use xlink:href="#DejaVuSans-2212"/>
       <use xlink:href="#DejaVuSans-30" x="83.789062"/>
       <use xlink:href="#DejaVuSans-2e" x="147.412109"/>
       <use xlink:href="#DejaVuSans-34" x="179.199219"/>
      </g>
     </g>
    </g>
    <g id="ytick_2">
     <g id="line2d_7">
      <g>
       <use xlink:href="#m382cae7d67" x="57.6" y="227.7504" style="stroke: #000000; stroke-width: 0.8"/>
      </g>
     </g>
     <g id="text_8">
      <!-- −0.2 -->
      <g transform="translate(26.317187 231.549619) scale(0.1 -0.1)">
       <use xlink:href="#DejaVuSans-2212"/>
       <use xlink:href="#DejaVuSans-30" x="83.789062"/>
       <use xlink:href="#DejaVuSans-2e" x="147.412109"/>
       <use xlink:href="#DejaVuSans-32" x="179.199219"/>
      </g>
     </g>
    </g>
    <g id="ytick_3">
     <g id="line2d_8">
      <g>
       <use xlink:href="#m382cae7d67" x="57.6" y="174.528" style="stroke: #000000; stroke-width: 0.8"/>
      </g>
     </g>
     <g id="text_9">
      <!-- 0.0 -->
      <g transform="translate(34.696875 178.327219) scale(0.1 -0.1)">
       <use xlink:href="#DejaVuSans-30"/>
       <use xlink:href="#DejaVuSans-2e" x="63.623047"/>
       <use xlink:href="#DejaVuSans-30" x="95.410156"/>
      </g>
     </g>
    </g>
    <g id="ytick_4">
     <g id="line2d_9">
      <g>
       <use xlink:href="#m382cae7d67" x="57.6" y="121.3056" style="stroke: #000000; stroke-width: 0.8"/>
      </g>
     </g>
     <g id="text_10">
      <!-- 0.2 -->
      <g transform="translate(34.696875 125.104819) scale(0.1 -0.1)">
       <use xlink:href="#DejaVuSans-30"/>
       <use xlink:href="#DejaVuSans-2e" x="63.623047"/>
       <use xlink:href="#DejaVuSans-32" x="95.410156"/>
      </g>
     </g>
    </g>
    <g id="ytick_5">
     <g id="line2d_10">
      <g>
       <use xlink:href="#m382cae7d67" x="57.6" y="68.0832" style="stroke: #000000; stroke-width: 0.8"/>
      </g>
     </g>
     <g id="text_11">
      <!-- 0.4 -->
      <g transform="translate(34.696875 71.882419) scale(0.1 -0.1)">
       <use xlink:href="#DejaVuSans-30"/>
       <use xlink:href="#DejaVuSans-2e" x="63.623047"/>
       <use xlink:href="#DejaVuSans-34" x="95.410156"/>
      </g>
     </g>
    </g>
    <g id="text_12">
     <!-- z -->
     <g transform="translate(20.2375 177.152219) rotate(-90) scale(0.1 -0.1)">
      <defs>
       <path id="DejaVuSans-7a" d="M 353 3500 
L 3084 3500 
L 3084 2975 
L 922 459 
L 3084 459 
L 3084 0 
L 275 0 
L 275 525 
L 2438 3041 
L 353 3041 
L 353 3500 
z
" transform="scale(0.015625)"/>
      </defs>
      <use xlink:href="#DejaVuSans-7a"/>
     </g>
    </g>
   </g>
   <g id="line2d_11">
    <path d="M 129.024 174.528 
L 128.816439 174.016419 
L 127.383364 169.409884 
L 128.394874 154.050375 
L 137.815879 139.500494 
L 158.28545 123.498673 
L 188.560046 108.931439 
L 222.784753 99.244076 
L 249.428653 96.731923 
L 272.190764 99.683687 
L 293.147445 109.664719 
L 310.182621 128.72687 
L 320.666659 155.364521 
L 323.833223 178.96332 
L 322.421854 202.050072 
L 316.24958 222.373153 
L 303.042103 239.733124 
L 281.667287 249.525438 
L 259.751744 250.597186 
L 234.717351 246.230269 
L 205.594209 236.312045 
L 176.405114 221.804439 
L 150.377006 203.164847 
L 133.593847 181.799057 
L 130.367051 163.878164 
L 137.109283 146.373148 
L 153.711627 129.04833 
L 180.687789 112.148424 
L 213.2965 99.255593 
L 240.374557 93.810813 
L 264.681618 94.501574 
L 283.899595 101.543201 
L 300.420396 117.420837 
L 311.144834 141.934637 
L 315.037664 167.553897 
L 314.331705 190.994319 
L 309.91513 212.253215 
L 299.711852 233.282484 
L 282.095413 248.854004 
L 257.344018 255.482162 
L 232.828614 254.017162 
L 207.116689 247.405192 
L 179.111779 235.438474 
L 153.163656 218.682823 
L 135.208843 198.398311 
L 130.416456 179.683171 
L 136.663633 160.895147 
L 152.953996 142.698415 
L 180.319485 124.013443 
L 214.245908 108.383392 
L 242.518173 100.178245 
L 268.255411 97.642381 
L 289.948767 101.816733 
L 306.692742 113.532209 
L 318.125546 134.050092 
L 322.69668 160.739823 
L 321.61951 182.92775 
L 316.726911 204.072422 
L 306.130573 225.498799 
L 287.905682 242.836609 
L 261.895763 251.882221 
L 238.147169 252.45896 
L 212.497898 248.190771 
L 184.061325 238.911221 
L 156.242887 224.709226 
L 135.227004 206.740629 
L 127.006024 186.544309 
L 133.035036 167.852579 
L 149.436473 150.69377 
L 177.562863 132.636734 
L 213.324279 116.810803 
L 243.945677 107.773983 
L 272.250429 104.010518 
L 297.089408 106.819516 
L 315.461788 116.446243 
L 328.935062 134.432413 
L 335.373449 159.198263 
L 335.212832 180.197447 
L 330.849476 200.099685 
L 320.749506 219.970676 
L 302.613821 236.404414 
L 275.801894 245.109949 
L 251.147424 245.562916 
L 224.485163 241.38797 
L 194.995281 232.682071 
L 164.588765 219.270959 
L 139.419113 202.256153 
L 125.848923 183.032388 
L 126.151722 167.684425 
L 135.127724 153.554077 
L 155.624295 137.335062 
L 187.055543 121.55064 
L 223.640177 109.567918 
L 253.734525 104.463537 
L 279.946374 104.987443 
L 301.180638 111.23975 
L 319.799174 125.521413 
L 332.337793 147.913795 
L 337.036913 171.149585 
L 335.940595 194.741703 
L 329.863659 214.067969 
L 316.598447 231.447127 
L 294.554485 242.269529 
L 270.68985 244.357785 
L 243.0813 240.650413 
L 212.225104 231.71025 
L 181.531331 218.723814 
L 152.803025 201.704858 
L 132.578568 182.099325 
L 126.368097 164.550049 
L 131.782886 147.399857 
L 147.03272 131.788133 
L 173.32017 116.197228 
L 206.865766 103.78298 
L 236.889476 98.056551 
L 264.449321 98.532349 
L 285.989885 105.207203 
L 305.207076 120.428052 
L 318.671511 144.298957 
L 324.543826 169.509587 
L 325.102879 191.721129 
L 321.553216 211.979103 
L 312.061115 231.328267 
L 294.64084 245.200547 
L 269.571714 250.145612 
L 241.844779 246.888092 
L 213.210423 238.15726 
L 184.084617 224.904847 
L 156.476411 207.191814 
L 136.564377 186.438278 
L 129.951081 167.234074 
L 135.001129 148.348164 
L 149.629971 131.401974 
L 174.929918 114.403989 
L 207.053006 100.75508 
L 235.456635 94.21801 
L 258.825888 93.77829 
L 278.62415 99.120405 
L 296.411852 112.759469 
L 308.979814 135.480363 
L 314.867214 163.929007 
L 315.033855 186.644956 
L 311.823154 207.179972 
L 303.375759 228.647051 
L 287.79918 245.830692 
L 264.714947 254.631975 
L 242.484018 254.946748 
L 218.548685 250.286333 
L 191.420684 240.459414 
L 163.861289 225.390454 
L 141.739709 206.273094 
L 130.974381 184.538584 
L 133.304086 166.423239 
L 144.775064 149.259233 
L 167.541335 130.476775 
L 199.378279 113.178297 
L 233.199253 101.266492 
L 261.93122 96.945733 
L 284.816394 99.882317 
L 302.244237 110.022709 
L 314.927763 129.055529 
L 320.932877 155.120036 
L 320.892748 177.80162 
L 317.070078 199.222585 
L 308.195516 220.983586 
L 292.119593 239.846027 
L 268.105062 251.180782 
L 243.346281 253.408622 
L 215.913704 249.669052 
L 187.934855 241.046502 
L 159.858887 227.365975 
L 137.711383 209.712064 
L 127.5837 189.514679 
L 130.884359 172.347987 
L 143.897406 155.766339 
L 168.769462 137.56077 
L 202.997086 120.552712 
L 235.436781 109.451109 
L 266.109759 103.870584 
L 292.081166 105.16563 
L 310.818771 112.902204 
L 325.522166 128.900769 
L 333.577352 152.463545 
L 334.626326 174.370461 
L 330.884553 196.214089 
L 322.035983 216.343623 
L 305.542493 234.007729 
L 280.283168 244.644947 
L 254.71362 246.485602 
L 226.223807 242.769561 
L 196.262538 234.33607 
L 165.889079 221.288205 
L 140.415482 204.519223 
L 126.208554 185.395086 
L 125.873665 170.196893 
L 134.25556 155.97366 
L 153.971872 139.709759 
L 184.877362 123.60905 
L 221.493483 110.999666 
L 251.436846 105.267221 
L 277.445968 104.886965 
L 298.984761 109.9873 
L 318.145657 122.70931 
L 331.639386 143.721144 
L 337.371435 167.239051 
L 337.344536 188.118973 
L 333.126816 206.751714 
L 322.500676 225.389956 
L 303.430405 239.060563 
L 279.253599 244.067046 
L 250.044899 241.924529 
L 220.747847 234.679148 
L 191.007494 223.474062 
L 160.8878 207.730595 
L 137.278336 188.949281 
L 126.341146 168.692628 
L 129.025522 152.524575 
L 140.966597 137.522507 
L 164.210495 121.675347 
L 196.456542 107.900712 
L 231.036684 99.61119 
L 257.773405 98.41911 
L 280.801297 103.102086 
L 301.309888 115.52608 
L 316.830877 136.895339 
L 325.306067 164.549345 
L 326.820626 186.91392 
L 324.250661 207.141195 
L 316.246119 226.875334 
L 300.570129 242.221847 
L 276.779209 249.149747 
L 252.486494 247.930515 
L 226.292944 241.600888 
L 197.369369 230.363023 
L 168.143869 214.438677 
L 143.894641 194.900172 
L 130.718885 173.242183 
L 130.863133 156.327448 
L 139.150092 141.080204 
L 158.104086 123.973592 
L 186.824079 108.061785 
L 219.709957 96.974034 
L 245.100494 93.41714 
L 267.643895 95.560597 
L 287.08573 104.510573 
L 303.006133 122.617162 
L 312.74734 148.760159 
L 315.73066 173.797812 
L 314.123301 198.837427 
L 308.174939 220.445889 
L 295.75691 239.80226 
L 275.6603 252.119256 
L 252.832699 255.202372 
L 226.448959 251.640808 
L 199.295605 242.859856 
L 171.212397 228.868994 
L 147.003436 210.52956 
L 132.622521 189.175076 
L 131.330556 172.134211 
L 138.838902 155.262406 
L 156.812684 136.877162 
L 185.363672 118.626527 
L 219.132484 104.267449 
L 245.619746 97.668818 
L 269.434648 96.54995 
L 289.245942 101.671865 
L 305.507968 114.76714 
L 316.217184 136.654056 
L 320.101623 164.050037 
L 318.558389 187.0012 
L 313.321393 207.922549 
L 302.070284 229.291371 
L 283.173954 245.781454 
L 256.882821 253.554376 
L 232.204537 253.113695 
L 207.087821 247.977913 
L 178.663867 237.571627 
L 151.979534 222.358451 
L 133.199447 203.547799 
L 127.789582 185.780398 
L 133.890659 167.738945 
L 150.284256 150.286689 
L 178.325867 131.924088 
L 213.820405 115.887867 
L 243.974369 106.794226 
L 271.78363 103.001834 
L 296.184823 105.81836 
L 314.160178 115.515422 
L 327.222416 133.64823 
L 333.290669 158.586224 
L 332.902701 179.981265 
L 328.29377 200.35212 
L 317.985245 220.552675 
L 299.694155 237.299752 
L 272.846186 246.26777 
L 248.243276 246.882988 
L 221.428803 242.765937 
L 192.435285 234.191933 
L 162.467293 220.788129 
L 138.097993 203.746741 
L 125.636715 184.473662 
L 126.976575 168.772915 
L 137.441939 154.031593 
L 159.681622 137.440626 
L 192.45958 121.544868 
L 229.311814 109.81667 
L 262.354564 104.854881 
L 289.130072 106.799277 
L 309.807991 115.219348 
L 326.352144 131.914456 
L 336.122896 155.972335 
L 338.350115 177.621612 
L 335.654227 198.885886 
L 327.604766 218.179525 
L 311.768789 234.356964 
L 287.090304 243.101901 
L 263.629713 243.625273 
L 237.482884 239.429831 
L 206.062168 229.944058 
L 175.033343 216.376088 
L 147.357525 199.079357 
L 129.495583 179.465652 
L 125.879274 163.126761 
L 132.674282 147.191682 
L 149.646057 131.541475 
L 177.599518 116.184514 
L 212.088877 104.348928 
L 241.550203 99.34789 
L 268.393434 100.245076 
L 290.166224 107.348392 
L 309.257211 123.002903 
L 322.363199 147.076004 
L 327.738605 171.66197 
L 327.894888 193.580884 
L 323.870896 213.194993 
L 313.528197 231.949168 
L 295.00464 244.814338 
L 272.357195 248.665131 
L 245.167403 245.61628 
L 216.379143 237.156899 
L 187.176889 224.374204 
L 158.787504 207.064935 
L 137.555542 186.691852 
L 129.437682 167.294067 
L 133.587143 148.209706 
L 147.278487 131.733922 
L 171.742439 115.033667 
L 203.603906 101.380417 
L 235.808304 94.203313 
L 262.214482 94.70319 
L 282.136585 101.667475 
L 299.538515 117.439895 
L 311.230829 141.942004 
L 315.91901 167.807238 
L 315.82781 190.785032 
L 312.160451 211.338941 
L 302.875192 232.139868 
L 286.19277 247.787072 
L 262.144925 254.619068 
L 237.98105 253.280767 
L 212.395498 246.750735 
L 184.426438 234.979147 
L 157.61419 218.315089 
L 137.87121 198.04161 
L 130.91044 178.333669 
L 135.919054 158.565935 
L 150.716208 140.640733 
L 176.516838 122.14486 
L 209.426628 106.518213 
L 238.107591 98.094533 
L 264.323855 95.716294 
L 285.642535 100.20216 
L 302.460174 112.426925 
L 313.991815 133.575508 
L 318.773872 160.806831 
L 318.008254 183.237132 
L 313.604426 204.511287 
L 303.703865 226.281202 
L 286.43395 243.982214 
L 261.558494 253.401012 
L 238.153731 254.200537 
L 212.702514 249.903271 
L 184.772205 240.512777 
L 157.363296 226.086437 
L 136.522504 207.769907 
L 128.19977 187.085106 
L 134.045939 167.832792 
L 150.17532 150.245857 
L 177.902924 131.745215 
L 213.147317 115.543846 
L 243.259113 106.292813 
L 271.037007 102.405656 
L 295.293334 105.186806 
L 313.124229 114.875842 
L 326.060947 133.045114 
L 332.037671 158.061536 
L 331.609473 179.680893 
L 326.962628 200.291607 
L 316.671933 220.682359 
L 298.457459 237.661142 
L 271.745716 246.868644 
L 246.999449 247.625674 
L 220.028903 243.528518 
L 190.976286 234.889835 
L 161.274826 221.430603 
L 137.393287 204.323674 
L 125.601153 184.986086 
L 127.567131 169.067745 
L 138.890209 153.991173 
L 162.083583 137.195832 
L 195.525544 121.267568 
L 232.398171 109.730408 
L 264.908571 105.039815 
L 291.573398 107.275953 
L 311.901997 116.092964 
L 327.841601 133.188358 
L 336.893877 157.453464 
L 338.563238 178.671114 
L 335.50462 199.410137 
L 326.983876 218.692638 
L 310.56998 234.699748 
L 285.320667 243.163579 
L 261.276451 243.462078 
L 235.248499 239.156518 
L 203.819063 229.604973 
L 172.761876 215.929059 
L 145.515996 198.608875 
L 128.523618 179.048737 
L 125.744455 163.185542 
L 132.913241 147.709089 
L 150.43609 132.043576 
L 178.944648 116.721326 
L 213.791836 104.98509 
L 243.114423 100.105547 
L 269.796639 100.990109 
L 291.621503 108.012601 
L 310.759721 123.521496 
L 323.886841 147.401789 
L 329.232551 171.775493 
L 329.319115 193.614411 
L 325.184417 213.037801 
L 314.63443 231.622166 
L 295.821342 244.277852 
L 273.045172 247.945326 
L 245.772304 244.82347 
L 216.720427 236.314628 
L 187.378412 223.569914 
L 158.789578 206.330357 
L 137.362151 186.072581 
L 129.093322 166.801507 
L 133.144831 147.856941 
L 146.744019 131.565862 
L 171.144181 115.045564 
L 203.040731 101.53262 
L 235.415765 94.442051 
L 262.066301 95.007306 
L 282.224677 102.045057 
L 299.861594 117.896998 
L 311.77579 142.467118 
L 316.618312 168.319219 
L 316.634009 191.177814 
L 313.059745 211.560842 
L 303.849009 232.181192 
L 287.195327 247.617233 
L 263.13567 254.223356 
L 238.792638 252.687861 
L 212.908136 245.907553 
L 184.853261 233.952917 
L 157.927478 217.136277 
L 138.058747 196.757578 
L 130.976036 176.974684 
L 135.889983 157.17926 
L 150.547589 139.338237 
L 176.149177 120.982923 
L 208.840608 105.553462 
L 237.448964 97.316756 
L 263.583335 95.202063 
L 284.623576 99.924749 
L 301.438684 112.494198 
L 312.935671 134.007198 
L 317.707213 161.475928 
L 316.973571 184.03365 
L 312.674314 205.191803 
L 302.878121 226.990703 
L 285.758632 244.61152 
L 261.104508 253.890424 
L 237.998402 254.593146 
L 212.862359 250.246529 
L 185.067061 240.762699 
L 157.764673 226.213737 
L 136.966107 207.749066 
L 128.603494 186.88707 
L 134.383096 167.449277 
L 150.408006 149.738426 
L 177.976707 131.126594 
L 213.009336 114.85912 
L 242.93285 105.595617 
L 270.511278 101.743389 
L 294.502777 104.594692 
L 312.164907 114.408317 
L 324.908427 132.753662 
L 330.711262 157.931509 
L 330.191171 179.733447 
L 325.473323 200.54337 
L 315.132452 221.117389 
L 296.91162 238.247553 
L 270.277801 247.564641 
L 245.518621 248.379717 
L 218.564223 244.282417 
L 189.507646 235.56016 
L 160.099005 222.018325 
L 136.732896 204.818638 
L 125.635671 185.394086 
L 128.249194 169.24546 
L 140.432593 153.835307 
L 164.549991 136.832215 
L 198.584689 120.880319 
L 235.394905 109.54723 
L 267.305859 105.133986 
L 293.718222 107.646848 
L 313.671585 116.827314 
L 329.020381 134.288148 
L 337.388615 158.736629 
L 338.554833 179.548075 
L 335.183251 199.811222 
L 326.245168 219.105563 
L 309.331179 235.006862 
L 283.597608 243.280929 
L 259.111318 243.427007 
L 233.15488 239.058761 
L 201.845137 229.519272 
L 170.811193 215.793138 
L 143.969944 198.481399 
L 127.74796 178.984305 
L 125.657548 163.547385 
L 133.096753 148.474284 
L 151.067733 132.781594 
L 180.04201 117.451093 
L 215.211315 105.7355 
L 244.434001 100.889572 
L 271.009569 101.680211 
L 292.843725 108.508288 
L 312.056139 123.733773 
L 325.267066 147.308832 
L 330.657837 171.517949 
L 330.725084 193.237118 
L 326.536539 212.533708 
L 315.882027 231.019016 
L 296.90229 243.612261 
L 273.983706 247.248699 
L 246.558066 244.139018 
L 217.32531 235.673683 
L 187.883162 223.052698 
L 159.055718 205.947472 
L 137.323537 185.848144 
L 128.752995 166.665669 
L 131.678595 149.672448 
L 143.697445 133.856357 
L 166.646505 117.367734 
L 197.93064 103.347744 
L 230.854408 95.29472 
L 255.487476 94.52813 
L 276.51001 99.555714 
L 295.556675 112.680977 
L 309.609561 134.964163 
L 316.900091 163.36205 
L 317.926596 186.191911 
L 315.292519 207.018065 
L 307.570674 227.916988 
L 292.66263 244.691351 
L 270.020635 253.167614 
L 247.681746 253.202576 
L 224.101942 248.371638 
L 197.588818 238.734687 
L 169.360896 223.717763 
L 145.572821 204.602709 
L 132.216306 182.800349 
L 131.968288 165.397428 
L 140.004207 149.301338 
L 158.726229 131.092936 
L 187.548847 113.555543 
L 220.787744 100.481762 
L 246.204756 95.207922 
L 268.871128 95.419922 
L 287.219876 101.51686 
L 303.195014 116.163614 
L 313.441852 139.519402 
L 316.890772 164.610296 
L 315.741583 187.746783 
L 310.961902 208.917291 
L 300.370292 230.433892 
L 282.334714 246.990087 
L 257.025808 254.802243 
L 232.94391 254.360646 
L 208.282852 249.136293 
L 180.274926 238.554359 
L 153.771457 223.059508 
L 134.819031 203.861136 
L 128.979024 185.443963 
L 134.791171 166.747039 
L 150.760561 148.943165 
L 178.224781 130.246269 
L 213.051687 113.973436 
L 242.730689 104.773877 
L 270.043082 101.031899 
L 293.707636 104.019202 
L 311.196251 114.041257 
L 323.718611 132.650194 
L 329.313971 158.040686 
L 328.685061 179.997976 
L 323.894246 200.972999 
L 313.484235 221.725894 
L 295.234917 238.962216 
L 268.672331 248.317862 
L 243.980741 249.144421 
L 217.141077 245.033194 
L 188.131673 236.218954 
L 159.02947 222.578284 
L 136.174847 205.26683 
L 125.749341 185.736669 
L 128.984047 169.354562 
L 141.969997 153.624988 
L 166.920236 136.415314 
L 201.440696 120.439031 
L 238.116844 109.296995 
L 269.403218 105.137457 
L 295.470633 107.885474 
L 315.045735 117.369256 
L 329.847143 135.135968 
L 337.59941 159.734337 
L 338.336505 180.191555 
L 334.70994 200.056396 
L 325.427348 219.392058 
L 308.113064 235.264433 
L 281.998252 243.455633 
L 257.228182 243.534207 
L 231.260439 239.146465 
L 200.168887 229.687719 
L 169.195496 215.963988 
L 142.717917 198.688391 
L 127.149494 179.259053 
L 125.604624 164.188054 
L 133.228614 149.454138 
L 151.551944 133.720894 
L 180.909952 118.341006 
L 216.36895 106.573868 
L 245.529087 101.684663 
L 272.046608 102.313477 
L 293.841076 108.850793 
L 313.14565 123.674518 
L 326.492497 146.845554 
L 331.994974 170.932413 
L 332.088327 192.498873 
L 327.900307 211.718924 
L 317.239232 230.171801 
L 298.211084 242.840309 
L 275.134086 246.587688 
L 247.486707 243.568256 
L 218.155584 235.231932 
L 188.658318 222.813098 
L 159.563621 205.90028 
L 137.434165 185.996845 
L 128.20416 164.777538 
L 133.202078 146.000457 
L 147.888822 129.887701 
L 173.344347 113.834269 
L 205.862664 101.087909 
L 235.017669 95.218633 
L 261.674184 95.756297 
L 282.28025 102.625958 
L 300.535274 118.23946 
L 313.108353 142.60873 
L 318.451028 168.4199 
L 318.799817 190.842299 
L 315.403578 211.430326 
L 306.392302 231.725054 
L 289.845301 246.858828 
L 265.769253 253.173767 
L 238.27782 250.83181 
L 211.151986 242.976711 
L 182.695966 230.13519 
L 155.935832 212.642156 
L 136.845947 191.837134 
L 130.873871 172.445074 
L 136.366426 153.207867 
L 151.568511 135.487115 
L 177.520269 117.564821 
L 210.075977 102.951577 
L 238.122874 95.652047 
L 263.578134 94.531563 
L 283.621398 99.987804 
L 300.32099 113.630166 
L 311.556359 136.187139 
L 316.093416 164.213551 
L 315.201893 187.431481 
L 310.746681 208.51299 
L 300.604607 230.099507 
L 283.103284 246.864614 
L 258.293544 254.957421 
L 234.658881 254.730932 
L 210.492145 249.75834 
L 182.687896 239.423343 
L 155.935785 224.083713 
L 136.237971 204.940179 
L 129.383399 186.049211 
L 134.604804 166.830121 
L 149.894704 149.02609 
L 176.663213 130.244233 
L 211.06922 113.753891 
L 240.949642 104.240502 
L 268.515616 100.311533 
L 292.125522 103.215692 
L 309.574607 113.17295 
L 322.115946 131.770212 
L 327.782935 157.230937 
L 327.24607 179.417286 
L 322.576521 200.607047 
L 312.399828 221.573266 
L 294.493949 239.142933 
L 268.333156 248.895217 
L 243.50528 249.978714 
L 216.445411 245.919866 
L 187.575808 237.123003 
L 158.711888 223.46986 
L 136.130284 206.10088 
L 125.988004 186.472939 
L 129.463474 169.923219 
L 142.753891 153.983061 
L 168.009205 136.57977 
L 202.686778 120.461244 
L 239.258123 109.258179 
L 270.230761 105.07086 
L 296.133886 107.793025 
L 315.442193 117.253025 
L 329.95656 134.995153 
L 337.424646 159.564169 
L 337.972185 179.98626 
L 334.195933 199.834604 
L 324.759479 219.260907 
L 307.291885 235.274292 
L 281.025311 243.633116 
L 256.324444 243.845791 
L 230.091095 239.534268 
L 199.197098 230.245978 
L 168.289945 216.62412 
L 142.024144 199.444425 
L 126.805813 180.099836 
L 125.542489 165.225602 
L 133.265959 150.673817 
L 151.807176 134.889775 
L 181.436286 119.415486 
L 217.145382 107.511496 
L 246.317579 102.486631 
L 272.861244 102.881184 
L 294.557591 109.028339 
L 313.975871 123.324649 
L 327.520929 145.983612 
L 333.215872 169.989255 
L 333.391316 191.36108 
L 329.276211 210.542702 
L 318.732908 229.036085 
L 299.807697 241.938807 
L 276.564358 245.96736 
L 248.622876 243.133921 
L 219.302573 235.028475 
L 189.823588 222.91088 
L 160.427528 206.261542 
L 137.776635 186.598028 
L 127.879816 165.557531 
L 131.336884 148.697414 
L 144.082314 133.049369 
L 167.821326 116.916046 
L 199.706882 103.41716 
L 232.9097 95.974635 
L 257.716546 95.69969 
L 278.56331 101.077017 
L 297.879756 114.713783 
L 312.03873 137.414815 
L 319.29503 165.919535 
L 320.189257 188.712257 
L 317.209075 209.541316 
L 308.815791 229.867433 
L 292.944585 245.448377 
L 269.3485 252.404994 
L 245.343602 251.159601 
L 219.645652 244.728046 
L 191.892548 233.455348 
L 163.836558 217.145196 
L 141.589867 197.157721 
L 131.066249 175.024977 
L 133.637754 156.963327 
L 145.247847 140.078149 
L 167.822937 122.080552 
L 198.871787 106.206825 
L 231.513054 96.202336 
L 259.099785 93.952877 
L 280.246173 98.727892 
L 297.585328 111.427776 
L 309.754258 133.190277 
L 315.2768 161.026449 
L 315.189964 183.488121 
L 311.740817 204.332192 
L 303.129273 226.236436 
L 287.458404 244.318599 
L 264.252953 254.279098 
L 241.35141 255.435761 
L 216.057014 251.134701 
L 188.714135 241.71796 
L 161.324107 227.112234 
L 139.734513 208.451027 
L 129.886884 187.176402 
L 133.212174 169.129753 
L 146.083214 151.785426 
L 170.491225 132.944104 
L 203.709583 115.682427 
L 234.702722 104.797005 
L 263.758764 99.71598 
L 287.891471 101.66944 
L 305.679727 110.431629 
L 319.08965 127.837495 
L 325.841682 152.683323 
L 326.1776 174.830786 
L 322.341765 196.64044 
L 313.559877 217.848837 
L 297.453923 236.66965 
L 273.052686 248.380467 
L 247.500423 250.972559 
L 219.053438 247.486697 
L 190.682993 239.315521 
L 161.724043 226.168739 
L 138.303633 209.109586 
L 126.64202 189.526281 
L 128.587042 173.190286 
L 139.881647 157.615407 
L 163.042041 140.129961 
L 196.478108 123.314557 
L 233.257843 110.810498 
L 265.537895 105.181822 
L 292.214573 106.548111 
L 311.741434 114.282947 
L 327.271827 130.186064 
L 336.127165 153.586324 
L 337.701854 175.375415 
L 334.296884 197.004262 
L 325.646938 216.632913 
L 309.235391 233.538909 
L 283.940861 243.291074 
L 259.09048 244.514276 
L 231.362358 240.581743 
L 200.42038 231.704162 
L 169.509532 218.483115 
L 142.923232 201.598661 
L 127.080866 182.422107 
L 125.316303 167.301132 
L 132.924666 152.448517 
L 151.28306 136.627507 
L 180.85504 120.980087 
L 216.722303 108.742794 
L 246.217892 103.344745 
L 273.116338 103.342886 
L 294.625339 108.901028 
L 314.241196 122.40989 
L 328.157219 144.328152 
L 334.250399 168.317683 
L 334.650944 189.376349 
L 330.798728 208.545905 
L 320.677241 227.210945 
L 302.224161 240.676054 
L 278.852552 245.364801 
L 250.507053 242.942016 
L 221.462424 235.295671 
L 192.243236 223.73846 
L 162.440783 207.531655 
L 138.887374 188.217378 
L 127.713302 167.374815 
L 130.021996 150.860616 
L 141.347224 135.629796 
L 163.739414 119.521524 
L 195.025765 105.539564 
L 228.727213 97.148618 
L 254.518977 95.970855 
L 276.637212 100.600209 
L 296.616878 113.070995 
L 311.764713 134.670284 
L 320.067203 162.702207 
L 321.660608 185.408946 
L 319.376619 206.182179 
L 312.023116 226.596487 
L 297.375279 243.059777 
L 274.762544 251.322815 
L 252.19447 251.192674 
L 228.401873 246.233215 
L 200.308225 235.995116 
L 171.528414 220.840543 
L 146.885481 201.687655 
L 132.417597 179.960026 
L 131.165504 163.090452 
L 138.56194 146.618953 
L 156.192572 128.946784 
L 184.0151 111.892477 
L 216.822653 99.139914 
L 243.069133 93.998319 
L 266.505909 94.75094 
L 285.393963 101.79686 
L 301.493963 117.665363 
L 311.744115 142.108971 
L 315.225815 167.496613 
L 313.818555 193.596588 
L 308.334109 215.388132 
L 296.710025 236.016865 
L 277.538086 250.471264 
L 251.624227 255.732421 
L 223.735001 252.732042 
L 196.947115 244.589051 
L 169.026822 231.140836 
L 145.21398 213.2991 
L 131.506189 192.378478 
L 130.916833 175.36253 
L 138.938876 159.074024 
L 157.84 140.596339 
L 187.465324 122.138859 
L 222.147016 107.468938 
L 249.561711 100.452521 
L 273.166448 98.901383 
L 293.736556 103.481501 
L 310.153665 115.689239 
L 321.062744 136.579951 
L 325.003557 163.257217 
L 323.346511 185.509982 
L 317.974758 205.785182 
L 306.455526 226.796522 
L 287.05482 243.269349 
L 259.92045 251.208241 
L 234.755649 250.936657 
L 209.302521 246.106632 
L 180.341378 236.171114 
L 152.778995 221.501345 
L 132.905633 203.303874 
L 126.485602 185.782172 
L 132.094818 167.971036 
L 148.006932 151.171248 
L 175.745275 133.379711 
L 211.484239 117.64242 
L 242.724661 108.471125 
L 271.718328 104.621989 
L 296.986724 107.376446 
L 315.741691 116.898315 
L 329.646118 134.732532 
L 336.507411 159.365256 
L 336.631131 180.102638 
L 332.524963 199.835948 
L 322.708649 219.488134 
L 304.854004 235.741261 
L 278.251105 244.321784 
L 253.582398 244.69699 
L 227.034749 240.481732 
L 196.803233 231.516858 
L 166.143807 218.032545 
L 140.478424 200.973555 
L 126.188985 181.730572 
L 125.810726 166.601488 
L 134.121404 152.49072 
L 153.664515 136.498036 
L 184.257181 120.857046 
L 220.499375 108.877086 
L 249.78545 103.804178 
L 275.642894 104.032916 
L 297.02138 109.763958 
L 316.327656 123.457521 
L 329.814134 145.460381 
L 335.459443 169.1787 
L 335.489266 190.369853 
L 331.241409 209.241902 
L 320.500689 227.688066 
L 301.303188 240.710671 
L 277.644188 244.928987 
L 249.218981 242.262237 
L 219.719205 234.402829 
L 190.036988 222.585201 
L 160.318215 206.265301 
L 137.327932 186.959634 
L 127.130363 166.281032 
L 130.39561 149.73707 
L 142.970181 134.38054 
L 166.665673 118.44447 
L 198.792179 104.969579 
L 232.55522 97.362506 
L 257.735654 96.844841 
L 279.375952 101.978194 
L 299.258597 115.180496 
L 314.046656 137.411013 
L 321.851655 165.627205 
L 323.01982 188.332348 
L 320.177194 208.991972 
L 311.878015 228.993992 
L 295.986071 244.307184 
L 272.222798 251.02981 
L 247.898954 249.600668 
L 221.714112 242.962859 
L 193.984201 231.764502 
L 165.453406 215.514063 
L 142.434548 195.63325 
L 130.920212 173.646523 
L 132.575444 156.008262 
L 142.957641 139.713711 
L 164.218725 122.089999 
L 194.436529 106.291289 
L 227.161014 96.034776 
L 252.411139 93.386882 
L 273.785348 96.761184 
L 292.221807 107.535898 
L 306.249953 127.532225 
L 313.811469 154.686574 
L 315.137677 178.324297 
L 312.494862 201.533735 
L 305.22675 223.438897 
L 291.196616 242.275738 
L 269.549031 253.492556 
L 246.538517 255.610331 
L 220.566469 251.628287 
L 193.694047 242.64885 
L 165.974827 228.363566 
L 143.11102 209.861556 
L 131.068409 188.511634 
L 132.142779 170.837517 
L 141.983077 154.249585 
L 163.092163 135.521832 
L 194.136667 117.562285 
L 228.559549 104.267707 
L 258.824869 98.337309 
L 282.595182 99.666253 
L 300.53143 107.582997 
L 314.607967 124.169602 
L 322.266905 148.626009 
L 323.353502 171.67224 
L 319.99124 194.912086 
L 312.053815 216.415423 
L 297.123023 236.027671 
L 274.077738 248.88704 
L 248.642317 252.476918 
L 219.942787 249.440172 
L 192.156975 241.623201 
L 192.156975 241.623201 
" clip-path="url(#pc9c829e868)" style="fill: none; stroke: #1f77b4; stroke-width: 0.5; stroke-linecap: square"/>
   </g>
   <g id="patch_3">
    <path d="M 57.6 307.584 
L 57.6 41.472 
" style="fill: none; stroke: #000000; stroke-width: 0.8; stroke-linejoin: miter; stroke-linecap: square"/>
   </g>
   <g id="patch_4">
    <path d="M 414.72 307.584 
L 414.72 41.472 
" style="fill: none; stroke: #000000; stroke-width: 0.8; stroke-linejoin: miter; stroke-linecap: square"/>
   </g>
   <g id="patch_5">
    <path d="M 57.6 307.584 
L 414.72 307.584 
" style="fill: none; stroke: #000000; stroke-width: 0.8; stroke-linejoin: miter; stroke-linecap: square"/>
   </g>
   <g id="patch_6">
    <path d="M 57.6 41.472 
L 414.72 41.472 
" style="fill: none; stroke: #000000; stroke-width: 0.8; stroke-linejoin: miter; stroke-linecap: square"/>
   </g>
   <g id="text_13">
    <!-- Real Space Projection onto r-z plane with initial r = -0.30 -->
    <g transform="translate(66.41625 35.472) scale(0.12 -0.12)">
     <defs>
      <path id="DejaVuSans-52" d="M 2841 2188 
Q 3044 2119 3236 1894 
Q 3428 1669 3622 1275 
L 4263 0 
L 3584 0 
L 2988 1197 
Q 2756 1666 2539 1819 
Q 2322 1972 1947 1972 
L 1259 1972 
L 1259 0 
L 628 0 
L 628 4666 
L 2053 4666 
Q 2853 4666 3247 4331 
Q 3641 3997 3641 3322 
Q 3641 2881 3436 2590 
Q 3231 2300 2841 2188 
z
M 1259 4147 
L 1259 2491 
L 2053 2491 
Q 2509 2491 2742 2702 
Q 2975 2913 2975 3322 
Q 2975 3731 2742 3939 
Q 2509 4147 2053 4147 
L 1259 4147 
z
" transform="scale(0.015625)"/>
      <path id="DejaVuSans-65" d="M 3597 1894 
L 3597 1613 
L 953 1613 
Q 991 1019 1311 708 
Q 1631 397 2203 397 
Q 2534 397 2845 478 
Q 3156 559 3463 722 
L 3463 178 
Q 3153 47 2828 -22 
Q 2503 -91 2169 -91 
Q 1331 -91 842 396 
Q 353 884 353 1716 
Q 353 2575 817 3079 
Q 1281 3584 2069 3584 
Q 2775 3584 3186 3129 
Q 3597 2675 3597 1894 
z
M 3022 2063 
Q 3016 2534 2758 2815 
Q 2500 3097 2075 3097 
Q 1594 3097 1305 2825 
Q 1016 2553 972 2059 
L 3022 2063 
z
" transform="scale(0.015625)"/>
      <path id="DejaVuSans-61" d="M 2194 1759 
Q 1497 1759 1228 1600 
Q 959 1441 959 1056 
Q 959 750 1161 570 
Q 1363 391 1709 391 
Q 2188 391 2477 730 
Q 2766 1069 2766 1631 
L 2766 1759 
L 2194 1759 
z
M 3341 1997 
L 3341 0 
L 2766 0 
L 2766 531 
Q 2569 213 2275 61 
Q 1981 -91 1556 -91 
Q 1019 -91 701 211 
Q 384 513 384 1019 
Q 384 1609 779 1909 
Q 1175 2209 1959 2209 
L 2766 2209 
L 2766 2266 
Q 2766 2663 2505 2880 
Q 2244 3097 1772 3097 
Q 1472 3097 1187 3025 
Q 903 2953 641 2809 
L 641 3341 
Q 956 3463 1253 3523 
Q 1550 3584 1831 3584 
Q 2591 3584 2966 3190 
Q 3341 2797 3341 1997 
z
" transform="scale(0.015625)"/>
      <path id="DejaVuSans-6c" d="M 603 4863 
L 1178 4863 
L 1178 0 
L 603 0 
L 603 4863 
z
" transform="scale(0.015625)"/>
      <path id="DejaVuSans-20" transform="scale(0.015625)"/>
      <path id="DejaVuSans-53" d="M 3425 4513 
L 3425 3897 
Q 3066 4069 2747 4153 
Q 2428 4238 2131 4238 
Q 1616 4238 1336 4038 
Q 1056 3838 1056 3469 
Q 1056 3159 1242 3001 
Q 1428 2844 1947 2747 
L 2328 2669 
Q 3034 2534 3370 2195 
Q 3706 1856 3706 1288 
Q 3706 609 3251 259 
Q 2797 -91 1919 -91 
Q 1588 -91 1214 -16 
Q 841 59 441 206 
L 441 856 
Q 825 641 1194 531 
Q 1563 422 1919 422 
Q 2459 422 2753 634 
Q 3047 847 3047 1241 
Q 3047 1584 2836 1778 
Q 2625 1972 2144 2069 
L 1759 2144 
Q 1053 2284 737 2584 
Q 422 2884 422 3419 
Q 422 4038 858 4394 
Q 1294 4750 2059 4750 
Q 2388 4750 2728 4690 
Q 3069 4631 3425 4513 
z
" transform="scale(0.015625)"/>
      <path id="DejaVuSans-70" d="M 1159 525 
L 1159 -1331 
L 581 -1331 
L 581 3500 
L 1159 3500 
L 1159 2969 
Q 1341 3281 1617 3432 
Q 1894 3584 2278 3584 
Q 2916 3584 3314 3078 
Q 3713 2572 3713 1747 
Q 3713 922 3314 415 
Q 2916 -91 2278 -91 
Q 1894 -91 1617 61 
Q 1341 213 1159 525 
z
M 3116 1747 
Q 3116 2381 2855 2742 
Q 2594 3103 2138 3103 
Q 1681 3103 1420 2742 
Q 1159 2381 1159 1747 
Q 1159 1113 1420 752 
Q 1681 391 2138 391 
Q 2594 391 2855 752 
Q 3116 1113 3116 1747 
z
" transform="scale(0.015625)"/>
      <path id="DejaVuSans-63" d="M 3122 3366 
L 3122 2828 
Q 2878 2963 2633 3030 
Q 2388 3097 2138 3097 
Q 1578 3097 1268 2742 
Q 959 2388 959 1747 
Q 959 1106 1268 751 
Q 1578 397 2138 397 
Q 2388 397 2633 464 
Q 2878 531 3122 666 
L 3122 134 
Q 2881 22 2623 -34 
Q 2366 -91 2075 -91 
Q 1284 -91 818 406 
Q 353 903 353 1747 
Q 353 2603 823 3093 
Q 1294 3584 2113 3584 
Q 2378 3584 2631 3529 
Q 2884 3475 3122 3366 
z
" transform="scale(0.015625)"/>
      <path id="DejaVuSans-50" d="M 1259 4147 
L 1259 2394 
L 2053 2394 
Q 2494 2394 2734 2622 
Q 2975 2850 2975 3272 
Q 2975 3691 2734 3919 
Q 2494 4147 2053 4147 
L 1259 4147 
z
M 628 4666 
L 2053 4666 
Q 2838 4666 3239 4311 
Q 3641 3956 3641 3272 
Q 3641 2581 3239 2228 
Q 2838 1875 2053 1875 
L 1259 1875 
L 1259 0 
L 628 0 
L 628 4666 
z
" transform="scale(0.015625)"/>
      <path id="DejaVuSans-6f" d="M 1959 3097 
Q 1497 3097 1228 2736 
Q 959 2375 959 1747 
Q 959 1119 1226 758 
Q 1494 397 1959 397 
Q 2419 397 2687 759 
Q 2956 1122 2956 1747 
Q 2956 2369 2687 2733 
Q 2419 3097 1959 3097 
z
M 1959 3584 
Q 2709 3584 3137 3096 
Q 3566 2609 3566 1747 
Q 3566 888 3137 398 
Q 2709 -91 1959 -91 
Q 1206 -91 779 398 
Q 353 888 353 1747 
Q 353 2609 779 3096 
Q 1206 3584 1959 3584 
z
" transform="scale(0.015625)"/>
      <path id="DejaVuSans-6a" d="M 603 3500 
L 1178 3500 
L 1178 -63 
Q 1178 -731 923 -1031 
Q 669 -1331 103 -1331 
L -116 -1331 
L -116 -844 
L 38 -844 
Q 366 -844 484 -692 
Q 603 -541 603 -63 
L 603 3500 
z
M 603 4863 
L 1178 4863 
L 1178 4134 
L 603 4134 
L 603 4863 
z
" transform="scale(0.015625)"/>
      <path id="DejaVuSans-74" d="M 1172 4494 
L 1172 3500 
L 2356 3500 
L 2356 3053 
L 1172 3053 
L 1172 1153 
Q 1172 725 1289 603 
Q 1406 481 1766 481 
L 2356 481 
L 2356 0 
L 1766 0 
Q 1100 0 847 248 
Q 594 497 594 1153 
L 594 3053 
L 172 3053 
L 172 3500 
L 594 3500 
L 594 4494 
L 1172 4494 
z
" transform="scale(0.015625)"/>
      <path id="DejaVuSans-69" d="M 603 3500 
L 1178 3500 
L 1178 0 
L 603 0 
L 603 3500 
z
M 603 4863 
L 1178 4863 
L 1178 4134 
L 603 4134 
L 603 4863 
z
" transform="scale(0.015625)"/>
      <path id="DejaVuSans-6e" d="M 3513 2113 
L 3513 0 
L 2938 0 
L 2938 2094 
Q 2938 2591 2744 2837 
Q 2550 3084 2163 3084 
Q 1697 3084 1428 2787 
Q 1159 2491 1159 1978 
L 1159 0 
L 581 0 
L 581 3500 
L 1159 3500 
L 1159 2956 
Q 1366 3272 1645 3428 
Q 1925 3584 2291 3584 
Q 2894 3584 3203 3211 
Q 3513 2838 3513 2113 
z
" transform="scale(0.015625)"/>
      <path id="DejaVuSans-2d" d="M 313 2009 
L 1997 2009 
L 1997 1497 
L 313 1497 
L 313 2009 
z
" transform="scale(0.015625)"/>
      <path id="DejaVuSans-77" d="M 269 3500 
L 844 3500 
L 1563 769 
L 2278 3500 
L 2956 3500 
L 3675 769 
L 4391 3500 
L 4966 3500 
L 4050 0 
L 3372 0 
L 2619 2869 
L 1863 0 
L 1184 0 
L 269 3500 
z
" transform="scale(0.015625)"/>
      <path id="DejaVuSans-68" d="M 3513 2113 
L 3513 0 
L 2938 0 
L 2938 2094 
Q 2938 2591 2744 2837 
Q 2550 3084 2163 3084 
Q 1697 3084 1428 2787 
Q 1159 2491 1159 1978 
L 1159 0 
L 581 0 
L 581 4863 
L 1159 4863 
L 1159 2956 
Q 1366 3272 1645 3428 
Q 1925 3584 2291 3584 
Q 2894 3584 3203 3211 
Q 3513 2838 3513 2113 
z
" transform="scale(0.015625)"/>
      <path id="DejaVuSans-3d" d="M 678 2906 
L 4684 2906 
L 4684 2381 
L 678 2381 
L 678 2906 
z
M 678 1631 
L 4684 1631 
L 4684 1100 
L 678 1100 
L 678 1631 
z
" transform="scale(0.015625)"/>
      <path id="DejaVuSans-33" d="M 2597 2516 
Q 3050 2419 3304 2112 
Q 3559 1806 3559 1356 
Q 3559 666 3084 287 
Q 2609 -91 1734 -91 
Q 1441 -91 1130 -33 
Q 819 25 488 141 
L 488 750 
Q 750 597 1062 519 
Q 1375 441 1716 441 
Q 2309 441 2620 675 
Q 2931 909 2931 1356 
Q 2931 1769 2642 2001 
Q 2353 2234 1838 2234 
L 1294 2234 
L 1294 2753 
L 1863 2753 
Q 2328 2753 2575 2939 
Q 2822 3125 2822 3475 
Q 2822 3834 2567 4026 
Q 2313 4219 1838 4219 
Q 1578 4219 1281 4162 
Q 984 4106 628 3988 
L 628 4550 
Q 988 4650 1302 4700 
Q 1616 4750 1894 4750 
Q 2613 4750 3031 4423 
Q 3450 4097 3450 3541 
Q 3450 3153 3228 2886 
Q 3006 2619 2597 2516 
z
" transform="scale(0.015625)"/>
     </defs>
     <use xlink:href="#DejaVuSans-52"/>
     <use xlink:href="#DejaVuSans-65" x="64.982422"/>
     <use xlink:href="#DejaVuSans-61" x="126.505859"/>
     <use xlink:href="#DejaVuSans-6c" x="187.785156"/>
     <use xlink:href="#DejaVuSans-20" x="215.568359"/>
     <use xlink:href="#DejaVuSans-53" x="247.355469"/>
     <use xlink:href="#DejaVuSans-70" x="310.832031"/>
     <use xlink:href="#DejaVuSans-61" x="374.308594"/>
     <use xlink:href="#DejaVuSans-63" x="435.587891"/>
     <use xlink:href="#DejaVuSans-65" x="490.568359"/>
     <use xlink:href="#DejaVuSans-20" x="552.091797"/>
     <use xlink:href="#DejaVuSans-50" x="583.878906"/>
     <use xlink:href="#DejaVuSans-72" x="642.431641"/>
     <use xlink:href="#DejaVuSans-6f" x="681.294922"/>
     <use xlink:href="#DejaVuSans-6a" x="742.476562"/>
     <use xlink:href="#DejaVuSans-65" x="770.259766"/>
     <use xlink:href="#DejaVuSans-63" x="831.783203"/>
     <use xlink:href="#DejaVuSans-74" x="886.763672"/>
     <use xlink:href="#DejaVuSans-69" x="925.972656"/>
     <use xlink:href="#DejaVuSans-6f" x="953.755859"/>
     <use xlink:href="#DejaVuSans-6e" x="1014.9375"/>
     <use xlink:href="#DejaVuSans-20" x="1078.316406"/>
     <use xlink:href="#DejaVuSans-6f" x="1110.103516"/>
     <use xlink:href="#DejaVuSans-6e" x="1171.285156"/>
     <use xlink:href="#DejaVuSans-74" x="1234.664062"/>
     <use xlink:href="#DejaVuSans-6f" x="1273.873047"/>
     <use xlink:href="#DejaVuSans-20" x="1335.054688"/>
     <use xlink:href="#DejaVuSans-72" x="1366.841797"/>
     <use xlink:href="#DejaVuSans-2d" x="1401.580078"/>
     <use xlink:href="#DejaVuSans-7a" x="1437.664062"/>
     <use xlink:href="#DejaVuSans-20" x="1490.154297"/>
     <use xlink:href="#DejaVuSans-70" x="1521.941406"/>
     <use xlink:href="#DejaVuSans-6c" x="1585.417969"/>
     <use xlink:href="#DejaVuSans-61" x="1613.201172"/>
     <use xlink:href="#DejaVuSans-6e" x="1674.480469"/>
     <use xlink:href="#DejaVuSans-65" x="1737.859375"/>
     <use xlink:href="#DejaVuSans-20" x="1799.382812"/>
     <use xlink:href="#DejaVuSans-77" x="1831.169922"/>
     <use xlink:href="#DejaVuSans-69" x="1912.957031"/>
     <use xlink:href="#DejaVuSans-74" x="1940.740234"/>
     <use xlink:href="#DejaVuSans-68" x="1979.949219"/>
     <use xlink:href="#DejaVuSans-20" x="2043.328125"/>
     <use xlink:href="#DejaVuSans-69" x="2075.115234"/>
     <use xlink:href="#DejaVuSans-6e" x="2102.898438"/>
     <use xlink:href="#DejaVuSans-69" x="2166.277344"/>
     <use xlink:href="#DejaVuSans-74" x="2194.060547"/>
     <use xlink:href="#DejaVuSans-69" x="2233.269531"/>
     <use xlink:href="#DejaVuSans-61" x="2261.052734"/>
     <use xlink:href="#DejaVuSans-6c" x="2322.332031"/>
     <use xlink:href="#DejaVuSans-20" x="2350.115234"/>
     <use xlink:href="#DejaVuSans-72" x="2381.902344"/>
     <use xlink:href="#DejaVuSans-20" x="2423.015625"/>
     <use xlink:href="#DejaVuSans-3d" x="2454.802734"/>
     <use xlink:href="#DejaVuSans-20" x="2538.591797"/>
     <use xlink:href="#DejaVuSans-2d" x="2570.378906"/>
     <use xlink:href="#DejaVuSans-30" x="2606.462891"/>
     <use xlink:href="#DejaVuSans-2e" x="2670.085938"/>
     <use xlink:href="#DejaVuSans-33" x="2701.873047"/>
     <use xlink:href="#DejaVuSans-30" x="2765.496094"/>
    </g>
   </g>
  </g>
 </g>
 <defs>
  <clipPath id="pc9c829e868">
   <rect x="57.6" y="41.472" width="357.12" height="266.112"/>
  </clipPath>
 </defs>
</svg>
