<?xml version="1.0" encoding="utf-8" standalone="no"?>
<!DOCTYPE svg PUBLIC "-//W3C//DTD SVG 1.1//EN"
  "http://www.w3.org/Graphics/SVG/1.1/DTD/svg11.dtd">
<svg xmlns:xlink="http://www.w3.org/1999/xlink" width="460.8pt" height="345.6pt" viewBox="0 0 460.8 345.6" xmlns="http://www.w3.org/2000/svg" version="1.1">
 <metadata>
  <rdf:RDF xmlns:dc="http://purl.org/dc/elements/1.1/" xmlns:cc="http://creativecommons.org/ns#" xmlns:rdf="http://www.w3.org/1999/02/22-rdf-syntax-ns#">
   <cc:Work>
    <dc:type rdf:resource="http://purl.org/dc/dcmitype/StillImage"/>
    <dc:date>2023-10-23T14:50:12.363024</dc:date>
    <dc:format>image/svg+xml</dc:format>
    <dc:creator>
     <cc:Agent>
      <dc:title>Matplotlib v3.8.0, https://matplotlib.org/</dc:title>
     </cc:Agent>
    </dc:creator>
   </cc:Work>
  </rdf:RDF>
 </metadata>
 <defs>
  <style type="text/css">*{stroke-linejoin: round; stroke-linecap: butt}</style>
 </defs>
 <g id="figure_1">
  <g id="patch_1">
   <path d="M 0 345.6 
L 460.8 345.6 
L 460.8 0 
L 0 0 
z
" style="fill: #ffffff"/>
  </g>
  <g id="patch_2">
   <path d="M 103.104 307.584 
L 369.216 307.584 
L 369.216 41.472 
L 103.104 41.472 
z
" style="fill: #ffffff"/>
  </g>
  <g id="pane3d_1">
   <g id="patch_3">
    <path d="M 123.197291 241.969309 
L 211.076164 168.307495 
L 209.854564 62.073991 
L 117.770234 129.272941 
" style="fill: #f2f2f2; opacity: 0.5; stroke: #f2f2f2; stroke-linejoin: miter"/>
   </g>
  </g>
  <g id="pane3d_2">
   <g id="patch_4">
    <path d="M 211.076164 168.307495 
L 352.090401 209.294766 
L 357.122702 99.402171 
L 209.854564 62.073991 
" style="fill: #e6e6e6; opacity: 0.5; stroke: #e6e6e6; stroke-linejoin: miter"/>
   </g>
  </g>
  <g id="pane3d_3">
   <g id="patch_5">
    <path d="M 123.197291 241.969309 
L 272.679269 290.790123 
L 352.090401 209.294766 
L 211.076164 168.307495 
" style="fill: #ececec; opacity: 0.5; stroke: #ececec; stroke-linejoin: miter"/>
   </g>
  </g>
  <g id="grid3d_1">
   <g id="Line3DCollection_1">
    <path d="M 139.745029 247.3738 
L 226.747915 172.862654 
L 226.190662 66.214715 
" style="fill: none; stroke: #b0b0b0; stroke-width: 0.8"/>
    <path d="M 167.574724 256.462979 
L 253.069813 180.513391 
L 253.645623 73.173748 
" style="fill: none; stroke: #b0b0b0; stroke-width: 0.8"/>
    <path d="M 195.967881 265.736184 
L 279.880048 188.306068 
L 281.632185 80.267526 
" style="fill: none; stroke: #b0b0b0; stroke-width: 0.8"/>
    <path d="M 224.941789 275.199062 
L 307.192338 196.244672 
L 310.165939 87.500001 
" style="fill: none; stroke: #b0b0b0; stroke-width: 0.8"/>
    <path d="M 254.514447 284.857492 
L 335.020917 204.333341 
L 339.263092 94.875281 
" style="fill: none; stroke: #b0b0b0; stroke-width: 0.8"/>
   </g>
  </g>
  <g id="grid3d_2">
   <g id="Line3DCollection_2">
    <path d="M 129.321936 120.843035 
L 134.184874 232.759299 
L 282.646541 280.56125 
" style="fill: none; stroke: #b0b0b0; stroke-width: 0.8"/>
    <path d="M 147.908894 107.279119 
L 151.886109 217.921773 
L 298.68087 264.106083 
" style="fill: none; stroke: #b0b0b0; stroke-width: 0.8"/>
    <path d="M 165.860779 94.178651 
L 169.008295 203.569617 
L 314.163547 248.217048 
" style="fill: none; stroke: #b0b0b0; stroke-width: 0.8"/>
    <path d="M 183.209592 81.518278 
L 185.579387 189.679399 
L 329.122557 232.865423 
" style="fill: none; stroke: #b0b0b0; stroke-width: 0.8"/>
    <path d="M 199.985219 69.276189 
L 201.62557 176.22917 
L 343.584028 218.024397 
" style="fill: none; stroke: #b0b0b0; stroke-width: 0.8"/>
   </g>
  </g>
  <g id="grid3d_3">
   <g id="Line3DCollection_3">
    <path d="M 352.651911 197.032811 
L 210.939601 156.431576 
L 122.59264 229.41333 
" style="fill: none; stroke: #b0b0b0; stroke-width: 0.8"/>
    <path d="M 353.593746 176.465549 
L 210.710684 136.52439 
L 121.577933 208.34229 
" style="fill: none; stroke: #b0b0b0; stroke-width: 0.8"/>
    <path d="M 354.551427 155.552235 
L 210.478101 116.298387 
L 120.545497 186.903085 
" style="fill: none; stroke: #b0b0b0; stroke-width: 0.8"/>
    <path d="M 355.525359 134.284061 
L 210.241763 95.745848 
L 119.494863 165.085982 
" style="fill: none; stroke: #b0b0b0; stroke-width: 0.8"/>
    <path d="M 356.515957 112.651918 
L 210.001579 74.858801 
L 118.425545 142.8809 
" style="fill: none; stroke: #b0b0b0; stroke-width: 0.8"/>
   </g>
  </g>
  <g id="axis3d_1">
   <g id="line2d_1">
    <path d="M 123.197291 241.969309 
L 272.679269 290.790123 
" style="fill: none; stroke: #000000; stroke-width: 0.8; stroke-linecap: square"/>
   </g>
   <g id="xtick_1">
    <g id="line2d_2">
     <path d="M 140.502812 246.724819 
L 138.226203 248.674556 
" style="fill: none; stroke: #000000; stroke-width: 0.8; stroke-linecap: square"/>
    </g>
    <g id="text_1">
     <!-- −0.4 -->
     <g transform="translate(120.082057 270.734746) scale(0.1 -0.1)">
      <defs>
       <path id="DejaVuSans-2212" d="M 678 2272 
L 4684 2272 
L 4684 1741 
L 678 1741 
L 678 2272 
z
" transform="scale(0.015625)"/>
       <path id="DejaVuSans-30" d="M 2034 4250 
Q 1547 4250 1301 3770 
Q 1056 3291 1056 2328 
Q 1056 1369 1301 889 
Q 1547 409 2034 409 
Q 2525 409 2770 889 
Q 3016 1369 3016 2328 
Q 3016 3291 2770 3770 
Q 2525 4250 2034 4250 
z
M 2034 4750 
Q 2819 4750 3233 4129 
Q 3647 3509 3647 2328 
Q 3647 1150 3233 529 
Q 2819 -91 2034 -91 
Q 1250 -91 836 529 
Q 422 1150 422 2328 
Q 422 3509 836 4129 
Q 1250 4750 2034 4750 
z
" transform="scale(0.015625)"/>
       <path id="DejaVuSans-2e" d="M 684 794 
L 1344 794 
L 1344 0 
L 684 0 
L 684 794 
z
" transform="scale(0.015625)"/>
       <path id="DejaVuSans-34" d="M 2419 4116 
L 825 1625 
L 2419 1625 
L 2419 4116 
z
M 2253 4666 
L 3047 4666 
L 3047 1625 
L 3713 1625 
L 3713 1100 
L 3047 1100 
L 3047 0 
L 2419 0 
L 2419 1100 
L 313 1100 
L 313 1709 
L 2253 4666 
z
" transform="scale(0.015625)"/>
      </defs>
      <use xlink:href="#DejaVuSans-2212"/>
      <use xlink:href="#DejaVuSans-30" x="83.789062"/>
      <use xlink:href="#DejaVuSans-2e" x="147.412109"/>
      <use xlink:href="#DejaVuSans-34" x="179.199219"/>
     </g>
    </g>
   </g>
   <g id="xtick_2">
    <g id="line2d_3">
     <path d="M 168.319982 255.800928 
L 166.08097 257.789956 
" style="fill: none; stroke: #000000; stroke-width: 0.8; stroke-linecap: square"/>
    </g>
    <g id="text_2">
     <!-- −0.2 -->
     <g transform="translate(147.940862 280.01671) scale(0.1 -0.1)">
      <defs>
       <path id="DejaVuSans-32" d="M 1228 531 
L 3431 531 
L 3431 0 
L 469 0 
L 469 531 
Q 828 903 1448 1529 
Q 2069 2156 2228 2338 
Q 2531 2678 2651 2914 
Q 2772 3150 2772 3378 
Q 2772 3750 2511 3984 
Q 2250 4219 1831 4219 
Q 1534 4219 1204 4116 
Q 875 4013 500 3803 
L 500 4441 
Q 881 4594 1212 4672 
Q 1544 4750 1819 4750 
Q 2544 4750 2975 4387 
Q 3406 4025 3406 3419 
Q 3406 3131 3298 2873 
Q 3191 2616 2906 2266 
Q 2828 2175 2409 1742 
Q 1991 1309 1228 531 
z
" transform="scale(0.015625)"/>
      </defs>
      <use xlink:href="#DejaVuSans-2212"/>
      <use xlink:href="#DejaVuSans-30" x="83.789062"/>
      <use xlink:href="#DejaVuSans-2e" x="147.412109"/>
      <use xlink:href="#DejaVuSans-32" x="179.199219"/>
     </g>
    </g>
   </g>
   <g id="xtick_3">
    <g id="line2d_4">
     <path d="M 196.69995 265.060666 
L 194.500531 267.090184 
" style="fill: none; stroke: #000000; stroke-width: 0.8; stroke-linecap: square"/>
    </g>
    <g id="text_3">
     <!-- 0.0 -->
     <g transform="translate(180.555708 289.487318) scale(0.1 -0.1)">
      <use xlink:href="#DejaVuSans-30"/>
      <use xlink:href="#DejaVuSans-2e" x="63.623047"/>
      <use xlink:href="#DejaVuSans-30" x="95.410156"/>
     </g>
    </g>
   </g>
   <g id="xtick_4">
    <g id="line2d_5">
     <path d="M 225.659969 274.509662 
L 223.502242 276.580919 
" style="fill: none; stroke: #000000; stroke-width: 0.8; stroke-linecap: square"/>
    </g>
    <g id="text_4">
     <!-- 0.2 -->
     <g transform="translate(209.564345 299.152381) scale(0.1 -0.1)">
      <use xlink:href="#DejaVuSans-30"/>
      <use xlink:href="#DejaVuSans-2e" x="63.623047"/>
      <use xlink:href="#DejaVuSans-32" x="95.410156"/>
     </g>
    </g>
   </g>
   <g id="xtick_5">
    <g id="line2d_6">
     <path d="M 255.218008 284.153777 
L 253.104175 286.268074 
" style="fill: none; stroke: #000000; stroke-width: 0.8; stroke-linecap: square"/>
    </g>
    <g id="text_5">
     <!-- 0.4 -->
     <g transform="translate(239.174779 309.01795) scale(0.1 -0.1)">
      <use xlink:href="#DejaVuSans-30"/>
      <use xlink:href="#DejaVuSans-2e" x="63.623047"/>
      <use xlink:href="#DejaVuSans-34" x="95.410156"/>
     </g>
    </g>
   </g>
   <g id="text_6">
    <!-- r -->
    <g transform="translate(177.620959 303.76759) scale(0.1 -0.1)">
     <defs>
      <path id="DejaVuSans-72" d="M 2631 2963 
Q 2534 3019 2420 3045 
Q 2306 3072 2169 3072 
Q 1681 3072 1420 2755 
Q 1159 2438 1159 1844 
L 1159 0 
L 581 0 
L 581 3500 
L 1159 3500 
L 1159 2956 
Q 1341 3275 1631 3429 
Q 1922 3584 2338 3584 
Q 2397 3584 2469 3576 
Q 2541 3569 2628 3553 
L 2631 2963 
z
" transform="scale(0.015625)"/>
     </defs>
     <use xlink:href="#DejaVuSans-72"/>
    </g>
   </g>
  </g>
  <g id="axis3d_2">
   <g id="line2d_7">
    <path d="M 352.090401 209.294766 
L 272.679269 290.790123 
" style="fill: none; stroke: #000000; stroke-width: 0.8; stroke-linecap: square"/>
   </g>
   <g id="xtick_6">
    <g id="line2d_8">
     <path d="M 281.395758 280.158521 
L 285.151326 281.367745 
" style="fill: none; stroke: #000000; stroke-width: 0.8; stroke-linecap: square"/>
    </g>
    <g id="text_7">
     <!-- −0.4 -->
     <g transform="translate(283.325813 301.514986) scale(0.1 -0.1)">
      <use xlink:href="#DejaVuSans-2212"/>
      <use xlink:href="#DejaVuSans-30" x="83.789062"/>
      <use xlink:href="#DejaVuSans-2e" x="147.412109"/>
      <use xlink:href="#DejaVuSans-34" x="179.199219"/>
     </g>
    </g>
   </g>
   <g id="xtick_7">
    <g id="line2d_9">
     <path d="M 297.445222 263.717326 
L 301.155291 264.884581 
" style="fill: none; stroke: #000000; stroke-width: 0.8; stroke-linecap: square"/>
    </g>
    <g id="text_8">
     <!-- −0.2 -->
     <g transform="translate(299.144994 284.816287) scale(0.1 -0.1)">
      <use xlink:href="#DejaVuSans-2212"/>
      <use xlink:href="#DejaVuSans-30" x="83.789062"/>
      <use xlink:href="#DejaVuSans-2e" x="147.412109"/>
      <use xlink:href="#DejaVuSans-32" x="179.199219"/>
     </g>
    </g>
   </g>
   <g id="xtick_8">
    <g id="line2d_10">
     <path d="M 312.942742 247.841548 
L 316.608191 248.968982 
" style="fill: none; stroke: #000000; stroke-width: 0.8; stroke-linecap: square"/>
    </g>
    <g id="text_9">
     <!-- 0.0 -->
     <g transform="translate(318.609453 268.692429) scale(0.1 -0.1)">
      <use xlink:href="#DejaVuSans-30"/>
      <use xlink:href="#DejaVuSans-2e" x="63.623047"/>
      <use xlink:href="#DejaVuSans-30" x="95.410156"/>
     </g>
    </g>
   </g>
   <g id="xtick_9">
    <g id="line2d_11">
     <path d="M 327.916306 232.502514 
L 331.538007 233.592129 
" style="fill: none; stroke: #000000; stroke-width: 0.8; stroke-linecap: square"/>
    </g>
    <g id="text_10">
     <!-- 0.2 -->
     <g transform="translate(333.367149 253.114231) scale(0.1 -0.1)">
      <use xlink:href="#DejaVuSans-30"/>
      <use xlink:href="#DejaVuSans-2e" x="63.623047"/>
      <use xlink:href="#DejaVuSans-32" x="95.410156"/>
     </g>
    </g>
   </g>
   <g id="xtick_10">
    <g id="line2d_12">
     <path d="M 342.392046 217.673455 
L 345.970856 218.727124 
" style="fill: none; stroke: #000000; stroke-width: 0.8; stroke-linecap: square"/>
    </g>
    <g id="text_11">
     <!-- 0.4 -->
     <g transform="translate(347.633727 238.054456) scale(0.1 -0.1)">
      <use xlink:href="#DejaVuSans-30"/>
      <use xlink:href="#DejaVuSans-2e" x="63.623047"/>
      <use xlink:href="#DejaVuSans-34" x="95.410156"/>
     </g>
    </g>
   </g>
   <g id="text_12">
    <!-- z -->
    <g transform="translate(338.508563 278.988697) scale(0.1 -0.1)">
     <defs>
      <path id="DejaVuSans-7a" d="M 353 3500 
L 3084 3500 
L 3084 2975 
L 922 459 
L 3084 459 
L 3084 0 
L 275 0 
L 275 525 
L 2438 3041 
L 353 3041 
L 353 3500 
z
" transform="scale(0.015625)"/>
     </defs>
     <use xlink:href="#DejaVuSans-7a"/>
    </g>
   </g>
  </g>
  <g id="axis3d_3">
   <g id="line2d_13">
    <path d="M 352.090401 209.294766 
L 357.122702 99.402171 
" style="fill: none; stroke: #000000; stroke-width: 0.8; stroke-linecap: square"/>
   </g>
   <g id="xtick_11">
    <g id="line2d_14">
     <path d="M 351.462276 196.691975 
L 355.034024 197.715298 
" style="fill: none; stroke: #000000; stroke-width: 0.8; stroke-linecap: square"/>
    </g>
    <g id="text_13">
     <!-- −0.4 -->
     <g transform="translate(358.848394 202.050217) scale(0.1 -0.1)">
      <use xlink:href="#DejaVuSans-2212"/>
      <use xlink:href="#DejaVuSans-30" x="83.789062"/>
      <use xlink:href="#DejaVuSans-2e" x="147.412109"/>
      <use xlink:href="#DejaVuSans-34" x="179.199219"/>
     </g>
    </g>
   </g>
   <g id="xtick_12">
    <g id="line2d_15">
     <path d="M 352.393813 176.130123 
L 355.996504 177.13721 
" style="fill: none; stroke: #000000; stroke-width: 0.8; stroke-linecap: square"/>
    </g>
    <g id="text_14">
     <!-- −0.2 -->
     <g transform="translate(359.939887 181.523976) scale(0.1 -0.1)">
      <use xlink:href="#DejaVuSans-2212"/>
      <use xlink:href="#DejaVuSans-30" x="83.789062"/>
      <use xlink:href="#DejaVuSans-2e" x="147.412109"/>
      <use xlink:href="#DejaVuSans-32" x="179.199219"/>
     </g>
    </g>
   </g>
   <g id="xtick_13">
    <g id="line2d_16">
     <path d="M 353.341016 155.22245 
L 356.975191 156.212608 
" style="fill: none; stroke: #000000; stroke-width: 0.8; stroke-linecap: square"/>
    </g>
    <g id="text_15">
     <!-- 0.0 -->
     <g transform="translate(365.239531 160.653431) scale(0.1 -0.1)">
      <use xlink:href="#DejaVuSans-30"/>
      <use xlink:href="#DejaVuSans-2e" x="63.623047"/>
      <use xlink:href="#DejaVuSans-30" x="95.410156"/>
     </g>
    </g>
   </g>
   <g id="xtick_14">
    <g id="line2d_17">
     <path d="M 354.304285 133.960157 
L 357.970499 134.932664 
" style="fill: none; stroke: #000000; stroke-width: 0.8; stroke-linecap: square"/>
    </g>
    <g id="text_16">
     <!-- 0.2 -->
     <g transform="translate(366.368105 139.429846) scale(0.1 -0.1)">
      <use xlink:href="#DejaVuSans-30"/>
      <use xlink:href="#DejaVuSans-2e" x="63.623047"/>
      <use xlink:href="#DejaVuSans-32" x="95.410156"/>
     </g>
    </g>
   </g>
   <g id="xtick_15">
    <g id="line2d_18">
     <path d="M 355.284032 112.334145 
L 358.982853 113.288249 
" style="fill: none; stroke: #000000; stroke-width: 0.8; stroke-linecap: square"/>
    </g>
    <g id="text_17">
     <!-- 0.4 -->
     <g transform="translate(367.515933 117.844187) scale(0.1 -0.1)">
      <use xlink:href="#DejaVuSans-30"/>
      <use xlink:href="#DejaVuSans-2e" x="63.623047"/>
      <use xlink:href="#DejaVuSans-34" x="95.410156"/>
     </g>
    </g>
   </g>
   <g id="text_18">
    <!-- p_r -->
    <g transform="translate(387.197542 152.624154) scale(0.1 -0.1)">
     <defs>
      <path id="DejaVuSans-70" d="M 1159 525 
L 1159 -1331 
L 581 -1331 
L 581 3500 
L 1159 3500 
L 1159 2969 
Q 1341 3281 1617 3432 
Q 1894 3584 2278 3584 
Q 2916 3584 3314 3078 
Q 3713 2572 3713 1747 
Q 3713 922 3314 415 
Q 2916 -91 2278 -91 
Q 1894 -91 1617 61 
Q 1341 213 1159 525 
z
M 3116 1747 
Q 3116 2381 2855 2742 
Q 2594 3103 2138 3103 
Q 1681 3103 1420 2742 
Q 1159 2381 1159 1747 
Q 1159 1113 1420 752 
Q 1681 391 2138 391 
Q 2594 391 2855 752 
Q 3116 1113 3116 1747 
z
" transform="scale(0.015625)"/>
      <path id="DejaVuSans-5f" d="M 3263 -1063 
L 3263 -1509 
L -63 -1509 
L -63 -1063 
L 3263 -1063 
z
" transform="scale(0.015625)"/>
     </defs>
     <use xlink:href="#DejaVuSans-70"/>
     <use xlink:href="#DejaVuSans-5f" x="63.476562"/>
     <use xlink:href="#DejaVuSans-72" x="113.476562"/>
    </g>
   </g>
  </g>
  <g id="axes_1">
   <g id="line2d_19">
    <path d="M 205.504371 170.725164 
L 206.351008 167.073948 
L 212.292421 151.195719 
L 221.012823 138.004154 
L 232.457494 127.773099 
L 246.122787 121.803186 
L 258.864027 121.657543 
L 266.979066 125.592442 
L 271.785448 132.341899 
L 272.947675 140.310823 
L 270.34043 150.949081 
L 264.246393 161.876782 
L 257.28094 170.954215 
L 249.206581 179.944382 
L 241.011365 188.287245 
L 231.26175 197.57176 
L 221.095384 206.367074 
L 211.582999 213.048812 
L 203.184371 216.527023 
L 195.849426 216.068485 
L 190.639585 211.695203 
L 187.076242 202.351423 
L 186.834119 188.139531 
L 191.584719 170.273774 
L 201.43261 153.145165 
L 214.515995 139.790423 
L 232.210922 129.422905 
L 251.414553 124.845845 
L 264.887006 125.625714 
L 275.905601 129.746557 
L 284.077782 137.456872 
L 287.26018 146.502087 
L 286.076309 157.63445 
L 280.255911 169.713832 
L 271.826988 180.476609 
L 260.707885 191.233268 
L 248.914297 200.544965 
L 234.574622 209.758472 
L 219.230914 216.799333 
L 205.062884 219.525945 
L 194.423211 217.702457 
L 185.788813 211.783608 
L 179.59647 201.399313 
L 177.271356 185.994765 
L 179.969406 170.921238 
L 187.341557 156.26252 
L 199.263946 143.467293 
L 217.032416 132.988652 
L 239.039367 127.39835 
L 257.017548 127.277751 
L 273.210948 130.725251 
L 287.783894 138.225291 
L 295.456757 146.078609 
L 299.588405 155.170092 
L 300.015251 166.316646 
L 295.774786 178.976946 
L 287.562219 191.266313 
L 276.843412 202.251227 
L 265.309302 211.088109 
L 250.441593 219.165898 
L 233.236516 223.918293 
L 219.375207 223.492435 
L 206.69168 218.645438 
L 196.279938 209.730977 
L 187.952221 195.497621 
L 184.287965 177.103391 
L 186.095077 161.133871 
L 192.500543 146.370514 
L 203.587524 133.925617 
L 220.370468 124.717056 
L 240.914538 121.272179 
L 258.386177 123.237689 
L 274.065497 128.953434 
L 285.896066 136.839583 
L 294.437724 146.482064 
L 299.641503 158.004057 
L 300.81573 171.39369 
L 298.091079 183.863929 
L 293.233865 194.270592 
L 286.82337 203.493757 
L 277.580891 212.835531 
L 265.767087 220.444979 
L 254.837286 223.942942 
L 243.570179 224.189521 
L 232.157391 220.857226 
L 220.066685 212.747454 
L 210.047405 200.808949 
L 202.346353 184.221067 
L 199.266188 164.603694 
L 201.200866 148.995249 
L 207.134974 135.173768 
L 216.964623 124.154509 
L 231.165095 116.935238 
L 247.653086 115.729113 
L 261.201781 119.683873 
L 272.42333 127.374201 
L 280.951869 138.725187 
L 285.559868 153.55614 
L 285.541774 168.520849 
L 282.933601 180.725907 
L 278.85242 191.703057 
L 272.702447 203.176983 
L 265.080899 213.029416 
L 257.132038 219.439856 
L 248.781525 222.323447 
L 240.718088 221.494651 
L 231.627847 216.249415 
L 222.878788 206.184706 
L 216.151403 193.084688 
L 211.605572 176.072065 
L 211.11008 156.918496 
L 214.223814 142.900491 
L 220.260048 131.008083 
L 228.986547 121.982815 
L 240.414545 116.720034 
L 252.475919 116.921112 
L 262.427739 122.47402 
L 268.355128 131.368347 
L 270.491896 142.407892 
L 268.661392 157.005852 
L 264.16092 170.175821 
L 257.786608 183.493833 
L 251.392452 194.520282 
L 244.567463 204.49398 
L 236.873405 213.343552 
L 228.887901 219.049646 
L 221.907484 220.137101 
L 215.624605 216.798697 
L 210.432548 209.046045 
L 206.842434 196.822091 
L 205.942355 180.275295 
L 209.246936 161.169211 
L 214.893735 147.419045 
L 222.848165 135.826033 
L 233.991181 126.183782 
L 247.079354 120.931756 
L 259.090984 121.41835 
L 266.381732 125.597307 
L 270.574129 132.313577 
L 271.407649 140.618318 
L 268.445351 151.435886 
L 262.207353 162.472758 
L 254.161043 173.03405 
L 246.752449 181.519511 
L 239.247276 189.545834 
L 230.204602 198.661258 
L 220.727932 207.298521 
L 211.771701 213.776733 
L 203.780874 216.899704 
L 197.067762 215.921419 
L 192.099491 210.735465 
L 189.067866 200.518739 
L 189.481918 185.558515 
L 194.947422 167.281596 
L 205.117586 150.519594 
L 218.478208 137.469072 
L 236.02415 127.826572 
L 254.297701 124.210447 
L 266.605685 125.614978 
L 276.344633 130.15573 
L 283.139762 138.068953 
L 285.244651 147.028834 
L 283.039585 158.360009 
L 277.593158 168.581707 
L 269.578744 178.652282 
L 258.852034 189.087194 
L 247.09272 198.554352 
L 233.14565 207.883758 
L 218.435014 215.254389 
L 205.016733 218.661805 
L 194.412723 217.624715 
L 185.822427 212.330369 
L 179.866346 202.818784 
L 177.460881 188.182342 
L 180.077251 172.747856 
L 187.657915 157.479528 
L 199.523589 144.524507 
L 217.190467 133.718705 
L 239.095896 127.701885 
L 256.93622 127.268127 
L 273.054291 130.499729 
L 287.272109 137.779973 
L 294.697185 145.550501 
L 298.542057 154.598279 
L 298.600502 165.774909 
L 293.924464 178.42527 
L 285.482868 190.484267 
L 274.375116 201.550063 
L 262.606705 210.406557 
L 247.491222 218.574449 
L 230.149449 223.438651 
L 216.043434 223.040937 
L 203.303861 218.014909 
L 193.312324 209.053049 
L 185.516175 194.725811 
L 182.592157 176.338751 
L 184.913121 161.165734 
L 191.484297 147.179545 
L 203.042278 134.796599 
L 220.347565 125.704491 
L 241.305759 122.349258 
L 259.391101 124.368841 
L 275.041661 129.946345 
L 287.404931 138.057148 
L 296.115175 148.02636 
L 300.887022 159.18639 
L 301.681098 172.202284 
L 298.031796 185.829229 
L 292.458876 196.132294 
L 285.347568 205.204975 
L 275.287515 214.287256 
L 262.575276 221.488313 
L 250.992346 224.476886 
L 239.201166 224.07842 
L 227.457647 219.958197 
L 215.550024 211.075782 
L 205.67383 197.907989 
L 198.894488 180.323147 
L 197.383846 160.395135 
L 200.463405 145.953345 
L 206.689216 133.987524 
L 217.744141 123.182886 
L 233.150078 116.741178 
L 250.414039 116.589341 
L 263.583745 121.021111 
L 274.477828 128.688646 
L 283.175151 140.123511 
L 287.946161 154.798228 
L 287.899034 171.18689 
L 285.059455 183.384811 
L 280.653383 194.379459 
L 274.258004 205.375215 
L 266.095432 214.858684 
L 258.142642 220.379791 
L 249.792649 222.643421 
L 241.203116 221.385043 
L 231.585454 215.644744 
L 222.431553 205.214689 
L 215.310415 191.615673 
L 210.621892 174.232842 
L 210.244403 155.09616 
L 213.378737 141.692144 
L 219.296009 130.322492 
L 228.295226 121.278335 
L 240.089379 116.169143 
L 252.57611 116.634614 
L 262.969109 122.486221 
L 269.336926 131.670228 
L 271.957679 143.694561 
L 270.353942 159.010522 
L 266.27155 171.919678 
L 260.431678 184.866106 
L 254.267141 195.902149 
L 247.610197 205.761597 
L 239.843906 214.524258 
L 232.691371 219.448669 
L 225.825078 220.614029 
L 219.260434 217.517606 
L 213.405258 209.585927 
L 209.324259 197.667782 
L 207.646511 181.373934 
L 209.934552 162.362157 
L 215.089843 147.812725 
L 222.919763 135.432235 
L 233.284497 125.906545 
L 245.754714 120.476155 
L 257.542411 120.673694 
L 264.893788 124.722059 
L 269.16948 131.313823 
L 270.163973 140.011235 
L 267.301075 151.014575 
L 261.196221 162.322854 
L 253.218872 173.353838 
L 246.078086 182.037451 
L 238.624085 190.533571 
L 230.277445 199.49051 
L 221.370484 208.062168 
L 212.814379 214.44499 
L 205.109946 217.286278 
L 198.919301 215.940937 
L 194.130197 210.208235 
L 191.378088 199.439612 
L 192.07149 184.024005 
L 197.760125 165.505797 
L 207.962719 148.81852 
L 221.124415 136.037985 
L 238.145791 126.831637 
L 255.52363 123.700991 
L 267.212431 125.481192 
L 276.148226 130.4157 
L 281.763865 138.346999 
L 282.99783 147.856759 
L 279.718543 159.302324 
L 274.009586 168.793912 
L 266.216455 178.111899 
L 255.600671 188.265501 
L 244.227885 197.463853 
L 230.591394 206.822723 
L 216.640532 214.205828 
L 204.16855 217.852174 
L 193.189954 217.022828 
L 185.217972 211.83321 
L 179.829563 202.329107 
L 178.080733 187.768727 
L 181.229394 172.406109 
L 189.236785 157.208056 
L 201.56713 144.161801 
L 219.610254 133.371405 
L 241.455531 127.534321 
L 258.66689 127.253381 
L 273.901163 130.502661 
L 287.370812 137.835416 
L 294.331685 145.924196 
L 297.375315 154.685003 
L 296.701609 166.078027 
L 291.238023 178.752782 
L 282.554377 190.306135 
L 271.089755 201.269691 
L 258.868626 210.192487 
L 243.382952 218.330817 
L 225.977751 222.994004 
L 212.152841 222.37687 
L 199.897331 217.208284 
L 190.387682 208.123012 
L 183.244194 193.647891 
L 181.205523 175.271016 
L 184.099136 160.885174 
L 190.785714 147.854458 
L 202.853765 135.565553 
L 220.687299 126.625927 
L 241.987354 123.390485 
L 262.260482 125.881623 
L 278.547581 132.175038 
L 290.14221 140.404114 
L 298.02613 150.308156 
L 302.000961 161.368921 
L 301.913707 174.209999 
L 297.390428 187.57043 
L 291.10003 197.738232 
L 283.280371 206.67651 
L 272.392714 215.536615 
L 258.785901 222.356597 
L 246.543282 224.839643 
L 234.256132 223.748422 
L 222.329168 218.788678 
L 211.15503 209.534814 
L 201.646174 195.416114 
L 195.855701 177.101327 
L 195.523457 159.156783 
L 199.522986 144.373686 
L 207.002765 132.25541 
L 219.611812 121.982029 
L 236.36802 116.732483 
L 254.232685 117.955521 
L 267.652898 123.418953 
L 278.383802 131.883437 
L 286.579877 143.856211 
L 290.664946 158.663677 
L 290.303401 172.876144 
L 287.434726 184.737309 
L 282.971572 195.446946 
L 276.501329 206.081852 
L 268.017965 215.411477 
L 259.781861 220.753477 
L 251.097039 222.908396 
L 242.118857 221.617371 
L 232.013418 215.90555 
L 222.320111 205.505523 
L 214.703288 191.870267 
L 209.593501 174.4078 
L 208.929194 155.219176 
L 211.924275 141.803805 
L 217.774786 130.37264 
L 226.923443 121.126626 
L 239.064232 115.862124 
L 252.093671 116.254027 
L 263.180926 122.140627 
L 270.22646 131.397676 
L 273.612747 143.905428 
L 272.627607 159.697064 
L 269.031169 172.581491 
L 263.643105 185.438798 
L 256.964229 197.776872 
L 250.292786 207.56946 
L 242.374751 216.033642 
L 235.627896 220.159627 
L 229.080675 220.946601 
L 222.199627 217.608452 
L 215.893461 209.304611 
L 211.439835 197.338589 
L 209.222877 181.023172 
L 210.855546 162.022985 
L 215.572748 147.237297 
L 223.075238 134.686476 
L 232.844244 125.34682 
L 244.799744 119.915647 
L 256.353723 120.010975 
L 263.876405 124.185044 
L 268.165864 130.938578 
L 269.163208 140.00728 
L 266.280762 151.350497 
L 260.210513 163.066017 
L 252.268765 174.65016 
L 244.91383 184.139609 
L 237.263109 193.369319 
L 229.256242 202.335779 
L 220.776568 210.543437 
L 212.6416 216.10835 
L 206.265818 217.719758 
L 201.043737 215.972759 
L 196.408255 209.742154 
L 193.818082 198.48101 
L 194.64011 182.670429 
L 200.37862 163.955133 
L 210.490308 147.308136 
L 223.275846 134.829079 
L 239.642432 125.998306 
L 256.148759 123.222563 
L 267.344564 125.316134 
L 275.592243 130.62806 
L 280.163011 138.463242 
L 280.612821 148.299132 
L 276.555904 159.685883 
L 270.706736 168.660456 
L 263.096518 177.463499 
L 252.753411 187.300046 
L 241.822218 196.280475 
L 228.65806 205.660197 
L 215.527853 213.107256 
L 203.944748 217.061632 
L 193.688926 216.896168 
L 186.013483 212.393959 
L 180.820512 203.643011 
L 178.980669 189.803161 
L 182.632008 172.312415 
L 191.500192 156.296475 
L 204.46676 143.136655 
L 222.965168 132.506534 
L 244.273084 127.142806 
L 261.072914 127.178869 
L 275.147853 130.59995 
L 287.599829 138.141286 
L 293.882537 146.770294 
L 295.984142 156.395987 
L 293.776089 168.306197 
L 286.917831 180.896459 
L 277.383328 192.097153 
L 265.558166 202.509865 
L 252.256531 211.524285 
L 236.056954 219.175367 
L 218.795253 222.649235 
L 205.914741 220.939768 
L 194.822812 214.924674 
L 186.098972 204.597446 
L 180.554684 189.046263 
L 180.75399 170.410301 
L 185.995159 155.416412 
L 195.409062 142.638631 
L 210.750341 131.643069 
L 231.188499 125.264946 
L 252.670116 124.89583 
L 271.002338 129.203369 
L 286.550639 137.402491 
L 295.410277 145.878755 
L 300.577321 154.88069 
L 302.766663 166.411601 
L 300.577958 179.411955 
L 295.213762 190.713125 
L 287.374801 201.212791 
L 278.01165 210.194944 
L 265.549448 218.518461 
L 250.571546 224.025466 
L 238.668075 224.933914 
L 227.015703 222.540071 
L 214.998374 215.908462 
L 204.361953 204.795099 
L 196.208393 188.736348 
L 192.869721 169.272078 
L 194.799006 153.369974 
L 200.980675 139.076486 
L 211.55226 127.286136 
L 227.173443 119.216699 
L 245.669744 117.280664 
L 261.149221 120.710038 
L 274.438333 127.975928 
L 284.015488 137.436817 
L 290.856058 150.279671 
L 293.307886 165.388453 
L 291.854275 178.269984 
L 287.81018 190.68062 
L 282.138032 201.455032 
L 274.389257 211.475907 
L 264.733994 219.262315 
L 256.451273 222.57898 
L 248.324386 223.096465 
L 238.332015 220.171713 
L 227.636108 212.48825 
L 218.544213 201.181742 
L 211.22234 185.86097 
L 207.307259 167.062746 
L 208.146319 150.309292 
L 212.395297 137.02432 
L 219.34634 126.556731 
L 230.13643 118.355232 
L 243.426377 115.066634 
L 256.709465 117.720291 
L 266.828087 125.04302 
L 272.992589 134.923909 
L 275.839414 149.223223 
L 273.990885 165.805776 
L 270.019429 178.608917 
L 264.788901 190.464234 
L 257.998153 202.347258 
L 250.677231 212.000183 
L 242.44573 218.993633 
L 234.768617 221.397912 
L 227.758981 219.582375 
L 220.599015 212.799955 
L 215.238423 202.663725 
L 211.367053 188.033993 
L 210.556159 169.909072 
L 214.215982 150.927489 
L 220.26052 137.931669 
L 228.275663 128.057915 
L 239.168135 120.853911 
L 250.973787 118.663797 
L 260.886396 121.926205 
L 266.623458 128.679759 
L 268.5911 137.723902 
L 266.698957 149.058395 
L 261.327433 161.277625 
L 253.774087 173.556085 
L 245.66945 184.903794 
L 237.746246 195.091806 
L 230.058837 204.091939 
L 221.867521 212.110776 
L 213.971346 217.156959 
L 207.134867 217.912298 
L 201.844119 214.448544 
L 197.78939 206.173146 
L 196.148219 192.973961 
L 198.327384 175.698738 
L 204.294894 159.329957 
L 213.936848 144.416664 
L 226.674342 132.545583 
L 242.526237 124.652923 
L 257.944719 122.848894 
L 268.139752 125.59293 
L 275.243 131.39777 
L 278.563533 139.093769 
L 278.027185 149.264243 
L 273.144814 160.522365 
L 267.037809 169.161538 
L 259.592864 177.472879 
L 249.520939 187.005161 
L 238.44146 196.246586 
L 225.804806 205.528297 
L 213.646128 212.73928 
L 203.069471 216.599113 
L 193.550828 216.541309 
L 186.572902 212.300649 
L 181.784136 203.652891 
L 180.324287 189.967466 
L 184.206259 172.516319 
L 193.348961 156.146035 
L 206.403655 142.841066 
L 224.843738 132.105131 
L 245.896771 126.739039 
L 261.921226 126.834266 
L 275.358078 130.297041 
L 286.960282 137.834193 
L 293.028076 147.713725 
L 293.960424 158.157435 
L 290.189197 170.433274 
L 282.281354 182.612942 
L 271.560506 193.956529 
L 259.633975 203.690204 
L 245.38955 212.689875 
L 228.809531 219.691135 
L 212.180686 221.937608 
L 200.51872 219.360425 
L 190.687864 212.82446 
L 182.861171 201.539027 
L 178.881711 185.279222 
L 180.329984 169.344961 
L 186.800268 154.002893 
L 197.659553 141.293838 
L 214.430058 130.978652 
L 235.816527 125.63622 
L 254.669797 125.853329 
L 272.006984 129.970016 
L 287.387867 138.05338 
L 295.881862 146.261898 
L 300.844402 155.226661 
L 302.662899 166.531906 
L 300.066717 179.359275 
L 294.122411 190.854168 
L 285.555815 201.55438 
L 275.732318 210.436806 
L 262.706328 218.710287 
L 247.088608 224.139944 
L 234.360028 224.834542 
L 222.074133 221.840017 
L 210.366827 214.666613 
L 200.014558 202.66103 
L 192.752623 185.84061 
L 190.832058 166.09869 
L 193.784 151.309935 
L 200.243017 138.624364 
L 211.880882 126.999769 
L 228.601896 119.502235 
L 247.825722 118.316218 
L 263.745404 122.316124 
L 276.919075 129.787247 
L 286.112015 138.871811 
L 292.919393 151.270071 
L 295.510209 165.885856 
L 294.090221 178.878843 
L 289.861275 191.374223 
L 284.112678 201.797633 
L 276.088778 211.701408 
L 266.01057 219.468186 
L 257.554208 222.776225 
L 249.095315 223.438584 
L 238.801644 220.814119 
L 227.641601 213.50919 
L 217.959973 202.357279 
L 210.141595 187.160845 
L 205.7845 168.42925 
L 206.32506 151.427891 
L 210.447751 137.887379 
L 217.404632 127.144983 
L 228.415675 118.588248 
L 242.204959 114.965291 
L 256.223079 117.385403 
L 267.26006 124.690992 
L 274.114376 134.408772 
L 277.906455 148.707813 
L 276.914138 165.442482 
L 273.503355 178.129398 
L 268.797089 189.703845 
L 262.281742 201.703393 
L 255.10263 211.510205 
L 246.806728 218.842408 
L 238.907535 221.637543 
L 231.703303 220.288005 
L 224.051783 214.12014 
L 217.661592 203.731718 
L 213.028395 189.560392 
L 211.169709 171.762756 
L 213.641309 152.672878 
L 218.564363 139.855436 
L 225.226327 130.030749 
L 235.101931 121.839728 
L 246.699292 118.079537 
L 257.495776 119.852709 
L 264.805134 126.068317 
L 268.071706 134.852368 
L 267.639002 145.422365 
L 263.467096 158.091689 
L 256.610046 171.09983 
L 248.742133 183.336574 
L 241.76946 193.115328 
L 234.9889 201.792187 
L 227.121184 210.423827 
L 219.16043 216.616453 
L 212.713178 218.642626 
L 207.240142 217.052937 
L 202.476954 211.248126 
L 199.265346 200.457888 
L 198.949351 185.045915 
L 203.003325 166.424362 
L 209.904084 151.597099 
L 218.966745 139.555223 
L 232.188081 128.845696 
L 247.554149 122.887579 
L 261.379301 122.989465 
L 269.792137 126.812639 
L 275.097216 133.214095 
L 276.897841 141.620128 
L 274.59795 152.317403 
L 268.472822 163.326945 
L 261.511801 172.069439 
L 253.605009 180.335323 
L 243.584296 189.58843 
L 232.159627 199.115491 
L 220.291896 207.820982 
L 209.46688 213.983323 
L 200.255663 216.746918 
L 192.911072 215.981481 
L 187.299638 211.947608 
L 182.987348 203.025997 
L 182.08645 189.162016 
L 186.460118 171.57811 
L 195.979455 155.076741 
L 209.302064 141.721757 
L 227.789052 131.134124 
L 248.416424 126.134132 
L 263.631265 126.560936 
L 276.024298 130.233775 
L 286.493802 137.929825 
L 291.498658 147.661189 
L 291.631537 158.461985 
L 286.966703 170.807211 
L 278.682829 182.531143 
L 267.579672 193.753766 
L 255.660926 203.225857 
L 241.144648 212.263815 
L 224.734357 219.112363 
L 208.809494 221.183407 
L 197.630077 218.558345 
L 188.350833 212.010805 
L 181.158265 200.688208 
L 177.991686 184.4531 
L 180.085343 169.103112 
L 186.906065 154.375721 
L 198.308438 141.712164 
L 215.610817 131.51484 
L 237.348428 126.309643 
L 255.784318 126.544776 
L 272.640816 130.460495 
L 287.828476 138.377506 
L 296.004649 146.358834 
L 300.793715 155.414874 
L 302.198936 166.58968 
L 299.124136 179.312657 
L 291.819704 191.997459 
L 282.288976 202.791102 
L 271.583773 211.64722 
L 257.642864 219.668859 
L 241.256562 224.461078 
L 228.406615 224.394455 
L 216.241924 220.558053 
L 205.276433 212.793841 
L 195.517802 199.767217 
L 189.492352 182.143584 
L 189.331858 162.339795 
L 194.18651 147.03394 
L 203.038666 134.433107 
L 217.480635 124.13216 
L 236.324794 119.147405 
L 255.892554 120.612021 
L 272.15941 126.881705 
L 284.827853 136.525138 
L 292.719103 147.415319 
L 297.041265 160.810878 
L 296.841858 175.596648 
L 294.015962 186.224407 
L 289.392954 196.229288 
L 282.606732 206.20143 
L 273.309454 215.399693 
L 262.194041 221.74792 
L 251.37743 223.820292 
L 241.25483 222.318684 
L 229.790245 216.489065 
L 218.940691 206.060342 
L 210.242982 191.856511 
L 204.645034 173.747546 
L 204.156096 154.3365 
L 207.72389 140.522379 
L 214.055634 129.521982 
L 224.707697 120.062403 
L 238.705536 115.219044 
L 253.612636 116.4675 
L 264.974027 122.179846 
L 273.504245 131.139383 
L 279.220712 144.374576 
L 280.31035 160.687379 
L 278.035173 173.751198 
L 273.682098 186.626205 
L 267.767444 198.766188 
L 261.180071 208.758477 
L 253.006159 217.201883 
L 246.074703 221.064927 
L 239.50044 221.856652 
L 231.647156 218.928584 
L 223.661507 210.964407 
L 217.609426 200.044186 
L 212.998402 184.745362 
L 211.567969 166.286533 
L 214.081181 149.780129 
L 219.204785 137.136306 
L 226.344649 127.421211 
L 236.546583 120.008202 
L 248.182469 117.358216 
L 258.683514 120.25161 
L 265.356742 127.025595 
L 268.346857 136.470913 
L 267.4779 148.564716 
L 262.831836 162.130004 
L 256.953266 173.708138 
L 249.913654 185.340976 
L 242.215671 196.603671 
L 235.091296 205.731094 
L 227.188698 213.805453 
L 219.420161 218.522541 
L 212.902827 218.724489 
L 207.297996 214.475708 
L 203.125853 205.701744 
L 201.091682 192.071564 
L 202.622249 174.498104 
L 208.037583 157.513731 
L 217.186598 142.243881 
L 228.584566 131.00156 
L 242.847022 123.500717 
L 256.870075 121.841709 
L 266.476844 124.875055 
L 272.182919 130.273718 
L 274.799067 137.225023 
L 274.062841 147.178957 
L 269.229833 158.185161 
L 262.774732 167.39712 
L 254.772233 176.505007 
L 246.122546 185.126177 
L 235.976343 194.382384 
L 224.854982 203.641731 
L 214.222829 211.151471 
L 204.837392 215.689662 
L 196.792796 216.657395 
L 190.354981 213.696096 
L 185.700317 206.347603 
L 183.821407 193.944195 
L 186.497088 177.255878 
L 193.093406 162.215923 
L 202.856476 149.038825 
L 218.055979 136.430637 
L 237.479569 127.810683 
L 254.916338 125.350683 
L 270.403666 127.644931 
L 281.332716 133.416814 
L 287.70959 141.26079 
L 289.997351 150.314452 
L 288.050977 161.866243 
L 282.654405 172.437103 
L 274.52607 182.811094 
L 263.087399 193.815923 
L 251.442762 202.827404 
L 236.734405 211.87298 
L 220.707678 218.500691 
L 205.67456 220.391915 
L 195.110345 217.773377 
L 186.470071 211.328005 
L 179.902899 200.04663 
L 177.495227 183.907109 
L 180.139093 169.048687 
L 187.257313 154.807271 
L 199.124342 142.152991 
L 216.866411 131.994454 
L 238.853915 126.841424 
L 257.20731 127.096108 
L 273.487275 130.880703 
L 288.309445 138.706834 
L 296.138957 146.661048 
L 300.496603 155.681546 
L 301.355529 166.856171 
L 297.636681 179.551344 
L 289.801017 192.046887 
L 279.663514 202.882057 
L 268.467254 211.717393 
L 253.98879 219.699773 
L 237.120453 224.335316 
L 223.821174 223.961478 
L 211.438482 219.538045 
L 200.612938 210.978255 
L 191.571447 197.144564 
L 186.806533 178.963774 
L 187.688743 161.927731 
L 193.660872 146.016972 
L 203.870805 133.469537 
L 219.720415 123.895211 
L 239.552059 120.003238 
L 257.252384 121.858907 
L 273.144729 127.880408 
L 284.625558 135.937034 
L 292.546526 145.193218 
L 297.94255 157.370744 
L 299.139693 171.376561 
L 296.660264 183.574665 
L 291.513193 195.16231 
L 284.886494 204.88353 
L 275.614018 214.208467 
L 264.11991 221.214528 
L 254.611846 223.836632 
L 245.237844 223.787671 
L 233.957322 220.23295 
L 222.12681 211.859364 
L 212.46385 199.965892 
L 204.896589 183.492747 
L 201.724197 163.978732 
L 203.504079 148.27554 
L 209.277502 134.404259 
L 218.624385 123.658106 
L 232.096652 116.590837 
L 247.715167 115.387834 
L 260.652277 119.350622 
L 271.034797 126.917957 
L 278.867948 138.270706 
L 282.792504 153.371386 
L 282.197824 168.244602 
L 279.173082 180.782269 
L 274.662063 192.259036 
L 268.273834 203.846964 
L 260.653048 213.54928 
L 253.001477 219.59365 
L 245.08721 222.108387 
L 237.276078 220.844977 
L 228.708753 214.926353 
L 220.908943 204.403337 
L 215.032688 190.600797 
L 211.657133 173.105668 
L 212.50379 154.023621 
L 216.245535 141.162089 
L 222.413263 130.373317 
L 231.487995 121.734821 
L 242.891165 117.100539 
L 254.403066 117.958159 
L 263.251256 123.851704 
L 268.048324 132.789324 
L 269.091033 143.680155 
L 266.218852 157.621091 
L 260.999431 170.383671 
L 254.093516 183.31368 
L 247.60728 193.742274 
L 240.826185 203.28556 
L 233.156786 212.098941 
L 225.224915 218.10606 
L 218.150719 219.616014 
L 212.189375 216.729088 
L 207.486301 209.861015 
L 204.142046 198.093036 
L 203.576994 181.885834 
L 207.286099 162.899887 
L 213.492282 148.704873 
L 221.82546 137.085492 
L 233.744448 127.089171 
L 247.612062 121.656512 
L 260.165951 122.078812 
L 267.851622 126.267588 
L 272.294917 133.065611 
L 273.193822 141.485252 
L 270.167162 152.230457 
L 263.78543 163.097485 
L 256.899357 171.82433 
L 249.018505 180.448242 
L 240.575703 188.90961 
L 230.593606 198.244579 
L 220.301249 206.936968 
L 210.75562 213.392558 
L 202.386144 216.589725 
L 195.054091 215.822928 
L 189.878 211.092079 
L 186.489325 201.359228 
L 186.573885 186.808688 
L 191.814675 168.785501 
L 201.887632 152.148907 
L 215.455355 138.919979 
L 233.549877 128.935149 
L 252.792983 124.881587 
L 265.954249 125.967488 
L 276.504743 130.129537 
L 284.019828 137.065551 
L 287.553811 145.923777 
L 286.815333 156.884627 
L 281.375717 168.999157 
L 273.013252 180.020623 
L 262.068065 190.797805 
L 250.125272 200.329267 
L 235.864448 209.563602 
L 220.398198 216.750621 
L 205.970536 219.651363 
L 195.065256 217.922689 
L 186.182874 212.017745 
L 179.834047 201.728152 
L 177.278321 186.383234 
L 179.798987 171.187746 
L 187.079513 156.382198 
L 198.84733 143.588041 
L 216.471295 133.071542 
L 238.418466 127.404541 
L 256.486267 127.220962 
L 272.901404 130.657009 
L 287.610566 138.129781 
L 295.454753 146.023813 
L 299.719282 155.174645 
L 300.257021 166.29931 
L 296.146916 178.951967 
L 288.013712 191.294026 
L 277.389514 202.277684 
L 265.942709 211.106511 
L 251.161793 219.183645 
L 234.012599 223.960149 
L 220.176983 223.579178 
L 207.479211 218.806633 
L 196.990424 209.965335 
L 188.53185 195.812519 
L 184.668608 177.460525 
L 186.322065 161.296954 
L 192.666418 146.329306 
L 203.611222 133.865719 
L 220.240275 124.600345 
L 240.675612 121.084108 
L 258.201979 123.036331 
L 273.931507 128.807525 
L 285.597476 136.626623 
L 294.062669 146.169574 
L 299.344566 157.759766 
L 300.585696 171.223393 
L 297.940081 183.691005 
L 293.145634 194.14677 
L 286.780352 203.427978 
L 277.6086 212.796071 
L 265.89672 220.399532 
L 255.15896 223.865541 
L 244.080627 224.143218 
L 232.710254 220.860355 
L 220.639399 212.804809 
L 210.652694 200.991889 
L 202.888985 184.515414 
L 199.663734 164.954423 
L 201.482553 149.200501 
L 207.360566 135.232358 
L 217.04077 124.223322 
L 231.070121 116.951561 
L 247.409826 115.650564 
L 260.920339 119.547324 
L 272.105158 127.219734 
L 280.565106 138.549175 
L 285.11434 153.406789 
L 285.043147 168.377744 
L 282.397573 180.627363 
L 278.278689 191.667587 
L 272.109999 203.174162 
L 264.511111 213.017571 
L 256.604902 219.411782 
L 248.314221 222.271724 
L 240.299883 221.407025 
L 231.291005 216.099201 
L 222.667848 205.985102 
L 216.055376 192.816749 
L 211.655401 175.760322 
L 211.655401 175.760322 
" clip-path="url(#p2cb29209b6)" style="fill: none; stroke: #1f77b4; stroke-width: 0.5; stroke-linecap: square"/>
   </g>
   <g id="text_19">
    <!-- Projection onto r-z-p_r space with initial r = -0.24 -->
    <g transform="translate(89.055 35.472) scale(0.12 -0.12)">
     <defs>
      <path id="DejaVuSans-50" d="M 1259 4147 
L 1259 2394 
L 2053 2394 
Q 2494 2394 2734 2622 
Q 2975 2850 2975 3272 
Q 2975 3691 2734 3919 
Q 2494 4147 2053 4147 
L 1259 4147 
z
M 628 4666 
L 2053 4666 
Q 2838 4666 3239 4311 
Q 3641 3956 3641 3272 
Q 3641 2581 3239 2228 
Q 2838 1875 2053 1875 
L 1259 1875 
L 1259 0 
L 628 0 
L 628 4666 
z
" transform="scale(0.015625)"/>
      <path id="DejaVuSans-6f" d="M 1959 3097 
Q 1497 3097 1228 2736 
Q 959 2375 959 1747 
Q 959 1119 1226 758 
Q 1494 397 1959 397 
Q 2419 397 2687 759 
Q 2956 1122 2956 1747 
Q 2956 2369 2687 2733 
Q 2419 3097 1959 3097 
z
M 1959 3584 
Q 2709 3584 3137 3096 
Q 3566 2609 3566 1747 
Q 3566 888 3137 398 
Q 2709 -91 1959 -91 
Q 1206 -91 779 398 
Q 353 888 353 1747 
Q 353 2609 779 3096 
Q 1206 3584 1959 3584 
z
" transform="scale(0.015625)"/>
      <path id="DejaVuSans-6a" d="M 603 3500 
L 1178 3500 
L 1178 -63 
Q 1178 -731 923 -1031 
Q 669 -1331 103 -1331 
L -116 -1331 
L -116 -844 
L 38 -844 
Q 366 -844 484 -692 
Q 603 -541 603 -63 
L 603 3500 
z
M 603 4863 
L 1178 4863 
L 1178 4134 
L 603 4134 
L 603 4863 
z
" transform="scale(0.015625)"/>
      <path id="DejaVuSans-65" d="M 3597 1894 
L 3597 1613 
L 953 1613 
Q 991 1019 1311 708 
Q 1631 397 2203 397 
Q 2534 397 2845 478 
Q 3156 559 3463 722 
L 3463 178 
Q 3153 47 2828 -22 
Q 2503 -91 2169 -91 
Q 1331 -91 842 396 
Q 353 884 353 1716 
Q 353 2575 817 3079 
Q 1281 3584 2069 3584 
Q 2775 3584 3186 3129 
Q 3597 2675 3597 1894 
z
M 3022 2063 
Q 3016 2534 2758 2815 
Q 2500 3097 2075 3097 
Q 1594 3097 1305 2825 
Q 1016 2553 972 2059 
L 3022 2063 
z
" transform="scale(0.015625)"/>
      <path id="DejaVuSans-63" d="M 3122 3366 
L 3122 2828 
Q 2878 2963 2633 3030 
Q 2388 3097 2138 3097 
Q 1578 3097 1268 2742 
Q 959 2388 959 1747 
Q 959 1106 1268 751 
Q 1578 397 2138 397 
Q 2388 397 2633 464 
Q 2878 531 3122 666 
L 3122 134 
Q 2881 22 2623 -34 
Q 2366 -91 2075 -91 
Q 1284 -91 818 406 
Q 353 903 353 1747 
Q 353 2603 823 3093 
Q 1294 3584 2113 3584 
Q 2378 3584 2631 3529 
Q 2884 3475 3122 3366 
z
" transform="scale(0.015625)"/>
      <path id="DejaVuSans-74" d="M 1172 4494 
L 1172 3500 
L 2356 3500 
L 2356 3053 
L 1172 3053 
L 1172 1153 
Q 1172 725 1289 603 
Q 1406 481 1766 481 
L 2356 481 
L 2356 0 
L 1766 0 
Q 1100 0 847 248 
Q 594 497 594 1153 
L 594 3053 
L 172 3053 
L 172 3500 
L 594 3500 
L 594 4494 
L 1172 4494 
z
" transform="scale(0.015625)"/>
      <path id="DejaVuSans-69" d="M 603 3500 
L 1178 3500 
L 1178 0 
L 603 0 
L 603 3500 
z
M 603 4863 
L 1178 4863 
L 1178 4134 
L 603 4134 
L 603 4863 
z
" transform="scale(0.015625)"/>
      <path id="DejaVuSans-6e" d="M 3513 2113 
L 3513 0 
L 2938 0 
L 2938 2094 
Q 2938 2591 2744 2837 
Q 2550 3084 2163 3084 
Q 1697 3084 1428 2787 
Q 1159 2491 1159 1978 
L 1159 0 
L 581 0 
L 581 3500 
L 1159 3500 
L 1159 2956 
Q 1366 3272 1645 3428 
Q 1925 3584 2291 3584 
Q 2894 3584 3203 3211 
Q 3513 2838 3513 2113 
z
" transform="scale(0.015625)"/>
      <path id="DejaVuSans-20" transform="scale(0.015625)"/>
      <path id="DejaVuSans-2d" d="M 313 2009 
L 1997 2009 
L 1997 1497 
L 313 1497 
L 313 2009 
z
" transform="scale(0.015625)"/>
      <path id="DejaVuSans-73" d="M 2834 3397 
L 2834 2853 
Q 2591 2978 2328 3040 
Q 2066 3103 1784 3103 
Q 1356 3103 1142 2972 
Q 928 2841 928 2578 
Q 928 2378 1081 2264 
Q 1234 2150 1697 2047 
L 1894 2003 
Q 2506 1872 2764 1633 
Q 3022 1394 3022 966 
Q 3022 478 2636 193 
Q 2250 -91 1575 -91 
Q 1294 -91 989 -36 
Q 684 19 347 128 
L 347 722 
Q 666 556 975 473 
Q 1284 391 1588 391 
Q 1994 391 2212 530 
Q 2431 669 2431 922 
Q 2431 1156 2273 1281 
Q 2116 1406 1581 1522 
L 1381 1569 
Q 847 1681 609 1914 
Q 372 2147 372 2553 
Q 372 3047 722 3315 
Q 1072 3584 1716 3584 
Q 2034 3584 2315 3537 
Q 2597 3491 2834 3397 
z
" transform="scale(0.015625)"/>
      <path id="DejaVuSans-61" d="M 2194 1759 
Q 1497 1759 1228 1600 
Q 959 1441 959 1056 
Q 959 750 1161 570 
Q 1363 391 1709 391 
Q 2188 391 2477 730 
Q 2766 1069 2766 1631 
L 2766 1759 
L 2194 1759 
z
M 3341 1997 
L 3341 0 
L 2766 0 
L 2766 531 
Q 2569 213 2275 61 
Q 1981 -91 1556 -91 
Q 1019 -91 701 211 
Q 384 513 384 1019 
Q 384 1609 779 1909 
Q 1175 2209 1959 2209 
L 2766 2209 
L 2766 2266 
Q 2766 2663 2505 2880 
Q 2244 3097 1772 3097 
Q 1472 3097 1187 3025 
Q 903 2953 641 2809 
L 641 3341 
Q 956 3463 1253 3523 
Q 1550 3584 1831 3584 
Q 2591 3584 2966 3190 
Q 3341 2797 3341 1997 
z
" transform="scale(0.015625)"/>
      <path id="DejaVuSans-77" d="M 269 3500 
L 844 3500 
L 1563 769 
L 2278 3500 
L 2956 3500 
L 3675 769 
L 4391 3500 
L 4966 3500 
L 4050 0 
L 3372 0 
L 2619 2869 
L 1863 0 
L 1184 0 
L 269 3500 
z
" transform="scale(0.015625)"/>
      <path id="DejaVuSans-68" d="M 3513 2113 
L 3513 0 
L 2938 0 
L 2938 2094 
Q 2938 2591 2744 2837 
Q 2550 3084 2163 3084 
Q 1697 3084 1428 2787 
Q 1159 2491 1159 1978 
L 1159 0 
L 581 0 
L 581 4863 
L 1159 4863 
L 1159 2956 
Q 1366 3272 1645 3428 
Q 1925 3584 2291 3584 
Q 2894 3584 3203 3211 
Q 3513 2838 3513 2113 
z
" transform="scale(0.015625)"/>
      <path id="DejaVuSans-6c" d="M 603 4863 
L 1178 4863 
L 1178 0 
L 603 0 
L 603 4863 
z
" transform="scale(0.015625)"/>
      <path id="DejaVuSans-3d" d="M 678 2906 
L 4684 2906 
L 4684 2381 
L 678 2381 
L 678 2906 
z
M 678 1631 
L 4684 1631 
L 4684 1100 
L 678 1100 
L 678 1631 
z
" transform="scale(0.015625)"/>
     </defs>
     <use xlink:href="#DejaVuSans-50"/>
     <use xlink:href="#DejaVuSans-72" x="58.552734"/>
     <use xlink:href="#DejaVuSans-6f" x="97.416016"/>
     <use xlink:href="#DejaVuSans-6a" x="158.597656"/>
     <use xlink:href="#DejaVuSans-65" x="186.380859"/>
     <use xlink:href="#DejaVuSans-63" x="247.904297"/>
     <use xlink:href="#DejaVuSans-74" x="302.884766"/>
     <use xlink:href="#DejaVuSans-69" x="342.09375"/>
     <use xlink:href="#DejaVuSans-6f" x="369.876953"/>
     <use xlink:href="#DejaVuSans-6e" x="431.058594"/>
     <use xlink:href="#DejaVuSans-20" x="494.4375"/>
     <use xlink:href="#DejaVuSans-6f" x="526.224609"/>
     <use xlink:href="#DejaVuSans-6e" x="587.40625"/>
     <use xlink:href="#DejaVuSans-74" x="650.785156"/>
     <use xlink:href="#DejaVuSans-6f" x="689.994141"/>
     <use xlink:href="#DejaVuSans-20" x="751.175781"/>
     <use xlink:href="#DejaVuSans-72" x="782.962891"/>
     <use xlink:href="#DejaVuSans-2d" x="817.701172"/>
     <use xlink:href="#DejaVuSans-7a" x="853.785156"/>
     <use xlink:href="#DejaVuSans-2d" x="906.275391"/>
     <use xlink:href="#DejaVuSans-70" x="942.359375"/>
     <use xlink:href="#DejaVuSans-5f" x="1005.835938"/>
     <use xlink:href="#DejaVuSans-72" x="1055.835938"/>
     <use xlink:href="#DejaVuSans-20" x="1096.949219"/>
     <use xlink:href="#DejaVuSans-73" x="1128.736328"/>
     <use xlink:href="#DejaVuSans-70" x="1180.835938"/>
     <use xlink:href="#DejaVuSans-61" x="1244.3125"/>
     <use xlink:href="#DejaVuSans-63" x="1305.591797"/>
     <use xlink:href="#DejaVuSans-65" x="1360.572266"/>
     <use xlink:href="#DejaVuSans-20" x="1422.095703"/>
     <use xlink:href="#DejaVuSans-77" x="1453.882812"/>
     <use xlink:href="#DejaVuSans-69" x="1535.669922"/>
     <use xlink:href="#DejaVuSans-74" x="1563.453125"/>
     <use xlink:href="#DejaVuSans-68" x="1602.662109"/>
     <use xlink:href="#DejaVuSans-20" x="1666.041016"/>
     <use xlink:href="#DejaVuSans-69" x="1697.828125"/>
     <use xlink:href="#DejaVuSans-6e" x="1725.611328"/>
     <use xlink:href="#DejaVuSans-69" x="1788.990234"/>
     <use xlink:href="#DejaVuSans-74" x="1816.773438"/>
     <use xlink:href="#DejaVuSans-69" x="1855.982422"/>
     <use xlink:href="#DejaVuSans-61" x="1883.765625"/>
     <use xlink:href="#DejaVuSans-6c" x="1945.044922"/>
     <use xlink:href="#DejaVuSans-20" x="1972.828125"/>
     <use xlink:href="#DejaVuSans-72" x="2004.615234"/>
     <use xlink:href="#DejaVuSans-20" x="2045.728516"/>
     <use xlink:href="#DejaVuSans-3d" x="2077.515625"/>
     <use xlink:href="#DejaVuSans-20" x="2161.304688"/>
     <use xlink:href="#DejaVuSans-2d" x="2193.091797"/>
     <use xlink:href="#DejaVuSans-30" x="2229.175781"/>
     <use xlink:href="#DejaVuSans-2e" x="2292.798828"/>
     <use xlink:href="#DejaVuSans-32" x="2324.585938"/>
     <use xlink:href="#DejaVuSans-34" x="2388.208984"/>
    </g>
   </g>
  </g>
 </g>
 <defs>
  <clipPath id="p2cb29209b6">
   <rect x="103.104" y="41.472" width="266.112" height="266.112"/>
  </clipPath>
 </defs>
</svg>
