<?xml version="1.0" encoding="utf-8" standalone="no"?>
<!DOCTYPE svg PUBLIC "-//W3C//DTD SVG 1.1//EN"
  "http://www.w3.org/Graphics/SVG/1.1/DTD/svg11.dtd">
<svg xmlns:xlink="http://www.w3.org/1999/xlink" width="460.8pt" height="345.6pt" viewBox="0 0 460.8 345.6" xmlns="http://www.w3.org/2000/svg" version="1.1">
 <metadata>
  <rdf:RDF xmlns:dc="http://purl.org/dc/elements/1.1/" xmlns:cc="http://creativecommons.org/ns#" xmlns:rdf="http://www.w3.org/1999/02/22-rdf-syntax-ns#">
   <cc:Work>
    <dc:type rdf:resource="http://purl.org/dc/dcmitype/StillImage"/>
    <dc:date>2023-10-23T13:51:37.158240</dc:date>
    <dc:format>image/svg+xml</dc:format>
    <dc:creator>
     <cc:Agent>
      <dc:title>Matplotlib v3.8.0, https://matplotlib.org/</dc:title>
     </cc:Agent>
    </dc:creator>
   </cc:Work>
  </rdf:RDF>
 </metadata>
 <defs>
  <style type="text/css">*{stroke-linejoin: round; stroke-linecap: butt}</style>
 </defs>
 <g id="figure_1">
  <g id="patch_1">
   <path d="M 0 345.6 
L 460.8 345.6 
L 460.8 0 
L 0 0 
z
" style="fill: #ffffff"/>
  </g>
  <g id="axes_1">
   <g id="patch_2">
    <path d="M 57.6 307.584 
L 414.72 307.584 
L 414.72 41.472 
L 57.6 41.472 
z
" style="fill: #ffffff"/>
   </g>
   <g id="matplotlib.axis_1">
    <g id="xtick_1">
     <g id="line2d_1">
      <defs>
       <path id="mc805f7b1cf" d="M 0 0 
L 0 3.5 
" style="stroke: #000000; stroke-width: 0.8"/>
      </defs>
      <g>
       <use xlink:href="#mc805f7b1cf" x="93.312" y="307.584" style="stroke: #000000; stroke-width: 0.8"/>
      </g>
     </g>
     <g id="text_1">
      <!-- −0.4 -->
      <g transform="translate(81.170594 322.182437) scale(0.1 -0.1)">
       <defs>
        <path id="DejaVuSans-2212" d="M 678 2272 
L 4684 2272 
L 4684 1741 
L 678 1741 
L 678 2272 
z
" transform="scale(0.015625)"/>
        <path id="DejaVuSans-30" d="M 2034 4250 
Q 1547 4250 1301 3770 
Q 1056 3291 1056 2328 
Q 1056 1369 1301 889 
Q 1547 409 2034 409 
Q 2525 409 2770 889 
Q 3016 1369 3016 2328 
Q 3016 3291 2770 3770 
Q 2525 4250 2034 4250 
z
M 2034 4750 
Q 2819 4750 3233 4129 
Q 3647 3509 3647 2328 
Q 3647 1150 3233 529 
Q 2819 -91 2034 -91 
Q 1250 -91 836 529 
Q 422 1150 422 2328 
Q 422 3509 836 4129 
Q 1250 4750 2034 4750 
z
" transform="scale(0.015625)"/>
        <path id="DejaVuSans-2e" d="M 684 794 
L 1344 794 
L 1344 0 
L 684 0 
L 684 794 
z
" transform="scale(0.015625)"/>
        <path id="DejaVuSans-34" d="M 2419 4116 
L 825 1625 
L 2419 1625 
L 2419 4116 
z
M 2253 4666 
L 3047 4666 
L 3047 1625 
L 3713 1625 
L 3713 1100 
L 3047 1100 
L 3047 0 
L 2419 0 
L 2419 1100 
L 313 1100 
L 313 1709 
L 2253 4666 
z
" transform="scale(0.015625)"/>
       </defs>
       <use xlink:href="#DejaVuSans-2212"/>
       <use xlink:href="#DejaVuSans-30" x="83.789062"/>
       <use xlink:href="#DejaVuSans-2e" x="147.412109"/>
       <use xlink:href="#DejaVuSans-34" x="179.199219"/>
      </g>
     </g>
    </g>
    <g id="xtick_2">
     <g id="line2d_2">
      <g>
       <use xlink:href="#mc805f7b1cf" x="164.736" y="307.584" style="stroke: #000000; stroke-width: 0.8"/>
      </g>
     </g>
     <g id="text_2">
      <!-- −0.2 -->
      <g transform="translate(152.594594 322.182437) scale(0.1 -0.1)">
       <defs>
        <path id="DejaVuSans-32" d="M 1228 531 
L 3431 531 
L 3431 0 
L 469 0 
L 469 531 
Q 828 903 1448 1529 
Q 2069 2156 2228 2338 
Q 2531 2678 2651 2914 
Q 2772 3150 2772 3378 
Q 2772 3750 2511 3984 
Q 2250 4219 1831 4219 
Q 1534 4219 1204 4116 
Q 875 4013 500 3803 
L 500 4441 
Q 881 4594 1212 4672 
Q 1544 4750 1819 4750 
Q 2544 4750 2975 4387 
Q 3406 4025 3406 3419 
Q 3406 3131 3298 2873 
Q 3191 2616 2906 2266 
Q 2828 2175 2409 1742 
Q 1991 1309 1228 531 
z
" transform="scale(0.015625)"/>
       </defs>
       <use xlink:href="#DejaVuSans-2212"/>
       <use xlink:href="#DejaVuSans-30" x="83.789062"/>
       <use xlink:href="#DejaVuSans-2e" x="147.412109"/>
       <use xlink:href="#DejaVuSans-32" x="179.199219"/>
      </g>
     </g>
    </g>
    <g id="xtick_3">
     <g id="line2d_3">
      <g>
       <use xlink:href="#mc805f7b1cf" x="236.16" y="307.584" style="stroke: #000000; stroke-width: 0.8"/>
      </g>
     </g>
     <g id="text_3">
      <!-- 0.0 -->
      <g transform="translate(228.208438 322.182437) scale(0.1 -0.1)">
       <use xlink:href="#DejaVuSans-30"/>
       <use xlink:href="#DejaVuSans-2e" x="63.623047"/>
       <use xlink:href="#DejaVuSans-30" x="95.410156"/>
      </g>
     </g>
    </g>
    <g id="xtick_4">
     <g id="line2d_4">
      <g>
       <use xlink:href="#mc805f7b1cf" x="307.584" y="307.584" style="stroke: #000000; stroke-width: 0.8"/>
      </g>
     </g>
     <g id="text_4">
      <!-- 0.2 -->
      <g transform="translate(299.632437 322.182437) scale(0.1 -0.1)">
       <use xlink:href="#DejaVuSans-30"/>
       <use xlink:href="#DejaVuSans-2e" x="63.623047"/>
       <use xlink:href="#DejaVuSans-32" x="95.410156"/>
      </g>
     </g>
    </g>
    <g id="xtick_5">
     <g id="line2d_5">
      <g>
       <use xlink:href="#mc805f7b1cf" x="379.008" y="307.584" style="stroke: #000000; stroke-width: 0.8"/>
      </g>
     </g>
     <g id="text_5">
      <!-- 0.4 -->
      <g transform="translate(371.056437 322.182437) scale(0.1 -0.1)">
       <use xlink:href="#DejaVuSans-30"/>
       <use xlink:href="#DejaVuSans-2e" x="63.623047"/>
       <use xlink:href="#DejaVuSans-34" x="95.410156"/>
      </g>
     </g>
    </g>
    <g id="text_6">
     <!-- r -->
     <g transform="translate(234.104531 335.860562) scale(0.1 -0.1)">
      <defs>
       <path id="DejaVuSans-72" d="M 2631 2963 
Q 2534 3019 2420 3045 
Q 2306 3072 2169 3072 
Q 1681 3072 1420 2755 
Q 1159 2438 1159 1844 
L 1159 0 
L 581 0 
L 581 3500 
L 1159 3500 
L 1159 2956 
Q 1341 3275 1631 3429 
Q 1922 3584 2338 3584 
Q 2397 3584 2469 3576 
Q 2541 3569 2628 3553 
L 2631 2963 
z
" transform="scale(0.015625)"/>
      </defs>
      <use xlink:href="#DejaVuSans-72"/>
     </g>
    </g>
   </g>
   <g id="matplotlib.axis_2">
    <g id="ytick_1">
     <g id="line2d_6">
      <defs>
       <path id="m196e9fb998" d="M 0 0 
L -3.5 0 
" style="stroke: #000000; stroke-width: 0.8"/>
      </defs>
      <g>
       <use xlink:href="#m196e9fb998" x="57.6" y="280.9728" style="stroke: #000000; stroke-width: 0.8"/>
      </g>
     </g>
     <g id="text_7">
      <!-- −0.4 -->
      <g transform="translate(26.317187 284.772019) scale(0.1 -0.1)">
       <use xlink:href="#DejaVuSans-2212"/>
       <use xlink:href="#DejaVuSans-30" x="83.789062"/>
       <use xlink:href="#DejaVuSans-2e" x="147.412109"/>
       <use xlink:href="#DejaVuSans-34" x="179.199219"/>
      </g>
     </g>
    </g>
    <g id="ytick_2">
     <g id="line2d_7">
      <g>
       <use xlink:href="#m196e9fb998" x="57.6" y="227.7504" style="stroke: #000000; stroke-width: 0.8"/>
      </g>
     </g>
     <g id="text_8">
      <!-- −0.2 -->
      <g transform="translate(26.317187 231.549619) scale(0.1 -0.1)">
       <use xlink:href="#DejaVuSans-2212"/>
       <use xlink:href="#DejaVuSans-30" x="83.789062"/>
       <use xlink:href="#DejaVuSans-2e" x="147.412109"/>
       <use xlink:href="#DejaVuSans-32" x="179.199219"/>
      </g>
     </g>
    </g>
    <g id="ytick_3">
     <g id="line2d_8">
      <g>
       <use xlink:href="#m196e9fb998" x="57.6" y="174.528" style="stroke: #000000; stroke-width: 0.8"/>
      </g>
     </g>
     <g id="text_9">
      <!-- 0.0 -->
      <g transform="translate(34.696875 178.327219) scale(0.1 -0.1)">
       <use xlink:href="#DejaVuSans-30"/>
       <use xlink:href="#DejaVuSans-2e" x="63.623047"/>
       <use xlink:href="#DejaVuSans-30" x="95.410156"/>
      </g>
     </g>
    </g>
    <g id="ytick_4">
     <g id="line2d_9">
      <g>
       <use xlink:href="#m196e9fb998" x="57.6" y="121.3056" style="stroke: #000000; stroke-width: 0.8"/>
      </g>
     </g>
     <g id="text_10">
      <!-- 0.2 -->
      <g transform="translate(34.696875 125.104819) scale(0.1 -0.1)">
       <use xlink:href="#DejaVuSans-30"/>
       <use xlink:href="#DejaVuSans-2e" x="63.623047"/>
       <use xlink:href="#DejaVuSans-32" x="95.410156"/>
      </g>
     </g>
    </g>
    <g id="ytick_5">
     <g id="line2d_10">
      <g>
       <use xlink:href="#m196e9fb998" x="57.6" y="68.0832" style="stroke: #000000; stroke-width: 0.8"/>
      </g>
     </g>
     <g id="text_11">
      <!-- 0.4 -->
      <g transform="translate(34.696875 71.882419) scale(0.1 -0.1)">
       <use xlink:href="#DejaVuSans-30"/>
       <use xlink:href="#DejaVuSans-2e" x="63.623047"/>
       <use xlink:href="#DejaVuSans-34" x="95.410156"/>
      </g>
     </g>
    </g>
    <g id="text_12">
     <!-- z -->
     <g transform="translate(20.2375 177.152219) rotate(-90) scale(0.1 -0.1)">
      <defs>
       <path id="DejaVuSans-7a" d="M 353 3500 
L 3084 3500 
L 3084 2975 
L 922 459 
L 3084 459 
L 3084 0 
L 275 0 
L 275 525 
L 2438 3041 
L 353 3041 
L 353 3500 
z
" transform="scale(0.015625)"/>
      </defs>
      <use xlink:href="#DejaVuSans-7a"/>
     </g>
    </g>
   </g>
   <g id="line2d_11">
    <path d="M 236.16 224.7936 
L 243.029419 226.28062 
L 280.497359 230.839466 
L 312.451757 229.581832 
L 339.990961 224.172329 
L 365.440076 214.588677 
L 382.09105 203.411713 
L 386.435356 194.773199 
L 380.502721 188.158085 
L 364.854758 183.952206 
L 341.055923 181.642396 
L 313.030938 180.519415 
L 220.562187 178.283704 
L 159.191635 176.326994 
L 137.974365 175.951173 
L 119.971404 176.194669 
L 106.08428 177.270595 
L 95.234691 179.709491 
L 89.417907 184.319331 
L 91.468894 191.621212 
L 101.705457 200.454653 
L 121.162725 210.855897 
L 148.76474 220.578204 
L 183.905162 227.275752 
L 225.985994 228.022347 
L 264.67057 222.160456 
L 303.490532 210.262994 
L 337.714479 194.511317 
L 358.20912 181.58525 
L 368.653002 172.078911 
L 371.874162 164.645612 
L 366.646893 159.505599 
L 351.547322 157.384387 
L 328.994833 158.128506 
L 303.106355 160.580857 
L 268.811035 164.783849 
L 229.368536 170.182064 
L 188.990865 176.183106 
L 151.774121 182.594891 
L 122.958254 189.135872 
L 101.040424 196.873445 
L 88.096947 206.091279 
L 85.233796 216.243029 
L 91.018769 225.631345 
L 104.730893 234.039618 
L 127.058013 239.504275 
L 158.674202 238.68219 
L 191.85286 230.568512 
L 229.953831 214.692537 
L 271.06926 191.784424 
L 300.077397 172.47361 
L 323.77498 154.03199 
L 339.453188 138.218382 
L 344.384688 127.31772 
L 338.70087 121.020616 
L 323.069122 119.388876 
L 299.386131 121.823461 
L 268.315095 128.018967 
L 230.442425 138.325386 
L 194.680401 150.873117 
L 160.436134 166.833552 
L 131.558409 186.633564 
L 114.296324 206.761894 
L 106.922696 227.623853 
L 108.885592 243.671953 
L 117.145295 253.793747 
L 129.182593 256.622518 
L 144.604849 252.375874 
L 163.18099 241.21371 
L 187.500404 221.707529 
L 217.45063 194.716832 
L 244.820919 169.254113 
L 271.295782 144.260942 
L 294.155902 121.55037 
L 309.63161 103.107391 
L 314.149242 92.42687 
L 309.96854 86.584597 
L 297.916036 85.559897 
L 277.933188 89.220452 
L 250.584291 98.324181 
L 225.983981 109.642517 
L 202.552873 123.771375 
L 177.702659 144.535928 
L 156.284956 173.200898 
L 145.381156 201.859927 
L 142.572986 228.67316 
L 145.454334 248.835287 
L 152.762766 262.418101 
L 161.122633 265.428787 
L 171.162785 260.544059 
L 183.163129 247.803215 
L 198.736609 225.827242 
L 239.387523 162.67433 
L 258.489186 133.4231 
L 274.42939 108.097832 
L 285.213911 87.32866 
L 288.414766 74.533036 
L 285.53786 66.316475 
L 277.151479 62.781803 
L 262.283513 63.863968 
L 242.868776 70.502641 
L 225.745363 80.196423 
L 210.33493 92.841238 
L 194.511804 112.701661 
L 182.290709 141.21604 
L 177.668023 170.817024 
L 178.256328 197.105708 
L 182.012357 221.282563 
L 189.3244 245.54453 
L 199.420842 263.038434 
L 209.344718 268.634846 
L 219.85871 264.328737 
L 230.261937 251.502038 
L 242.269653 228.452724 
L 254.80274 196.911709 
L 265.528136 163.07034 
L 272.410258 133.106483 
L 275.049712 108.05596 
L 273.190124 87.14449 
L 267.198116 71.912265 
L 256.235033 60.12868 
L 241.300034 53.70245 
L 229.079365 53.001384 
L 218.249033 55.695584 
L 207.520106 63.216959 
L 199.882913 77.175536 
L 197.670384 94.348536 
L 199.693863 115.500426 
L 205.199938 139.525334 
L 214.64174 169.564498 
L 226.810989 201.936747 
L 239.28026 230.327633 
L 252.43489 253.768834 
L 265.108221 266.760765 
L 273.971976 268.02459 
L 282.117598 261.960168 
L 290.108993 247.297198 
L 296.742851 223.585818 
L 299.861171 193.571859 
L 297.878737 165.05499 
L 290.43657 138.223282 
L 275.098618 111.495825 
L 251.97446 88.910717 
L 232.758543 76.931715 
L 213.949 69.090435 
L 197.51216 65.556077 
L 185.118082 67.066257 
L 180.286117 74.511481 
L 183.136413 86.479036 
L 191.450739 101.799511 
L 206.132724 123.622537 
L 225.655285 150.944871 
L 246.653679 180.630933 
L 265.079038 207.260289 
L 284.236893 234.393822 
L 301.2265 254.836278 
L 313.611225 263.7065 
L 321.978997 263.930563 
L 328.378992 258.405177 
L 333.484649 245.616598 
L 335.149477 226.279762 
L 331.664638 203.359395 
L 319.842964 175.848165 
L 299.523329 150.34373 
L 268.322936 126.04606 
L 237.297538 109.537305 
L 206.169212 97.590411 
L 181.568449 91.273888 
L 162.692622 89.898337 
L 154.415256 94.242897 
L 155.631754 102.428264 
L 163.695921 113.987845 
L 180.597002 131.723015 
L 205.632671 154.938388 
L 235.169022 181.034833 
L 263.337032 205.146087 
L 291.982714 228.051415 
L 319.195106 245.928288 
L 338.902563 253.658495 
L 351.490284 254.232676 
L 361.258966 250.282877 
L 368.434884 241.04042 
L 370.219683 226.636467 
L 363.626036 208.93008 
L 344.808394 188.819453 
L 313.780382 169.914001 
L 271.299967 152.709939 
L 231.333187 140.673277 
L 191.988879 131.490961 
L 159.197928 126.260237 
L 138.398577 125.398232 
L 126.217035 128.379474 
L 123.612409 135.960557 
L 130.653526 146.942374 
L 147.268709 162.168862 
L 173.555884 181.109489 
L 202.120446 198.487826 
L 235.871696 215.559889 
L 273.215385 229.566419 
L 311.757423 237.153207 
L 336.424049 237.273156 
L 356.542216 233.760424 
L 375.107465 226.112591 
L 386.542005 215.396305 
L 386.969253 205.828144 
L 377.816792 197.5546 
L 357.911741 190.298103 
L 328.710133 184.360299 
L 293.107948 179.257311 
L 254.00634 174.474622 
L 213.294207 169.766694 
L 175.158695 165.629753 
L 142.946059 162.838549 
L 121.285553 162.105157 
L 106.199215 163.421854 
L 98.322059 167.278264 
L 98.854571 174.313047 
L 107.521301 183.290766 
L 125.205905 194.909966 
L 151.3456 207.517199 
L 184.733093 218.930253 
L 224.30857 226.544866 
L 261.322278 227.85863 
L 296.831806 223.686156 
L 330.513905 214.542492 
L 359.026993 201.988721 
L 376.325495 189.974862 
L 381.179195 181.046814 
L 375.437958 175.662372 
L 360.834856 173.055941 
L 343.771057 172.562583 
L 322.532328 173.088568 
L 298.672734 174.236981 
L 246.183979 177.16908 
L 174.219418 180.793642 
L 142.325544 182.68054 
L 117.190977 185.119486 
L 98.645081 188.738129 
L 87.543044 194.131659 
L 85.1848 201.544005 
L 91.395188 209.912541 
L 105.967183 218.991309 
L 128.967066 227.222403 
L 160.102181 232.175083 
L 199.597281 230.767822 
L 238.33064 222.365263 
L 279.532491 206.878319 
L 316.714479 187.469938 
L 338.668961 172.936763 
L 353.728294 159.946661 
L 360.186477 149.519807 
L 355.988405 142.730633 
L 341.626139 140.314474 
L 318.685405 141.466283 
L 290.897944 145.167464 
L 254.086215 151.776774 
L 212.921447 160.73133 
L 176.132946 170.369609 
L 144.272635 180.919376 
L 119.950846 191.958309 
L 100.892448 205.787471 
L 92.195707 220.482714 
L 93.651878 233.370986 
L 102.110629 242.608137 
L 119.611031 248.197705 
L 140.713122 246.476395 
L 164.740899 238.353146 
L 195.342244 222.288724 
L 231.807034 198.341731 
L 263.523589 174.970015 
L 292.227245 151.972434 
L 314.478993 131.789658 
L 327.710229 115.394504 
L 329.155975 107.003898 
L 322.540362 102.587706 
L 306.471978 102.250175 
L 283.867902 106.087466 
L 252.369219 114.901955 
L 222.778057 126.025478 
L 195.074946 139.418384 
L 165.267595 159.027145 
L 140.279852 184.697828 
L 126.309108 212.70981 
L 123.421746 235.975929 
L 127.17404 252.045575 
L 136.550103 261.171905 
L 146.585534 260.673014 
L 157.972909 254.112081 
L 173.885194 239.370922 
L 194.628118 216.010618 
L 220.009814 185.999044 
L 243.40994 158.742254 
L 265.579067 133.301338 
L 285.088811 110.135898 
L 298.060997 91.626043 
L 301.612632 80.97864 
L 297.828131 74.963059 
L 287.23985 73.577933 
L 269.183984 77.03574 
L 245.161696 86.147622 
L 223.662998 97.916639 
L 204.247248 112.345123 
L 183.796472 134.318683 
L 167.270388 164.990074 
L 160.323742 194.226164 
L 159.534718 219.136027 
L 162.634858 240.993678 
L 169.59462 259.173858 
L 178.431329 267.099679 
L 187.432305 265.595521 
L 197.070538 256.768624 
L 209.509743 238.366717 
L 224.488109 210.707473 
L 241.112666 177.129492 
L 256.349306 144.857962 
L 268.621812 116.344739 
L 276.581208 91.930066 
L 278.442339 76.495724 
L 275.698602 65.233031 
L 268.356835 58.191795 
L 255.673118 55.482638 
L 239.30904 58.378129 
L 225.245294 65.139858 
L 212.678701 75.462878 
L 200.801568 92.447054 
L 192.860171 117.516126 
L 191.123081 142.464972 
L 193.436827 169.599436 
L 199.09435 197.854972 
L 207.546551 225.710946 
L 218.383882 250.213029 
L 230.508029 265.67231 
L 240.433701 268.798203 
L 250.225318 263.213041 
L 260.06877 248.882745 
L 270.178351 224.467822 
L 278.65223 192.653889 
L 282.89607 163.083979 
L 283.165523 137.707236 
L 279.528675 114.815565 
L 270.390828 92.649788 
L 255.255062 74.308927 
L 239.088378 63.416792 
L 224.393109 58.014861 
L 211.38952 56.624725 
L 199.877769 59.765852 
L 193.09729 68.91487 
L 192.448287 80.101321 
L 195.697254 94.628768 
L 203.478192 114.952646 
L 216.026175 141.717578 
L 231.714426 172.846529 
L 247.840001 203.974958 
L 263.041018 231.767529 
L 277.860809 254.448569 
L 290.720405 266.038152 
L 298.996899 266.532658 
L 305.885881 260.528788 
L 312.125782 246.431287 
L 315.873146 224.547242 
L 315.105525 197.578637 
L 307.564556 167.767376 
L 293.184447 141.123801 
L 268.558532 114.782492 
L 241.885176 96.487828 
L 218.622505 85.265594 
L 198.181514 78.413678 
L 180.243452 75.64198 
L 169.883967 78.632978 
L 168.631558 85.381166 
L 173.510114 95.855375 
L 185.321757 111.645148 
L 204.60149 133.704352 
L 228.931994 160.515428 
L 254.048668 188.518191 
L 276.152134 213.409636 
L 299.186414 238.149792 
L 318.88345 255.043319 
L 332.08682 260.751197 
L 341.428953 259.20446 
L 348.067669 252.116922 
L 352.012336 238.461072 
L 350.871745 219.828361 
L 342.320652 197.567705 
L 323.07476 173.110876 
L 294.413655 151.143537 
L 251.857559 129.676172 
L 219.092114 117.809377 
L 190.678043 110.03327 
L 163.717687 105.438015 
L 147.152505 105.85168 
L 140.19088 110.809344 
L 142.937384 120.766697 
L 153.913515 133.907762 
L 174.747896 152.750734 
L 203.801626 175.595591 
L 235.221674 198.000482 
L 266.803241 218.087028 
L 300.684543 235.563508 
L 331.745529 245.386888 
L 350.546913 246.660759 
L 365.672527 243.47044 
L 377.08419 235.99504 
L 382.447908 224.164665 
L 377.155832 209.479705 
L 359.155472 195.166265 
L 329.091319 182.134931 
L 288.572528 170.268706 
L 245.091403 160.343973 
L 203.698973 152.416621 
L 166.352402 146.623044 
L 135.825292 143.858157 
L 117.378791 145.054109 
L 109.97802 149.702875 
L 112.169465 158.389045 
L 123.17544 169.632925 
L 144.17222 184.511832 
L 169.627629 198.813337 
L 202.584533 213.440504 
L 241.057357 225.334532 
L 282.710185 231.317961 
L 313.973777 230.460105 
L 340.554134 225.564341 
L 365.586949 216.430774 
L 382.317668 205.367221 
L 386.85186 196.545516 
L 380.978127 189.652334 
L 365.31903 185.14053 
L 341.328102 182.480421 
L 312.686963 180.997657 
L 214.46073 177.551168 
L 158.084394 175.236167 
L 140.119983 174.756137 
L 127.440102 174.6881 
L 116.38538 174.986686 
L 105.806098 175.889722 
L 96.210335 178.004131 
L 90.359299 182.217078 
L 91.792842 189.26205 
L 101.279815 197.921334 
L 120.068526 208.455688 
L 147.099076 218.631385 
L 181.652037 226.156073 
L 223.085925 228.175241 
L 264.082672 223.087343 
L 302.599184 212.136827 
L 337.186568 196.969492 
L 358.567213 183.979533 
L 369.792494 174.065888 
L 373.062973 166.368025 
L 367.73137 161.438972 
L 352.595506 159.325503 
L 332.854738 159.809297 
L 308.606581 161.847483 
L 275.788458 165.545007 
L 237.467327 170.385368 
L 197.147081 175.824515 
L 157.856512 181.796166 
L 127.722146 187.675677 
L 104.400085 194.564321 
L 89.61103 202.919698 
L 84.692571 212.537537 
L 88.996987 222.095426 
L 101.019217 230.730386 
L 121.635349 237.351935 
L 151.072227 238.869581 
L 186.229042 232.666971 
L 223.898519 218.983205 
L 265.118093 197.836682 
L 296.7964 177.89983 
L 323.03295 158.372905 
L 339.429848 142.853065 
L 346.249872 130.255036 
L 340.810402 123.515015 
L 325.335994 121.725877 
L 301.663092 123.973457 
L 270.904763 129.825029 
L 232.903277 139.685994 
L 196.140674 151.926837 
L 161.368584 167.184041 
L 131.68231 186.093168 
L 113.705291 205.108807 
L 105.196351 225.583017 
L 106.505165 241.755511 
L 114.098644 252.041903 
L 126.623654 255.837545 
L 143.058823 252.049685 
L 162.020309 241.438673 
L 186.800745 222.556122 
L 217.323672 196.07564 
L 245.328426 170.765493 
L 272.385211 145.799907 
L 295.555443 123.200838 
L 311.251911 104.777538 
L 315.813495 94.104864 
L 311.538948 88.274074 
L 299.252337 87.265577 
L 279.013844 90.915254 
L 251.26453 99.960755 
L 226.204701 111.212637 
L 202.127463 125.348864 
L 176.72523 145.955562 
L 154.758257 174.327171 
L 143.427709 202.77452 
L 140.395616 229.355575 
L 143.232423 249.229896 
L 150.600925 262.380069 
L 158.968672 265.050663 
L 169.047143 260.061661 
L 181.299943 247.239994 
L 197.252253 225.252744 
L 239.080865 162.31482 
L 258.769316 133.281969 
L 275.212211 108.236891 
L 286.426411 87.72158 
L 289.859148 75.087404 
L 286.994252 67.092781 
L 278.491702 63.836707 
L 263.354399 65.217048 
L 243.465655 72.169542 
L 225.933475 82.077765 
L 210.160712 94.829289 
L 193.777047 114.832168 
L 180.908002 143.500558 
L 175.786193 173.404979 
L 176.07396 199.315348 
L 179.503588 222.804687 
L 186.547492 246.605385 
L 196.474315 263.538253 
L 206.184706 268.564686 
L 216.541886 263.958758 
L 227.058541 250.812468 
L 239.293116 227.468044 
L 252.24796 195.708008 
L 263.532069 161.958294 
L 271.098948 132.243934 
L 274.681629 104.357788 
L 273.350121 85.522697 
L 268.126072 71.111607 
L 257.986502 59.777017 
L 243.607861 53.571567 
L 231.942449 52.923358 
L 220.73798 55.627976 
L 209.747581 62.847434 
L 201.18037 76.347586 
L 197.761643 94.382107 
L 199.070348 116.890257 
L 203.770784 140.351529 
L 212.382106 170.019214 
L 223.915626 202.223347 
L 236.041211 230.615824 
L 248.999726 253.994393 
L 261.641324 266.908575 
L 270.536326 268.088687 
L 278.779591 261.956973 
L 287.014771 247.126175 
L 294.037485 223.116074 
L 297.687551 192.728915 
L 296.345899 164.379351 
L 289.816005 137.795099 
L 275.743022 111.180884 
L 254.037002 88.588019 
L 234.722157 75.980376 
L 215.603253 67.831702 
L 199.506917 64.371903 
L 187.076521 65.866174 
L 181.853893 73.2958 
L 184.262154 85.405067 
L 191.962094 100.558756 
L 205.872495 122.240515 
L 245.09349 179.447427 
L 263.354681 206.70518 
L 282.053129 234.044152 
L 298.740141 254.807154 
L 311.029758 263.981272 
L 319.326765 264.358559 
L 325.806056 258.842551 
L 331.018971 246.007135 
L 332.929756 226.465451 
L 329.786182 203.124692 
L 318.551898 175.318192 
L 298.999078 149.551544 
L 268.660503 124.929752 
L 238.06533 108.080206 
L 210.290881 96.924691 
L 186.053108 90.130845 
L 166.379536 87.935481 
L 156.62056 91.578859 
L 156.612716 98.852608 
L 162.855081 109.066492 
L 177.535394 125.447469 
L 200.635289 147.667459 
L 229.149665 173.65488 
L 257.92511 199.254087 
L 285.282518 222.513991 
L 312.601354 242.689332 
L 335.382514 253.775605 
L 348.715335 255.321475 
L 359.043514 251.595844 
L 366.181536 242.648155 
L 368.35951 228.325475 
L 362.725162 210.53071 
L 345.297476 189.777239 
L 315.783343 170.099771 
L 275.172094 152.317845 
L 234.747362 139.336549 
L 194.559646 129.46489 
L 161.969378 123.972522 
L 140.59836 122.904546 
L 128.130759 125.892906 
L 125.580357 133.558521 
L 132.652562 144.627066 
L 149.264261 160.033899 
L 175.603291 179.354861 
L 204.982364 197.650403 
L 238.437574 215.118445 
L 275.281074 229.645741 
L 313.249796 237.876145 
L 336.973165 238.441938 
L 357.211115 235.188986 
L 375.052957 227.910524 
L 386.273334 217.287814 
L 386.731021 207.344087 
L 377.40458 198.544955 
L 357.15687 190.697652 
L 327.342096 184.120528 
L 290.859135 178.37837 
L 251.011792 173.032638 
L 210.224906 167.92429 
L 171.872584 163.514933 
L 139.839292 160.70813 
L 119.597453 160.197212 
L 105.855496 161.779893 
L 99.044262 166.12815 
L 101.063045 173.76665 
L 111.652021 183.650429 
L 130.915246 195.716652 
L 158.407019 208.55998 
L 192.938888 219.934569 
L 233.354358 227.137585 
L 268.570716 227.938248 
L 302.097713 223.769679 
L 334.960018 214.686993 
L 362.291721 202.381288 
L 378.293869 190.704967 
L 382.030509 182.838163 
L 376.266921 177.43694 
L 361.366313 174.675926 
L 347.889303 174.089993 
L 332.084323 174.171899 
L 314.992068 174.686657 
L 273.433509 176.542284 
L 243.569821 177.901019 
L 141.612424 182.11395 
L 117.308037 184.144424 
L 99.148512 187.363356 
L 88.072857 192.372961 
L 85.509097 199.497432 
L 91.561232 207.800051 
L 106.014577 216.959566 
L 128.917536 225.509058 
L 159.920593 231.089141 
L 199.102381 230.703403 
L 237.172505 223.544284 
L 278.077924 209.359098 
L 315.904026 190.638188 
L 339.260868 175.777071 
L 355.255318 162.402112 
L 361.830793 152.37496 
L 358.284444 145.466856 
L 344.676342 142.832469 
L 322.200273 143.704473 
L 295.524244 146.998579 
L 259.581582 153.050288 
L 218.496261 161.377306 
L 180.97654 170.394844 
L 148.571415 180.035456 
L 123.348958 190.050868 
L 102.666421 202.670585 
L 91.758487 216.605492 
L 90.92593 228.052947 
L 96.930789 237.882369 
L 111.219103 245.492795 
L 131.14303 247.024476 
L 155.530327 241.743755 
L 184.525134 229.242522 
L 219.747159 208.578799 
L 253.361953 185.478636 
L 281.024918 164.610782 
L 304.371618 145.30014 
L 323.47387 126.50978 
L 331.470821 112.703739 
L 327.09723 105.734715 
L 313.519424 104.127551 
L 291.366472 106.944329 
L 261.459776 114.339914 
L 226.385757 126.465962 
L 195.536208 140.577099 
L 165.16238 159.556887 
L 139.387977 184.41157 
L 124.668887 211.359385 
L 121.03956 234.562834 
L 124.497231 250.859297 
L 133.722618 260.34354 
L 143.705136 260.408068 
L 154.91494 254.691307 
L 170.771748 241.058192 
L 191.57345 218.788355 
L 217.236365 189.520691 
L 241.164111 162.45714 
L 264.197533 136.780234 
L 284.592505 113.405992 
L 298.716882 94.419598 
L 303.245879 83.093553 
L 299.91474 76.639366 
L 289.708377 75.055682 
L 271.805058 78.243622 
L 247.625248 87.030797 
L 226.164269 98.221171 
L 206.447714 111.991458 
L 185.2715 132.944348 
L 167.362371 162.398849 
L 158.828889 191.866628 
L 157.180276 219.832158 
L 160.21256 242.230981 
L 167.096401 259.760434 
L 175.811551 267.00153 
L 184.921984 265.013394 
L 194.833397 255.582275 
L 207.618618 236.576758 
L 223.079124 208.511455 
L 240.307395 174.867127 
L 256.189062 142.769969 
L 269.032883 114.655021 
L 277.459508 90.802328 
L 279.596592 75.686044 
L 276.897442 64.845942 
L 269.511455 58.395588 
L 256.642712 56.298374 
L 239.9455 59.796651 
L 225.547632 67.011203 
L 212.654497 77.674614 
L 200.252134 95.06938 
L 191.682946 120.652487 
L 189.509938 146.548558 
L 191.655652 174.537048 
L 197.111851 202.423251 
L 205.517667 229.966169 
L 216.303857 253.32298 
L 228.378721 266.942549 
L 237.78835 268.521837 
L 247.120798 262.27606 
L 257.215684 246.971257 
L 267.629114 221.588002 
L 276.432067 189.211066 
L 281.299298 156.082651 
L 281.431094 131.043052 
L 277.802678 109.372281 
L 268.799925 88.273064 
L 254.025072 71.09544 
L 238.480723 61.257024 
L 224.194566 56.636258 
L 211.561888 56.025128 
L 200.531102 60.077606 
L 194.154705 70.254037 
L 193.699918 82.040255 
L 196.902425 96.992615 
L 204.536003 118.059095 
L 216.75754 145.504363 
L 231.97138 177.070046 
L 247.473717 207.999333 
L 262.370195 235.585496 
L 276.740058 257.00273 
L 289.214372 266.877508 
L 297.618184 265.891419 
L 304.464646 258.167668 
L 310.541688 241.91532 
L 313.772595 218.205033 
L 312.109456 189.984026 
L 303.438796 160.06437 
L 288.905753 135.024008 
L 263.280433 108.999089 
L 238.237945 92.538408 
L 215.471181 81.998333 
L 195.560542 75.862053 
L 179.095698 74.231109 
L 170.749279 78.427059 
L 170.909502 86.124437 
L 176.446973 96.716776 
L 189.213808 113.617542 
L 209.075325 136.709206 
L 233.262672 164.162974 
L 257.46831 192.128091 
L 279.620277 217.946862 
L 301.61859 242.025949 
L 320.03003 257.35078 
L 331.910171 261.532148 
L 341.184497 258.366169 
L 347.206555 249.197805 
L 349.880617 233.572669 
L 347.116205 213.749051 
L 335.7325 189.355927 
L 314.002143 164.939895 
L 284.504988 144.056591 
L 246.595951 125.554863 
L 214.367379 114.008171 
L 186.048532 106.509001 
L 160.843507 102.805218 
L 145.634728 104.679919 
L 142.1494 111.796842 
L 148.241784 122.873521 
L 163.009427 138.404328 
L 187.309033 159.322249 
L 218.103528 183.132278 
L 247.914772 204.291274 
L 278.909004 223.839882 
L 311.86411 240.094872 
L 337.066556 247.145794 
L 353.549417 247.640622 
L 366.72727 244.151416 
L 377.097146 236.110118 
L 381.11813 223.677403 
L 374.373712 208.323141 
L 354.772905 193.183844 
L 323.00279 179.336894 
L 280.754843 166.714145 
L 235.885994 156.263069 
L 191.580853 147.810006 
L 155.532369 142.669074 
L 131.898409 141.242287 
L 116.841578 143.204231 
L 111.388863 148.887797 
L 115.847287 158.45866 
L 129.499309 171.074225 
L 152.662916 186.759985 
L 180.036595 201.65367 
L 214.429165 216.323415 
L 253.697005 227.581471 
L 294.922808 232.265561 
L 325.537927 230.255141 
L 351.359074 224.183066 
L 373.540405 214.314044 
L 385.870657 203.38723 
L 386.366077 195.621906 
L 377.984385 189.716621 
L 359.673604 185.391064 
L 333.665878 182.715674 
L 303.43715 180.981001 
L 236.056064 177.908071 
L 151.719378 173.679213 
L 133.601875 173.177735 
L 117.373778 173.327977 
L 104.926034 174.368875 
L 96.178775 176.496158 
L 91.208276 180.417651 
L 92.805436 187.410937 
L 102.494461 196.202433 
L 121.521565 206.958478 
L 148.790298 217.465431 
L 183.487213 225.433997 
L 224.906847 228.042662 
L 266.606269 223.435673 
L 304.631247 213.086115 
L 338.894164 198.451779 
L 360.303596 185.627722 
L 371.501422 175.674277 
L 374.26473 168.025876 
L 368.557792 163.4493 
L 353.08023 161.426135 
L 333.337668 161.880568 
L 309.245971 163.780701 
L 276.8491 167.185712 
L 239.243348 171.566324 
L 199.60522 176.414195 
L 160.473821 181.697863 
L 129.717577 186.96147 
L 105.900936 193.117436 
L 90.37974 200.714334 
L 84.484002 209.757609 
L 87.976698 219.183933 
L 99.154148 227.863543 
L 118.91065 235.133012 
L 147.228054 238.082619 
L 184.125242 233.400521 
L 221.894242 221.228737 
L 263.119907 201.523073 
L 296.215325 181.640522 
L 320.169987 164.650015 
L 337.22209 149.978588 
L 347.535913 136.362114 
L 346.717218 128.57358 
L 337.195635 124.873397 
L 320.385436 124.673187 
L 297.428807 127.44746 
L 264.585019 133.954694 
L 225.629277 144.178766 
L 189.823182 156.10613 
L 154.547479 171.648902 
L 126.657672 189.71675 
L 109.437043 208.831638 
L 102.715699 228.042253 
L 105.295499 242.878105 
L 114.521849 252.373862 
L 127.720123 254.814344 
L 144.490453 250.392213 
L 164.847152 239.052803 
L 191.235928 219.420453 
L 223.270674 192.440287 
L 251.010142 168.045593 
L 276.59309 144.907137 
L 299.444477 122.789076 
L 314.215195 105.027679 
L 317.669157 95.219736 
L 312.641897 89.990043 
L 299.335183 89.344455 
L 278.514437 93.286194 
L 249.901604 102.633709 
L 223.785763 114.32235 
L 199.798701 128.323633 
L 173.784583 149.29334 
L 151.710628 177.836007 
L 140.716016 205.785452 
L 137.991215 231.645607 
L 141.088234 250.618245 
L 148.870775 262.770523 
L 157.207558 264.496373 
L 167.191892 259.171947 
L 179.889691 245.932461 
L 196.448071 223.607624 
L 216.911146 193.760529 
L 237.299662 164.248677 
L 257.452938 135.698059 
L 274.723285 110.704869 
L 287.039604 89.935508 
L 291.431491 76.738709 
L 289.034142 68.428677 
L 280.905651 65.169209 
L 265.952924 66.445577 
L 245.878777 73.243903 
L 228.340913 82.715494 
L 212.087558 95.052098 
L 194.953352 114.206744 
L 180.710796 141.858853 
L 173.991841 172.559301 
L 173.412034 198.113488 
L 176.31846 222.362807 
L 182.746976 245.844746 
L 192.276202 263.026744 
L 201.886019 268.437545 
L 212.261208 264.093229 
L 222.761329 251.278864 
L 235.147523 228.304841 
L 248.540418 196.836305 
L 260.61459 163.18434 
L 269.267353 133.225558 
L 274.195255 105.084789 
L 274.129368 87.025383 
L 270.729769 73.479012 
L 262.676687 61.756583 
L 249.861738 54.47114 
L 236.762968 52.858662 
L 223.613079 55.64434 
L 212.427243 62.456177 
L 202.877259 75.312862 
L 197.77695 95.333466 
L 197.890429 114.917981 
L 200.942632 135.824975 
L 207.788011 163.774331 
L 218.082709 195.648254 
L 229.326184 224.206216 
L 241.9035 249.257702 
L 254.746912 265.147669 
L 264.600197 268.555198 
L 273.823579 263.254818 
L 282.338057 249.567313 
L 290.064465 226.408508 
L 294.905825 196.252312 
L 294.983144 167.793873 
L 290.254025 141.252742 
L 278.730155 114.574088 
L 259.63832 91.256918 
L 239.684991 76.524613 
L 221.78687 67.960542 
L 206.013917 63.622209 
L 192.236055 63.582733 
L 184.50217 69.113826 
L 183.724696 77.620038 
L 187.643343 89.592861 
L 197.072134 107.181211 
L 212.341034 131.226715 
L 231.444448 160.122257 
L 251.02612 190.144172 
L 268.445909 217.099912 
L 286.198481 242.978492 
L 301.472078 260.07347 
L 311.993264 265.301687 
L 320.585378 262.068791 
L 326.556195 252.002465 
L 330.134488 234.481418 
L 329.352023 211.730086 
L 322.159927 185.408278 
L 306.358266 158.101728 
L 283.331785 134.431418 
L 246.692528 110.38953 
L 219.562894 98.097008 
L 196.056607 90.308422 
L 174.441356 86.152316 
L 160.782659 87.639108 
L 157.717264 93.732356 
L 162.531308 104.138946 
L 174.888212 119.047444 
L 195.784948 140.047123 
L 222.916773 165.60736 
L 251.659574 192.158499 
L 277.013993 215.008137 
L 304.273671 237.484543 
L 327.900588 252.130342 
L 343.219453 256.336947 
L 355.125162 253.834583 
L 362.661949 246.180841 
L 366.182455 232.790559 
L 362.828383 215.30805 
L 348.811044 194.183712 
L 322.746776 173.424502 
L 285.726811 154.669054 
L 243.778072 139.564663 
L 206.792442 129.420983 
L 206.792442 129.420983 
" clip-path="url(#p7021a93a26)" style="fill: none; stroke: #1f77b4; stroke-width: 0.5; stroke-linecap: square"/>
   </g>
   <g id="patch_3">
    <path d="M 57.6 307.584 
L 57.6 41.472 
" style="fill: none; stroke: #000000; stroke-width: 0.8; stroke-linejoin: miter; stroke-linecap: square"/>
   </g>
   <g id="patch_4">
    <path d="M 414.72 307.584 
L 414.72 41.472 
" style="fill: none; stroke: #000000; stroke-width: 0.8; stroke-linejoin: miter; stroke-linecap: square"/>
   </g>
   <g id="patch_5">
    <path d="M 57.6 307.584 
L 414.72 307.584 
" style="fill: none; stroke: #000000; stroke-width: 0.8; stroke-linejoin: miter; stroke-linecap: square"/>
   </g>
   <g id="patch_6">
    <path d="M 57.6 41.472 
L 414.72 41.472 
" style="fill: none; stroke: #000000; stroke-width: 0.8; stroke-linejoin: miter; stroke-linecap: square"/>
   </g>
   <g id="text_13">
    <!-- Real Space Projection onto r-z plane with initial r = -0.19 -->
    <g transform="translate(66.41625 35.472) scale(0.12 -0.12)">
     <defs>
      <path id="DejaVuSans-52" d="M 2841 2188 
Q 3044 2119 3236 1894 
Q 3428 1669 3622 1275 
L 4263 0 
L 3584 0 
L 2988 1197 
Q 2756 1666 2539 1819 
Q 2322 1972 1947 1972 
L 1259 1972 
L 1259 0 
L 628 0 
L 628 4666 
L 2053 4666 
Q 2853 4666 3247 4331 
Q 3641 3997 3641 3322 
Q 3641 2881 3436 2590 
Q 3231 2300 2841 2188 
z
M 1259 4147 
L 1259 2491 
L 2053 2491 
Q 2509 2491 2742 2702 
Q 2975 2913 2975 3322 
Q 2975 3731 2742 3939 
Q 2509 4147 2053 4147 
L 1259 4147 
z
" transform="scale(0.015625)"/>
      <path id="DejaVuSans-65" d="M 3597 1894 
L 3597 1613 
L 953 1613 
Q 991 1019 1311 708 
Q 1631 397 2203 397 
Q 2534 397 2845 478 
Q 3156 559 3463 722 
L 3463 178 
Q 3153 47 2828 -22 
Q 2503 -91 2169 -91 
Q 1331 -91 842 396 
Q 353 884 353 1716 
Q 353 2575 817 3079 
Q 1281 3584 2069 3584 
Q 2775 3584 3186 3129 
Q 3597 2675 3597 1894 
z
M 3022 2063 
Q 3016 2534 2758 2815 
Q 2500 3097 2075 3097 
Q 1594 3097 1305 2825 
Q 1016 2553 972 2059 
L 3022 2063 
z
" transform="scale(0.015625)"/>
      <path id="DejaVuSans-61" d="M 2194 1759 
Q 1497 1759 1228 1600 
Q 959 1441 959 1056 
Q 959 750 1161 570 
Q 1363 391 1709 391 
Q 2188 391 2477 730 
Q 2766 1069 2766 1631 
L 2766 1759 
L 2194 1759 
z
M 3341 1997 
L 3341 0 
L 2766 0 
L 2766 531 
Q 2569 213 2275 61 
Q 1981 -91 1556 -91 
Q 1019 -91 701 211 
Q 384 513 384 1019 
Q 384 1609 779 1909 
Q 1175 2209 1959 2209 
L 2766 2209 
L 2766 2266 
Q 2766 2663 2505 2880 
Q 2244 3097 1772 3097 
Q 1472 3097 1187 3025 
Q 903 2953 641 2809 
L 641 3341 
Q 956 3463 1253 3523 
Q 1550 3584 1831 3584 
Q 2591 3584 2966 3190 
Q 3341 2797 3341 1997 
z
" transform="scale(0.015625)"/>
      <path id="DejaVuSans-6c" d="M 603 4863 
L 1178 4863 
L 1178 0 
L 603 0 
L 603 4863 
z
" transform="scale(0.015625)"/>
      <path id="DejaVuSans-20" transform="scale(0.015625)"/>
      <path id="DejaVuSans-53" d="M 3425 4513 
L 3425 3897 
Q 3066 4069 2747 4153 
Q 2428 4238 2131 4238 
Q 1616 4238 1336 4038 
Q 1056 3838 1056 3469 
Q 1056 3159 1242 3001 
Q 1428 2844 1947 2747 
L 2328 2669 
Q 3034 2534 3370 2195 
Q 3706 1856 3706 1288 
Q 3706 609 3251 259 
Q 2797 -91 1919 -91 
Q 1588 -91 1214 -16 
Q 841 59 441 206 
L 441 856 
Q 825 641 1194 531 
Q 1563 422 1919 422 
Q 2459 422 2753 634 
Q 3047 847 3047 1241 
Q 3047 1584 2836 1778 
Q 2625 1972 2144 2069 
L 1759 2144 
Q 1053 2284 737 2584 
Q 422 2884 422 3419 
Q 422 4038 858 4394 
Q 1294 4750 2059 4750 
Q 2388 4750 2728 4690 
Q 3069 4631 3425 4513 
z
" transform="scale(0.015625)"/>
      <path id="DejaVuSans-70" d="M 1159 525 
L 1159 -1331 
L 581 -1331 
L 581 3500 
L 1159 3500 
L 1159 2969 
Q 1341 3281 1617 3432 
Q 1894 3584 2278 3584 
Q 2916 3584 3314 3078 
Q 3713 2572 3713 1747 
Q 3713 922 3314 415 
Q 2916 -91 2278 -91 
Q 1894 -91 1617 61 
Q 1341 213 1159 525 
z
M 3116 1747 
Q 3116 2381 2855 2742 
Q 2594 3103 2138 3103 
Q 1681 3103 1420 2742 
Q 1159 2381 1159 1747 
Q 1159 1113 1420 752 
Q 1681 391 2138 391 
Q 2594 391 2855 752 
Q 3116 1113 3116 1747 
z
" transform="scale(0.015625)"/>
      <path id="DejaVuSans-63" d="M 3122 3366 
L 3122 2828 
Q 2878 2963 2633 3030 
Q 2388 3097 2138 3097 
Q 1578 3097 1268 2742 
Q 959 2388 959 1747 
Q 959 1106 1268 751 
Q 1578 397 2138 397 
Q 2388 397 2633 464 
Q 2878 531 3122 666 
L 3122 134 
Q 2881 22 2623 -34 
Q 2366 -91 2075 -91 
Q 1284 -91 818 406 
Q 353 903 353 1747 
Q 353 2603 823 3093 
Q 1294 3584 2113 3584 
Q 2378 3584 2631 3529 
Q 2884 3475 3122 3366 
z
" transform="scale(0.015625)"/>
      <path id="DejaVuSans-50" d="M 1259 4147 
L 1259 2394 
L 2053 2394 
Q 2494 2394 2734 2622 
Q 2975 2850 2975 3272 
Q 2975 3691 2734 3919 
Q 2494 4147 2053 4147 
L 1259 4147 
z
M 628 4666 
L 2053 4666 
Q 2838 4666 3239 4311 
Q 3641 3956 3641 3272 
Q 3641 2581 3239 2228 
Q 2838 1875 2053 1875 
L 1259 1875 
L 1259 0 
L 628 0 
L 628 4666 
z
" transform="scale(0.015625)"/>
      <path id="DejaVuSans-6f" d="M 1959 3097 
Q 1497 3097 1228 2736 
Q 959 2375 959 1747 
Q 959 1119 1226 758 
Q 1494 397 1959 397 
Q 2419 397 2687 759 
Q 2956 1122 2956 1747 
Q 2956 2369 2687 2733 
Q 2419 3097 1959 3097 
z
M 1959 3584 
Q 2709 3584 3137 3096 
Q 3566 2609 3566 1747 
Q 3566 888 3137 398 
Q 2709 -91 1959 -91 
Q 1206 -91 779 398 
Q 353 888 353 1747 
Q 353 2609 779 3096 
Q 1206 3584 1959 3584 
z
" transform="scale(0.015625)"/>
      <path id="DejaVuSans-6a" d="M 603 3500 
L 1178 3500 
L 1178 -63 
Q 1178 -731 923 -1031 
Q 669 -1331 103 -1331 
L -116 -1331 
L -116 -844 
L 38 -844 
Q 366 -844 484 -692 
Q 603 -541 603 -63 
L 603 3500 
z
M 603 4863 
L 1178 4863 
L 1178 4134 
L 603 4134 
L 603 4863 
z
" transform="scale(0.015625)"/>
      <path id="DejaVuSans-74" d="M 1172 4494 
L 1172 3500 
L 2356 3500 
L 2356 3053 
L 1172 3053 
L 1172 1153 
Q 1172 725 1289 603 
Q 1406 481 1766 481 
L 2356 481 
L 2356 0 
L 1766 0 
Q 1100 0 847 248 
Q 594 497 594 1153 
L 594 3053 
L 172 3053 
L 172 3500 
L 594 3500 
L 594 4494 
L 1172 4494 
z
" transform="scale(0.015625)"/>
      <path id="DejaVuSans-69" d="M 603 3500 
L 1178 3500 
L 1178 0 
L 603 0 
L 603 3500 
z
M 603 4863 
L 1178 4863 
L 1178 4134 
L 603 4134 
L 603 4863 
z
" transform="scale(0.015625)"/>
      <path id="DejaVuSans-6e" d="M 3513 2113 
L 3513 0 
L 2938 0 
L 2938 2094 
Q 2938 2591 2744 2837 
Q 2550 3084 2163 3084 
Q 1697 3084 1428 2787 
Q 1159 2491 1159 1978 
L 1159 0 
L 581 0 
L 581 3500 
L 1159 3500 
L 1159 2956 
Q 1366 3272 1645 3428 
Q 1925 3584 2291 3584 
Q 2894 3584 3203 3211 
Q 3513 2838 3513 2113 
z
" transform="scale(0.015625)"/>
      <path id="DejaVuSans-2d" d="M 313 2009 
L 1997 2009 
L 1997 1497 
L 313 1497 
L 313 2009 
z
" transform="scale(0.015625)"/>
      <path id="DejaVuSans-77" d="M 269 3500 
L 844 3500 
L 1563 769 
L 2278 3500 
L 2956 3500 
L 3675 769 
L 4391 3500 
L 4966 3500 
L 4050 0 
L 3372 0 
L 2619 2869 
L 1863 0 
L 1184 0 
L 269 3500 
z
" transform="scale(0.015625)"/>
      <path id="DejaVuSans-68" d="M 3513 2113 
L 3513 0 
L 2938 0 
L 2938 2094 
Q 2938 2591 2744 2837 
Q 2550 3084 2163 3084 
Q 1697 3084 1428 2787 
Q 1159 2491 1159 1978 
L 1159 0 
L 581 0 
L 581 4863 
L 1159 4863 
L 1159 2956 
Q 1366 3272 1645 3428 
Q 1925 3584 2291 3584 
Q 2894 3584 3203 3211 
Q 3513 2838 3513 2113 
z
" transform="scale(0.015625)"/>
      <path id="DejaVuSans-3d" d="M 678 2906 
L 4684 2906 
L 4684 2381 
L 678 2381 
L 678 2906 
z
M 678 1631 
L 4684 1631 
L 4684 1100 
L 678 1100 
L 678 1631 
z
" transform="scale(0.015625)"/>
      <path id="DejaVuSans-31" d="M 794 531 
L 1825 531 
L 1825 4091 
L 703 3866 
L 703 4441 
L 1819 4666 
L 2450 4666 
L 2450 531 
L 3481 531 
L 3481 0 
L 794 0 
L 794 531 
z
" transform="scale(0.015625)"/>
      <path id="DejaVuSans-39" d="M 703 97 
L 703 672 
Q 941 559 1184 500 
Q 1428 441 1663 441 
Q 2288 441 2617 861 
Q 2947 1281 2994 2138 
Q 2813 1869 2534 1725 
Q 2256 1581 1919 1581 
Q 1219 1581 811 2004 
Q 403 2428 403 3163 
Q 403 3881 828 4315 
Q 1253 4750 1959 4750 
Q 2769 4750 3195 4129 
Q 3622 3509 3622 2328 
Q 3622 1225 3098 567 
Q 2575 -91 1691 -91 
Q 1453 -91 1209 -44 
Q 966 3 703 97 
z
M 1959 2075 
Q 2384 2075 2632 2365 
Q 2881 2656 2881 3163 
Q 2881 3666 2632 3958 
Q 2384 4250 1959 4250 
Q 1534 4250 1286 3958 
Q 1038 3666 1038 3163 
Q 1038 2656 1286 2365 
Q 1534 2075 1959 2075 
z
" transform="scale(0.015625)"/>
     </defs>
     <use xlink:href="#DejaVuSans-52"/>
     <use xlink:href="#DejaVuSans-65" x="64.982422"/>
     <use xlink:href="#DejaVuSans-61" x="126.505859"/>
     <use xlink:href="#DejaVuSans-6c" x="187.785156"/>
     <use xlink:href="#DejaVuSans-20" x="215.568359"/>
     <use xlink:href="#DejaVuSans-53" x="247.355469"/>
     <use xlink:href="#DejaVuSans-70" x="310.832031"/>
     <use xlink:href="#DejaVuSans-61" x="374.308594"/>
     <use xlink:href="#DejaVuSans-63" x="435.587891"/>
     <use xlink:href="#DejaVuSans-65" x="490.568359"/>
     <use xlink:href="#DejaVuSans-20" x="552.091797"/>
     <use xlink:href="#DejaVuSans-50" x="583.878906"/>
     <use xlink:href="#DejaVuSans-72" x="642.431641"/>
     <use xlink:href="#DejaVuSans-6f" x="681.294922"/>
     <use xlink:href="#DejaVuSans-6a" x="742.476562"/>
     <use xlink:href="#DejaVuSans-65" x="770.259766"/>
     <use xlink:href="#DejaVuSans-63" x="831.783203"/>
     <use xlink:href="#DejaVuSans-74" x="886.763672"/>
     <use xlink:href="#DejaVuSans-69" x="925.972656"/>
     <use xlink:href="#DejaVuSans-6f" x="953.755859"/>
     <use xlink:href="#DejaVuSans-6e" x="1014.9375"/>
     <use xlink:href="#DejaVuSans-20" x="1078.316406"/>
     <use xlink:href="#DejaVuSans-6f" x="1110.103516"/>
     <use xlink:href="#DejaVuSans-6e" x="1171.285156"/>
     <use xlink:href="#DejaVuSans-74" x="1234.664062"/>
     <use xlink:href="#DejaVuSans-6f" x="1273.873047"/>
     <use xlink:href="#DejaVuSans-20" x="1335.054688"/>
     <use xlink:href="#DejaVuSans-72" x="1366.841797"/>
     <use xlink:href="#DejaVuSans-2d" x="1401.580078"/>
     <use xlink:href="#DejaVuSans-7a" x="1437.664062"/>
     <use xlink:href="#DejaVuSans-20" x="1490.154297"/>
     <use xlink:href="#DejaVuSans-70" x="1521.941406"/>
     <use xlink:href="#DejaVuSans-6c" x="1585.417969"/>
     <use xlink:href="#DejaVuSans-61" x="1613.201172"/>
     <use xlink:href="#DejaVuSans-6e" x="1674.480469"/>
     <use xlink:href="#DejaVuSans-65" x="1737.859375"/>
     <use xlink:href="#DejaVuSans-20" x="1799.382812"/>
     <use xlink:href="#DejaVuSans-77" x="1831.169922"/>
     <use xlink:href="#DejaVuSans-69" x="1912.957031"/>
     <use xlink:href="#DejaVuSans-74" x="1940.740234"/>
     <use xlink:href="#DejaVuSans-68" x="1979.949219"/>
     <use xlink:href="#DejaVuSans-20" x="2043.328125"/>
     <use xlink:href="#DejaVuSans-69" x="2075.115234"/>
     <use xlink:href="#DejaVuSans-6e" x="2102.898438"/>
     <use xlink:href="#DejaVuSans-69" x="2166.277344"/>
     <use xlink:href="#DejaVuSans-74" x="2194.060547"/>
     <use xlink:href="#DejaVuSans-69" x="2233.269531"/>
     <use xlink:href="#DejaVuSans-61" x="2261.052734"/>
     <use xlink:href="#DejaVuSans-6c" x="2322.332031"/>
     <use xlink:href="#DejaVuSans-20" x="2350.115234"/>
     <use xlink:href="#DejaVuSans-72" x="2381.902344"/>
     <use xlink:href="#DejaVuSans-20" x="2423.015625"/>
     <use xlink:href="#DejaVuSans-3d" x="2454.802734"/>
     <use xlink:href="#DejaVuSans-20" x="2538.591797"/>
     <use xlink:href="#DejaVuSans-2d" x="2570.378906"/>
     <use xlink:href="#DejaVuSans-30" x="2606.462891"/>
     <use xlink:href="#DejaVuSans-2e" x="2670.085938"/>
     <use xlink:href="#DejaVuSans-31" x="2701.873047"/>
     <use xlink:href="#DejaVuSans-39" x="2765.496094"/>
    </g>
   </g>
  </g>
 </g>
 <defs>
  <clipPath id="p7021a93a26">
   <rect x="57.6" y="41.472" width="357.12" height="266.112"/>
  </clipPath>
 </defs>
</svg>
