<?xml version="1.0" encoding="utf-8" standalone="no"?>
<!DOCTYPE svg PUBLIC "-//W3C//DTD SVG 1.1//EN"
  "http://www.w3.org/Graphics/SVG/1.1/DTD/svg11.dtd">
<svg xmlns:xlink="http://www.w3.org/1999/xlink" width="460.8pt" height="345.6pt" viewBox="0 0 460.8 345.6" xmlns="http://www.w3.org/2000/svg" version="1.1">
 <metadata>
  <rdf:RDF xmlns:dc="http://purl.org/dc/elements/1.1/" xmlns:cc="http://creativecommons.org/ns#" xmlns:rdf="http://www.w3.org/1999/02/22-rdf-syntax-ns#">
   <cc:Work>
    <dc:type rdf:resource="http://purl.org/dc/dcmitype/StillImage"/>
    <dc:date>2023-10-23T13:51:37.896234</dc:date>
    <dc:format>image/svg+xml</dc:format>
    <dc:creator>
     <cc:Agent>
      <dc:title>Matplotlib v3.8.0, https://matplotlib.org/</dc:title>
     </cc:Agent>
    </dc:creator>
   </cc:Work>
  </rdf:RDF>
 </metadata>
 <defs>
  <style type="text/css">*{stroke-linejoin: round; stroke-linecap: butt}</style>
 </defs>
 <g id="figure_1">
  <g id="patch_1">
   <path d="M 0 345.6 
L 460.8 345.6 
L 460.8 0 
L 0 0 
z
" style="fill: #ffffff"/>
  </g>
  <g id="axes_1">
   <g id="patch_2">
    <path d="M 57.6 307.584 
L 414.72 307.584 
L 414.72 41.472 
L 57.6 41.472 
z
" style="fill: #ffffff"/>
   </g>
   <g id="matplotlib.axis_1">
    <g id="xtick_1">
     <g id="line2d_1">
      <defs>
       <path id="m37ade7c108" d="M 0 0 
L 0 3.5 
" style="stroke: #000000; stroke-width: 0.8"/>
      </defs>
      <g>
       <use xlink:href="#m37ade7c108" x="93.312" y="307.584" style="stroke: #000000; stroke-width: 0.8"/>
      </g>
     </g>
     <g id="text_1">
      <!-- −0.4 -->
      <g transform="translate(81.170594 322.182437) scale(0.1 -0.1)">
       <defs>
        <path id="DejaVuSans-2212" d="M 678 2272 
L 4684 2272 
L 4684 1741 
L 678 1741 
L 678 2272 
z
" transform="scale(0.015625)"/>
        <path id="DejaVuSans-30" d="M 2034 4250 
Q 1547 4250 1301 3770 
Q 1056 3291 1056 2328 
Q 1056 1369 1301 889 
Q 1547 409 2034 409 
Q 2525 409 2770 889 
Q 3016 1369 3016 2328 
Q 3016 3291 2770 3770 
Q 2525 4250 2034 4250 
z
M 2034 4750 
Q 2819 4750 3233 4129 
Q 3647 3509 3647 2328 
Q 3647 1150 3233 529 
Q 2819 -91 2034 -91 
Q 1250 -91 836 529 
Q 422 1150 422 2328 
Q 422 3509 836 4129 
Q 1250 4750 2034 4750 
z
" transform="scale(0.015625)"/>
        <path id="DejaVuSans-2e" d="M 684 794 
L 1344 794 
L 1344 0 
L 684 0 
L 684 794 
z
" transform="scale(0.015625)"/>
        <path id="DejaVuSans-34" d="M 2419 4116 
L 825 1625 
L 2419 1625 
L 2419 4116 
z
M 2253 4666 
L 3047 4666 
L 3047 1625 
L 3713 1625 
L 3713 1100 
L 3047 1100 
L 3047 0 
L 2419 0 
L 2419 1100 
L 313 1100 
L 313 1709 
L 2253 4666 
z
" transform="scale(0.015625)"/>
       </defs>
       <use xlink:href="#DejaVuSans-2212"/>
       <use xlink:href="#DejaVuSans-30" x="83.789062"/>
       <use xlink:href="#DejaVuSans-2e" x="147.412109"/>
       <use xlink:href="#DejaVuSans-34" x="179.199219"/>
      </g>
     </g>
    </g>
    <g id="xtick_2">
     <g id="line2d_2">
      <g>
       <use xlink:href="#m37ade7c108" x="164.736" y="307.584" style="stroke: #000000; stroke-width: 0.8"/>
      </g>
     </g>
     <g id="text_2">
      <!-- −0.2 -->
      <g transform="translate(152.594594 322.182437) scale(0.1 -0.1)">
       <defs>
        <path id="DejaVuSans-32" d="M 1228 531 
L 3431 531 
L 3431 0 
L 469 0 
L 469 531 
Q 828 903 1448 1529 
Q 2069 2156 2228 2338 
Q 2531 2678 2651 2914 
Q 2772 3150 2772 3378 
Q 2772 3750 2511 3984 
Q 2250 4219 1831 4219 
Q 1534 4219 1204 4116 
Q 875 4013 500 3803 
L 500 4441 
Q 881 4594 1212 4672 
Q 1544 4750 1819 4750 
Q 2544 4750 2975 4387 
Q 3406 4025 3406 3419 
Q 3406 3131 3298 2873 
Q 3191 2616 2906 2266 
Q 2828 2175 2409 1742 
Q 1991 1309 1228 531 
z
" transform="scale(0.015625)"/>
       </defs>
       <use xlink:href="#DejaVuSans-2212"/>
       <use xlink:href="#DejaVuSans-30" x="83.789062"/>
       <use xlink:href="#DejaVuSans-2e" x="147.412109"/>
       <use xlink:href="#DejaVuSans-32" x="179.199219"/>
      </g>
     </g>
    </g>
    <g id="xtick_3">
     <g id="line2d_3">
      <g>
       <use xlink:href="#m37ade7c108" x="236.16" y="307.584" style="stroke: #000000; stroke-width: 0.8"/>
      </g>
     </g>
     <g id="text_3">
      <!-- 0.0 -->
      <g transform="translate(228.208438 322.182437) scale(0.1 -0.1)">
       <use xlink:href="#DejaVuSans-30"/>
       <use xlink:href="#DejaVuSans-2e" x="63.623047"/>
       <use xlink:href="#DejaVuSans-30" x="95.410156"/>
      </g>
     </g>
    </g>
    <g id="xtick_4">
     <g id="line2d_4">
      <g>
       <use xlink:href="#m37ade7c108" x="307.584" y="307.584" style="stroke: #000000; stroke-width: 0.8"/>
      </g>
     </g>
     <g id="text_4">
      <!-- 0.2 -->
      <g transform="translate(299.632437 322.182437) scale(0.1 -0.1)">
       <use xlink:href="#DejaVuSans-30"/>
       <use xlink:href="#DejaVuSans-2e" x="63.623047"/>
       <use xlink:href="#DejaVuSans-32" x="95.410156"/>
      </g>
     </g>
    </g>
    <g id="xtick_5">
     <g id="line2d_5">
      <g>
       <use xlink:href="#m37ade7c108" x="379.008" y="307.584" style="stroke: #000000; stroke-width: 0.8"/>
      </g>
     </g>
     <g id="text_5">
      <!-- 0.4 -->
      <g transform="translate(371.056437 322.182437) scale(0.1 -0.1)">
       <use xlink:href="#DejaVuSans-30"/>
       <use xlink:href="#DejaVuSans-2e" x="63.623047"/>
       <use xlink:href="#DejaVuSans-34" x="95.410156"/>
      </g>
     </g>
    </g>
    <g id="text_6">
     <!-- r -->
     <g transform="translate(234.104531 335.860562) scale(0.1 -0.1)">
      <defs>
       <path id="DejaVuSans-72" d="M 2631 2963 
Q 2534 3019 2420 3045 
Q 2306 3072 2169 3072 
Q 1681 3072 1420 2755 
Q 1159 2438 1159 1844 
L 1159 0 
L 581 0 
L 581 3500 
L 1159 3500 
L 1159 2956 
Q 1341 3275 1631 3429 
Q 1922 3584 2338 3584 
Q 2397 3584 2469 3576 
Q 2541 3569 2628 3553 
L 2631 2963 
z
" transform="scale(0.015625)"/>
      </defs>
      <use xlink:href="#DejaVuSans-72"/>
     </g>
    </g>
   </g>
   <g id="matplotlib.axis_2">
    <g id="ytick_1">
     <g id="line2d_6">
      <defs>
       <path id="m3650fee198" d="M 0 0 
L -3.5 0 
" style="stroke: #000000; stroke-width: 0.8"/>
      </defs>
      <g>
       <use xlink:href="#m3650fee198" x="57.6" y="280.9728" style="stroke: #000000; stroke-width: 0.8"/>
      </g>
     </g>
     <g id="text_7">
      <!-- −0.4 -->
      <g transform="translate(26.317187 284.772019) scale(0.1 -0.1)">
       <use xlink:href="#DejaVuSans-2212"/>
       <use xlink:href="#DejaVuSans-30" x="83.789062"/>
       <use xlink:href="#DejaVuSans-2e" x="147.412109"/>
       <use xlink:href="#DejaVuSans-34" x="179.199219"/>
      </g>
     </g>
    </g>
    <g id="ytick_2">
     <g id="line2d_7">
      <g>
       <use xlink:href="#m3650fee198" x="57.6" y="227.7504" style="stroke: #000000; stroke-width: 0.8"/>
      </g>
     </g>
     <g id="text_8">
      <!-- −0.2 -->
      <g transform="translate(26.317187 231.549619) scale(0.1 -0.1)">
       <use xlink:href="#DejaVuSans-2212"/>
       <use xlink:href="#DejaVuSans-30" x="83.789062"/>
       <use xlink:href="#DejaVuSans-2e" x="147.412109"/>
       <use xlink:href="#DejaVuSans-32" x="179.199219"/>
      </g>
     </g>
    </g>
    <g id="ytick_3">
     <g id="line2d_8">
      <g>
       <use xlink:href="#m3650fee198" x="57.6" y="174.528" style="stroke: #000000; stroke-width: 0.8"/>
      </g>
     </g>
     <g id="text_9">
      <!-- 0.0 -->
      <g transform="translate(34.696875 178.327219) scale(0.1 -0.1)">
       <use xlink:href="#DejaVuSans-30"/>
       <use xlink:href="#DejaVuSans-2e" x="63.623047"/>
       <use xlink:href="#DejaVuSans-30" x="95.410156"/>
      </g>
     </g>
    </g>
    <g id="ytick_4">
     <g id="line2d_9">
      <g>
       <use xlink:href="#m3650fee198" x="57.6" y="121.3056" style="stroke: #000000; stroke-width: 0.8"/>
      </g>
     </g>
     <g id="text_10">
      <!-- 0.2 -->
      <g transform="translate(34.696875 125.104819) scale(0.1 -0.1)">
       <use xlink:href="#DejaVuSans-30"/>
       <use xlink:href="#DejaVuSans-2e" x="63.623047"/>
       <use xlink:href="#DejaVuSans-32" x="95.410156"/>
      </g>
     </g>
    </g>
    <g id="ytick_5">
     <g id="line2d_10">
      <g>
       <use xlink:href="#m3650fee198" x="57.6" y="68.0832" style="stroke: #000000; stroke-width: 0.8"/>
      </g>
     </g>
     <g id="text_11">
      <!-- 0.4 -->
      <g transform="translate(34.696875 71.882419) scale(0.1 -0.1)">
       <use xlink:href="#DejaVuSans-30"/>
       <use xlink:href="#DejaVuSans-2e" x="63.623047"/>
       <use xlink:href="#DejaVuSans-34" x="95.410156"/>
      </g>
     </g>
    </g>
    <g id="text_12">
     <!-- z -->
     <g transform="translate(20.2375 177.152219) rotate(-90) scale(0.1 -0.1)">
      <defs>
       <path id="DejaVuSans-7a" d="M 353 3500 
L 3084 3500 
L 3084 2975 
L 922 459 
L 3084 459 
L 3084 0 
L 275 0 
L 275 525 
L 2438 3041 
L 353 3041 
L 353 3500 
z
" transform="scale(0.015625)"/>
      </defs>
      <use xlink:href="#DejaVuSans-7a"/>
     </g>
    </g>
   </g>
   <g id="line2d_11">
    <path d="M 236.16 165.6576 
L 243.028179 167.251354 
L 274.337859 174.818182 
L 314.659187 185.688557 
L 347.336787 196.588144 
L 371.341813 208.049749 
L 384.550204 219.627253 
L 387.010095 230.093763 
L 381.075874 237.96993 
L 366.831211 242.961197 
L 342.372292 242.054496 
L 313.441363 233.866561 
L 278.325088 218.125556 
L 236.862092 194.847437 
L 203.271911 173.644654 
L 173.11755 152.93611 
L 149.976222 135.028086 
L 136.390476 120.941372 
L 135.067408 114.245965 
L 142.12702 111.459441 
L 158.677952 112.72589 
L 182.72547 118.003422 
L 216.241411 128.133711 
L 248.722438 140.285807 
L 279.974324 154.533781 
L 313.124644 173.994254 
L 340.769091 197.368284 
L 357.886273 222.06829 
L 363.054628 241.612338 
L 360.18354 254.027457 
L 352.684422 258.068921 
L 341.338636 254.815572 
L 327.248276 245.172595 
L 307.445455 227.706389 
L 281.035817 202.718892 
L 248.708743 172.868578 
L 221.093471 148.591098 
L 196.182104 127.302967 
L 174.199545 108.079514 
L 160.735054 94.068505 
L 158.252679 87.618213 
L 163.511522 85.485665 
L 176.645258 87.751802 
L 198.131277 95.092327 
L 226.626079 108.182513 
L 255.68971 125.315444 
L 280.177593 143.911079 
L 305.467 170.311888 
L 324.226997 201.123228 
L 333.415665 229.731973 
L 335.103903 250.919323 
L 331.803995 263.098484 
L 326.819017 264.789613 
L 319.963961 259.825003 
L 310.392415 247.497265 
L 278.181678 198.561862 
L 254.809824 166.455916 
L 230.251643 136.509632 
L 207.797277 111.398789 
L 190.318081 92.133236 
L 179.146893 77.963419 
L 176.629414 71.057994 
L 180.516557 68.473172 
L 190.671247 70.233932 
L 207.796407 77.176276 
L 230.210421 90.027389 
L 252.422403 107.020218 
L 271.121665 126.14729 
L 289.85849 153.740582 
L 302.927802 186.098979 
L 308.818688 218.034436 
L 309.039732 243.535365 
L 305.915095 260.452201 
L 300.727203 268.005411 
L 294.793094 266.531071 
L 287.92814 257.929272 
L 278.470906 240.139591 
L 250.760409 180.557818 
L 233.864713 146.803059 
L 217.900839 116.771431 
L 205.565523 93.249709 
L 197.476079 74.600128 
L 195.375199 63.686793 
L 197.901699 57.045844 
L 204.812568 54.689154 
L 216.820132 57.013502 
L 232.432165 65.010044 
L 247.634937 77.509825 
L 260.124981 92.741271 
L 272.028103 115.741738 
L 280.210083 147.896549 
L 282.190993 176.89041 
L 280.514842 205.954761 
L 276.232377 231.815249 
L 269.33774 254.697139 
L 260.69026 268.115157 
L 253.588215 269.515181 
L 246.217721 263.157651 
L 237.697785 247.576056 
L 228.108411 221.756375 
L 218.533731 188.570306 
L 210.861429 154.589942 
L 206.419598 124.834506 
L 205.453387 102.07314 
L 207.590987 82.951552 
L 213.153908 67.353031 
L 222.642764 55.546207 
L 233.417193 49.736721 
L 243.192624 48.707749 
L 251.904107 51.291522 
L 260.044756 58.805439 
L 265.301482 72.72958 
L 266.253813 88.5583 
L 264.25018 107.894224 
L 259.352212 131.917462 
L 251.316637 162.092755 
L 241.158491 195.30702 
L 231.228765 224.37506 
L 220.841109 249.783347 
L 210.770888 265.979833 
L 203.242011 269.682174 
L 196.411137 264.528702 
L 190.43993 251.023327 
L 185.489035 228.196514 
L 183.218441 198.426636 
L 185.386252 165.641658 
L 192.465573 136.297057 
L 206.168712 107.731099 
L 226.189469 83.566803 
L 241.32219 71.42077 
L 255.691052 63.151991 
L 269.007407 58.462726 
L 278.667202 58.727 
L 281.816164 63.816128 
L 279.492679 73.437563 
L 272.608323 86.72316 
L 260.353784 106.443974 
L 244.031016 132.124577 
L 226.730227 160.996269 
L 211.663691 188.421636 
L 197.300007 216.657741 
L 183.794134 243.654354 
L 172.992335 261.745311 
L 166.000339 267.596972 
L 160.686125 264.598222 
L 157.485175 254.519479 
L 156.348825 237.303703 
L 158.220353 216.09595 
L 165.199108 188.186332 
L 179.332558 157.930801 
L 198.814901 131.680218 
L 226.213846 106.554233 
L 248.435704 91.552009 
L 267.663801 81.3224 
L 285.712371 74.186219 
L 297.494166 72.397532 
L 300.119601 75.653552 
L 296.036672 83.170539 
L 285.481672 95.191011 
L 267.543058 113.474576 
L 244.335491 137.359622 
L 220.334206 163.93287 
L 198.703345 190.317138 
L 178.31332 217.553992 
L 160.128641 242.714954 
L 146.461434 258.940112 
L 138.546573 263.696157 
L 133.176221 260.842896 
L 130.712347 251.90498 
L 131.264959 237.302772 
L 135.634532 219.218721 
L 147.674452 193.606745 
L 169.031107 166.217115 
L 197.335839 141.836904 
L 231.024852 120.787429 
L 260.162722 106.716999 
L 285.596414 97.005326 
L 306.824784 91.43677 
L 317.461002 91.478443 
L 318.884131 96.309787 
L 312.502988 104.838142 
L 297.668992 118.610686 
L 273.914837 138.293574 
L 244.191415 162.36825 
L 213.702585 187.434644 
L 186.761427 209.897357 
L 158.307028 232.913952 
L 134.439037 249.094107 
L 119.508098 254.90662 
L 110.21437 254.370265 
L 104.461424 249.530578 
L 102.167149 239.318706 
L 105.827126 224.988149 
L 119.101205 205.722007 
L 145.2962 184.082375 
L 183.621003 163.115109 
L 231.809574 143.868265 
L 269.416123 131.983106 
L 302.157763 123.726459 
L 328.374639 119.618139 
L 341.237051 120.602041 
L 344.204695 125.836093 
L 337.895146 135.013679 
L 322.161647 148.554103 
L 296.135492 166.817391 
L 267.113041 184.84639 
L 237.003334 201.657451 
L 201.666346 218.661369 
L 163.560585 232.469818 
L 133.237539 238.49842 
L 113.411815 238.901934 
L 97.820677 236.090177 
L 85.803121 229.713729 
L 82.31725 220.12218 
L 91.618526 209.855276 
L 112.026771 200.748731 
L 142.137816 192.202489 
L 180.490118 183.626125 
L 224.899811 174.630576 
L 266.031293 166.571711 
L 303.690737 159.506595 
L 335.171231 154.409828 
L 356.856379 152.521378 
L 367.092404 154.185923 
L 367.82771 159.056523 
L 360.199457 166.664553 
L 342.585605 177.988516 
L 318.707283 190.161642 
L 288.020946 202.907455 
L 250.584682 214.707435 
L 208.257852 222.881126 
L 170.732311 225.023312 
L 137.114438 222.332395 
L 109.969829 216.341232 
L 89.506657 208.191372 
L 81.62083 201.602485 
L 84.170843 196.678801 
L 95.630794 193.953186 
L 114.108975 192.646976 
L 133.748251 192.14667 
L 156.941384 191.771613 
L 181.756116 191.223787 
L 213.484444 190.016298 
L 252.6116 187.558724 
L 294.24395 183.806715 
L 349.490206 177.972953 
L 365.85905 176.767408 
L 377.022987 176.896389 
L 382.323162 178.418516 
L 382.196022 182.061111 
L 374.917857 187.71602 
L 358.416406 195.880963 
L 333.243914 205.064333 
L 300.593544 213.46916 
L 261.014168 219.084222 
L 219.764059 219.726498 
L 179.769179 215.269171 
L 141.52745 206.245625 
L 111.504428 195.39083 
L 94.177753 186.291191 
L 88.928802 180.373213 
L 93.627348 177.57765 
L 104.006619 177.168884 
L 119.80599 178.173742 
L 141.25722 180.301915 
L 169.081563 183.250522 
L 202.747435 186.446766 
L 241.573208 189.237572 
L 283.428139 191.034102 
L 317.880063 191.708657 
L 341.556919 191.998448 
L 360.479363 192.453413 
L 376.092406 193.520385 
L 386.900074 195.73406 
L 390.937794 199.521377 
L 387.10112 204.825938 
L 375.388783 211.141438 
L 355.400984 217.736437 
L 327.532138 222.961086 
L 291.794678 224.75321 
L 246.982473 220.348855 
L 201.310315 209.134561 
L 159.281659 193.344717 
L 132.423526 180.267793 
L 116.324834 170.627384 
L 106.368464 162.704161 
L 103.431708 156.312837 
L 110.317226 153.438053 
L 123.93507 153.697898 
L 142.995682 156.037262 
L 171.984999 160.886742 
L 208.684987 167.739079 
L 249.029966 175.527286 
L 288.100237 183.251698 
L 328.292411 191.895249 
L 359.135424 200.233492 
L 379.645775 208.784561 
L 389.422959 217.56935 
L 389.740418 225.064208 
L 383.166098 231.73403 
L 368.267589 237.121981 
L 344.702845 238.576566 
L 309.837148 232.745414 
L 270.987993 219.187345 
L 227.339621 198.165233 
L 192.377859 178.131878 
L 161.723473 158.230454 
L 140.695392 142.287147 
L 128.507024 129.233917 
L 128.264058 122.825884 
L 136.244641 120.368782 
L 153.947553 121.647799 
L 178.768625 126.570221 
L 213.321498 135.866597 
L 252.31023 148.783395 
L 286.073099 162.387864 
L 321.219153 180.501185 
L 347.568923 199.702607 
L 365.154041 220.902543 
L 370.831562 238.613953 
L 367.71404 250.340879 
L 358.530184 254.917568 
L 344.34428 251.874789 
L 327.488532 242.477437 
L 304.297199 225.378335 
L 274.048782 200.762009 
L 238.24106 171.386669 
L 182.231642 126.065606 
L 162.093078 108.330277 
L 152.753367 96.595635 
L 154.33203 92.07097 
L 163.372295 91.764438 
L 180.198776 95.620707 
L 206.292177 104.871644 
L 237.819963 119.431767 
L 267.058329 136.619476 
L 294.34788 157.59418 
L 320.057905 186.068913 
L 335.513418 214.376925 
L 341.977555 239.20977 
L 341.582962 256.187209 
L 337.262281 263.149612 
L 331.110491 262.355711 
L 323.21862 255.616076 
L 311.384529 240.992958 
L 294.742892 218.190341 
L 272.498021 188.840947 
L 245.810926 157.112122 
L 223.180197 132.75783 
L 184.533364 93.49698 
L 173.599839 80.311179 
L 171.868774 74.469621 
L 176.485021 72.672496 
L 187.919769 75.141722 
L 206.809969 82.923696 
L 231.121407 96.575407 
L 254.916623 114.091598 
L 275.366954 134.027435 
L 295.721986 162.449812 
L 309.493473 194.286224 
L 315.714559 223.853207 
L 316.352452 247.775012 
L 313.194467 263.023443 
L 308.311699 267.623865 
L 301.812883 263.694822 
L 293.969578 252.139259 
L 283.151005 231.544699 
L 268.761474 202.875024 
L 250.897714 169.584225 
L 231.88949 137.617573 
L 200.595447 88.748096 
L 191.929046 72.430099 
L 190.021433 63.661177 
L 193.115978 59.030077 
L 201.198882 58.560732 
L 214.822067 62.997279 
L 232.498158 73.224148 
L 249.609623 87.709454 
L 263.930085 104.944221 
L 277.679485 130.386967 
L 287.32992 165.374644 
L 289.81685 194.685113 
L 288.530012 222.141297 
L 284.542256 245.321158 
L 277.805098 263.389075 
L 270.606499 269.611198 
L 262.632465 265.731245 
L 254.578896 253.404268 
L 244.794431 230.911407 
L 233.740722 199.737602 
L 222.708245 164.81552 
L 214.078057 133.932679 
L 207.876983 105.024823 
L 205.912106 84.686435 
L 207.494115 68.703143 
L 212.317081 57.799892 
L 221.013105 50.619089 
L 232.673088 48.804759 
L 242.415276 51.558308 
L 251.097792 57.61345 
L 259.589976 69.243391 
L 265.544674 87.956877 
L 267.149167 108.96889 
L 265.514011 133.457554 
L 261.220183 160.336119 
L 254.02138 192.043446 
L 245.77666 220.907885 
L 236.168638 247.195822 
L 226.104519 264.929209 
L 217.938444 269.932653 
L 210.195294 265.324452 
L 203.271591 252.246355 
L 196.666351 229.248698 
L 191.985614 198.470263 
L 190.954818 168.199548 
L 193.955656 138.967178 
L 201.997796 111.313535 
L 215.83015 86.920403 
L 231.454127 70.475149 
L 245.00389 61.137017 
L 256.950955 55.942057 
L 268.040537 54.467913 
L 275.079604 58.416611 
L 276.339754 65.971399 
L 273.515999 77.302923 
L 266.519034 93.426279 
L 254.902717 116.122944 
L 240.176543 144.305664 
L 225.104445 174.588959 
L 210.957521 204.886573 
L 197.711518 233.976297 
L 186.26907 256.485219 
L 177.146011 267.538176 
L 171.636383 267.542396 
L 167.560772 261.243228 
L 164.408842 246.87163 
L 163.684963 225.711151 
L 166.322405 201.421591 
L 174.95017 170.503438 
L 189.69868 141.510104 
L 213.352707 112.628109 
L 235.783379 93.796912 
L 258.225141 79.772466 
L 276.006267 71.585449 
L 289.581722 68.084733 
L 295.170833 70.561049 
L 292.405315 78.112134 
L 283.772633 89.341403 
L 247.267099 130.207938 
L 227.384416 153.89377 
L 208.379963 178.684457 
L 187.519643 208.883593 
L 169.862995 236.379788 
L 156.186324 256.239325 
L 147.583775 264.359152 
L 142.388841 264.31427 
L 139.180399 258.784853 
L 137.841837 246.556089 
L 139.570648 229.851162 
L 146.050056 207.305706 
L 160.72368 179.174551 
L 183.542376 151.750142 
L 215.500502 125.698789 
L 242.456533 109.357894 
L 268.674698 96.737857 
L 291.490858 88.296175 
L 307.889441 84.938509 
L 313.537967 87.175201 
L 310.413942 94.274988 
L 299.99642 105.235929 
L 280.840401 122.283563 
L 254.537773 144.873842 
L 225.512616 170.487679 
L 199.395729 194.669247 
L 173.19625 219.807253 
L 149.193544 242.081246 
L 130.804184 255.38058 
L 120.572549 258.350303 
L 113.597649 255.190326 
L 110.293168 246.77558 
L 111.357258 233.197505 
L 118.398382 215.920912 
L 136.241693 192.985848 
L 165.705211 169.49291 
L 204.533311 148.060267 
L 241.008693 132.707439 
L 276.840769 120.646384 
L 306.538105 113.071015 
L 327.962816 110.495012 
L 336.636149 113.581156 
L 334.149829 121.475267 
L 323.181123 132.719679 
L 301.961053 149.513356 
L 271.898252 170.530643 
L 238.30292 192.149877 
L 205.937065 211.180042 
L 170.634568 228.944356 
L 137.031199 240.847015 
L 115.606131 244.00482 
L 99.278319 242.155743 
L 89.335996 236.733581 
L 85.528591 227.173166 
L 93.220006 214.357612 
L 114.316529 201.20078 
L 146.780099 188.739484 
L 188.765042 176.563965 
L 235.936632 164.871791 
L 277.607453 155.530366 
L 314.458664 148.273192 
L 342.632439 144.356985 
L 356.706225 144.387925 
L 362.500545 147.26831 
L 360.083776 153.979509 
L 348.839086 163.730387 
L 327.121836 177.44021 
L 299.969409 191.505155 
L 267.373745 205.454386 
L 228.739963 218.043285 
L 186.773267 226.280374 
L 153.358289 228.084728 
L 124.299666 225.550162 
L 100.940934 219.86594 
L 84.468508 211.911358 
L 80.271762 205.488806 
L 86.014944 200.393604 
L 100.623058 196.961182 
L 122.271046 194.642432 
L 179.598635 190.74256 
L 216.628132 187.802932 
L 259.825341 183.411855 
L 297.347975 178.82435 
L 324.32319 175.30387 
L 343.802462 172.894668 
L 359.110444 171.392294 
L 371.637497 171.01365 
L 378.53307 172.280509 
L 379.587 175.620622 
L 373.604539 181.203773 
L 358.55066 189.606201 
L 334.719533 199.559294 
L 303.268942 209.391484 
L 264.996731 217.16613 
L 220.736146 220.519211 
L 175.997709 217.597199 
L 139.775113 210.382597 
L 109.77525 200.581441 
L 91.824404 191.720444 
L 86.337801 185.718642 
L 91.319152 182.757997 
L 102.085719 182.153598 
L 118.419371 182.852741 
L 139.522091 184.438263 
L 167.519712 186.654116 
L 200.918524 188.840463 
L 239.018368 190.362753 
L 279.123371 190.725346 
L 314.514347 190.116497 
L 343.651497 189.293991 
L 362.291994 188.9972 
L 376.341494 189.418334 
L 385.655457 190.929544 
L 389.316184 194.138884 
L 385.37652 199.165241 
L 373.398855 205.612683 
L 352.863798 212.805053 
L 324.490212 219.074113 
L 288.405278 222.468123 
L 244.280039 220.448207 
L 199.700076 212.061462 
L 157.45551 198.583368 
L 128.837333 186.171863 
L 110.744606 176.199288 
L 100.426525 168.161051 
L 98.783206 163.219017 
L 105.574619 160.857234 
L 118.791569 161.158024 
L 137.286892 163.288451 
L 165.084364 167.519913 
L 235.753869 178.995704 
L 272.715627 184.663544 
L 314.909335 190.971332 
L 349.984209 196.845103 
L 374.180746 202.654185 
L 387.994838 209.009967 
L 392.016646 215.959234 
L 387.427514 222.816989 
L 375.219417 228.994278 
L 354.833473 233.370586 
L 326.048396 233.720912 
L 286.258492 226.817022 
L 243.019849 212.259281 
L 202.57293 193.653132 
L 170.638457 176.024169 
L 144.23989 159.032351 
L 127.337395 145.542401 
L 120.100525 135.107582 
L 125.239913 130.173418 
L 138.315453 129.769847 
L 158.380697 132.445848 
L 188.252709 138.716853 
L 226.395968 148.670385 
L 266.62568 161.08063 
L 303.16437 174.625712 
L 337.107689 190.862383 
L 361.192155 207.601289 
L 375.092707 224.805187 
L 377.774594 238.932145 
L 372.211819 247.948893 
L 359.69192 251.179172 
L 341.491911 247.069247 
L 319.652636 236.403212 
L 290.775308 217.969913 
L 254.818443 192.326421 
L 224.17509 169.692413 
L 194.699779 147.502157 
L 168.95631 127.172363 
L 151.429367 110.992016 
L 146.178432 102.170134 
L 150.730239 98.295846 
L 163.918318 99.194248 
L 184.929341 104.45424 
L 215.130385 115.13202 
L 244.782433 128.341363 
L 273.523136 144.22007 
L 303.023709 165.467743 
L 329.395998 193.240043 
L 344.194367 219.535341 
L 349.777994 242.074957 
L 348.288053 256.787441 
L 342.918883 261.826671 
L 334.463579 259.094426 
L 323.96631 249.809007 
L 308.829484 232.521484 
L 288.018179 207.495334 
L 261.330438 177.166756 
L 231.806325 146.68178 
L 204.67584 120.738497 
L 183.988495 101.226666 
L 170.407785 86.787663 
L 166.821532 79.633255 
L 170.90126 77.111174 
L 182.038138 79.106082 
L 201.004994 86.220035 
L 226.450612 99.224028 
L 249.570626 114.31492 
L 270.561653 131.687361 
L 293.2249 157.111364 
L 312.575988 191.501261 
L 321.558437 222.385615 
L 323.57009 246.553219 
L 321.08898 262.080434 
L 316.511338 266.746443 
L 310.080756 263.125982 
L 302.134363 252.155222 
L 290.922764 232.42297 
L 275.671665 204.685273 
L 256.257496 172.079897 
L 234.940992 140.258455 
L 216.257569 114.837041 
L 200.341574 93.805588 
L 188.897787 77.14737 
L 184.843446 67.464508 
L 187.144266 62.60579 
L 194.765042 62.408347 
L 208.429714 66.925817 
L 227.341698 77.28035 
L 243.881974 89.695306 
L 259.049124 104.666749 
L 275.398296 127.254356 
L 289.359749 159.013045 
L 295.957353 190.050751 
L 297.37392 218.802687 
L 295.230273 242.761999 
L 290.175803 261.269569 
L 283.758402 268.974684 
L 277.076258 267.125239 
L 269.81192 257.688875 
L 260.378792 238.495436 
L 248.866788 210.084454 
L 235.819883 175.924269 
L 223.173633 142.339737 
L 212.90458 113.61375 
L 205.674295 88.902385 
L 203.215946 72.289977 
L 204.780701 60.239971 
L 209.845542 53.235353 
L 219.112616 50.207001 
L 231.648258 52.602379 
L 242.278249 58.610283 
L 251.775291 67.597455 
L 261.460378 82.860414 
L 268.74756 105.911004 
L 271.301832 131.826151 
L 270.056346 160.71915 
L 266.172036 188.512207 
L 260.151384 216.375098 
L 251.943044 243.222036 
L 242.506253 262.684874 
L 233.927548 269.844793 
L 225.42226 266.486854 
L 217.908635 254.66673 
L 209.936759 232.590293 
L 202.857094 201.82576 
L 198.538959 167.637729 
L 198.100654 140.364803 
L 201.027666 115.512042 
L 208.379825 92.026046 
L 220.593987 72.297919 
L 233.666313 60.217924 
L 245.485928 53.822676 
L 255.937671 51.43073 
L 265.222346 53.351644 
L 270.657408 61.04684 
L 271.144736 70.958561 
L 268.487733 84.164353 
L 262.10897 103.131318 
L 251.814745 128.693406 
L 238.993106 159.208096 
L 214.195774 219.414294 
L 202.395533 246.370619 
L 192.159591 263.930761 
L 184.932371 269.018396 
L 178.856933 265.013511 
L 174.352856 253.276856 
L 171.433021 233.189684 
L 171.533174 207.216344 
L 175.923857 178.379785 
L 186.307667 147.922289 
L 203.581383 119.105438 
L 226.320514 94.969935 
L 244.717061 81.086039 
L 260.957083 71.741234 
L 276.498379 65.456677 
L 287.226325 64.270444 
L 290.173625 68.042692 
L 287.027204 76.214065 
L 278.433708 88.516206 
L 243.957975 131.627196 
L 223.586285 159.123896 
L 205.532858 186.138044 
L 188.155408 214.878417 
L 172.732796 241.680022 
L 160.863205 259.854147 
L 153.548843 266.04251 
L 148.785448 264.30571 
L 145.895752 256.279748 
L 145.174887 241.547421 
L 147.415295 223.336729 
L 154.980653 197.756698 
L 170.493163 168.399642 
L 192.674119 141.609306 
L 226.791469 113.785421 
L 252.222593 98.56329 
L 274.13117 88.148687 
L 293.861791 81.199079 
L 305.957458 79.867558 
L 307.986422 83.425738 
L 303.073728 91.041263 
L 290.8647 103.49585 
L 244.532931 146.041276 
L 217.699711 172.149032 
L 193.110723 197.908214 
L 169.277876 224.365252 
L 148.884578 246.44944 
L 133.851532 258.771178 
L 125.910834 260.763177 
L 120.627196 256.813137 
L 118.315709 247.164503 
L 119.943356 232.585678 
L 127.184885 213.436738 
L 144.336674 188.697238 
L 171.958407 163.674063 
L 206.521123 141.874834 
L 240.501261 125.588306 
L 273.897708 112.905586 
L 301.548891 104.935055 
L 321.612135 102.025054 
L 329.488997 105.043923 
L 326.331766 112.989225 
L 314.90478 124.539536 
L 293.582301 141.859887 
L 263.942366 163.843821 
L 234.082754 185.053834 
L 205.196115 204.797589 
L 172.544786 225.448696 
L 141.368235 241.508846 
L 119.870035 248.137506 
L 106.757907 248.619577 
L 97.28403 245.344744 
L 91.486057 237.681168 
L 92.757585 225.638139 
L 105.397112 209.919937 
L 132.176702 192.812 
L 171.378696 176.267477 
L 219.923417 160.638901 
L 260.227566 149.729527 
L 296.155348 141.358132 
L 327.974347 135.697894 
L 346.015178 134.548587 
L 355.015728 137.122124 
L 354.324742 143.768825 
L 345.17412 153.17853 
L 325.468749 167.332082 
L 300.78754 182.02063 
L 273.541403 196.072518 
L 238.410173 211.277733 
L 199.100885 223.98841 
L 157.552309 231.278804 
L 131.559333 231.767229 
L 109.76788 228.995763 
L 91.012756 222.956134 
L 80.623237 214.68849 
L 81.935323 208.087585 
L 92.411656 202.58257 
L 112.025704 197.957104 
L 138.99984 193.957757 
L 211.340216 185.043248 
L 256.177905 178.897304 
L 319.388937 169.39088 
L 343.549031 166.070145 
L 362.449343 164.418692 
L 373.296642 165.211669 
L 376.035841 168.427849 
L 370.791315 174.498548 
L 356.434972 183.437538 
L 334.095443 193.946171 
L 303.894119 205.043731 
L 266.84802 214.796168 
L 224.051103 220.853413 
L 187.301084 221.376068 
L 153.213955 217.763056 
L 120.939236 210.330879 
L 96.814904 201.286575 
L 85.211305 193.763977 
L 84.949596 189.57869 
L 92.701832 187.361026 
L 105.223469 186.845373 
L 122.728259 187.286623 
L 170.708906 189.465539 
L 202.253968 190.39445 
L 237.464622 190.551604 
L 271.125897 189.765164 
L 309.222381 187.887785 
L 339.444285 185.966684 
L 363.328961 184.736999 
L 376.710234 184.805795 
L 384.477533 186.027179 
L 387.148886 189.083869 
L 382.309187 194.163396 
L 369.112831 201.038497 
L 347.163318 208.908446 
L 317.441239 216.050029 
L 280.22003 220.529375 
L 235.63911 219.880352 
L 192.942795 213.395454 
L 151.755014 201.86124 
L 122.984599 190.442886 
L 104.739383 180.929969 
L 95.984653 174.289781 
L 94.686088 169.821711 
L 100.997061 167.812156 
L 113.243667 167.986842 
L 130.264221 169.702294 
L 155.537539 173.084555 
L 184.978238 177.251189 
L 214.294816 181.215106 
L 251.912878 185.770828 
L 292.569906 189.975846 
L 332.892144 193.768143 
L 362.349201 197.152761 
L 381.133724 200.948324 
L 390.763062 205.734235 
L 391.62003 211.579913 
L 384.827825 217.625102 
L 370.07961 223.81475 
L 347.344213 228.584425 
L 316.526876 229.911556 
L 275.539668 224.902717 
L 230.871415 212.421382 
L 185.555739 193.656414 
L 155.170312 177.841123 
L 133.415531 164.373288 
L 119.085529 153.2025 
L 112.97035 144.102374 
L 118.456582 139.698151 
L 131.252476 139.373719 
L 150.645777 141.726019 
L 179.718062 147.182888 
L 217.420938 155.726834 
L 259.004602 166.391192 
L 296.090983 177.200406 
L 332.180085 189.902225 
L 359.672237 203.011882 
L 377.595395 216.82586 
L 384.159643 229.577343 
L 381.096775 239.460667 
L 370.314124 245.479758 
L 353.05559 246.118551 
L 330.920615 240.647417 
L 302.288017 228.088847 
L 266.251943 207.626852 
L 229.247958 183.845512 
L 198.427903 162.704056 
L 172.262236 143.620337 
L 150.451565 125.697738 
L 139.748282 112.894675 
L 140.989332 107.368383 
L 150.371934 106.056607 
L 168.638734 108.807794 
L 195.770268 116.138294 
L 230.462873 128.472758 
L 265.169295 143.973911 
L 296.198341 161.627685 
L 326.471585 185.335171 
L 347.383856 211.234741 
L 356.907972 234.752052 
L 357.267923 251.118622 
L 351.264085 259.215196 
L 343.137624 258.597362 
L 332.911117 252.398224 
L 317.702429 238.7233 
L 269.142866 188.874222 
L 241.105453 161.794533 
L 213.313235 136.542951 
L 189.535256 115.522127 
L 170.968402 98.234244 
L 162.033846 86.904066 
L 163.085823 82.66893 
L 170.769473 82.505245 
L 185.924042 86.557734 
L 209.671044 96.232654 
L 238.129345 111.393293 
L 264.164329 129.211428 
L 288.446598 151.172121 
L 311.333863 181.455535 
L 324.7594 211.387772 
L 330.287171 237.81656 
L 329.920051 256.518942 
L 326.134539 264.876776 
L 321.004064 264.936304 
L 314.636937 259.113217 
L 305.002788 245.304125 
L 291.427372 222.971046 
L 273.087861 193.550472 
L 250.498746 160.984399 
L 227.885865 132.013222 
L 191.833134 89.407463 
L 181.705903 75.348505 
L 179.765098 68.61485 
L 183.68403 65.998418 
L 193.647559 67.617887 
L 210.254399 74.432273 
L 231.705354 87.135451 
L 252.603059 103.858873 
L 270.383309 123.130904 
L 287.864987 150.939192 
L 299.803541 184.052822 
L 304.656333 216.89546 
L 304.124848 242.551479 
L 300.559158 259.963702 
L 294.98004 268.241853 
L 288.920036 267.160038 
L 282.137626 258.972928 
L 272.912275 241.467429 
L 261.079252 214.789067 
L 246.731719 181.74305 
L 231.25767 147.623266 
L 217.613176 118.505162 
L 206.660328 94.040797 
L 199.919732 74.609452 
L 198.653102 63.485539 
L 201.317743 56.276872 
L 208.131239 52.935617 
L 219.644683 54.262156 
L 234.208717 61.214183 
L 247.932099 72.511754 
L 259.412311 87.117385 
L 269.930509 109.351931 
L 276.583132 140.418123 
L 277.660582 167.721128 
L 275.591414 195.631709 
L 271.002767 222.653586 
L 263.903515 247.877407 
L 255.103112 265.128404 
L 247.084399 269.984691 
L 238.863001 265.129979 
L 230.755724 251.575257 
L 221.793417 227.680858 
L 213.105214 195.516497 
L 206.563184 161.181611 
L 203.576972 131.093322 
L 204.054601 107.335815 
L 207.578216 87.890391 
L 215.192159 70.242325 
L 226.763536 57.137296 
L 237.343442 51.186529 
L 247.766016 49.31914 
L 256.908895 51.596909 
L 264.196552 59.213674 
L 267.420821 73.135343 
L 266.088975 90.941745 
L 261.76269 110.782731 
L 253.960246 137.382469 
L 243.449518 169.071231 
L 231.938074 201.887857 
L 221.334761 230.126264 
L 210.453596 254.425604 
L 200.716342 267.6994 
L 194.168703 269.118259 
L 188.388121 263.098336 
L 183.131021 248.569425 
L 179.422127 225.325314 
L 178.877482 196.053809 
L 183.160724 164.058589 
L 192.513364 135.278695 
L 209.401649 106.553819 
L 229.224195 85.512741 
L 229.224195 85.512741 
" clip-path="url(#p31b4e7c795)" style="fill: none; stroke: #1f77b4; stroke-width: 0.5; stroke-linecap: square"/>
   </g>
   <g id="patch_3">
    <path d="M 57.6 307.584 
L 57.6 41.472 
" style="fill: none; stroke: #000000; stroke-width: 0.8; stroke-linejoin: miter; stroke-linecap: square"/>
   </g>
   <g id="patch_4">
    <path d="M 414.72 307.584 
L 414.72 41.472 
" style="fill: none; stroke: #000000; stroke-width: 0.8; stroke-linejoin: miter; stroke-linecap: square"/>
   </g>
   <g id="patch_5">
    <path d="M 57.6 307.584 
L 414.72 307.584 
" style="fill: none; stroke: #000000; stroke-width: 0.8; stroke-linejoin: miter; stroke-linecap: square"/>
   </g>
   <g id="patch_6">
    <path d="M 57.6 41.472 
L 414.72 41.472 
" style="fill: none; stroke: #000000; stroke-width: 0.8; stroke-linejoin: miter; stroke-linecap: square"/>
   </g>
   <g id="text_13">
    <!-- Real Space Projection onto r-z plane with initial r = 0.03 -->
    <g transform="translate(68.580938 35.472) scale(0.12 -0.12)">
     <defs>
      <path id="DejaVuSans-52" d="M 2841 2188 
Q 3044 2119 3236 1894 
Q 3428 1669 3622 1275 
L 4263 0 
L 3584 0 
L 2988 1197 
Q 2756 1666 2539 1819 
Q 2322 1972 1947 1972 
L 1259 1972 
L 1259 0 
L 628 0 
L 628 4666 
L 2053 4666 
Q 2853 4666 3247 4331 
Q 3641 3997 3641 3322 
Q 3641 2881 3436 2590 
Q 3231 2300 2841 2188 
z
M 1259 4147 
L 1259 2491 
L 2053 2491 
Q 2509 2491 2742 2702 
Q 2975 2913 2975 3322 
Q 2975 3731 2742 3939 
Q 2509 4147 2053 4147 
L 1259 4147 
z
" transform="scale(0.015625)"/>
      <path id="DejaVuSans-65" d="M 3597 1894 
L 3597 1613 
L 953 1613 
Q 991 1019 1311 708 
Q 1631 397 2203 397 
Q 2534 397 2845 478 
Q 3156 559 3463 722 
L 3463 178 
Q 3153 47 2828 -22 
Q 2503 -91 2169 -91 
Q 1331 -91 842 396 
Q 353 884 353 1716 
Q 353 2575 817 3079 
Q 1281 3584 2069 3584 
Q 2775 3584 3186 3129 
Q 3597 2675 3597 1894 
z
M 3022 2063 
Q 3016 2534 2758 2815 
Q 2500 3097 2075 3097 
Q 1594 3097 1305 2825 
Q 1016 2553 972 2059 
L 3022 2063 
z
" transform="scale(0.015625)"/>
      <path id="DejaVuSans-61" d="M 2194 1759 
Q 1497 1759 1228 1600 
Q 959 1441 959 1056 
Q 959 750 1161 570 
Q 1363 391 1709 391 
Q 2188 391 2477 730 
Q 2766 1069 2766 1631 
L 2766 1759 
L 2194 1759 
z
M 3341 1997 
L 3341 0 
L 2766 0 
L 2766 531 
Q 2569 213 2275 61 
Q 1981 -91 1556 -91 
Q 1019 -91 701 211 
Q 384 513 384 1019 
Q 384 1609 779 1909 
Q 1175 2209 1959 2209 
L 2766 2209 
L 2766 2266 
Q 2766 2663 2505 2880 
Q 2244 3097 1772 3097 
Q 1472 3097 1187 3025 
Q 903 2953 641 2809 
L 641 3341 
Q 956 3463 1253 3523 
Q 1550 3584 1831 3584 
Q 2591 3584 2966 3190 
Q 3341 2797 3341 1997 
z
" transform="scale(0.015625)"/>
      <path id="DejaVuSans-6c" d="M 603 4863 
L 1178 4863 
L 1178 0 
L 603 0 
L 603 4863 
z
" transform="scale(0.015625)"/>
      <path id="DejaVuSans-20" transform="scale(0.015625)"/>
      <path id="DejaVuSans-53" d="M 3425 4513 
L 3425 3897 
Q 3066 4069 2747 4153 
Q 2428 4238 2131 4238 
Q 1616 4238 1336 4038 
Q 1056 3838 1056 3469 
Q 1056 3159 1242 3001 
Q 1428 2844 1947 2747 
L 2328 2669 
Q 3034 2534 3370 2195 
Q 3706 1856 3706 1288 
Q 3706 609 3251 259 
Q 2797 -91 1919 -91 
Q 1588 -91 1214 -16 
Q 841 59 441 206 
L 441 856 
Q 825 641 1194 531 
Q 1563 422 1919 422 
Q 2459 422 2753 634 
Q 3047 847 3047 1241 
Q 3047 1584 2836 1778 
Q 2625 1972 2144 2069 
L 1759 2144 
Q 1053 2284 737 2584 
Q 422 2884 422 3419 
Q 422 4038 858 4394 
Q 1294 4750 2059 4750 
Q 2388 4750 2728 4690 
Q 3069 4631 3425 4513 
z
" transform="scale(0.015625)"/>
      <path id="DejaVuSans-70" d="M 1159 525 
L 1159 -1331 
L 581 -1331 
L 581 3500 
L 1159 3500 
L 1159 2969 
Q 1341 3281 1617 3432 
Q 1894 3584 2278 3584 
Q 2916 3584 3314 3078 
Q 3713 2572 3713 1747 
Q 3713 922 3314 415 
Q 2916 -91 2278 -91 
Q 1894 -91 1617 61 
Q 1341 213 1159 525 
z
M 3116 1747 
Q 3116 2381 2855 2742 
Q 2594 3103 2138 3103 
Q 1681 3103 1420 2742 
Q 1159 2381 1159 1747 
Q 1159 1113 1420 752 
Q 1681 391 2138 391 
Q 2594 391 2855 752 
Q 3116 1113 3116 1747 
z
" transform="scale(0.015625)"/>
      <path id="DejaVuSans-63" d="M 3122 3366 
L 3122 2828 
Q 2878 2963 2633 3030 
Q 2388 3097 2138 3097 
Q 1578 3097 1268 2742 
Q 959 2388 959 1747 
Q 959 1106 1268 751 
Q 1578 397 2138 397 
Q 2388 397 2633 464 
Q 2878 531 3122 666 
L 3122 134 
Q 2881 22 2623 -34 
Q 2366 -91 2075 -91 
Q 1284 -91 818 406 
Q 353 903 353 1747 
Q 353 2603 823 3093 
Q 1294 3584 2113 3584 
Q 2378 3584 2631 3529 
Q 2884 3475 3122 3366 
z
" transform="scale(0.015625)"/>
      <path id="DejaVuSans-50" d="M 1259 4147 
L 1259 2394 
L 2053 2394 
Q 2494 2394 2734 2622 
Q 2975 2850 2975 3272 
Q 2975 3691 2734 3919 
Q 2494 4147 2053 4147 
L 1259 4147 
z
M 628 4666 
L 2053 4666 
Q 2838 4666 3239 4311 
Q 3641 3956 3641 3272 
Q 3641 2581 3239 2228 
Q 2838 1875 2053 1875 
L 1259 1875 
L 1259 0 
L 628 0 
L 628 4666 
z
" transform="scale(0.015625)"/>
      <path id="DejaVuSans-6f" d="M 1959 3097 
Q 1497 3097 1228 2736 
Q 959 2375 959 1747 
Q 959 1119 1226 758 
Q 1494 397 1959 397 
Q 2419 397 2687 759 
Q 2956 1122 2956 1747 
Q 2956 2369 2687 2733 
Q 2419 3097 1959 3097 
z
M 1959 3584 
Q 2709 3584 3137 3096 
Q 3566 2609 3566 1747 
Q 3566 888 3137 398 
Q 2709 -91 1959 -91 
Q 1206 -91 779 398 
Q 353 888 353 1747 
Q 353 2609 779 3096 
Q 1206 3584 1959 3584 
z
" transform="scale(0.015625)"/>
      <path id="DejaVuSans-6a" d="M 603 3500 
L 1178 3500 
L 1178 -63 
Q 1178 -731 923 -1031 
Q 669 -1331 103 -1331 
L -116 -1331 
L -116 -844 
L 38 -844 
Q 366 -844 484 -692 
Q 603 -541 603 -63 
L 603 3500 
z
M 603 4863 
L 1178 4863 
L 1178 4134 
L 603 4134 
L 603 4863 
z
" transform="scale(0.015625)"/>
      <path id="DejaVuSans-74" d="M 1172 4494 
L 1172 3500 
L 2356 3500 
L 2356 3053 
L 1172 3053 
L 1172 1153 
Q 1172 725 1289 603 
Q 1406 481 1766 481 
L 2356 481 
L 2356 0 
L 1766 0 
Q 1100 0 847 248 
Q 594 497 594 1153 
L 594 3053 
L 172 3053 
L 172 3500 
L 594 3500 
L 594 4494 
L 1172 4494 
z
" transform="scale(0.015625)"/>
      <path id="DejaVuSans-69" d="M 603 3500 
L 1178 3500 
L 1178 0 
L 603 0 
L 603 3500 
z
M 603 4863 
L 1178 4863 
L 1178 4134 
L 603 4134 
L 603 4863 
z
" transform="scale(0.015625)"/>
      <path id="DejaVuSans-6e" d="M 3513 2113 
L 3513 0 
L 2938 0 
L 2938 2094 
Q 2938 2591 2744 2837 
Q 2550 3084 2163 3084 
Q 1697 3084 1428 2787 
Q 1159 2491 1159 1978 
L 1159 0 
L 581 0 
L 581 3500 
L 1159 3500 
L 1159 2956 
Q 1366 3272 1645 3428 
Q 1925 3584 2291 3584 
Q 2894 3584 3203 3211 
Q 3513 2838 3513 2113 
z
" transform="scale(0.015625)"/>
      <path id="DejaVuSans-2d" d="M 313 2009 
L 1997 2009 
L 1997 1497 
L 313 1497 
L 313 2009 
z
" transform="scale(0.015625)"/>
      <path id="DejaVuSans-77" d="M 269 3500 
L 844 3500 
L 1563 769 
L 2278 3500 
L 2956 3500 
L 3675 769 
L 4391 3500 
L 4966 3500 
L 4050 0 
L 3372 0 
L 2619 2869 
L 1863 0 
L 1184 0 
L 269 3500 
z
" transform="scale(0.015625)"/>
      <path id="DejaVuSans-68" d="M 3513 2113 
L 3513 0 
L 2938 0 
L 2938 2094 
Q 2938 2591 2744 2837 
Q 2550 3084 2163 3084 
Q 1697 3084 1428 2787 
Q 1159 2491 1159 1978 
L 1159 0 
L 581 0 
L 581 4863 
L 1159 4863 
L 1159 2956 
Q 1366 3272 1645 3428 
Q 1925 3584 2291 3584 
Q 2894 3584 3203 3211 
Q 3513 2838 3513 2113 
z
" transform="scale(0.015625)"/>
      <path id="DejaVuSans-3d" d="M 678 2906 
L 4684 2906 
L 4684 2381 
L 678 2381 
L 678 2906 
z
M 678 1631 
L 4684 1631 
L 4684 1100 
L 678 1100 
L 678 1631 
z
" transform="scale(0.015625)"/>
      <path id="DejaVuSans-33" d="M 2597 2516 
Q 3050 2419 3304 2112 
Q 3559 1806 3559 1356 
Q 3559 666 3084 287 
Q 2609 -91 1734 -91 
Q 1441 -91 1130 -33 
Q 819 25 488 141 
L 488 750 
Q 750 597 1062 519 
Q 1375 441 1716 441 
Q 2309 441 2620 675 
Q 2931 909 2931 1356 
Q 2931 1769 2642 2001 
Q 2353 2234 1838 2234 
L 1294 2234 
L 1294 2753 
L 1863 2753 
Q 2328 2753 2575 2939 
Q 2822 3125 2822 3475 
Q 2822 3834 2567 4026 
Q 2313 4219 1838 4219 
Q 1578 4219 1281 4162 
Q 984 4106 628 3988 
L 628 4550 
Q 988 4650 1302 4700 
Q 1616 4750 1894 4750 
Q 2613 4750 3031 4423 
Q 3450 4097 3450 3541 
Q 3450 3153 3228 2886 
Q 3006 2619 2597 2516 
z
" transform="scale(0.015625)"/>
     </defs>
     <use xlink:href="#DejaVuSans-52"/>
     <use xlink:href="#DejaVuSans-65" x="64.982422"/>
     <use xlink:href="#DejaVuSans-61" x="126.505859"/>
     <use xlink:href="#DejaVuSans-6c" x="187.785156"/>
     <use xlink:href="#DejaVuSans-20" x="215.568359"/>
     <use xlink:href="#DejaVuSans-53" x="247.355469"/>
     <use xlink:href="#DejaVuSans-70" x="310.832031"/>
     <use xlink:href="#DejaVuSans-61" x="374.308594"/>
     <use xlink:href="#DejaVuSans-63" x="435.587891"/>
     <use xlink:href="#DejaVuSans-65" x="490.568359"/>
     <use xlink:href="#DejaVuSans-20" x="552.091797"/>
     <use xlink:href="#DejaVuSans-50" x="583.878906"/>
     <use xlink:href="#DejaVuSans-72" x="642.431641"/>
     <use xlink:href="#DejaVuSans-6f" x="681.294922"/>
     <use xlink:href="#DejaVuSans-6a" x="742.476562"/>
     <use xlink:href="#DejaVuSans-65" x="770.259766"/>
     <use xlink:href="#DejaVuSans-63" x="831.783203"/>
     <use xlink:href="#DejaVuSans-74" x="886.763672"/>
     <use xlink:href="#DejaVuSans-69" x="925.972656"/>
     <use xlink:href="#DejaVuSans-6f" x="953.755859"/>
     <use xlink:href="#DejaVuSans-6e" x="1014.9375"/>
     <use xlink:href="#DejaVuSans-20" x="1078.316406"/>
     <use xlink:href="#DejaVuSans-6f" x="1110.103516"/>
     <use xlink:href="#DejaVuSans-6e" x="1171.285156"/>
     <use xlink:href="#DejaVuSans-74" x="1234.664062"/>
     <use xlink:href="#DejaVuSans-6f" x="1273.873047"/>
     <use xlink:href="#DejaVuSans-20" x="1335.054688"/>
     <use xlink:href="#DejaVuSans-72" x="1366.841797"/>
     <use xlink:href="#DejaVuSans-2d" x="1401.580078"/>
     <use xlink:href="#DejaVuSans-7a" x="1437.664062"/>
     <use xlink:href="#DejaVuSans-20" x="1490.154297"/>
     <use xlink:href="#DejaVuSans-70" x="1521.941406"/>
     <use xlink:href="#DejaVuSans-6c" x="1585.417969"/>
     <use xlink:href="#DejaVuSans-61" x="1613.201172"/>
     <use xlink:href="#DejaVuSans-6e" x="1674.480469"/>
     <use xlink:href="#DejaVuSans-65" x="1737.859375"/>
     <use xlink:href="#DejaVuSans-20" x="1799.382812"/>
     <use xlink:href="#DejaVuSans-77" x="1831.169922"/>
     <use xlink:href="#DejaVuSans-69" x="1912.957031"/>
     <use xlink:href="#DejaVuSans-74" x="1940.740234"/>
     <use xlink:href="#DejaVuSans-68" x="1979.949219"/>
     <use xlink:href="#DejaVuSans-20" x="2043.328125"/>
     <use xlink:href="#DejaVuSans-69" x="2075.115234"/>
     <use xlink:href="#DejaVuSans-6e" x="2102.898438"/>
     <use xlink:href="#DejaVuSans-69" x="2166.277344"/>
     <use xlink:href="#DejaVuSans-74" x="2194.060547"/>
     <use xlink:href="#DejaVuSans-69" x="2233.269531"/>
     <use xlink:href="#DejaVuSans-61" x="2261.052734"/>
     <use xlink:href="#DejaVuSans-6c" x="2322.332031"/>
     <use xlink:href="#DejaVuSans-20" x="2350.115234"/>
     <use xlink:href="#DejaVuSans-72" x="2381.902344"/>
     <use xlink:href="#DejaVuSans-20" x="2423.015625"/>
     <use xlink:href="#DejaVuSans-3d" x="2454.802734"/>
     <use xlink:href="#DejaVuSans-20" x="2538.591797"/>
     <use xlink:href="#DejaVuSans-30" x="2570.378906"/>
     <use xlink:href="#DejaVuSans-2e" x="2634.001953"/>
     <use xlink:href="#DejaVuSans-30" x="2665.789062"/>
     <use xlink:href="#DejaVuSans-33" x="2729.412109"/>
    </g>
   </g>
  </g>
 </g>
 <defs>
  <clipPath id="p31b4e7c795">
   <rect x="57.6" y="41.472" width="357.12" height="266.112"/>
  </clipPath>
 </defs>
</svg>
