<?xml version="1.0" encoding="utf-8" standalone="no"?>
<!DOCTYPE svg PUBLIC "-//W3C//DTD SVG 1.1//EN"
  "http://www.w3.org/Graphics/SVG/1.1/DTD/svg11.dtd">
<svg xmlns:xlink="http://www.w3.org/1999/xlink" width="460.8pt" height="345.6pt" viewBox="0 0 460.8 345.6" xmlns="http://www.w3.org/2000/svg" version="1.1">
 <metadata>
  <rdf:RDF xmlns:dc="http://purl.org/dc/elements/1.1/" xmlns:cc="http://creativecommons.org/ns#" xmlns:rdf="http://www.w3.org/1999/02/22-rdf-syntax-ns#">
   <cc:Work>
    <dc:type rdf:resource="http://purl.org/dc/dcmitype/StillImage"/>
    <dc:date>2023-10-23T13:51:38.275501</dc:date>
    <dc:format>image/svg+xml</dc:format>
    <dc:creator>
     <cc:Agent>
      <dc:title>Matplotlib v3.8.0, https://matplotlib.org/</dc:title>
     </cc:Agent>
    </dc:creator>
   </cc:Work>
  </rdf:RDF>
 </metadata>
 <defs>
  <style type="text/css">*{stroke-linejoin: round; stroke-linecap: butt}</style>
 </defs>
 <g id="figure_1">
  <g id="patch_1">
   <path d="M 0 345.6 
L 460.8 345.6 
L 460.8 0 
L 0 0 
z
" style="fill: #ffffff"/>
  </g>
  <g id="axes_1">
   <g id="patch_2">
    <path d="M 57.6 307.584 
L 414.72 307.584 
L 414.72 41.472 
L 57.6 41.472 
z
" style="fill: #ffffff"/>
   </g>
   <g id="matplotlib.axis_1">
    <g id="xtick_1">
     <g id="line2d_1">
      <defs>
       <path id="me7e2612de5" d="M 0 0 
L 0 3.5 
" style="stroke: #000000; stroke-width: 0.8"/>
      </defs>
      <g>
       <use xlink:href="#me7e2612de5" x="93.312" y="307.584" style="stroke: #000000; stroke-width: 0.8"/>
      </g>
     </g>
     <g id="text_1">
      <!-- −0.4 -->
      <g transform="translate(81.170594 322.182437) scale(0.1 -0.1)">
       <defs>
        <path id="DejaVuSans-2212" d="M 678 2272 
L 4684 2272 
L 4684 1741 
L 678 1741 
L 678 2272 
z
" transform="scale(0.015625)"/>
        <path id="DejaVuSans-30" d="M 2034 4250 
Q 1547 4250 1301 3770 
Q 1056 3291 1056 2328 
Q 1056 1369 1301 889 
Q 1547 409 2034 409 
Q 2525 409 2770 889 
Q 3016 1369 3016 2328 
Q 3016 3291 2770 3770 
Q 2525 4250 2034 4250 
z
M 2034 4750 
Q 2819 4750 3233 4129 
Q 3647 3509 3647 2328 
Q 3647 1150 3233 529 
Q 2819 -91 2034 -91 
Q 1250 -91 836 529 
Q 422 1150 422 2328 
Q 422 3509 836 4129 
Q 1250 4750 2034 4750 
z
" transform="scale(0.015625)"/>
        <path id="DejaVuSans-2e" d="M 684 794 
L 1344 794 
L 1344 0 
L 684 0 
L 684 794 
z
" transform="scale(0.015625)"/>
        <path id="DejaVuSans-34" d="M 2419 4116 
L 825 1625 
L 2419 1625 
L 2419 4116 
z
M 2253 4666 
L 3047 4666 
L 3047 1625 
L 3713 1625 
L 3713 1100 
L 3047 1100 
L 3047 0 
L 2419 0 
L 2419 1100 
L 313 1100 
L 313 1709 
L 2253 4666 
z
" transform="scale(0.015625)"/>
       </defs>
       <use xlink:href="#DejaVuSans-2212"/>
       <use xlink:href="#DejaVuSans-30" x="83.789062"/>
       <use xlink:href="#DejaVuSans-2e" x="147.412109"/>
       <use xlink:href="#DejaVuSans-34" x="179.199219"/>
      </g>
     </g>
    </g>
    <g id="xtick_2">
     <g id="line2d_2">
      <g>
       <use xlink:href="#me7e2612de5" x="164.736" y="307.584" style="stroke: #000000; stroke-width: 0.8"/>
      </g>
     </g>
     <g id="text_2">
      <!-- −0.2 -->
      <g transform="translate(152.594594 322.182437) scale(0.1 -0.1)">
       <defs>
        <path id="DejaVuSans-32" d="M 1228 531 
L 3431 531 
L 3431 0 
L 469 0 
L 469 531 
Q 828 903 1448 1529 
Q 2069 2156 2228 2338 
Q 2531 2678 2651 2914 
Q 2772 3150 2772 3378 
Q 2772 3750 2511 3984 
Q 2250 4219 1831 4219 
Q 1534 4219 1204 4116 
Q 875 4013 500 3803 
L 500 4441 
Q 881 4594 1212 4672 
Q 1544 4750 1819 4750 
Q 2544 4750 2975 4387 
Q 3406 4025 3406 3419 
Q 3406 3131 3298 2873 
Q 3191 2616 2906 2266 
Q 2828 2175 2409 1742 
Q 1991 1309 1228 531 
z
" transform="scale(0.015625)"/>
       </defs>
       <use xlink:href="#DejaVuSans-2212"/>
       <use xlink:href="#DejaVuSans-30" x="83.789062"/>
       <use xlink:href="#DejaVuSans-2e" x="147.412109"/>
       <use xlink:href="#DejaVuSans-32" x="179.199219"/>
      </g>
     </g>
    </g>
    <g id="xtick_3">
     <g id="line2d_3">
      <g>
       <use xlink:href="#me7e2612de5" x="236.16" y="307.584" style="stroke: #000000; stroke-width: 0.8"/>
      </g>
     </g>
     <g id="text_3">
      <!-- 0.0 -->
      <g transform="translate(228.208438 322.182437) scale(0.1 -0.1)">
       <use xlink:href="#DejaVuSans-30"/>
       <use xlink:href="#DejaVuSans-2e" x="63.623047"/>
       <use xlink:href="#DejaVuSans-30" x="95.410156"/>
      </g>
     </g>
    </g>
    <g id="xtick_4">
     <g id="line2d_4">
      <g>
       <use xlink:href="#me7e2612de5" x="307.584" y="307.584" style="stroke: #000000; stroke-width: 0.8"/>
      </g>
     </g>
     <g id="text_4">
      <!-- 0.2 -->
      <g transform="translate(299.632437 322.182437) scale(0.1 -0.1)">
       <use xlink:href="#DejaVuSans-30"/>
       <use xlink:href="#DejaVuSans-2e" x="63.623047"/>
       <use xlink:href="#DejaVuSans-32" x="95.410156"/>
      </g>
     </g>
    </g>
    <g id="xtick_5">
     <g id="line2d_5">
      <g>
       <use xlink:href="#me7e2612de5" x="379.008" y="307.584" style="stroke: #000000; stroke-width: 0.8"/>
      </g>
     </g>
     <g id="text_5">
      <!-- 0.4 -->
      <g transform="translate(371.056437 322.182437) scale(0.1 -0.1)">
       <use xlink:href="#DejaVuSans-30"/>
       <use xlink:href="#DejaVuSans-2e" x="63.623047"/>
       <use xlink:href="#DejaVuSans-34" x="95.410156"/>
      </g>
     </g>
    </g>
    <g id="text_6">
     <!-- r -->
     <g transform="translate(234.104531 335.860562) scale(0.1 -0.1)">
      <defs>
       <path id="DejaVuSans-72" d="M 2631 2963 
Q 2534 3019 2420 3045 
Q 2306 3072 2169 3072 
Q 1681 3072 1420 2755 
Q 1159 2438 1159 1844 
L 1159 0 
L 581 0 
L 581 3500 
L 1159 3500 
L 1159 2956 
Q 1341 3275 1631 3429 
Q 1922 3584 2338 3584 
Q 2397 3584 2469 3576 
Q 2541 3569 2628 3553 
L 2631 2963 
z
" transform="scale(0.015625)"/>
      </defs>
      <use xlink:href="#DejaVuSans-72"/>
     </g>
    </g>
   </g>
   <g id="matplotlib.axis_2">
    <g id="ytick_1">
     <g id="line2d_6">
      <defs>
       <path id="m9c25fbedf6" d="M 0 0 
L -3.5 0 
" style="stroke: #000000; stroke-width: 0.8"/>
      </defs>
      <g>
       <use xlink:href="#m9c25fbedf6" x="57.6" y="280.9728" style="stroke: #000000; stroke-width: 0.8"/>
      </g>
     </g>
     <g id="text_7">
      <!-- −0.4 -->
      <g transform="translate(26.317187 284.772019) scale(0.1 -0.1)">
       <use xlink:href="#DejaVuSans-2212"/>
       <use xlink:href="#DejaVuSans-30" x="83.789062"/>
       <use xlink:href="#DejaVuSans-2e" x="147.412109"/>
       <use xlink:href="#DejaVuSans-34" x="179.199219"/>
      </g>
     </g>
    </g>
    <g id="ytick_2">
     <g id="line2d_7">
      <g>
       <use xlink:href="#m9c25fbedf6" x="57.6" y="227.7504" style="stroke: #000000; stroke-width: 0.8"/>
      </g>
     </g>
     <g id="text_8">
      <!-- −0.2 -->
      <g transform="translate(26.317187 231.549619) scale(0.1 -0.1)">
       <use xlink:href="#DejaVuSans-2212"/>
       <use xlink:href="#DejaVuSans-30" x="83.789062"/>
       <use xlink:href="#DejaVuSans-2e" x="147.412109"/>
       <use xlink:href="#DejaVuSans-32" x="179.199219"/>
      </g>
     </g>
    </g>
    <g id="ytick_3">
     <g id="line2d_8">
      <g>
       <use xlink:href="#m9c25fbedf6" x="57.6" y="174.528" style="stroke: #000000; stroke-width: 0.8"/>
      </g>
     </g>
     <g id="text_9">
      <!-- 0.0 -->
      <g transform="translate(34.696875 178.327219) scale(0.1 -0.1)">
       <use xlink:href="#DejaVuSans-30"/>
       <use xlink:href="#DejaVuSans-2e" x="63.623047"/>
       <use xlink:href="#DejaVuSans-30" x="95.410156"/>
      </g>
     </g>
    </g>
    <g id="ytick_4">
     <g id="line2d_9">
      <g>
       <use xlink:href="#m9c25fbedf6" x="57.6" y="121.3056" style="stroke: #000000; stroke-width: 0.8"/>
      </g>
     </g>
     <g id="text_10">
      <!-- 0.2 -->
      <g transform="translate(34.696875 125.104819) scale(0.1 -0.1)">
       <use xlink:href="#DejaVuSans-30"/>
       <use xlink:href="#DejaVuSans-2e" x="63.623047"/>
       <use xlink:href="#DejaVuSans-32" x="95.410156"/>
      </g>
     </g>
    </g>
    <g id="ytick_5">
     <g id="line2d_10">
      <g>
       <use xlink:href="#m9c25fbedf6" x="57.6" y="68.0832" style="stroke: #000000; stroke-width: 0.8"/>
      </g>
     </g>
     <g id="text_11">
      <!-- 0.4 -->
      <g transform="translate(34.696875 71.882419) scale(0.1 -0.1)">
       <use xlink:href="#DejaVuSans-30"/>
       <use xlink:href="#DejaVuSans-2e" x="63.623047"/>
       <use xlink:href="#DejaVuSans-34" x="95.410156"/>
      </g>
     </g>
    </g>
    <g id="text_12">
     <!-- z -->
     <g transform="translate(20.2375 177.152219) rotate(-90) scale(0.1 -0.1)">
      <defs>
       <path id="DejaVuSans-7a" d="M 353 3500 
L 3084 3500 
L 3084 2975 
L 922 459 
L 3084 459 
L 3084 0 
L 275 0 
L 275 525 
L 2438 3041 
L 353 3041 
L 353 3500 
z
" transform="scale(0.015625)"/>
      </defs>
      <use xlink:href="#DejaVuSans-7a"/>
     </g>
    </g>
   </g>
   <g id="line2d_11">
    <path d="M 236.16 136.0896 
L 243.027636 137.718186 
L 270.50835 145.228069 
L 305.14281 157.744006 
L 336.077361 174.496105 
L 355.638811 192.814542 
L 364.94823 213.406191 
L 364.536782 229.58696 
L 358.407148 242.819033 
L 344.768325 253.393853 
L 329.162992 255.576193 
L 310.793967 250.751881 
L 289.060556 238.537866 
L 262.074636 217.587982 
L 231.096404 189.37345 
L 206.184959 164.752524 
L 184.126012 141.222353 
L 166.071729 118.652549 
L 157.627528 101.24212 
L 159.365986 91.967446 
L 168.370545 87.128937 
L 186.594572 86.458239 
L 210.920205 90.657262 
L 240.427892 100.134509 
L 266.893365 112.845831 
L 291.353603 130.154915 
L 312.645974 155.095312 
L 324.827481 186.477382 
L 326.567642 210.625191 
L 323.135905 232.856202 
L 315.097633 251.971758 
L 302.740766 263.711326 
L 291.817853 264.663441 
L 279.920867 258.669377 
L 265.142526 243.99649 
L 247.34916 219.676661 
L 227.617258 188.025254 
L 209.624725 156.201195 
L 195.891886 128.693601 
L 186.369158 103.067156 
L 184.11939 86.42878 
L 187.457009 74.018036 
L 196.412317 65.932407 
L 211.905284 62.201564 
L 231.924408 64.130245 
L 249.085227 70.095204 
L 264.440165 79.61405 
L 279.045494 95.641651 
L 288.9319 119.612854 
L 291.265106 143.960008 
L 288.569099 170.626017 
L 281.837335 198.069698 
L 271.674433 225.246466 
L 258.56837 249.178712 
L 243.821006 264.284788 
L 231.713902 267.286401 
L 219.75129 261.717531 
L 207.6979 247.51926 
L 195.333908 223.44366 
L 184.989862 192.289991 
L 179.804117 163.76486 
L 179.559348 136.722675 
L 184.384418 114.772822 
L 195.93456 93.983148 
L 214.630402 77.295917 
L 233.921356 68.026686 
L 253.48563 63.651054 
L 269.289974 64.00678 
L 282.261829 69.325973 
L 289.208138 81.069591 
L 288.929106 94.626238 
L 284.311828 110.542804 
L 274.000936 133.394208 
L 258.296097 162.001559 
L 239.43888 193.172045 
L 221.734234 220.142679 
L 202.869732 244.838418 
L 185.19847 260.673448 
L 172.341398 264.712138 
L 161.059838 260.532671 
L 151.923347 249.183476 
L 144.897264 229.879385 
L 142.640822 204.748271 
L 147.857913 177.009407 
L 161.483224 151.619584 
L 184.92627 128.362174 
L 220.09268 107.775135 
L 246.903961 97.560531 
L 271.597708 91.243282 
L 294.8785 88.604395 
L 311.240105 91.263696 
L 317.400858 99.72116 
L 313.561916 112.764691 
L 302.314007 129.093772 
L 282.465517 151.423859 
L 256.020396 177.75203 
L 228.283012 203.206924 
L 201.105395 225.655772 
L 172.697029 244.454352 
L 147.75663 253.787807 
L 132.567719 254.052343 
L 120.474612 249.600609 
L 109.961704 239.386166 
L 104.443262 223.753385 
L 107.558643 204.666327 
L 122.188551 185.173959 
L 148.410352 167.750066 
L 185.590607 152.637693 
L 231.931205 139.974234 
L 270.283405 132.582094 
L 304.174263 128.48336 
L 327.382234 128.047242 
L 343.231295 130.916575 
L 351.004333 138.342347 
L 347.955451 150.208938 
L 336.151981 164.515778 
L 316.997456 181.043419 
L 292.707203 197.987592 
L 261.724271 215.446644 
L 225.859407 230.159464 
L 187.721983 238.389821 
L 160.895065 238.739157 
L 137.432346 234.667732 
L 114.527033 225.662206 
L 97.068211 212.806805 
L 90.086925 199.2395 
L 95.403373 188.198044 
L 111.279456 180.200925 
L 137.786619 174.310042 
L 166.292886 170.815986 
L 198.357202 168.212985 
L 235.585788 166.004046 
L 274.058682 164.341257 
L 308.527375 163.630837 
L 335.151274 164.21574 
L 355.528909 166.380549 
L 370.078409 170.880581 
L 376.446277 177.988514 
L 374.356373 187.307273 
L 364.212089 198.569473 
L 344.865466 211.673052 
L 317.472778 223.923913 
L 283.031984 232.507498 
L 247.710702 234.40923 
L 212.038442 229.604616 
L 176.800408 218.471597 
L 143.354653 201.823739 
L 120.93893 186.071835 
L 108.809837 173.505259 
L 104.806124 163.120317 
L 109.913583 155.621358 
L 125.356148 151.242109 
L 146.877621 150.184157 
L 174.271032 151.311584 
L 205.990556 154.117146 
L 244.505885 158.770969 
L 283.62674 164.795636 
L 321.232106 172.587171 
L 348.881987 181.144769 
L 366.799698 190.250665 
L 378.356595 202.494189 
L 380.103491 214.536364 
L 374.312789 226.335637 
L 360.657553 237.332562 
L 338.576899 244.648335 
L 314.364745 245.032243 
L 288.479363 239.292463 
L 256.72739 225.837435 
L 220.396059 204.158768 
L 185.981169 178.810124 
L 159.709689 155.765544 
L 143.18209 137.227385 
L 136.274441 121.868009 
L 141.378023 112.950949 
L 156.128041 109.32749 
L 180.663069 110.245278 
L 209.46413 115.028793 
L 244.927809 124.326221 
L 277.000483 136.150118 
L 307.993568 152.45708 
L 333.924982 174.414933 
L 348.524736 199.149384 
L 352.016318 220.235451 
L 348.662504 238.991192 
L 339.641909 253.32662 
L 324.79927 260.173155 
L 310.021366 257.406297 
L 293.572225 247.540845 
L 272.535242 228.73539 
L 247.344492 201.590673 
L 223.786641 174.129676 
L 201.9043 147.298411 
L 183.145487 122.006945 
L 171.117462 100.692584 
L 168.577843 88.030919 
L 173.041703 79.686253 
L 184.696673 75.665592 
L 204.42047 76.484054 
L 228.649912 82.563328 
L 250.913274 92.003513 
L 271.025173 104.570918 
L 291.265583 124.225846 
L 306.465928 152.180338 
L 311.856979 179.843448 
L 311.033757 204.747231 
L 306.250616 227.428944 
L 297.015042 249.352066 
L 284.31401 263.692662 
L 272.723611 266.473145 
L 260.402446 260.871638 
L 246.846095 246.623746 
L 231.1874 222.384921 
L 214.845831 190.459329 
L 202.38191 161.26903 
L 193.114361 133.641689 
L 188.183603 106.670213 
L 189.338521 88.778284 
L 195.136188 75.337742 
L 206.977445 64.810948 
L 224.330613 59.331557 
L 239.604538 59.27864 
L 254.448225 62.954521 
L 268.344687 71.129645 
L 279.56067 85.785672 
L 284.706604 107.634979 
L 283.543533 129.290347 
L 278.482554 152.847119 
L 268.752704 182.264307 
L 256.06104 211.868977 
L 241.560745 238.530705 
L 225.927405 258.471779 
L 210.730319 266.839668 
L 199.018705 264.233578 
L 188.436988 253.983609 
L 177.8686 234.327119 
L 169.665803 206.723542 
L 166.601484 175.550525 
L 170.364211 147.04306 
L 181.260611 122.037742 
L 200.991794 99.699707 
L 228.017363 82.795614 
L 248.985817 75.064788 
L 267.368374 71.459196 
L 284.719567 71.867606 
L 295.919836 77.688326 
L 298.96675 87.69266 
L 295.301866 101.984985 
L 285.647235 120.309867 
L 269.169014 144.967879 
L 247.702272 174.02478 
L 225.058403 203.076968 
L 204.173234 227.954469 
L 182.488741 249.414591 
L 163.505245 260.64913 
L 151.694652 261.529068 
L 141.650893 256.519234 
L 132.91621 244.642699 
L 127.645786 225.932623 
L 128.674244 202.696249 
L 138.961859 177.390642 
L 158.734017 154.748317 
L 189.829678 134.013806 
L 226.307248 118.400846 
L 257.934748 109.113658 
L 285.870982 103.78661 
L 310.799921 102.472274 
L 325.613002 106.265168 
L 330.071074 115.622341 
L 324.411195 128.839342 
L 310.371092 145.996806 
L 287.062814 168.322652 
L 257.971652 192.404147 
L 229.094622 213.36006 
L 197.587358 232.215631 
L 165.281399 245.140691 
L 142.261372 248.479741 
L 122.651479 245.704646 
L 107.873457 238.229059 
L 97.197771 225.707126 
L 95.097099 209.904343 
L 104.780589 194.164259 
L 126.315197 180.437407 
L 159.679304 168.545309 
L 199.975934 159.042018 
L 245.109198 151.245484 
L 286.223524 146.064712 
L 320.909301 143.749446 
L 345.055067 144.854921 
L 358.564969 149.187429 
L 362.937091 157.729039 
L 357.101241 169.461895 
L 342.103307 183.982516 
L 320.671383 199.007606 
L 291.448431 214.627861 
L 256.107647 227.747194 
L 216.497158 234.97437 
L 185.145307 234.669975 
L 157.717639 229.672329 
L 129.29875 219.194218 
L 106.491041 205.128634 
L 94.541483 191.340588 
L 94.121713 181.967671 
L 102.299838 174.982435 
L 120.414245 170.06849 
L 147.648435 167.471732 
L 178.442159 166.646568 
L 203.230448 166.647668 
L 227.985506 166.95694 
L 258.006572 167.629546 
L 290.209217 168.786313 
L 321.369626 170.738785 
L 346.433784 173.714377 
L 363.805507 177.694348 
L 375.221538 183.016619 
L 381.164644 191.556876 
L 377.958045 202.412182 
L 366.63914 213.706485 
L 346.514857 225.285577 
L 318.362987 234.23622 
L 282.767386 237.278735 
L 245.428702 232.164975 
L 208.966575 220.035864 
L 172.041779 201.277477 
L 144.899068 182.952113 
L 128.262222 168.490507 
L 118.291416 155.95044 
L 116.257173 144.652921 
L 124.394866 137.96821 
L 143.426393 135.018264 
L 170.624777 135.8873 
L 200.530061 139.294329 
L 238.502599 145.706667 
L 277.145198 154.420723 
L 313.69801 165.65003 
L 340.755299 177.764264 
L 359.788246 191.405953 
L 371.204617 208.442834 
L 372.495717 223.066008 
L 367.037858 236.214382 
L 354.111139 247.319106 
L 333.290281 252.008001 
L 309.44424 247.455544 
L 284.363712 235.583982 
L 253.977138 215.186049 
L 220.014645 187.730075 
L 194.674358 164.907423 
L 172.950253 143.197779 
L 155.870597 122.224095 
L 149.559596 107.874788 
L 153.177131 98.578354 
L 165.333869 94.661594 
L 187.109843 95.347932 
L 213.803603 100.524222 
L 242.283128 109.401031 
L 270.079226 121.651695 
L 297.076111 138.824152 
L 320.498959 163.118109 
L 333.999407 192.679217 
L 336.433163 215.990625 
L 333.068542 237.010504 
L 324.754636 254.005376 
L 311.69478 263.17315 
L 299.380244 262.006365 
L 286.274117 253.946092 
L 269.300633 236.761829 
L 248.881296 210.4895 
L 226.392644 178.215825 
L 206.765459 148.116645 
L 190.957556 121.0789 
L 180.921442 97.869789 
L 178.958462 83.740722 
L 182.881334 73.741043 
L 193.022876 67.807316 
L 210.24813 66.518496 
L 231.829743 70.812647 
L 252.775513 79.848741 
L 270.027419 92.139159 
L 285.99106 111.553904 
L 296.318604 139.29698 
L 298.321161 164.971703 
L 295.36359 191.79513 
L 288.641372 217.526429 
L 278.019778 242.438815 
L 264.623831 260.655474 
L 251.697588 267.189643 
L 238.421132 263.47722 
L 226.111847 251.377548 
L 212.475496 229.195698 
L 199.278379 198.678699 
L 189.375324 165.655751 
L 184.92813 136.503758 
L 185.845572 113.425399 
L 191.566755 94.627894 
L 203.680282 77.971345 
L 221.91294 66.073156 
L 238.406702 61.162264 
L 254.612413 60.339387 
L 268.946424 63.751945 
L 280.421997 72.837091 
L 285.612758 88.590258 
L 284.224579 105.866609 
L 278.531184 125.962672 
L 267.589061 152.706241 
L 252.292673 183.82371 
L 235.95636 213.233096 
L 219.092532 239.252812 
L 201.99212 258.459245 
L 188.23519 265.616764 
L 177.095829 263.787989 
L 167.534788 254.985642 
L 158.644011 237.543814 
L 152.948041 212.718429 
L 153.163938 183.863291 
L 161.029736 156.300277 
L 176.43322 132.377949 
L 203.156901 109.435801 
L 231.16422 94.713962 
L 256.16685 86.119088 
L 278.202004 81.765246 
L 297.306566 81.85548 
L 307.865542 87.223486 
L 309.744141 96.341113 
L 304.772124 109.329593 
L 292.636658 127.327504 
L 272.690427 151.330791 
L 247.350087 179.090528 
L 221.623555 205.617193 
L 196.794122 228.991637 
L 171.478381 248.165082 
L 151.741163 256.828187 
L 138.374917 257.453527 
L 127.280317 252.894396 
L 117.826759 242.203591 
L 112.686633 225.512728 
L 115.084943 204.886481 
L 128.189333 182.79507 
L 152.159625 162.956174 
L 186.135074 145.898594 
L 226.6257 132.28931 
L 262.374543 123.816934 
L 294.129587 118.889013 
L 321.507635 117.864173 
L 337.287967 121.367916 
L 343.163128 129.917026 
L 338.30291 142.629092 
L 324.672016 158.546938 
L 301.274887 178.903471 
L 273.648392 198.761122 
L 242.128592 217.476806 
L 206.982309 233.030343 
L 170.731341 241.628078 
L 146.937667 242.004848 
L 126.54689 238.077744 
L 107.34736 229.314579 
L 93.756912 216.517036 
L 90.569792 202.408447 
L 99.31135 190.631371 
L 119.164489 181.155972 
L 149.822307 173.594232 
L 185.695086 168.02173 
L 224.1526 163.619821 
L 266.371885 159.853757 
L 303.868756 157.574889 
L 329.885666 157.166857 
L 350.431555 158.518154 
L 365.375425 162.415514 
L 372.060927 169.672605 
L 368.923283 180.071187 
L 357.232867 192.23315 
L 336.616321 206.257996 
L 308.187877 219.820658 
L 273.110759 230.171739 
L 232.802172 234.071188 
L 194.937126 229.978025 
L 161.671791 220.095255 
L 130.875344 205.101749 
L 109.26244 189.152984 
L 100.357433 177.457362 
L 100.138026 169.125351 
L 107.261751 163.299829 
L 125.197361 159.342601 
L 147.919965 158.311952 
L 175.948153 158.994761 
L 206.255255 160.795593 
L 243.045702 163.788868 
L 281.667901 167.765242 
L 314.999356 172.304018 
L 339.022569 176.915668 
L 357.287692 182.120375 
L 373.266462 189.978157 
L 381.681996 200.56063 
L 380.262747 212.577798 
L 371.291746 223.460401 
L 353.667706 234.090619 
L 327.810715 240.958008 
L 299.746073 241.128053 
L 270.846609 235.216096 
L 236.095572 221.594761 
L 198.241981 200.290672 
L 168.729009 179.404247 
L 145.208749 158.947537 
L 131.798503 142.872383 
L 127.880913 130.691189 
L 134.133839 122.849285 
L 150.608242 119.46447 
L 176.496992 120.42139 
L 206.088937 124.741916 
L 243.10199 133.059402 
L 278.063958 143.910595 
L 311.521407 158.49379 
L 339.430844 177.545833 
L 355.584767 198.052802 
L 361.178332 217.826621 
L 358.663887 235.850924 
L 350.128468 249.26997 
L 334.555137 257.020204 
L 318.753712 255.670157 
L 301.423382 247.856692 
L 278.84937 231.558087 
L 251.464517 206.703641 
L 225.12697 180.183786 
L 199.882727 153.115519 
L 179.254038 128.845035 
L 165.045959 107.660293 
L 161.188959 94.584919 
L 165.503249 86.166815 
L 177.541791 82.515239 
L 198.279339 83.655633 
L 224.137786 89.87732 
L 247.982759 99.090699 
L 269.496569 110.810386 
L 292.632997 129.378865 
L 311.612681 155.844121 
L 320.392487 183.713526 
L 321.511049 207.765734 
L 317.92644 230.150261 
L 309.827216 250.403215 
L 297.626934 263.51529 
L 286.439962 265.475201 
L 274.256267 259.72072 
L 260.029255 245.389638 
L 243.074663 221.26968 
L 224.520182 189.584289 
L 207.956641 157.650564 
L 195.712795 130.126034 
L 187.547878 103.933116 
L 186.208745 87.390656 
L 189.805806 74.712764 
L 198.954272 65.612209 
L 214.382497 60.896408 
L 233.908633 61.892549 
L 251.913014 67.846624 
L 266.752819 77.549949 
L 279.855632 93.891632 
L 287.484933 118.037176 
L 288.157783 139.978513 
L 284.881333 163.930197 
L 277.355989 192.144955 
L 266.880803 219.469154 
L 253.482998 244.739065 
L 238.547082 262.104033 
L 225.678855 267.310081 
L 213.117067 262.947112 
L 201.581271 250.290451 
L 189.843315 227.846626 
L 180.19847 197.82589 
L 175.450312 165.72406 
L 176.997267 137.937958 
L 184.520491 114.548188 
L 199.631257 93.452005 
L 221.82798 77.257075 
L 240.381505 69.621804 
L 258.453861 65.904384 
L 274.807956 66.338034 
L 287.113552 71.97696 
L 292.404827 84.024342 
L 289.820269 100.22485 
L 281.939092 118.980857 
L 267.918665 144.222337 
L 249.15965 174.096678 
L 228.945728 204.177561 
L 209.925159 230.108473 
L 190.38818 251.807605 
L 173.074609 262.853911 
L 161.891893 263.294024 
L 152.532907 257.674891 
L 143.876099 244.526067 
L 138.302072 224.071582 
L 138.523687 198.827712 
L 147.249784 171.809687 
L 164.41741 148.133468 
L 193.333185 125.547795 
L 226.660972 109.260275 
L 255.410406 99.77052 
L 280.758627 94.393104 
L 303.726476 93.032774 
L 317.648408 97.001588 
L 321.477928 105.446319 
L 316.708053 118.269329 
L 304.154299 135.147824 
L 282.762382 157.765253 
L 255.011745 183.666633 
L 227.640355 206.925922 
L 199.131235 228.231286 
L 169.447125 245.160887 
L 146.487437 252.090307 
L 130.24448 251.921896 
L 117.581737 247.323794 
L 106.38484 237.074089 
L 100.714589 221.785174 
L 104.448167 203.468169 
L 119.985983 185.570761 
L 147.360791 169.658725 
L 186.524839 155.680828 
L 232.724666 144.433241 
L 276.195685 136.974107 
L 310.855432 133.494205 
L 333.767738 133.634215 
L 348.288247 136.847611 
L 355.190487 144.578235 
L 351.377452 156.429631 
L 338.669383 170.838136 
L 316.55515 188.576623 
L 290.052774 205.340245 
L 256.947009 221.501439 
L 219.458408 233.454042 
L 185.183242 237.722053 
L 153.529842 235.134429 
L 128.349143 227.767461 
L 106.205776 215.760528 
L 92.896817 201.949675 
L 91.224066 191.332906 
L 99.114299 182.690077 
L 117.525069 176.13354 
L 140.154363 172.402801 
L 166.576007 169.992648 
L 198.744218 168.229696 
L 234.290469 166.974302 
L 269.843914 166.196452 
L 297.342197 166.031943 
L 322.134677 166.520703 
L 345.319576 168.169654 
L 363.793053 171.620488 
L 374.944768 177.105486 
L 378.517262 184.147813 
L 374.341616 194.551024 
L 361.709544 206.392963 
L 340.165073 218.973978 
L 310.813785 229.54676 
L 274.503807 235.041819 
L 239.247907 233.238738 
L 205.084682 225.256152 
L 168.891084 210.439884 
L 137.456778 191.774374 
L 119.277736 176.868749 
L 109.435537 163.83444 
L 109.168853 154.473123 
L 117.591846 148.569328 
L 137.119575 145.567275 
L 159.963286 145.732777 
L 186.077556 147.679485 
L 221.419821 151.846524 
L 261.518492 158.106104 
L 298.635044 165.615908 
L 329.809613 174.221038 
L 354.001643 184.215457 
L 370.314476 195.870533 
L 378.203713 210.307251 
L 375.99996 224.352483 
L 366.681675 235.825069 
L 348.885696 245.064278 
L 326.049289 247.675568 
L 299.374135 242.717015 
L 270.071978 230.389252 
L 235.709431 209.676291 
L 203.256394 185.748989 
L 178.197649 164.607256 
L 158.465231 145.366024 
L 144.04257 126.568249 
L 140.801121 114.649156 
L 146.786547 107.135111 
L 162.284734 104.070769 
L 187.056552 105.665684 
L 216.965816 111.495203 
L 246.985566 120.311677 
L 275.929044 131.953825 
L 305.608758 148.97804 
L 330.437342 172.193536 
L 344.186516 198.855426 
L 346.86835 220.48458 
L 343.275149 239.636218 
L 334.210392 254.581461 
L 321.533496 261.261386 
L 308.035237 259.44398 
L 293.192371 250.743545 
L 273.985054 233.093013 
L 250.772412 206.726457 
L 227.768786 178.156192 
L 205.638225 149.209377 
L 187.456469 123.20799 
L 175.282708 100.853745 
L 172.158993 86.981276 
L 176.030316 77.598669 
L 186.649315 72.812721 
L 205.071974 72.720413 
L 227.709382 77.848466 
L 248.438596 86.325 
L 267.125539 97.758378 
L 286.362086 116.080561 
L 301.222843 142.633611 
L 306.985764 170.757124 
L 306.389065 195.801425 
L 301.963282 219.006256 
L 293.179095 242.750101 
L 280.881796 260.46305 
L 268.385436 266.80764 
L 255.104305 263.065618 
L 242.330342 250.969766 
L 227.584599 228.804782 
L 212.23049 198.128962 
L 199.14591 164.976886 
L 190.845404 135.594208 
L 187.79134 111.19687 
L 190.223809 90.932275 
L 197.779846 76.152182 
L 211.485755 64.983455 
L 230.047892 59.284732 
L 245.270868 59.173464 
L 258.779083 62.490034 
L 272.107184 70.848245 
L 281.559901 85.87179 
L 284.280731 103.993182 
L 281.8202 126.007697 
L 275.143751 150.607894 
L 263.743901 180.680737 
L 249.684808 210.854885 
L 234.418289 237.618035 
L 218.309156 257.818386 
L 202.979812 266.486179 
L 191.479678 264.248468 
L 181.290894 254.602534 
L 171.325485 235.79681 
L 163.995327 209.171391 
L 162.052517 178.695606 
L 167.195543 150.404399 
L 179.836438 125.371678 
L 202.042389 102.713704 
L 227.672916 87.423236 
L 249.755355 79.13351 
L 269.226112 74.952949 
L 287.550601 74.733958 
L 299.199855 79.80898 
L 302.522557 89.245653 
L 298.729849 103.046391 
L 288.637624 120.835083 
L 271.34193 144.915079 
L 248.73951 173.398929 
L 224.837834 201.963261 
L 202.809899 226.458259 
L 179.842312 247.828817 
L 159.752223 259.252774 
L 147.205982 260.384428 
L 136.631969 255.622052 
L 127.722739 244.315214 
L 122.48676 226.421485 
L 123.859756 204.148096 
L 134.923144 179.816649 
L 155.970877 157.9267 
L 187.830865 138.370478 
L 225.842241 123.19818 
L 258.858646 114.083447 
L 288.064733 108.808467 
L 314.022991 107.486237 
L 329.426561 111.126517 
L 334.487873 120.167708 
L 329.12727 133.241536 
L 315.242485 149.96853 
L 291.849627 171.666507 
L 262.838715 194.547485 
L 232.931397 214.811103 
L 200.046762 232.613159 
L 166.331154 244.069188 
L 142.980806 246.331096 
L 122.904687 243.101661 
L 106.796016 235.233831 
L 95.297128 222.648225 
L 93.085964 207.410776 
L 102.737998 193.237775 
L 124.037678 181.105192 
L 156.882843 170.78098 
L 195.808137 162.705139 
L 239.288237 156.008868 
L 281.676781 151.109139 
L 317.611358 148.692616 
L 341.082918 149.049949 
L 356.864831 151.887872 
L 365.665404 158.430291 
L 364.237954 168.817038 
L 354.245516 180.892363 
L 336.867533 194.62548 
L 311.03028 209.820219 
L 278.245801 223.608029 
L 240.057286 232.80713 
L 206.148904 234.625438 
L 173.752688 230.482687 
L 143.368275 220.968663 
L 116.639012 206.961877 
L 99.70007 192.329015 
L 94.972032 181.579186 
L 99.986535 173.310612 
L 113.87074 168.146885 
L 138.326602 165.253816 
L 163.759024 164.5723 
L 192.945034 164.905147 
L 222.052606 165.807136 
L 256.331255 167.320443 
L 291.484677 169.441504 
L 324.31962 172.455791 
L 344.736556 175.474313 
L 361.073344 179.387376 
L 374.624823 185.453243 
L 381.718485 194.457724 
L 379.419709 205.559176 
L 369.223401 216.573647 
L 350.255943 227.808829 
L 323.156051 236.211381 
L 288.36402 238.412981 
L 252.725189 232.590507 
L 216.297083 219.539856 
L 179.140199 199.806216 
L 151.560274 180.775199 
L 133.295036 164.808383 
L 122.52765 151.3797 
L 120.145305 139.425682 
L 128.290647 132.634592 
L 147.240096 129.80386 
L 174.398422 130.955636 
L 205.091754 134.942141 
L 243.289229 142.280324 
L 280.305272 151.86008 
L 315.866248 164.584374 
L 342.214994 178.701004 
L 359.76955 194.446025 
L 368.834759 213.506034 
L 368.146755 228.861138 
L 361.443534 241.554489 
L 346.911122 251.652557 
L 330.00739 253.76845 
L 310.141705 248.916435 
L 286.762308 236.708455 
L 257.989935 215.843521 
L 225.423585 187.87907 
L 200.019872 163.926641 
L 178.277137 141.490014 
L 160.770971 119.77999 
L 153.715277 104.716994 
L 155.743413 95.636013 
L 165.396883 90.975488 
L 184.583484 90.563124 
L 209.353297 94.812067 
L 239.994988 104.265885 
L 267.847183 116.972011 
L 293.555853 134.100035 
L 316.083993 158.631019 
L 329.229655 189.164936 
L 331.492708 213.09838 
L 328.185834 234.926353 
L 320.134087 252.987852 
L 307.532163 263.518572 
L 295.999725 263.485048 
L 284.17282 256.958691 
L 268.563859 241.492804 
L 249.687202 216.578389 
L 228.667265 184.769458 
L 209.333479 153.0735 
L 194.345505 125.626972 
L 184.173224 100.991464 
L 181.687277 85.209018 
L 185.111183 73.736006 
L 194.379429 66.688484 
L 210.459769 64.086107 
L 231.200483 67.12521 
L 249.156809 73.97842 
L 265.258906 84.282102 
L 280.825155 101.256141 
L 291.689498 126.336288 
L 294.617222 151.937326 
L 292.142652 179.571384 
L 285.706572 206.321759 
L 275.555698 232.795177 
L 262.483797 254.574187 
L 247.804387 266.295091 
L 236.279573 266.440635 
L 225.505949 259.566073 
L 212.864755 243.2626 
L 199.879467 217.166799 
L 188.997661 184.9526 
L 182.963779 153.047721 
L 182.549673 129.391487 
L 186.655584 108.659276 
L 196.962962 89.2291 
L 214.078903 73.742883 
L 232.61852 65.155962 
L 249.53879 61.758673 
L 264.553904 62.30276 
L 277.907508 67.610613 
L 286.138796 79.288578 
L 287.21556 92.86947 
L 283.635885 109.890626 
L 275.049078 132.278146 
L 261.139861 160.688195 
L 243.707732 192.122007 
L 227.059087 219.351113 
L 209.437242 243.9797 
L 192.210619 260.641285 
L 179.259178 265.340996 
L 167.737752 261.371638 
L 158.383695 250.065666 
L 150.775214 230.488445 
L 147.528612 204.70795 
L 151.337564 176.18789 
L 163.172863 150.20664 
L 184.490165 126.298941 
L 217.015707 105.215472 
L 242.75074 94.478824 
L 267.758495 87.545585 
L 290.251204 84.694848 
L 306.719911 87.067331 
L 313.411377 95.287534 
L 310.235605 108.303188 
L 299.972177 124.308025 
L 281.405118 146.483841 
L 256.244859 173.112477 
L 229.019639 199.938996 
L 203.191275 223.278695 
L 176.065099 243.632883 
L 152.041238 254.774453 
L 137.06681 256.118369 
L 124.599062 251.943081 
L 114.496781 242.036895 
L 108.729764 226.289772 
L 110.724568 206.630517 
L 123.7299 185.621595 
L 148.032198 166.687021 
L 182.199361 150.57183 
L 228.0321 136.277476 
L 265.161249 128.211966 
L 298.044574 123.580933 
L 322.744053 122.688081 
L 339.415765 125.609206 
L 346.915563 133.263206 
L 343.530369 145.419268 
L 331.438789 160.196215 
L 309.385876 179.463483 
L 282.737381 198.319482 
L 251.361632 216.420704 
L 215.731265 231.562177 
L 178.425221 239.971958 
L 153.147129 240.328333 
L 131.287493 236.344737 
L 110.327717 227.500906 
L 94.929538 214.74044 
L 89.995924 200.988589 
L 97.212878 189.656363 
L 115.261747 180.994292 
L 143.979301 174.339933 
L 178.252501 169.646074 
L 213.823029 166.200186 
L 254.214429 163.171322 
L 291.712095 161.143063 
L 320.604027 160.506643 
L 344.384137 161.398375 
L 361.985856 164.341817 
L 372.518276 170.171451 
L 373.868055 179.077256 
L 366.614743 189.794756 
L 350.370359 202.876676 
L 325.625893 216.400762 
L 293.602502 227.747918 
L 255.384124 233.838786 
L 220.540225 232.646365 
L 187.943571 225.813347 
L 153.780267 212.658677 
L 124.993403 195.886688 
L 108.75122 181.902335 
L 102.278951 171.58361 
L 103.457652 163.49894 
L 113.168068 157.888329 
L 133.896535 154.944954 
L 155.697539 154.768313 
L 181.468564 155.985147 
L 214.635048 158.667161 
L 253.393796 162.792464 
L 290.836923 167.829797 
L 322.431144 173.479222 
L 348.315478 180.227023 
L 366.411384 187.88885 
L 378.733922 198.480722 
L 381.343489 211.015536 
L 375.234487 222.717611 
L 361.195676 233.731055 
L 338.717111 241.754279 
L 312.139354 243.3223 
L 282.369752 237.858826 
L 249.148907 224.921496 
L 211.923276 203.944783 
L 177.688892 179.614549 
L 154.623381 159.860011 
L 138.886723 142.645724 
L 131.832856 127.617073 
L 136.786084 118.56239 
L 151.612581 114.755332 
L 176.379282 115.37795 
L 204.705542 119.561872 
L 240.752274 128.016038 
L 275.106619 139.304621 
L 307.460954 154.302512 
L 335.22004 174.467002 
L 351.651847 196.98237 
L 356.919438 217.725816 
L 354.396799 236.536956 
L 346.083297 250.538281 
L 331.183675 258.449712 
L 316.249958 257.005568 
L 299.868487 248.994385 
L 278.513597 232.375137 
L 252.557158 207.141505 
L 226.849918 179.583029 
L 202.117017 151.506776 
L 182.080179 126.641906 
L 168.402456 105.136366 
L 164.696387 91.841684 
L 168.830096 83.17612 
L 180.374365 79.255151 
L 200.370341 80.105541 
L 225.241676 86.096634 
L 248.104289 95.175922 
L 268.68752 106.866414 
L 290.608738 125.463576 
L 308.332032 152.10882 
L 308.332032 152.10882 
" clip-path="url(#p334eb18bf2)" style="fill: none; stroke: #1f77b4; stroke-width: 0.5; stroke-linecap: square"/>
   </g>
   <g id="patch_3">
    <path d="M 57.6 307.584 
L 57.6 41.472 
" style="fill: none; stroke: #000000; stroke-width: 0.8; stroke-linejoin: miter; stroke-linecap: square"/>
   </g>
   <g id="patch_4">
    <path d="M 414.72 307.584 
L 414.72 41.472 
" style="fill: none; stroke: #000000; stroke-width: 0.8; stroke-linejoin: miter; stroke-linecap: square"/>
   </g>
   <g id="patch_5">
    <path d="M 57.6 307.584 
L 414.72 307.584 
" style="fill: none; stroke: #000000; stroke-width: 0.8; stroke-linejoin: miter; stroke-linecap: square"/>
   </g>
   <g id="patch_6">
    <path d="M 57.6 41.472 
L 414.72 41.472 
" style="fill: none; stroke: #000000; stroke-width: 0.8; stroke-linejoin: miter; stroke-linecap: square"/>
   </g>
   <g id="text_13">
    <!-- Real Space Projection onto r-z plane with initial r = 0.14 -->
    <g transform="translate(68.580938 35.472) scale(0.12 -0.12)">
     <defs>
      <path id="DejaVuSans-52" d="M 2841 2188 
Q 3044 2119 3236 1894 
Q 3428 1669 3622 1275 
L 4263 0 
L 3584 0 
L 2988 1197 
Q 2756 1666 2539 1819 
Q 2322 1972 1947 1972 
L 1259 1972 
L 1259 0 
L 628 0 
L 628 4666 
L 2053 4666 
Q 2853 4666 3247 4331 
Q 3641 3997 3641 3322 
Q 3641 2881 3436 2590 
Q 3231 2300 2841 2188 
z
M 1259 4147 
L 1259 2491 
L 2053 2491 
Q 2509 2491 2742 2702 
Q 2975 2913 2975 3322 
Q 2975 3731 2742 3939 
Q 2509 4147 2053 4147 
L 1259 4147 
z
" transform="scale(0.015625)"/>
      <path id="DejaVuSans-65" d="M 3597 1894 
L 3597 1613 
L 953 1613 
Q 991 1019 1311 708 
Q 1631 397 2203 397 
Q 2534 397 2845 478 
Q 3156 559 3463 722 
L 3463 178 
Q 3153 47 2828 -22 
Q 2503 -91 2169 -91 
Q 1331 -91 842 396 
Q 353 884 353 1716 
Q 353 2575 817 3079 
Q 1281 3584 2069 3584 
Q 2775 3584 3186 3129 
Q 3597 2675 3597 1894 
z
M 3022 2063 
Q 3016 2534 2758 2815 
Q 2500 3097 2075 3097 
Q 1594 3097 1305 2825 
Q 1016 2553 972 2059 
L 3022 2063 
z
" transform="scale(0.015625)"/>
      <path id="DejaVuSans-61" d="M 2194 1759 
Q 1497 1759 1228 1600 
Q 959 1441 959 1056 
Q 959 750 1161 570 
Q 1363 391 1709 391 
Q 2188 391 2477 730 
Q 2766 1069 2766 1631 
L 2766 1759 
L 2194 1759 
z
M 3341 1997 
L 3341 0 
L 2766 0 
L 2766 531 
Q 2569 213 2275 61 
Q 1981 -91 1556 -91 
Q 1019 -91 701 211 
Q 384 513 384 1019 
Q 384 1609 779 1909 
Q 1175 2209 1959 2209 
L 2766 2209 
L 2766 2266 
Q 2766 2663 2505 2880 
Q 2244 3097 1772 3097 
Q 1472 3097 1187 3025 
Q 903 2953 641 2809 
L 641 3341 
Q 956 3463 1253 3523 
Q 1550 3584 1831 3584 
Q 2591 3584 2966 3190 
Q 3341 2797 3341 1997 
z
" transform="scale(0.015625)"/>
      <path id="DejaVuSans-6c" d="M 603 4863 
L 1178 4863 
L 1178 0 
L 603 0 
L 603 4863 
z
" transform="scale(0.015625)"/>
      <path id="DejaVuSans-20" transform="scale(0.015625)"/>
      <path id="DejaVuSans-53" d="M 3425 4513 
L 3425 3897 
Q 3066 4069 2747 4153 
Q 2428 4238 2131 4238 
Q 1616 4238 1336 4038 
Q 1056 3838 1056 3469 
Q 1056 3159 1242 3001 
Q 1428 2844 1947 2747 
L 2328 2669 
Q 3034 2534 3370 2195 
Q 3706 1856 3706 1288 
Q 3706 609 3251 259 
Q 2797 -91 1919 -91 
Q 1588 -91 1214 -16 
Q 841 59 441 206 
L 441 856 
Q 825 641 1194 531 
Q 1563 422 1919 422 
Q 2459 422 2753 634 
Q 3047 847 3047 1241 
Q 3047 1584 2836 1778 
Q 2625 1972 2144 2069 
L 1759 2144 
Q 1053 2284 737 2584 
Q 422 2884 422 3419 
Q 422 4038 858 4394 
Q 1294 4750 2059 4750 
Q 2388 4750 2728 4690 
Q 3069 4631 3425 4513 
z
" transform="scale(0.015625)"/>
      <path id="DejaVuSans-70" d="M 1159 525 
L 1159 -1331 
L 581 -1331 
L 581 3500 
L 1159 3500 
L 1159 2969 
Q 1341 3281 1617 3432 
Q 1894 3584 2278 3584 
Q 2916 3584 3314 3078 
Q 3713 2572 3713 1747 
Q 3713 922 3314 415 
Q 2916 -91 2278 -91 
Q 1894 -91 1617 61 
Q 1341 213 1159 525 
z
M 3116 1747 
Q 3116 2381 2855 2742 
Q 2594 3103 2138 3103 
Q 1681 3103 1420 2742 
Q 1159 2381 1159 1747 
Q 1159 1113 1420 752 
Q 1681 391 2138 391 
Q 2594 391 2855 752 
Q 3116 1113 3116 1747 
z
" transform="scale(0.015625)"/>
      <path id="DejaVuSans-63" d="M 3122 3366 
L 3122 2828 
Q 2878 2963 2633 3030 
Q 2388 3097 2138 3097 
Q 1578 3097 1268 2742 
Q 959 2388 959 1747 
Q 959 1106 1268 751 
Q 1578 397 2138 397 
Q 2388 397 2633 464 
Q 2878 531 3122 666 
L 3122 134 
Q 2881 22 2623 -34 
Q 2366 -91 2075 -91 
Q 1284 -91 818 406 
Q 353 903 353 1747 
Q 353 2603 823 3093 
Q 1294 3584 2113 3584 
Q 2378 3584 2631 3529 
Q 2884 3475 3122 3366 
z
" transform="scale(0.015625)"/>
      <path id="DejaVuSans-50" d="M 1259 4147 
L 1259 2394 
L 2053 2394 
Q 2494 2394 2734 2622 
Q 2975 2850 2975 3272 
Q 2975 3691 2734 3919 
Q 2494 4147 2053 4147 
L 1259 4147 
z
M 628 4666 
L 2053 4666 
Q 2838 4666 3239 4311 
Q 3641 3956 3641 3272 
Q 3641 2581 3239 2228 
Q 2838 1875 2053 1875 
L 1259 1875 
L 1259 0 
L 628 0 
L 628 4666 
z
" transform="scale(0.015625)"/>
      <path id="DejaVuSans-6f" d="M 1959 3097 
Q 1497 3097 1228 2736 
Q 959 2375 959 1747 
Q 959 1119 1226 758 
Q 1494 397 1959 397 
Q 2419 397 2687 759 
Q 2956 1122 2956 1747 
Q 2956 2369 2687 2733 
Q 2419 3097 1959 3097 
z
M 1959 3584 
Q 2709 3584 3137 3096 
Q 3566 2609 3566 1747 
Q 3566 888 3137 398 
Q 2709 -91 1959 -91 
Q 1206 -91 779 398 
Q 353 888 353 1747 
Q 353 2609 779 3096 
Q 1206 3584 1959 3584 
z
" transform="scale(0.015625)"/>
      <path id="DejaVuSans-6a" d="M 603 3500 
L 1178 3500 
L 1178 -63 
Q 1178 -731 923 -1031 
Q 669 -1331 103 -1331 
L -116 -1331 
L -116 -844 
L 38 -844 
Q 366 -844 484 -692 
Q 603 -541 603 -63 
L 603 3500 
z
M 603 4863 
L 1178 4863 
L 1178 4134 
L 603 4134 
L 603 4863 
z
" transform="scale(0.015625)"/>
      <path id="DejaVuSans-74" d="M 1172 4494 
L 1172 3500 
L 2356 3500 
L 2356 3053 
L 1172 3053 
L 1172 1153 
Q 1172 725 1289 603 
Q 1406 481 1766 481 
L 2356 481 
L 2356 0 
L 1766 0 
Q 1100 0 847 248 
Q 594 497 594 1153 
L 594 3053 
L 172 3053 
L 172 3500 
L 594 3500 
L 594 4494 
L 1172 4494 
z
" transform="scale(0.015625)"/>
      <path id="DejaVuSans-69" d="M 603 3500 
L 1178 3500 
L 1178 0 
L 603 0 
L 603 3500 
z
M 603 4863 
L 1178 4863 
L 1178 4134 
L 603 4134 
L 603 4863 
z
" transform="scale(0.015625)"/>
      <path id="DejaVuSans-6e" d="M 3513 2113 
L 3513 0 
L 2938 0 
L 2938 2094 
Q 2938 2591 2744 2837 
Q 2550 3084 2163 3084 
Q 1697 3084 1428 2787 
Q 1159 2491 1159 1978 
L 1159 0 
L 581 0 
L 581 3500 
L 1159 3500 
L 1159 2956 
Q 1366 3272 1645 3428 
Q 1925 3584 2291 3584 
Q 2894 3584 3203 3211 
Q 3513 2838 3513 2113 
z
" transform="scale(0.015625)"/>
      <path id="DejaVuSans-2d" d="M 313 2009 
L 1997 2009 
L 1997 1497 
L 313 1497 
L 313 2009 
z
" transform="scale(0.015625)"/>
      <path id="DejaVuSans-77" d="M 269 3500 
L 844 3500 
L 1563 769 
L 2278 3500 
L 2956 3500 
L 3675 769 
L 4391 3500 
L 4966 3500 
L 4050 0 
L 3372 0 
L 2619 2869 
L 1863 0 
L 1184 0 
L 269 3500 
z
" transform="scale(0.015625)"/>
      <path id="DejaVuSans-68" d="M 3513 2113 
L 3513 0 
L 2938 0 
L 2938 2094 
Q 2938 2591 2744 2837 
Q 2550 3084 2163 3084 
Q 1697 3084 1428 2787 
Q 1159 2491 1159 1978 
L 1159 0 
L 581 0 
L 581 4863 
L 1159 4863 
L 1159 2956 
Q 1366 3272 1645 3428 
Q 1925 3584 2291 3584 
Q 2894 3584 3203 3211 
Q 3513 2838 3513 2113 
z
" transform="scale(0.015625)"/>
      <path id="DejaVuSans-3d" d="M 678 2906 
L 4684 2906 
L 4684 2381 
L 678 2381 
L 678 2906 
z
M 678 1631 
L 4684 1631 
L 4684 1100 
L 678 1100 
L 678 1631 
z
" transform="scale(0.015625)"/>
      <path id="DejaVuSans-31" d="M 794 531 
L 1825 531 
L 1825 4091 
L 703 3866 
L 703 4441 
L 1819 4666 
L 2450 4666 
L 2450 531 
L 3481 531 
L 3481 0 
L 794 0 
L 794 531 
z
" transform="scale(0.015625)"/>
     </defs>
     <use xlink:href="#DejaVuSans-52"/>
     <use xlink:href="#DejaVuSans-65" x="64.982422"/>
     <use xlink:href="#DejaVuSans-61" x="126.505859"/>
     <use xlink:href="#DejaVuSans-6c" x="187.785156"/>
     <use xlink:href="#DejaVuSans-20" x="215.568359"/>
     <use xlink:href="#DejaVuSans-53" x="247.355469"/>
     <use xlink:href="#DejaVuSans-70" x="310.832031"/>
     <use xlink:href="#DejaVuSans-61" x="374.308594"/>
     <use xlink:href="#DejaVuSans-63" x="435.587891"/>
     <use xlink:href="#DejaVuSans-65" x="490.568359"/>
     <use xlink:href="#DejaVuSans-20" x="552.091797"/>
     <use xlink:href="#DejaVuSans-50" x="583.878906"/>
     <use xlink:href="#DejaVuSans-72" x="642.431641"/>
     <use xlink:href="#DejaVuSans-6f" x="681.294922"/>
     <use xlink:href="#DejaVuSans-6a" x="742.476562"/>
     <use xlink:href="#DejaVuSans-65" x="770.259766"/>
     <use xlink:href="#DejaVuSans-63" x="831.783203"/>
     <use xlink:href="#DejaVuSans-74" x="886.763672"/>
     <use xlink:href="#DejaVuSans-69" x="925.972656"/>
     <use xlink:href="#DejaVuSans-6f" x="953.755859"/>
     <use xlink:href="#DejaVuSans-6e" x="1014.9375"/>
     <use xlink:href="#DejaVuSans-20" x="1078.316406"/>
     <use xlink:href="#DejaVuSans-6f" x="1110.103516"/>
     <use xlink:href="#DejaVuSans-6e" x="1171.285156"/>
     <use xlink:href="#DejaVuSans-74" x="1234.664062"/>
     <use xlink:href="#DejaVuSans-6f" x="1273.873047"/>
     <use xlink:href="#DejaVuSans-20" x="1335.054688"/>
     <use xlink:href="#DejaVuSans-72" x="1366.841797"/>
     <use xlink:href="#DejaVuSans-2d" x="1401.580078"/>
     <use xlink:href="#DejaVuSans-7a" x="1437.664062"/>
     <use xlink:href="#DejaVuSans-20" x="1490.154297"/>
     <use xlink:href="#DejaVuSans-70" x="1521.941406"/>
     <use xlink:href="#DejaVuSans-6c" x="1585.417969"/>
     <use xlink:href="#DejaVuSans-61" x="1613.201172"/>
     <use xlink:href="#DejaVuSans-6e" x="1674.480469"/>
     <use xlink:href="#DejaVuSans-65" x="1737.859375"/>
     <use xlink:href="#DejaVuSans-20" x="1799.382812"/>
     <use xlink:href="#DejaVuSans-77" x="1831.169922"/>
     <use xlink:href="#DejaVuSans-69" x="1912.957031"/>
     <use xlink:href="#DejaVuSans-74" x="1940.740234"/>
     <use xlink:href="#DejaVuSans-68" x="1979.949219"/>
     <use xlink:href="#DejaVuSans-20" x="2043.328125"/>
     <use xlink:href="#DejaVuSans-69" x="2075.115234"/>
     <use xlink:href="#DejaVuSans-6e" x="2102.898438"/>
     <use xlink:href="#DejaVuSans-69" x="2166.277344"/>
     <use xlink:href="#DejaVuSans-74" x="2194.060547"/>
     <use xlink:href="#DejaVuSans-69" x="2233.269531"/>
     <use xlink:href="#DejaVuSans-61" x="2261.052734"/>
     <use xlink:href="#DejaVuSans-6c" x="2322.332031"/>
     <use xlink:href="#DejaVuSans-20" x="2350.115234"/>
     <use xlink:href="#DejaVuSans-72" x="2381.902344"/>
     <use xlink:href="#DejaVuSans-20" x="2423.015625"/>
     <use xlink:href="#DejaVuSans-3d" x="2454.802734"/>
     <use xlink:href="#DejaVuSans-20" x="2538.591797"/>
     <use xlink:href="#DejaVuSans-30" x="2570.378906"/>
     <use xlink:href="#DejaVuSans-2e" x="2634.001953"/>
     <use xlink:href="#DejaVuSans-31" x="2665.789062"/>
     <use xlink:href="#DejaVuSans-34" x="2729.412109"/>
    </g>
   </g>
  </g>
 </g>
 <defs>
  <clipPath id="p334eb18bf2">
   <rect x="57.6" y="41.472" width="357.12" height="266.112"/>
  </clipPath>
 </defs>
</svg>
