<?xml version="1.0" encoding="utf-8" standalone="no"?>
<!DOCTYPE svg PUBLIC "-//W3C//DTD SVG 1.1//EN"
  "http://www.w3.org/Graphics/SVG/1.1/DTD/svg11.dtd">
<svg xmlns:xlink="http://www.w3.org/1999/xlink" width="460.8pt" height="345.6pt" viewBox="0 0 460.8 345.6" xmlns="http://www.w3.org/2000/svg" version="1.1">
 <metadata>
  <rdf:RDF xmlns:dc="http://purl.org/dc/elements/1.1/" xmlns:cc="http://creativecommons.org/ns#" xmlns:rdf="http://www.w3.org/1999/02/22-rdf-syntax-ns#">
   <cc:Work>
    <dc:type rdf:resource="http://purl.org/dc/dcmitype/StillImage"/>
    <dc:date>2023-10-23T13:51:38.454963</dc:date>
    <dc:format>image/svg+xml</dc:format>
    <dc:creator>
     <cc:Agent>
      <dc:title>Matplotlib v3.8.0, https://matplotlib.org/</dc:title>
     </cc:Agent>
    </dc:creator>
   </cc:Work>
  </rdf:RDF>
 </metadata>
 <defs>
  <style type="text/css">*{stroke-linejoin: round; stroke-linecap: butt}</style>
 </defs>
 <g id="figure_1">
  <g id="patch_1">
   <path d="M 0 345.6 
L 460.8 345.6 
L 460.8 0 
L 0 0 
z
" style="fill: #ffffff"/>
  </g>
  <g id="axes_1">
   <g id="patch_2">
    <path d="M 57.6 307.584 
L 414.72 307.584 
L 414.72 41.472 
L 57.6 41.472 
z
" style="fill: #ffffff"/>
   </g>
   <g id="matplotlib.axis_1">
    <g id="xtick_1">
     <g id="line2d_1">
      <defs>
       <path id="m284bafcf8e" d="M 0 0 
L 0 3.5 
" style="stroke: #000000; stroke-width: 0.8"/>
      </defs>
      <g>
       <use xlink:href="#m284bafcf8e" x="93.312" y="307.584" style="stroke: #000000; stroke-width: 0.8"/>
      </g>
     </g>
     <g id="text_1">
      <!-- −0.4 -->
      <g transform="translate(81.170594 322.182437) scale(0.1 -0.1)">
       <defs>
        <path id="DejaVuSans-2212" d="M 678 2272 
L 4684 2272 
L 4684 1741 
L 678 1741 
L 678 2272 
z
" transform="scale(0.015625)"/>
        <path id="DejaVuSans-30" d="M 2034 4250 
Q 1547 4250 1301 3770 
Q 1056 3291 1056 2328 
Q 1056 1369 1301 889 
Q 1547 409 2034 409 
Q 2525 409 2770 889 
Q 3016 1369 3016 2328 
Q 3016 3291 2770 3770 
Q 2525 4250 2034 4250 
z
M 2034 4750 
Q 2819 4750 3233 4129 
Q 3647 3509 3647 2328 
Q 3647 1150 3233 529 
Q 2819 -91 2034 -91 
Q 1250 -91 836 529 
Q 422 1150 422 2328 
Q 422 3509 836 4129 
Q 1250 4750 2034 4750 
z
" transform="scale(0.015625)"/>
        <path id="DejaVuSans-2e" d="M 684 794 
L 1344 794 
L 1344 0 
L 684 0 
L 684 794 
z
" transform="scale(0.015625)"/>
        <path id="DejaVuSans-34" d="M 2419 4116 
L 825 1625 
L 2419 1625 
L 2419 4116 
z
M 2253 4666 
L 3047 4666 
L 3047 1625 
L 3713 1625 
L 3713 1100 
L 3047 1100 
L 3047 0 
L 2419 0 
L 2419 1100 
L 313 1100 
L 313 1709 
L 2253 4666 
z
" transform="scale(0.015625)"/>
       </defs>
       <use xlink:href="#DejaVuSans-2212"/>
       <use xlink:href="#DejaVuSans-30" x="83.789062"/>
       <use xlink:href="#DejaVuSans-2e" x="147.412109"/>
       <use xlink:href="#DejaVuSans-34" x="179.199219"/>
      </g>
     </g>
    </g>
    <g id="xtick_2">
     <g id="line2d_2">
      <g>
       <use xlink:href="#m284bafcf8e" x="164.736" y="307.584" style="stroke: #000000; stroke-width: 0.8"/>
      </g>
     </g>
     <g id="text_2">
      <!-- −0.2 -->
      <g transform="translate(152.594594 322.182437) scale(0.1 -0.1)">
       <defs>
        <path id="DejaVuSans-32" d="M 1228 531 
L 3431 531 
L 3431 0 
L 469 0 
L 469 531 
Q 828 903 1448 1529 
Q 2069 2156 2228 2338 
Q 2531 2678 2651 2914 
Q 2772 3150 2772 3378 
Q 2772 3750 2511 3984 
Q 2250 4219 1831 4219 
Q 1534 4219 1204 4116 
Q 875 4013 500 3803 
L 500 4441 
Q 881 4594 1212 4672 
Q 1544 4750 1819 4750 
Q 2544 4750 2975 4387 
Q 3406 4025 3406 3419 
Q 3406 3131 3298 2873 
Q 3191 2616 2906 2266 
Q 2828 2175 2409 1742 
Q 1991 1309 1228 531 
z
" transform="scale(0.015625)"/>
       </defs>
       <use xlink:href="#DejaVuSans-2212"/>
       <use xlink:href="#DejaVuSans-30" x="83.789062"/>
       <use xlink:href="#DejaVuSans-2e" x="147.412109"/>
       <use xlink:href="#DejaVuSans-32" x="179.199219"/>
      </g>
     </g>
    </g>
    <g id="xtick_3">
     <g id="line2d_3">
      <g>
       <use xlink:href="#m284bafcf8e" x="236.16" y="307.584" style="stroke: #000000; stroke-width: 0.8"/>
      </g>
     </g>
     <g id="text_3">
      <!-- 0.0 -->
      <g transform="translate(228.208438 322.182437) scale(0.1 -0.1)">
       <use xlink:href="#DejaVuSans-30"/>
       <use xlink:href="#DejaVuSans-2e" x="63.623047"/>
       <use xlink:href="#DejaVuSans-30" x="95.410156"/>
      </g>
     </g>
    </g>
    <g id="xtick_4">
     <g id="line2d_4">
      <g>
       <use xlink:href="#m284bafcf8e" x="307.584" y="307.584" style="stroke: #000000; stroke-width: 0.8"/>
      </g>
     </g>
     <g id="text_4">
      <!-- 0.2 -->
      <g transform="translate(299.632437 322.182437) scale(0.1 -0.1)">
       <use xlink:href="#DejaVuSans-30"/>
       <use xlink:href="#DejaVuSans-2e" x="63.623047"/>
       <use xlink:href="#DejaVuSans-32" x="95.410156"/>
      </g>
     </g>
    </g>
    <g id="xtick_5">
     <g id="line2d_5">
      <g>
       <use xlink:href="#m284bafcf8e" x="379.008" y="307.584" style="stroke: #000000; stroke-width: 0.8"/>
      </g>
     </g>
     <g id="text_5">
      <!-- 0.4 -->
      <g transform="translate(371.056437 322.182437) scale(0.1 -0.1)">
       <use xlink:href="#DejaVuSans-30"/>
       <use xlink:href="#DejaVuSans-2e" x="63.623047"/>
       <use xlink:href="#DejaVuSans-34" x="95.410156"/>
      </g>
     </g>
    </g>
    <g id="text_6">
     <!-- r -->
     <g transform="translate(234.104531 335.860562) scale(0.1 -0.1)">
      <defs>
       <path id="DejaVuSans-72" d="M 2631 2963 
Q 2534 3019 2420 3045 
Q 2306 3072 2169 3072 
Q 1681 3072 1420 2755 
Q 1159 2438 1159 1844 
L 1159 0 
L 581 0 
L 581 3500 
L 1159 3500 
L 1159 2956 
Q 1341 3275 1631 3429 
Q 1922 3584 2338 3584 
Q 2397 3584 2469 3576 
Q 2541 3569 2628 3553 
L 2631 2963 
z
" transform="scale(0.015625)"/>
      </defs>
      <use xlink:href="#DejaVuSans-72"/>
     </g>
    </g>
   </g>
   <g id="matplotlib.axis_2">
    <g id="ytick_1">
     <g id="line2d_6">
      <defs>
       <path id="me91f63f342" d="M 0 0 
L -3.5 0 
" style="stroke: #000000; stroke-width: 0.8"/>
      </defs>
      <g>
       <use xlink:href="#me91f63f342" x="57.6" y="280.9728" style="stroke: #000000; stroke-width: 0.8"/>
      </g>
     </g>
     <g id="text_7">
      <!-- −0.4 -->
      <g transform="translate(26.317187 284.772019) scale(0.1 -0.1)">
       <use xlink:href="#DejaVuSans-2212"/>
       <use xlink:href="#DejaVuSans-30" x="83.789062"/>
       <use xlink:href="#DejaVuSans-2e" x="147.412109"/>
       <use xlink:href="#DejaVuSans-34" x="179.199219"/>
      </g>
     </g>
    </g>
    <g id="ytick_2">
     <g id="line2d_7">
      <g>
       <use xlink:href="#me91f63f342" x="57.6" y="227.7504" style="stroke: #000000; stroke-width: 0.8"/>
      </g>
     </g>
     <g id="text_8">
      <!-- −0.2 -->
      <g transform="translate(26.317187 231.549619) scale(0.1 -0.1)">
       <use xlink:href="#DejaVuSans-2212"/>
       <use xlink:href="#DejaVuSans-30" x="83.789062"/>
       <use xlink:href="#DejaVuSans-2e" x="147.412109"/>
       <use xlink:href="#DejaVuSans-32" x="179.199219"/>
      </g>
     </g>
    </g>
    <g id="ytick_3">
     <g id="line2d_8">
      <g>
       <use xlink:href="#me91f63f342" x="57.6" y="174.528" style="stroke: #000000; stroke-width: 0.8"/>
      </g>
     </g>
     <g id="text_9">
      <!-- 0.0 -->
      <g transform="translate(34.696875 178.327219) scale(0.1 -0.1)">
       <use xlink:href="#DejaVuSans-30"/>
       <use xlink:href="#DejaVuSans-2e" x="63.623047"/>
       <use xlink:href="#DejaVuSans-30" x="95.410156"/>
      </g>
     </g>
    </g>
    <g id="ytick_4">
     <g id="line2d_9">
      <g>
       <use xlink:href="#me91f63f342" x="57.6" y="121.3056" style="stroke: #000000; stroke-width: 0.8"/>
      </g>
     </g>
     <g id="text_10">
      <!-- 0.2 -->
      <g transform="translate(34.696875 125.104819) scale(0.1 -0.1)">
       <use xlink:href="#DejaVuSans-30"/>
       <use xlink:href="#DejaVuSans-2e" x="63.623047"/>
       <use xlink:href="#DejaVuSans-32" x="95.410156"/>
      </g>
     </g>
    </g>
    <g id="ytick_5">
     <g id="line2d_10">
      <g>
       <use xlink:href="#me91f63f342" x="57.6" y="68.0832" style="stroke: #000000; stroke-width: 0.8"/>
      </g>
     </g>
     <g id="text_11">
      <!-- 0.4 -->
      <g transform="translate(34.696875 71.882419) scale(0.1 -0.1)">
       <use xlink:href="#DejaVuSans-30"/>
       <use xlink:href="#DejaVuSans-2e" x="63.623047"/>
       <use xlink:href="#DejaVuSans-34" x="95.410156"/>
      </g>
     </g>
    </g>
    <g id="text_12">
     <!-- z -->
     <g transform="translate(20.2375 177.152219) rotate(-90) scale(0.1 -0.1)">
      <defs>
       <path id="DejaVuSans-7a" d="M 353 3500 
L 3084 3500 
L 3084 2975 
L 922 459 
L 3084 459 
L 3084 0 
L 275 0 
L 275 525 
L 2438 3041 
L 353 3041 
L 353 3500 
z
" transform="scale(0.015625)"/>
      </defs>
      <use xlink:href="#DejaVuSans-7a"/>
     </g>
    </g>
   </g>
   <g id="line2d_11">
    <path d="M 236.16 121.3056 
L 243.026791 122.954521 
L 268.357755 130.283305 
L 299.804023 143.057255 
L 328.143554 161.440176 
L 346.210998 184.035637 
L 352.194903 205.612613 
L 349.931305 226.49564 
L 341.929184 243.113294 
L 327.399615 255.904833 
L 311.66165 259.227215 
L 293.817435 254.554529 
L 274.103761 242.138262 
L 250.226912 220.501315 
L 223.611346 191.274731 
L 202.17516 164.914577 
L 183.883521 139.611487 
L 170.180902 115.352413 
L 165.755019 98.69652 
L 169.325323 86.763764 
L 180.152516 80.002952 
L 199.576896 77.700947 
L 224.887014 80.871766 
L 247.0226 87.442478 
L 266.990366 96.793065 
L 288.120334 112.477063 
L 305.030072 135.873256 
L 312.476985 162.688216 
L 312.460509 186.172628 
L 308.307103 208.24719 
L 299.277274 232.578139 
L 286.007398 253.175182 
L 269.914603 264.470093 
L 256.652912 264.565679 
L 243.932721 257.767433 
L 228.413337 241.608809 
L 211.535943 215.704854 
L 195.846062 183.738992 
L 184.677841 152.317868 
L 179.673853 125.05128 
L 180.890082 104.623202 
L 187.464743 88.604322 
L 201.090315 75.208326 
L 221.303689 66.78266 
L 239.382005 64.533018 
L 257.067279 66.219326 
L 273.128114 72.235853 
L 286.089125 84.406419 
L 292.068353 103.588463 
L 290.760681 123.305553 
L 284.887128 145.255863 
L 273.472286 173.376549 
L 257.869837 203.601412 
L 240.907168 230.422978 
L 222.475495 252.202804 
L 204.22472 263.777709 
L 191.310905 264.220269 
L 179.755588 258.04389 
L 167.726918 243.468969 
L 157.502369 220.479483 
L 152.115526 192.135356 
L 153.593553 166.947806 
L 161.777112 143.825335 
L 179.747301 120.959956 
L 208.149788 101.764805 
L 235.466772 90.892771 
L 262.840555 84.671656 
L 285.273838 83.317432 
L 302.679695 86.900971 
L 311.665159 96.580092 
L 311.185001 108.810769 
L 304.720856 123.645269 
L 290.428808 145.037461 
L 268.773123 171.519624 
L 243.370118 199.038534 
L 218.291297 223.080337 
L 191.717649 243.63028 
L 166.770676 255.287983 
L 150.296667 256.785094 
L 135.993729 252.331035 
L 123.584695 241.731413 
L 114.866934 224.848684 
L 113.484035 203.886595 
L 122.568159 182.328488 
L 142.294361 163.556318 
L 171.780215 147.879116 
L 214.559405 133.921155 
L 249.108616 126.520643 
L 282.140216 122.02419 
L 312.616623 120.908307 
L 333.079476 123.906767 
L 344.456647 131.683585 
L 345.326073 142.089307 
L 338.458323 155.485205 
L 322.282226 173.712191 
L 298.230487 194.102576 
L 270.273622 213.040903 
L 237.117548 229.999737 
L 201.203198 240.937224 
L 173.251631 243.10233 
L 147.692989 239.320104 
L 125.090029 230.327495 
L 106.183578 216.382515 
L 96.155481 200.461506 
L 97.261315 187.791696 
L 107.851194 177.452461 
L 129.470459 168.9957 
L 161.949705 162.818726 
L 199.525462 158.936564 
L 239.551708 156.576175 
L 277.519935 155.596269 
L 309.415316 156.050144 
L 334.956159 158.060974 
L 356.350958 162.610435 
L 369.240789 170.269192 
L 372.180109 181.009757 
L 365.885791 193.638057 
L 351.023926 207.900008 
L 327.730575 222.305959 
L 297.216644 233.835901 
L 260.712519 239.028943 
L 223.684524 235.478874 
L 190.777194 225.272952 
L 157.600506 208.345226 
L 130.714476 188.528225 
L 116.769477 173.463595 
L 110.971215 160.46185 
L 114.611825 150.44036 
L 128.357105 143.994171 
L 153.40888 141.08843 
L 180.091333 141.373596 
L 209.256746 143.463993 
L 246.311444 147.872513 
L 283.366866 154.215447 
L 319.501691 163.298986 
L 347.855231 174.925092 
L 364.629451 187.672403 
L 372.472554 203.288964 
L 370.381953 219.371402 
L 361.294025 232.829228 
L 344.074735 244.648276 
L 319.421641 249.993885 
L 291.827622 245.952649 
L 264.432458 234.436407 
L 232.55323 214.323436 
L 199.130112 187.546869 
L 176.12018 165.841086 
L 157.89223 145.373972 
L 145.718258 125.656346 
L 144.12579 113.471742 
L 150.615888 105.231444 
L 166.738655 100.792212 
L 192.526616 101.15602 
L 220.924285 105.645878 
L 249.543939 113.258654 
L 276.126293 123.478335 
L 304.27365 139.643127 
L 327.131881 162.414307 
L 338.872758 189.673342 
L 340.006272 210.965804 
L 335.633818 230.849355 
L 325.695073 249.01435 
L 310.540553 260.498519 
L 296.882894 261.708862 
L 281.969826 255.973306 
L 263.903559 241.835578 
L 242.410784 218.215299 
L 219.086451 187.380021 
L 198.773285 156.841457 
L 184.062595 130.732151 
L 174.786488 106.457237 
L 173.771415 91.900694 
L 178.449933 81.061024 
L 190.120132 73.487215 
L 209.480898 70.591703 
L 233.42522 73.393906 
L 255.818974 80.909588 
L 274.543856 92.10542 
L 291.294764 110.234087 
L 301.399412 136.332094 
L 302.736896 159.894504 
L 299.086014 184.882805 
L 291.163448 210.584758 
L 278.960429 236.065496 
L 263.625796 256.089742 
L 246.677303 265.557312 
L 232.878164 263.774689 
L 219.703743 254.399915 
L 204.862452 235.253028 
L 190.402744 207.196163 
L 179.434133 175.142655 
L 174.649884 145.515137 
L 176.750573 119.829951 
L 185.155236 100.216732 
L 201.284211 83.621345 
L 224.22167 72.243831 
L 242.480229 68.122797 
L 260.082198 67.52577 
L 276.82239 71.062338 
L 289.805012 80.434584 
L 295.112452 96.481953 
L 292.339409 116.040202 
L 284.244562 137.636215 
L 270.070189 165.27327 
L 251.496072 195.736443 
L 232.817528 222.353568 
L 212.741059 245.61593 
L 192.900995 260.284642 
L 178.326965 263.369388 
L 165.169248 258.651618 
L 153.674233 246.634477 
L 144.195686 226.630258 
L 139.799623 201.000956 
L 143.487053 173.762904 
L 155.676352 150.227534 
L 178.414592 128.488687 
L 212.892496 109.995666 
L 241.807872 100.434522 
L 270.071761 94.767772 
L 294.943552 93.354853 
L 312.955345 96.889292 
L 321.637629 106.29118 
L 320.300622 118.649644 
L 312.090843 133.949577 
L 295.171572 155.419428 
L 270.595631 181.046155 
L 244.119674 205.154549 
L 215.839043 227.157048 
L 185.990361 244.542996 
L 161.161582 252.15586 
L 143.143754 252.144578 
L 128.530466 247.432438 
L 114.511925 236.710791 
L 105.273222 220.603557 
L 104.837585 201.525818 
L 115.347136 183.796741 
L 137.133582 168.239843 
L 169.60467 155.260211 
L 212.746231 144.491538 
L 249.72947 138.282677 
L 285.415344 134.464841 
L 314.564098 133.534578 
L 337.009377 135.692415 
L 351.553038 141.767083 
L 355.750819 152.632436 
L 349.500903 166.406518 
L 334.251717 183.067235 
L 313.661781 199.474175 
L 285.343863 216.819807 
L 251.337602 231.42119 
L 213.753465 239.529242 
L 184.921731 239.489318 
L 159.87924 234.614985 
L 133.30771 223.818718 
L 111.213812 208.521867 
L 98.945737 192.542865 
L 98.037865 181.169681 
L 105.879209 172.015468 
L 123.048997 165.229206 
L 151.751288 160.598235 
L 186.229869 158.441558 
L 217.82535 157.871647 
L 250.417511 158.157376 
L 280.327254 159.177177 
L 312.45872 161.469888 
L 341.19117 165.661984 
L 361.826641 172.073558 
L 373.147728 180.608668 
L 375.824609 191.546919 
L 369.962934 204.196182 
L 355.80023 217.805144 
L 333.231141 230.665914 
L 303.249493 239.42428 
L 273.037536 240.913552 
L 241.549878 235.638274 
L 207.804258 223.125169 
L 173.113996 203.50278 
L 146.995762 183.684832 
L 131.055095 167.780406 
L 121.909553 153.884338 
L 120.569626 142.305761 
L 128.201597 134.258414 
L 146.883224 129.592131 
L 170.871674 128.938232 
L 199.922493 131.048435 
L 235.368964 136.091167 
L 272.731131 144.004282 
L 307.58259 154.731487 
L 337.924033 169.493756 
L 356.948277 186.534837 
L 365.083181 205.36428 
L 363.984229 221.901114 
L 356.768135 236.401006 
L 342.004139 249.154812 
L 320.566199 254.451867 
L 297.428085 249.980824 
L 273.700491 237.966862 
L 245.369698 217.101056 
L 214.37605 189.011704 
L 191.176567 165.055313 
L 171.861769 142.216673 
L 157.763067 120.196471 
L 154.010722 105.635483 
L 158.869828 95.623327 
L 172.151807 90.324229 
L 194.925009 89.75318 
L 221.891593 93.992676 
L 247.32834 101.354831 
L 271.221252 111.620179 
L 296.225433 127.96045 
L 316.732261 151.664015 
L 327.071581 181.229697 
L 327.521161 203.479452 
L 323.236168 224.542634 
L 313.751962 245.365147 
L 299.639743 260.154218 
L 285.640675 264.045285 
L 270.463257 259.179516 
L 254.370921 246.057528 
L 235.490968 223.156136 
L 215.323799 192.386224 
L 199.525427 164.014965 
L 187.111134 136.811502 
L 179.552643 110.605241 
L 179.263261 94.108737 
L 183.907698 81.799186 
L 195.231427 71.834004 
L 213.636936 66.455098 
L 233.290841 66.534307 
L 253.131078 71.122461 
L 269.997162 79.544768 
L 285.086239 94.350591 
L 294.155254 116.799322 
L 295.251599 138.135286 
L 291.62109 161.763913 
L 283.191113 189.194423 
L 271.561837 215.666282 
L 256.402312 240.998774 
L 239.338747 259.238717 
L 224.127206 265.698886 
L 209.291669 262.226888 
L 196.271129 250.712623 
L 182.932692 229.655864 
L 171.84612 200.984224 
L 166.173217 169.92504 
L 167.64951 142.66324 
L 175.845467 120.100798 
L 192.677062 99.67556 
L 217.76169 84.03429 
L 239.679592 76.546761 
L 261.166811 73.177365 
L 280.126723 74.125163 
L 294.594452 80.296976 
L 301.317518 93.01805 
L 299.596612 108.012296 
L 292.253978 126.032798 
L 277.998352 150.553667 
L 257.919641 179.565323 
L 236.060141 207.765845 
L 213.97318 232.61715 
L 191.206214 252.094896 
L 170.717868 260.77825 
L 156.69024 259.528513 
L 145.052081 252.208485 
L 134.456012 237.36817 
L 128.097476 216.104073 
L 129.251855 191.353256 
L 139.986324 167.655945 
L 159.299008 147.822548 
L 192.466975 128.590952 
L 228.523445 115.786865 
L 260.622199 108.475047 
L 289.081719 105.042793 
L 313.590094 105.868131 
L 327.933778 111.411834 
L 332.400516 122.801468 
L 326.597545 137.63193 
L 312.448246 156.14247 
L 289.298091 179.226187 
L 262.43647 201.645118 
L 232.674432 222.334373 
L 200.408759 239.048567 
L 168.353147 247.703914 
L 147.050602 247.615654 
L 129.617885 242.997409 
L 112.537062 232.708215 
L 100.608444 217.62866 
L 98.238865 200.486108 
L 107.385112 185.393144 
L 127.752012 172.79171 
L 159.669179 162.408782 
L 199.948932 154.473248 
L 243.813265 148.815058 
L 283.954339 145.667148 
L 313.531007 145.034713 
L 337.498074 146.672572 
L 355.210827 151.412208 
L 363.922975 160.262989 
L 361.746114 172.777218 
L 351.046659 186.614321 
L 332.226397 202.327597 
L 305.554909 218.314318 
L 272.494087 231.484157 
L 234.674035 238.329353 
L 203.011089 237.199858 
L 174.099524 230.541155 
L 144.057614 217.523211 
L 119.130625 200.46537 
L 104.764877 183.936112 
L 101.989722 172.783008 
L 107.472391 164.002237 
L 122.990067 157.50884 
L 149.670967 153.930803 
L 177.413187 153.16185 
L 208.752988 153.854125 
L 241.582563 155.66048 
L 277.97207 158.826074 
L 314.056696 163.725553 
L 343.941628 170.619871 
L 361.840898 178.066178 
L 372.627091 186.921355 
L 376.749445 199.998865 
L 371.542718 213.567263 
L 358.528961 226.781805 
L 337.186977 238.318639 
L 308.301222 244.339212 
L 279.330569 242.367759 
L 249.67319 233.622648 
L 215.488423 216.653335 
L 181.258026 193.359979 
L 157.283748 172.899064 
L 139.685869 153.60657 
L 130.816385 137.077642 
L 132.172339 126.028002 
L 142.262166 119.248277 
L 163.549701 116.126003 
L 192.840528 117.477115 
L 225.036915 122.295572 
L 261.192613 130.911791 
L 292.791068 141.895053 
L 323.443114 158.232676 
L 345.070464 178.976879 
L 354.631405 201.566765 
L 354.616684 219.851203 
L 349.228389 235.792764 
L 337.090904 250.722857 
L 319.00715 258.140085 
L 301.606509 256.001296 
L 282.975019 246.846208 
L 259.709874 228.700451 
L 232.849748 202.036403 
L 208.552167 174.511917 
L 187.070087 147.280213 
L 171.094066 122.65531 
L 163.595487 102.42271 
L 165.451488 90.657153 
L 174.186721 83.386376 
L 191.730911 80.027181 
L 216.583531 82.019494 
L 240.466201 88.051551 
L 263.844104 97.855732 
L 285.913152 112.514515 
L 304.769525 134.663771 
L 315.065516 164.179894 
L 315.836706 187.404164 
L 311.989627 210.282361 
L 303.355722 233.993513 
L 290.308259 253.962062 
L 274.284145 264.518281 
L 260.774245 263.981283 
L 247.619052 256.363269 
L 231.591317 239.202661 
L 214.111766 212.449547 
L 197.835582 180.240466 
L 186.098882 149.189716 
L 180.362258 121.744653 
L 181.043107 102.193917 
L 186.80206 87.115827 
L 199.439612 74.345167 
L 218.799349 66.360995 
L 237.32322 64.363144 
L 255.670569 66.581302 
L 271.779369 73.046702 
L 285.165066 85.67656 
L 291.881792 105.470025 
L 291.253747 125.17422 
L 286.316296 146.557791 
L 275.979407 174.343136 
L 261.329965 204.344175 
L 244.954876 231.159386 
L 226.948044 252.811638 
L 208.909433 264.168663 
L 195.92003 264.342666 
L 184.444657 257.935079 
L 172.156151 242.884084 
L 161.510326 219.281778 
L 155.534531 190.350376 
L 156.268246 165.350739 
L 163.209896 142.541754 
L 179.457942 119.582964 
L 205.834147 100.20219 
L 232.806587 88.740251 
L 257.511523 82.662886 
L 279.302412 80.777278 
L 297.68408 83.598248 
L 308.270497 92.371302 
L 309.433317 103.706826 
L 304.317253 118.522958 
L 292.092567 138.840721 
L 272.385635 164.781761 
L 247.926 193.095096 
L 224.330539 217.561078 
L 199.461682 239.285774 
L 174.620796 254.075768 
L 156.571199 257.990959 
L 140.870279 254.5294 
L 128.524494 245.01063 
L 119.048849 228.803096 
L 115.975061 207.8214 
L 122.700537 185.194445 
L 139.962155 165.112015 
L 165.656983 148.858206 
L 206.368577 133.280546 
L 242.378768 124.395263 
L 277.66547 118.877875 
L 308.148545 117.278931 
L 329.561019 120.015222 
L 341.32064 127.579989 
L 342.53338 138.031916 
L 335.832182 151.651162 
L 319.982675 170.03801 
L 295.728572 191.289348 
L 268.564948 210.558912 
L 236.088581 228.445799 
L 200.893792 240.756841 
L 172.194751 244.172877 
L 146.108871 241.000774 
L 124.563814 232.723986 
L 106.232781 219.288487 
L 96.238428 203.328433 
L 97.218977 190.145186 
L 107.778101 179.179464 
L 129.544417 169.976038 
L 162.495241 162.993986 
L 200.764771 158.384723 
L 241.80201 155.378128 
L 280.553509 153.934768 
L 309.823018 154.068272 
L 333.707511 155.674923 
L 354.817066 159.835542 
L 367.824517 167.302127 
L 370.675072 178.122404 
L 364.151199 190.806208 
L 349.032371 205.290305 
L 325.512087 220.114485 
L 294.849745 232.329248 
L 258.310343 238.52345 
L 225.410599 236.797052 
L 194.193811 228.980212 
L 161.205163 214.235931 
L 132.764012 195.257132 
L 116.36467 179.255633 
L 109.252561 166.62436 
L 110.14863 156.732028 
L 119.643289 149.487745 
L 140.77945 144.991269 
L 166.185865 144.034457 
L 196.472322 145.240138 
L 230.497507 148.260575 
L 268.929626 153.373576 
L 305.66564 160.444295 
L 338.157843 170.204693 
L 359.721211 181.583957 
L 371.012389 193.862954 
L 373.949686 209.617277 
L 368.130085 223.894012 
L 354.777751 237.058936 
L 333.418327 246.595062 
L 310.04006 248.565761 
L 284.089774 243.392711 
L 255.039115 230.652725 
L 221.752451 209.389221 
L 189.125673 183.12795 
L 166.406476 161.293282 
L 150.185742 141.917327 
L 141.207311 123.766092 
L 143.014149 112.78394 
L 153.200328 106.263238 
L 174.028808 103.668018 
L 202.433829 105.859644 
L 234.815858 112.309455 
L 267.255467 122.524134 
L 296.392807 136.235208 
L 322.670856 156.286276 
L 339.192734 181.626828 
L 343.704124 204.415349 
L 340.888422 226.298636 
L 332.68441 244.368791 
L 318.622817 257.884201 
L 303.90004 261.338867 
L 287.418615 256.571036 
L 269.339101 243.869328 
L 247.554599 221.737776 
L 223.406719 191.894576 
L 203.787768 164.607122 
L 187.185228 138.383973 
L 175.031949 113.194604 
L 171.510675 96.068038 
L 175.156515 83.46287 
L 185.582469 75.736912 
L 204.012436 72.416697 
L 228.093017 74.709665 
L 248.882103 80.77613 
L 267.578849 90.00455 
L 286.438566 105.623643 
L 300.499243 129.070607 
L 305.430778 154.674296 
L 303.916853 179.656694 
L 298.006548 204.374827 
L 287.568334 229.974257 
L 273.39323 251.746251 
L 256.910325 264.272123 
L 243.97494 265.36468 
L 230.9624 259.118635 
L 216.346892 243.953608 
L 200.869783 218.966825 
L 187.19998 187.533583 
L 178.552035 156.063147 
L 176.439821 129.634924 
L 180.58546 107.823304 
L 191.285947 89.974671 
L 209.513103 76.051219 
L 230.335296 68.535329 
L 248.99936 66.24825 
L 265.625747 67.714383 
L 281.172234 73.992875 
L 291.553907 86.767479 
L 293.851544 102.243699 
L 290.382308 121.500811 
L 281.657821 144.68323 
L 267.143382 173.480316 
L 249.040053 203.678845 
L 230.36064 230.1603 
L 210.660022 251.597053 
L 191.755319 262.836655 
L 178.735508 263.219898 
L 167.371501 257.262826 
L 155.907868 243.287264 
L 146.845202 221.412169 
L 143.268039 194.493906 
L 147.934407 167.084946 
L 160.492525 144.272337 
L 184.337343 122.354543 
L 218.795092 104.634669 
L 245.441797 96.216008 
L 270.887396 91.40971 
L 294.666748 90.490492 
L 311.346903 94.533644 
L 318.999753 104.621935 
L 316.09526 119.447141 
L 305.871608 136.643047 
L 287.106639 159.754771 
L 261.681221 186.276909 
L 236.61601 209.395518 
L 208.846372 231.234633 
L 179.991014 247.692543 
L 157.356222 253.793774 
L 139.992945 252.63515 
L 125.790018 246.327475 
L 113.277176 233.785075 
L 106.424978 216.161874 
L 109.101941 196.166173 
L 122.879454 178.000706 
L 147.659147 162.355401 
L 185.300134 148.602102 
L 230.363784 138.243272 
L 268.400449 132.579037 
L 302.347161 130.031176 
L 329.387632 131.124386 
L 345.878115 135.931164 
L 353.047485 145.643397 
L 349.071586 159.262868 
L 336.38153 175.090419 
L 315.16793 193.554547 
L 288.493075 211.453487 
L 255.799455 227.695777 
L 219.183602 238.494427 
L 188.731299 240.866728 
L 160.279403 236.992731 
L 134.716533 227.728762 
L 112.416942 213.427195 
L 98.930562 197.40726 
L 96.926493 185.109492 
L 104.397951 175.0006 
L 121.800697 167.422995 
L 150.604255 162.130279 
L 185.481294 159.321661 
L 222.552325 158.127719 
L 251.76696 157.988294 
L 280.080552 158.513763 
L 309.998291 160.090741 
L 338.338464 163.476556 
L 359.752006 169.218958 
L 371.986748 177.428312 
L 375.142034 187.600294 
L 369.801907 200.185624 
L 356.145583 213.851466 
L 333.983567 227.298646 
L 304.373383 237.300792 
L 268.484307 240.268862 
L 233.931387 234.811819 
L 199.95738 222.303798 
L 165.795554 203.004431 
L 140.81878 183.841966 
L 126.196545 168.734969 
L 118.313772 155.428485 
L 118.986788 143.603917 
L 129.011544 136.550804 
L 150.600244 132.780529 
L 175.143711 132.725425 
L 202.853713 134.876295 
L 239.0414 139.871818 
L 276.415412 147.439221 
L 311.857179 157.884105 
L 341.612719 171.885811 
L 359.759881 187.684494 
L 367.605586 205.719488 
L 365.558376 223.348178 
L 356.889515 237.503023 
L 340.454942 249.222888 
L 320.322378 253.19479 
L 297.066823 248.97024 
L 272.4967 237.310449 
L 243.20099 216.848352 
L 211.347432 189.190552 
L 187.801183 165.688579 
L 168.387641 143.299976 
L 154.533857 121.851941 
L 151.172629 107.815773 
L 156.437311 98.227104 
L 170.42746 93.179795 
L 194.035096 92.898749 
L 221.154845 97.190093 
L 247.348354 104.580872 
L 272.190393 114.899984 
L 298.112794 131.174641 
L 319.44827 154.640958 
L 330.394255 183.671153 
L 331.137267 205.717089 
L 326.874797 226.631087 
L 317.348553 246.66814 
L 303.030058 260.472564 
L 289.172296 263.481498 
L 274.100222 258.252481 
L 257.486342 244.734397 
L 237.907272 221.517022 
L 216.872793 190.646271 
L 200.503768 162.823049 
L 187.383612 136.227799 
L 178.822504 110.304868 
L 177.83533 94.133807 
L 182.201969 81.633774 
L 193.129786 72.244834 
L 211.328706 67.365626 
L 231.597755 67.886624 
L 252.325062 73.079266 
L 269.579781 81.877 
L 285.398958 97.088736 
L 295.415215 120.048552 
L 297.139338 142.53743 
L 293.712262 167.326394 
L 285.605798 194.533566 
L 273.868068 221.237396 
L 258.7646 245.479175 
L 241.787752 261.654343 
L 227.362453 265.871714 
L 213.222808 261.033985 
L 199.75305 247.913544 
L 186.043249 225.173383 
L 174.748 195.350749 
L 169.296822 167.413318 
L 169.720236 140.90917 
L 176.172597 119.256638 
L 190.711833 99.009542 
L 213.498155 83.154112 
L 235.723816 74.899871 
L 257.969407 71.274875 
L 276.487741 72.225737 
L 291.295629 78.307565 
L 298.929723 90.960835 
L 298.250815 105.449866 
L 292.441221 122.447213 
L 280.037921 146.197614 
L 261.614316 174.976612 
L 240.397026 204.251302 
L 219.216419 229.830819 
L 197.101938 250.64845 
L 176.790527 261.030862 
L 163.16878 261.051878 
L 151.917936 255.307475 
L 140.803332 242.016185 
L 132.930455 221.601379 
L 131.507899 196.732895 
L 139.29076 171.448781 
L 155.931743 149.967921 
L 184.885488 129.76088 
L 224.747476 113.550412 
L 255.775073 105.738303 
L 283.086066 101.846764 
L 308.056338 101.939616 
L 323.125322 106.571135 
L 329.361286 117.126612 
L 324.920271 131.847578 
L 312.470917 149.585655 
L 290.927817 172.498325 
L 263.802679 196.636919 
L 235.420646 218.070515 
L 204.253061 236.532174 
L 172.623084 247.786155 
L 150.901546 249.515207 
L 131.808887 245.623872 
L 115.339368 236.415915 
L 103.014614 221.90704 
L 99.257855 204.441574 
L 107.069902 187.806916 
L 126.128298 173.947868 
L 156.630704 162.389721 
L 197.095126 153.147378 
L 241.510577 146.526767 
L 282.238828 142.760328 
L 312.726334 141.832506 
L 337.122944 143.496285 
L 354.129471 148.442554 
L 361.845803 157.711263 
L 358.610536 170.61017 
L 346.720155 185.189951 
L 327.355871 201.118675 
L 300.200078 217.508363 
L 266.832014 231.147461 
L 229.002673 238.475523 
L 198.138522 237.803782 
L 170.389876 231.846017 
L 141.275983 219.654222 
L 116.964737 203.204337 
L 102.942286 186.844736 
L 100.532115 175.451437 
L 106.839732 166.474342 
L 122.815841 160.037937 
L 150.062655 156.240017 
L 178.980836 155.168034 
L 211.565358 155.527356 
L 242.557373 156.808845 
L 277.700842 159.268385 
L 313.096915 163.315885 
L 342.914049 169.311699 
L 361.405901 176.209739 
L 372.761307 184.887234 
L 376.822685 197.224092 
L 371.638682 210.535931 
L 358.527459 223.807041 
L 337.032843 235.797483 
L 307.994026 242.836967 
L 279.159908 242.210685 
L 250.384652 235.301876 
L 216.534767 220.417989 
L 181.77915 198.560289 
L 156.106983 177.841578 
L 137.195971 157.989252 
L 128.07135 142.148553 
L 128.501441 130.973904 
L 137.32144 123.909015 
L 157.37377 120.117992 
L 182.738116 120.468631 
L 211.662632 123.736417 
L 248.056276 130.747751 
L 281.377111 140.145206 
L 314.208959 153.839864 
L 340.52926 172.170538 
L 355.026528 192.92214 
L 358.604272 212.218271 
L 354.700166 230.471757 
L 344.577323 245.772029 
L 327.657427 255.876447 
L 311.653167 256.834351 
L 293.914397 251.35575 
L 271.981236 237.88345 
L 245.650289 215.351525 
L 216.911493 185.906217 
L 192.27793 157.395952 
L 174.401564 133.3648 
L 162.706167 111.283464 
L 160.906032 98.034513 
L 166.241728 88.830729 
L 179.687101 83.529584 
L 201.989492 83.084023 
L 228.044013 87.664025 
L 252.665001 95.805834 
L 274.951368 107.136249 
L 297.183985 125.204393 
L 313.609169 151.097277 
L 319.359228 177.365979 
L 318.190346 201.507193 
L 312.521017 223.911798 
L 301.837463 245.871868 
L 287.190818 261.047587 
L 273.234144 264.946435 
L 258.442358 259.938335 
L 243.025045 246.5224 
L 225.386271 223.20694 
L 207.368278 192.273293 
L 193.93812 163.731047 
L 184.344794 136.44471 
L 180.14196 110.249531 
L 183.249872 91.097277 
L 192.327352 77.768679 
L 208.472142 68.346175 
L 229.997833 64.526764 
L 247.838646 65.87787 
L 263.729516 70.726696 
L 279.135829 81.041101 
L 289.828303 98.400468 
L 292.674931 118.204593 
L 289.77653 141.537285 
L 282.165243 167.168755 
L 269.510645 196.935935 
L 254.701556 224.071823 
L 237.539916 247.738986 
L 219.512103 262.505527 
L 205.603065 265.30951 
L 192.424473 259.93742 
L 179.839655 246.433649 
L 168.12621 223.912991 
L 160.184899 195.115285 
L 158.700487 169.054412 
L 163.532977 144.532791 
L 176.521264 121.328871 
L 199.318212 101.143158 
L 226.266055 87.812222 
L 249.475395 81.131886 
L 269.96144 78.388409 
L 289.624547 79.68041 
L 302.894214 86.445253 
L 307.11907 97.683533 
L 303.555332 113.419523 
L 293.528434 132.489406 
L 276.057207 157.623852 
L 253.071911 186.270494 
L 230.379519 211.73789 
L 206.376534 235.041536 
L 181.922124 252.436265 
L 162.939389 258.768703 
L 148.155822 257.293818 
L 135.971077 250.024384 
L 125.29502 235.700881 
L 119.540443 215.533121 
L 122.14243 192.344927 
L 135.015803 170.452744 
L 157.265085 151.985474 
L 193.69617 134.532733 
L 231.527754 123.175014 
L 266.020505 116.476619 
L 296.562072 113.529665 
L 321.369851 114.849169 
L 335.681169 120.718224 
L 339.707863 132.16387 
L 333.422399 146.77584 
L 318.415803 165.055107 
L 297.256367 184.711799 
L 273.002977 203.462646 
L 242.269348 222.812595 
L 208.288231 238.016185 
L 173.966124 245.117119 
L 149.912809 243.882514 
L 129.601249 237.812781 
L 110.694269 226.189093 
L 98.256512 210.705568 
L 96.21178 196.371358 
L 104.402021 183.569812 
L 123.562032 172.953973 
L 154.118628 164.558662 
L 191.917007 158.594904 
L 233.551208 154.455703 
L 274.325839 152.05077 
L 304.844621 151.547414 
L 330.856061 152.744334 
L 351.99911 156.375993 
L 365.614756 163.451434 
L 368.974139 174.157046 
L 362.633649 186.973639 
L 347.781647 201.582497 
L 324.515534 216.899146 
L 294.113752 230.07404 
L 257.882417 237.763034 
L 226.302289 237.703419 
L 197.353566 232.202495 
L 165.061595 219.9227 
L 135.488461 202.309454 
L 115.147337 184.10199 
L 107.349639 171.492948 
L 107.520847 161.136256 
L 115.999884 153.729706 
L 136.024649 148.69268 
L 161.725386 147.17051 
L 192.909136 147.901623 
L 225.103979 150.181 
L 262.967411 154.334588 
L 299.472745 160.139913 
L 333.354102 168.463441 
L 354.598289 177.163141 
L 368.506898 187.532742 
L 375.242188 201.709648 
L 372.14396 216.544848 
L 361.721935 229.729856 
L 342.988407 241.408109 
L 316.633561 247.260004 
L 289.99942 244.870305 
L 262.116887 235.557772 
L 229.350026 217.790754 
L 194.898827 192.908172 
L 170.026738 171.065013 
L 150.712172 150.264765 
L 139.251718 131.764213 
L 138.096772 120.083553 
L 145.052948 112.168474 
L 162.186641 107.824143 
L 185.784316 107.9138 
L 213.133368 111.430927 
L 247.5372 119.328223 
L 278.011301 129.791392 
L 307.97459 145.197501 
L 332.352822 166.578763 
L 345.291526 191.709113 
L 347.242582 212.487894 
L 342.971745 231.853686 
L 332.914897 248.775629 
L 317.11477 259.296565 
L 302.654198 259.943 
L 287.191709 254.050678 
L 267.73523 239.757862 
L 244.479238 216.167188 
L 219.151962 185.623762 
L 219.151962 185.623762 
" clip-path="url(#p2ea62eede3)" style="fill: none; stroke: #1f77b4; stroke-width: 0.5; stroke-linecap: square"/>
   </g>
   <g id="patch_3">
    <path d="M 57.6 307.584 
L 57.6 41.472 
" style="fill: none; stroke: #000000; stroke-width: 0.8; stroke-linejoin: miter; stroke-linecap: square"/>
   </g>
   <g id="patch_4">
    <path d="M 414.72 307.584 
L 414.72 41.472 
" style="fill: none; stroke: #000000; stroke-width: 0.8; stroke-linejoin: miter; stroke-linecap: square"/>
   </g>
   <g id="patch_5">
    <path d="M 57.6 307.584 
L 414.72 307.584 
" style="fill: none; stroke: #000000; stroke-width: 0.8; stroke-linejoin: miter; stroke-linecap: square"/>
   </g>
   <g id="patch_6">
    <path d="M 57.6 41.472 
L 414.72 41.472 
" style="fill: none; stroke: #000000; stroke-width: 0.8; stroke-linejoin: miter; stroke-linecap: square"/>
   </g>
   <g id="text_13">
    <!-- Real Space Projection onto r-z plane with initial r = 0.20 -->
    <g transform="translate(68.580938 35.472) scale(0.12 -0.12)">
     <defs>
      <path id="DejaVuSans-52" d="M 2841 2188 
Q 3044 2119 3236 1894 
Q 3428 1669 3622 1275 
L 4263 0 
L 3584 0 
L 2988 1197 
Q 2756 1666 2539 1819 
Q 2322 1972 1947 1972 
L 1259 1972 
L 1259 0 
L 628 0 
L 628 4666 
L 2053 4666 
Q 2853 4666 3247 4331 
Q 3641 3997 3641 3322 
Q 3641 2881 3436 2590 
Q 3231 2300 2841 2188 
z
M 1259 4147 
L 1259 2491 
L 2053 2491 
Q 2509 2491 2742 2702 
Q 2975 2913 2975 3322 
Q 2975 3731 2742 3939 
Q 2509 4147 2053 4147 
L 1259 4147 
z
" transform="scale(0.015625)"/>
      <path id="DejaVuSans-65" d="M 3597 1894 
L 3597 1613 
L 953 1613 
Q 991 1019 1311 708 
Q 1631 397 2203 397 
Q 2534 397 2845 478 
Q 3156 559 3463 722 
L 3463 178 
Q 3153 47 2828 -22 
Q 2503 -91 2169 -91 
Q 1331 -91 842 396 
Q 353 884 353 1716 
Q 353 2575 817 3079 
Q 1281 3584 2069 3584 
Q 2775 3584 3186 3129 
Q 3597 2675 3597 1894 
z
M 3022 2063 
Q 3016 2534 2758 2815 
Q 2500 3097 2075 3097 
Q 1594 3097 1305 2825 
Q 1016 2553 972 2059 
L 3022 2063 
z
" transform="scale(0.015625)"/>
      <path id="DejaVuSans-61" d="M 2194 1759 
Q 1497 1759 1228 1600 
Q 959 1441 959 1056 
Q 959 750 1161 570 
Q 1363 391 1709 391 
Q 2188 391 2477 730 
Q 2766 1069 2766 1631 
L 2766 1759 
L 2194 1759 
z
M 3341 1997 
L 3341 0 
L 2766 0 
L 2766 531 
Q 2569 213 2275 61 
Q 1981 -91 1556 -91 
Q 1019 -91 701 211 
Q 384 513 384 1019 
Q 384 1609 779 1909 
Q 1175 2209 1959 2209 
L 2766 2209 
L 2766 2266 
Q 2766 2663 2505 2880 
Q 2244 3097 1772 3097 
Q 1472 3097 1187 3025 
Q 903 2953 641 2809 
L 641 3341 
Q 956 3463 1253 3523 
Q 1550 3584 1831 3584 
Q 2591 3584 2966 3190 
Q 3341 2797 3341 1997 
z
" transform="scale(0.015625)"/>
      <path id="DejaVuSans-6c" d="M 603 4863 
L 1178 4863 
L 1178 0 
L 603 0 
L 603 4863 
z
" transform="scale(0.015625)"/>
      <path id="DejaVuSans-20" transform="scale(0.015625)"/>
      <path id="DejaVuSans-53" d="M 3425 4513 
L 3425 3897 
Q 3066 4069 2747 4153 
Q 2428 4238 2131 4238 
Q 1616 4238 1336 4038 
Q 1056 3838 1056 3469 
Q 1056 3159 1242 3001 
Q 1428 2844 1947 2747 
L 2328 2669 
Q 3034 2534 3370 2195 
Q 3706 1856 3706 1288 
Q 3706 609 3251 259 
Q 2797 -91 1919 -91 
Q 1588 -91 1214 -16 
Q 841 59 441 206 
L 441 856 
Q 825 641 1194 531 
Q 1563 422 1919 422 
Q 2459 422 2753 634 
Q 3047 847 3047 1241 
Q 3047 1584 2836 1778 
Q 2625 1972 2144 2069 
L 1759 2144 
Q 1053 2284 737 2584 
Q 422 2884 422 3419 
Q 422 4038 858 4394 
Q 1294 4750 2059 4750 
Q 2388 4750 2728 4690 
Q 3069 4631 3425 4513 
z
" transform="scale(0.015625)"/>
      <path id="DejaVuSans-70" d="M 1159 525 
L 1159 -1331 
L 581 -1331 
L 581 3500 
L 1159 3500 
L 1159 2969 
Q 1341 3281 1617 3432 
Q 1894 3584 2278 3584 
Q 2916 3584 3314 3078 
Q 3713 2572 3713 1747 
Q 3713 922 3314 415 
Q 2916 -91 2278 -91 
Q 1894 -91 1617 61 
Q 1341 213 1159 525 
z
M 3116 1747 
Q 3116 2381 2855 2742 
Q 2594 3103 2138 3103 
Q 1681 3103 1420 2742 
Q 1159 2381 1159 1747 
Q 1159 1113 1420 752 
Q 1681 391 2138 391 
Q 2594 391 2855 752 
Q 3116 1113 3116 1747 
z
" transform="scale(0.015625)"/>
      <path id="DejaVuSans-63" d="M 3122 3366 
L 3122 2828 
Q 2878 2963 2633 3030 
Q 2388 3097 2138 3097 
Q 1578 3097 1268 2742 
Q 959 2388 959 1747 
Q 959 1106 1268 751 
Q 1578 397 2138 397 
Q 2388 397 2633 464 
Q 2878 531 3122 666 
L 3122 134 
Q 2881 22 2623 -34 
Q 2366 -91 2075 -91 
Q 1284 -91 818 406 
Q 353 903 353 1747 
Q 353 2603 823 3093 
Q 1294 3584 2113 3584 
Q 2378 3584 2631 3529 
Q 2884 3475 3122 3366 
z
" transform="scale(0.015625)"/>
      <path id="DejaVuSans-50" d="M 1259 4147 
L 1259 2394 
L 2053 2394 
Q 2494 2394 2734 2622 
Q 2975 2850 2975 3272 
Q 2975 3691 2734 3919 
Q 2494 4147 2053 4147 
L 1259 4147 
z
M 628 4666 
L 2053 4666 
Q 2838 4666 3239 4311 
Q 3641 3956 3641 3272 
Q 3641 2581 3239 2228 
Q 2838 1875 2053 1875 
L 1259 1875 
L 1259 0 
L 628 0 
L 628 4666 
z
" transform="scale(0.015625)"/>
      <path id="DejaVuSans-6f" d="M 1959 3097 
Q 1497 3097 1228 2736 
Q 959 2375 959 1747 
Q 959 1119 1226 758 
Q 1494 397 1959 397 
Q 2419 397 2687 759 
Q 2956 1122 2956 1747 
Q 2956 2369 2687 2733 
Q 2419 3097 1959 3097 
z
M 1959 3584 
Q 2709 3584 3137 3096 
Q 3566 2609 3566 1747 
Q 3566 888 3137 398 
Q 2709 -91 1959 -91 
Q 1206 -91 779 398 
Q 353 888 353 1747 
Q 353 2609 779 3096 
Q 1206 3584 1959 3584 
z
" transform="scale(0.015625)"/>
      <path id="DejaVuSans-6a" d="M 603 3500 
L 1178 3500 
L 1178 -63 
Q 1178 -731 923 -1031 
Q 669 -1331 103 -1331 
L -116 -1331 
L -116 -844 
L 38 -844 
Q 366 -844 484 -692 
Q 603 -541 603 -63 
L 603 3500 
z
M 603 4863 
L 1178 4863 
L 1178 4134 
L 603 4134 
L 603 4863 
z
" transform="scale(0.015625)"/>
      <path id="DejaVuSans-74" d="M 1172 4494 
L 1172 3500 
L 2356 3500 
L 2356 3053 
L 1172 3053 
L 1172 1153 
Q 1172 725 1289 603 
Q 1406 481 1766 481 
L 2356 481 
L 2356 0 
L 1766 0 
Q 1100 0 847 248 
Q 594 497 594 1153 
L 594 3053 
L 172 3053 
L 172 3500 
L 594 3500 
L 594 4494 
L 1172 4494 
z
" transform="scale(0.015625)"/>
      <path id="DejaVuSans-69" d="M 603 3500 
L 1178 3500 
L 1178 0 
L 603 0 
L 603 3500 
z
M 603 4863 
L 1178 4863 
L 1178 4134 
L 603 4134 
L 603 4863 
z
" transform="scale(0.015625)"/>
      <path id="DejaVuSans-6e" d="M 3513 2113 
L 3513 0 
L 2938 0 
L 2938 2094 
Q 2938 2591 2744 2837 
Q 2550 3084 2163 3084 
Q 1697 3084 1428 2787 
Q 1159 2491 1159 1978 
L 1159 0 
L 581 0 
L 581 3500 
L 1159 3500 
L 1159 2956 
Q 1366 3272 1645 3428 
Q 1925 3584 2291 3584 
Q 2894 3584 3203 3211 
Q 3513 2838 3513 2113 
z
" transform="scale(0.015625)"/>
      <path id="DejaVuSans-2d" d="M 313 2009 
L 1997 2009 
L 1997 1497 
L 313 1497 
L 313 2009 
z
" transform="scale(0.015625)"/>
      <path id="DejaVuSans-77" d="M 269 3500 
L 844 3500 
L 1563 769 
L 2278 3500 
L 2956 3500 
L 3675 769 
L 4391 3500 
L 4966 3500 
L 4050 0 
L 3372 0 
L 2619 2869 
L 1863 0 
L 1184 0 
L 269 3500 
z
" transform="scale(0.015625)"/>
      <path id="DejaVuSans-68" d="M 3513 2113 
L 3513 0 
L 2938 0 
L 2938 2094 
Q 2938 2591 2744 2837 
Q 2550 3084 2163 3084 
Q 1697 3084 1428 2787 
Q 1159 2491 1159 1978 
L 1159 0 
L 581 0 
L 581 4863 
L 1159 4863 
L 1159 2956 
Q 1366 3272 1645 3428 
Q 1925 3584 2291 3584 
Q 2894 3584 3203 3211 
Q 3513 2838 3513 2113 
z
" transform="scale(0.015625)"/>
      <path id="DejaVuSans-3d" d="M 678 2906 
L 4684 2906 
L 4684 2381 
L 678 2381 
L 678 2906 
z
M 678 1631 
L 4684 1631 
L 4684 1100 
L 678 1100 
L 678 1631 
z
" transform="scale(0.015625)"/>
     </defs>
     <use xlink:href="#DejaVuSans-52"/>
     <use xlink:href="#DejaVuSans-65" x="64.982422"/>
     <use xlink:href="#DejaVuSans-61" x="126.505859"/>
     <use xlink:href="#DejaVuSans-6c" x="187.785156"/>
     <use xlink:href="#DejaVuSans-20" x="215.568359"/>
     <use xlink:href="#DejaVuSans-53" x="247.355469"/>
     <use xlink:href="#DejaVuSans-70" x="310.832031"/>
     <use xlink:href="#DejaVuSans-61" x="374.308594"/>
     <use xlink:href="#DejaVuSans-63" x="435.587891"/>
     <use xlink:href="#DejaVuSans-65" x="490.568359"/>
     <use xlink:href="#DejaVuSans-20" x="552.091797"/>
     <use xlink:href="#DejaVuSans-50" x="583.878906"/>
     <use xlink:href="#DejaVuSans-72" x="642.431641"/>
     <use xlink:href="#DejaVuSans-6f" x="681.294922"/>
     <use xlink:href="#DejaVuSans-6a" x="742.476562"/>
     <use xlink:href="#DejaVuSans-65" x="770.259766"/>
     <use xlink:href="#DejaVuSans-63" x="831.783203"/>
     <use xlink:href="#DejaVuSans-74" x="886.763672"/>
     <use xlink:href="#DejaVuSans-69" x="925.972656"/>
     <use xlink:href="#DejaVuSans-6f" x="953.755859"/>
     <use xlink:href="#DejaVuSans-6e" x="1014.9375"/>
     <use xlink:href="#DejaVuSans-20" x="1078.316406"/>
     <use xlink:href="#DejaVuSans-6f" x="1110.103516"/>
     <use xlink:href="#DejaVuSans-6e" x="1171.285156"/>
     <use xlink:href="#DejaVuSans-74" x="1234.664062"/>
     <use xlink:href="#DejaVuSans-6f" x="1273.873047"/>
     <use xlink:href="#DejaVuSans-20" x="1335.054688"/>
     <use xlink:href="#DejaVuSans-72" x="1366.841797"/>
     <use xlink:href="#DejaVuSans-2d" x="1401.580078"/>
     <use xlink:href="#DejaVuSans-7a" x="1437.664062"/>
     <use xlink:href="#DejaVuSans-20" x="1490.154297"/>
     <use xlink:href="#DejaVuSans-70" x="1521.941406"/>
     <use xlink:href="#DejaVuSans-6c" x="1585.417969"/>
     <use xlink:href="#DejaVuSans-61" x="1613.201172"/>
     <use xlink:href="#DejaVuSans-6e" x="1674.480469"/>
     <use xlink:href="#DejaVuSans-65" x="1737.859375"/>
     <use xlink:href="#DejaVuSans-20" x="1799.382812"/>
     <use xlink:href="#DejaVuSans-77" x="1831.169922"/>
     <use xlink:href="#DejaVuSans-69" x="1912.957031"/>
     <use xlink:href="#DejaVuSans-74" x="1940.740234"/>
     <use xlink:href="#DejaVuSans-68" x="1979.949219"/>
     <use xlink:href="#DejaVuSans-20" x="2043.328125"/>
     <use xlink:href="#DejaVuSans-69" x="2075.115234"/>
     <use xlink:href="#DejaVuSans-6e" x="2102.898438"/>
     <use xlink:href="#DejaVuSans-69" x="2166.277344"/>
     <use xlink:href="#DejaVuSans-74" x="2194.060547"/>
     <use xlink:href="#DejaVuSans-69" x="2233.269531"/>
     <use xlink:href="#DejaVuSans-61" x="2261.052734"/>
     <use xlink:href="#DejaVuSans-6c" x="2322.332031"/>
     <use xlink:href="#DejaVuSans-20" x="2350.115234"/>
     <use xlink:href="#DejaVuSans-72" x="2381.902344"/>
     <use xlink:href="#DejaVuSans-20" x="2423.015625"/>
     <use xlink:href="#DejaVuSans-3d" x="2454.802734"/>
     <use xlink:href="#DejaVuSans-20" x="2538.591797"/>
     <use xlink:href="#DejaVuSans-30" x="2570.378906"/>
     <use xlink:href="#DejaVuSans-2e" x="2634.001953"/>
     <use xlink:href="#DejaVuSans-32" x="2665.789062"/>
     <use xlink:href="#DejaVuSans-30" x="2729.412109"/>
    </g>
   </g>
  </g>
 </g>
 <defs>
  <clipPath id="p2ea62eede3">
   <rect x="57.6" y="41.472" width="357.12" height="266.112"/>
  </clipPath>
 </defs>
</svg>
