<?xml version="1.0" encoding="utf-8" standalone="no"?>
<!DOCTYPE svg PUBLIC "-//W3C//DTD SVG 1.1//EN"
  "http://www.w3.org/Graphics/SVG/1.1/DTD/svg11.dtd">
<svg xmlns:xlink="http://www.w3.org/1999/xlink" width="460.8pt" height="345.6pt" viewBox="0 0 460.8 345.6" xmlns="http://www.w3.org/2000/svg" version="1.1">
 <metadata>
  <rdf:RDF xmlns:dc="http://purl.org/dc/elements/1.1/" xmlns:cc="http://creativecommons.org/ns#" xmlns:rdf="http://www.w3.org/1999/02/22-rdf-syntax-ns#">
   <cc:Work>
    <dc:type rdf:resource="http://purl.org/dc/dcmitype/StillImage"/>
    <dc:date>2023-10-23T13:51:38.075451</dc:date>
    <dc:format>image/svg+xml</dc:format>
    <dc:creator>
     <cc:Agent>
      <dc:title>Matplotlib v3.8.0, https://matplotlib.org/</dc:title>
     </cc:Agent>
    </dc:creator>
   </cc:Work>
  </rdf:RDF>
 </metadata>
 <defs>
  <style type="text/css">*{stroke-linejoin: round; stroke-linecap: butt}</style>
 </defs>
 <g id="figure_1">
  <g id="patch_1">
   <path d="M 0 345.6 
L 460.8 345.6 
L 460.8 0 
L 0 0 
z
" style="fill: #ffffff"/>
  </g>
  <g id="axes_1">
   <g id="patch_2">
    <path d="M 57.6 307.584 
L 414.72 307.584 
L 414.72 41.472 
L 57.6 41.472 
z
" style="fill: #ffffff"/>
   </g>
   <g id="matplotlib.axis_1">
    <g id="xtick_1">
     <g id="line2d_1">
      <defs>
       <path id="m2d0f08b9d3" d="M 0 0 
L 0 3.5 
" style="stroke: #000000; stroke-width: 0.8"/>
      </defs>
      <g>
       <use xlink:href="#m2d0f08b9d3" x="93.312" y="307.584" style="stroke: #000000; stroke-width: 0.8"/>
      </g>
     </g>
     <g id="text_1">
      <!-- −0.4 -->
      <g transform="translate(81.170594 322.182437) scale(0.1 -0.1)">
       <defs>
        <path id="DejaVuSans-2212" d="M 678 2272 
L 4684 2272 
L 4684 1741 
L 678 1741 
L 678 2272 
z
" transform="scale(0.015625)"/>
        <path id="DejaVuSans-30" d="M 2034 4250 
Q 1547 4250 1301 3770 
Q 1056 3291 1056 2328 
Q 1056 1369 1301 889 
Q 1547 409 2034 409 
Q 2525 409 2770 889 
Q 3016 1369 3016 2328 
Q 3016 3291 2770 3770 
Q 2525 4250 2034 4250 
z
M 2034 4750 
Q 2819 4750 3233 4129 
Q 3647 3509 3647 2328 
Q 3647 1150 3233 529 
Q 2819 -91 2034 -91 
Q 1250 -91 836 529 
Q 422 1150 422 2328 
Q 422 3509 836 4129 
Q 1250 4750 2034 4750 
z
" transform="scale(0.015625)"/>
        <path id="DejaVuSans-2e" d="M 684 794 
L 1344 794 
L 1344 0 
L 684 0 
L 684 794 
z
" transform="scale(0.015625)"/>
        <path id="DejaVuSans-34" d="M 2419 4116 
L 825 1625 
L 2419 1625 
L 2419 4116 
z
M 2253 4666 
L 3047 4666 
L 3047 1625 
L 3713 1625 
L 3713 1100 
L 3047 1100 
L 3047 0 
L 2419 0 
L 2419 1100 
L 313 1100 
L 313 1709 
L 2253 4666 
z
" transform="scale(0.015625)"/>
       </defs>
       <use xlink:href="#DejaVuSans-2212"/>
       <use xlink:href="#DejaVuSans-30" x="83.789062"/>
       <use xlink:href="#DejaVuSans-2e" x="147.412109"/>
       <use xlink:href="#DejaVuSans-34" x="179.199219"/>
      </g>
     </g>
    </g>
    <g id="xtick_2">
     <g id="line2d_2">
      <g>
       <use xlink:href="#m2d0f08b9d3" x="164.736" y="307.584" style="stroke: #000000; stroke-width: 0.8"/>
      </g>
     </g>
     <g id="text_2">
      <!-- −0.2 -->
      <g transform="translate(152.594594 322.182437) scale(0.1 -0.1)">
       <defs>
        <path id="DejaVuSans-32" d="M 1228 531 
L 3431 531 
L 3431 0 
L 469 0 
L 469 531 
Q 828 903 1448 1529 
Q 2069 2156 2228 2338 
Q 2531 2678 2651 2914 
Q 2772 3150 2772 3378 
Q 2772 3750 2511 3984 
Q 2250 4219 1831 4219 
Q 1534 4219 1204 4116 
Q 875 4013 500 3803 
L 500 4441 
Q 881 4594 1212 4672 
Q 1544 4750 1819 4750 
Q 2544 4750 2975 4387 
Q 3406 4025 3406 3419 
Q 3406 3131 3298 2873 
Q 3191 2616 2906 2266 
Q 2828 2175 2409 1742 
Q 1991 1309 1228 531 
z
" transform="scale(0.015625)"/>
       </defs>
       <use xlink:href="#DejaVuSans-2212"/>
       <use xlink:href="#DejaVuSans-30" x="83.789062"/>
       <use xlink:href="#DejaVuSans-2e" x="147.412109"/>
       <use xlink:href="#DejaVuSans-32" x="179.199219"/>
      </g>
     </g>
    </g>
    <g id="xtick_3">
     <g id="line2d_3">
      <g>
       <use xlink:href="#m2d0f08b9d3" x="236.16" y="307.584" style="stroke: #000000; stroke-width: 0.8"/>
      </g>
     </g>
     <g id="text_3">
      <!-- 0.0 -->
      <g transform="translate(228.208438 322.182437) scale(0.1 -0.1)">
       <use xlink:href="#DejaVuSans-30"/>
       <use xlink:href="#DejaVuSans-2e" x="63.623047"/>
       <use xlink:href="#DejaVuSans-30" x="95.410156"/>
      </g>
     </g>
    </g>
    <g id="xtick_4">
     <g id="line2d_4">
      <g>
       <use xlink:href="#m2d0f08b9d3" x="307.584" y="307.584" style="stroke: #000000; stroke-width: 0.8"/>
      </g>
     </g>
     <g id="text_4">
      <!-- 0.2 -->
      <g transform="translate(299.632437 322.182437) scale(0.1 -0.1)">
       <use xlink:href="#DejaVuSans-30"/>
       <use xlink:href="#DejaVuSans-2e" x="63.623047"/>
       <use xlink:href="#DejaVuSans-32" x="95.410156"/>
      </g>
     </g>
    </g>
    <g id="xtick_5">
     <g id="line2d_5">
      <g>
       <use xlink:href="#m2d0f08b9d3" x="379.008" y="307.584" style="stroke: #000000; stroke-width: 0.8"/>
      </g>
     </g>
     <g id="text_5">
      <!-- 0.4 -->
      <g transform="translate(371.056437 322.182437) scale(0.1 -0.1)">
       <use xlink:href="#DejaVuSans-30"/>
       <use xlink:href="#DejaVuSans-2e" x="63.623047"/>
       <use xlink:href="#DejaVuSans-34" x="95.410156"/>
      </g>
     </g>
    </g>
    <g id="text_6">
     <!-- r -->
     <g transform="translate(234.104531 335.860562) scale(0.1 -0.1)">
      <defs>
       <path id="DejaVuSans-72" d="M 2631 2963 
Q 2534 3019 2420 3045 
Q 2306 3072 2169 3072 
Q 1681 3072 1420 2755 
Q 1159 2438 1159 1844 
L 1159 0 
L 581 0 
L 581 3500 
L 1159 3500 
L 1159 2956 
Q 1341 3275 1631 3429 
Q 1922 3584 2338 3584 
Q 2397 3584 2469 3576 
Q 2541 3569 2628 3553 
L 2631 2963 
z
" transform="scale(0.015625)"/>
      </defs>
      <use xlink:href="#DejaVuSans-72"/>
     </g>
    </g>
   </g>
   <g id="matplotlib.axis_2">
    <g id="ytick_1">
     <g id="line2d_6">
      <defs>
       <path id="m9cd314582e" d="M 0 0 
L -3.5 0 
" style="stroke: #000000; stroke-width: 0.8"/>
      </defs>
      <g>
       <use xlink:href="#m9cd314582e" x="57.6" y="280.9728" style="stroke: #000000; stroke-width: 0.8"/>
      </g>
     </g>
     <g id="text_7">
      <!-- −0.4 -->
      <g transform="translate(26.317187 284.772019) scale(0.1 -0.1)">
       <use xlink:href="#DejaVuSans-2212"/>
       <use xlink:href="#DejaVuSans-30" x="83.789062"/>
       <use xlink:href="#DejaVuSans-2e" x="147.412109"/>
       <use xlink:href="#DejaVuSans-34" x="179.199219"/>
      </g>
     </g>
    </g>
    <g id="ytick_2">
     <g id="line2d_7">
      <g>
       <use xlink:href="#m9cd314582e" x="57.6" y="227.7504" style="stroke: #000000; stroke-width: 0.8"/>
      </g>
     </g>
     <g id="text_8">
      <!-- −0.2 -->
      <g transform="translate(26.317187 231.549619) scale(0.1 -0.1)">
       <use xlink:href="#DejaVuSans-2212"/>
       <use xlink:href="#DejaVuSans-30" x="83.789062"/>
       <use xlink:href="#DejaVuSans-2e" x="147.412109"/>
       <use xlink:href="#DejaVuSans-32" x="179.199219"/>
      </g>
     </g>
    </g>
    <g id="ytick_3">
     <g id="line2d_8">
      <g>
       <use xlink:href="#m9cd314582e" x="57.6" y="174.528" style="stroke: #000000; stroke-width: 0.8"/>
      </g>
     </g>
     <g id="text_9">
      <!-- 0.0 -->
      <g transform="translate(34.696875 178.327219) scale(0.1 -0.1)">
       <use xlink:href="#DejaVuSans-30"/>
       <use xlink:href="#DejaVuSans-2e" x="63.623047"/>
       <use xlink:href="#DejaVuSans-30" x="95.410156"/>
      </g>
     </g>
    </g>
    <g id="ytick_4">
     <g id="line2d_9">
      <g>
       <use xlink:href="#m9cd314582e" x="57.6" y="121.3056" style="stroke: #000000; stroke-width: 0.8"/>
      </g>
     </g>
     <g id="text_10">
      <!-- 0.2 -->
      <g transform="translate(34.696875 125.104819) scale(0.1 -0.1)">
       <use xlink:href="#DejaVuSans-30"/>
       <use xlink:href="#DejaVuSans-2e" x="63.623047"/>
       <use xlink:href="#DejaVuSans-32" x="95.410156"/>
      </g>
     </g>
    </g>
    <g id="ytick_5">
     <g id="line2d_10">
      <g>
       <use xlink:href="#m9cd314582e" x="57.6" y="68.0832" style="stroke: #000000; stroke-width: 0.8"/>
      </g>
     </g>
     <g id="text_11">
      <!-- 0.4 -->
      <g transform="translate(34.696875 71.882419) scale(0.1 -0.1)">
       <use xlink:href="#DejaVuSans-30"/>
       <use xlink:href="#DejaVuSans-2e" x="63.623047"/>
       <use xlink:href="#DejaVuSans-34" x="95.410156"/>
      </g>
     </g>
    </g>
    <g id="text_12">
     <!-- z -->
     <g transform="translate(20.2375 177.152219) rotate(-90) scale(0.1 -0.1)">
      <defs>
       <path id="DejaVuSans-7a" d="M 353 3500 
L 3084 3500 
L 3084 2975 
L 922 459 
L 3084 459 
L 3084 0 
L 275 0 
L 275 525 
L 2438 3041 
L 353 3041 
L 353 3500 
z
" transform="scale(0.015625)"/>
      </defs>
      <use xlink:href="#DejaVuSans-7a"/>
     </g>
    </g>
   </g>
   <g id="line2d_11">
    <path d="M 236.16 150.8736 
L 243.02816 152.484451 
L 272.50041 160.08439 
L 310.063862 171.993021 
L 341.836363 185.844945 
L 362.76661 199.924544 
L 375.30267 216.311355 
L 377.233977 229.854057 
L 371.945651 241.16026 
L 358.827048 249.144559 
L 342.233788 250.330661 
L 322.065203 245.32869 
L 296.755202 233.181093 
L 265.06011 212.75858 
L 228.584754 185.539282 
L 200.096997 162.582843 
L 176.156366 141.86826 
L 156.22625 121.945143 
L 146.993044 107.245598 
L 149.017475 100.16589 
L 159.095169 97.496837 
L 178.648432 99.175121 
L 205.256774 105.465069 
L 238.272332 116.943138 
L 269.027118 131.40499 
L 297.449156 149.706215 
L 323.223764 174.901701 
L 339.398247 204.430992 
L 343.867746 227.74472 
L 341.834426 247.056309 
L 334.726887 259.646976 
L 325.578864 262.882908 
L 314.180406 258.453923 
L 300.532364 246.616524 
L 282.549838 225.924628 
L 234.495362 165.128846 
L 211.27668 136.322709 
L 192.195487 112.047474 
L 178.880419 92.195416 
L 174.420854 79.996232 
L 177.344776 72.66874 
L 186.63722 70.277891 
L 203.343821 72.59161 
L 225.729774 80.480197 
L 245.46999 90.932573 
L 263.50305 104.010767 
L 282.803886 124.225513 
L 298.928488 152.998659 
L 306.474984 182.922516 
L 307.568102 208.797884 
L 304.671157 232.519691 
L 298.095316 253.340307 
L 288.274616 266.148863 
L 279.621495 267.490941 
L 270.204572 261.389965 
L 258.781946 246.410385 
L 245.070461 221.530255 
L 229.867752 189.126902 
L 215.783633 156.044115 
L 205.016594 127.380295 
L 197.535933 100.496829 
L 195.75491 82.797246 
L 198.356489 69.231438 
L 205.359 59.914564 
L 217.489875 54.732568 
L 233.218844 55.131302 
L 246.539396 59.826837 
L 258.415633 68.131153 
L 269.515059 82.648059 
L 276.751817 104.803145 
L 278.144553 127.285974 
L 275.711871 152.479929 
L 269.83633 180.583685 
L 260.818649 210.527611 
L 249.791166 237.903637 
L 237.396489 258.865467 
L 224.722484 268.428503 
L 214.935448 266.445232 
L 205.92221 256.736008 
L 196.374545 237.17453 
L 188.085223 208.751914 
L 183.383092 175.900584 
L 184.079249 145.009658 
L 189.955996 119.646105 
L 202.395698 96.011776 
L 221.257327 76.954689 
L 238.005546 66.89682 
L 254.515483 61.122129 
L 268.743748 59.736005 
L 279.765107 63.401475 
L 284.475869 73.190621 
L 282.265471 87.337434 
L 275.366408 104.266173 
L 262.996071 127.819435 
L 246.385292 156.806055 
L 228.288442 187.906143 
L 212.36244 215.022088 
L 195.573766 241.652326 
L 180.617169 259.914625 
L 169.778871 266.118315 
L 160.656538 263.25019 
L 154.130983 253.276195 
L 149.524218 235.354152 
L 148.902409 211.466428 
L 154.067676 184.809965 
L 167.230165 156.758482 
L 187.642602 132.201866 
L 220.546538 107.704143 
L 245.288967 95.153106 
L 268.325786 86.608657 
L 289.63963 81.713836 
L 304.769136 82.11409 
L 309.837708 88.091091 
L 306.002893 98.744513 
L 295.151284 113.192817 
L 276.130978 133.884331 
L 250.85901 159.593708 
L 202.706 207.910801 
L 177.012882 232.404778 
L 153.944513 250.536725 
L 137.712674 257.877533 
L 126.93533 257.812649 
L 119.161961 253.030461 
L 113.32539 242.117462 
L 112.405214 225.728647 
L 118.540836 206.433787 
L 135.812671 183.574954 
L 164.11311 162.228085 
L 202.202658 143.371043 
L 239.479979 130.003035 
L 276.299142 120.104645 
L 306.711714 114.688995 
L 326.650507 113.902808 
L 337.741682 117.397499 
L 339.363468 124.69191 
L 332.711237 135.619454 
L 316.725762 151.424506 
L 290.966747 171.862313 
L 259.990018 193.174274 
L 228.349736 212.097481 
L 193.807257 228.852789 
L 157.992326 240.131547 
L 133.419377 242.700217 
L 112.945261 240.137447 
L 97.759609 233.637464 
L 87.886113 223.044854 
L 88.456842 210.156961 
L 100.710182 198.791836 
L 124.541032 188.57108 
L 158.597788 179.542792 
L 199.168706 171.521812 
L 239.509401 164.74271 
L 282.890557 158.322869 
L 319.593225 154.00932 
L 344.061803 152.625688 
L 360.658139 154.006868 
L 368.255486 158.424649 
L 366.64243 166.535414 
L 356.403934 176.917701 
L 337.448137 189.873394 
L 311.115731 203.669959 
L 277.598553 216.811453 
L 238.359829 226.510321 
L 195.518848 229.755284 
L 159.295063 226.008652 
L 129.229245 217.820172 
L 104.282922 206.271767 
L 90.341383 194.920336 
L 88.459195 187.285261 
L 95.809173 181.86281 
L 112.732881 178.686779 
L 133.076257 177.580905 
L 154.181795 177.385252 
L 178.038945 177.58031 
L 230.649844 178.220775 
L 283.855563 178.494969 
L 306.252465 178.598685 
L 327.879768 178.903544 
L 349.078934 179.769648 
L 366.902092 181.676337 
L 379.517502 185.204409 
L 385.115835 190.990267 
L 381.979637 198.994855 
L 370.605937 208.106421 
L 350.299377 217.969061 
L 321.890925 226.279524 
L 285.776296 230.430399 
L 243.094307 227.403605 
L 203.588201 217.704107 
L 164.354314 201.978967 
L 135.92633 186.447584 
L 118.101231 173.793083 
L 107.803349 163.007369 
L 106.373276 154.988531 
L 114.312221 150.471188 
L 132.512561 149.248028 
L 156.449249 150.895433 
L 186.603212 154.666066 
L 224.59534 160.610495 
L 266.037788 168.099507 
L 305.067151 176.401122 
L 336.821024 185.00517 
L 361.266284 194.482177 
L 378.040983 205.76182 
L 384.487069 217.942509 
L 381.305366 229.076164 
L 370.710257 238.001478 
L 351.244502 243.811472 
L 326.878721 243.202894 
L 299.810108 236.262735 
L 266.236295 221.534059 
L 227.369289 198.903555 
L 194.964916 176.769162 
L 166.623523 154.86028 
L 146.694656 136.519 
L 136.192987 121.565779 
L 137.399639 113.832346 
L 146.984447 110.395679 
L 166.725801 110.997242 
L 192.040782 115.439033 
L 226.358572 124.596966 
L 262.273776 137.465762 
L 293.432414 152.248531 
L 324.068037 172.882144 
L 345.641102 196.834799 
L 355.922574 221.733279 
L 356.385544 239.16933 
L 351.425115 252.227439 
L 340.026314 259.435251 
L 327.703553 257.418761 
L 313.320493 248.90876 
L 293.890714 232.058244 
L 269.142479 206.970521 
L 214.717676 149.72347 
L 192.196753 125.709205 
L 174.344026 104.694847 
L 165.572234 89.446119 
L 166.343349 82.101033 
L 173.417053 78.935302 
L 188.7454 79.84926 
L 210.786612 85.804207 
L 237.928423 97.391308 
L 262.593961 112.230801 
L 285.027388 131.304422 
L 305.346288 158.536826 
L 316.823155 188.04665 
L 320.345082 216.967784 
L 318.09483 240.421502 
L 311.904561 257.889454 
L 302.111463 266.458204 
L 292.679745 264.297935 
L 282.332686 254.720575 
L 268.899189 235.684263 
L 252.490834 207.736217 
L 233.988001 174.324434 
L 216.528194 142.19109 
L 202.416743 114.617025 
L 192.773084 91.241538 
L 189.834743 76.133232 
L 192.326612 65.562435 
L 199.730364 59.790399 
L 212.972923 58.347555 
L 230.460683 62.46301 
L 245.570591 70.019217 
L 259.127037 80.676053 
L 272.801531 98.063917 
L 283.006864 123.6807 
L 286.487718 151.141602 
L 284.896415 180.70478 
L 279.952771 207.531951 
L 271.774017 234.354422 
L 261.057944 256.281 
L 248.938642 267.839927 
L 239.306106 267.682679 
L 230.301137 260.41066 
L 219.624058 243.49624 
L 208.499533 216.590823 
L 198.957324 183.501192 
L 193.322246 150.739881 
L 192.459469 125.576145 
L 195.663764 103.468632 
L 203.817747 83.881718 
L 217.540851 68.105934 
L 232.71925 59.099695 
L 246.45004 55.397145 
L 258.643618 55.545235 
L 269.699677 60.290197 
L 276.63755 71.21007 
L 277.66844 84.29202 
L 274.756701 100.895803 
L 267.713666 122.704007 
L 256.226518 150.855301 
L 241.731498 182.891313 
L 227.093832 213.179958 
L 212.647185 239.95907 
L 198.580574 259.727165 
L 187.544537 267.274679 
L 178.861596 265.67181 
L 171.595207 257.035772 
L 165.105498 239.645313 
L 161.483574 214.751892 
L 162.891465 185.450027 
L 171.185888 155.674495 
L 186.092706 129.793521 
L 211.353019 104.452015 
L 235.25867 89.02607 
L 259.253095 78.429987 
L 278.458761 73.278129 
L 293.485043 72.984189 
L 300.104688 78.357625 
L 298.807777 87.378529 
L 291.834857 99.782434 
L 277.627076 118.595335 
L 256.959356 143.365798 
L 233.048931 171.713808 
L 188.113269 225.794715 
L 167.484038 248.021886 
L 150.613212 260.260978 
L 140.517431 261.943323 
L 132.574085 257.434773 
L 126.897936 246.565567 
L 124.943673 229.390049 
L 128.655154 208.550363 
L 141.533209 183.161369 
L 164.281577 158.949316 
L 195.954627 137.587758 
L 231.68514 120.846578 
L 263.452061 109.898786 
L 291.30326 103.085867 
L 314.388533 100.666892 
L 326.613071 103.87042 
L 328.140764 110.889606 
L 321.920605 121.651448 
L 306.926272 137.563193 
L 282.566261 158.892082 
L 251.943995 183.118867 
L 222.351571 204.723917 
L 192.102076 224.453964 
L 159.895483 240.983799 
L 135.380533 248.161431 
L 119.364515 248.673524 
L 106.56047 245.110623 
L 96.499362 236.876375 
L 92.600605 224.113817 
L 99.125265 208.291386 
L 118.481595 192.413351 
L 150.145057 177.861982 
L 192.706388 164.61157 
L 238.925375 153.593029 
L 282.567014 145.247874 
L 317.984369 140.373265 
L 340.429576 139.31409 
L 354.588261 141.577336 
L 359.567495 147.730142 
L 354.549679 157.716425 
L 340.261287 170.88339 
L 316.562163 187.05536 
L 288.918646 202.270212 
L 254.376471 217.188877 
L 215.183259 228.529703 
L 178.275711 233.020095 
L 148.408345 231.542025 
L 123.128262 226.020895 
L 100.632118 216.452252 
L 87.235684 205.295162 
L 85.736715 196.969996 
L 93.644042 190.37273 
L 111.550155 185.555721 
L 137.613123 182.447477 
L 168.319633 180.375414 
L 275.054685 174.747924 
L 300.781104 173.368185 
L 323.387944 172.375064 
L 344.128133 171.987877 
L 360.478262 172.587578 
L 372.370445 174.454548 
L 379.204351 177.762724 
L 380.570164 183.575235 
L 374.17416 191.792641 
L 358.745769 202.268318 
L 334.538363 213.404236 
L 302.677997 222.936972 
L 263.887984 228.241053 
L 225.757358 227.130164 
L 189.726191 220.49952 
L 152.656015 208.046236 
L 122.342642 192.926263 
L 105.677693 181.082035 
L 98.664803 172.595883 
L 99.156341 166.316909 
L 107.666172 162.516115 
L 123.836763 161.254455 
L 146.73641 162.124032 
L 173.691234 164.431197 
L 208.143859 168.107232 
L 246.854885 172.597887 
L 286.303798 177.477738 
L 320.30637 182.311156 
L 348.858719 187.679736 
L 370.656014 194.191243 
L 383.93366 202.288619 
L 387.445331 211.750066 
L 382.064423 221.119732 
L 368.794184 229.897719 
L 346.979386 236.573582 
L 316.42422 238.106328 
L 280.557571 231.934836 
L 242.429425 218.310336 
L 201.261943 197.362617 
L 170.306015 177.872399 
L 145.123761 158.901595 
L 129.886518 143.940954 
L 124.330018 131.870669 
L 130.709195 125.562083 
L 147.260154 123.963979 
L 171.473833 126.296232 
L 202.868485 132.127139 
L 241.299005 141.801951 
L 278.152883 153.675702 
L 313.36951 168.65296 
L 342.665852 186.814334 
L 360.496466 205.299602 
L 368.694434 225.135546 
L 367.093983 240.943698 
L 359.099579 251.205502 
L 345.843384 255.136457 
L 328.500525 251.374676 
L 308.747563 240.768777 
L 283.122254 221.888643 
L 251.824047 195.419253 
L 224.026927 170.726681 
L 197.626165 146.583329 
L 174.60348 124.111846 
L 159.287414 105.789775 
L 155.226786 95.327429 
L 159.881404 89.588815 
L 172.709629 88.57004 
L 193.459361 92.212162 
L 221.700253 101.205399 
L 247.347325 112.4987 
L 271.4616 126.412161 
L 297.229673 147.011591 
L 319.257774 175.252736 
L 330.408399 203.37528 
L 333.218532 229.657032 
L 330.162415 249.21107 
L 322.477606 262.222682 
L 313.853344 264.786829 
L 303.505587 259.761286 
L 290.904804 246.899914 
L 274.54676 224.877052 
L 234.304148 165.395929 
L 214.481561 136.482024 
L 197.596691 111.114449 
L 185.735144 90.033976 
L 181.711789 76.68692 
L 184.27018 68.136586 
L 192.500149 64.554993 
L 207.473978 65.513279 
L 227.333276 71.972116 
L 244.767538 81.277223 
L 260.430178 93.165756 
L 277.200197 112.108767 
L 290.905177 139.515053 
L 297.094577 169.812228 
L 297.378604 194.966764 
L 294.357854 218.836555 
L 287.746729 243.041435 
L 278.03876 261.452177 
L 267.936841 268.318114 
L 257.074745 264.835699 
L 246.65051 252.944418 
L 234.402113 230.879933 
L 221.257917 199.982663 
L 209.488586 166.183822 
L 201.264482 135.62372 
L 197.103736 107.218348 
L 197.926986 88.195898 
L 202.507167 73.604092 
L 212.021107 61.620011 
L 226.107959 54.506618 
L 238.640638 53.166427 
L 250.876478 55.623328 
L 262.120483 62.396662 
L 271.15271 75.329299 
L 275.218823 95.202313 
L 274.116964 115.604967 
L 269.703622 138.39801 
L 261.308202 167.600959 
L 249.778531 199.790565 
L 237.624151 228.263286 
L 224.507455 252.24192 
L 211.569181 266.208887 
L 202.167912 268.159405 
L 193.453437 262.28425 
L 185.060965 247.888714 
L 177.807714 224.274253 
L 173.870671 194.133533 
L 174.970488 165.695057 
L 181.349485 138.98679 
L 195.256647 112.41573 
L 216.954363 89.733552 
L 236.794801 76.8042 
L 256.534597 68.468279 
L 272.905049 64.990105 
L 285.671211 66.436588 
L 291.209907 73.811964 
L 289.513301 84.519538 
L 282.727056 98.718704 
L 269.646868 119.470082 
L 192.274516 231.472601 
L 174.924198 253.056468 
L 160.687973 263.772543 
L 152.093272 264.044168 
L 145.464363 258.472693 
L 140.075753 245.578506 
L 138.073878 226.011316 
L 141.28485 202.637331 
L 152.75882 175.033287 
L 172.638187 149.600334 
L 203.550964 125.27154 
L 234.502238 108.761381 
L 265.629629 96.882289 
L 290.111005 90.704668 
L 308.995755 89.45141 
L 317.379332 93.885442 
L 316.342293 102.10732 
L 308.559936 113.63184 
L 292.016555 131.352551 
L 267.326198 154.595951 
L 238.032928 180.794544 
L 209.951597 205.08142 
L 181.506961 228.028517 
L 154.359014 246.000239 
L 134.578572 253.810702 
L 121.902243 254.404338 
L 111.990903 250.430466 
L 104.619934 241.123676 
L 102.564618 226.606229 
L 108.855333 208.727858 
L 127.258875 188.539771 
L 157.798665 169.623943 
L 199.714947 152.483087 
L 239.90806 140.348334 
L 279.596894 131.136204 
L 312.417691 125.977183 
L 333.329573 125.157986 
L 345.701871 128.159205 
L 348.569294 135.782542 
L 341.690195 146.877553 
L 325.303998 162.132138 
L 299.228717 181.135569 
L 270.800726 198.593739 
L 237.17793 215.738828 
L 199.933276 229.799983 
L 161.491196 237.390085 
L 136.766017 237.478166 
L 116.643598 233.910747 
L 97.933096 226.142974 
L 86.281864 215.267035 
L 85.587931 205.568122 
L 94.565555 197.078101 
L 114.316406 189.703267 
L 143.476657 183.706328 
L 179.037332 178.622359 
L 217.846344 173.94724 
L 257.72284 169.451582 
L 295.870488 165.451245 
L 328.454303 162.759977 
L 350.181708 162.108434 
L 365.484762 163.453189 
L 373.794598 167.333218 
L 373.70703 174.38834 
L 365.614225 183.241408 
L 348.460495 194.870405 
L 322.780648 207.550159 
L 289.801457 219.080419 
L 250.575763 226.851827 
L 213.407025 228.294772 
L 177.639204 224.102342 
L 143.833195 214.85843 
L 114.953996 202.057022 
L 97.159883 189.700529 
L 91.810143 180.434058 
L 97.108987 174.764716 
L 111.09541 171.955941 
L 128.980038 171.319361 
L 151.593409 171.872363 
L 176.985181 173.14081 
L 268.96778 178.455448 
L 305.930368 180.579873 
L 336.134848 182.842235 
L 359.863163 185.828715 
L 376.87992 190.177757 
L 386.033623 196.44071 
L 386.097364 204.600523 
L 378.496845 212.85976 
L 362.155336 222.067365 
L 337.486777 229.787265 
L 304.653993 233.410148 
L 264.008157 229.756201 
L 224.416576 218.954721 
L 183.579843 201.405572 
L 152.804319 183.97707 
L 132.98868 170.115811 
L 119.462509 157.80506 
L 113.541936 147.110669 
L 118.597914 140.478108 
L 133.915474 138.227459 
L 157.493977 139.590256 
L 186.298278 143.597077 
L 223.823896 150.618387 
L 264.765232 160.003371 
L 302.017278 170.524101 
L 332.980668 181.921625 
L 356.005197 193.956536 
L 372.930085 208.923315 
L 379.065978 224.139754 
L 375.71619 236.744191 
L 365.164554 245.750737 
L 345.495483 249.414902 
L 321.179253 244.439226 
L 294.511713 232.336092 
L 261.741279 212.076049 
L 224.442318 185.077706 
L 196.027271 162.644511 
L 172.372777 142.391153 
L 153.04905 122.952556 
L 144.750551 108.76994 
L 148.667493 101.536258 
L 161.507909 99.764279 
L 183.125332 102.505781 
L 212.306989 109.992547 
L 242.664648 120.847054 
L 272.299482 134.777471 
L 301.446969 153.485104 
L 327.1117 178.775293 
L 342.483579 207.514843 
L 346.416708 232.258167 
L 343.3146 249.920834 
L 334.824708 260.795993 
L 325.639642 262.022484 
L 314.517542 256.803866 
L 299.915828 243.916907 
L 280.755521 222.228498 
L 233.787223 164.869315 
L 210.920508 137.46154 
L 191.310216 113.37759 
L 177.467702 93.578232 
L 172.692369 81.366476 
L 175.561517 74.093161 
L 184.947337 71.819023 
L 201.898202 74.243746 
L 224.744261 82.228744 
L 244.858183 92.664617 
L 263.702024 105.974309 
L 283.618549 126.160328 
L 300.468465 154.861932 
L 308.559428 184.519523 
L 310.023233 210.662076 
L 307.251956 234.426396 
L 300.776323 254.546065 
L 290.986026 266.422018 
L 282.34334 267.020269 
L 273.179035 260.594151 
L 261.522334 245.112794 
L 247.442577 219.844514 
L 231.701102 187.307425 
L 216.728283 153.812649 
L 205.167434 125.035179 
L 197.093404 98.718756 
L 194.899137 81.255525 
L 197.352867 68.095841 
L 204.247764 59.520911 
L 216.380009 55.066342 
L 232.310761 56.165646 
L 245.833253 61.360469 
L 257.922775 69.997169 
L 269.53705 84.891977 
L 277.502448 107.52512 
L 279.462445 131.24102 
L 277.257268 157.71427 
L 271.661291 185.686371 
L 263.243727 214.204372 
L 252.400576 240.976836 
L 240.121467 260.742084 
L 228.968377 268.465682 
L 219.165994 266.444767 
L 209.996485 256.673061 
L 200.136379 236.972003 
L 191.315964 208.306496 
L 185.859217 175.244528 
L 185.339337 148.113889 
L 189.215997 123.279866 
L 198.970351 99.588558 
L 215.196613 79.664266 
L 232.644714 67.429678 
L 248.354767 61.001103 
L 262.25019 58.629902 
L 274.631088 60.657899 
L 281.978284 68.565613 
L 282.799669 78.951406 
L 279.364982 92.793888 
L 271.10636 112.219485 
L 257.720021 138.113073 
L 240.935002 168.571562 
L 223.621045 199.518856 
L 207.589179 227.230205 
L 191.755906 251.071918 
L 178.046814 264.454765 
L 169.086951 266.346991 
L 161.490909 261.058689 
L 155.216514 248.216062 
L 151.435179 227.667553 
L 152.181997 201.970609 
L 159.747787 173.066787 
L 174.817106 146.169172 
L 199.840174 120.305302 
L 228.495451 101.258094 
L 253.050564 89.760048 
L 274.614651 82.622692 
L 294.004468 79.375265 
L 305.745844 81.837105 
L 307.775838 88.463105 
L 302.922192 99.100783 
L 290.938966 114.650349 
L 271.077974 136.413141 
L 219.182156 190.442597 
L 195.734522 214.6912 
L 171.115819 238.488506 
L 149.960378 254.309154 
L 135.975116 259.215763 
L 125.030367 256.763494 
L 118.082352 248.703548 
L 114.585967 234.42753 
L 117.041428 215.765897 
L 128.706954 193.090448 
L 151.57444 170.234482 
L 183.965323 150.050615 
L 224.386487 132.694147 
L 258.843791 121.745242 
L 289.207155 114.588103 
L 316.301416 111.095563 
L 332.820826 112.961298 
L 337.488136 119.791237 
L 332.06511 130.860885 
L 317.816107 145.85677 
L 293.633515 165.933886 
L 266.10764 185.908082 
L 237.42106 204.515768 
L 204.054488 223.044671 
L 168.510106 237.613936 
L 140.592417 243.475638 
L 120.987107 243.275237 
L 105.921898 239.453989 
L 93.025632 231.164568 
L 87.455733 219.183292 
L 93.739593 205.664265 
L 112.116017 193.768873 
L 141.82152 183.218675 
L 180.708986 173.782739 
L 222.723445 165.653355 
L 268.244906 158.089641 
L 306.535207 152.819556 
L 337.56773 150.20353 
L 355.475413 150.794525 
L 365.127742 154.174059 
L 366.415213 161.357824 
L 358.753643 171.091056 
L 341.420003 184.28878 
L 317.878206 197.890385 
L 286.623554 211.897665 
L 249.19367 223.582067 
L 207.366636 229.88776 
L 174.266303 229.380031 
L 145.655137 224.633766 
L 117.33313 215.28978 
L 96.476604 203.644847 
L 87.605223 193.159892 
L 90.890229 185.793409 
L 103.867792 181.443713 
L 125.726103 179.188484 
L 148.451838 178.483359 
L 170.986389 178.323594 
L 243.444431 178.258724 
L 319.869955 177.742597 
L 339.636064 178.02654 
L 358.013562 179.043161 
L 372.813746 181.308265 
L 382.242103 185.469704 
L 384.109019 192.131584 
L 377.559802 200.433612 
L 362.246054 210.285964 
L 338.359845 220.088013 
L 306.596779 227.542511 
L 267.369367 229.821178 
L 225.786094 224.738751 
L 186.136559 213.282782 
L 148.976179 196.823124 
L 124.86898 182.431056 
L 111.215731 171.523031 
L 104.562505 162.545042 
L 106.329536 155.667143 
L 117.474804 152.304821 
L 134.306795 151.931415 
L 156.758133 153.572441 
L 187.293801 157.263421 
L 225.301527 162.902455 
L 266.645962 169.873315 
L 301.999299 176.731679 
L 332.795607 184.090212 
L 358.35114 192.570046 
L 376.646523 202.733432 
L 384.991408 214.137245 
L 383.360894 225.218183 
L 374.418073 234.210624 
L 356.74918 241.281066 
L 330.007928 242.662307 
L 299.332889 236.271453 
L 264.995949 222.3968 
L 225.707799 200.657933 
L 192.673147 178.820599 
L 163.915056 157.032538 
L 144.416192 139.300651 
L 133.916183 124.503473 
L 135.095606 116.714869 
L 144.755972 113.20018 
L 164.658255 113.679756 
L 189.795344 117.859378 
L 224.241674 126.602021 
L 260.961895 139.075607 
L 292.576429 153.189368 
L 324.098722 172.932005 
L 346.591306 195.711123 
L 358.03065 219.889602 
L 359.142041 237.455413 
L 354.355018 250.829138 
L 342.906468 258.477027 
L 330.427563 257.048642 
L 315.987689 249.374471 
L 296.33162 233.528009 
L 271.202259 209.363798 
L 215.602147 152.963624 
L 192.527528 129.123739 
L 173.707857 107.82929 
L 163.917929 92.125923 
L 163.962556 84.538689 
L 170.10508 81.053504 
L 184.537916 81.346595 
L 205.523172 86.406506 
L 232.924609 97.167776 
L 259.269284 111.808795 
L 282.185584 129.583226 
L 303.939806 155.246478 
L 318.869072 188.830508 
L 322.887511 215.576548 
L 321.282681 239.273911 
L 315.687914 256.618999 
L 306.175736 265.937964 
L 296.987374 264.561867 
L 286.949784 256.108122 
L 273.682815 238.403721 
L 257.231316 211.632283 
L 238.255157 178.81948 
L 219.40236 145.908243 
L 204.23406 118.444874 
L 192.97661 94.599957 
L 188.46172 78.279189 
L 189.53259 67.982063 
L 195.18996 61.819744 
L 206.811647 59.349646 
L 223.731206 62.201787 
L 239.430473 68.837347 
L 254.746383 79.206419 
L 269.318541 94.676263 
L 281.688957 118.001937 
L 288.211156 149.520232 
L 288.224749 175.064511 
L 285.115328 199.454995 
L 278.596403 226.129605 
L 269.032309 250.096469 
L 257.476297 265.464837 
L 247.510336 268.638089 
L 237.35889 262.997582 
L 226.807537 248.552563 
L 215.310506 223.881806 
L 204.520341 191.648294 
L 197.497963 161.831849 
L 193.993242 133.385573 
L 194.715862 109.964339 
L 199.401316 90.798886 
L 209.373236 73.638697 
L 224.411907 61.15148 
L 237.997328 55.760645 
L 251.346879 54.427327 
L 263.160378 57.281622 
L 272.561327 65.65353 
L 276.722569 80.511757 
L 275.427328 97.136725 
L 270.484904 116.776834 
L 261.116399 143.197225 
L 248.105399 174.561275 
L 233.65576 206.42792 
L 219.763788 233.96725 
L 205.608151 256.203174 
L 192.862715 267.026465 
L 184.113946 266.688683 
L 176.824445 259.702374 
L 169.71499 243.965309 
L 164.863082 220.047285 
L 164.445898 190.861986 
L 169.602215 163.266337 
L 180.762646 137.491697 
L 201.580642 111.088783 
L 226.601733 91.721673 
L 247.540143 80.711906 
L 265.828556 74.044859 
L 283.426525 70.784233 
L 295.287463 72.959742 
L 298.422932 79.701182 
L 294.770844 90.839268 
L 285.017427 106.141978 
L 268.245524 127.859578 
L 246.318863 154.810002 
L 223.029426 183.714168 
L 202.343042 209.813721 
L 181.017918 235.876442 
L 162.388592 254.746147 
L 149.267689 262.193163 
L 140.2404 261.659447 
L 133.597399 255.602999 
L 128.742741 242.571756 
L 128.085844 223.684251 
L 133.219824 202.130456 
L 147.938616 176.131946 
L 171.834277 152.301416 
L 207.672073 129.573672 
L 239.883868 115.267728 
L 271.601782 104.880425 
L 298.136642 99.170635 
L 317.739491 98.552377 
L 325.74027 103.225835 
L 324.363885 111.778656 
L 315.67034 123.699248 
L 297.584085 141.648429 
L 270.922978 164.574072 
L 239.813743 189.288913 
L 211.147813 210.454738 
L 179.759297 230.870286 
L 149.646243 245.369245 
L 128.818921 250.118949 
L 113.82837 248.926405 
L 102.874691 243.500222 
L 95.499901 233.008064 
L 95.754263 218.366069 
L 107.771325 201.210617 
L 132.607978 184.809236 
L 169.55286 169.791245 
L 215.419553 156.502242 
L 254.562552 147.522228 
L 290.306762 140.889345 
L 323.466855 136.757735 
L 342.802257 136.545905 
L 354.013248 139.381952 
L 357.154079 146.464235 
L 350.552849 156.973817 
L 334.386299 171.18914 
L 309.258643 188.057627 
L 280.629352 203.721551 
L 245.439447 218.832281 
L 206.14454 229.982985 
L 170.958493 233.978793 
L 139.328246 231.804618 
L 115.333669 225.603632 
L 95.341702 215.631799 
L 85.392389 204.553531 
L 87.172115 196.355856 
L 98.458259 190.057309 
L 119.73783 185.362695 
L 148.365227 182.137485 
L 181.156155 179.675875 
L 312.353886 171.155574 
L 337.045364 170.148908 
L 356.624055 170.328271 
L 369.815083 171.905588 
L 377.967099 175.406675 
L 379.51907 180.833 
L 373.54214 189.006484 
L 358.555735 199.565561 
L 334.711327 211.056551 
L 303.221854 221.244518 
L 264.879048 227.573998 
L 228.240019 227.740627 
L 193.793352 222.759582 
L 157.077881 211.978331 
L 125.266389 197.527862 
L 106.426257 185.26963 
L 97.673685 175.934271 
L 97.550198 169.004168 
L 105.306702 165.17107 
L 123.04128 163.607265 
L 146.541623 164.394872 
L 173.199595 166.481714 
L 206.965581 169.750455 
L 244.619816 173.65394 
L 283.421137 177.853245 
L 318.702403 182.171185 
L 347.564231 186.855579 
L 369.595094 192.591009 
L 383.391597 199.912249 
L 387.674264 208.806054 
L 382.875281 218.068727 
L 370.20388 226.942977 
L 348.997019 234.271212 
L 319.296122 237.198576 
L 281.506529 232.475154 
L 243.217756 220.32128 
L 201.988738 200.776943 
L 201.988738 200.776943 
" clip-path="url(#pe70ac814b1)" style="fill: none; stroke: #1f77b4; stroke-width: 0.5; stroke-linecap: square"/>
   </g>
   <g id="patch_3">
    <path d="M 57.6 307.584 
L 57.6 41.472 
" style="fill: none; stroke: #000000; stroke-width: 0.8; stroke-linejoin: miter; stroke-linecap: square"/>
   </g>
   <g id="patch_4">
    <path d="M 414.72 307.584 
L 414.72 41.472 
" style="fill: none; stroke: #000000; stroke-width: 0.8; stroke-linejoin: miter; stroke-linecap: square"/>
   </g>
   <g id="patch_5">
    <path d="M 57.6 307.584 
L 414.72 307.584 
" style="fill: none; stroke: #000000; stroke-width: 0.8; stroke-linejoin: miter; stroke-linecap: square"/>
   </g>
   <g id="patch_6">
    <path d="M 57.6 41.472 
L 414.72 41.472 
" style="fill: none; stroke: #000000; stroke-width: 0.8; stroke-linejoin: miter; stroke-linecap: square"/>
   </g>
   <g id="text_13">
    <!-- Real Space Projection onto r-z plane with initial r = 0.09 -->
    <g transform="translate(68.580938 35.472) scale(0.12 -0.12)">
     <defs>
      <path id="DejaVuSans-52" d="M 2841 2188 
Q 3044 2119 3236 1894 
Q 3428 1669 3622 1275 
L 4263 0 
L 3584 0 
L 2988 1197 
Q 2756 1666 2539 1819 
Q 2322 1972 1947 1972 
L 1259 1972 
L 1259 0 
L 628 0 
L 628 4666 
L 2053 4666 
Q 2853 4666 3247 4331 
Q 3641 3997 3641 3322 
Q 3641 2881 3436 2590 
Q 3231 2300 2841 2188 
z
M 1259 4147 
L 1259 2491 
L 2053 2491 
Q 2509 2491 2742 2702 
Q 2975 2913 2975 3322 
Q 2975 3731 2742 3939 
Q 2509 4147 2053 4147 
L 1259 4147 
z
" transform="scale(0.015625)"/>
      <path id="DejaVuSans-65" d="M 3597 1894 
L 3597 1613 
L 953 1613 
Q 991 1019 1311 708 
Q 1631 397 2203 397 
Q 2534 397 2845 478 
Q 3156 559 3463 722 
L 3463 178 
Q 3153 47 2828 -22 
Q 2503 -91 2169 -91 
Q 1331 -91 842 396 
Q 353 884 353 1716 
Q 353 2575 817 3079 
Q 1281 3584 2069 3584 
Q 2775 3584 3186 3129 
Q 3597 2675 3597 1894 
z
M 3022 2063 
Q 3016 2534 2758 2815 
Q 2500 3097 2075 3097 
Q 1594 3097 1305 2825 
Q 1016 2553 972 2059 
L 3022 2063 
z
" transform="scale(0.015625)"/>
      <path id="DejaVuSans-61" d="M 2194 1759 
Q 1497 1759 1228 1600 
Q 959 1441 959 1056 
Q 959 750 1161 570 
Q 1363 391 1709 391 
Q 2188 391 2477 730 
Q 2766 1069 2766 1631 
L 2766 1759 
L 2194 1759 
z
M 3341 1997 
L 3341 0 
L 2766 0 
L 2766 531 
Q 2569 213 2275 61 
Q 1981 -91 1556 -91 
Q 1019 -91 701 211 
Q 384 513 384 1019 
Q 384 1609 779 1909 
Q 1175 2209 1959 2209 
L 2766 2209 
L 2766 2266 
Q 2766 2663 2505 2880 
Q 2244 3097 1772 3097 
Q 1472 3097 1187 3025 
Q 903 2953 641 2809 
L 641 3341 
Q 956 3463 1253 3523 
Q 1550 3584 1831 3584 
Q 2591 3584 2966 3190 
Q 3341 2797 3341 1997 
z
" transform="scale(0.015625)"/>
      <path id="DejaVuSans-6c" d="M 603 4863 
L 1178 4863 
L 1178 0 
L 603 0 
L 603 4863 
z
" transform="scale(0.015625)"/>
      <path id="DejaVuSans-20" transform="scale(0.015625)"/>
      <path id="DejaVuSans-53" d="M 3425 4513 
L 3425 3897 
Q 3066 4069 2747 4153 
Q 2428 4238 2131 4238 
Q 1616 4238 1336 4038 
Q 1056 3838 1056 3469 
Q 1056 3159 1242 3001 
Q 1428 2844 1947 2747 
L 2328 2669 
Q 3034 2534 3370 2195 
Q 3706 1856 3706 1288 
Q 3706 609 3251 259 
Q 2797 -91 1919 -91 
Q 1588 -91 1214 -16 
Q 841 59 441 206 
L 441 856 
Q 825 641 1194 531 
Q 1563 422 1919 422 
Q 2459 422 2753 634 
Q 3047 847 3047 1241 
Q 3047 1584 2836 1778 
Q 2625 1972 2144 2069 
L 1759 2144 
Q 1053 2284 737 2584 
Q 422 2884 422 3419 
Q 422 4038 858 4394 
Q 1294 4750 2059 4750 
Q 2388 4750 2728 4690 
Q 3069 4631 3425 4513 
z
" transform="scale(0.015625)"/>
      <path id="DejaVuSans-70" d="M 1159 525 
L 1159 -1331 
L 581 -1331 
L 581 3500 
L 1159 3500 
L 1159 2969 
Q 1341 3281 1617 3432 
Q 1894 3584 2278 3584 
Q 2916 3584 3314 3078 
Q 3713 2572 3713 1747 
Q 3713 922 3314 415 
Q 2916 -91 2278 -91 
Q 1894 -91 1617 61 
Q 1341 213 1159 525 
z
M 3116 1747 
Q 3116 2381 2855 2742 
Q 2594 3103 2138 3103 
Q 1681 3103 1420 2742 
Q 1159 2381 1159 1747 
Q 1159 1113 1420 752 
Q 1681 391 2138 391 
Q 2594 391 2855 752 
Q 3116 1113 3116 1747 
z
" transform="scale(0.015625)"/>
      <path id="DejaVuSans-63" d="M 3122 3366 
L 3122 2828 
Q 2878 2963 2633 3030 
Q 2388 3097 2138 3097 
Q 1578 3097 1268 2742 
Q 959 2388 959 1747 
Q 959 1106 1268 751 
Q 1578 397 2138 397 
Q 2388 397 2633 464 
Q 2878 531 3122 666 
L 3122 134 
Q 2881 22 2623 -34 
Q 2366 -91 2075 -91 
Q 1284 -91 818 406 
Q 353 903 353 1747 
Q 353 2603 823 3093 
Q 1294 3584 2113 3584 
Q 2378 3584 2631 3529 
Q 2884 3475 3122 3366 
z
" transform="scale(0.015625)"/>
      <path id="DejaVuSans-50" d="M 1259 4147 
L 1259 2394 
L 2053 2394 
Q 2494 2394 2734 2622 
Q 2975 2850 2975 3272 
Q 2975 3691 2734 3919 
Q 2494 4147 2053 4147 
L 1259 4147 
z
M 628 4666 
L 2053 4666 
Q 2838 4666 3239 4311 
Q 3641 3956 3641 3272 
Q 3641 2581 3239 2228 
Q 2838 1875 2053 1875 
L 1259 1875 
L 1259 0 
L 628 0 
L 628 4666 
z
" transform="scale(0.015625)"/>
      <path id="DejaVuSans-6f" d="M 1959 3097 
Q 1497 3097 1228 2736 
Q 959 2375 959 1747 
Q 959 1119 1226 758 
Q 1494 397 1959 397 
Q 2419 397 2687 759 
Q 2956 1122 2956 1747 
Q 2956 2369 2687 2733 
Q 2419 3097 1959 3097 
z
M 1959 3584 
Q 2709 3584 3137 3096 
Q 3566 2609 3566 1747 
Q 3566 888 3137 398 
Q 2709 -91 1959 -91 
Q 1206 -91 779 398 
Q 353 888 353 1747 
Q 353 2609 779 3096 
Q 1206 3584 1959 3584 
z
" transform="scale(0.015625)"/>
      <path id="DejaVuSans-6a" d="M 603 3500 
L 1178 3500 
L 1178 -63 
Q 1178 -731 923 -1031 
Q 669 -1331 103 -1331 
L -116 -1331 
L -116 -844 
L 38 -844 
Q 366 -844 484 -692 
Q 603 -541 603 -63 
L 603 3500 
z
M 603 4863 
L 1178 4863 
L 1178 4134 
L 603 4134 
L 603 4863 
z
" transform="scale(0.015625)"/>
      <path id="DejaVuSans-74" d="M 1172 4494 
L 1172 3500 
L 2356 3500 
L 2356 3053 
L 1172 3053 
L 1172 1153 
Q 1172 725 1289 603 
Q 1406 481 1766 481 
L 2356 481 
L 2356 0 
L 1766 0 
Q 1100 0 847 248 
Q 594 497 594 1153 
L 594 3053 
L 172 3053 
L 172 3500 
L 594 3500 
L 594 4494 
L 1172 4494 
z
" transform="scale(0.015625)"/>
      <path id="DejaVuSans-69" d="M 603 3500 
L 1178 3500 
L 1178 0 
L 603 0 
L 603 3500 
z
M 603 4863 
L 1178 4863 
L 1178 4134 
L 603 4134 
L 603 4863 
z
" transform="scale(0.015625)"/>
      <path id="DejaVuSans-6e" d="M 3513 2113 
L 3513 0 
L 2938 0 
L 2938 2094 
Q 2938 2591 2744 2837 
Q 2550 3084 2163 3084 
Q 1697 3084 1428 2787 
Q 1159 2491 1159 1978 
L 1159 0 
L 581 0 
L 581 3500 
L 1159 3500 
L 1159 2956 
Q 1366 3272 1645 3428 
Q 1925 3584 2291 3584 
Q 2894 3584 3203 3211 
Q 3513 2838 3513 2113 
z
" transform="scale(0.015625)"/>
      <path id="DejaVuSans-2d" d="M 313 2009 
L 1997 2009 
L 1997 1497 
L 313 1497 
L 313 2009 
z
" transform="scale(0.015625)"/>
      <path id="DejaVuSans-77" d="M 269 3500 
L 844 3500 
L 1563 769 
L 2278 3500 
L 2956 3500 
L 3675 769 
L 4391 3500 
L 4966 3500 
L 4050 0 
L 3372 0 
L 2619 2869 
L 1863 0 
L 1184 0 
L 269 3500 
z
" transform="scale(0.015625)"/>
      <path id="DejaVuSans-68" d="M 3513 2113 
L 3513 0 
L 2938 0 
L 2938 2094 
Q 2938 2591 2744 2837 
Q 2550 3084 2163 3084 
Q 1697 3084 1428 2787 
Q 1159 2491 1159 1978 
L 1159 0 
L 581 0 
L 581 4863 
L 1159 4863 
L 1159 2956 
Q 1366 3272 1645 3428 
Q 1925 3584 2291 3584 
Q 2894 3584 3203 3211 
Q 3513 2838 3513 2113 
z
" transform="scale(0.015625)"/>
      <path id="DejaVuSans-3d" d="M 678 2906 
L 4684 2906 
L 4684 2381 
L 678 2381 
L 678 2906 
z
M 678 1631 
L 4684 1631 
L 4684 1100 
L 678 1100 
L 678 1631 
z
" transform="scale(0.015625)"/>
      <path id="DejaVuSans-39" d="M 703 97 
L 703 672 
Q 941 559 1184 500 
Q 1428 441 1663 441 
Q 2288 441 2617 861 
Q 2947 1281 2994 2138 
Q 2813 1869 2534 1725 
Q 2256 1581 1919 1581 
Q 1219 1581 811 2004 
Q 403 2428 403 3163 
Q 403 3881 828 4315 
Q 1253 4750 1959 4750 
Q 2769 4750 3195 4129 
Q 3622 3509 3622 2328 
Q 3622 1225 3098 567 
Q 2575 -91 1691 -91 
Q 1453 -91 1209 -44 
Q 966 3 703 97 
z
M 1959 2075 
Q 2384 2075 2632 2365 
Q 2881 2656 2881 3163 
Q 2881 3666 2632 3958 
Q 2384 4250 1959 4250 
Q 1534 4250 1286 3958 
Q 1038 3666 1038 3163 
Q 1038 2656 1286 2365 
Q 1534 2075 1959 2075 
z
" transform="scale(0.015625)"/>
     </defs>
     <use xlink:href="#DejaVuSans-52"/>
     <use xlink:href="#DejaVuSans-65" x="64.982422"/>
     <use xlink:href="#DejaVuSans-61" x="126.505859"/>
     <use xlink:href="#DejaVuSans-6c" x="187.785156"/>
     <use xlink:href="#DejaVuSans-20" x="215.568359"/>
     <use xlink:href="#DejaVuSans-53" x="247.355469"/>
     <use xlink:href="#DejaVuSans-70" x="310.832031"/>
     <use xlink:href="#DejaVuSans-61" x="374.308594"/>
     <use xlink:href="#DejaVuSans-63" x="435.587891"/>
     <use xlink:href="#DejaVuSans-65" x="490.568359"/>
     <use xlink:href="#DejaVuSans-20" x="552.091797"/>
     <use xlink:href="#DejaVuSans-50" x="583.878906"/>
     <use xlink:href="#DejaVuSans-72" x="642.431641"/>
     <use xlink:href="#DejaVuSans-6f" x="681.294922"/>
     <use xlink:href="#DejaVuSans-6a" x="742.476562"/>
     <use xlink:href="#DejaVuSans-65" x="770.259766"/>
     <use xlink:href="#DejaVuSans-63" x="831.783203"/>
     <use xlink:href="#DejaVuSans-74" x="886.763672"/>
     <use xlink:href="#DejaVuSans-69" x="925.972656"/>
     <use xlink:href="#DejaVuSans-6f" x="953.755859"/>
     <use xlink:href="#DejaVuSans-6e" x="1014.9375"/>
     <use xlink:href="#DejaVuSans-20" x="1078.316406"/>
     <use xlink:href="#DejaVuSans-6f" x="1110.103516"/>
     <use xlink:href="#DejaVuSans-6e" x="1171.285156"/>
     <use xlink:href="#DejaVuSans-74" x="1234.664062"/>
     <use xlink:href="#DejaVuSans-6f" x="1273.873047"/>
     <use xlink:href="#DejaVuSans-20" x="1335.054688"/>
     <use xlink:href="#DejaVuSans-72" x="1366.841797"/>
     <use xlink:href="#DejaVuSans-2d" x="1401.580078"/>
     <use xlink:href="#DejaVuSans-7a" x="1437.664062"/>
     <use xlink:href="#DejaVuSans-20" x="1490.154297"/>
     <use xlink:href="#DejaVuSans-70" x="1521.941406"/>
     <use xlink:href="#DejaVuSans-6c" x="1585.417969"/>
     <use xlink:href="#DejaVuSans-61" x="1613.201172"/>
     <use xlink:href="#DejaVuSans-6e" x="1674.480469"/>
     <use xlink:href="#DejaVuSans-65" x="1737.859375"/>
     <use xlink:href="#DejaVuSans-20" x="1799.382812"/>
     <use xlink:href="#DejaVuSans-77" x="1831.169922"/>
     <use xlink:href="#DejaVuSans-69" x="1912.957031"/>
     <use xlink:href="#DejaVuSans-74" x="1940.740234"/>
     <use xlink:href="#DejaVuSans-68" x="1979.949219"/>
     <use xlink:href="#DejaVuSans-20" x="2043.328125"/>
     <use xlink:href="#DejaVuSans-69" x="2075.115234"/>
     <use xlink:href="#DejaVuSans-6e" x="2102.898438"/>
     <use xlink:href="#DejaVuSans-69" x="2166.277344"/>
     <use xlink:href="#DejaVuSans-74" x="2194.060547"/>
     <use xlink:href="#DejaVuSans-69" x="2233.269531"/>
     <use xlink:href="#DejaVuSans-61" x="2261.052734"/>
     <use xlink:href="#DejaVuSans-6c" x="2322.332031"/>
     <use xlink:href="#DejaVuSans-20" x="2350.115234"/>
     <use xlink:href="#DejaVuSans-72" x="2381.902344"/>
     <use xlink:href="#DejaVuSans-20" x="2423.015625"/>
     <use xlink:href="#DejaVuSans-3d" x="2454.802734"/>
     <use xlink:href="#DejaVuSans-20" x="2538.591797"/>
     <use xlink:href="#DejaVuSans-30" x="2570.378906"/>
     <use xlink:href="#DejaVuSans-2e" x="2634.001953"/>
     <use xlink:href="#DejaVuSans-30" x="2665.789062"/>
     <use xlink:href="#DejaVuSans-39" x="2729.412109"/>
    </g>
   </g>
  </g>
 </g>
 <defs>
  <clipPath id="pe70ac814b1">
   <rect x="57.6" y="41.472" width="357.12" height="266.112"/>
  </clipPath>
 </defs>
</svg>
