<?xml version="1.0" encoding="utf-8" standalone="no"?>
<!DOCTYPE svg PUBLIC "-//W3C//DTD SVG 1.1//EN"
  "http://www.w3.org/Graphics/SVG/1.1/DTD/svg11.dtd">
<svg xmlns:xlink="http://www.w3.org/1999/xlink" width="460.8pt" height="345.6pt" viewBox="0 0 460.8 345.6" xmlns="http://www.w3.org/2000/svg" version="1.1">
 <metadata>
  <rdf:RDF xmlns:dc="http://purl.org/dc/elements/1.1/" xmlns:cc="http://creativecommons.org/ns#" xmlns:rdf="http://www.w3.org/1999/02/22-rdf-syntax-ns#">
   <cc:Work>
    <dc:type rdf:resource="http://purl.org/dc/dcmitype/StillImage"/>
    <dc:date>2023-10-23T13:51:37.543409</dc:date>
    <dc:format>image/svg+xml</dc:format>
    <dc:creator>
     <cc:Agent>
      <dc:title>Matplotlib v3.8.0, https://matplotlib.org/</dc:title>
     </cc:Agent>
    </dc:creator>
   </cc:Work>
  </rdf:RDF>
 </metadata>
 <defs>
  <style type="text/css">*{stroke-linejoin: round; stroke-linecap: butt}</style>
 </defs>
 <g id="figure_1">
  <g id="patch_1">
   <path d="M 0 345.6 
L 460.8 345.6 
L 460.8 0 
L 0 0 
z
" style="fill: #ffffff"/>
  </g>
  <g id="axes_1">
   <g id="patch_2">
    <path d="M 57.6 307.584 
L 414.72 307.584 
L 414.72 41.472 
L 57.6 41.472 
z
" style="fill: #ffffff"/>
   </g>
   <g id="matplotlib.axis_1">
    <g id="xtick_1">
     <g id="line2d_1">
      <defs>
       <path id="m5aa0c15df8" d="M 0 0 
L 0 3.5 
" style="stroke: #000000; stroke-width: 0.8"/>
      </defs>
      <g>
       <use xlink:href="#m5aa0c15df8" x="93.312" y="307.584" style="stroke: #000000; stroke-width: 0.8"/>
      </g>
     </g>
     <g id="text_1">
      <!-- −0.4 -->
      <g transform="translate(81.170594 322.182437) scale(0.1 -0.1)">
       <defs>
        <path id="DejaVuSans-2212" d="M 678 2272 
L 4684 2272 
L 4684 1741 
L 678 1741 
L 678 2272 
z
" transform="scale(0.015625)"/>
        <path id="DejaVuSans-30" d="M 2034 4250 
Q 1547 4250 1301 3770 
Q 1056 3291 1056 2328 
Q 1056 1369 1301 889 
Q 1547 409 2034 409 
Q 2525 409 2770 889 
Q 3016 1369 3016 2328 
Q 3016 3291 2770 3770 
Q 2525 4250 2034 4250 
z
M 2034 4750 
Q 2819 4750 3233 4129 
Q 3647 3509 3647 2328 
Q 3647 1150 3233 529 
Q 2819 -91 2034 -91 
Q 1250 -91 836 529 
Q 422 1150 422 2328 
Q 422 3509 836 4129 
Q 1250 4750 2034 4750 
z
" transform="scale(0.015625)"/>
        <path id="DejaVuSans-2e" d="M 684 794 
L 1344 794 
L 1344 0 
L 684 0 
L 684 794 
z
" transform="scale(0.015625)"/>
        <path id="DejaVuSans-34" d="M 2419 4116 
L 825 1625 
L 2419 1625 
L 2419 4116 
z
M 2253 4666 
L 3047 4666 
L 3047 1625 
L 3713 1625 
L 3713 1100 
L 3047 1100 
L 3047 0 
L 2419 0 
L 2419 1100 
L 313 1100 
L 313 1709 
L 2253 4666 
z
" transform="scale(0.015625)"/>
       </defs>
       <use xlink:href="#DejaVuSans-2212"/>
       <use xlink:href="#DejaVuSans-30" x="83.789062"/>
       <use xlink:href="#DejaVuSans-2e" x="147.412109"/>
       <use xlink:href="#DejaVuSans-34" x="179.199219"/>
      </g>
     </g>
    </g>
    <g id="xtick_2">
     <g id="line2d_2">
      <g>
       <use xlink:href="#m5aa0c15df8" x="164.736" y="307.584" style="stroke: #000000; stroke-width: 0.8"/>
      </g>
     </g>
     <g id="text_2">
      <!-- −0.2 -->
      <g transform="translate(152.594594 322.182437) scale(0.1 -0.1)">
       <defs>
        <path id="DejaVuSans-32" d="M 1228 531 
L 3431 531 
L 3431 0 
L 469 0 
L 469 531 
Q 828 903 1448 1529 
Q 2069 2156 2228 2338 
Q 2531 2678 2651 2914 
Q 2772 3150 2772 3378 
Q 2772 3750 2511 3984 
Q 2250 4219 1831 4219 
Q 1534 4219 1204 4116 
Q 875 4013 500 3803 
L 500 4441 
Q 881 4594 1212 4672 
Q 1544 4750 1819 4750 
Q 2544 4750 2975 4387 
Q 3406 4025 3406 3419 
Q 3406 3131 3298 2873 
Q 3191 2616 2906 2266 
Q 2828 2175 2409 1742 
Q 1991 1309 1228 531 
z
" transform="scale(0.015625)"/>
       </defs>
       <use xlink:href="#DejaVuSans-2212"/>
       <use xlink:href="#DejaVuSans-30" x="83.789062"/>
       <use xlink:href="#DejaVuSans-2e" x="147.412109"/>
       <use xlink:href="#DejaVuSans-32" x="179.199219"/>
      </g>
     </g>
    </g>
    <g id="xtick_3">
     <g id="line2d_3">
      <g>
       <use xlink:href="#m5aa0c15df8" x="236.16" y="307.584" style="stroke: #000000; stroke-width: 0.8"/>
      </g>
     </g>
     <g id="text_3">
      <!-- 0.0 -->
      <g transform="translate(228.208438 322.182437) scale(0.1 -0.1)">
       <use xlink:href="#DejaVuSans-30"/>
       <use xlink:href="#DejaVuSans-2e" x="63.623047"/>
       <use xlink:href="#DejaVuSans-30" x="95.410156"/>
      </g>
     </g>
    </g>
    <g id="xtick_4">
     <g id="line2d_4">
      <g>
       <use xlink:href="#m5aa0c15df8" x="307.584" y="307.584" style="stroke: #000000; stroke-width: 0.8"/>
      </g>
     </g>
     <g id="text_4">
      <!-- 0.2 -->
      <g transform="translate(299.632437 322.182437) scale(0.1 -0.1)">
       <use xlink:href="#DejaVuSans-30"/>
       <use xlink:href="#DejaVuSans-2e" x="63.623047"/>
       <use xlink:href="#DejaVuSans-32" x="95.410156"/>
      </g>
     </g>
    </g>
    <g id="xtick_5">
     <g id="line2d_5">
      <g>
       <use xlink:href="#m5aa0c15df8" x="379.008" y="307.584" style="stroke: #000000; stroke-width: 0.8"/>
      </g>
     </g>
     <g id="text_5">
      <!-- 0.4 -->
      <g transform="translate(371.056437 322.182437) scale(0.1 -0.1)">
       <use xlink:href="#DejaVuSans-30"/>
       <use xlink:href="#DejaVuSans-2e" x="63.623047"/>
       <use xlink:href="#DejaVuSans-34" x="95.410156"/>
      </g>
     </g>
    </g>
    <g id="text_6">
     <!-- r -->
     <g transform="translate(234.104531 335.860562) scale(0.1 -0.1)">
      <defs>
       <path id="DejaVuSans-72" d="M 2631 2963 
Q 2534 3019 2420 3045 
Q 2306 3072 2169 3072 
Q 1681 3072 1420 2755 
Q 1159 2438 1159 1844 
L 1159 0 
L 581 0 
L 581 3500 
L 1159 3500 
L 1159 2956 
Q 1341 3275 1631 3429 
Q 1922 3584 2338 3584 
Q 2397 3584 2469 3576 
Q 2541 3569 2628 3553 
L 2631 2963 
z
" transform="scale(0.015625)"/>
      </defs>
      <use xlink:href="#DejaVuSans-72"/>
     </g>
    </g>
   </g>
   <g id="matplotlib.axis_2">
    <g id="ytick_1">
     <g id="line2d_6">
      <defs>
       <path id="m0e2dba358f" d="M 0 0 
L -3.5 0 
" style="stroke: #000000; stroke-width: 0.8"/>
      </defs>
      <g>
       <use xlink:href="#m0e2dba358f" x="57.6" y="280.9728" style="stroke: #000000; stroke-width: 0.8"/>
      </g>
     </g>
     <g id="text_7">
      <!-- −0.4 -->
      <g transform="translate(26.317187 284.772019) scale(0.1 -0.1)">
       <use xlink:href="#DejaVuSans-2212"/>
       <use xlink:href="#DejaVuSans-30" x="83.789062"/>
       <use xlink:href="#DejaVuSans-2e" x="147.412109"/>
       <use xlink:href="#DejaVuSans-34" x="179.199219"/>
      </g>
     </g>
    </g>
    <g id="ytick_2">
     <g id="line2d_7">
      <g>
       <use xlink:href="#m0e2dba358f" x="57.6" y="227.7504" style="stroke: #000000; stroke-width: 0.8"/>
      </g>
     </g>
     <g id="text_8">
      <!-- −0.2 -->
      <g transform="translate(26.317187 231.549619) scale(0.1 -0.1)">
       <use xlink:href="#DejaVuSans-2212"/>
       <use xlink:href="#DejaVuSans-30" x="83.789062"/>
       <use xlink:href="#DejaVuSans-2e" x="147.412109"/>
       <use xlink:href="#DejaVuSans-32" x="179.199219"/>
      </g>
     </g>
    </g>
    <g id="ytick_3">
     <g id="line2d_8">
      <g>
       <use xlink:href="#m0e2dba358f" x="57.6" y="174.528" style="stroke: #000000; stroke-width: 0.8"/>
      </g>
     </g>
     <g id="text_9">
      <!-- 0.0 -->
      <g transform="translate(34.696875 178.327219) scale(0.1 -0.1)">
       <use xlink:href="#DejaVuSans-30"/>
       <use xlink:href="#DejaVuSans-2e" x="63.623047"/>
       <use xlink:href="#DejaVuSans-30" x="95.410156"/>
      </g>
     </g>
    </g>
    <g id="ytick_4">
     <g id="line2d_9">
      <g>
       <use xlink:href="#m0e2dba358f" x="57.6" y="121.3056" style="stroke: #000000; stroke-width: 0.8"/>
      </g>
     </g>
     <g id="text_10">
      <!-- 0.2 -->
      <g transform="translate(34.696875 125.104819) scale(0.1 -0.1)">
       <use xlink:href="#DejaVuSans-30"/>
       <use xlink:href="#DejaVuSans-2e" x="63.623047"/>
       <use xlink:href="#DejaVuSans-32" x="95.410156"/>
      </g>
     </g>
    </g>
    <g id="ytick_5">
     <g id="line2d_10">
      <g>
       <use xlink:href="#m0e2dba358f" x="57.6" y="68.0832" style="stroke: #000000; stroke-width: 0.8"/>
      </g>
     </g>
     <g id="text_11">
      <!-- 0.4 -->
      <g transform="translate(34.696875 71.882419) scale(0.1 -0.1)">
       <use xlink:href="#DejaVuSans-30"/>
       <use xlink:href="#DejaVuSans-2e" x="63.623047"/>
       <use xlink:href="#DejaVuSans-34" x="95.410156"/>
      </g>
     </g>
    </g>
    <g id="text_12">
     <!-- z -->
     <g transform="translate(20.2375 177.152219) rotate(-90) scale(0.1 -0.1)">
      <defs>
       <path id="DejaVuSans-7a" d="M 353 3500 
L 3084 3500 
L 3084 2975 
L 922 459 
L 3084 459 
L 3084 0 
L 275 0 
L 275 525 
L 2438 3041 
L 353 3041 
L 353 3500 
z
" transform="scale(0.015625)"/>
      </defs>
      <use xlink:href="#DejaVuSans-7a"/>
     </g>
    </g>
   </g>
   <g id="line2d_11">
    <path d="M 236.16 195.2256 
L 243.029112 196.780555 
L 277.926622 203.766269 
L 324.945941 210.607253 
L 361.184356 213.869438 
L 380.753314 215.119005 
L 391.175938 215.918586 
L 396.388313 216.808517 
L 396.417058 217.888936 
L 391.418455 219.10167 
L 381.340119 220.244307 
L 366.214905 220.919449 
L 346.753559 220.613615 
L 321.650491 218.644769 
L 281.796027 212.410214 
L 228.927982 199.184256 
L 186.995466 185.339904 
L 156.876814 173.757987 
L 132.122921 163.108832 
L 115.15694 154.811277 
L 106.935418 149.370499 
L 109.055912 148.17905 
L 119.094494 149.996945 
L 137.651463 154.810659 
L 202.697931 173.089528 
L 240.681716 183.333667 
L 279.011565 193.066274 
L 360.764416 212.594931 
L 382.39146 218.886572 
L 393.489009 224.345924 
L 394.397697 228.590165 
L 387.814956 231.46682 
L 374.294845 232.740165 
L 354.857846 231.581307 
L 324.40535 226.033755 
L 277.942478 212.004816 
L 230.798656 193.205354 
L 193.734927 176.097695 
L 160.756904 159.279132 
L 137.215618 145.904631 
L 122.379914 135.531942 
L 119.954284 130.956711 
L 126.965046 130.344999 
L 141.776129 133.238991 
L 166.518756 139.985813 
L 201.074353 150.738418 
L 241.362414 164.354694 
L 280.370786 178.642344 
L 319.399188 194.657895 
L 353.668922 211.716946 
L 376.067771 227.176848 
L 385.130605 238.788808 
L 383.073178 245.297074 
L 372.608142 245.92122 
L 354.939642 240.581074 
L 329.343279 228.662475 
L 294.084772 209.353027 
L 249.341746 183.403631 
L 214.70271 163.054849 
L 184.385289 145.078381 
L 157.096626 128.344076 
L 139.702365 116.288811 
L 135.5512 111.155613 
L 141.181388 110.615249 
L 154.864931 114.144958 
L 178.70214 122.417436 
L 211.748331 135.7372 
L 248.835273 152.765752 
L 281.615478 170.082375 
L 316.215835 191.961641 
L 347.168211 217.503376 
L 365.144803 238.865769 
L 371.160046 251.685449 
L 369.657284 255.095286 
L 363.688916 252.656767 
L 353.670284 244.961349 
L 337.089019 230.633457 
L 311.972646 209.432555 
L 277.118212 182.686951 
L 240.635473 157.634635 
L 208.342771 137.305321 
L 179.860375 120.341256 
L 157.351416 107.163559 
L 146.150804 100.036376 
L 146.565818 99.140759 
L 154.056756 101.883199 
L 170.831437 109.333778 
L 197.370288 122.363208 
L 230.459045 140.362646 
L 263.496057 160.706342 
L 293.978272 182.485751 
L 324.805898 209.163018 
L 348.119379 234.630999 
L 360.490345 251.360405 
L 364.294818 257.287887 
L 364.072185 257.126481 
L 361.230169 252.988297 
L 354.200581 243.264414 
L 340.956087 227.045554 
L 318.956759 204.488616 
L 286.645956 177.584924 
L 246.893468 150.52693 
L 214.531014 131.598909 
L 186.236972 116.688464 
L 161.976837 105.018905 
L 147.923312 99.09234 
L 145.984032 99.066953 
L 151.533885 102.790618 
L 165.807084 111.153184 
L 189.970653 125.173657 
L 221.6512 144.305762 
L 255.233513 166.142025 
L 284.523759 187.016394 
L 314.432435 210.646173 
L 359.429499 250.028657 
L 367.350109 255.214777 
L 370.202645 254.514314 
L 369.50754 249.599972 
L 364.820343 240.453628 
L 353.146444 225.131417 
L 331.099094 203.971706 
L 296.521454 178.99141 
L 251.86334 153.724469 
L 216.685992 136.988218 
L 186.05674 124.093977 
L 158.384552 113.939189 
L 140.870513 109.23343 
L 136.563694 110.163543 
L 141.138674 115.214687 
L 154.517468 124.559507 
L 178.317944 139.353136 
L 246.5821 180.113926 
L 279.228983 199.566923 
L 314.041098 219.938388 
L 346.502401 237.272698 
L 367.134472 245.543454 
L 378.208995 247.234108 
L 383.846573 244.702843 
L 383.481524 238.285975 
L 375.285803 227.936883 
L 352.581921 211.484242 
L 312.911276 191.252416 
L 260.38723 169.872315 
L 220.671305 155.60489 
L 183.711855 143.386571 
L 151.286199 133.787615 
L 129.307645 128.883443 
L 121.492275 129.104708 
L 122.460311 132.866189 
L 131.438532 139.973978 
L 151.020633 151.941358 
L 180.782806 167.984321 
L 216.050033 185.307394 
L 249.468948 200.215666 
L 286.299828 214.595747 
L 327.797183 227.202639 
L 358.575541 232.84712 
L 378.297773 233.69639 
L 390.614147 231.718364 
L 394.530184 227.182356 
L 386.841256 221.353895 
L 369.688179 215.19851 
L 343.402217 208.07109 
L 307.270752 199.107477 
L 261.278464 187.478852 
L 218.913901 176.149188 
L 151.542868 157.220683 
L 126.022306 150.329396 
L 110.820345 147.198962 
L 107.446745 148.054212 
L 112.191159 151.921363 
L 126.083613 159.322566 
L 150.511414 170.417377 
L 182.037908 183.094964 
L 213.974045 194.393807 
L 253.176292 206.029285 
L 294.460897 215.209243 
L 336.465769 220.667949 
L 366.324455 221.64538 
L 386.849918 220.388454 
L 395.126524 218.88251 
L 396.790603 217.424702 
L 392.315123 216.270549 
L 382.706348 215.286156 
L 368.630975 214.221419 
L 348.840798 212.610044 
L 321.206351 209.665936 
L 283.415231 204.060088 
L 234.567317 194.124619 
L 191.159611 183.004231 
L 160.221126 173.951639 
L 134.08704 165.697526 
L 103.788715 155.736701 
L 102.215843 155.428866 
L 107.415915 157.551465 
L 121.178076 162.677949 
L 145.017926 171.00495 
L 172.1623 179.772591 
L 201.603348 188.384738 
L 239.559184 197.95848 
L 282.250571 206.40287 
L 329.616301 212.553865 
L 364.438059 214.831312 
L 395.378537 215.884786 
L 397.075129 216.354963 
L 394.767327 217.052356 
L 387.959707 217.897607 
L 376.672185 218.646317 
L 360.845385 218.948053 
L 341.717446 218.392361 
L 314.008308 216.020194 
L 272.434143 209.368348 
L 218.281328 195.910754 
L 178.367873 183.035068 
L 150.568638 172.715113 
L 127.975773 163.418086 
L 112.026694 156.020875 
L 104.934552 151.555541 
L 107.54615 151.021079 
L 117.357661 153.155296 
L 136.212899 158.324116 
L 165.062605 166.588258 
L 200.639221 176.521744 
L 235.998876 185.778246 
L 275.506261 195.205076 
L 319.323749 204.490967 
L 359.557634 212.351451 
L 381.638472 217.224285 
L 392.890187 221.068895 
L 395.879848 224.595726 
L 391.344975 227.424973 
L 380.252237 229.286404 
L 363.138261 229.544236 
L 341.949589 227.656613 
L 304.545036 220.368344 
L 254.120793 204.86087 
L 211.271753 187.96007 
L 177.960294 172.91367 
L 149.279616 158.551235 
L 128.376396 146.691482 
L 117.038679 138.158076 
L 117.509238 135.072733 
L 126.351205 135.556562 
L 142.47242 139.081943 
L 169.344485 146.484034 
L 205.454311 157.441947 
L 246.371565 170.572098 
L 285.210047 183.733996 
L 325.593317 198.712773 
L 359.34129 213.683943 
L 380.418233 226.719129 
L 388.350054 236.497736 
L 385.553954 242.204978 
L 373.54164 243.184768 
L 347.743828 236.444097 
L 314.512786 222.257002 
L 272.569644 200.893596 
L 232.460515 178.929085 
L 198.110446 159.455924 
L 168.383211 141.996414 
L 144.721336 127.00779 
L 132.959591 117.410057 
L 133.643046 114.427145 
L 142.381391 115.320351 
L 159.480837 119.998634 
L 187.249747 129.550491 
L 223.128355 143.710576 
L 260.85262 160.630406 
L 294.147409 177.873468 
L 329.527442 200.19158 
L 357.350072 223.836571 
L 371.309054 241.985052 
L 374.004628 252.085366 
L 370.188832 253.577059 
L 362.040392 249.848236 
L 348.7321 240.489409 
L 327.898216 224.254574 
L 297.739386 201.210431 
L 258.315331 173.386021 
L 225.644258 152.11563 
L 194.148614 132.719456 
L 167.187649 116.551168 
L 149.17951 105.359219 
L 143.923109 101.000525 
L 148.416039 101.497697 
L 160.789198 106.145792 
L 183.265627 116.04994 
L 214.378202 131.376633 
L 248.873663 150.550453 
L 278.923095 169.72075 
L 311.25962 194.271361 
L 339.807133 221.755775 
L 357.025528 243.449895 
L 363.929907 254.720837 
L 364.923173 257.59654 
L 362.510193 255.295621 
L 356.666907 248.075039 
L 345.402939 234.52824 
L 326.464129 214.33828 
L 297.697357 188.601788 
L 259.930596 160.690695 
L 227.536461 140.160973 
L 196.181671 122.343537 
L 169.83613 108.598898 
L 151.956263 99.948888 
L 146.54758 97.732169 
L 150.488558 100.255985 
L 184.584543 119.253665 
L 214.889093 136.962295 
L 248.422107 158.200439 
L 278.011552 178.951683 
L 309.408113 203.852476 
L 337.164494 229.130932 
L 355.850742 247.649303 
L 364.586181 255.385794 
L 367.655698 256.253108 
L 367.440192 252.602885 
L 363.865984 245.039571 
L 354.537645 231.393499 
L 336.457708 211.566059 
L 306.865634 186.906126 
L 266.46873 160.738801 
L 230.374853 141.411713 
L 195.068504 124.969231 
L 166.450937 113.282779 
L 146.490759 106.636325 
L 139.728604 105.954064 
L 142.000646 109.619514 
L 152.404403 117.129978 
L 173.016691 130.109289 
L 202.930546 148.278369 
L 237.946556 169.700654 
L 271.794214 190.924698 
L 304.398152 211.808761 
L 336.981534 232.368217 
L 361.732865 245.829251 
L 373.893196 249.654284 
L 380.226235 248.043862 
L 380.613026 242.429391 
L 375.0403 233.029324 
L 358.729618 217.706758 
L 327.040696 197.336043 
L 279.973304 174.447713 
L 236.689898 156.838587 
L 197.988842 142.795252 
L 164.269002 131.847523 
L 138.554186 125.02125 
L 126.985008 123.715919 
L 125.163643 126.662637 
L 132.328377 133.261098 
L 149.376828 144.42158 
L 176.990317 160.244382 
L 211.887028 178.666193 
L 246.493531 195.612626 
L 282.307328 211.510154 
L 322.186596 226.323579 
L 354.666461 234.721038 
L 375.335088 237.003612 
L 388.46438 235.554607 
L 393.183652 231.186872 
L 387.15418 224.298926 
L 369.488426 216.043587 
L 341.46144 206.685254 
L 302.953656 195.483681 
L 254.686875 181.876059 
L 146.530101 151.051906 
L 122.772763 145.092678 
L 111.929008 143.568801 
L 110.433029 145.66473 
L 117.576291 150.921313 
L 134.630099 160.095646 
L 162.007418 172.810162 
L 194.661061 186.256409 
L 228.97748 198.610378 
L 269.213083 210.541717 
L 312.780141 219.72019 
L 348.751101 223.648228 
L 376.020056 223.729357 
L 391.726807 221.828033 
L 396.673614 219.856285 
L 394.673984 217.915502 
L 386.400689 216.181939 
L 372.444204 214.405601 
L 352.371431 212.134458 
L 324.55011 208.599078 
L 287.004511 202.593658 
L 238.951221 192.677378 
L 195.367614 181.689403 
L 164.621768 172.971949 
L 138.222904 164.994255 
L 117.831473 158.676269 
L 105.079645 154.934363 
L 102.549769 154.675938 
L 106.915002 156.900242 
L 119.754345 162.172234 
L 142.759471 170.761592 
L 169.349519 179.842644 
L 198.349756 188.773431 
L 235.896733 198.716422 
L 278.500945 207.511212 
L 325.376501 213.722994 
L 361.051366 215.7954 
L 378.397107 215.964788 
L 397.083752 215.827545 
L 395.584683 216.070841 
L 390.634105 216.48572 
L 381.771956 216.957056 
L 369.158137 217.251174 
L 353.083873 217.075371 
L 332.107873 215.985371 
L 299.466012 212.477812 
L 253.690347 204.176416 
L 206.448409 191.983622 
L 169.355791 180.168165 
L 144.559536 171.243797 
L 124.582104 163.389949 
L 109.486878 156.801231 
L 103.465108 153.268018 
L 106.816349 153.400196 
L 116.697507 155.946979 
L 165.601594 170.259499 
L 195.85214 178.742157 
L 226.718803 186.778334 
L 266.344833 195.992064 
L 309.208059 204.428555 
L 377.911893 215.517718 
L 391.049521 218.373598 
L 396.377456 221.114279 
L 394.322983 223.573917 
L 386.050795 225.582708 
L 371.772054 226.722311 
L 352.324177 226.326252 
L 326.643865 223.546645 
L 283.941174 214.672136 
L 230.150798 197.763294 
L 190.215245 181.999508 
L 161.993605 169.384748 
L 138.983651 158.023027 
L 120.81833 147.719085 
L 112.9397 141.044888 
L 116.205419 139.371191 
L 128.00098 141.138623 
L 148.249935 146.144995 
L 178.907341 154.816088 
L 217.325883 166.249938 
L 258.330776 178.735923 
L 295.260546 190.277143 
L 336.697719 204.145601 
L 368.015819 216.6866 
L 385.860799 227.083705 
L 391.108865 234.732845 
L 386.58601 239.235249 
L 373.601608 240.164822 
L 350.808865 235.909789 
L 314.919936 223.45518 
L 270.504451 203.413249 
L 229.459261 182.543426 
L 195.932968 164.414906 
L 167.428248 148.191787 
L 143.134734 133.175054 
L 129.930978 122.867526 
L 129.343795 119.179375 
L 136.935566 119.261819 
L 151.77215 122.707107 
L 177.488444 130.688679 
L 212.421062 143.241609 
L 251.385963 159.004978 
L 285.737094 174.760375 
L 322.450166 194.681485 
L 353.42689 216.454549 
L 371.863537 235.478442 
L 377.536626 247.727 
L 374.319027 251.890671 
L 364.620616 249.272999 
L 350.496687 241.118276 
L 328.721848 226.184775 
L 297.543007 204.208655 
L 256.960101 176.81801 
L 224.149435 155.877112 
L 192.708232 136.560144 
L 165.381876 119.946433 
L 147.211653 108.233967 
L 141.964472 103.418186 
L 146.600517 103.456285 
L 158.8965 107.557748 
L 181.432643 116.788832 
L 212.849504 131.383393 
L 247.985135 149.893711 
L 278.898049 168.646485 
L 311.683067 192.412869 
L 341.214886 219.906818 
L 358.713142 241.978183 
L 365.652059 254.562978 
L 365.708629 257.18048 
L 362.533981 254.875853 
L 355.692572 247.551291 
L 343.181427 233.78859 
L 322.841366 213.310904 
L 292.73843 187.268645 
L 254.17863 159.157791 
L 223.611167 139.684457 
L 194.597264 122.808818 
L 168.706055 108.750116 
L 146.791065 97.441014 
L 163.842648 106.219436 
L 186.346277 118.27235 
L 216.97911 135.752807 
L 246.990246 154.447957 
L 275.92954 174.485903 
L 307.588279 199.61987 
L 335.481375 225.771645 
L 363.013929 255.314105 
L 365.952609 257.108418 
L 365.413541 253.821224 
L 361.528848 246.341273 
L 352.161395 232.765505 
L 334.554338 212.875572 
L 306.060218 187.91487 
L 267.219843 161.224324 
L 231.395335 140.855709 
L 196.259117 123.493997 
L 168.259526 111.282423 
L 148.723095 104.112822 
L 142.117944 103.05054 
L 144.795577 106.536419 
L 155.640915 113.964242 
L 176.597274 126.903247 
L 206.576472 145.127192 
L 241.171206 166.725453 
L 273.9487 188.164121 
L 305.399128 209.760065 
L 336.571116 231.708846 
L 359.759922 246.715182 
L 371.218961 251.616399 
L 376.492267 250.986626 
L 377.470288 246.488642 
L 373.572282 237.829168 
L 361.632753 223.759266 
L 337.036301 204.055777 
L 297.488353 180.730952 
L 251.870283 159.284699 
L 214.261407 144.038104 
L 181.199492 132.053694 
L 151.779955 122.825005 
L 133.312646 118.931534 
L 128.461181 120.360866 
L 132.863725 125.842412 
L 146.301811 135.415469 
L 170.456167 150.107541 
L 203.448254 168.684459 
L 239.758397 188.031167 
L 273.60735 204.984745 
L 311.429406 222.041004 
L 348.052187 235.108119 
L 370.569136 239.815863 
L 383.347073 239.901845 
L 390.070727 237.18993 
L 389.391698 230.473589 
L 373.98411 219.583024 
L 345.350181 207.328265 
L 305.858872 193.745238 
L 256.4304 178.24227 
L 215.597334 165.836479 
L 179.308134 155.048322 
L 146.516295 145.796489 
L 123.486006 140.353438 
L 114.238625 139.585678 
L 113.55891 142.218064 
L 121.031648 147.969889 
L 138.661171 157.948682 
L 166.657797 171.631953 
L 200.118661 186.187344 
L 234.298942 199.282351 
L 273.990018 211.971114 
L 317.384354 221.998112 
L 351.786794 226.236887 
L 377.574146 226.390813 
L 391.866804 224.350547 
L 396.476255 221.79021 
L 393.218827 219.066409 
L 382.978571 216.44483 
L 366.060741 213.572076 
L 341.805222 209.864364 
L 308.724935 204.381502 
L 265.573494 195.880709 
L 219.633633 185.059734 
L 182.641646 175.167754 
L 152.831172 166.602813 
L 128.926971 159.538786 
L 111.146679 154.486967 
L 103.906714 153.030273 
L 105.442545 154.77261 
L 114.955846 159.322073 
L 134.552856 167.405336 
L 159.605613 176.756607 
L 189.085559 186.671526 
L 224.503574 197.019152 
L 266.060526 206.750397 
L 310.41317 213.852303 
L 348.828694 216.895035 
L 374.828684 217.139421 
L 387.289225 216.671889 
L 394.704292 216.146255 
L 397.073556 215.823649 
L 395.852934 215.739396 
L 377.6943 215.986045 
L 366.809737 215.933194 
L 352.268405 215.530518 
L 329.284637 214.095218 
L 295.605367 210.251894 
L 249.352305 201.822441 
L 202.419027 189.95932 
L 166.464834 178.904711 
L 141.665972 170.366904 
L 122.981916 163.414755 
L 108.169061 157.42553 
L 102.507377 154.550399 
L 107.138391 155.446155 
L 119.244762 159.065124 
L 141.323055 165.89474 
L 172.120759 175.103381 
L 205.250462 184.271821 
L 241.810761 193.27795 
L 283.616172 201.928003 
L 329.94633 209.310655 
L 383.278161 215.745994 
L 393.301671 217.536583 
L 396.812329 219.395435 
L 394.041557 221.256782 
L 385.572638 222.916808 
L 371.462532 223.988715 
L 352.347371 223.867495 
L 329.129606 222.001605 
L 290.057682 215.484138 
L 237.917615 201.495934 
L 195.189226 186.416852 
L 163.85713 173.554748 
L 137.721525 161.539825 
L 119.484355 151.957502 
L 110.328386 145.380387 
L 112.137566 143.487704 
L 122.332354 144.906059 
L 140.614481 149.361811 
L 169.322507 157.326709 
L 246.453597 179.45811 
L 325.957531 202.039709 
L 361.788611 213.261955 
L 383.810776 222.405979 
L 392.635852 229.474017 
L 391.143845 234.368096 
L 381.970192 236.837488 
L 365.079634 236.344851 
L 338.983459 231.230685 
L 297.212289 217.450823 
L 247.423245 195.972998 
L 209.19714 177.19149 
L 174.529002 158.768587 
L 148.240293 143.596472 
L 130.048881 131.359053 
L 124.748919 125.171516 
L 130.121096 123.616114 
L 144.254083 126.210424 
L 167.689405 132.787603 
L 201.133326 143.793105 
L 240.500758 158.229365 
L 278.356951 173.698211 
L 315.858951 191.357087 
L 349.436294 211.024493 
L 371.745571 229.388549 
L 380.591062 242.654749 
L 378.449821 249.307402 
L 369.577951 248.795401 
L 356.228642 243.243254 
L 335.111222 231.221665 
L 304.700442 211.954565 
L 264.426321 186.177235 
L 229.779157 164.569209 
L 168.019792 126.937037 
L 147.409444 113.637768 
L 139.739697 107.105907 
L 142.022094 105.70499 
L 152.298847 108.265741 
L 172.088634 115.40427 
L 201.713385 127.870291 
L 237.198685 144.836885 
L 271.156031 163.491917 
L 303.955346 184.826548 
L 336.079307 211.26738 
L 357.629844 235.5866 
L 366.767772 250.952844 
L 367.746704 256.082361 
L 364.956182 255.647078 
L 359.067241 250.748611 
L 347.933214 239.761192 
L 329.693436 221.967711 
L 302.242945 197.814365 
L 265.415589 169.79958 
L 230.975647 146.855941 
L 197.2798 126.500206 
L 170.589573 111.38585 
L 152.349283 101.293896 
L 146.576166 97.834135 
L 150.491027 99.291365 
L 162.456832 104.957654 
L 184.322217 116.050466 
L 214.616783 132.642962 
L 248.212267 153.013373 
L 277.683716 173.211719 
L 309.428257 198.561205 
L 337.000944 225.229946 
L 354.772778 245.747354 
L 362.721781 255.539796 
L 364.962291 257.552716 
L 363.797364 254.41778 
L 359.242645 246.723645 
L 349.227284 232.848781 
L 331.154664 212.562432 
L 302.581198 187.138776 
L 264.255731 160.017243 
L 229.873977 139.689765 
L 196.330367 122.302354 
L 169.029667 109.673639 
L 150.154762 102.113785 
L 144.009835 100.763679 
L 147.184028 104.045509 
L 158.542638 111.379706 
L 210.042564 142.478176 
L 244.235251 164.121689 
L 275.836251 185.493826 
L 306.124053 207.521964 
L 336.079291 230.688179 
L 357.886068 247.120877 
L 368.666037 253.126664 
L 373.292171 253.107319 
L 374.163108 249.271976 
L 370.934809 241.210357 
L 361.029288 227.768328 
L 340.393807 208.432129 
L 306.113238 184.843848 
L 259.594401 160.071884 
L 224.067456 144.165205 
L 189.847557 130.585263 
L 159.766351 120.165118 
L 139.210311 114.795839 
L 132.382587 115.050708 
L 134.553885 119.28304 
L 144.983766 127.290589 
L 165.927807 140.607112 
L 196.523838 158.629959 
L 232.517232 179.034246 
L 266.912043 197.912421 
L 302.326689 216.337835 
L 338.555984 232.906893 
L 363.915471 241.3795 
L 378.572642 243.410371 
L 386.864814 241.356968 
L 388.161282 235.81337 
L 379.26178 225.764403 
L 353.589357 210.837016 
L 313.96063 194.225716 
L 263.800493 176.43402 
L 223.428611 163.195969 
L 184.385652 151.029457 
L 150.71906 141.308511 
L 127.049716 135.742503 
L 117.642811 135.096326 
L 116.795688 137.939027 
L 124.172214 144.030706 
L 141.690348 154.505915 
L 169.697173 168.96956 
L 203.85349 184.776878 
L 237.03291 198.48895 
L 275.720194 212.164069 
L 318.20888 223.498939 
L 352.268813 228.781884 
L 375.144128 229.541995 
L 390.030043 227.745204 
L 395.87501 224.510078 
L 392.200093 220.712885 
L 380.465504 216.912952 
L 361.041307 212.65043 
L 333.280125 207.251344 
L 296.004113 199.716842 
L 248.939542 189.008763 
L 205.850136 177.963038 
L 173.163275 168.924215 
L 122.502422 154.534333 
L 108.113846 151.125744 
L 104.884906 151.461653 
L 109.139331 154.498855 
L 122.215926 160.871966 
L 145.683795 170.779145 
L 173.067259 181.143056 
L 203.077582 191.265061 
L 241.206773 202.190166 
L 283.582156 211.464532 
L 330.839703 217.644848 
L 363.335076 218.924925 
L 382.418707 218.313135 
L 392.461029 217.384154 
L 396.857594 216.50687 
L 395.707949 215.922261 
L 390.131463 215.590201 
L 370.22997 215.047519 
L 354.104725 214.352922 
L 330.639499 212.656251 
L 297.194776 208.731329 
L 251.889033 200.668822 
L 204.854806 189.275763 
L 168.500599 178.630662 
L 143.230596 170.392864 
L 124.14761 163.736335 
L 108.629559 158.001396 
L 102.057035 155.315328 
L 105.747953 156.332748 
L 138.336927 167.040965 
L 168.288165 176.359483 
L 199.992741 185.391498 
L 236.610029 194.564844 
L 278.791655 203.218771 
L 325.019399 210.109505 
L 361.160223 213.641591 
L 381.009078 215.151546 
L 391.587859 216.179866 
L 396.55575 217.300978 
L 395.968877 218.588227 
L 390.119216 219.948151 
L 379.07608 221.129317 
L 362.877422 221.689834 
L 342.610225 221.095891 
L 314.275811 218.322187 
L 270.697168 210.334159 
L 221.737653 196.882218 
L 181.773169 182.966041 
L 153.978884 171.855217 
L 131.233527 161.749787 
L 114.688317 153.346068 
L 107.510934 148.08737 
L 110.57922 147.144673 
L 121.444319 149.176352 
L 141.118973 154.283988 
L 207.99811 173.096046 
L 246.476685 183.558331 
L 284.865088 193.493328 
L 328.567556 204.351653 
L 364.538821 213.699207 
L 385.938323 220.968366 
L 394.199902 226.586195 
L 392.708118 230.725526 
L 383.961371 233.223142 
L 368.250858 233.645158 
L 347.237811 231.247734 
L 308.353873 221.856482 
L 258.774834 204.0465 
L 217.568996 185.980627 
L 185.154988 170.177573 
L 156.734958 155.11084 
L 134.280922 141.808648 
L 122.05024 132.330431 
L 122.060759 128.830538 
L 130.224235 128.989359 
L 145.437818 132.234013 
L 171.524097 139.589366 
L 207.058309 150.964133 
L 247.484967 165.08665 
L 285.082325 179.456149 
L 324.024128 196.392601 
L 356.67507 214.024602 
L 377.103644 229.76552 
L 384.346188 241.088097 
L 380.795803 246.790982 
L 369.256605 246.111321 
L 352.042712 239.831682 
L 326.316146 226.80431 
L 290.758319 206.380407 
L 180.623868 140.731816 
L 154.550509 124.566202 
L 139.206939 113.567935 
L 136.81903 109.519331 
L 143.25947 109.654461 
L 157.257466 113.575471 
L 181.852554 122.45294 
L 215.294599 136.382016 
L 248.13129 151.855472 
L 279.782882 168.869053 
L 314.075282 190.854228 
L 345.257539 216.833064 
L 363.675549 238.714313 
L 370.146556 251.871161 
L 369.087817 255.447024 
L 363.736474 253.241448 
L 354.473646 245.857406 
L 338.871687 231.89776 
L 314.940505 211.075172 
L 281.267254 184.603102 
L 245.005738 159.296448 
L 213.089795 139.032864 
L 184.549252 122.016901 
L 160.72031 108.228487 
L 147.453285 100.214588 
L 146.160606 98.626252 
L 152.402551 100.84754 
L 167.318524 107.510675 
L 192.14637 119.714681 
L 224.351578 137.135697 
L 257.835511 157.509526 
L 287.224174 178.043602 
L 318.912579 204.46729 
L 344.233498 230.848436 
L 358.579827 249.226772 
L 364.43108 257.528669 
L 362.267167 254.055718 
L 356.39975 245.490074 
L 344.751361 230.555059 
L 324.801565 209.17762 
L 294.514286 182.926309 
L 255.548068 155.576395 
L 224.18438 136.814043 
L 194.429387 120.884443 
L 168.096683 108.090581 
L 150.450744 100.47113 
L 145.389198 99.112884 
L 149.351398 102.286939 
L 161.552919 109.663156 
L 183.71452 122.618329 
L 214.220781 140.918793 
L 248.066088 162.546408 
L 278.265654 183.529522 
L 308.700451 206.792861 
L 337.31716 230.833344 
L 357.309116 247.943746 
L 366.875316 254.42904 
L 370.638788 254.623272 
L 370.948057 250.760756 
L 367.61661 242.979875 
L 358.074049 229.376304 
L 338.820556 209.767659 
L 306.977975 185.656962 
L 263.578479 160.261807 
L 227.604705 142.751554 
L 192.663162 127.840952 
L 163.180065 116.856614 
L 142.752821 110.910635 
L 135.858146 110.735852 
L 137.80734 114.607594 
L 147.835352 122.243932 
L 168.216561 135.27067 
L 198.205963 153.288747 
L 233.752263 174.239271 
L 268.501946 194.577161 
L 302.6016 214.15645 
L 337.26895 232.639193 
L 364.220843 243.87767 
L 377.283322 246.35839 
L 384.351999 244.29709 
L 384.981004 238.524284 
L 377.677914 228.715287 
L 355.828888 212.99909 
L 316.942996 193.579337 
L 265.433367 173.008212 
L 225.183897 158.741549 
L 186.158055 145.945093 
L 152.877653 136.07753 
L 129.693788 130.693449 
L 120.901155 130.40232 
L 120.612264 133.594797 
L 120.612264 133.594797 
" clip-path="url(#p07bb5abda2)" style="fill: none; stroke: #1f77b4; stroke-width: 0.5; stroke-linecap: square"/>
   </g>
   <g id="patch_3">
    <path d="M 57.6 307.584 
L 57.6 41.472 
" style="fill: none; stroke: #000000; stroke-width: 0.8; stroke-linejoin: miter; stroke-linecap: square"/>
   </g>
   <g id="patch_4">
    <path d="M 414.72 307.584 
L 414.72 41.472 
" style="fill: none; stroke: #000000; stroke-width: 0.8; stroke-linejoin: miter; stroke-linecap: square"/>
   </g>
   <g id="patch_5">
    <path d="M 57.6 307.584 
L 414.72 307.584 
" style="fill: none; stroke: #000000; stroke-width: 0.8; stroke-linejoin: miter; stroke-linecap: square"/>
   </g>
   <g id="patch_6">
    <path d="M 57.6 41.472 
L 414.72 41.472 
" style="fill: none; stroke: #000000; stroke-width: 0.8; stroke-linejoin: miter; stroke-linecap: square"/>
   </g>
   <g id="text_13">
    <!-- Real Space Projection onto r-z plane with initial r = -0.08 -->
    <g transform="translate(66.41625 35.472) scale(0.12 -0.12)">
     <defs>
      <path id="DejaVuSans-52" d="M 2841 2188 
Q 3044 2119 3236 1894 
Q 3428 1669 3622 1275 
L 4263 0 
L 3584 0 
L 2988 1197 
Q 2756 1666 2539 1819 
Q 2322 1972 1947 1972 
L 1259 1972 
L 1259 0 
L 628 0 
L 628 4666 
L 2053 4666 
Q 2853 4666 3247 4331 
Q 3641 3997 3641 3322 
Q 3641 2881 3436 2590 
Q 3231 2300 2841 2188 
z
M 1259 4147 
L 1259 2491 
L 2053 2491 
Q 2509 2491 2742 2702 
Q 2975 2913 2975 3322 
Q 2975 3731 2742 3939 
Q 2509 4147 2053 4147 
L 1259 4147 
z
" transform="scale(0.015625)"/>
      <path id="DejaVuSans-65" d="M 3597 1894 
L 3597 1613 
L 953 1613 
Q 991 1019 1311 708 
Q 1631 397 2203 397 
Q 2534 397 2845 478 
Q 3156 559 3463 722 
L 3463 178 
Q 3153 47 2828 -22 
Q 2503 -91 2169 -91 
Q 1331 -91 842 396 
Q 353 884 353 1716 
Q 353 2575 817 3079 
Q 1281 3584 2069 3584 
Q 2775 3584 3186 3129 
Q 3597 2675 3597 1894 
z
M 3022 2063 
Q 3016 2534 2758 2815 
Q 2500 3097 2075 3097 
Q 1594 3097 1305 2825 
Q 1016 2553 972 2059 
L 3022 2063 
z
" transform="scale(0.015625)"/>
      <path id="DejaVuSans-61" d="M 2194 1759 
Q 1497 1759 1228 1600 
Q 959 1441 959 1056 
Q 959 750 1161 570 
Q 1363 391 1709 391 
Q 2188 391 2477 730 
Q 2766 1069 2766 1631 
L 2766 1759 
L 2194 1759 
z
M 3341 1997 
L 3341 0 
L 2766 0 
L 2766 531 
Q 2569 213 2275 61 
Q 1981 -91 1556 -91 
Q 1019 -91 701 211 
Q 384 513 384 1019 
Q 384 1609 779 1909 
Q 1175 2209 1959 2209 
L 2766 2209 
L 2766 2266 
Q 2766 2663 2505 2880 
Q 2244 3097 1772 3097 
Q 1472 3097 1187 3025 
Q 903 2953 641 2809 
L 641 3341 
Q 956 3463 1253 3523 
Q 1550 3584 1831 3584 
Q 2591 3584 2966 3190 
Q 3341 2797 3341 1997 
z
" transform="scale(0.015625)"/>
      <path id="DejaVuSans-6c" d="M 603 4863 
L 1178 4863 
L 1178 0 
L 603 0 
L 603 4863 
z
" transform="scale(0.015625)"/>
      <path id="DejaVuSans-20" transform="scale(0.015625)"/>
      <path id="DejaVuSans-53" d="M 3425 4513 
L 3425 3897 
Q 3066 4069 2747 4153 
Q 2428 4238 2131 4238 
Q 1616 4238 1336 4038 
Q 1056 3838 1056 3469 
Q 1056 3159 1242 3001 
Q 1428 2844 1947 2747 
L 2328 2669 
Q 3034 2534 3370 2195 
Q 3706 1856 3706 1288 
Q 3706 609 3251 259 
Q 2797 -91 1919 -91 
Q 1588 -91 1214 -16 
Q 841 59 441 206 
L 441 856 
Q 825 641 1194 531 
Q 1563 422 1919 422 
Q 2459 422 2753 634 
Q 3047 847 3047 1241 
Q 3047 1584 2836 1778 
Q 2625 1972 2144 2069 
L 1759 2144 
Q 1053 2284 737 2584 
Q 422 2884 422 3419 
Q 422 4038 858 4394 
Q 1294 4750 2059 4750 
Q 2388 4750 2728 4690 
Q 3069 4631 3425 4513 
z
" transform="scale(0.015625)"/>
      <path id="DejaVuSans-70" d="M 1159 525 
L 1159 -1331 
L 581 -1331 
L 581 3500 
L 1159 3500 
L 1159 2969 
Q 1341 3281 1617 3432 
Q 1894 3584 2278 3584 
Q 2916 3584 3314 3078 
Q 3713 2572 3713 1747 
Q 3713 922 3314 415 
Q 2916 -91 2278 -91 
Q 1894 -91 1617 61 
Q 1341 213 1159 525 
z
M 3116 1747 
Q 3116 2381 2855 2742 
Q 2594 3103 2138 3103 
Q 1681 3103 1420 2742 
Q 1159 2381 1159 1747 
Q 1159 1113 1420 752 
Q 1681 391 2138 391 
Q 2594 391 2855 752 
Q 3116 1113 3116 1747 
z
" transform="scale(0.015625)"/>
      <path id="DejaVuSans-63" d="M 3122 3366 
L 3122 2828 
Q 2878 2963 2633 3030 
Q 2388 3097 2138 3097 
Q 1578 3097 1268 2742 
Q 959 2388 959 1747 
Q 959 1106 1268 751 
Q 1578 397 2138 397 
Q 2388 397 2633 464 
Q 2878 531 3122 666 
L 3122 134 
Q 2881 22 2623 -34 
Q 2366 -91 2075 -91 
Q 1284 -91 818 406 
Q 353 903 353 1747 
Q 353 2603 823 3093 
Q 1294 3584 2113 3584 
Q 2378 3584 2631 3529 
Q 2884 3475 3122 3366 
z
" transform="scale(0.015625)"/>
      <path id="DejaVuSans-50" d="M 1259 4147 
L 1259 2394 
L 2053 2394 
Q 2494 2394 2734 2622 
Q 2975 2850 2975 3272 
Q 2975 3691 2734 3919 
Q 2494 4147 2053 4147 
L 1259 4147 
z
M 628 4666 
L 2053 4666 
Q 2838 4666 3239 4311 
Q 3641 3956 3641 3272 
Q 3641 2581 3239 2228 
Q 2838 1875 2053 1875 
L 1259 1875 
L 1259 0 
L 628 0 
L 628 4666 
z
" transform="scale(0.015625)"/>
      <path id="DejaVuSans-6f" d="M 1959 3097 
Q 1497 3097 1228 2736 
Q 959 2375 959 1747 
Q 959 1119 1226 758 
Q 1494 397 1959 397 
Q 2419 397 2687 759 
Q 2956 1122 2956 1747 
Q 2956 2369 2687 2733 
Q 2419 3097 1959 3097 
z
M 1959 3584 
Q 2709 3584 3137 3096 
Q 3566 2609 3566 1747 
Q 3566 888 3137 398 
Q 2709 -91 1959 -91 
Q 1206 -91 779 398 
Q 353 888 353 1747 
Q 353 2609 779 3096 
Q 1206 3584 1959 3584 
z
" transform="scale(0.015625)"/>
      <path id="DejaVuSans-6a" d="M 603 3500 
L 1178 3500 
L 1178 -63 
Q 1178 -731 923 -1031 
Q 669 -1331 103 -1331 
L -116 -1331 
L -116 -844 
L 38 -844 
Q 366 -844 484 -692 
Q 603 -541 603 -63 
L 603 3500 
z
M 603 4863 
L 1178 4863 
L 1178 4134 
L 603 4134 
L 603 4863 
z
" transform="scale(0.015625)"/>
      <path id="DejaVuSans-74" d="M 1172 4494 
L 1172 3500 
L 2356 3500 
L 2356 3053 
L 1172 3053 
L 1172 1153 
Q 1172 725 1289 603 
Q 1406 481 1766 481 
L 2356 481 
L 2356 0 
L 1766 0 
Q 1100 0 847 248 
Q 594 497 594 1153 
L 594 3053 
L 172 3053 
L 172 3500 
L 594 3500 
L 594 4494 
L 1172 4494 
z
" transform="scale(0.015625)"/>
      <path id="DejaVuSans-69" d="M 603 3500 
L 1178 3500 
L 1178 0 
L 603 0 
L 603 3500 
z
M 603 4863 
L 1178 4863 
L 1178 4134 
L 603 4134 
L 603 4863 
z
" transform="scale(0.015625)"/>
      <path id="DejaVuSans-6e" d="M 3513 2113 
L 3513 0 
L 2938 0 
L 2938 2094 
Q 2938 2591 2744 2837 
Q 2550 3084 2163 3084 
Q 1697 3084 1428 2787 
Q 1159 2491 1159 1978 
L 1159 0 
L 581 0 
L 581 3500 
L 1159 3500 
L 1159 2956 
Q 1366 3272 1645 3428 
Q 1925 3584 2291 3584 
Q 2894 3584 3203 3211 
Q 3513 2838 3513 2113 
z
" transform="scale(0.015625)"/>
      <path id="DejaVuSans-2d" d="M 313 2009 
L 1997 2009 
L 1997 1497 
L 313 1497 
L 313 2009 
z
" transform="scale(0.015625)"/>
      <path id="DejaVuSans-77" d="M 269 3500 
L 844 3500 
L 1563 769 
L 2278 3500 
L 2956 3500 
L 3675 769 
L 4391 3500 
L 4966 3500 
L 4050 0 
L 3372 0 
L 2619 2869 
L 1863 0 
L 1184 0 
L 269 3500 
z
" transform="scale(0.015625)"/>
      <path id="DejaVuSans-68" d="M 3513 2113 
L 3513 0 
L 2938 0 
L 2938 2094 
Q 2938 2591 2744 2837 
Q 2550 3084 2163 3084 
Q 1697 3084 1428 2787 
Q 1159 2491 1159 1978 
L 1159 0 
L 581 0 
L 581 4863 
L 1159 4863 
L 1159 2956 
Q 1366 3272 1645 3428 
Q 1925 3584 2291 3584 
Q 2894 3584 3203 3211 
Q 3513 2838 3513 2113 
z
" transform="scale(0.015625)"/>
      <path id="DejaVuSans-3d" d="M 678 2906 
L 4684 2906 
L 4684 2381 
L 678 2381 
L 678 2906 
z
M 678 1631 
L 4684 1631 
L 4684 1100 
L 678 1100 
L 678 1631 
z
" transform="scale(0.015625)"/>
      <path id="DejaVuSans-38" d="M 2034 2216 
Q 1584 2216 1326 1975 
Q 1069 1734 1069 1313 
Q 1069 891 1326 650 
Q 1584 409 2034 409 
Q 2484 409 2743 651 
Q 3003 894 3003 1313 
Q 3003 1734 2745 1975 
Q 2488 2216 2034 2216 
z
M 1403 2484 
Q 997 2584 770 2862 
Q 544 3141 544 3541 
Q 544 4100 942 4425 
Q 1341 4750 2034 4750 
Q 2731 4750 3128 4425 
Q 3525 4100 3525 3541 
Q 3525 3141 3298 2862 
Q 3072 2584 2669 2484 
Q 3125 2378 3379 2068 
Q 3634 1759 3634 1313 
Q 3634 634 3220 271 
Q 2806 -91 2034 -91 
Q 1263 -91 848 271 
Q 434 634 434 1313 
Q 434 1759 690 2068 
Q 947 2378 1403 2484 
z
M 1172 3481 
Q 1172 3119 1398 2916 
Q 1625 2713 2034 2713 
Q 2441 2713 2670 2916 
Q 2900 3119 2900 3481 
Q 2900 3844 2670 4047 
Q 2441 4250 2034 4250 
Q 1625 4250 1398 4047 
Q 1172 3844 1172 3481 
z
" transform="scale(0.015625)"/>
     </defs>
     <use xlink:href="#DejaVuSans-52"/>
     <use xlink:href="#DejaVuSans-65" x="64.982422"/>
     <use xlink:href="#DejaVuSans-61" x="126.505859"/>
     <use xlink:href="#DejaVuSans-6c" x="187.785156"/>
     <use xlink:href="#DejaVuSans-20" x="215.568359"/>
     <use xlink:href="#DejaVuSans-53" x="247.355469"/>
     <use xlink:href="#DejaVuSans-70" x="310.832031"/>
     <use xlink:href="#DejaVuSans-61" x="374.308594"/>
     <use xlink:href="#DejaVuSans-63" x="435.587891"/>
     <use xlink:href="#DejaVuSans-65" x="490.568359"/>
     <use xlink:href="#DejaVuSans-20" x="552.091797"/>
     <use xlink:href="#DejaVuSans-50" x="583.878906"/>
     <use xlink:href="#DejaVuSans-72" x="642.431641"/>
     <use xlink:href="#DejaVuSans-6f" x="681.294922"/>
     <use xlink:href="#DejaVuSans-6a" x="742.476562"/>
     <use xlink:href="#DejaVuSans-65" x="770.259766"/>
     <use xlink:href="#DejaVuSans-63" x="831.783203"/>
     <use xlink:href="#DejaVuSans-74" x="886.763672"/>
     <use xlink:href="#DejaVuSans-69" x="925.972656"/>
     <use xlink:href="#DejaVuSans-6f" x="953.755859"/>
     <use xlink:href="#DejaVuSans-6e" x="1014.9375"/>
     <use xlink:href="#DejaVuSans-20" x="1078.316406"/>
     <use xlink:href="#DejaVuSans-6f" x="1110.103516"/>
     <use xlink:href="#DejaVuSans-6e" x="1171.285156"/>
     <use xlink:href="#DejaVuSans-74" x="1234.664062"/>
     <use xlink:href="#DejaVuSans-6f" x="1273.873047"/>
     <use xlink:href="#DejaVuSans-20" x="1335.054688"/>
     <use xlink:href="#DejaVuSans-72" x="1366.841797"/>
     <use xlink:href="#DejaVuSans-2d" x="1401.580078"/>
     <use xlink:href="#DejaVuSans-7a" x="1437.664062"/>
     <use xlink:href="#DejaVuSans-20" x="1490.154297"/>
     <use xlink:href="#DejaVuSans-70" x="1521.941406"/>
     <use xlink:href="#DejaVuSans-6c" x="1585.417969"/>
     <use xlink:href="#DejaVuSans-61" x="1613.201172"/>
     <use xlink:href="#DejaVuSans-6e" x="1674.480469"/>
     <use xlink:href="#DejaVuSans-65" x="1737.859375"/>
     <use xlink:href="#DejaVuSans-20" x="1799.382812"/>
     <use xlink:href="#DejaVuSans-77" x="1831.169922"/>
     <use xlink:href="#DejaVuSans-69" x="1912.957031"/>
     <use xlink:href="#DejaVuSans-74" x="1940.740234"/>
     <use xlink:href="#DejaVuSans-68" x="1979.949219"/>
     <use xlink:href="#DejaVuSans-20" x="2043.328125"/>
     <use xlink:href="#DejaVuSans-69" x="2075.115234"/>
     <use xlink:href="#DejaVuSans-6e" x="2102.898438"/>
     <use xlink:href="#DejaVuSans-69" x="2166.277344"/>
     <use xlink:href="#DejaVuSans-74" x="2194.060547"/>
     <use xlink:href="#DejaVuSans-69" x="2233.269531"/>
     <use xlink:href="#DejaVuSans-61" x="2261.052734"/>
     <use xlink:href="#DejaVuSans-6c" x="2322.332031"/>
     <use xlink:href="#DejaVuSans-20" x="2350.115234"/>
     <use xlink:href="#DejaVuSans-72" x="2381.902344"/>
     <use xlink:href="#DejaVuSans-20" x="2423.015625"/>
     <use xlink:href="#DejaVuSans-3d" x="2454.802734"/>
     <use xlink:href="#DejaVuSans-20" x="2538.591797"/>
     <use xlink:href="#DejaVuSans-2d" x="2570.378906"/>
     <use xlink:href="#DejaVuSans-30" x="2606.462891"/>
     <use xlink:href="#DejaVuSans-2e" x="2670.085938"/>
     <use xlink:href="#DejaVuSans-30" x="2701.873047"/>
     <use xlink:href="#DejaVuSans-38" x="2765.496094"/>
    </g>
   </g>
  </g>
 </g>
 <defs>
  <clipPath id="p07bb5abda2">
   <rect x="57.6" y="41.472" width="357.12" height="266.112"/>
  </clipPath>
 </defs>
</svg>
