<?xml version="1.0" encoding="utf-8" standalone="no"?>
<!DOCTYPE svg PUBLIC "-//W3C//DTD SVG 1.1//EN"
  "http://www.w3.org/Graphics/SVG/1.1/DTD/svg11.dtd">
<svg xmlns:xlink="http://www.w3.org/1999/xlink" width="460.8pt" height="345.6pt" viewBox="0 0 460.8 345.6" xmlns="http://www.w3.org/2000/svg" version="1.1">
 <metadata>
  <rdf:RDF xmlns:dc="http://purl.org/dc/elements/1.1/" xmlns:cc="http://creativecommons.org/ns#" xmlns:rdf="http://www.w3.org/1999/02/22-rdf-syntax-ns#">
   <cc:Work>
    <dc:type rdf:resource="http://purl.org/dc/dcmitype/StillImage"/>
    <dc:date>2023-10-23T14:50:14.313682</dc:date>
    <dc:format>image/svg+xml</dc:format>
    <dc:creator>
     <cc:Agent>
      <dc:title>Matplotlib v3.8.0, https://matplotlib.org/</dc:title>
     </cc:Agent>
    </dc:creator>
   </cc:Work>
  </rdf:RDF>
 </metadata>
 <defs>
  <style type="text/css">*{stroke-linejoin: round; stroke-linecap: butt}</style>
 </defs>
 <g id="figure_1">
  <g id="patch_1">
   <path d="M 0 345.6 
L 460.8 345.6 
L 460.8 0 
L 0 0 
z
" style="fill: #ffffff"/>
  </g>
  <g id="patch_2">
   <path d="M 103.104 307.584 
L 369.216 307.584 
L 369.216 41.472 
L 103.104 41.472 
z
" style="fill: #ffffff"/>
  </g>
  <g id="pane3d_1">
   <g id="patch_3">
    <path d="M 123.197291 241.969309 
L 211.076164 168.307495 
L 209.854564 62.073991 
L 117.770234 129.272941 
" style="fill: #f2f2f2; opacity: 0.5; stroke: #f2f2f2; stroke-linejoin: miter"/>
   </g>
  </g>
  <g id="pane3d_2">
   <g id="patch_4">
    <path d="M 211.076164 168.307495 
L 352.090401 209.294766 
L 357.122702 99.402171 
L 209.854564 62.073991 
" style="fill: #e6e6e6; opacity: 0.5; stroke: #e6e6e6; stroke-linejoin: miter"/>
   </g>
  </g>
  <g id="pane3d_3">
   <g id="patch_5">
    <path d="M 123.197291 241.969309 
L 272.679269 290.790123 
L 352.090401 209.294766 
L 211.076164 168.307495 
" style="fill: #ececec; opacity: 0.5; stroke: #ececec; stroke-linejoin: miter"/>
   </g>
  </g>
  <g id="grid3d_1">
   <g id="Line3DCollection_1">
    <path d="M 139.745029 247.3738 
L 226.747915 172.862654 
L 226.190662 66.214715 
" style="fill: none; stroke: #b0b0b0; stroke-width: 0.8"/>
    <path d="M 167.574724 256.462979 
L 253.069813 180.513391 
L 253.645623 73.173748 
" style="fill: none; stroke: #b0b0b0; stroke-width: 0.8"/>
    <path d="M 195.967881 265.736184 
L 279.880048 188.306068 
L 281.632185 80.267526 
" style="fill: none; stroke: #b0b0b0; stroke-width: 0.8"/>
    <path d="M 224.941789 275.199062 
L 307.192338 196.244672 
L 310.165939 87.500001 
" style="fill: none; stroke: #b0b0b0; stroke-width: 0.8"/>
    <path d="M 254.514447 284.857492 
L 335.020917 204.333341 
L 339.263092 94.875281 
" style="fill: none; stroke: #b0b0b0; stroke-width: 0.8"/>
   </g>
  </g>
  <g id="grid3d_2">
   <g id="Line3DCollection_2">
    <path d="M 129.321936 120.843035 
L 134.184874 232.759299 
L 282.646541 280.56125 
" style="fill: none; stroke: #b0b0b0; stroke-width: 0.8"/>
    <path d="M 147.908894 107.279119 
L 151.886109 217.921773 
L 298.68087 264.106083 
" style="fill: none; stroke: #b0b0b0; stroke-width: 0.8"/>
    <path d="M 165.860779 94.178651 
L 169.008295 203.569617 
L 314.163547 248.217048 
" style="fill: none; stroke: #b0b0b0; stroke-width: 0.8"/>
    <path d="M 183.209592 81.518278 
L 185.579387 189.679399 
L 329.122557 232.865423 
" style="fill: none; stroke: #b0b0b0; stroke-width: 0.8"/>
    <path d="M 199.985219 69.276189 
L 201.62557 176.22917 
L 343.584028 218.024397 
" style="fill: none; stroke: #b0b0b0; stroke-width: 0.8"/>
   </g>
  </g>
  <g id="grid3d_3">
   <g id="Line3DCollection_3">
    <path d="M 352.651911 197.032811 
L 210.939601 156.431576 
L 122.59264 229.41333 
" style="fill: none; stroke: #b0b0b0; stroke-width: 0.8"/>
    <path d="M 353.593746 176.465549 
L 210.710684 136.52439 
L 121.577933 208.34229 
" style="fill: none; stroke: #b0b0b0; stroke-width: 0.8"/>
    <path d="M 354.551427 155.552235 
L 210.478101 116.298387 
L 120.545497 186.903085 
" style="fill: none; stroke: #b0b0b0; stroke-width: 0.8"/>
    <path d="M 355.525359 134.284061 
L 210.241763 95.745848 
L 119.494863 165.085982 
" style="fill: none; stroke: #b0b0b0; stroke-width: 0.8"/>
    <path d="M 356.515957 112.651918 
L 210.001579 74.858801 
L 118.425545 142.8809 
" style="fill: none; stroke: #b0b0b0; stroke-width: 0.8"/>
   </g>
  </g>
  <g id="axis3d_1">
   <g id="line2d_1">
    <path d="M 123.197291 241.969309 
L 272.679269 290.790123 
" style="fill: none; stroke: #000000; stroke-width: 0.8; stroke-linecap: square"/>
   </g>
   <g id="xtick_1">
    <g id="line2d_2">
     <path d="M 140.502812 246.724819 
L 138.226203 248.674556 
" style="fill: none; stroke: #000000; stroke-width: 0.8; stroke-linecap: square"/>
    </g>
    <g id="text_1">
     <!-- −0.4 -->
     <g transform="translate(120.082057 270.734746) scale(0.1 -0.1)">
      <defs>
       <path id="DejaVuSans-2212" d="M 678 2272 
L 4684 2272 
L 4684 1741 
L 678 1741 
L 678 2272 
z
" transform="scale(0.015625)"/>
       <path id="DejaVuSans-30" d="M 2034 4250 
Q 1547 4250 1301 3770 
Q 1056 3291 1056 2328 
Q 1056 1369 1301 889 
Q 1547 409 2034 409 
Q 2525 409 2770 889 
Q 3016 1369 3016 2328 
Q 3016 3291 2770 3770 
Q 2525 4250 2034 4250 
z
M 2034 4750 
Q 2819 4750 3233 4129 
Q 3647 3509 3647 2328 
Q 3647 1150 3233 529 
Q 2819 -91 2034 -91 
Q 1250 -91 836 529 
Q 422 1150 422 2328 
Q 422 3509 836 4129 
Q 1250 4750 2034 4750 
z
" transform="scale(0.015625)"/>
       <path id="DejaVuSans-2e" d="M 684 794 
L 1344 794 
L 1344 0 
L 684 0 
L 684 794 
z
" transform="scale(0.015625)"/>
       <path id="DejaVuSans-34" d="M 2419 4116 
L 825 1625 
L 2419 1625 
L 2419 4116 
z
M 2253 4666 
L 3047 4666 
L 3047 1625 
L 3713 1625 
L 3713 1100 
L 3047 1100 
L 3047 0 
L 2419 0 
L 2419 1100 
L 313 1100 
L 313 1709 
L 2253 4666 
z
" transform="scale(0.015625)"/>
      </defs>
      <use xlink:href="#DejaVuSans-2212"/>
      <use xlink:href="#DejaVuSans-30" x="83.789062"/>
      <use xlink:href="#DejaVuSans-2e" x="147.412109"/>
      <use xlink:href="#DejaVuSans-34" x="179.199219"/>
     </g>
    </g>
   </g>
   <g id="xtick_2">
    <g id="line2d_3">
     <path d="M 168.319982 255.800928 
L 166.08097 257.789956 
" style="fill: none; stroke: #000000; stroke-width: 0.8; stroke-linecap: square"/>
    </g>
    <g id="text_2">
     <!-- −0.2 -->
     <g transform="translate(147.940862 280.01671) scale(0.1 -0.1)">
      <defs>
       <path id="DejaVuSans-32" d="M 1228 531 
L 3431 531 
L 3431 0 
L 469 0 
L 469 531 
Q 828 903 1448 1529 
Q 2069 2156 2228 2338 
Q 2531 2678 2651 2914 
Q 2772 3150 2772 3378 
Q 2772 3750 2511 3984 
Q 2250 4219 1831 4219 
Q 1534 4219 1204 4116 
Q 875 4013 500 3803 
L 500 4441 
Q 881 4594 1212 4672 
Q 1544 4750 1819 4750 
Q 2544 4750 2975 4387 
Q 3406 4025 3406 3419 
Q 3406 3131 3298 2873 
Q 3191 2616 2906 2266 
Q 2828 2175 2409 1742 
Q 1991 1309 1228 531 
z
" transform="scale(0.015625)"/>
      </defs>
      <use xlink:href="#DejaVuSans-2212"/>
      <use xlink:href="#DejaVuSans-30" x="83.789062"/>
      <use xlink:href="#DejaVuSans-2e" x="147.412109"/>
      <use xlink:href="#DejaVuSans-32" x="179.199219"/>
     </g>
    </g>
   </g>
   <g id="xtick_3">
    <g id="line2d_4">
     <path d="M 196.69995 265.060666 
L 194.500531 267.090184 
" style="fill: none; stroke: #000000; stroke-width: 0.8; stroke-linecap: square"/>
    </g>
    <g id="text_3">
     <!-- 0.0 -->
     <g transform="translate(180.555708 289.487318) scale(0.1 -0.1)">
      <use xlink:href="#DejaVuSans-30"/>
      <use xlink:href="#DejaVuSans-2e" x="63.623047"/>
      <use xlink:href="#DejaVuSans-30" x="95.410156"/>
     </g>
    </g>
   </g>
   <g id="xtick_4">
    <g id="line2d_5">
     <path d="M 225.659969 274.509662 
L 223.502242 276.580919 
" style="fill: none; stroke: #000000; stroke-width: 0.8; stroke-linecap: square"/>
    </g>
    <g id="text_4">
     <!-- 0.2 -->
     <g transform="translate(209.564345 299.152381) scale(0.1 -0.1)">
      <use xlink:href="#DejaVuSans-30"/>
      <use xlink:href="#DejaVuSans-2e" x="63.623047"/>
      <use xlink:href="#DejaVuSans-32" x="95.410156"/>
     </g>
    </g>
   </g>
   <g id="xtick_5">
    <g id="line2d_6">
     <path d="M 255.218008 284.153777 
L 253.104175 286.268074 
" style="fill: none; stroke: #000000; stroke-width: 0.8; stroke-linecap: square"/>
    </g>
    <g id="text_5">
     <!-- 0.4 -->
     <g transform="translate(239.174779 309.01795) scale(0.1 -0.1)">
      <use xlink:href="#DejaVuSans-30"/>
      <use xlink:href="#DejaVuSans-2e" x="63.623047"/>
      <use xlink:href="#DejaVuSans-34" x="95.410156"/>
     </g>
    </g>
   </g>
   <g id="text_6">
    <!-- r -->
    <g transform="translate(177.620959 303.76759) scale(0.1 -0.1)">
     <defs>
      <path id="DejaVuSans-72" d="M 2631 2963 
Q 2534 3019 2420 3045 
Q 2306 3072 2169 3072 
Q 1681 3072 1420 2755 
Q 1159 2438 1159 1844 
L 1159 0 
L 581 0 
L 581 3500 
L 1159 3500 
L 1159 2956 
Q 1341 3275 1631 3429 
Q 1922 3584 2338 3584 
Q 2397 3584 2469 3576 
Q 2541 3569 2628 3553 
L 2631 2963 
z
" transform="scale(0.015625)"/>
     </defs>
     <use xlink:href="#DejaVuSans-72"/>
    </g>
   </g>
  </g>
  <g id="axis3d_2">
   <g id="line2d_7">
    <path d="M 352.090401 209.294766 
L 272.679269 290.790123 
" style="fill: none; stroke: #000000; stroke-width: 0.8; stroke-linecap: square"/>
   </g>
   <g id="xtick_6">
    <g id="line2d_8">
     <path d="M 281.395758 280.158521 
L 285.151326 281.367745 
" style="fill: none; stroke: #000000; stroke-width: 0.8; stroke-linecap: square"/>
    </g>
    <g id="text_7">
     <!-- −0.4 -->
     <g transform="translate(283.325813 301.514986) scale(0.1 -0.1)">
      <use xlink:href="#DejaVuSans-2212"/>
      <use xlink:href="#DejaVuSans-30" x="83.789062"/>
      <use xlink:href="#DejaVuSans-2e" x="147.412109"/>
      <use xlink:href="#DejaVuSans-34" x="179.199219"/>
     </g>
    </g>
   </g>
   <g id="xtick_7">
    <g id="line2d_9">
     <path d="M 297.445222 263.717326 
L 301.155291 264.884581 
" style="fill: none; stroke: #000000; stroke-width: 0.8; stroke-linecap: square"/>
    </g>
    <g id="text_8">
     <!-- −0.2 -->
     <g transform="translate(299.144994 284.816287) scale(0.1 -0.1)">
      <use xlink:href="#DejaVuSans-2212"/>
      <use xlink:href="#DejaVuSans-30" x="83.789062"/>
      <use xlink:href="#DejaVuSans-2e" x="147.412109"/>
      <use xlink:href="#DejaVuSans-32" x="179.199219"/>
     </g>
    </g>
   </g>
   <g id="xtick_8">
    <g id="line2d_10">
     <path d="M 312.942742 247.841548 
L 316.608191 248.968982 
" style="fill: none; stroke: #000000; stroke-width: 0.8; stroke-linecap: square"/>
    </g>
    <g id="text_9">
     <!-- 0.0 -->
     <g transform="translate(318.609453 268.692429) scale(0.1 -0.1)">
      <use xlink:href="#DejaVuSans-30"/>
      <use xlink:href="#DejaVuSans-2e" x="63.623047"/>
      <use xlink:href="#DejaVuSans-30" x="95.410156"/>
     </g>
    </g>
   </g>
   <g id="xtick_9">
    <g id="line2d_11">
     <path d="M 327.916306 232.502514 
L 331.538007 233.592129 
" style="fill: none; stroke: #000000; stroke-width: 0.8; stroke-linecap: square"/>
    </g>
    <g id="text_10">
     <!-- 0.2 -->
     <g transform="translate(333.367149 253.114231) scale(0.1 -0.1)">
      <use xlink:href="#DejaVuSans-30"/>
      <use xlink:href="#DejaVuSans-2e" x="63.623047"/>
      <use xlink:href="#DejaVuSans-32" x="95.410156"/>
     </g>
    </g>
   </g>
   <g id="xtick_10">
    <g id="line2d_12">
     <path d="M 342.392046 217.673455 
L 345.970856 218.727124 
" style="fill: none; stroke: #000000; stroke-width: 0.8; stroke-linecap: square"/>
    </g>
    <g id="text_11">
     <!-- 0.4 -->
     <g transform="translate(347.633727 238.054456) scale(0.1 -0.1)">
      <use xlink:href="#DejaVuSans-30"/>
      <use xlink:href="#DejaVuSans-2e" x="63.623047"/>
      <use xlink:href="#DejaVuSans-34" x="95.410156"/>
     </g>
    </g>
   </g>
   <g id="text_12">
    <!-- z -->
    <g transform="translate(338.508563 278.988697) scale(0.1 -0.1)">
     <defs>
      <path id="DejaVuSans-7a" d="M 353 3500 
L 3084 3500 
L 3084 2975 
L 922 459 
L 3084 459 
L 3084 0 
L 275 0 
L 275 525 
L 2438 3041 
L 353 3041 
L 353 3500 
z
" transform="scale(0.015625)"/>
     </defs>
     <use xlink:href="#DejaVuSans-7a"/>
    </g>
   </g>
  </g>
  <g id="axis3d_3">
   <g id="line2d_13">
    <path d="M 352.090401 209.294766 
L 357.122702 99.402171 
" style="fill: none; stroke: #000000; stroke-width: 0.8; stroke-linecap: square"/>
   </g>
   <g id="xtick_11">
    <g id="line2d_14">
     <path d="M 351.462276 196.691975 
L 355.034024 197.715298 
" style="fill: none; stroke: #000000; stroke-width: 0.8; stroke-linecap: square"/>
    </g>
    <g id="text_13">
     <!-- −0.4 -->
     <g transform="translate(358.848394 202.050217) scale(0.1 -0.1)">
      <use xlink:href="#DejaVuSans-2212"/>
      <use xlink:href="#DejaVuSans-30" x="83.789062"/>
      <use xlink:href="#DejaVuSans-2e" x="147.412109"/>
      <use xlink:href="#DejaVuSans-34" x="179.199219"/>
     </g>
    </g>
   </g>
   <g id="xtick_12">
    <g id="line2d_15">
     <path d="M 352.393813 176.130123 
L 355.996504 177.13721 
" style="fill: none; stroke: #000000; stroke-width: 0.8; stroke-linecap: square"/>
    </g>
    <g id="text_14">
     <!-- −0.2 -->
     <g transform="translate(359.939887 181.523976) scale(0.1 -0.1)">
      <use xlink:href="#DejaVuSans-2212"/>
      <use xlink:href="#DejaVuSans-30" x="83.789062"/>
      <use xlink:href="#DejaVuSans-2e" x="147.412109"/>
      <use xlink:href="#DejaVuSans-32" x="179.199219"/>
     </g>
    </g>
   </g>
   <g id="xtick_13">
    <g id="line2d_16">
     <path d="M 353.341016 155.22245 
L 356.975191 156.212608 
" style="fill: none; stroke: #000000; stroke-width: 0.8; stroke-linecap: square"/>
    </g>
    <g id="text_15">
     <!-- 0.0 -->
     <g transform="translate(365.239531 160.653431) scale(0.1 -0.1)">
      <use xlink:href="#DejaVuSans-30"/>
      <use xlink:href="#DejaVuSans-2e" x="63.623047"/>
      <use xlink:href="#DejaVuSans-30" x="95.410156"/>
     </g>
    </g>
   </g>
   <g id="xtick_14">
    <g id="line2d_17">
     <path d="M 354.304285 133.960157 
L 357.970499 134.932664 
" style="fill: none; stroke: #000000; stroke-width: 0.8; stroke-linecap: square"/>
    </g>
    <g id="text_16">
     <!-- 0.2 -->
     <g transform="translate(366.368105 139.429846) scale(0.1 -0.1)">
      <use xlink:href="#DejaVuSans-30"/>
      <use xlink:href="#DejaVuSans-2e" x="63.623047"/>
      <use xlink:href="#DejaVuSans-32" x="95.410156"/>
     </g>
    </g>
   </g>
   <g id="xtick_15">
    <g id="line2d_18">
     <path d="M 355.284032 112.334145 
L 358.982853 113.288249 
" style="fill: none; stroke: #000000; stroke-width: 0.8; stroke-linecap: square"/>
    </g>
    <g id="text_17">
     <!-- 0.4 -->
     <g transform="translate(367.515933 117.844187) scale(0.1 -0.1)">
      <use xlink:href="#DejaVuSans-30"/>
      <use xlink:href="#DejaVuSans-2e" x="63.623047"/>
      <use xlink:href="#DejaVuSans-34" x="95.410156"/>
     </g>
    </g>
   </g>
   <g id="text_18">
    <!-- p_r -->
    <g transform="translate(387.197542 152.624154) scale(0.1 -0.1)">
     <defs>
      <path id="DejaVuSans-70" d="M 1159 525 
L 1159 -1331 
L 581 -1331 
L 581 3500 
L 1159 3500 
L 1159 2969 
Q 1341 3281 1617 3432 
Q 1894 3584 2278 3584 
Q 2916 3584 3314 3078 
Q 3713 2572 3713 1747 
Q 3713 922 3314 415 
Q 2916 -91 2278 -91 
Q 1894 -91 1617 61 
Q 1341 213 1159 525 
z
M 3116 1747 
Q 3116 2381 2855 2742 
Q 2594 3103 2138 3103 
Q 1681 3103 1420 2742 
Q 1159 2381 1159 1747 
Q 1159 1113 1420 752 
Q 1681 391 2138 391 
Q 2594 391 2855 752 
Q 3116 1113 3116 1747 
z
" transform="scale(0.015625)"/>
      <path id="DejaVuSans-5f" d="M 3263 -1063 
L 3263 -1509 
L -63 -1509 
L -63 -1063 
L 3263 -1063 
z
" transform="scale(0.015625)"/>
     </defs>
     <use xlink:href="#DejaVuSans-70"/>
     <use xlink:href="#DejaVuSans-5f" x="63.476562"/>
     <use xlink:href="#DejaVuSans-72" x="113.476562"/>
    </g>
   </g>
  </g>
  <g id="axes_1">
   <g id="line2d_19">
    <path d="M 268.381502 190.720464 
L 269.014992 189.985684 
L 270.657526 187.023769 
L 270.700476 182.979058 
L 267.122492 178.912344 
L 259.233321 175.155703 
L 249.398919 171.398875 
L 238.212953 166.351674 
L 227.953849 160.036459 
L 218.108816 151.025174 
L 212.72583 142.823629 
L 210.899824 135.666331 
L 212.660375 130.879395 
L 218.384655 129.702129 
L 227.734934 134.108939 
L 237.009549 141.967612 
L 246.627869 152.437799 
L 256.879879 165.131062 
L 265.124279 175.548411 
L 272.574025 184.242869 
L 278.755866 190.297659 
L 284.321796 194.361279 
L 288.084821 196.05197 
L 289.245265 196.209646 
L 288.410592 195.86827 
L 284.416233 195.257229 
L 275.498051 194.430379 
L 262.946293 192.960217 
L 250.699884 190.571335 
L 238.374825 186.80682 
L 223.837253 179.924283 
L 210.185295 169.598015 
L 200.480318 156.951828 
L 197.124164 147.411268 
L 197.458677 139.931259 
L 202.060505 134.018747 
L 211.697657 132.545257 
L 225.200399 136.833621 
L 239.79011 145.267349 
L 253.734037 155.193963 
L 265.400762 163.966911 
L 275.838966 171.581497 
L 286.351844 178.590734 
L 300.552315 187.143687 
L 303.32241 189.685086 
L 303.310727 192.215098 
L 299.257905 195.29151 
L 289.993967 198.755089 
L 279.053472 201.23179 
L 266.069127 202.770071 
L 248.738078 202.703763 
L 229.465762 199.555854 
L 211.632536 192.975259 
L 195.912437 182.599969 
L 185.287188 170.075009 
L 181.673204 160.966282 
L 181.846049 153.6107 
L 186.377276 147.823689 
L 196.034671 145.784711 
L 210.061071 148.239981 
L 224.261299 152.984403 
L 239.035443 158.545278 
L 255.979695 164.451747 
L 273.161765 169.209163 
L 285.277994 171.89366 
L 294.653978 174.162025 
L 300.137281 176.611188 
L 301.745759 180.077656 
L 298.224277 184.832526 
L 291.400221 189.186296 
L 281.979844 193.236908 
L 267.446372 197.325316 
L 248.67972 199.848282 
L 228.527543 199.386889 
L 210.154956 195.76084 
L 193.02926 188.651189 
L 180.653458 179.504467 
L 175.581628 172.887616 
L 174.150395 167.497732 
L 176.489923 163.819859 
L 183.247684 162.701514 
L 194.241058 164.299628 
L 208.310391 167.212623 
L 223.478464 169.41761 
L 239.179224 169.919749 
L 256.815355 168.439321 
L 268.693165 166.722786 
L 278.447754 165.464844 
L 285.628892 165.480473 
L 288.323653 167.168016 
L 286.488409 170.53199 
L 281.070439 174.187017 
L 272.478734 177.875084 
L 259.393139 181.331211 
L 243.460003 183.160985 
L 227.318558 182.727984 
L 210.812263 179.894591 
L 196.485276 175.235877 
L 188.441998 171.555589 
L 184.009398 169.19185 
L 183.063813 168.929617 
L 185.772518 171.396263 
L 191.916705 176.063728 
L 199.165694 180.248972 
L 207.510147 183.076241 
L 217.478683 183.65134 
L 228.689326 181.162142 
L 239.664224 176.405848 
L 250.17737 170.603125 
L 259.282345 165.227805 
L 266.108443 161.34313 
L 270.606118 159.074906 
L 272.795218 158.299005 
L 271.502353 159.146071 
L 266.499766 160.968561 
L 258.584303 162.753612 
L 247.993664 163.764261 
L 235.435434 163.243495 
L 222.595982 160.868035 
L 211.417339 157.287209 
L 204.43673 154.624847 
L 201.841431 154.5525 
L 202.777295 158.161191 
L 206.934357 165.588181 
L 211.793097 173.052841 
L 217.584412 180.612184 
L 224.059552 186.975948 
L 230.97781 190.929409 
L 238.568032 191.731219 
L 244.680651 189.857104 
L 250.290142 186.397346 
L 256.341965 180.987123 
L 261.235397 175.167062 
L 264.371527 169.594124 
L 264.423565 165.493272 
L 261.404234 163.011004 
L 255.032209 160.962835 
L 246.336618 158.618762 
L 237.47622 155.54859 
L 227.607736 150.627499 
L 219.249678 144.321067 
L 214.913734 138.97982 
L 214.462662 136.346776 
L 217.531194 137.368686 
L 223.962927 143.753768 
L 230.312894 151.972006 
L 237.249278 161.999419 
L 245.30736 173.860039 
L 251.718004 182.491131 
L 257.817383 189.218131 
L 263.99197 193.82335 
L 269.640352 195.45853 
L 273.526126 194.569374 
L 275.698427 192.412363 
L 275.984774 189.820637 
L 273.437337 186.648899 
L 266.34501 183.313634 
L 254.694103 179.452353 
L 243.977473 175.430478 
L 232.833824 169.881805 
L 221.311346 161.623881 
L 211.906068 150.865001 
L 208.022033 142.588116 
L 207.385979 135.53308 
L 210.399936 130.306543 
L 217.73645 129.08564 
L 228.763985 133.680145 
L 240.637293 142.796397 
L 251.601326 153.614526 
L 270.810969 174.856075 
L 277.89958 182.23403 
L 284.698804 188.422358 
L 290.529657 192.760069 
L 294.126287 195.052811 
L 294.74661 196.040464 
L 292.571778 196.602852 
L 286.267869 197.186317 
L 274.43276 197.520729 
L 262.269155 196.92617 
L 248.417104 194.883262 
L 233.348241 190.615666 
L 217.442365 182.951654 
L 203.507133 171.792458 
L 194.425865 158.74776 
L 191.836333 148.954836 
L 193.362075 141.493217 
L 199.718435 136.520128 
L 211.173132 136.520359 
L 225.966383 141.83676 
L 241.169794 150.063004 
L 268.829546 166.79915 
L 281.731099 173.824689 
L 299.322227 182.285944 
L 303.356812 184.894927 
L 304.853363 187.815157 
L 302.310811 191.507816 
L 294.552759 195.842485 
L 283.31636 199.645656 
L 269.982971 202.385109 
L 252.237598 203.727152 
L 232.114936 202.087947 
L 213.956311 197.181729 
L 197.071617 188.435466 
L 184.462701 176.846894 
L 179.042915 167.412595 
L 178.009173 159.290951 
L 181.293442 153.507315 
L 189.488459 150.80873 
L 202.228373 152.076933 
L 218.065217 156.322123 
L 234.028335 161.088195 
L 251.471135 165.450991 
L 269.655091 168.475692 
L 281.403957 169.818302 
L 290.683698 171.112293 
L 296.738274 173.12186 
L 298.526189 176.360703 
L 295.130975 181.032194 
L 288.096423 185.538446 
L 278.09981 189.773534 
L 263.01377 193.827953 
L 244.095207 196.067639 
L 225.490857 195.435861 
L 207.409815 191.83681 
L 191.09582 185.233752 
L 180.857309 178.298561 
L 176.210685 173.185774 
L 174.883919 169.595818 
L 176.92419 167.35882 
L 183.184007 167.615717 
L 193.433048 169.998023 
L 205.776479 172.584501 
L 219.682678 173.7971 
L 234.615213 172.778979 
L 250.604577 169.524274 
L 272.431119 163.71389 
L 279.277697 162.565408 
L 282.907015 163.05473 
L 282.705907 165.25334 
L 277.779886 168.847679 
L 269.16237 172.445978 
L 257.14992 175.390614 
L 244.103031 176.761391 
L 228.76326 176.304637 
L 213.342189 173.655884 
L 200.156317 169.594829 
L 193.118823 166.842646 
L 189.468096 165.613258 
L 188.565916 166.576315 
L 191.276811 170.690798 
L 196.945649 176.860031 
L 203.002412 181.830324 
L 210.024045 185.548339 
L 217.995709 187.127805 
L 227.477592 185.740241 
L 236.823997 181.677453 
L 244.48304 176.990604 
L 251.7855 171.835112 
L 263.873872 162.692912 
L 267.921696 159.514302 
L 268.990258 158.178975 
L 266.943731 158.265701 
L 261.827194 159.062642 
L 254.031167 159.771314 
L 243.954199 159.612457 
L 232.357544 157.895446 
L 221.054047 154.524288 
L 213.261944 151.126695 
L 208.549904 148.778977 
L 207.039282 148.845121 
L 209.130516 153.060054 
L 213.538297 160.365716 
L 218.396703 168.071503 
L 223.873442 176.091219 
L 229.999036 183.689968 
L 236.323533 189.423185 
L 243.360767 192.743329 
L 249.345778 192.838092 
L 254.897525 190.667393 
L 260.210699 186.459769 
L 264.30021 181.190941 
L 266.255328 176.025279 
L 265.073691 171.447033 
L 260.30299 168.066181 
L 243.642957 161.641785 
L 234.659917 157.365929 
L 224.847917 150.819678 
L 217.217259 142.874475 
L 214.110504 136.493455 
L 214.764369 132.911941 
L 219.064087 132.968147 
L 226.783612 138.52591 
L 234.328043 146.710027 
L 242.330694 157.125361 
L 251.226958 169.656868 
L 258.454352 179.54232 
L 265.142457 187.499257 
L 271.101894 192.872683 
L 276.520629 195.716381 
L 280.149298 195.962208 
L 281.683832 194.885145 
L 281.288889 193.287218 
L 277.886643 191.207697 
L 269.709754 188.816947 
L 256.479407 185.546545 
L 245.077158 181.93252 
L 233.315439 176.751915 
L 220.513485 168.469579 
L 209.637302 157.25553 
L 204.256005 147.211755 
L 203.047701 138.34696 
L 205.945419 132.117027 
L 213.463439 129.59501 
L 225.153934 132.804065 
L 236.872247 139.917469 
L 248.951052 149.686319 
L 261.752259 161.555515 
L 270.879813 170.261631 
L 278.790204 177.494963 
L 286.850598 184.182197 
L 297.998266 192.163842 
L 299.642646 194.128055 
L 298.52607 195.65721 
L 293.563187 197.426255 
L 283.300524 199.311815 
L 272.117636 200.263885 
L 258.842006 200.143679 
L 242.648113 198.045673 
L 226.309623 193.322307 
L 209.715327 184.802041 
L 196.163182 172.90913 
L 188.9676 161.485944 
L 186.926305 151.152177 
L 189.58558 144.077964 
L 197.353456 140.154794 
L 210.037529 141.24468 
L 225.646168 146.86324 
L 241.083032 154.21999 
L 255.569066 161.396086 
L 270.834298 168.326355 
L 285.169938 173.847832 
L 294.115461 177.005273 
L 300.563512 179.738205 
L 303.985604 182.662643 
L 303.519858 186.401856 
L 297.847444 191.166643 
L 289.263281 195.300945 
L 277.948169 198.968641 
L 261.7677 202.04988 
L 242.021183 202.913152 
L 222.305261 200.457408 
L 204.174507 194.526686 
L 188.451313 184.934093 
L 178.654629 174.08873 
L 175.594357 166.396034 
L 176.341729 160.644882 
L 181.413738 156.754946 
L 191.182748 156.178844 
L 204.937153 158.705383 
L 220.61256 162.511708 
L 236.235577 165.672663 
L 254.672712 167.739273 
L 269.971667 168.160243 
L 281.122862 168.217291 
L 289.16728 168.831836 
L 293.893549 170.806693 
L 293.834324 174.106343 
L 288.545106 178.876277 
L 279.322856 183.524129 
L 266.437785 187.636958 
L 249.224778 190.503699 
L 231.489213 190.84787 
L 213.842315 188.540664 
L 197.419299 183.593843 
L 184.944582 177.257249 
L 179.572545 173.171128 
L 177.529572 170.602452 
L 178.607458 169.608009 
L 183.668332 171.109938 
L 192.402398 174.414454 
L 202.978156 177.325385 
L 214.933256 178.388235 
L 228.346832 176.781719 
L 242.189362 172.720261 
L 255.356163 167.567723 
L 266.064672 163.240649 
L 272.899976 160.903454 
L 277.193653 160.113869 
L 278.431321 160.986876 
L 275.568356 163.43511 
L 268.50788 166.544127 
L 258.983493 169.048931 
L 246.733169 170.535863 
L 232.539547 170.271214 
L 218.177004 167.969536 
L 205.71193 164.352332 
L 198.649965 161.858723 
L 195.063901 161.119624 
L 194.567339 163.181318 
L 197.600425 168.767919 
L 203.09933 176.23218 
L 208.590389 182.059898 
L 214.828145 186.710373 
L 222.230488 189.416241 
L 230.634104 188.997434 
L 237.626984 186.268119 
L 244.554091 181.936475 
L 251.105139 176.755445 
L 257.611495 170.847275 
L 263.000549 165.339444 
L 265.881021 161.461731 
L 265.840915 159.65898 
L 263.543857 158.85894 
L 249.564453 157.922319 
L 239.956426 156.381497 
L 229.307102 153.226879 
L 219.638993 148.657469 
L 213.91418 144.844046 
L 211.465828 142.788159 
L 212.269637 143.826666 
L 216.551184 149.651991 
L 221.923848 157.697496 
L 228.316425 167.535251 
L 235.368292 177.751675 
L 241.852127 185.630204 
L 248.015664 191.034332 
L 254.718463 193.98228 
L 260.70702 193.634108 
L 265.358034 191.032108 
L 268.747445 186.868164 
L 269.803369 182.726038 
L 267.807203 178.389142 
L 261.624144 174.553121 
L 252.012641 170.740425 
L 242.636425 166.831872 
L 233.310821 161.912165 
L 222.96514 154.250132 
L 214.993463 144.821928 
L 211.993128 137.660048 
L 212.313687 132.475988 
L 216.298772 129.955938 
L 224.128172 132.434929 
L 233.272893 139.468123 
L 243.138357 149.952784 
L 253.023009 162.301566 
L 262.533437 174.696054 
L 269.503218 183.178425 
L 275.513565 189.428651 
L 281.278191 193.959139 
L 285.628711 196.013669 
L 287.490258 196.202541 
L 287.158843 195.629788 
L 283.933973 194.741115 
L 262.734429 191.742612 
L 250.805232 189.211274 
L 238.143988 185.128535 
L 224.026 178.153615 
L 210.757855 167.777342 
L 201.459749 155.205693 
L 198.380547 145.695789 
L 199.048765 138.321568 
L 204.07836 132.814295 
L 214.057349 131.989016 
L 227.5849 136.936789 
L 241.857027 145.790187 
L 255.73749 156.258425 
L 266.791919 165.033327 
L 276.515511 172.525789 
L 286.454433 179.54833 
L 300.178273 188.241704 
L 302.79597 190.769494 
L 302.554647 193.110185 
L 298.352538 195.926591 
L 288.929783 199.088068 
L 278.158302 201.239795 
L 265.6924 202.464481 
L 248.789363 202.131622 
L 229.86417 198.778274 
L 212.186587 191.998482 
L 196.649717 181.446987 
L 186.202725 168.768485 
L 182.716501 159.501211 
L 183.039815 152.199191 
L 187.765536 146.401095 
L 197.656187 144.490511 
L 211.866575 147.215877 
L 225.786919 152.130123 
L 240.090165 157.846412 
L 256.683077 164.121518 
L 273.510709 169.345462 
L 294.609443 174.766306 
L 300.263305 177.157437 
L 302.502018 180.49931 
L 299.801647 185.040083 
L 293.790048 189.221283 
L 284.638317 193.42027 
L 271.09741 197.537 
L 253.026037 200.420466 
L 232.675934 200.508425 
L 214.459518 197.499505 
L 197.197353 191.143352 
L 183.28588 181.914938 
L 176.564335 174.135698 
L 174.236349 167.523513 
L 175.998545 163.208408 
L 182.164189 161.294125 
L 192.7033 162.318368 
L 206.751274 165.235123 
L 222.045017 167.934281 
L 237.185858 169.159344 
L 255.287698 168.574886 
L 279.178312 166.109661 
L 286.627372 166.265317 
L 289.658895 168.077848 
L 288.003674 171.525837 
L 282.616182 175.320598 
L 273.923723 179.181362 
L 260.806722 182.802586 
L 244.365931 184.860804 
L 228.225576 184.589359 
L 211.399052 181.873405 
L 196.537018 177.122744 
L 187.649102 172.953631 
L 181.66274 169.322661 
L 184.21675 171.16391 
L 190.367674 175.308983 
L 197.855764 179.273891 
L 206.534352 182.010345 
L 216.951609 182.572213 
L 228.719605 180.098418 
L 240.252678 175.366924 
L 251.340072 169.601001 
L 260.855139 164.375472 
L 267.258438 161.058824 
L 271.603238 159.13862 
L 273.928661 158.571191 
L 272.750305 159.642192 
L 267.674248 161.744888 
L 259.670032 163.778638 
L 248.900162 165.050384 
L 236.070891 164.789401 
L 222.843031 162.628837 
L 211.136093 159.13775 
L 204.188753 156.570457 
L 200.733287 155.857744 
L 200.509941 158.276366 
L 203.774215 164.646248 
L 208.506523 172.076886 
L 213.749267 179.075525 
L 219.476932 185.100716 
L 225.828711 189.512402 
L 233.415538 191.461349 
L 239.969158 190.368771 
L 246.380009 187.133429 
L 252.554063 182.316043 
L 258.477589 176.264877 
L 262.859822 170.466771 
L 264.808751 165.697066 
L 263.520124 162.786504 
L 259.581725 161.060681 
L 252.106175 159.326342 
L 243.536411 157.176488 
L 233.875902 153.721825 
L 224.20266 148.532282 
L 217.822952 143.478684 
L 214.439195 139.372654 
L 214.239359 137.480321 
L 217.602472 139.601396 
L 223.976588 146.863517 
L 230.490375 155.897944 
L 237.323204 166.075019 
L 245.281948 177.610535 
L 251.825392 185.788139 
L 257.82513 191.442654 
L 264.049594 194.754756 
L 269.27249 194.962374 
L 272.968933 192.929523 
L 274.57278 189.79224 
L 273.561228 186.472591 
L 268.615688 182.943942 
L 258.939945 179.263672 
L 248.152573 175.388883 
L 236.321714 169.983991 
L 225.257993 162.863177 
L 215.115083 152.896411 
L 209.86164 143.965285 
L 208.366567 136.135679 
L 210.6303 130.747864 
L 217.088772 129.003024 
L 227.34585 132.902205 
L 237.558415 140.502484 
L 248.091225 150.798915 
L 259.234068 163.33605 
L 267.956274 173.472166 
L 275.797167 182.064477 
L 282.414549 188.380657 
L 288.297918 192.903469 
L 292.23266 195.265049 
L 293.333166 196.058257 
L 292.244022 196.375206 
L 287.740629 196.609514 
L 278.121617 196.732753 
L 265.60673 196.159316 
L 252.201138 194.34288 
L 238.082392 190.721694 
L 222.538617 184.01856 
L 208.036687 173.746765 
L 197.565423 160.967702 
L 193.741962 151.391406 
L 193.677363 143.225071 
L 197.93899 136.933609 
L 207.387365 134.795762 
L 221.057665 138.274288 
L 236.261041 145.959359 
L 250.417249 154.77421 
L 263.53798 163.298326 
L 275.941425 170.947379 
L 287.767522 177.45311 
L 296.475326 181.83095 
L 301.711399 184.762494 
L 304.364597 187.312794 
L 304.077824 190.404112 
L 299.138143 194.251733 
L 291.120954 197.687655 
L 279.946758 200.808564 
L 265.66847 203.06405 
L 247.274719 203.520618 
L 227.41625 200.743487 
L 209.31567 194.490292 
L 193.418244 184.456 
L 182.762646 172.394605 
L 179.132233 163.704114 
L 179.227473 156.741172 
L 183.577897 151.275079 
L 192.925958 149.316431 
L 206.622059 151.437686 
L 222.826249 156.2615 
L 238.481503 161.212512 
L 256.260405 165.90347 
L 273.958877 169.134983 
L 284.530723 170.636934 
L 292.694784 172.122001 
L 298.224216 174.407008 
L 299.439755 177.822591 
L 295.445511 182.66362 
L 286.738444 187.789919 
L 275.30147 192.137894 
L 258.946696 195.886834 
L 239.353429 197.418082 
L 221.554322 196.080597 
L 203.628686 191.67322 
L 187.972676 184.276902 
L 179.025934 177.211459 
L 175.119968 171.815361 
L 174.728287 168.08837 
L 178.136494 166.111242 
L 185.852494 166.746065 
L 197.414034 169.294675 
L 210.809272 171.716712 
L 225.459577 172.565544 
L 241.970312 171.088949 
L 258.05539 167.818113 
L 269.692176 165.060656 
L 278.51949 163.458151 
L 283.726516 163.65639 
L 284.611932 165.557484 
L 280.900158 169.062286 
L 272.813429 173.008412 
L 261.764945 176.279666 
L 247.505494 178.368413 
L 232.263741 178.455371 
L 216.339276 176.298033 
L 202.041385 172.31629 
L 188.337708 166.884689 
L 186.845032 167.069702 
L 188.927372 170.233318 
L 194.276531 175.794509 
L 200.553381 180.778423 
L 208.009264 184.621718 
L 216.481347 186.250625 
L 226.361952 184.859354 
L 236.169194 180.776232 
L 245.436132 175.294897 
L 252.186832 170.73937 
L 270.046093 158.096162 
L 268.353457 158.355951 
L 263.723576 159.379621 
L 256.059727 160.462505 
L 246.058181 160.760194 
L 234.257614 159.559545 
L 222.418871 156.622063 
L 212.547714 152.76709 
L 207.184632 150.360353 
L 205.59696 150.674758 
L 207.629856 155.125524 
L 211.953085 162.445621 
L 216.691757 169.920654 
L 222.148537 177.686597 
L 228.901741 185.47478 
L 235.248815 190.394027 
L 242.477505 192.732814 
L 248.260196 192.037802 
L 253.483918 189.512455 
L 259.000382 184.875766 
L 263.288215 179.385321 
L 265.532668 174.026659 
L 264.632416 169.539343 
L 260.324121 166.405435 
L 252.717797 163.541044 
L 243.24949 160.129366 
L 234.122516 155.910025 
L 224.456848 149.561239 
L 217.805003 142.925774 
L 214.554671 137.128871 
L 214.832914 133.787641 
L 218.692524 134.019521 
L 225.971447 139.703452 
L 233.179281 147.910566 
L 240.903508 158.297503 
L 249.534145 170.683764 
L 256.559845 180.334182 
L 263.11081 188.036199 
L 269.102986 193.222802 
L 274.567166 195.750823 
L 278.223574 195.683438 
L 279.93012 194.324808 
L 279.733062 192.433602 
L 276.587922 190.035143 
L 268.739737 187.343161 
L 255.942123 183.851216 
L 244.722204 180.085691 
L 233.052428 174.720065 
L 220.650123 166.394914 
L 210.235576 155.251993 
L 205.351913 145.692435 
L 204.374419 137.350723 
L 207.371306 131.40671 
L 214.9092 129.284958 
L 226.465511 132.935523 
L 237.758835 140.245069 
L 249.337968 150.094775 
L 261.746205 162.172612 
L 270.529693 170.974863 
L 278.48081 178.599711 
L 286.13099 185.213351 
L 292.804431 190.188769 
L 296.85566 193.01198 
L 298.367274 194.787587 
L 297.143544 196.046606 
L 292.137237 197.474234 
L 281.830164 198.957274 
L 270.195648 199.572004 
L 256.386396 198.979943 
L 240.413362 196.309363 
L 223.949634 190.785986 
L 207.929342 181.497669 
L 195.443383 169.125217 
L 189.598478 158.253855 
L 188.459898 148.694181 
L 191.873858 141.906398 
L 200.489648 138.714713 
L 213.798857 140.758381 
L 227.781018 146.314983 
L 242.551191 153.772687 
L 256.12065 160.945918 
L 270.762234 168.179296 
L 284.713327 174.133049 
L 294.161777 177.778693 
L 300.916302 180.795898 
L 304.245959 183.663474 
L 303.901719 187.273048 
L 298.451757 191.86709 
L 290.354496 195.754257 
L 279.905755 199.176228 
L 264.520857 202.23458 
L 245.256355 203.319293 
L 225.137803 201.106407 
L 206.871494 195.440256 
L 190.654985 185.959466 
L 180.051381 174.780019 
L 176.441974 166.845042 
L 176.455616 160.765048 
L 180.538293 156.00158 
L 189.412663 154.441862 
L 202.537368 156.36327 
L 218.339488 160.344033 
L 234.24014 164.139104 
L 252.267787 167.060142 
L 270.35773 168.343905 
L 281.559812 168.752985 
L 289.619257 169.508441 
L 294.850558 171.477268 
L 295.434983 174.59311 
L 290.943735 179.311959 
L 282.035779 184.190975 
L 269.897548 188.431907 
L 253.106111 191.725858 
L 234.414355 192.586636 
L 216.720403 190.712957 
L 199.692622 186.031616 
L 186.005224 179.382854 
L 179.578939 174.572596 
L 176.709741 171.000503 
L 177.340722 169.24291 
L 181.95531 169.869934 
L 190.481163 172.620936 
L 201.556789 175.618673 
L 213.887445 177.01787 
L 227.623613 175.948335 
L 242.246235 172.325043 
L 256.075913 167.494974 
L 267.251731 163.426648 
L 274.438282 161.288989 
L 278.797196 160.797184 
L 279.759782 162.020261 
L 276.451939 164.799262 
L 268.954443 168.115871 
L 258.776998 170.790804 
L 246.283116 172.299094 
L 231.754516 172.037169 
L 217.054535 169.693676 
L 204.306806 165.990426 
L 197.174247 163.430807 
L 193.482283 162.524836 
L 192.749207 164.207488 
L 195.581002 169.315152 
L 201.054637 176.404462 
L 206.762856 182.099371 
L 213.312075 186.549162 
L 220.796426 188.861418 
L 229.462387 188.122907 
L 236.902961 185.086076 
L 244.300522 180.444572 
L 250.71383 175.510489 
L 257.321984 169.833013 
L 263.015823 164.514628 
L 266.35508 160.78231 
L 266.724241 159.092214 
L 264.632831 158.489735 
L 259.11042 158.486439 
L 251.139585 158.341862 
L 241.478178 157.273361 
L 230.568226 154.627235 
L 220.35506 150.473317 
L 213.975922 146.815703 
L 210.776226 144.626251 
L 210.53464 145.012237 
L 213.872232 149.932426 
L 225.289865 167.566354 
L 231.884098 177.162581 
L 238.216735 184.932538 
L 244.252737 190.355728 
L 251.069573 193.561917 
L 256.748999 193.572185 
L 261.558781 191.49 
L 265.928003 187.404429 
L 268.249356 182.994893 
L 268.138484 178.360979 
L 264.203775 174.234618 
L 256.560195 170.681943 
L 247.415023 167.111216 
L 237.23197 162.389174 
L 227.174698 156.0096 
L 218.15063 147.378785 
L 213.925383 140.625703 
L 212.565962 134.991902 
L 214.385526 131.122338 
L 220.045778 131.181708 
L 229.059201 136.928721 
L 238.794902 146.769164 
L 247.84668 157.975593 
L 257.377048 170.732315 
L 264.333229 179.77467 
L 270.666731 187.072974 
L 276.63119 192.509776 
L 281.82105 195.577255 
L 284.998783 196.244444 
L 285.871805 195.666179 
L 284.502913 194.648847 
L 279.536273 193.30272 
L 269.305302 191.576659 
L 256.792711 189.174447 
L 244.035789 185.577835 
L 231.256354 180.207971 
L 217.567699 171.44412 
L 206.321858 159.723876 
L 200.902029 149.306543 
L 199.819413 140.121359 
L 203.003125 133.619836 
L 211.022612 130.887084 
L 223.316599 133.864775 
L 235.70093 140.697546 
L 248.502911 150.044612 
L 273.484346 170.749947 
L 282.9552 178.130049 
L 291.750101 184.25533 
L 298.498253 188.624044 
L 301.512946 191.068624 
L 302.140892 193.049671 
L 299.639553 195.377628 
L 292.34679 198.123986 
L 282.212323 200.354296 
L 269.111332 201.820099 
L 253.919449 201.801258 
L 235.56106 199.164172 
L 218.112739 193.391211 
L 201.811476 183.746057 
L 189.687724 171.205849 
L 184.636012 161.034829 
L 183.978514 152.255251 
L 187.796346 145.869143 
L 196.796677 143.085348 
L 210.395886 145.121147 
L 224.327283 149.987747 
L 255.031499 162.848999 
L 271.516233 168.758272 
L 293.716658 175.18116 
L 299.595283 177.421754 
L 302.968563 180.471977 
L 301.929033 184.530329 
L 296.576238 188.977484 
L 287.217587 193.617122 
L 274.789718 197.673198 
L 257.610749 200.847627 
L 237.415274 201.513772 
L 218.911996 199.058853 
L 201.088686 193.198401 
L 185.981519 184.010781 
L 177.786187 175.321686 
L 174.658595 168.417224 
L 175.251906 163.346529 
L 180.04686 160.156529 
L 189.395563 160.017994 
L 202.670726 162.496356 
L 217.882011 165.701376 
L 233.455717 167.919384 
L 251.670946 168.540302 
L 266.578875 167.725011 
L 277.932654 166.878598 
L 286.172804 166.888718 
L 290.712191 168.454992 
L 290.499212 171.52011 
L 285.131849 176.026431 
L 275.970518 180.390078 
L 263.069733 184.204964 
L 248.131481 186.467169 
L 232.930146 186.780222 
L 215.799445 184.763682 
L 199.800135 180.3411 
L 187.63319 174.856024 
L 182.214414 171.480584 
L 180.251011 169.807445 
L 181.635459 170.265998 
L 186.848704 173.292984 
L 194.172552 177.088176 
L 203.267486 180.257785 
L 213.844139 181.45774 
L 225.855493 179.804327 
L 238.069614 175.610981 
L 249.957072 170.065469 
L 260.47989 164.742327 
L 267.515197 161.383699 
L 272.544333 159.401936 
L 275.15148 158.961489 
L 274.296114 160.183268 
L 269.371456 162.537841 
L 261.32278 164.872868 
L 250.536252 166.461187 
L 237.507233 166.562871 
L 223.851351 164.72282 
L 211.455099 161.363482 
L 203.959327 158.700825 
L 199.829262 157.505215 
L 198.432264 158.776751 
L 200.623239 163.884461 
L 205.548626 171.767481 
L 210.592831 178.472349 
L 216.395678 184.541632 
L 222.597038 188.863311 
L 230.238397 190.962165 
L 237.200823 189.946263 
L 244.10827 186.590208 
L 250.291314 181.988121 
L 256.635025 175.972568 
L 261.667336 170.146947 
L 264.692644 165.153789 
L 264.732359 162.392466 
L 262.328086 160.697554 
L 256.451347 159.381123 
L 248.168516 157.891763 
L 239.152005 155.590554 
L 229.021893 151.608308 
L 220.028503 146.210356 
L 215.075946 141.817399 
L 213.359401 139.26139 
L 214.946806 139.82745 
L 220.057843 145.450092 
L 225.990888 153.571624 
L 240.353564 174.933636 
L 246.58729 183.170999 
L 252.630494 189.519534 
L 259.019871 193.773287 
L 264.371695 194.913186 
L 268.615382 193.840874 
L 271.972958 190.857165 
L 273.023463 187.466067 
L 271.315949 183.715886 
L 265.316803 179.987506 
L 255.050246 176.104454 
L 244.786461 172.100339 
L 233.942393 166.658931 
L 223.044408 158.904282 
L 214.008914 148.782151 
L 210.252237 141.049656 
L 209.597229 134.733186 
L 212.392071 130.091629 
L 219.321045 129.521319 
L 229.735236 134.754448 
L 229.735236 134.754448 
" clip-path="url(#p2dbcac7d9c)" style="fill: none; stroke: #1f77b4; stroke-width: 0.5; stroke-linecap: square"/>
   </g>
   <g id="text_19">
    <!-- Projection onto r-z-p_r space with initial r = 0.20 -->
    <g transform="translate(91.219688 35.472) scale(0.12 -0.12)">
     <defs>
      <path id="DejaVuSans-50" d="M 1259 4147 
L 1259 2394 
L 2053 2394 
Q 2494 2394 2734 2622 
Q 2975 2850 2975 3272 
Q 2975 3691 2734 3919 
Q 2494 4147 2053 4147 
L 1259 4147 
z
M 628 4666 
L 2053 4666 
Q 2838 4666 3239 4311 
Q 3641 3956 3641 3272 
Q 3641 2581 3239 2228 
Q 2838 1875 2053 1875 
L 1259 1875 
L 1259 0 
L 628 0 
L 628 4666 
z
" transform="scale(0.015625)"/>
      <path id="DejaVuSans-6f" d="M 1959 3097 
Q 1497 3097 1228 2736 
Q 959 2375 959 1747 
Q 959 1119 1226 758 
Q 1494 397 1959 397 
Q 2419 397 2687 759 
Q 2956 1122 2956 1747 
Q 2956 2369 2687 2733 
Q 2419 3097 1959 3097 
z
M 1959 3584 
Q 2709 3584 3137 3096 
Q 3566 2609 3566 1747 
Q 3566 888 3137 398 
Q 2709 -91 1959 -91 
Q 1206 -91 779 398 
Q 353 888 353 1747 
Q 353 2609 779 3096 
Q 1206 3584 1959 3584 
z
" transform="scale(0.015625)"/>
      <path id="DejaVuSans-6a" d="M 603 3500 
L 1178 3500 
L 1178 -63 
Q 1178 -731 923 -1031 
Q 669 -1331 103 -1331 
L -116 -1331 
L -116 -844 
L 38 -844 
Q 366 -844 484 -692 
Q 603 -541 603 -63 
L 603 3500 
z
M 603 4863 
L 1178 4863 
L 1178 4134 
L 603 4134 
L 603 4863 
z
" transform="scale(0.015625)"/>
      <path id="DejaVuSans-65" d="M 3597 1894 
L 3597 1613 
L 953 1613 
Q 991 1019 1311 708 
Q 1631 397 2203 397 
Q 2534 397 2845 478 
Q 3156 559 3463 722 
L 3463 178 
Q 3153 47 2828 -22 
Q 2503 -91 2169 -91 
Q 1331 -91 842 396 
Q 353 884 353 1716 
Q 353 2575 817 3079 
Q 1281 3584 2069 3584 
Q 2775 3584 3186 3129 
Q 3597 2675 3597 1894 
z
M 3022 2063 
Q 3016 2534 2758 2815 
Q 2500 3097 2075 3097 
Q 1594 3097 1305 2825 
Q 1016 2553 972 2059 
L 3022 2063 
z
" transform="scale(0.015625)"/>
      <path id="DejaVuSans-63" d="M 3122 3366 
L 3122 2828 
Q 2878 2963 2633 3030 
Q 2388 3097 2138 3097 
Q 1578 3097 1268 2742 
Q 959 2388 959 1747 
Q 959 1106 1268 751 
Q 1578 397 2138 397 
Q 2388 397 2633 464 
Q 2878 531 3122 666 
L 3122 134 
Q 2881 22 2623 -34 
Q 2366 -91 2075 -91 
Q 1284 -91 818 406 
Q 353 903 353 1747 
Q 353 2603 823 3093 
Q 1294 3584 2113 3584 
Q 2378 3584 2631 3529 
Q 2884 3475 3122 3366 
z
" transform="scale(0.015625)"/>
      <path id="DejaVuSans-74" d="M 1172 4494 
L 1172 3500 
L 2356 3500 
L 2356 3053 
L 1172 3053 
L 1172 1153 
Q 1172 725 1289 603 
Q 1406 481 1766 481 
L 2356 481 
L 2356 0 
L 1766 0 
Q 1100 0 847 248 
Q 594 497 594 1153 
L 594 3053 
L 172 3053 
L 172 3500 
L 594 3500 
L 594 4494 
L 1172 4494 
z
" transform="scale(0.015625)"/>
      <path id="DejaVuSans-69" d="M 603 3500 
L 1178 3500 
L 1178 0 
L 603 0 
L 603 3500 
z
M 603 4863 
L 1178 4863 
L 1178 4134 
L 603 4134 
L 603 4863 
z
" transform="scale(0.015625)"/>
      <path id="DejaVuSans-6e" d="M 3513 2113 
L 3513 0 
L 2938 0 
L 2938 2094 
Q 2938 2591 2744 2837 
Q 2550 3084 2163 3084 
Q 1697 3084 1428 2787 
Q 1159 2491 1159 1978 
L 1159 0 
L 581 0 
L 581 3500 
L 1159 3500 
L 1159 2956 
Q 1366 3272 1645 3428 
Q 1925 3584 2291 3584 
Q 2894 3584 3203 3211 
Q 3513 2838 3513 2113 
z
" transform="scale(0.015625)"/>
      <path id="DejaVuSans-20" transform="scale(0.015625)"/>
      <path id="DejaVuSans-2d" d="M 313 2009 
L 1997 2009 
L 1997 1497 
L 313 1497 
L 313 2009 
z
" transform="scale(0.015625)"/>
      <path id="DejaVuSans-73" d="M 2834 3397 
L 2834 2853 
Q 2591 2978 2328 3040 
Q 2066 3103 1784 3103 
Q 1356 3103 1142 2972 
Q 928 2841 928 2578 
Q 928 2378 1081 2264 
Q 1234 2150 1697 2047 
L 1894 2003 
Q 2506 1872 2764 1633 
Q 3022 1394 3022 966 
Q 3022 478 2636 193 
Q 2250 -91 1575 -91 
Q 1294 -91 989 -36 
Q 684 19 347 128 
L 347 722 
Q 666 556 975 473 
Q 1284 391 1588 391 
Q 1994 391 2212 530 
Q 2431 669 2431 922 
Q 2431 1156 2273 1281 
Q 2116 1406 1581 1522 
L 1381 1569 
Q 847 1681 609 1914 
Q 372 2147 372 2553 
Q 372 3047 722 3315 
Q 1072 3584 1716 3584 
Q 2034 3584 2315 3537 
Q 2597 3491 2834 3397 
z
" transform="scale(0.015625)"/>
      <path id="DejaVuSans-61" d="M 2194 1759 
Q 1497 1759 1228 1600 
Q 959 1441 959 1056 
Q 959 750 1161 570 
Q 1363 391 1709 391 
Q 2188 391 2477 730 
Q 2766 1069 2766 1631 
L 2766 1759 
L 2194 1759 
z
M 3341 1997 
L 3341 0 
L 2766 0 
L 2766 531 
Q 2569 213 2275 61 
Q 1981 -91 1556 -91 
Q 1019 -91 701 211 
Q 384 513 384 1019 
Q 384 1609 779 1909 
Q 1175 2209 1959 2209 
L 2766 2209 
L 2766 2266 
Q 2766 2663 2505 2880 
Q 2244 3097 1772 3097 
Q 1472 3097 1187 3025 
Q 903 2953 641 2809 
L 641 3341 
Q 956 3463 1253 3523 
Q 1550 3584 1831 3584 
Q 2591 3584 2966 3190 
Q 3341 2797 3341 1997 
z
" transform="scale(0.015625)"/>
      <path id="DejaVuSans-77" d="M 269 3500 
L 844 3500 
L 1563 769 
L 2278 3500 
L 2956 3500 
L 3675 769 
L 4391 3500 
L 4966 3500 
L 4050 0 
L 3372 0 
L 2619 2869 
L 1863 0 
L 1184 0 
L 269 3500 
z
" transform="scale(0.015625)"/>
      <path id="DejaVuSans-68" d="M 3513 2113 
L 3513 0 
L 2938 0 
L 2938 2094 
Q 2938 2591 2744 2837 
Q 2550 3084 2163 3084 
Q 1697 3084 1428 2787 
Q 1159 2491 1159 1978 
L 1159 0 
L 581 0 
L 581 4863 
L 1159 4863 
L 1159 2956 
Q 1366 3272 1645 3428 
Q 1925 3584 2291 3584 
Q 2894 3584 3203 3211 
Q 3513 2838 3513 2113 
z
" transform="scale(0.015625)"/>
      <path id="DejaVuSans-6c" d="M 603 4863 
L 1178 4863 
L 1178 0 
L 603 0 
L 603 4863 
z
" transform="scale(0.015625)"/>
      <path id="DejaVuSans-3d" d="M 678 2906 
L 4684 2906 
L 4684 2381 
L 678 2381 
L 678 2906 
z
M 678 1631 
L 4684 1631 
L 4684 1100 
L 678 1100 
L 678 1631 
z
" transform="scale(0.015625)"/>
     </defs>
     <use xlink:href="#DejaVuSans-50"/>
     <use xlink:href="#DejaVuSans-72" x="58.552734"/>
     <use xlink:href="#DejaVuSans-6f" x="97.416016"/>
     <use xlink:href="#DejaVuSans-6a" x="158.597656"/>
     <use xlink:href="#DejaVuSans-65" x="186.380859"/>
     <use xlink:href="#DejaVuSans-63" x="247.904297"/>
     <use xlink:href="#DejaVuSans-74" x="302.884766"/>
     <use xlink:href="#DejaVuSans-69" x="342.09375"/>
     <use xlink:href="#DejaVuSans-6f" x="369.876953"/>
     <use xlink:href="#DejaVuSans-6e" x="431.058594"/>
     <use xlink:href="#DejaVuSans-20" x="494.4375"/>
     <use xlink:href="#DejaVuSans-6f" x="526.224609"/>
     <use xlink:href="#DejaVuSans-6e" x="587.40625"/>
     <use xlink:href="#DejaVuSans-74" x="650.785156"/>
     <use xlink:href="#DejaVuSans-6f" x="689.994141"/>
     <use xlink:href="#DejaVuSans-20" x="751.175781"/>
     <use xlink:href="#DejaVuSans-72" x="782.962891"/>
     <use xlink:href="#DejaVuSans-2d" x="817.701172"/>
     <use xlink:href="#DejaVuSans-7a" x="853.785156"/>
     <use xlink:href="#DejaVuSans-2d" x="906.275391"/>
     <use xlink:href="#DejaVuSans-70" x="942.359375"/>
     <use xlink:href="#DejaVuSans-5f" x="1005.835938"/>
     <use xlink:href="#DejaVuSans-72" x="1055.835938"/>
     <use xlink:href="#DejaVuSans-20" x="1096.949219"/>
     <use xlink:href="#DejaVuSans-73" x="1128.736328"/>
     <use xlink:href="#DejaVuSans-70" x="1180.835938"/>
     <use xlink:href="#DejaVuSans-61" x="1244.3125"/>
     <use xlink:href="#DejaVuSans-63" x="1305.591797"/>
     <use xlink:href="#DejaVuSans-65" x="1360.572266"/>
     <use xlink:href="#DejaVuSans-20" x="1422.095703"/>
     <use xlink:href="#DejaVuSans-77" x="1453.882812"/>
     <use xlink:href="#DejaVuSans-69" x="1535.669922"/>
     <use xlink:href="#DejaVuSans-74" x="1563.453125"/>
     <use xlink:href="#DejaVuSans-68" x="1602.662109"/>
     <use xlink:href="#DejaVuSans-20" x="1666.041016"/>
     <use xlink:href="#DejaVuSans-69" x="1697.828125"/>
     <use xlink:href="#DejaVuSans-6e" x="1725.611328"/>
     <use xlink:href="#DejaVuSans-69" x="1788.990234"/>
     <use xlink:href="#DejaVuSans-74" x="1816.773438"/>
     <use xlink:href="#DejaVuSans-69" x="1855.982422"/>
     <use xlink:href="#DejaVuSans-61" x="1883.765625"/>
     <use xlink:href="#DejaVuSans-6c" x="1945.044922"/>
     <use xlink:href="#DejaVuSans-20" x="1972.828125"/>
     <use xlink:href="#DejaVuSans-72" x="2004.615234"/>
     <use xlink:href="#DejaVuSans-20" x="2045.728516"/>
     <use xlink:href="#DejaVuSans-3d" x="2077.515625"/>
     <use xlink:href="#DejaVuSans-20" x="2161.304688"/>
     <use xlink:href="#DejaVuSans-30" x="2193.091797"/>
     <use xlink:href="#DejaVuSans-2e" x="2256.714844"/>
     <use xlink:href="#DejaVuSans-32" x="2288.501953"/>
     <use xlink:href="#DejaVuSans-30" x="2352.125"/>
    </g>
   </g>
  </g>
 </g>
 <defs>
  <clipPath id="p2dbcac7d9c">
   <rect x="103.104" y="41.472" width="266.112" height="266.112"/>
  </clipPath>
 </defs>
</svg>
