<?xml version="1.0" encoding="utf-8" standalone="no"?>
<!DOCTYPE svg PUBLIC "-//W3C//DTD SVG 1.1//EN"
  "http://www.w3.org/Graphics/SVG/1.1/DTD/svg11.dtd">
<svg xmlns:xlink="http://www.w3.org/1999/xlink" width="460.8pt" height="345.6pt" viewBox="0 0 460.8 345.6" xmlns="http://www.w3.org/2000/svg" version="1.1">
 <metadata>
  <rdf:RDF xmlns:dc="http://purl.org/dc/elements/1.1/" xmlns:cc="http://creativecommons.org/ns#" xmlns:rdf="http://www.w3.org/1999/02/22-rdf-syntax-ns#">
   <cc:Work>
    <dc:type rdf:resource="http://purl.org/dc/dcmitype/StillImage"/>
    <dc:date>2023-10-23T14:50:12.970602</dc:date>
    <dc:format>image/svg+xml</dc:format>
    <dc:creator>
     <cc:Agent>
      <dc:title>Matplotlib v3.8.0, https://matplotlib.org/</dc:title>
     </cc:Agent>
    </dc:creator>
   </cc:Work>
  </rdf:RDF>
 </metadata>
 <defs>
  <style type="text/css">*{stroke-linejoin: round; stroke-linecap: butt}</style>
 </defs>
 <g id="figure_1">
  <g id="patch_1">
   <path d="M 0 345.6 
L 460.8 345.6 
L 460.8 0 
L 0 0 
z
" style="fill: #ffffff"/>
  </g>
  <g id="patch_2">
   <path d="M 103.104 307.584 
L 369.216 307.584 
L 369.216 41.472 
L 103.104 41.472 
z
" style="fill: #ffffff"/>
  </g>
  <g id="pane3d_1">
   <g id="patch_3">
    <path d="M 123.197291 241.969309 
L 211.076164 168.307495 
L 209.854564 62.073991 
L 117.770234 129.272941 
" style="fill: #f2f2f2; opacity: 0.5; stroke: #f2f2f2; stroke-linejoin: miter"/>
   </g>
  </g>
  <g id="pane3d_2">
   <g id="patch_4">
    <path d="M 211.076164 168.307495 
L 352.090401 209.294766 
L 357.122702 99.402171 
L 209.854564 62.073991 
" style="fill: #e6e6e6; opacity: 0.5; stroke: #e6e6e6; stroke-linejoin: miter"/>
   </g>
  </g>
  <g id="pane3d_3">
   <g id="patch_5">
    <path d="M 123.197291 241.969309 
L 272.679269 290.790123 
L 352.090401 209.294766 
L 211.076164 168.307495 
" style="fill: #ececec; opacity: 0.5; stroke: #ececec; stroke-linejoin: miter"/>
   </g>
  </g>
  <g id="grid3d_1">
   <g id="Line3DCollection_1">
    <path d="M 139.745029 247.3738 
L 226.747915 172.862654 
L 226.190662 66.214715 
" style="fill: none; stroke: #b0b0b0; stroke-width: 0.8"/>
    <path d="M 167.574724 256.462979 
L 253.069813 180.513391 
L 253.645623 73.173748 
" style="fill: none; stroke: #b0b0b0; stroke-width: 0.8"/>
    <path d="M 195.967881 265.736184 
L 279.880048 188.306068 
L 281.632185 80.267526 
" style="fill: none; stroke: #b0b0b0; stroke-width: 0.8"/>
    <path d="M 224.941789 275.199062 
L 307.192338 196.244672 
L 310.165939 87.500001 
" style="fill: none; stroke: #b0b0b0; stroke-width: 0.8"/>
    <path d="M 254.514447 284.857492 
L 335.020917 204.333341 
L 339.263092 94.875281 
" style="fill: none; stroke: #b0b0b0; stroke-width: 0.8"/>
   </g>
  </g>
  <g id="grid3d_2">
   <g id="Line3DCollection_2">
    <path d="M 129.321936 120.843035 
L 134.184874 232.759299 
L 282.646541 280.56125 
" style="fill: none; stroke: #b0b0b0; stroke-width: 0.8"/>
    <path d="M 147.908894 107.279119 
L 151.886109 217.921773 
L 298.68087 264.106083 
" style="fill: none; stroke: #b0b0b0; stroke-width: 0.8"/>
    <path d="M 165.860779 94.178651 
L 169.008295 203.569617 
L 314.163547 248.217048 
" style="fill: none; stroke: #b0b0b0; stroke-width: 0.8"/>
    <path d="M 183.209592 81.518278 
L 185.579387 189.679399 
L 329.122557 232.865423 
" style="fill: none; stroke: #b0b0b0; stroke-width: 0.8"/>
    <path d="M 199.985219 69.276189 
L 201.62557 176.22917 
L 343.584028 218.024397 
" style="fill: none; stroke: #b0b0b0; stroke-width: 0.8"/>
   </g>
  </g>
  <g id="grid3d_3">
   <g id="Line3DCollection_3">
    <path d="M 352.651911 197.032811 
L 210.939601 156.431576 
L 122.59264 229.41333 
" style="fill: none; stroke: #b0b0b0; stroke-width: 0.8"/>
    <path d="M 353.593746 176.465549 
L 210.710684 136.52439 
L 121.577933 208.34229 
" style="fill: none; stroke: #b0b0b0; stroke-width: 0.8"/>
    <path d="M 354.551427 155.552235 
L 210.478101 116.298387 
L 120.545497 186.903085 
" style="fill: none; stroke: #b0b0b0; stroke-width: 0.8"/>
    <path d="M 355.525359 134.284061 
L 210.241763 95.745848 
L 119.494863 165.085982 
" style="fill: none; stroke: #b0b0b0; stroke-width: 0.8"/>
    <path d="M 356.515957 112.651918 
L 210.001579 74.858801 
L 118.425545 142.8809 
" style="fill: none; stroke: #b0b0b0; stroke-width: 0.8"/>
   </g>
  </g>
  <g id="axis3d_1">
   <g id="line2d_1">
    <path d="M 123.197291 241.969309 
L 272.679269 290.790123 
" style="fill: none; stroke: #000000; stroke-width: 0.8; stroke-linecap: square"/>
   </g>
   <g id="xtick_1">
    <g id="line2d_2">
     <path d="M 140.502812 246.724819 
L 138.226203 248.674556 
" style="fill: none; stroke: #000000; stroke-width: 0.8; stroke-linecap: square"/>
    </g>
    <g id="text_1">
     <!-- −0.4 -->
     <g transform="translate(120.082057 270.734746) scale(0.1 -0.1)">
      <defs>
       <path id="DejaVuSans-2212" d="M 678 2272 
L 4684 2272 
L 4684 1741 
L 678 1741 
L 678 2272 
z
" transform="scale(0.015625)"/>
       <path id="DejaVuSans-30" d="M 2034 4250 
Q 1547 4250 1301 3770 
Q 1056 3291 1056 2328 
Q 1056 1369 1301 889 
Q 1547 409 2034 409 
Q 2525 409 2770 889 
Q 3016 1369 3016 2328 
Q 3016 3291 2770 3770 
Q 2525 4250 2034 4250 
z
M 2034 4750 
Q 2819 4750 3233 4129 
Q 3647 3509 3647 2328 
Q 3647 1150 3233 529 
Q 2819 -91 2034 -91 
Q 1250 -91 836 529 
Q 422 1150 422 2328 
Q 422 3509 836 4129 
Q 1250 4750 2034 4750 
z
" transform="scale(0.015625)"/>
       <path id="DejaVuSans-2e" d="M 684 794 
L 1344 794 
L 1344 0 
L 684 0 
L 684 794 
z
" transform="scale(0.015625)"/>
       <path id="DejaVuSans-34" d="M 2419 4116 
L 825 1625 
L 2419 1625 
L 2419 4116 
z
M 2253 4666 
L 3047 4666 
L 3047 1625 
L 3713 1625 
L 3713 1100 
L 3047 1100 
L 3047 0 
L 2419 0 
L 2419 1100 
L 313 1100 
L 313 1709 
L 2253 4666 
z
" transform="scale(0.015625)"/>
      </defs>
      <use xlink:href="#DejaVuSans-2212"/>
      <use xlink:href="#DejaVuSans-30" x="83.789062"/>
      <use xlink:href="#DejaVuSans-2e" x="147.412109"/>
      <use xlink:href="#DejaVuSans-34" x="179.199219"/>
     </g>
    </g>
   </g>
   <g id="xtick_2">
    <g id="line2d_3">
     <path d="M 168.319982 255.800928 
L 166.08097 257.789956 
" style="fill: none; stroke: #000000; stroke-width: 0.8; stroke-linecap: square"/>
    </g>
    <g id="text_2">
     <!-- −0.2 -->
     <g transform="translate(147.940862 280.01671) scale(0.1 -0.1)">
      <defs>
       <path id="DejaVuSans-32" d="M 1228 531 
L 3431 531 
L 3431 0 
L 469 0 
L 469 531 
Q 828 903 1448 1529 
Q 2069 2156 2228 2338 
Q 2531 2678 2651 2914 
Q 2772 3150 2772 3378 
Q 2772 3750 2511 3984 
Q 2250 4219 1831 4219 
Q 1534 4219 1204 4116 
Q 875 4013 500 3803 
L 500 4441 
Q 881 4594 1212 4672 
Q 1544 4750 1819 4750 
Q 2544 4750 2975 4387 
Q 3406 4025 3406 3419 
Q 3406 3131 3298 2873 
Q 3191 2616 2906 2266 
Q 2828 2175 2409 1742 
Q 1991 1309 1228 531 
z
" transform="scale(0.015625)"/>
      </defs>
      <use xlink:href="#DejaVuSans-2212"/>
      <use xlink:href="#DejaVuSans-30" x="83.789062"/>
      <use xlink:href="#DejaVuSans-2e" x="147.412109"/>
      <use xlink:href="#DejaVuSans-32" x="179.199219"/>
     </g>
    </g>
   </g>
   <g id="xtick_3">
    <g id="line2d_4">
     <path d="M 196.69995 265.060666 
L 194.500531 267.090184 
" style="fill: none; stroke: #000000; stroke-width: 0.8; stroke-linecap: square"/>
    </g>
    <g id="text_3">
     <!-- 0.0 -->
     <g transform="translate(180.555708 289.487318) scale(0.1 -0.1)">
      <use xlink:href="#DejaVuSans-30"/>
      <use xlink:href="#DejaVuSans-2e" x="63.623047"/>
      <use xlink:href="#DejaVuSans-30" x="95.410156"/>
     </g>
    </g>
   </g>
   <g id="xtick_4">
    <g id="line2d_5">
     <path d="M 225.659969 274.509662 
L 223.502242 276.580919 
" style="fill: none; stroke: #000000; stroke-width: 0.8; stroke-linecap: square"/>
    </g>
    <g id="text_4">
     <!-- 0.2 -->
     <g transform="translate(209.564345 299.152381) scale(0.1 -0.1)">
      <use xlink:href="#DejaVuSans-30"/>
      <use xlink:href="#DejaVuSans-2e" x="63.623047"/>
      <use xlink:href="#DejaVuSans-32" x="95.410156"/>
     </g>
    </g>
   </g>
   <g id="xtick_5">
    <g id="line2d_6">
     <path d="M 255.218008 284.153777 
L 253.104175 286.268074 
" style="fill: none; stroke: #000000; stroke-width: 0.8; stroke-linecap: square"/>
    </g>
    <g id="text_5">
     <!-- 0.4 -->
     <g transform="translate(239.174779 309.01795) scale(0.1 -0.1)">
      <use xlink:href="#DejaVuSans-30"/>
      <use xlink:href="#DejaVuSans-2e" x="63.623047"/>
      <use xlink:href="#DejaVuSans-34" x="95.410156"/>
     </g>
    </g>
   </g>
   <g id="text_6">
    <!-- r -->
    <g transform="translate(177.620959 303.76759) scale(0.1 -0.1)">
     <defs>
      <path id="DejaVuSans-72" d="M 2631 2963 
Q 2534 3019 2420 3045 
Q 2306 3072 2169 3072 
Q 1681 3072 1420 2755 
Q 1159 2438 1159 1844 
L 1159 0 
L 581 0 
L 581 3500 
L 1159 3500 
L 1159 2956 
Q 1341 3275 1631 3429 
Q 1922 3584 2338 3584 
Q 2397 3584 2469 3576 
Q 2541 3569 2628 3553 
L 2631 2963 
z
" transform="scale(0.015625)"/>
     </defs>
     <use xlink:href="#DejaVuSans-72"/>
    </g>
   </g>
  </g>
  <g id="axis3d_2">
   <g id="line2d_7">
    <path d="M 352.090401 209.294766 
L 272.679269 290.790123 
" style="fill: none; stroke: #000000; stroke-width: 0.8; stroke-linecap: square"/>
   </g>
   <g id="xtick_6">
    <g id="line2d_8">
     <path d="M 281.395758 280.158521 
L 285.151326 281.367745 
" style="fill: none; stroke: #000000; stroke-width: 0.8; stroke-linecap: square"/>
    </g>
    <g id="text_7">
     <!-- −0.4 -->
     <g transform="translate(283.325813 301.514986) scale(0.1 -0.1)">
      <use xlink:href="#DejaVuSans-2212"/>
      <use xlink:href="#DejaVuSans-30" x="83.789062"/>
      <use xlink:href="#DejaVuSans-2e" x="147.412109"/>
      <use xlink:href="#DejaVuSans-34" x="179.199219"/>
     </g>
    </g>
   </g>
   <g id="xtick_7">
    <g id="line2d_9">
     <path d="M 297.445222 263.717326 
L 301.155291 264.884581 
" style="fill: none; stroke: #000000; stroke-width: 0.8; stroke-linecap: square"/>
    </g>
    <g id="text_8">
     <!-- −0.2 -->
     <g transform="translate(299.144994 284.816287) scale(0.1 -0.1)">
      <use xlink:href="#DejaVuSans-2212"/>
      <use xlink:href="#DejaVuSans-30" x="83.789062"/>
      <use xlink:href="#DejaVuSans-2e" x="147.412109"/>
      <use xlink:href="#DejaVuSans-32" x="179.199219"/>
     </g>
    </g>
   </g>
   <g id="xtick_8">
    <g id="line2d_10">
     <path d="M 312.942742 247.841548 
L 316.608191 248.968982 
" style="fill: none; stroke: #000000; stroke-width: 0.8; stroke-linecap: square"/>
    </g>
    <g id="text_9">
     <!-- 0.0 -->
     <g transform="translate(318.609453 268.692429) scale(0.1 -0.1)">
      <use xlink:href="#DejaVuSans-30"/>
      <use xlink:href="#DejaVuSans-2e" x="63.623047"/>
      <use xlink:href="#DejaVuSans-30" x="95.410156"/>
     </g>
    </g>
   </g>
   <g id="xtick_9">
    <g id="line2d_11">
     <path d="M 327.916306 232.502514 
L 331.538007 233.592129 
" style="fill: none; stroke: #000000; stroke-width: 0.8; stroke-linecap: square"/>
    </g>
    <g id="text_10">
     <!-- 0.2 -->
     <g transform="translate(333.367149 253.114231) scale(0.1 -0.1)">
      <use xlink:href="#DejaVuSans-30"/>
      <use xlink:href="#DejaVuSans-2e" x="63.623047"/>
      <use xlink:href="#DejaVuSans-32" x="95.410156"/>
     </g>
    </g>
   </g>
   <g id="xtick_10">
    <g id="line2d_12">
     <path d="M 342.392046 217.673455 
L 345.970856 218.727124 
" style="fill: none; stroke: #000000; stroke-width: 0.8; stroke-linecap: square"/>
    </g>
    <g id="text_11">
     <!-- 0.4 -->
     <g transform="translate(347.633727 238.054456) scale(0.1 -0.1)">
      <use xlink:href="#DejaVuSans-30"/>
      <use xlink:href="#DejaVuSans-2e" x="63.623047"/>
      <use xlink:href="#DejaVuSans-34" x="95.410156"/>
     </g>
    </g>
   </g>
   <g id="text_12">
    <!-- z -->
    <g transform="translate(338.508563 278.988697) scale(0.1 -0.1)">
     <defs>
      <path id="DejaVuSans-7a" d="M 353 3500 
L 3084 3500 
L 3084 2975 
L 922 459 
L 3084 459 
L 3084 0 
L 275 0 
L 275 525 
L 2438 3041 
L 353 3041 
L 353 3500 
z
" transform="scale(0.015625)"/>
     </defs>
     <use xlink:href="#DejaVuSans-7a"/>
    </g>
   </g>
  </g>
  <g id="axis3d_3">
   <g id="line2d_13">
    <path d="M 352.090401 209.294766 
L 357.122702 99.402171 
" style="fill: none; stroke: #000000; stroke-width: 0.8; stroke-linecap: square"/>
   </g>
   <g id="xtick_11">
    <g id="line2d_14">
     <path d="M 351.462276 196.691975 
L 355.034024 197.715298 
" style="fill: none; stroke: #000000; stroke-width: 0.8; stroke-linecap: square"/>
    </g>
    <g id="text_13">
     <!-- −0.4 -->
     <g transform="translate(358.848394 202.050217) scale(0.1 -0.1)">
      <use xlink:href="#DejaVuSans-2212"/>
      <use xlink:href="#DejaVuSans-30" x="83.789062"/>
      <use xlink:href="#DejaVuSans-2e" x="147.412109"/>
      <use xlink:href="#DejaVuSans-34" x="179.199219"/>
     </g>
    </g>
   </g>
   <g id="xtick_12">
    <g id="line2d_15">
     <path d="M 352.393813 176.130123 
L 355.996504 177.13721 
" style="fill: none; stroke: #000000; stroke-width: 0.8; stroke-linecap: square"/>
    </g>
    <g id="text_14">
     <!-- −0.2 -->
     <g transform="translate(359.939887 181.523976) scale(0.1 -0.1)">
      <use xlink:href="#DejaVuSans-2212"/>
      <use xlink:href="#DejaVuSans-30" x="83.789062"/>
      <use xlink:href="#DejaVuSans-2e" x="147.412109"/>
      <use xlink:href="#DejaVuSans-32" x="179.199219"/>
     </g>
    </g>
   </g>
   <g id="xtick_13">
    <g id="line2d_16">
     <path d="M 353.341016 155.22245 
L 356.975191 156.212608 
" style="fill: none; stroke: #000000; stroke-width: 0.8; stroke-linecap: square"/>
    </g>
    <g id="text_15">
     <!-- 0.0 -->
     <g transform="translate(365.239531 160.653431) scale(0.1 -0.1)">
      <use xlink:href="#DejaVuSans-30"/>
      <use xlink:href="#DejaVuSans-2e" x="63.623047"/>
      <use xlink:href="#DejaVuSans-30" x="95.410156"/>
     </g>
    </g>
   </g>
   <g id="xtick_14">
    <g id="line2d_17">
     <path d="M 354.304285 133.960157 
L 357.970499 134.932664 
" style="fill: none; stroke: #000000; stroke-width: 0.8; stroke-linecap: square"/>
    </g>
    <g id="text_16">
     <!-- 0.2 -->
     <g transform="translate(366.368105 139.429846) scale(0.1 -0.1)">
      <use xlink:href="#DejaVuSans-30"/>
      <use xlink:href="#DejaVuSans-2e" x="63.623047"/>
      <use xlink:href="#DejaVuSans-32" x="95.410156"/>
     </g>
    </g>
   </g>
   <g id="xtick_15">
    <g id="line2d_18">
     <path d="M 355.284032 112.334145 
L 358.982853 113.288249 
" style="fill: none; stroke: #000000; stroke-width: 0.8; stroke-linecap: square"/>
    </g>
    <g id="text_17">
     <!-- 0.4 -->
     <g transform="translate(367.515933 117.844187) scale(0.1 -0.1)">
      <use xlink:href="#DejaVuSans-30"/>
      <use xlink:href="#DejaVuSans-2e" x="63.623047"/>
      <use xlink:href="#DejaVuSans-34" x="95.410156"/>
     </g>
    </g>
   </g>
   <g id="text_18">
    <!-- p_r -->
    <g transform="translate(387.197542 152.624154) scale(0.1 -0.1)">
     <defs>
      <path id="DejaVuSans-70" d="M 1159 525 
L 1159 -1331 
L 581 -1331 
L 581 3500 
L 1159 3500 
L 1159 2969 
Q 1341 3281 1617 3432 
Q 1894 3584 2278 3584 
Q 2916 3584 3314 3078 
Q 3713 2572 3713 1747 
Q 3713 922 3314 415 
Q 2916 -91 2278 -91 
Q 1894 -91 1617 61 
Q 1341 213 1159 525 
z
M 3116 1747 
Q 3116 2381 2855 2742 
Q 2594 3103 2138 3103 
Q 1681 3103 1420 2742 
Q 1159 2381 1159 1747 
Q 1159 1113 1420 752 
Q 1681 391 2138 391 
Q 2594 391 2855 752 
Q 3116 1113 3116 1747 
z
" transform="scale(0.015625)"/>
      <path id="DejaVuSans-5f" d="M 3263 -1063 
L 3263 -1509 
L -63 -1509 
L -63 -1063 
L 3263 -1063 
z
" transform="scale(0.015625)"/>
     </defs>
     <use xlink:href="#DejaVuSans-70"/>
     <use xlink:href="#DejaVuSans-5f" x="63.476562"/>
     <use xlink:href="#DejaVuSans-72" x="113.476562"/>
    </g>
   </g>
  </g>
  <g id="axes_1">
   <g id="line2d_19">
    <path d="M 228.780863 180.285498 
L 229.541098 178.213941 
L 233.840662 167.513922 
L 240.856229 153.305454 
L 247.200045 143.337635 
L 250.845242 138.724518 
L 253.374522 135.92433 
L 252.824385 136.117116 
L 251.116697 136.940048 
L 248.335521 138.15214 
L 235.933063 142.927665 
L 230.127468 146.254498 
L 224.84921 152.825438 
L 222.360346 160.968933 
L 221.439707 169.274623 
L 221.308314 178.640666 
L 221.788237 187.940604 
L 222.835894 196.78095 
L 224.045477 202.071227 
L 225.502467 204.729312 
L 227.342545 204.433794 
L 229.79119 200.369825 
L 232.807359 192.63315 
L 247.747901 149.379595 
L 249.243525 143.329134 
L 248.86438 139.644551 
L 246.896496 137.746426 
L 243.995184 136.753817 
L 240.37924 136.184109 
L 236.669021 136.025496 
L 232.701605 136.721761 
L 229.428351 140.185479 
L 228.456229 147.294543 
L 228.945682 156.063382 
L 230.280534 167.14375 
L 232.018249 178.369393 
L 234.215792 189.881692 
L 236.185508 197.645037 
L 238.209008 202.747254 
L 240.131904 204.655821 
L 242.252153 203.343859 
L 244.437245 198.174728 
L 246.35151 189.824988 
L 247.581923 180.343545 
L 247.892061 169.771345 
L 246.61908 159.164041 
L 243.602542 150.034104 
L 239.669212 142.598433 
L 235.902089 136.447559 
L 233.258629 131.748341 
L 232.04092 128.680506 
L 232.429325 128.007463 
L 234.515032 131.19435 
L 238.031454 140.008059 
L 240.977391 150.036297 
L 243.70362 161.455005 
L 246.503818 175.084156 
L 249.071977 188.385744 
L 250.924538 197.350297 
L 252.517131 203.529811 
L 253.728977 206.348008 
L 254.670774 206.028327 
L 254.966847 201.980333 
L 254.194877 195.009432 
L 252.343089 187.322933 
L 248.567757 177.415677 
L 242.207277 165.322968 
L 235.247809 153.186212 
L 230.036759 141.97809 
L 227.937841 134.186635 
L 227.814206 127.935974 
L 229.485567 123.753493 
L 233.142664 122.014799 
L 238.548653 124.420608 
L 244.820041 132.351337 
L 249.961445 143.904761 
L 253.596747 156.501242 
L 256.313892 170.073342 
L 258.340533 184.210207 
L 259.63562 196.453418 
L 260.176938 203.390767 
L 260.341087 207.619916 
L 260.043411 209.487205 
L 258.941176 207.837752 
L 256.680404 202.670291 
L 253.236547 195.359853 
L 248.568792 186.69991 
L 241.560075 174.916431 
L 233.654687 161.07098 
L 227.850761 147.518293 
L 225.642681 137.603693 
L 225.63532 130.539054 
L 227.078954 125.205292 
L 230.467675 120.928881 
L 235.878383 119.536491 
L 242.741628 122.671426 
L 249.730603 131.377009 
L 255.265527 144.988293 
L 258.162019 157.922013 
L 259.816365 171.098771 
L 260.608031 185.200376 
L 260.565824 197.7598 
L 260.069767 205.049181 
L 259.237084 209.730333 
L 257.869892 211.885024 
L 255.709947 210.485816 
L 252.564419 205.208453 
L 244.095446 188.0029 
L 238.494295 176.165564 
L 232.373634 161.421029 
L 228.286531 146.768156 
L 227.372686 136.476195 
L 228.331978 129.121102 
L 230.662796 123.736098 
L 234.298284 120.291049 
L 239.613817 119.549158 
L 245.746353 123.331078 
L 251.204604 132.582896 
L 254.645113 146.794413 
L 255.676273 159.535628 
L 255.651415 172.271017 
L 254.779659 186.319844 
L 253.238758 199.061011 
L 251.670855 206.918112 
L 249.914334 211.816854 
L 247.874525 213.578216 
L 245.323385 211.438265 
L 242.338669 204.858968 
L 239.174854 194.776186 
L 236.358921 183.545029 
L 233.605549 169.263288 
L 231.925008 153.153216 
L 232.259936 140.712895 
L 233.833749 132.515554 
L 236.361424 126.530944 
L 239.562479 122.969861 
L 243.079924 122.237446 
L 246.591202 125.707758 
L 248.355418 134.2999 
L 247.845849 147.437355 
L 246.410897 158.871842 
L 244.459405 171.340658 
L 242.091404 184.87086 
L 239.575683 197.483136 
L 237.589979 205.516518 
L 235.750141 210.748746 
L 233.991627 213.114091 
L 232.116306 211.898928 
L 230.46109 205.930848 
L 229.426277 196.000673 
L 229.247879 184.843383 
L 230.112006 171.176541 
L 232.910926 154.653943 
L 236.852193 142.099564 
L 240.771061 134.153537 
L 244.491233 129.224333 
L 247.678298 127.115312 
L 248.998468 128.144758 
L 248.417169 131.102122 
L 246.310486 135.511772 
L 242.920078 141.556275 
L 238.612053 149.923675 
L 234.871234 159.039066 
L 231.843827 168.550809 
L 229.242162 178.854413 
L 226.917389 189.929502 
L 223.74784 206.090958 
L 222.805114 209.641721 
L 222.139273 210.201763 
L 221.987149 206.549358 
L 222.646661 198.841681 
L 224.103606 189.316884 
L 227.01651 176.33014 
L 231.614756 162.000725 
L 238.210747 147.724746 
L 244.325941 138.517414 
L 249.478714 133.232902 
L 252.056659 131.705435 
L 253.165945 131.889146 
L 252.785694 133.194712 
L 251.199622 135.126558 
L 248.669485 137.403673 
L 245.141334 140.121595 
L 240.513508 143.536925 
L 234.89727 148.225817 
L 228.885167 155.428263 
L 224.636277 163.977284 
L 222.163692 172.063347 
L 220.387466 181.002759 
L 219.248121 189.790003 
L 218.570173 198.305768 
L 218.397281 203.477082 
L 218.536678 206.603528 
L 219.10359 207.237026 
L 220.333793 204.090132 
L 224.39129 190.285011 
L 228.121447 178.973909 
L 233.440912 165.603652 
L 240.887613 151.105189 
L 247.421727 141.573715 
L 250.848878 137.68398 
L 252.651064 136.004746 
L 253.759299 135.298661 
L 252.89901 135.974893 
L 250.985476 137.149258 
L 248.138748 138.614836 
L 235.577185 144.237871 
L 229.577706 148.151996 
L 224.098909 155.574974 
L 221.554462 163.899395 
L 220.497228 171.942821 
L 220.141322 180.771076 
L 220.368366 189.799463 
L 221.151087 198.147295 
L 222.119122 202.847335 
L 223.354077 205.129798 
L 225.086059 204.559281 
L 227.478226 200.148899 
L 230.492082 192.230931 
L 233.745944 182.989082 
L 237.785767 171.864682 
L 242.779113 159.273171 
L 247.613461 148.099296 
L 249.9384 142.287952 
L 250.415357 139.228834 
L 249.261312 137.695584 
L 246.83111 137.147166 
L 243.457301 137.075957 
L 239.556678 137.292999 
L 235.812906 137.816013 
L 231.147488 139.639706 
L 227.69506 144.755223 
L 226.684748 152.362358 
L 226.93056 161.066114 
L 227.933687 171.472913 
L 229.459754 182.367122 
L 231.476497 193.01175 
L 233.319394 199.686829 
L 235.184547 203.533571 
L 237.087573 204.542009 
L 239.3748 202.220093 
L 241.838084 196.025714 
L 244.18406 186.92124 
L 245.992707 177.089867 
L 247.160743 165.962271 
L 246.856516 155.643509 
L 244.789553 147.471454 
L 241.539496 141.29037 
L 238.021387 136.485731 
L 232.558967 129.917393 
L 232.405327 130.618242 
L 234.053915 135.829922 
L 236.515855 144.592552 
L 239.046215 155.134603 
L 241.618579 167.261323 
L 246.834752 192.934075 
L 248.63738 200.134975 
L 250.177369 204.446697 
L 251.567345 206.041601 
L 252.738249 204.238106 
L 253.252574 198.773236 
L 252.711457 190.963612 
L 251.039753 182.680793 
L 247.241637 171.968997 
L 241.202761 160.13364 
L 235.014054 149.001852 
L 230.453478 138.76637 
L 228.819493 132.186287 
L 228.875427 127.034907 
L 230.675141 123.713691 
L 234.386534 123.327768 
L 239.655445 127.569164 
L 245.503749 137.591902 
L 249.499028 148.591096 
L 252.812308 161.616465 
L 255.440872 175.743627 
L 257.409714 189.368197 
L 259.272639 205.276894 
L 259.515072 208.37712 
L 259.190245 208.438992 
L 257.903379 204.8173 
L 255.36658 198.286907 
L 251.919088 190.905258 
L 246.264163 180.716168 
L 238.404289 167.738751 
L 231.122974 154.222663 
L 226.890198 142.651879 
L 225.609722 134.551463 
L 226.201683 127.723999 
L 228.5569 122.762594 
L 232.994921 119.997153 
L 239.251943 121.124651 
L 246.353044 127.55289 
L 252.738537 139.472139 
L 256.472825 151.679265 
L 259.009654 165.443532 
L 260.471431 179.5686 
L 261.061342 192.982538 
L 260.973127 202.012943 
L 260.420395 208.203601 
L 259.442216 211.103078 
L 257.716431 210.757062 
L 254.985854 206.573306 
L 240.888059 179.434412 
L 234.040105 165.27379 
L 228.714051 150.633773 
L 226.68262 139.364926 
L 226.889212 131.636891 
L 228.671758 125.427175 
L 231.728569 121.264658 
L 236.673998 119.195535 
L 242.959096 121.137952 
L 249.326688 128.403061 
L 254.191282 140.966069 
L 256.422029 153.800714 
L 257.276461 168.192509 
L 257.04973 182.274905 
L 256.02434 195.631957 
L 254.772238 204.319753 
L 253.226122 210.29243 
L 251.473729 213.064135 
L 249.125196 212.45925 
L 246.16717 207.560563 
L 242.718243 198.838147 
L 239.198263 188.08993 
L 235.652385 175.469925 
L 232.329192 159.855045 
L 230.926226 144.658985 
L 231.650837 134.93599 
L 233.8564 127.482438 
L 236.804322 123.13716 
L 240.398999 121.243795 
L 244.717985 122.772047 
L 248.319411 129.369599 
L 249.862433 141.273626 
L 249.44882 153.749992 
L 248.129632 166.632423 
L 246.237677 180.127757 
L 243.921251 193.559832 
L 241.886948 202.926087 
L 239.818369 209.713515 
L 237.884757 213.086294 
L 235.814866 213.00665 
L 233.733346 208.345105 
L 231.991624 199.224884 
L 230.990369 188.066553 
L 230.820808 174.900445 
L 232.115744 158.727075 
L 235.027189 144.688125 
L 238.425295 135.466316 
L 242.05563 129.333905 
L 245.331246 126.285812 
L 247.554741 126.382979 
L 247.941322 129.260737 
L 246.607184 134.154327 
L 240.089286 150.772856 
L 237.00102 160.06045 
L 234.128632 170.467283 
L 231.434977 182.071414 
L 227.283877 201.997671 
L 225.799372 208.03443 
L 224.665934 210.895001 
L 223.780015 210.356783 
L 223.436288 205.298424 
L 223.928642 196.590617 
L 225.358402 185.768771 
L 228.323983 171.8697 
L 233.402365 156.308396 
L 239.404561 143.906901 
L 245.387335 135.466696 
L 249.805098 131.465014 
L 251.895564 130.654554 
L 252.457707 131.464345 
L 251.548646 133.287111 
L 249.41468 135.733728 
L 246.171952 138.714962 
L 241.820931 142.431645 
L 236.488397 147.422786 
L 230.679017 154.819542 
L 226.345219 163.52538 
L 223.754054 171.510093 
L 221.774486 180.316868 
L 220.328692 189.417992 
L 219.327977 198.230005 
L 218.894276 203.674808 
L 218.774027 207.039065 
L 219.038296 207.933742 
L 219.929134 205.044255 
L 223.426753 191.448911 
L 226.878804 180.103578 
L 232.009862 166.48855 
L 239.334297 151.743118 
L 246.179851 141.628643 
L 249.901643 137.454492 
L 251.873217 135.678477 
L 253.249196 134.709855 
L 253.886883 134.443936 
L 254.036434 134.592224 
L 253.584538 135.189361 
L 252.295565 136.262582 
L 250.123691 137.692869 
L 247.212993 139.318266 
L 239.663206 143.044012 
L 234.133583 146.071793 
L 227.987769 151.137797 
L 223.414016 158.587354 
L 220.95813 167.018907 
L 219.859098 174.631448 
L 219.341631 182.734169 
L 219.329222 191.576611 
L 219.85806 199.476935 
L 220.641059 203.780023 
L 221.670324 205.610258 
L 223.296248 204.612335 
L 225.626766 199.698538 
L 235.291447 173.203568 
L 240.551451 160.656906 
L 246.633547 148.252835 
L 250.008241 141.972559 
L 251.40226 138.845614 
L 251.153929 137.412403 
L 249.449797 137.123579 
L 246.622144 137.411429 
L 242.911297 137.996713 
L 238.815689 138.775412 
L 234.50629 139.954479 
L 229.419948 142.946332 
L 225.878448 149.827422 
L 224.918843 158.200788 
L 225.043976 166.539063 
L 225.752656 175.698576 
L 227.073381 186.188433 
L 228.894413 195.858296 
L 230.633829 201.530763 
L 232.508156 204.318467 
L 234.592404 203.982613 
L 237.093088 199.882698 
L 239.849835 192.111969 
L 242.57207 182.156504 
L 244.814914 172.34742 
L 246.802647 160.69191 
L 247.21902 151.160215 
L 245.794657 144.338569 
L 243.042049 139.630417 
L 239.760639 136.221393 
L 236.423591 133.568021 
L 233.527502 131.874735 
L 231.8781 132.510261 
L 232.242368 137.415868 
L 240.495777 179.292447 
L 243.072926 191.502377 
L 244.975757 198.842582 
L 246.713523 203.514052 
L 248.28173 205.440344 
L 249.872581 204.271517 
L 251.075644 199.326061 
L 251.45569 191.543253 
L 250.810567 183.324812 
L 248.540977 173.02632 
L 244.123616 161.886073 
L 233.456358 141.599027 
L 230.605361 134.147249 
L 229.753305 128.299645 
L 230.753443 125.022229 
L 233.56883 124.431057 
L 238.022138 128.226491 
L 243.339933 137.785014 
L 247.097448 148.332429 
L 250.356194 160.944767 
L 253.129176 174.998394 
L 255.343732 188.631622 
L 258.301797 207.694322 
L 258.37176 207.809641 
L 257.55947 204.237322 
L 255.522749 197.724143 
L 252.48293 190.331152 
L 247.324432 180.39179 
L 239.662692 167.617992 
L 232.245937 154.41151 
L 227.351021 141.921642 
L 225.994452 134.067242 
L 226.421701 127.825821 
L 228.607236 122.998084 
L 232.877845 120.423348 
L 238.972029 121.805258 
L 245.936491 128.539699 
L 252.251758 140.759928 
L 255.829505 152.407942 
L 258.386963 165.30768 
L 260.126317 179.432732 
L 261.023528 192.791471 
L 261.195781 201.653125 
L 260.90488 207.715954 
L 260.156971 210.579382 
L 258.658643 210.196954 
L 256.113433 206.046532 
L 248.740365 192.000766 
L 242.675301 181.003309 
L 235.389043 167.342113 
L 229.242622 152.898875 
L 226.376959 141.184707 
L 226.079304 132.878756 
L 227.598171 126.102502 
L 230.536537 121.595759 
L 235.429332 119.195459 
L 241.844609 120.73479 
L 248.610698 127.572843 
L 254.105602 139.76536 
L 256.967438 152.745038 
L 258.374417 167.387012 
L 258.591416 181.488129 
L 257.961542 194.890401 
L 256.954576 203.79109 
L 255.592429 209.893446 
L 253.972072 212.698478 
L 251.699839 212.156735 
L 248.695403 207.44182 
L 245.02539 199.085482 
L 241.127161 188.904872 
L 236.937513 176.823394 
L 232.58 161.576316 
L 230.042568 146.390391 
L 230.06228 136.092246 
L 231.531039 128.962797 
L 234.030696 123.981418 
L 237.601477 120.965602 
L 242.219156 120.880156 
L 247.024931 125.376245 
L 250.480595 135.317465 
L 251.618164 148.542161 
L 251.240254 160.948832 
L 250.11003 173.605467 
L 248.280296 187.502429 
L 246.051291 199.97175 
L 244.092655 207.680713 
L 242.095263 212.359244 
L 240.004278 213.703571 
L 237.674842 210.891804 
L 235.358223 203.39798 
L 233.443978 192.506764 
L 232.257026 180.531766 
L 231.924067 165.357298 
L 233.365833 148.969208 
L 235.937052 138.015367 
L 238.707655 131.267432 
L 241.572989 126.971179 
L 244.871229 124.760314 
L 247.103789 126.537213 
L 247.141424 131.627445 
L 245.436731 139.248009 
L 242.43732 149.86719 
L 239.672129 160.13623 
L 237.029715 171.089224 
L 230.046888 203.331369 
L 228.456206 208.951427 
L 227.11803 211.653261 
L 225.914327 210.95619 
L 225.174957 205.64206 
L 225.246927 196.545103 
L 226.239433 185.55637 
L 228.671212 171.537512 
L 233.258867 155.569873 
L 238.744087 143.206946 
L 244.360586 134.716376 
L 248.541717 130.657973 
L 250.862754 129.649976 
L 251.554271 130.532971 
L 250.67193 132.594392 
L 248.449113 135.458008 
L 240.472577 143.744262 
L 235.131805 150.229777 
L 230.245637 158.586859 
L 226.857857 167.185575 
L 224.407744 176.031302 
L 222.53445 185.215384 
L 221.035085 194.790304 
L 219.576426 206.793456 
L 219.428439 208.672802 
L 219.77979 207.127171 
L 220.72425 202.23623 
L 222.379689 194.607041 
L 225.14467 183.998603 
L 229.576515 170.561847 
L 235.91351 156.073282 
L 242.910346 144.347573 
L 248.516925 137.508224 
L 251.481611 134.856764 
L 253.363518 133.732907 
L 254.040823 133.78092 
L 253.817426 134.388722 
L 252.94261 135.365377 
L 251.622257 136.477413 
L 249.736122 137.811084 
L 247.379199 139.2747 
L 240.014583 143.371925 
L 234.422343 146.794231 
L 228.230392 152.327579 
L 223.551965 160.13029 
L 220.956748 168.559476 
L 219.646462 176.333397 
L 218.946455 184.013927 
L 218.671559 192.748074 
L 218.924951 200.384789 
L 219.606647 204.870462 
L 220.591583 206.128467 
L 222.205192 204.050741 
L 224.563233 198.049224 
L 227.429762 189.733154 
L 231.111078 179.404502 
L 236.094524 166.966412 
L 242.64336 153.351531 
L 248.045333 144.132534 
L 252.325908 137.461063 
L 252.132886 136.736311 
L 250.577839 136.939548 
L 240.089833 139.770053 
L 235.869799 141.105229 
L 230.403209 143.881198 
L 225.716141 149.87112 
L 223.719704 157.858416 
L 223.218654 166.316788 
L 223.516057 176.067141 
L 224.406419 185.924933 
L 225.859114 195.40309 
L 227.375378 201.232708 
L 229.075573 204.279971 
L 231.021345 204.325813 
L 233.488095 200.701559 
L 236.388924 193.292238 
L 239.490303 183.485182 
L 242.342092 173.633204 
L 245.522703 161.716956 
L 247.621423 151.407214 
L 247.74252 144.438518 
L 246.056094 140.126185 
L 243.23868 137.384706 
L 239.971102 135.505551 
L 236.491728 134.154637 
L 233.290816 133.712245 
L 230.983848 135.816896 
L 230.854068 142.630609 
L 232.003395 151.323699 
L 233.842779 162.49582 
L 235.93644 174.268428 
L 238.374919 186.694276 
L 240.548995 195.836841 
L 242.68831 202.15313 
L 244.588306 204.865472 
L 246.455656 204.285885 
L 248.198721 199.910384 
L 249.417247 192.283357 
L 249.728803 183.420771 
L 248.81856 173.346316 
L 246.04028 162.549854 
L 241.526021 152.362564 
L 236.708656 143.494485 
L 232.840053 135.65802 
L 231.112839 130.37433 
L 230.956545 127.016219 
L 232.399458 125.661625 
L 235.566364 128.051653 
L 240.030322 135.883665 
L 243.672017 145.769675 
L 246.953392 157.857123 
L 249.871064 171.551267 
L 255.457679 202.5255 
L 256.394063 206.423351 
L 256.998785 207.468354 
L 256.945616 204.884661 
L 255.811229 198.96957 
L 253.484099 191.453348 
L 249.566168 182.414927 
L 242.967271 170.529632 
L 235.265315 157.486405 
L 229.445378 145.275007 
L 227.022248 136.758446 
L 226.584858 130.156329 
L 227.737706 125.141618 
L 230.863267 121.606992 
L 235.984819 121.356836 
L 242.484208 125.987244 
L 249.071807 136.323513 
L 253.607476 148.571838 
L 256.97465 162.980689 
L 259.1072 177.157133 
L 260.416821 190.752638 
L 260.938461 200.170923 
L 260.971885 206.717477 
L 260.54468 209.837477 
L 259.419111 209.845664 
L 257.261941 206.126501 
L 253.898 199.409358 
L 249.801984 191.678202 
L 236.003573 167.385682 
L 229.450927 153.213035 
L 226.199159 141.56357 
L 225.633632 133.276476 
L 226.932348 126.449476 
L 229.826718 121.748382 
L 234.726312 119.283094 
L 241.243591 120.804182 
L 248.238783 127.658323 
L 254.086088 139.873203 
L 257.260451 152.6105 
L 259.055315 166.926431 
L 259.671972 181.029911 
L 259.41756 194.420594 
L 258.676378 203.359229 
L 257.535229 209.471059 
L 256.071905 212.280769 
L 253.910761 211.76219 
L 250.911167 207.184887 
L 247.097925 199.160578 
L 242.947908 189.569785 
L 238.258013 178.071086 
L 232.997039 163.220173 
L 229.42566 148.124944 
L 228.731061 137.337494 
L 229.741983 129.986714 
L 231.873541 124.704262 
L 235.275904 121.027933 
L 240.00536 119.942901 
L 245.481847 123.077612 
L 250.243486 131.592007 
L 252.966927 145.353353 
L 253.446701 157.263759 
L 252.947828 170.388688 
L 251.64578 184.367125 
L 249.753709 197.458186 
L 247.973171 205.836557 
L 246.119965 211.258052 
L 244.148416 213.658191 
L 241.767729 212.435209 
L 239.137174 206.61908 
L 236.540412 196.79144 
L 234.43803 185.271146 
L 232.837015 171.448635 
L 232.390968 155.120825 
L 233.671655 142.071184 
L 235.865372 133.506946 
L 238.737351 127.498625 
L 241.860987 124.196242 
L 245.075042 123.921167 
L 247.145526 128.126779 
L 247.011804 136.121011 
L 245.098764 147.491517 
L 235.234572 195.579848 
L 233.348825 203.63667 
L 231.59363 209.40464 
L 230.031129 212.2516 
L 228.508763 211.68487 
L 227.326649 206.463597 
L 226.872829 197.186886 
L 227.294103 186.448212 
L 228.970833 172.580502 
L 232.671263 156.469394 
L 237.541544 143.574406 
L 242.207246 135.357373 
L 246.398816 130.43814 
L 249.338415 128.625967 
L 250.490663 129.312188 
L 249.886867 131.521376 
L 247.826433 134.786047 
L 240.049896 144.779728 
L 234.952312 152.814879 
L 230.831036 161.863803 
L 227.998957 170.474783 
L 225.75241 179.459872 
L 223.74699 189.633311 
L 220.643175 208.489701 
L 220.354177 209.294887 
L 220.631249 206.089043 
L 221.567031 199.784625 
L 223.216403 191.302005 
L 226.278093 179.214669 
L 231.099813 165.02225 
L 238.52043 149.469107 
L 245.069389 139.840243 
L 249.575973 135.09847 
L 252.243691 133.18709 
L 253.647805 132.832284 
L 253.69639 133.593177 
L 252.654531 134.960152 
L 250.870402 136.567473 
L 248.589264 138.26152 
L 245.399686 140.352346 
L 241.066639 143.036055 
L 235.581197 146.715292 
L 229.432897 152.393595 
L 224.499234 160.296765 
L 221.598038 168.744846 
L 220.014899 176.51793 
L 219.056926 184.143323 
L 218.469313 192.875007 
L 218.395395 200.574642 
L 218.783277 205.21175 
L 219.51995 206.63466 
L 220.870898 204.721023 
L 222.98391 198.858357 
L 225.606863 190.8126 
L 229.233779 180.304569 
L 234.324118 167.500611 
L 241.131122 153.620089 
L 247.311464 143.703824 
L 250.882801 139.007603 
L 253.156295 136.148696 
L 252.36714 136.360513 
L 247.385937 138.356575 
L 239.356922 141.176171 
L 234.43599 143.170519 
L 228.662679 147.003165 
L 224.385392 153.644663 
L 222.396659 161.961008 
L 221.779944 170.056544 
L 221.839796 179.023265 
L 222.485047 188.521929 
L 223.687948 197.299419 
L 224.987557 202.331822 
L 226.52066 204.733875 
L 228.458298 204.143928 
L 230.984597 199.73146 
L 234.034396 191.721753 
L 244.904712 159.005751 
L 248.005062 148.884878 
L 248.947441 142.640361 
L 247.873583 139.251452 
L 245.439019 137.40968 
L 242.255002 136.327989 
L 238.580983 135.662525 
L 235.138715 135.525036 
L 231.23032 136.926984 
L 229.200099 142.096273 
L 229.228951 149.792173 
L 230.12971 158.557642 
L 231.611035 169.03026 
L 233.583923 180.761291 
L 235.918564 192.104125 
L 237.87277 199.117355 
L 239.735676 203.293621 
L 241.549273 204.752229 
L 243.63586 203.054995 
L 245.691401 197.512912 
L 247.348543 188.998208 
L 248.206549 179.780688 
L 248.011383 169.081244 
L 246.09044 158.574959 
L 242.507767 149.413377 
L 238.32782 141.819163 
L 234.637899 135.40423 
L 232.412851 130.672709 
L 231.773679 127.917396 
L 232.708363 127.554116 
L 235.323125 131.29314 
L 239.227055 140.81187 
L 242.35352 151.428491 
L 245.212797 163.569603 
L 247.998454 177.423831 
L 250.467798 190.460749 
L 252.131123 198.617882 
L 253.534326 204.14675 
L 254.596734 206.647624 
L 255.372765 206.073988 
L 255.42107 201.787786 
L 254.520434 195.572037 
L 252.572667 188.187485 
L 248.669167 178.397967 
L 242.130434 166.227317 
L 235.00185 153.86246 
L 229.719103 142.410384 
L 227.633356 134.487682 
L 227.527329 128.124573 
L 229.206011 123.76476 
L 232.888411 121.746081 
L 238.357138 123.774636 
L 244.743148 131.259249 
L 250.066509 142.59499 
L 253.750755 154.839814 
L 256.483115 168.055513 
L 258.542601 182.251257 
L 259.850528 194.950963 
L 260.380336 202.284098 
L 260.540429 207.200102 
L 260.246647 209.5889 
L 259.198538 208.595691 
L 253.665421 196.861139 
L 249.391721 188.827431 
L 242.678559 177.387919 
L 234.728327 163.604384 
L 228.518014 149.840216 
L 225.819599 139.213148 
L 225.519612 132.01968 
L 226.771298 126.086845 
L 229.819677 121.483325 
L 234.90867 119.424176 
L 241.590076 121.596947 
L 248.658993 129.232901 
L 254.504446 142.08962 
L 257.528354 154.1289 
L 259.402135 167.253093 
L 260.338342 181.344831 
L 260.405453 194.608719 
L 259.920926 203.268785 
L 259.018253 209.147236 
L 257.716268 211.860428 
L 255.674624 211.219836 
L 252.700751 206.627134 
L 248.796564 198.823133 
L 244.519827 189.815259 
L 239.209576 178.303041 
L 233.199806 163.71097 
L 228.88178 148.82581 
L 227.672594 137.913232 
L 228.380025 130.454338 
L 230.395616 124.853254 
L 233.625851 121.027264 
L 238.511858 119.484226 
L 244.431188 122.061585 
L 250.011309 129.991977 
L 253.781161 143.172828 
L 255.042235 155.568753 
L 255.123408 169.338665 
L 254.289678 183.374167 
L 252.756465 196.621037 
L 251.195235 205.118027 
L 249.475608 210.770347 
L 247.591263 213.433621 
L 245.201996 212.647931 
L 242.390731 207.404887 
L 239.360432 198.15104 
L 236.544015 186.809662 
L 234.031791 173.556811 
L 232.247688 157.519089 
L 232.466496 142.48209 
L 234.077421 133.634244 
L 236.681131 127.18323 
L 239.771154 123.492233 
L 243.205692 122.529432 
L 246.520645 125.714675 
L 248.029149 133.884042 
L 247.313496 146.339007 
L 245.7519 157.50956 
L 243.629634 170.227823 
L 241.20345 183.65225 
L 238.664253 196.357894 
L 236.729072 204.432238 
L 234.905181 210.026524 
L 234.905181 210.026524 
" clip-path="url(#pfa5f160074)" style="fill: none; stroke: #1f77b4; stroke-width: 0.5; stroke-linecap: square"/>
   </g>
   <g id="text_19">
    <!-- Projection onto r-z-p_r space with initial r = -0.08 -->
    <g transform="translate(89.055 35.472) scale(0.12 -0.12)">
     <defs>
      <path id="DejaVuSans-50" d="M 1259 4147 
L 1259 2394 
L 2053 2394 
Q 2494 2394 2734 2622 
Q 2975 2850 2975 3272 
Q 2975 3691 2734 3919 
Q 2494 4147 2053 4147 
L 1259 4147 
z
M 628 4666 
L 2053 4666 
Q 2838 4666 3239 4311 
Q 3641 3956 3641 3272 
Q 3641 2581 3239 2228 
Q 2838 1875 2053 1875 
L 1259 1875 
L 1259 0 
L 628 0 
L 628 4666 
z
" transform="scale(0.015625)"/>
      <path id="DejaVuSans-6f" d="M 1959 3097 
Q 1497 3097 1228 2736 
Q 959 2375 959 1747 
Q 959 1119 1226 758 
Q 1494 397 1959 397 
Q 2419 397 2687 759 
Q 2956 1122 2956 1747 
Q 2956 2369 2687 2733 
Q 2419 3097 1959 3097 
z
M 1959 3584 
Q 2709 3584 3137 3096 
Q 3566 2609 3566 1747 
Q 3566 888 3137 398 
Q 2709 -91 1959 -91 
Q 1206 -91 779 398 
Q 353 888 353 1747 
Q 353 2609 779 3096 
Q 1206 3584 1959 3584 
z
" transform="scale(0.015625)"/>
      <path id="DejaVuSans-6a" d="M 603 3500 
L 1178 3500 
L 1178 -63 
Q 1178 -731 923 -1031 
Q 669 -1331 103 -1331 
L -116 -1331 
L -116 -844 
L 38 -844 
Q 366 -844 484 -692 
Q 603 -541 603 -63 
L 603 3500 
z
M 603 4863 
L 1178 4863 
L 1178 4134 
L 603 4134 
L 603 4863 
z
" transform="scale(0.015625)"/>
      <path id="DejaVuSans-65" d="M 3597 1894 
L 3597 1613 
L 953 1613 
Q 991 1019 1311 708 
Q 1631 397 2203 397 
Q 2534 397 2845 478 
Q 3156 559 3463 722 
L 3463 178 
Q 3153 47 2828 -22 
Q 2503 -91 2169 -91 
Q 1331 -91 842 396 
Q 353 884 353 1716 
Q 353 2575 817 3079 
Q 1281 3584 2069 3584 
Q 2775 3584 3186 3129 
Q 3597 2675 3597 1894 
z
M 3022 2063 
Q 3016 2534 2758 2815 
Q 2500 3097 2075 3097 
Q 1594 3097 1305 2825 
Q 1016 2553 972 2059 
L 3022 2063 
z
" transform="scale(0.015625)"/>
      <path id="DejaVuSans-63" d="M 3122 3366 
L 3122 2828 
Q 2878 2963 2633 3030 
Q 2388 3097 2138 3097 
Q 1578 3097 1268 2742 
Q 959 2388 959 1747 
Q 959 1106 1268 751 
Q 1578 397 2138 397 
Q 2388 397 2633 464 
Q 2878 531 3122 666 
L 3122 134 
Q 2881 22 2623 -34 
Q 2366 -91 2075 -91 
Q 1284 -91 818 406 
Q 353 903 353 1747 
Q 353 2603 823 3093 
Q 1294 3584 2113 3584 
Q 2378 3584 2631 3529 
Q 2884 3475 3122 3366 
z
" transform="scale(0.015625)"/>
      <path id="DejaVuSans-74" d="M 1172 4494 
L 1172 3500 
L 2356 3500 
L 2356 3053 
L 1172 3053 
L 1172 1153 
Q 1172 725 1289 603 
Q 1406 481 1766 481 
L 2356 481 
L 2356 0 
L 1766 0 
Q 1100 0 847 248 
Q 594 497 594 1153 
L 594 3053 
L 172 3053 
L 172 3500 
L 594 3500 
L 594 4494 
L 1172 4494 
z
" transform="scale(0.015625)"/>
      <path id="DejaVuSans-69" d="M 603 3500 
L 1178 3500 
L 1178 0 
L 603 0 
L 603 3500 
z
M 603 4863 
L 1178 4863 
L 1178 4134 
L 603 4134 
L 603 4863 
z
" transform="scale(0.015625)"/>
      <path id="DejaVuSans-6e" d="M 3513 2113 
L 3513 0 
L 2938 0 
L 2938 2094 
Q 2938 2591 2744 2837 
Q 2550 3084 2163 3084 
Q 1697 3084 1428 2787 
Q 1159 2491 1159 1978 
L 1159 0 
L 581 0 
L 581 3500 
L 1159 3500 
L 1159 2956 
Q 1366 3272 1645 3428 
Q 1925 3584 2291 3584 
Q 2894 3584 3203 3211 
Q 3513 2838 3513 2113 
z
" transform="scale(0.015625)"/>
      <path id="DejaVuSans-20" transform="scale(0.015625)"/>
      <path id="DejaVuSans-2d" d="M 313 2009 
L 1997 2009 
L 1997 1497 
L 313 1497 
L 313 2009 
z
" transform="scale(0.015625)"/>
      <path id="DejaVuSans-73" d="M 2834 3397 
L 2834 2853 
Q 2591 2978 2328 3040 
Q 2066 3103 1784 3103 
Q 1356 3103 1142 2972 
Q 928 2841 928 2578 
Q 928 2378 1081 2264 
Q 1234 2150 1697 2047 
L 1894 2003 
Q 2506 1872 2764 1633 
Q 3022 1394 3022 966 
Q 3022 478 2636 193 
Q 2250 -91 1575 -91 
Q 1294 -91 989 -36 
Q 684 19 347 128 
L 347 722 
Q 666 556 975 473 
Q 1284 391 1588 391 
Q 1994 391 2212 530 
Q 2431 669 2431 922 
Q 2431 1156 2273 1281 
Q 2116 1406 1581 1522 
L 1381 1569 
Q 847 1681 609 1914 
Q 372 2147 372 2553 
Q 372 3047 722 3315 
Q 1072 3584 1716 3584 
Q 2034 3584 2315 3537 
Q 2597 3491 2834 3397 
z
" transform="scale(0.015625)"/>
      <path id="DejaVuSans-61" d="M 2194 1759 
Q 1497 1759 1228 1600 
Q 959 1441 959 1056 
Q 959 750 1161 570 
Q 1363 391 1709 391 
Q 2188 391 2477 730 
Q 2766 1069 2766 1631 
L 2766 1759 
L 2194 1759 
z
M 3341 1997 
L 3341 0 
L 2766 0 
L 2766 531 
Q 2569 213 2275 61 
Q 1981 -91 1556 -91 
Q 1019 -91 701 211 
Q 384 513 384 1019 
Q 384 1609 779 1909 
Q 1175 2209 1959 2209 
L 2766 2209 
L 2766 2266 
Q 2766 2663 2505 2880 
Q 2244 3097 1772 3097 
Q 1472 3097 1187 3025 
Q 903 2953 641 2809 
L 641 3341 
Q 956 3463 1253 3523 
Q 1550 3584 1831 3584 
Q 2591 3584 2966 3190 
Q 3341 2797 3341 1997 
z
" transform="scale(0.015625)"/>
      <path id="DejaVuSans-77" d="M 269 3500 
L 844 3500 
L 1563 769 
L 2278 3500 
L 2956 3500 
L 3675 769 
L 4391 3500 
L 4966 3500 
L 4050 0 
L 3372 0 
L 2619 2869 
L 1863 0 
L 1184 0 
L 269 3500 
z
" transform="scale(0.015625)"/>
      <path id="DejaVuSans-68" d="M 3513 2113 
L 3513 0 
L 2938 0 
L 2938 2094 
Q 2938 2591 2744 2837 
Q 2550 3084 2163 3084 
Q 1697 3084 1428 2787 
Q 1159 2491 1159 1978 
L 1159 0 
L 581 0 
L 581 4863 
L 1159 4863 
L 1159 2956 
Q 1366 3272 1645 3428 
Q 1925 3584 2291 3584 
Q 2894 3584 3203 3211 
Q 3513 2838 3513 2113 
z
" transform="scale(0.015625)"/>
      <path id="DejaVuSans-6c" d="M 603 4863 
L 1178 4863 
L 1178 0 
L 603 0 
L 603 4863 
z
" transform="scale(0.015625)"/>
      <path id="DejaVuSans-3d" d="M 678 2906 
L 4684 2906 
L 4684 2381 
L 678 2381 
L 678 2906 
z
M 678 1631 
L 4684 1631 
L 4684 1100 
L 678 1100 
L 678 1631 
z
" transform="scale(0.015625)"/>
      <path id="DejaVuSans-38" d="M 2034 2216 
Q 1584 2216 1326 1975 
Q 1069 1734 1069 1313 
Q 1069 891 1326 650 
Q 1584 409 2034 409 
Q 2484 409 2743 651 
Q 3003 894 3003 1313 
Q 3003 1734 2745 1975 
Q 2488 2216 2034 2216 
z
M 1403 2484 
Q 997 2584 770 2862 
Q 544 3141 544 3541 
Q 544 4100 942 4425 
Q 1341 4750 2034 4750 
Q 2731 4750 3128 4425 
Q 3525 4100 3525 3541 
Q 3525 3141 3298 2862 
Q 3072 2584 2669 2484 
Q 3125 2378 3379 2068 
Q 3634 1759 3634 1313 
Q 3634 634 3220 271 
Q 2806 -91 2034 -91 
Q 1263 -91 848 271 
Q 434 634 434 1313 
Q 434 1759 690 2068 
Q 947 2378 1403 2484 
z
M 1172 3481 
Q 1172 3119 1398 2916 
Q 1625 2713 2034 2713 
Q 2441 2713 2670 2916 
Q 2900 3119 2900 3481 
Q 2900 3844 2670 4047 
Q 2441 4250 2034 4250 
Q 1625 4250 1398 4047 
Q 1172 3844 1172 3481 
z
" transform="scale(0.015625)"/>
     </defs>
     <use xlink:href="#DejaVuSans-50"/>
     <use xlink:href="#DejaVuSans-72" x="58.552734"/>
     <use xlink:href="#DejaVuSans-6f" x="97.416016"/>
     <use xlink:href="#DejaVuSans-6a" x="158.597656"/>
     <use xlink:href="#DejaVuSans-65" x="186.380859"/>
     <use xlink:href="#DejaVuSans-63" x="247.904297"/>
     <use xlink:href="#DejaVuSans-74" x="302.884766"/>
     <use xlink:href="#DejaVuSans-69" x="342.09375"/>
     <use xlink:href="#DejaVuSans-6f" x="369.876953"/>
     <use xlink:href="#DejaVuSans-6e" x="431.058594"/>
     <use xlink:href="#DejaVuSans-20" x="494.4375"/>
     <use xlink:href="#DejaVuSans-6f" x="526.224609"/>
     <use xlink:href="#DejaVuSans-6e" x="587.40625"/>
     <use xlink:href="#DejaVuSans-74" x="650.785156"/>
     <use xlink:href="#DejaVuSans-6f" x="689.994141"/>
     <use xlink:href="#DejaVuSans-20" x="751.175781"/>
     <use xlink:href="#DejaVuSans-72" x="782.962891"/>
     <use xlink:href="#DejaVuSans-2d" x="817.701172"/>
     <use xlink:href="#DejaVuSans-7a" x="853.785156"/>
     <use xlink:href="#DejaVuSans-2d" x="906.275391"/>
     <use xlink:href="#DejaVuSans-70" x="942.359375"/>
     <use xlink:href="#DejaVuSans-5f" x="1005.835938"/>
     <use xlink:href="#DejaVuSans-72" x="1055.835938"/>
     <use xlink:href="#DejaVuSans-20" x="1096.949219"/>
     <use xlink:href="#DejaVuSans-73" x="1128.736328"/>
     <use xlink:href="#DejaVuSans-70" x="1180.835938"/>
     <use xlink:href="#DejaVuSans-61" x="1244.3125"/>
     <use xlink:href="#DejaVuSans-63" x="1305.591797"/>
     <use xlink:href="#DejaVuSans-65" x="1360.572266"/>
     <use xlink:href="#DejaVuSans-20" x="1422.095703"/>
     <use xlink:href="#DejaVuSans-77" x="1453.882812"/>
     <use xlink:href="#DejaVuSans-69" x="1535.669922"/>
     <use xlink:href="#DejaVuSans-74" x="1563.453125"/>
     <use xlink:href="#DejaVuSans-68" x="1602.662109"/>
     <use xlink:href="#DejaVuSans-20" x="1666.041016"/>
     <use xlink:href="#DejaVuSans-69" x="1697.828125"/>
     <use xlink:href="#DejaVuSans-6e" x="1725.611328"/>
     <use xlink:href="#DejaVuSans-69" x="1788.990234"/>
     <use xlink:href="#DejaVuSans-74" x="1816.773438"/>
     <use xlink:href="#DejaVuSans-69" x="1855.982422"/>
     <use xlink:href="#DejaVuSans-61" x="1883.765625"/>
     <use xlink:href="#DejaVuSans-6c" x="1945.044922"/>
     <use xlink:href="#DejaVuSans-20" x="1972.828125"/>
     <use xlink:href="#DejaVuSans-72" x="2004.615234"/>
     <use xlink:href="#DejaVuSans-20" x="2045.728516"/>
     <use xlink:href="#DejaVuSans-3d" x="2077.515625"/>
     <use xlink:href="#DejaVuSans-20" x="2161.304688"/>
     <use xlink:href="#DejaVuSans-2d" x="2193.091797"/>
     <use xlink:href="#DejaVuSans-30" x="2229.175781"/>
     <use xlink:href="#DejaVuSans-2e" x="2292.798828"/>
     <use xlink:href="#DejaVuSans-30" x="2324.585938"/>
     <use xlink:href="#DejaVuSans-38" x="2388.208984"/>
    </g>
   </g>
  </g>
 </g>
 <defs>
  <clipPath id="pfa5f160074">
   <rect x="103.104" y="41.472" width="266.112" height="266.112"/>
  </clipPath>
 </defs>
</svg>
