<?xml version="1.0" encoding="utf-8" standalone="no"?>
<!DOCTYPE svg PUBLIC "-//W3C//DTD SVG 1.1//EN"
  "http://www.w3.org/Graphics/SVG/1.1/DTD/svg11.dtd">
<svg xmlns:xlink="http://www.w3.org/1999/xlink" width="460.8pt" height="345.6pt" viewBox="0 0 460.8 345.6" xmlns="http://www.w3.org/2000/svg" version="1.1">
 <metadata>
  <rdf:RDF xmlns:dc="http://purl.org/dc/elements/1.1/" xmlns:cc="http://creativecommons.org/ns#" xmlns:rdf="http://www.w3.org/1999/02/22-rdf-syntax-ns#">
   <cc:Work>
    <dc:type rdf:resource="http://purl.org/dc/dcmitype/StillImage"/>
    <dc:date>2023-10-23T14:50:12.775480</dc:date>
    <dc:format>image/svg+xml</dc:format>
    <dc:creator>
     <cc:Agent>
      <dc:title>Matplotlib v3.8.0, https://matplotlib.org/</dc:title>
     </cc:Agent>
    </dc:creator>
   </cc:Work>
  </rdf:RDF>
 </metadata>
 <defs>
  <style type="text/css">*{stroke-linejoin: round; stroke-linecap: butt}</style>
 </defs>
 <g id="figure_1">
  <g id="patch_1">
   <path d="M 0 345.6 
L 460.8 345.6 
L 460.8 0 
L 0 0 
z
" style="fill: #ffffff"/>
  </g>
  <g id="patch_2">
   <path d="M 103.104 307.584 
L 369.216 307.584 
L 369.216 41.472 
L 103.104 41.472 
z
" style="fill: #ffffff"/>
  </g>
  <g id="pane3d_1">
   <g id="patch_3">
    <path d="M 123.197291 241.969309 
L 211.076164 168.307495 
L 209.854564 62.073991 
L 117.770234 129.272941 
" style="fill: #f2f2f2; opacity: 0.5; stroke: #f2f2f2; stroke-linejoin: miter"/>
   </g>
  </g>
  <g id="pane3d_2">
   <g id="patch_4">
    <path d="M 211.076164 168.307495 
L 352.090401 209.294766 
L 357.122702 99.402171 
L 209.854564 62.073991 
" style="fill: #e6e6e6; opacity: 0.5; stroke: #e6e6e6; stroke-linejoin: miter"/>
   </g>
  </g>
  <g id="pane3d_3">
   <g id="patch_5">
    <path d="M 123.197291 241.969309 
L 272.679269 290.790123 
L 352.090401 209.294766 
L 211.076164 168.307495 
" style="fill: #ececec; opacity: 0.5; stroke: #ececec; stroke-linejoin: miter"/>
   </g>
  </g>
  <g id="grid3d_1">
   <g id="Line3DCollection_1">
    <path d="M 139.745029 247.3738 
L 226.747915 172.862654 
L 226.190662 66.214715 
" style="fill: none; stroke: #b0b0b0; stroke-width: 0.8"/>
    <path d="M 167.574724 256.462979 
L 253.069813 180.513391 
L 253.645623 73.173748 
" style="fill: none; stroke: #b0b0b0; stroke-width: 0.8"/>
    <path d="M 195.967881 265.736184 
L 279.880048 188.306068 
L 281.632185 80.267526 
" style="fill: none; stroke: #b0b0b0; stroke-width: 0.8"/>
    <path d="M 224.941789 275.199062 
L 307.192338 196.244672 
L 310.165939 87.500001 
" style="fill: none; stroke: #b0b0b0; stroke-width: 0.8"/>
    <path d="M 254.514447 284.857492 
L 335.020917 204.333341 
L 339.263092 94.875281 
" style="fill: none; stroke: #b0b0b0; stroke-width: 0.8"/>
   </g>
  </g>
  <g id="grid3d_2">
   <g id="Line3DCollection_2">
    <path d="M 129.321936 120.843035 
L 134.184874 232.759299 
L 282.646541 280.56125 
" style="fill: none; stroke: #b0b0b0; stroke-width: 0.8"/>
    <path d="M 147.908894 107.279119 
L 151.886109 217.921773 
L 298.68087 264.106083 
" style="fill: none; stroke: #b0b0b0; stroke-width: 0.8"/>
    <path d="M 165.860779 94.178651 
L 169.008295 203.569617 
L 314.163547 248.217048 
" style="fill: none; stroke: #b0b0b0; stroke-width: 0.8"/>
    <path d="M 183.209592 81.518278 
L 185.579387 189.679399 
L 329.122557 232.865423 
" style="fill: none; stroke: #b0b0b0; stroke-width: 0.8"/>
    <path d="M 199.985219 69.276189 
L 201.62557 176.22917 
L 343.584028 218.024397 
" style="fill: none; stroke: #b0b0b0; stroke-width: 0.8"/>
   </g>
  </g>
  <g id="grid3d_3">
   <g id="Line3DCollection_3">
    <path d="M 352.651911 197.032811 
L 210.939601 156.431576 
L 122.59264 229.41333 
" style="fill: none; stroke: #b0b0b0; stroke-width: 0.8"/>
    <path d="M 353.593746 176.465549 
L 210.710684 136.52439 
L 121.577933 208.34229 
" style="fill: none; stroke: #b0b0b0; stroke-width: 0.8"/>
    <path d="M 354.551427 155.552235 
L 210.478101 116.298387 
L 120.545497 186.903085 
" style="fill: none; stroke: #b0b0b0; stroke-width: 0.8"/>
    <path d="M 355.525359 134.284061 
L 210.241763 95.745848 
L 119.494863 165.085982 
" style="fill: none; stroke: #b0b0b0; stroke-width: 0.8"/>
    <path d="M 356.515957 112.651918 
L 210.001579 74.858801 
L 118.425545 142.8809 
" style="fill: none; stroke: #b0b0b0; stroke-width: 0.8"/>
   </g>
  </g>
  <g id="axis3d_1">
   <g id="line2d_1">
    <path d="M 123.197291 241.969309 
L 272.679269 290.790123 
" style="fill: none; stroke: #000000; stroke-width: 0.8; stroke-linecap: square"/>
   </g>
   <g id="xtick_1">
    <g id="line2d_2">
     <path d="M 140.502812 246.724819 
L 138.226203 248.674556 
" style="fill: none; stroke: #000000; stroke-width: 0.8; stroke-linecap: square"/>
    </g>
    <g id="text_1">
     <!-- −0.4 -->
     <g transform="translate(120.082057 270.734746) scale(0.1 -0.1)">
      <defs>
       <path id="DejaVuSans-2212" d="M 678 2272 
L 4684 2272 
L 4684 1741 
L 678 1741 
L 678 2272 
z
" transform="scale(0.015625)"/>
       <path id="DejaVuSans-30" d="M 2034 4250 
Q 1547 4250 1301 3770 
Q 1056 3291 1056 2328 
Q 1056 1369 1301 889 
Q 1547 409 2034 409 
Q 2525 409 2770 889 
Q 3016 1369 3016 2328 
Q 3016 3291 2770 3770 
Q 2525 4250 2034 4250 
z
M 2034 4750 
Q 2819 4750 3233 4129 
Q 3647 3509 3647 2328 
Q 3647 1150 3233 529 
Q 2819 -91 2034 -91 
Q 1250 -91 836 529 
Q 422 1150 422 2328 
Q 422 3509 836 4129 
Q 1250 4750 2034 4750 
z
" transform="scale(0.015625)"/>
       <path id="DejaVuSans-2e" d="M 684 794 
L 1344 794 
L 1344 0 
L 684 0 
L 684 794 
z
" transform="scale(0.015625)"/>
       <path id="DejaVuSans-34" d="M 2419 4116 
L 825 1625 
L 2419 1625 
L 2419 4116 
z
M 2253 4666 
L 3047 4666 
L 3047 1625 
L 3713 1625 
L 3713 1100 
L 3047 1100 
L 3047 0 
L 2419 0 
L 2419 1100 
L 313 1100 
L 313 1709 
L 2253 4666 
z
" transform="scale(0.015625)"/>
      </defs>
      <use xlink:href="#DejaVuSans-2212"/>
      <use xlink:href="#DejaVuSans-30" x="83.789062"/>
      <use xlink:href="#DejaVuSans-2e" x="147.412109"/>
      <use xlink:href="#DejaVuSans-34" x="179.199219"/>
     </g>
    </g>
   </g>
   <g id="xtick_2">
    <g id="line2d_3">
     <path d="M 168.319982 255.800928 
L 166.08097 257.789956 
" style="fill: none; stroke: #000000; stroke-width: 0.8; stroke-linecap: square"/>
    </g>
    <g id="text_2">
     <!-- −0.2 -->
     <g transform="translate(147.940862 280.01671) scale(0.1 -0.1)">
      <defs>
       <path id="DejaVuSans-32" d="M 1228 531 
L 3431 531 
L 3431 0 
L 469 0 
L 469 531 
Q 828 903 1448 1529 
Q 2069 2156 2228 2338 
Q 2531 2678 2651 2914 
Q 2772 3150 2772 3378 
Q 2772 3750 2511 3984 
Q 2250 4219 1831 4219 
Q 1534 4219 1204 4116 
Q 875 4013 500 3803 
L 500 4441 
Q 881 4594 1212 4672 
Q 1544 4750 1819 4750 
Q 2544 4750 2975 4387 
Q 3406 4025 3406 3419 
Q 3406 3131 3298 2873 
Q 3191 2616 2906 2266 
Q 2828 2175 2409 1742 
Q 1991 1309 1228 531 
z
" transform="scale(0.015625)"/>
      </defs>
      <use xlink:href="#DejaVuSans-2212"/>
      <use xlink:href="#DejaVuSans-30" x="83.789062"/>
      <use xlink:href="#DejaVuSans-2e" x="147.412109"/>
      <use xlink:href="#DejaVuSans-32" x="179.199219"/>
     </g>
    </g>
   </g>
   <g id="xtick_3">
    <g id="line2d_4">
     <path d="M 196.69995 265.060666 
L 194.500531 267.090184 
" style="fill: none; stroke: #000000; stroke-width: 0.8; stroke-linecap: square"/>
    </g>
    <g id="text_3">
     <!-- 0.0 -->
     <g transform="translate(180.555708 289.487318) scale(0.1 -0.1)">
      <use xlink:href="#DejaVuSans-30"/>
      <use xlink:href="#DejaVuSans-2e" x="63.623047"/>
      <use xlink:href="#DejaVuSans-30" x="95.410156"/>
     </g>
    </g>
   </g>
   <g id="xtick_4">
    <g id="line2d_5">
     <path d="M 225.659969 274.509662 
L 223.502242 276.580919 
" style="fill: none; stroke: #000000; stroke-width: 0.8; stroke-linecap: square"/>
    </g>
    <g id="text_4">
     <!-- 0.2 -->
     <g transform="translate(209.564345 299.152381) scale(0.1 -0.1)">
      <use xlink:href="#DejaVuSans-30"/>
      <use xlink:href="#DejaVuSans-2e" x="63.623047"/>
      <use xlink:href="#DejaVuSans-32" x="95.410156"/>
     </g>
    </g>
   </g>
   <g id="xtick_5">
    <g id="line2d_6">
     <path d="M 255.218008 284.153777 
L 253.104175 286.268074 
" style="fill: none; stroke: #000000; stroke-width: 0.8; stroke-linecap: square"/>
    </g>
    <g id="text_5">
     <!-- 0.4 -->
     <g transform="translate(239.174779 309.01795) scale(0.1 -0.1)">
      <use xlink:href="#DejaVuSans-30"/>
      <use xlink:href="#DejaVuSans-2e" x="63.623047"/>
      <use xlink:href="#DejaVuSans-34" x="95.410156"/>
     </g>
    </g>
   </g>
   <g id="text_6">
    <!-- r -->
    <g transform="translate(177.620959 303.76759) scale(0.1 -0.1)">
     <defs>
      <path id="DejaVuSans-72" d="M 2631 2963 
Q 2534 3019 2420 3045 
Q 2306 3072 2169 3072 
Q 1681 3072 1420 2755 
Q 1159 2438 1159 1844 
L 1159 0 
L 581 0 
L 581 3500 
L 1159 3500 
L 1159 2956 
Q 1341 3275 1631 3429 
Q 1922 3584 2338 3584 
Q 2397 3584 2469 3576 
Q 2541 3569 2628 3553 
L 2631 2963 
z
" transform="scale(0.015625)"/>
     </defs>
     <use xlink:href="#DejaVuSans-72"/>
    </g>
   </g>
  </g>
  <g id="axis3d_2">
   <g id="line2d_7">
    <path d="M 352.090401 209.294766 
L 272.679269 290.790123 
" style="fill: none; stroke: #000000; stroke-width: 0.8; stroke-linecap: square"/>
   </g>
   <g id="xtick_6">
    <g id="line2d_8">
     <path d="M 281.395758 280.158521 
L 285.151326 281.367745 
" style="fill: none; stroke: #000000; stroke-width: 0.8; stroke-linecap: square"/>
    </g>
    <g id="text_7">
     <!-- −0.4 -->
     <g transform="translate(283.325813 301.514986) scale(0.1 -0.1)">
      <use xlink:href="#DejaVuSans-2212"/>
      <use xlink:href="#DejaVuSans-30" x="83.789062"/>
      <use xlink:href="#DejaVuSans-2e" x="147.412109"/>
      <use xlink:href="#DejaVuSans-34" x="179.199219"/>
     </g>
    </g>
   </g>
   <g id="xtick_7">
    <g id="line2d_9">
     <path d="M 297.445222 263.717326 
L 301.155291 264.884581 
" style="fill: none; stroke: #000000; stroke-width: 0.8; stroke-linecap: square"/>
    </g>
    <g id="text_8">
     <!-- −0.2 -->
     <g transform="translate(299.144994 284.816287) scale(0.1 -0.1)">
      <use xlink:href="#DejaVuSans-2212"/>
      <use xlink:href="#DejaVuSans-30" x="83.789062"/>
      <use xlink:href="#DejaVuSans-2e" x="147.412109"/>
      <use xlink:href="#DejaVuSans-32" x="179.199219"/>
     </g>
    </g>
   </g>
   <g id="xtick_8">
    <g id="line2d_10">
     <path d="M 312.942742 247.841548 
L 316.608191 248.968982 
" style="fill: none; stroke: #000000; stroke-width: 0.8; stroke-linecap: square"/>
    </g>
    <g id="text_9">
     <!-- 0.0 -->
     <g transform="translate(318.609453 268.692429) scale(0.1 -0.1)">
      <use xlink:href="#DejaVuSans-30"/>
      <use xlink:href="#DejaVuSans-2e" x="63.623047"/>
      <use xlink:href="#DejaVuSans-30" x="95.410156"/>
     </g>
    </g>
   </g>
   <g id="xtick_9">
    <g id="line2d_11">
     <path d="M 327.916306 232.502514 
L 331.538007 233.592129 
" style="fill: none; stroke: #000000; stroke-width: 0.8; stroke-linecap: square"/>
    </g>
    <g id="text_10">
     <!-- 0.2 -->
     <g transform="translate(333.367149 253.114231) scale(0.1 -0.1)">
      <use xlink:href="#DejaVuSans-30"/>
      <use xlink:href="#DejaVuSans-2e" x="63.623047"/>
      <use xlink:href="#DejaVuSans-32" x="95.410156"/>
     </g>
    </g>
   </g>
   <g id="xtick_10">
    <g id="line2d_12">
     <path d="M 342.392046 217.673455 
L 345.970856 218.727124 
" style="fill: none; stroke: #000000; stroke-width: 0.8; stroke-linecap: square"/>
    </g>
    <g id="text_11">
     <!-- 0.4 -->
     <g transform="translate(347.633727 238.054456) scale(0.1 -0.1)">
      <use xlink:href="#DejaVuSans-30"/>
      <use xlink:href="#DejaVuSans-2e" x="63.623047"/>
      <use xlink:href="#DejaVuSans-34" x="95.410156"/>
     </g>
    </g>
   </g>
   <g id="text_12">
    <!-- z -->
    <g transform="translate(338.508563 278.988697) scale(0.1 -0.1)">
     <defs>
      <path id="DejaVuSans-7a" d="M 353 3500 
L 3084 3500 
L 3084 2975 
L 922 459 
L 3084 459 
L 3084 0 
L 275 0 
L 275 525 
L 2438 3041 
L 353 3041 
L 353 3500 
z
" transform="scale(0.015625)"/>
     </defs>
     <use xlink:href="#DejaVuSans-7a"/>
    </g>
   </g>
  </g>
  <g id="axis3d_3">
   <g id="line2d_13">
    <path d="M 352.090401 209.294766 
L 357.122702 99.402171 
" style="fill: none; stroke: #000000; stroke-width: 0.8; stroke-linecap: square"/>
   </g>
   <g id="xtick_11">
    <g id="line2d_14">
     <path d="M 351.462276 196.691975 
L 355.034024 197.715298 
" style="fill: none; stroke: #000000; stroke-width: 0.8; stroke-linecap: square"/>
    </g>
    <g id="text_13">
     <!-- −0.4 -->
     <g transform="translate(358.848394 202.050217) scale(0.1 -0.1)">
      <use xlink:href="#DejaVuSans-2212"/>
      <use xlink:href="#DejaVuSans-30" x="83.789062"/>
      <use xlink:href="#DejaVuSans-2e" x="147.412109"/>
      <use xlink:href="#DejaVuSans-34" x="179.199219"/>
     </g>
    </g>
   </g>
   <g id="xtick_12">
    <g id="line2d_15">
     <path d="M 352.393813 176.130123 
L 355.996504 177.13721 
" style="fill: none; stroke: #000000; stroke-width: 0.8; stroke-linecap: square"/>
    </g>
    <g id="text_14">
     <!-- −0.2 -->
     <g transform="translate(359.939887 181.523976) scale(0.1 -0.1)">
      <use xlink:href="#DejaVuSans-2212"/>
      <use xlink:href="#DejaVuSans-30" x="83.789062"/>
      <use xlink:href="#DejaVuSans-2e" x="147.412109"/>
      <use xlink:href="#DejaVuSans-32" x="179.199219"/>
     </g>
    </g>
   </g>
   <g id="xtick_13">
    <g id="line2d_16">
     <path d="M 353.341016 155.22245 
L 356.975191 156.212608 
" style="fill: none; stroke: #000000; stroke-width: 0.8; stroke-linecap: square"/>
    </g>
    <g id="text_15">
     <!-- 0.0 -->
     <g transform="translate(365.239531 160.653431) scale(0.1 -0.1)">
      <use xlink:href="#DejaVuSans-30"/>
      <use xlink:href="#DejaVuSans-2e" x="63.623047"/>
      <use xlink:href="#DejaVuSans-30" x="95.410156"/>
     </g>
    </g>
   </g>
   <g id="xtick_14">
    <g id="line2d_17">
     <path d="M 354.304285 133.960157 
L 357.970499 134.932664 
" style="fill: none; stroke: #000000; stroke-width: 0.8; stroke-linecap: square"/>
    </g>
    <g id="text_16">
     <!-- 0.2 -->
     <g transform="translate(366.368105 139.429846) scale(0.1 -0.1)">
      <use xlink:href="#DejaVuSans-30"/>
      <use xlink:href="#DejaVuSans-2e" x="63.623047"/>
      <use xlink:href="#DejaVuSans-32" x="95.410156"/>
     </g>
    </g>
   </g>
   <g id="xtick_15">
    <g id="line2d_18">
     <path d="M 355.284032 112.334145 
L 358.982853 113.288249 
" style="fill: none; stroke: #000000; stroke-width: 0.8; stroke-linecap: square"/>
    </g>
    <g id="text_17">
     <!-- 0.4 -->
     <g transform="translate(367.515933 117.844187) scale(0.1 -0.1)">
      <use xlink:href="#DejaVuSans-30"/>
      <use xlink:href="#DejaVuSans-2e" x="63.623047"/>
      <use xlink:href="#DejaVuSans-34" x="95.410156"/>
     </g>
    </g>
   </g>
   <g id="text_18">
    <!-- p_r -->
    <g transform="translate(387.197542 152.624154) scale(0.1 -0.1)">
     <defs>
      <path id="DejaVuSans-70" d="M 1159 525 
L 1159 -1331 
L 581 -1331 
L 581 3500 
L 1159 3500 
L 1159 2969 
Q 1341 3281 1617 3432 
Q 1894 3584 2278 3584 
Q 2916 3584 3314 3078 
Q 3713 2572 3713 1747 
Q 3713 922 3314 415 
Q 2916 -91 2278 -91 
Q 1894 -91 1617 61 
Q 1341 213 1159 525 
z
M 3116 1747 
Q 3116 2381 2855 2742 
Q 2594 3103 2138 3103 
Q 1681 3103 1420 2742 
Q 1159 2381 1159 1747 
Q 1159 1113 1420 752 
Q 1681 391 2138 391 
Q 2594 391 2855 752 
Q 3116 1113 3116 1747 
z
" transform="scale(0.015625)"/>
      <path id="DejaVuSans-5f" d="M 3263 -1063 
L 3263 -1509 
L -63 -1509 
L -63 -1063 
L 3263 -1063 
z
" transform="scale(0.015625)"/>
     </defs>
     <use xlink:href="#DejaVuSans-70"/>
     <use xlink:href="#DejaVuSans-5f" x="63.476562"/>
     <use xlink:href="#DejaVuSans-72" x="113.476562"/>
    </g>
   </g>
  </g>
  <g id="axes_1">
   <g id="line2d_19">
    <path d="M 220.98864 177.487651 
L 221.771947 175.037266 
L 226.968181 161.820293 
L 234.554309 148.238948 
L 242.878461 138.10709 
L 250.155091 132.529392 
L 255.378559 130.836017 
L 257.872151 131.820834 
L 258.079477 134.469392 
L 256.275634 137.797561 
L 253.637704 140.746489 
L 250.130272 143.805087 
L 246.254797 146.706647 
L 234.632648 154.84606 
L 227.171624 161.286589 
L 220.129504 170.34211 
L 216.104219 178.270585 
L 213.530101 185.24174 
L 211.54113 192.184983 
L 210.115594 198.330658 
L 208.659603 206.264301 
L 208.596361 207.423573 
L 209.27402 205.362355 
L 210.888825 199.903339 
L 213.901227 190.790348 
L 218.853212 178.415358 
L 226.362567 163.806871 
L 236.519855 149.337437 
L 246.182123 139.799231 
L 254.697201 134.698316 
L 259.43134 133.924308 
L 261.416885 135.273939 
L 261.346719 137.476265 
L 259.702434 140.274124 
L 256.706593 143.289439 
L 251.974387 146.725068 
L 245.832613 150.214206 
L 231.196206 157.351592 
L 223.42219 162.010578 
L 215.521539 169.604232 
L 210.986219 177.354718 
L 208.251192 185.022817 
L 206.688173 191.826346 
L 205.907876 197.054326 
L 205.574034 201.307259 
L 205.641884 203.970613 
L 206.186816 205.238663 
L 207.48869 203.908632 
L 209.783324 199.231683 
L 213.410403 191.094165 
L 218.809998 179.855024 
L 226.516559 166.338373 
L 236.508787 152.664926 
L 247.520711 141.887647 
L 255.119229 137.15095 
L 259.851331 135.916849 
L 261.965255 136.737157 
L 262.158225 138.407416 
L 261.058285 140.515097 
L 258.1727 143.445208 
L 253.280924 146.789503 
L 246.672342 150.124282 
L 238.895069 153.280449 
L 230.537259 156.484534 
L 222.59484 160.254701 
L 214.406092 167.078367 
L 210.026141 174.590328 
L 207.672911 182.384634 
L 206.582661 189.518212 
L 206.271048 195.082608 
L 206.444666 199.663546 
L 207.085094 202.792046 
L 208.165843 203.95603 
L 209.967704 202.740162 
L 212.531084 198.716314 
L 221.54037 181.297577 
L 228.722463 168.798709 
L 237.68097 155.924162 
L 246.965333 145.649295 
L 253.336827 140.488971 
L 257.48206 138.245846 
L 259.673694 137.801797 
L 260.475253 138.448152 
L 259.806067 139.923475 
L 257.430334 142.092855 
L 253.052946 144.729085 
L 246.955396 147.373076 
L 239.668356 149.799893 
L 231.787098 152.158815 
L 224.246545 154.996034 
L 216.747321 160.622114 
L 212.89617 167.89605 
L 211.235624 175.920081 
L 210.819306 183.357903 
L 211.124772 190.663102 
L 211.996699 196.813198 
L 213.489129 201.413409 
L 215.335419 203.100401 
L 217.739266 201.96532 
L 220.979939 197.504409 
L 224.633988 190.810227 
L 229.04833 182.135726 
L 234.941086 170.952993 
L 241.757614 159.36447 
L 248.457325 149.606221 
L 252.871124 144.058872 
L 255.40016 141.062516 
L 255.730844 140.137003 
L 254.102311 140.402912 
L 250.857765 141.236345 
L 246.070597 142.259346 
L 240.205902 143.199853 
L 233.911923 144.081843 
L 228.042494 145.352139 
L 222.457194 148.894022 
L 219.89338 155.297354 
L 219.483909 163.540662 
L 220.104811 171.524344 
L 221.331833 179.940636 
L 223.310065 189.296312 
L 225.553817 196.49711 
L 228.072976 201.149268 
L 230.704124 202.652273 
L 233.638199 201.008689 
L 237.109433 195.719124 
L 240.85505 187.305877 
L 244.452372 177.445729 
L 247.570593 167.388694 
L 249.730794 157.636903 
L 249.852639 150.380851 
L 247.856556 145.342978 
L 244.317322 141.755532 
L 240.154518 138.932179 
L 235.659741 136.280994 
L 231.567421 134.065798 
L 229.094804 133.624178 
L 229.016069 136.776107 
L 230.859907 144.082297 
L 236.185612 164.026444 
L 239.474569 176.57847 
L 242.940761 188.83604 
L 245.541921 196.411152 
L 247.967127 201.442552 
L 250.32223 203.781944 
L 252.513884 202.917474 
L 254.280713 198.510899 
L 255.008909 192.274667 
L 254.601566 185.102564 
L 252.337633 176.173895 
L 247.833886 167.081952 
L 241.001028 157.303993 
L 234.256154 148.007889 
L 229.081855 138.96945 
L 226.944333 132.744784 
L 226.649627 127.781242 
L 228.359502 124.519908 
L 232.327661 124.402149 
L 238.199755 129.189118 
L 244.888734 139.755852 
L 249.846193 151.443183 
L 254.071483 164.571345 
L 257.779622 178.74101 
L 262.519575 199.022208 
L 263.795486 203.973153 
L 264.67102 206.677307 
L 264.833131 206.442704 
L 263.686808 202.94412 
L 260.931703 197.351216 
L 256.703461 190.953079 
L 249.171866 181.833458 
L 238.568304 169.91317 
L 229.281959 157.596982 
L 222.950221 144.982101 
L 220.863919 136.029975 
L 221.267771 128.420562 
L 224.054976 122.765129 
L 229.557621 119.694365 
L 237.45303 121.016519 
L 246.565453 127.969505 
L 255.032742 140.086247 
L 260.593736 152.399476 
L 264.686964 165.115288 
L 267.957608 179.069931 
L 270.152144 191.923555 
L 271.140205 199.985012 
L 271.502648 205.668624 
L 271.162233 208.87287 
L 269.724548 209.260538 
L 266.695627 206.535166 
L 262.023657 201.627822 
L 256.100919 195.672317 
L 246.548922 186.38346 
L 235.519801 174.720957 
L 225.789032 161.39051 
L 219.460026 147.299223 
L 217.786361 138.215643 
L 218.302171 130.368114 
L 221.064908 123.719377 
L 226.632695 118.983515 
L 234.925177 118.032521 
L 245.004836 122.421912 
L 254.919574 132.39331 
L 262.536632 145.495515 
L 267.516226 158.751328 
L 270.847398 171.993269 
L 273.038601 185.576349 
L 274.020194 197.342852 
L 274.017682 204.168291 
L 273.433512 208.490701 
L 271.915783 210.949657 
L 269.018791 210.421587 
L 264.412885 206.899396 
L 258.459521 201.495797 
L 250.730378 194.225444 
L 239.536937 182.879283 
L 228.888958 169.578395 
L 221.002309 155.036436 
L 217.708819 143.134832 
L 217.429239 134.527738 
L 219.191823 127.128278 
L 223.185859 121.135627 
L 229.968479 117.444298 
L 239.238599 117.971462 
L 249.636772 124.085489 
L 258.938593 135.347951 
L 266.129819 150.776454 
L 269.899098 164.519098 
L 272.059293 178.046834 
L 272.981701 191.261503 
L 272.823573 200.97767 
L 271.991357 207.345757 
L 270.56521 211.112476 
L 268.05237 212.456002 
L 264.105308 210.511853 
L 258.618432 205.548124 
L 252.27381 198.945318 
L 243.77067 189.420736 
L 234.351826 177.401082 
L 225.696829 162.94582 
L 220.383312 147.913824 
L 219.337283 137.207464 
L 220.726094 128.831592 
L 224.14525 122.354086 
L 229.518439 118.100592 
L 237.417178 116.928211 
L 246.851912 120.752669 
L 255.775496 130.096569 
L 262.307425 143.30717 
L 265.730247 155.993738 
L 267.570741 169.540268 
L 268.075128 183.290867 
L 267.424127 196.271018 
L 266.160582 204.881351 
L 264.381906 210.698707 
L 262.118807 213.568316 
L 258.844998 213.341278 
L 254.413147 209.293298 
L 248.951635 201.942226 
L 243.229259 193.010986 
L 236.659991 181.464516 
L 229.847723 166.719281 
L 225.2756 151.175872 
L 224.244357 139.284809 
L 225.425008 130.804799 
L 228.10292 124.459278 
L 232.648425 119.654214 
L 238.36507 117.784596 
L 245.610841 119.866704 
L 252.46197 127.250972 
L 257.144264 139.475062 
L 259.04301 155.033498 
L 258.823842 168.808855 
L 257.489041 182.553428 
L 255.24092 196.009842 
L 252.938392 205.199862 
L 250.494362 211.430715 
L 248.009907 214.58578 
L 244.913554 214.647416 
L 241.330091 210.305663 
L 237.554391 201.566516 
L 234.150187 190.09786 
L 231.477955 177.252574 
L 229.728597 160.989799 
L 230.315957 145.114072 
L 232.486915 135.215095 
L 235.855471 127.803021 
L 239.736459 123.39445 
L 244.259301 121.762052 
L 248.323328 124.284758 
L 250.271497 131.229182 
L 249.642652 141.495177 
L 246.983497 154.731918 
L 244.007112 166.854251 
L 240.734633 179.606774 
L 237.263458 192.569205 
L 234.471927 201.923106 
L 231.806375 209.050136 
L 229.333176 213.102089 
L 227.085134 213.550649 
L 225.060067 209.512153 
L 223.888844 202.148666 
L 223.57275 192.556103 
L 224.499479 179.025335 
L 227.333271 163.672543 
L 233.101847 147.04741 
L 238.250459 137.841202 
L 243.565592 131.465662 
L 249.123373 127.720903 
L 252.42763 127.640978 
L 253.566798 129.931962 
L 252.56414 133.606716 
L 249.818388 138.124258 
L 245.670631 143.40009 
L 240.3497 149.853197 
L 234.26947 158.24656 
L 229.291348 167.030859 
L 225.641185 175.283939 
L 222.596523 183.757233 
L 219.782217 192.994024 
L 215.769385 206.984879 
L 214.599114 209.814921 
L 213.916635 209.401174 
L 214.039838 204.890122 
L 215.125922 197.434048 
L 217.71654 186.176521 
L 222.480138 171.847517 
L 229.907 156.300913 
L 237.303162 145.335524 
L 244.921686 137.331453 
L 252.696498 132.353279 
L 257.206211 131.624973 
L 259.056528 133.093872 
L 258.715393 135.932632 
L 256.986222 138.702695 
L 254.810598 141.068107 
L 252.17103 143.380175 
L 248.671655 145.990159 
L 244.613886 148.684839 
L 239.763781 151.725336 
L 233.130036 156.042532 
L 225.41799 162.299346 
L 218.399285 171.025287 
L 214.354973 178.945023 
L 211.767382 186.143762 
L 210.102472 192.218445 
L 208.916309 197.611549 
L 208.023161 202.685571 
L 207.633012 205.824548 
L 207.749689 206.885561 
L 208.588263 204.919141 
L 210.412355 199.507944 
L 213.652982 190.478148 
L 218.833513 178.243218 
L 226.559047 163.807298 
L 236.800757 149.620234 
L 246.577934 140.15906 
L 255.165748 135.111248 
L 259.846242 134.381595 
L 261.788045 135.720687 
L 261.717134 137.839684 
L 260.146839 140.523402 
L 257.060268 143.605092 
L 252.152522 147.087553 
L 245.757131 150.594711 
L 230.492352 157.69112 
L 222.713093 162.181058 
L 214.830651 169.615196 
L 210.345789 177.31587 
L 207.692994 184.990224 
L 206.225033 191.841323 
L 205.538154 197.183752 
L 205.337771 200.723818 
L 205.437497 203.30394 
L 205.945385 204.832769 
L 207.180568 204.161315 
L 209.351052 200.270049 
L 212.76107 192.943088 
L 217.80657 182.45629 
L 225.009807 169.471033 
L 234.658 155.581587 
L 244.755141 144.757795 
L 253.800297 138.226169 
L 259.031393 136.320651 
L 261.612429 136.710538 
L 262.164253 138.07535 
L 261.355087 140.087925 
L 258.853368 142.836036 
L 254.32608 146.076684 
L 247.977943 149.366248 
L 240.377637 152.450593 
L 232.032121 155.506937 
L 223.888457 159.01639 
L 215.437182 165.258648 
L 210.693347 172.598889 
L 208.174058 180.430381 
L 207.02475 187.781197 
L 206.707939 193.661294 
L 206.904892 198.634187 
L 207.590917 202.19368 
L 208.705499 203.718194 
L 210.559386 202.855996 
L 212.914357 199.505092 
L 216.389594 193.07553 
L 221.2877 183.580077 
L 227.958528 171.617155 
L 236.485474 158.676824 
L 245.819471 147.548485 
L 252.019314 141.957954 
L 256.145457 139.22702 
L 258.584887 138.244322 
L 259.803989 138.348159 
L 259.690457 139.346671 
L 257.895281 141.180259 
L 254.185899 143.534828 
L 248.658225 146.023399 
L 241.837716 148.319865 
L 234.207635 150.476199 
L 226.660386 152.890982 
L 218.973919 157.43559 
L 214.464799 164.207584 
L 212.497911 172.171597 
L 211.978837 179.977445 
L 212.296319 187.975046 
L 213.185022 194.627675 
L 214.733236 200.172778 
L 216.623946 202.746493 
L 218.842659 202.557178 
L 221.919591 199.149046 
L 225.170439 193.604071 
L 233.763467 176.606733 
L 239.812693 165.227267 
L 246.80898 153.536393 
L 254.157716 142.626022 
L 254.743839 140.828967 
L 253.297145 140.463356 
L 240.043409 141.943567 
L 234.094399 142.463229 
L 228.609709 143.404303 
L 223.555024 146.561841 
L 221.423271 152.669012 
L 221.338538 160.92614 
L 222.232424 169.257829 
L 223.675725 177.888776 
L 225.910168 187.832907 
L 228.358711 195.617536 
L 231.036931 200.785496 
L 233.770342 202.658263 
L 236.652464 201.32547 
L 239.967664 196.362837 
L 243.39977 188.209393 
L 246.470572 178.561919 
L 248.830916 168.546492 
L 249.841891 159.111003 
L 248.80534 151.664767 
L 245.806459 146.051179 
L 241.641812 141.651049 
L 230.012882 131.764254 
L 229.486764 132.184506 
L 233.917666 144.945665 
L 236.983184 155.000761 
L 240.224424 166.656222 
L 243.778121 179.88262 
L 247.224415 191.788003 
L 249.8117 198.957392 
L 252.09934 203.132715 
L 254.073201 204.343959 
L 255.823284 202.308537 
L 256.730441 196.946322 
L 256.290473 189.827939 
L 254.24796 181.9887 
L 249.567741 172.495511 
L 242.288718 162.210307 
L 234.732592 152.097707 
L 228.805203 142.186988 
L 226.020139 134.579589 
L 225.532152 128.300373 
L 227.232477 124.232226 
L 231.277803 122.961944 
L 237.395496 126.27179 
L 244.563484 135.313443 
L 250.006777 146.151327 
L 254.749898 159.192579 
L 258.69468 173.279551 
L 261.862563 186.903599 
L 266.227872 207.34978 
L 265.070223 204.767898 
L 262.769385 200.510418 
L 259.139707 195.098486 
L 252.7363 187.293784 
L 242.478399 176.141059 
L 232.077077 163.707362 
L 224.312331 150.903397 
L 220.907813 141.292149 
L 220.020322 132.93394 
L 221.330217 126.347698 
L 225.19287 121.147708 
L 231.794252 119.145882 
L 240.5429 122.043425 
L 249.936691 130.672998 
L 257.992945 143.697032 
L 263.306603 156.840086 
L 267.1309 170.285967 
L 269.925708 184.069997 
L 271.600112 195.971925 
L 272.178557 202.925188 
L 272.146534 207.338853 
L 271.29546 209.676966 
L 269.126636 208.976909 
L 265.245087 205.365011 
L 259.965188 200.114263 
L 252.603556 193.032613 
L 241.384879 182.028451 
L 230.370355 169.182367 
L 222.015149 155.2341 
L 218.230197 143.826794 
L 217.479915 135.1922 
L 218.777991 127.975969 
L 222.530054 121.727911 
L 229.13869 118.012157 
L 238.28349 118.644163 
L 248.651782 124.910496 
L 258.100294 136.337117 
L 264.750352 149.592521 
L 269.491613 164.378195 
L 272.28398 178.087497 
L 273.834768 191.15028 
L 274.219784 200.325701 
L 273.805015 206.872744 
L 272.657008 210.386708 
L 270.328888 211.274506 
L 266.400091 209.013875 
L 261.708132 204.993939 
L 255.842062 199.566384 
L 246.868907 190.912087 
L 236.183473 179.398466 
L 226.258384 165.638047 
L 219.544471 150.864202 
L 217.471946 139.857673 
L 217.953692 131.798192 
L 220.291733 125.157169 
L 225.064613 119.682901 
L 232.603377 117.013536 
L 242.352929 119.020894 
L 252.60294 126.712601 
L 261.141179 138.99273 
L 266.609531 152.263703 
L 270.175636 166.731895 
L 271.995548 180.387292 
L 272.570023 193.382982 
L 272.162961 202.410944 
L 271.021047 208.748241 
L 269.254483 211.997722 
L 266.326524 212.45884 
L 261.925503 209.536077 
L 256.821544 204.545332 
L 250.724888 197.898755 
L 242.063977 187.685166 
L 232.740669 174.921545 
L 224.755319 160.138696 
L 220.61709 146.676841 
L 219.918216 136.259178 
L 221.810336 127.376011 
L 225.66109 121.258219 
L 231.448664 117.554865 
L 239.613559 117.28801 
L 248.90813 122.238861 
L 257.190583 132.544035 
L 262.807021 146.092544 
L 265.594615 159.083231 
L 266.805615 171.742149 
L 266.878227 185.520295 
L 265.846442 198.237183 
L 264.336551 206.394289 
L 262.354236 211.709473 
L 259.843806 214.049223 
L 256.34333 213.0036 
L 251.765344 208.029327 
L 246.339177 199.856147 
L 240.953326 190.47882 
L 234.778409 178.146296 
L 228.83448 162.829747 
L 225.50517 147.373862 
L 225.441512 136.512981 
L 227.672402 127.564752 
L 231.393818 121.794027 
L 236.376199 118.616549 
L 242.748919 118.671545 
L 249.556945 123.579418 
L 254.775413 133.67359 
L 257.313013 148.021384 
L 257.449235 160.672508 
L 256.447275 173.54347 
L 254.448466 187.434228 
L 251.740353 200.176166 
L 248.856018 209.158888 
L 246.060895 213.935197 
L 243.172053 215.078771 
L 239.84231 212.045964 
L 236.365171 204.34501 
L 233.259658 193.236921 
L 231.013783 180.909982 
L 229.66859 165.134259 
L 230.462925 148.647895 
L 232.87808 137.617564 
L 236.050586 130.173553 
L 239.657051 125.319848 
L 244.065106 122.705625 
L 248.028315 123.975906 
L 249.922901 129.426313 
L 249.300177 137.78742 
L 246.699361 148.772936 
L 233.064278 196.844018 
L 230.502064 204.826216 
L 228.245437 210.267421 
L 226.100485 213.123394 
L 224.099072 212.403842 
L 222.570678 206.981598 
L 222.017616 197.929509 
L 222.63744 186.175423 
L 225.036374 171.287245 
L 230.064188 154.661196 
L 235.880099 142.734514 
L 242.263611 134.127351 
L 248.001181 129.392677 
L 252.421148 128.083505 
L 254.344075 129.412655 
L 254.230903 132.326553 
L 252.224116 136.234533 
L 248.719869 140.683204 
L 238.143246 152.067201 
L 231.661747 160.414528 
L 226.651947 169.001725 
L 223.253191 176.597967 
L 220.532596 184.104113 
L 217.920701 192.688537 
L 214.189386 206.332592 
L 213.176805 209.196799 
L 212.671579 208.966983 
L 212.97959 204.78778 
L 214.263034 197.494198 
L 217.074796 186.44881 
L 222.065723 172.332444 
L 229.769178 156.843853 
L 237.460514 145.786142 
L 245.347685 137.731549 
L 253.316094 132.793264 
L 257.828241 132.135454 
L 259.660292 133.630144 
L 259.426243 136.130075 
L 257.904466 138.734812 
L 255.291919 141.58143 
L 251.863485 144.43138 
L 247.418654 147.48955 
L 237.023461 153.714636 
L 229.867492 158.325716 
L 221.882077 165.32333 
L 216.173779 173.256049 
L 212.531381 181.090193 
L 210.238097 188.126696 
L 208.828937 193.836879 
L 207.86903 198.765294 
L 207.207928 203.274426 
L 207.023297 205.856435 
L 207.387083 206.387478 
L 208.512147 203.824414 
L 210.727513 197.730339 
L 214.455297 188.096617 
L 220.233462 175.435253 
L 228.643633 160.894642 
L 238.000735 148.738636 
L 247.223213 140.148297 
L 255.73191 135.319812 
L 260.221248 134.732627 
L 262.014083 136.106801 
L 261.884045 138.148074 
L 260.361233 140.706427 
L 257.201952 143.820829 
L 252.172965 147.316972 
L 245.618912 150.813936 
L 229.995592 157.837217 
L 222.191323 162.243494 
L 214.371384 169.586332 
L 209.965162 177.26055 
L 207.40217 184.938048 
L 206.02561 191.80386 
L 205.424945 197.166789 
L 205.301565 200.629435 
L 205.472262 203.1454 
L 206.060847 204.629864 
L 207.382391 203.934646 
L 209.633301 200.063624 
L 218.202572 182.393283 
L 225.413211 169.51849 
L 234.993913 155.767604 
L 245.016296 144.995104 
L 253.939954 138.493566 
L 258.991014 136.598785 
L 261.469099 136.917395 
L 261.998904 138.249117 
L 261.214451 140.111335 
L 258.709125 142.80251 
L 254.171466 145.975505 
L 247.818159 149.184856 
L 240.216712 152.180755 
L 231.891007 155.138136 
L 223.786006 158.558073 
L 215.442142 164.737812 
L 210.843783 172.068332 
L 208.463277 179.92364 
L 207.436483 187.288246 
L 207.211439 193.074524 
L 207.467445 198.035212 
L 208.243464 201.888754 
L 209.468621 203.570081 
L 211.393075 202.770234 
L 213.813137 199.443289 
L 217.209917 193.267248 
L 221.992479 184.030474 
L 228.47644 172.294914 
L 236.722128 159.511424 
L 245.831838 148.277426 
L 251.181686 143.132757 
L 254.896 140.309034 
L 257.356004 138.927123 
L 258.877458 138.492663 
L 259.362331 138.930594 
L 258.306832 140.284879 
L 255.478058 142.24762 
L 250.729681 144.543523 
L 244.498605 146.749101 
L 229.763174 150.818271 
L 222.430066 153.920584 
L 216.360808 160.270012 
L 213.854636 167.95662 
L 213.105403 176.041121 
L 213.26652 183.379965 
L 213.961166 190.164156 
L 215.347785 197.017748 
L 217.260278 201.525591 
L 219.40968 202.894805 
L 222.104008 201.309759 
L 225.61396 196.234642 
L 229.214088 189.417159 
L 238.29991 170.961582 
L 244.410396 159.445215 
L 252.989957 144.556827 
L 253.837477 141.772903 
L 252.554509 140.734386 
L 249.545251 140.576904 
L 234.271073 141.043455 
L 229.115761 141.670134 
L 224.550061 144.463188 
L 222.815219 150.202702 
L 223.012042 158.433804 
L 224.138121 166.984104 
L 225.775046 175.884625 
L 228.215708 186.334385 
L 230.837257 194.711481 
L 233.64591 200.418524 
L 236.432946 202.681226 
L 239.238387 201.697887 
L 242.385108 197.116384 
L 245.504054 189.29485 
L 248.072684 179.954744 
L 249.726648 170.173665 
L 249.845147 160.893451 
L 247.896344 153.121917 
L 244.121076 146.869494 
L 239.524432 141.663332 
L 235.28063 137.238991 
L 231.646633 133.093974 
L 229.778697 130.457492 
L 229.84795 130.241591 
L 232.011426 134.126157 
L 235.45358 142.342714 
L 238.900865 152.475557 
L 242.358404 164.231063 
L 249.482536 190.235387 
L 251.930227 197.782447 
L 253.996743 202.49717 
L 255.853083 204.686189 
L 257.448418 203.821952 
L 258.234971 199.511866 
L 257.666391 192.924469 
L 255.701919 185.98323 
L 251.142921 176.894046 
L 243.736302 166.55704 
L 235.474125 155.845578 
L 228.846808 145.326814 
L 225.405163 136.709154 
L 224.51716 130.061016 
L 225.66405 125.167571 
L 229.163855 122.301652 
L 234.984847 123.357244 
L 242.343166 129.83818 
L 248.95131 140.232219 
L 254.542154 153.332314 
L 258.762231 166.829733 
L 262.22884 180.941024 
L 266.21657 200.650362 
L 267.070838 205.289028 
L 267.397004 207.725787 
L 266.729942 207.072 
L 264.535857 203.334545 
L 260.773172 197.84862 
L 255.185083 191.064298 
L 245.904947 181.122118 
L 234.976812 168.925467 
L 226.078852 156.073357 
L 221.208149 144.951915 
L 219.521224 135.993933 
L 220.233823 128.342624 
L 223.371002 122.40408 
L 229.299934 119.062433 
L 237.682266 120.121416 
L 247.287605 126.817941 
L 256.159542 138.680404 
L 261.824722 150.508351 
L 266.197585 163.55982 
L 269.460582 177.405113 
L 271.591627 190.513145 
L 272.514415 199.38969 
L 272.709876 205.71471 
L 272.162641 209.182577 
L 270.507224 209.962076 
L 267.262325 207.624307 
L 248.8175 190.035175 
L 237.371901 178.356887 
L 227.042532 165.005437 
L 219.916597 150.717992 
L 217.525893 140.414625 
L 217.840998 131.141312 
L 220.409982 124.375379 
L 225.725645 119.226185 
L 233.823579 117.567604 
L 243.907717 121.060064 
L 254.089626 130.222505 
L 262.216968 143.165298 
L 267.355736 156.074586 
L 270.692948 168.657361 
L 272.994707 182.304357 
L 274.06602 194.784652 
L 274.097151 202.570437 
L 273.454457 208.005736 
L 272.000856 211.03681 
L 269.271817 211.237072 
L 264.894613 208.295324 
L 259.019806 203.039756 
L 252.132555 196.481356 
L 241.775038 185.943754 
L 231.188847 173.131239 
L 222.664633 158.664734 
L 218.447021 145.848271 
L 217.672327 136.116269 
L 219.349865 127.719664 
L 222.910408 121.800941 
L 229.197323 117.676003 
L 238.034555 117.388477 
L 248.254958 122.51197 
L 257.674821 133.010173 
L 264.53666 146.64719 
L 268.495364 159.882643 
L 270.756317 172.782571 
L 271.860022 186.393641 
L 271.767899 198.484406 
L 270.988715 205.577777 
L 269.654728 210.311278 
L 267.471942 212.734273 
L 264.043704 212.016863 
L 259.13989 207.898578 
L 253.04052 201.3007 
L 246.11292 193.096707 
L 237.267113 181.493354 
L 228.518211 167.27429 
L 222.434061 152.104315 
L 220.514359 140.210413 
L 221.260037 131.349201 
L 223.911694 124.460865 
L 228.172992 119.628186 
L 234.756956 117.005297 
L 243.319232 118.527467 
L 252.195936 125.528867 
L 259.29755 137.423957 
L 263.888141 153.518566 
L 265.488838 167.417934 
L 265.679075 181.098705 
L 264.73878 194.489855 
L 263.221899 203.92161 
L 261.419765 210.019427 
L 259.317309 213.444273 
L 256.312655 214.226673 
L 252.340617 211.119207 
L 247.455937 204.141268 
L 242.129368 194.584044 
L 236.62941 183.122062 
L 230.913014 168.403003 
L 227.006377 152.564542 
L 226.252977 140.246267 
L 227.467326 131.88272 
L 230.16768 125.25136 
L 234.503801 120.443598 
L 239.424754 118.630454 
L 245.803798 120.402245 
L 251.593443 127.324831 
L 255.126056 139.135177 
L 255.877365 154.744687 
L 254.845896 168.2494 
L 252.885686 181.84623 
L 250.155809 195.344674 
L 247.648045 204.505245 
L 245.062432 211.012308 
L 242.399005 214.544341 
L 239.44791 214.653703 
L 236.242202 210.240328 
L 233.183101 201.244004 
L 230.871998 189.766641 
L 229.464625 176.480998 
L 229.498212 159.95032 
L 231.940881 144.081369 
L 235.107954 134.867995 
L 238.987076 128.271213 
L 243.183061 124.401088 
L 247.418695 123.769796 
L 249.80948 127.238565 
L 249.661021 133.494624 
L 247.476789 141.911587 
L 240.172047 163.318343 
L 236.586974 174.666568 
L 229.649941 198.351428 
L 227.185108 205.868128 
L 225.036499 210.785736 
L 223.222032 212.759418 
L 221.547354 211.131147 
L 220.617483 205.808765 
L 220.517193 197.425619 
L 221.622286 185.535875 
L 224.653443 170.572788 
L 230.387466 154.114615 
L 236.577994 142.660615 
L 243.185807 134.450121 
L 249.369193 129.80153 
L 253.593945 128.836195 
L 255.363299 130.26143 
L 255.112867 133.130788 
L 252.999929 136.873133 
L 249.465887 140.991472 
L 244.79632 145.518358 
L 238.990344 150.970194 
L 232.357006 158.108349 
L 226.319694 166.785358 
L 222.317569 174.676476 
L 219.309233 182.361088 
L 216.874896 190.021763 
L 213.296816 203.582274 
L 212.312344 207.290762 
L 211.678423 208.981584 
L 211.640411 207.386364 
L 212.425291 202.524075 
L 214.381024 194.059629 
L 218.098757 182.019961 
L 224.225294 167.341318 
L 232.881364 152.45013 
L 241.656129 141.83501 
L 249.982593 135.139458 
L 256.172407 132.617984 
L 259.452077 133.101326 
L 260.292674 135.092227 
L 259.434542 137.637622 
L 257.173491 140.607641 
L 254.027956 143.481186 
L 249.535794 146.703649 
L 244.126001 149.972138 
L 238.037643 153.365648 
L 231.66826 157.070429 
L 223.642518 162.973494 
L 216.536989 171.271521 
L 212.434051 179.158018 
L 209.855599 186.571306 
L 208.324619 192.663029 
L 207.290164 198.163827 
L 206.718938 202.475427 
L 206.572533 205.273002 
L 206.959628 206.14263 
L 208.098515 204.036602 
L 213.931336 189.330694 
L 219.530808 177.129677 
L 227.663878 162.874484 
L 237.100238 150.286962 
L 246.760557 141.003322 
L 255.433125 135.835784 
L 260.093052 135.011055 
L 262.047545 136.220238 
L 262.04844 138.147639 
L 260.662121 140.611661 
L 257.605335 143.682661 
L 252.633133 147.152913 
L 246.065224 150.626666 
L 230.256908 157.500222 
L 222.677004 161.536067 
L 214.586643 168.681568 
L 210.054179 176.292987 
L 207.457073 184.0155 
L 206.095057 191.00767 
L 205.532112 196.530824 
L 205.455646 200.314213 
L 205.716359 203.009742 
L 206.41883 204.4504 
L 207.83738 203.673684 
L 210.17264 199.791836 
L 218.856796 182.225431 
L 226.06446 169.456239 
L 235.531639 155.881707 
L 245.407365 145.208075 
L 253.310166 139.236341 
L 258.404318 137.015943 
L 258.404318 137.015943 
" clip-path="url(#p1d19a40dec)" style="fill: none; stroke: #1f77b4; stroke-width: 0.5; stroke-linecap: square"/>
   </g>
   <g id="text_19">
    <!-- Projection onto r-z-p_r space with initial r = -0.13 -->
    <g transform="translate(89.055 35.472) scale(0.12 -0.12)">
     <defs>
      <path id="DejaVuSans-50" d="M 1259 4147 
L 1259 2394 
L 2053 2394 
Q 2494 2394 2734 2622 
Q 2975 2850 2975 3272 
Q 2975 3691 2734 3919 
Q 2494 4147 2053 4147 
L 1259 4147 
z
M 628 4666 
L 2053 4666 
Q 2838 4666 3239 4311 
Q 3641 3956 3641 3272 
Q 3641 2581 3239 2228 
Q 2838 1875 2053 1875 
L 1259 1875 
L 1259 0 
L 628 0 
L 628 4666 
z
" transform="scale(0.015625)"/>
      <path id="DejaVuSans-6f" d="M 1959 3097 
Q 1497 3097 1228 2736 
Q 959 2375 959 1747 
Q 959 1119 1226 758 
Q 1494 397 1959 397 
Q 2419 397 2687 759 
Q 2956 1122 2956 1747 
Q 2956 2369 2687 2733 
Q 2419 3097 1959 3097 
z
M 1959 3584 
Q 2709 3584 3137 3096 
Q 3566 2609 3566 1747 
Q 3566 888 3137 398 
Q 2709 -91 1959 -91 
Q 1206 -91 779 398 
Q 353 888 353 1747 
Q 353 2609 779 3096 
Q 1206 3584 1959 3584 
z
" transform="scale(0.015625)"/>
      <path id="DejaVuSans-6a" d="M 603 3500 
L 1178 3500 
L 1178 -63 
Q 1178 -731 923 -1031 
Q 669 -1331 103 -1331 
L -116 -1331 
L -116 -844 
L 38 -844 
Q 366 -844 484 -692 
Q 603 -541 603 -63 
L 603 3500 
z
M 603 4863 
L 1178 4863 
L 1178 4134 
L 603 4134 
L 603 4863 
z
" transform="scale(0.015625)"/>
      <path id="DejaVuSans-65" d="M 3597 1894 
L 3597 1613 
L 953 1613 
Q 991 1019 1311 708 
Q 1631 397 2203 397 
Q 2534 397 2845 478 
Q 3156 559 3463 722 
L 3463 178 
Q 3153 47 2828 -22 
Q 2503 -91 2169 -91 
Q 1331 -91 842 396 
Q 353 884 353 1716 
Q 353 2575 817 3079 
Q 1281 3584 2069 3584 
Q 2775 3584 3186 3129 
Q 3597 2675 3597 1894 
z
M 3022 2063 
Q 3016 2534 2758 2815 
Q 2500 3097 2075 3097 
Q 1594 3097 1305 2825 
Q 1016 2553 972 2059 
L 3022 2063 
z
" transform="scale(0.015625)"/>
      <path id="DejaVuSans-63" d="M 3122 3366 
L 3122 2828 
Q 2878 2963 2633 3030 
Q 2388 3097 2138 3097 
Q 1578 3097 1268 2742 
Q 959 2388 959 1747 
Q 959 1106 1268 751 
Q 1578 397 2138 397 
Q 2388 397 2633 464 
Q 2878 531 3122 666 
L 3122 134 
Q 2881 22 2623 -34 
Q 2366 -91 2075 -91 
Q 1284 -91 818 406 
Q 353 903 353 1747 
Q 353 2603 823 3093 
Q 1294 3584 2113 3584 
Q 2378 3584 2631 3529 
Q 2884 3475 3122 3366 
z
" transform="scale(0.015625)"/>
      <path id="DejaVuSans-74" d="M 1172 4494 
L 1172 3500 
L 2356 3500 
L 2356 3053 
L 1172 3053 
L 1172 1153 
Q 1172 725 1289 603 
Q 1406 481 1766 481 
L 2356 481 
L 2356 0 
L 1766 0 
Q 1100 0 847 248 
Q 594 497 594 1153 
L 594 3053 
L 172 3053 
L 172 3500 
L 594 3500 
L 594 4494 
L 1172 4494 
z
" transform="scale(0.015625)"/>
      <path id="DejaVuSans-69" d="M 603 3500 
L 1178 3500 
L 1178 0 
L 603 0 
L 603 3500 
z
M 603 4863 
L 1178 4863 
L 1178 4134 
L 603 4134 
L 603 4863 
z
" transform="scale(0.015625)"/>
      <path id="DejaVuSans-6e" d="M 3513 2113 
L 3513 0 
L 2938 0 
L 2938 2094 
Q 2938 2591 2744 2837 
Q 2550 3084 2163 3084 
Q 1697 3084 1428 2787 
Q 1159 2491 1159 1978 
L 1159 0 
L 581 0 
L 581 3500 
L 1159 3500 
L 1159 2956 
Q 1366 3272 1645 3428 
Q 1925 3584 2291 3584 
Q 2894 3584 3203 3211 
Q 3513 2838 3513 2113 
z
" transform="scale(0.015625)"/>
      <path id="DejaVuSans-20" transform="scale(0.015625)"/>
      <path id="DejaVuSans-2d" d="M 313 2009 
L 1997 2009 
L 1997 1497 
L 313 1497 
L 313 2009 
z
" transform="scale(0.015625)"/>
      <path id="DejaVuSans-73" d="M 2834 3397 
L 2834 2853 
Q 2591 2978 2328 3040 
Q 2066 3103 1784 3103 
Q 1356 3103 1142 2972 
Q 928 2841 928 2578 
Q 928 2378 1081 2264 
Q 1234 2150 1697 2047 
L 1894 2003 
Q 2506 1872 2764 1633 
Q 3022 1394 3022 966 
Q 3022 478 2636 193 
Q 2250 -91 1575 -91 
Q 1294 -91 989 -36 
Q 684 19 347 128 
L 347 722 
Q 666 556 975 473 
Q 1284 391 1588 391 
Q 1994 391 2212 530 
Q 2431 669 2431 922 
Q 2431 1156 2273 1281 
Q 2116 1406 1581 1522 
L 1381 1569 
Q 847 1681 609 1914 
Q 372 2147 372 2553 
Q 372 3047 722 3315 
Q 1072 3584 1716 3584 
Q 2034 3584 2315 3537 
Q 2597 3491 2834 3397 
z
" transform="scale(0.015625)"/>
      <path id="DejaVuSans-61" d="M 2194 1759 
Q 1497 1759 1228 1600 
Q 959 1441 959 1056 
Q 959 750 1161 570 
Q 1363 391 1709 391 
Q 2188 391 2477 730 
Q 2766 1069 2766 1631 
L 2766 1759 
L 2194 1759 
z
M 3341 1997 
L 3341 0 
L 2766 0 
L 2766 531 
Q 2569 213 2275 61 
Q 1981 -91 1556 -91 
Q 1019 -91 701 211 
Q 384 513 384 1019 
Q 384 1609 779 1909 
Q 1175 2209 1959 2209 
L 2766 2209 
L 2766 2266 
Q 2766 2663 2505 2880 
Q 2244 3097 1772 3097 
Q 1472 3097 1187 3025 
Q 903 2953 641 2809 
L 641 3341 
Q 956 3463 1253 3523 
Q 1550 3584 1831 3584 
Q 2591 3584 2966 3190 
Q 3341 2797 3341 1997 
z
" transform="scale(0.015625)"/>
      <path id="DejaVuSans-77" d="M 269 3500 
L 844 3500 
L 1563 769 
L 2278 3500 
L 2956 3500 
L 3675 769 
L 4391 3500 
L 4966 3500 
L 4050 0 
L 3372 0 
L 2619 2869 
L 1863 0 
L 1184 0 
L 269 3500 
z
" transform="scale(0.015625)"/>
      <path id="DejaVuSans-68" d="M 3513 2113 
L 3513 0 
L 2938 0 
L 2938 2094 
Q 2938 2591 2744 2837 
Q 2550 3084 2163 3084 
Q 1697 3084 1428 2787 
Q 1159 2491 1159 1978 
L 1159 0 
L 581 0 
L 581 4863 
L 1159 4863 
L 1159 2956 
Q 1366 3272 1645 3428 
Q 1925 3584 2291 3584 
Q 2894 3584 3203 3211 
Q 3513 2838 3513 2113 
z
" transform="scale(0.015625)"/>
      <path id="DejaVuSans-6c" d="M 603 4863 
L 1178 4863 
L 1178 0 
L 603 0 
L 603 4863 
z
" transform="scale(0.015625)"/>
      <path id="DejaVuSans-3d" d="M 678 2906 
L 4684 2906 
L 4684 2381 
L 678 2381 
L 678 2906 
z
M 678 1631 
L 4684 1631 
L 4684 1100 
L 678 1100 
L 678 1631 
z
" transform="scale(0.015625)"/>
      <path id="DejaVuSans-31" d="M 794 531 
L 1825 531 
L 1825 4091 
L 703 3866 
L 703 4441 
L 1819 4666 
L 2450 4666 
L 2450 531 
L 3481 531 
L 3481 0 
L 794 0 
L 794 531 
z
" transform="scale(0.015625)"/>
      <path id="DejaVuSans-33" d="M 2597 2516 
Q 3050 2419 3304 2112 
Q 3559 1806 3559 1356 
Q 3559 666 3084 287 
Q 2609 -91 1734 -91 
Q 1441 -91 1130 -33 
Q 819 25 488 141 
L 488 750 
Q 750 597 1062 519 
Q 1375 441 1716 441 
Q 2309 441 2620 675 
Q 2931 909 2931 1356 
Q 2931 1769 2642 2001 
Q 2353 2234 1838 2234 
L 1294 2234 
L 1294 2753 
L 1863 2753 
Q 2328 2753 2575 2939 
Q 2822 3125 2822 3475 
Q 2822 3834 2567 4026 
Q 2313 4219 1838 4219 
Q 1578 4219 1281 4162 
Q 984 4106 628 3988 
L 628 4550 
Q 988 4650 1302 4700 
Q 1616 4750 1894 4750 
Q 2613 4750 3031 4423 
Q 3450 4097 3450 3541 
Q 3450 3153 3228 2886 
Q 3006 2619 2597 2516 
z
" transform="scale(0.015625)"/>
     </defs>
     <use xlink:href="#DejaVuSans-50"/>
     <use xlink:href="#DejaVuSans-72" x="58.552734"/>
     <use xlink:href="#DejaVuSans-6f" x="97.416016"/>
     <use xlink:href="#DejaVuSans-6a" x="158.597656"/>
     <use xlink:href="#DejaVuSans-65" x="186.380859"/>
     <use xlink:href="#DejaVuSans-63" x="247.904297"/>
     <use xlink:href="#DejaVuSans-74" x="302.884766"/>
     <use xlink:href="#DejaVuSans-69" x="342.09375"/>
     <use xlink:href="#DejaVuSans-6f" x="369.876953"/>
     <use xlink:href="#DejaVuSans-6e" x="431.058594"/>
     <use xlink:href="#DejaVuSans-20" x="494.4375"/>
     <use xlink:href="#DejaVuSans-6f" x="526.224609"/>
     <use xlink:href="#DejaVuSans-6e" x="587.40625"/>
     <use xlink:href="#DejaVuSans-74" x="650.785156"/>
     <use xlink:href="#DejaVuSans-6f" x="689.994141"/>
     <use xlink:href="#DejaVuSans-20" x="751.175781"/>
     <use xlink:href="#DejaVuSans-72" x="782.962891"/>
     <use xlink:href="#DejaVuSans-2d" x="817.701172"/>
     <use xlink:href="#DejaVuSans-7a" x="853.785156"/>
     <use xlink:href="#DejaVuSans-2d" x="906.275391"/>
     <use xlink:href="#DejaVuSans-70" x="942.359375"/>
     <use xlink:href="#DejaVuSans-5f" x="1005.835938"/>
     <use xlink:href="#DejaVuSans-72" x="1055.835938"/>
     <use xlink:href="#DejaVuSans-20" x="1096.949219"/>
     <use xlink:href="#DejaVuSans-73" x="1128.736328"/>
     <use xlink:href="#DejaVuSans-70" x="1180.835938"/>
     <use xlink:href="#DejaVuSans-61" x="1244.3125"/>
     <use xlink:href="#DejaVuSans-63" x="1305.591797"/>
     <use xlink:href="#DejaVuSans-65" x="1360.572266"/>
     <use xlink:href="#DejaVuSans-20" x="1422.095703"/>
     <use xlink:href="#DejaVuSans-77" x="1453.882812"/>
     <use xlink:href="#DejaVuSans-69" x="1535.669922"/>
     <use xlink:href="#DejaVuSans-74" x="1563.453125"/>
     <use xlink:href="#DejaVuSans-68" x="1602.662109"/>
     <use xlink:href="#DejaVuSans-20" x="1666.041016"/>
     <use xlink:href="#DejaVuSans-69" x="1697.828125"/>
     <use xlink:href="#DejaVuSans-6e" x="1725.611328"/>
     <use xlink:href="#DejaVuSans-69" x="1788.990234"/>
     <use xlink:href="#DejaVuSans-74" x="1816.773438"/>
     <use xlink:href="#DejaVuSans-69" x="1855.982422"/>
     <use xlink:href="#DejaVuSans-61" x="1883.765625"/>
     <use xlink:href="#DejaVuSans-6c" x="1945.044922"/>
     <use xlink:href="#DejaVuSans-20" x="1972.828125"/>
     <use xlink:href="#DejaVuSans-72" x="2004.615234"/>
     <use xlink:href="#DejaVuSans-20" x="2045.728516"/>
     <use xlink:href="#DejaVuSans-3d" x="2077.515625"/>
     <use xlink:href="#DejaVuSans-20" x="2161.304688"/>
     <use xlink:href="#DejaVuSans-2d" x="2193.091797"/>
     <use xlink:href="#DejaVuSans-30" x="2229.175781"/>
     <use xlink:href="#DejaVuSans-2e" x="2292.798828"/>
     <use xlink:href="#DejaVuSans-31" x="2324.585938"/>
     <use xlink:href="#DejaVuSans-33" x="2388.208984"/>
    </g>
   </g>
  </g>
 </g>
 <defs>
  <clipPath id="p1d19a40dec">
   <rect x="103.104" y="41.472" width="266.112" height="266.112"/>
  </clipPath>
 </defs>
</svg>
