<?xml version="1.0" encoding="utf-8" standalone="no"?>
<!DOCTYPE svg PUBLIC "-//W3C//DTD SVG 1.1//EN"
  "http://www.w3.org/Graphics/SVG/1.1/DTD/svg11.dtd">
<svg xmlns:xlink="http://www.w3.org/1999/xlink" width="460.8pt" height="345.6pt" viewBox="0 0 460.8 345.6" xmlns="http://www.w3.org/2000/svg" version="1.1">
 <metadata>
  <rdf:RDF xmlns:dc="http://purl.org/dc/elements/1.1/" xmlns:cc="http://creativecommons.org/ns#" xmlns:rdf="http://www.w3.org/1999/02/22-rdf-syntax-ns#">
   <cc:Work>
    <dc:type rdf:resource="http://purl.org/dc/dcmitype/StillImage"/>
    <dc:date>2023-10-23T14:50:13.203169</dc:date>
    <dc:format>image/svg+xml</dc:format>
    <dc:creator>
     <cc:Agent>
      <dc:title>Matplotlib v3.8.0, https://matplotlib.org/</dc:title>
     </cc:Agent>
    </dc:creator>
   </cc:Work>
  </rdf:RDF>
 </metadata>
 <defs>
  <style type="text/css">*{stroke-linejoin: round; stroke-linecap: butt}</style>
 </defs>
 <g id="figure_1">
  <g id="patch_1">
   <path d="M 0 345.6 
L 460.8 345.6 
L 460.8 0 
L 0 0 
z
" style="fill: #ffffff"/>
  </g>
  <g id="patch_2">
   <path d="M 103.104 307.584 
L 369.216 307.584 
L 369.216 41.472 
L 103.104 41.472 
z
" style="fill: #ffffff"/>
  </g>
  <g id="pane3d_1">
   <g id="patch_3">
    <path d="M 123.197291 241.969309 
L 211.076164 168.307495 
L 209.854564 62.073991 
L 117.770234 129.272941 
" style="fill: #f2f2f2; opacity: 0.5; stroke: #f2f2f2; stroke-linejoin: miter"/>
   </g>
  </g>
  <g id="pane3d_2">
   <g id="patch_4">
    <path d="M 211.076164 168.307495 
L 352.090401 209.294766 
L 357.122702 99.402171 
L 209.854564 62.073991 
" style="fill: #e6e6e6; opacity: 0.5; stroke: #e6e6e6; stroke-linejoin: miter"/>
   </g>
  </g>
  <g id="pane3d_3">
   <g id="patch_5">
    <path d="M 123.197291 241.969309 
L 272.679269 290.790123 
L 352.090401 209.294766 
L 211.076164 168.307495 
" style="fill: #ececec; opacity: 0.5; stroke: #ececec; stroke-linejoin: miter"/>
   </g>
  </g>
  <g id="grid3d_1">
   <g id="Line3DCollection_1">
    <path d="M 139.745029 247.3738 
L 226.747915 172.862654 
L 226.190662 66.214715 
" style="fill: none; stroke: #b0b0b0; stroke-width: 0.8"/>
    <path d="M 167.574724 256.462979 
L 253.069813 180.513391 
L 253.645623 73.173748 
" style="fill: none; stroke: #b0b0b0; stroke-width: 0.8"/>
    <path d="M 195.967881 265.736184 
L 279.880048 188.306068 
L 281.632185 80.267526 
" style="fill: none; stroke: #b0b0b0; stroke-width: 0.8"/>
    <path d="M 224.941789 275.199062 
L 307.192338 196.244672 
L 310.165939 87.500001 
" style="fill: none; stroke: #b0b0b0; stroke-width: 0.8"/>
    <path d="M 254.514447 284.857492 
L 335.020917 204.333341 
L 339.263092 94.875281 
" style="fill: none; stroke: #b0b0b0; stroke-width: 0.8"/>
   </g>
  </g>
  <g id="grid3d_2">
   <g id="Line3DCollection_2">
    <path d="M 129.321936 120.843035 
L 134.184874 232.759299 
L 282.646541 280.56125 
" style="fill: none; stroke: #b0b0b0; stroke-width: 0.8"/>
    <path d="M 147.908894 107.279119 
L 151.886109 217.921773 
L 298.68087 264.106083 
" style="fill: none; stroke: #b0b0b0; stroke-width: 0.8"/>
    <path d="M 165.860779 94.178651 
L 169.008295 203.569617 
L 314.163547 248.217048 
" style="fill: none; stroke: #b0b0b0; stroke-width: 0.8"/>
    <path d="M 183.209592 81.518278 
L 185.579387 189.679399 
L 329.122557 232.865423 
" style="fill: none; stroke: #b0b0b0; stroke-width: 0.8"/>
    <path d="M 199.985219 69.276189 
L 201.62557 176.22917 
L 343.584028 218.024397 
" style="fill: none; stroke: #b0b0b0; stroke-width: 0.8"/>
   </g>
  </g>
  <g id="grid3d_3">
   <g id="Line3DCollection_3">
    <path d="M 352.651911 197.032811 
L 210.939601 156.431576 
L 122.59264 229.41333 
" style="fill: none; stroke: #b0b0b0; stroke-width: 0.8"/>
    <path d="M 353.593746 176.465549 
L 210.710684 136.52439 
L 121.577933 208.34229 
" style="fill: none; stroke: #b0b0b0; stroke-width: 0.8"/>
    <path d="M 354.551427 155.552235 
L 210.478101 116.298387 
L 120.545497 186.903085 
" style="fill: none; stroke: #b0b0b0; stroke-width: 0.8"/>
    <path d="M 355.525359 134.284061 
L 210.241763 95.745848 
L 119.494863 165.085982 
" style="fill: none; stroke: #b0b0b0; stroke-width: 0.8"/>
    <path d="M 356.515957 112.651918 
L 210.001579 74.858801 
L 118.425545 142.8809 
" style="fill: none; stroke: #b0b0b0; stroke-width: 0.8"/>
   </g>
  </g>
  <g id="axis3d_1">
   <g id="line2d_1">
    <path d="M 123.197291 241.969309 
L 272.679269 290.790123 
" style="fill: none; stroke: #000000; stroke-width: 0.8; stroke-linecap: square"/>
   </g>
   <g id="xtick_1">
    <g id="line2d_2">
     <path d="M 140.502812 246.724819 
L 138.226203 248.674556 
" style="fill: none; stroke: #000000; stroke-width: 0.8; stroke-linecap: square"/>
    </g>
    <g id="text_1">
     <!-- −0.4 -->
     <g transform="translate(120.082057 270.734746) scale(0.1 -0.1)">
      <defs>
       <path id="DejaVuSans-2212" d="M 678 2272 
L 4684 2272 
L 4684 1741 
L 678 1741 
L 678 2272 
z
" transform="scale(0.015625)"/>
       <path id="DejaVuSans-30" d="M 2034 4250 
Q 1547 4250 1301 3770 
Q 1056 3291 1056 2328 
Q 1056 1369 1301 889 
Q 1547 409 2034 409 
Q 2525 409 2770 889 
Q 3016 1369 3016 2328 
Q 3016 3291 2770 3770 
Q 2525 4250 2034 4250 
z
M 2034 4750 
Q 2819 4750 3233 4129 
Q 3647 3509 3647 2328 
Q 3647 1150 3233 529 
Q 2819 -91 2034 -91 
Q 1250 -91 836 529 
Q 422 1150 422 2328 
Q 422 3509 836 4129 
Q 1250 4750 2034 4750 
z
" transform="scale(0.015625)"/>
       <path id="DejaVuSans-2e" d="M 684 794 
L 1344 794 
L 1344 0 
L 684 0 
L 684 794 
z
" transform="scale(0.015625)"/>
       <path id="DejaVuSans-34" d="M 2419 4116 
L 825 1625 
L 2419 1625 
L 2419 4116 
z
M 2253 4666 
L 3047 4666 
L 3047 1625 
L 3713 1625 
L 3713 1100 
L 3047 1100 
L 3047 0 
L 2419 0 
L 2419 1100 
L 313 1100 
L 313 1709 
L 2253 4666 
z
" transform="scale(0.015625)"/>
      </defs>
      <use xlink:href="#DejaVuSans-2212"/>
      <use xlink:href="#DejaVuSans-30" x="83.789062"/>
      <use xlink:href="#DejaVuSans-2e" x="147.412109"/>
      <use xlink:href="#DejaVuSans-34" x="179.199219"/>
     </g>
    </g>
   </g>
   <g id="xtick_2">
    <g id="line2d_3">
     <path d="M 168.319982 255.800928 
L 166.08097 257.789956 
" style="fill: none; stroke: #000000; stroke-width: 0.8; stroke-linecap: square"/>
    </g>
    <g id="text_2">
     <!-- −0.2 -->
     <g transform="translate(147.940862 280.01671) scale(0.1 -0.1)">
      <defs>
       <path id="DejaVuSans-32" d="M 1228 531 
L 3431 531 
L 3431 0 
L 469 0 
L 469 531 
Q 828 903 1448 1529 
Q 2069 2156 2228 2338 
Q 2531 2678 2651 2914 
Q 2772 3150 2772 3378 
Q 2772 3750 2511 3984 
Q 2250 4219 1831 4219 
Q 1534 4219 1204 4116 
Q 875 4013 500 3803 
L 500 4441 
Q 881 4594 1212 4672 
Q 1544 4750 1819 4750 
Q 2544 4750 2975 4387 
Q 3406 4025 3406 3419 
Q 3406 3131 3298 2873 
Q 3191 2616 2906 2266 
Q 2828 2175 2409 1742 
Q 1991 1309 1228 531 
z
" transform="scale(0.015625)"/>
      </defs>
      <use xlink:href="#DejaVuSans-2212"/>
      <use xlink:href="#DejaVuSans-30" x="83.789062"/>
      <use xlink:href="#DejaVuSans-2e" x="147.412109"/>
      <use xlink:href="#DejaVuSans-32" x="179.199219"/>
     </g>
    </g>
   </g>
   <g id="xtick_3">
    <g id="line2d_4">
     <path d="M 196.69995 265.060666 
L 194.500531 267.090184 
" style="fill: none; stroke: #000000; stroke-width: 0.8; stroke-linecap: square"/>
    </g>
    <g id="text_3">
     <!-- 0.0 -->
     <g transform="translate(180.555708 289.487318) scale(0.1 -0.1)">
      <use xlink:href="#DejaVuSans-30"/>
      <use xlink:href="#DejaVuSans-2e" x="63.623047"/>
      <use xlink:href="#DejaVuSans-30" x="95.410156"/>
     </g>
    </g>
   </g>
   <g id="xtick_4">
    <g id="line2d_5">
     <path d="M 225.659969 274.509662 
L 223.502242 276.580919 
" style="fill: none; stroke: #000000; stroke-width: 0.8; stroke-linecap: square"/>
    </g>
    <g id="text_4">
     <!-- 0.2 -->
     <g transform="translate(209.564345 299.152381) scale(0.1 -0.1)">
      <use xlink:href="#DejaVuSans-30"/>
      <use xlink:href="#DejaVuSans-2e" x="63.623047"/>
      <use xlink:href="#DejaVuSans-32" x="95.410156"/>
     </g>
    </g>
   </g>
   <g id="xtick_5">
    <g id="line2d_6">
     <path d="M 255.218008 284.153777 
L 253.104175 286.268074 
" style="fill: none; stroke: #000000; stroke-width: 0.8; stroke-linecap: square"/>
    </g>
    <g id="text_5">
     <!-- 0.4 -->
     <g transform="translate(239.174779 309.01795) scale(0.1 -0.1)">
      <use xlink:href="#DejaVuSans-30"/>
      <use xlink:href="#DejaVuSans-2e" x="63.623047"/>
      <use xlink:href="#DejaVuSans-34" x="95.410156"/>
     </g>
    </g>
   </g>
   <g id="text_6">
    <!-- r -->
    <g transform="translate(177.620959 303.76759) scale(0.1 -0.1)">
     <defs>
      <path id="DejaVuSans-72" d="M 2631 2963 
Q 2534 3019 2420 3045 
Q 2306 3072 2169 3072 
Q 1681 3072 1420 2755 
Q 1159 2438 1159 1844 
L 1159 0 
L 581 0 
L 581 3500 
L 1159 3500 
L 1159 2956 
Q 1341 3275 1631 3429 
Q 1922 3584 2338 3584 
Q 2397 3584 2469 3576 
Q 2541 3569 2628 3553 
L 2631 2963 
z
" transform="scale(0.015625)"/>
     </defs>
     <use xlink:href="#DejaVuSans-72"/>
    </g>
   </g>
  </g>
  <g id="axis3d_2">
   <g id="line2d_7">
    <path d="M 352.090401 209.294766 
L 272.679269 290.790123 
" style="fill: none; stroke: #000000; stroke-width: 0.8; stroke-linecap: square"/>
   </g>
   <g id="xtick_6">
    <g id="line2d_8">
     <path d="M 281.395758 280.158521 
L 285.151326 281.367745 
" style="fill: none; stroke: #000000; stroke-width: 0.8; stroke-linecap: square"/>
    </g>
    <g id="text_7">
     <!-- −0.4 -->
     <g transform="translate(283.325813 301.514986) scale(0.1 -0.1)">
      <use xlink:href="#DejaVuSans-2212"/>
      <use xlink:href="#DejaVuSans-30" x="83.789062"/>
      <use xlink:href="#DejaVuSans-2e" x="147.412109"/>
      <use xlink:href="#DejaVuSans-34" x="179.199219"/>
     </g>
    </g>
   </g>
   <g id="xtick_7">
    <g id="line2d_9">
     <path d="M 297.445222 263.717326 
L 301.155291 264.884581 
" style="fill: none; stroke: #000000; stroke-width: 0.8; stroke-linecap: square"/>
    </g>
    <g id="text_8">
     <!-- −0.2 -->
     <g transform="translate(299.144994 284.816287) scale(0.1 -0.1)">
      <use xlink:href="#DejaVuSans-2212"/>
      <use xlink:href="#DejaVuSans-30" x="83.789062"/>
      <use xlink:href="#DejaVuSans-2e" x="147.412109"/>
      <use xlink:href="#DejaVuSans-32" x="179.199219"/>
     </g>
    </g>
   </g>
   <g id="xtick_8">
    <g id="line2d_10">
     <path d="M 312.942742 247.841548 
L 316.608191 248.968982 
" style="fill: none; stroke: #000000; stroke-width: 0.8; stroke-linecap: square"/>
    </g>
    <g id="text_9">
     <!-- 0.0 -->
     <g transform="translate(318.609453 268.692429) scale(0.1 -0.1)">
      <use xlink:href="#DejaVuSans-30"/>
      <use xlink:href="#DejaVuSans-2e" x="63.623047"/>
      <use xlink:href="#DejaVuSans-30" x="95.410156"/>
     </g>
    </g>
   </g>
   <g id="xtick_9">
    <g id="line2d_11">
     <path d="M 327.916306 232.502514 
L 331.538007 233.592129 
" style="fill: none; stroke: #000000; stroke-width: 0.8; stroke-linecap: square"/>
    </g>
    <g id="text_10">
     <!-- 0.2 -->
     <g transform="translate(333.367149 253.114231) scale(0.1 -0.1)">
      <use xlink:href="#DejaVuSans-30"/>
      <use xlink:href="#DejaVuSans-2e" x="63.623047"/>
      <use xlink:href="#DejaVuSans-32" x="95.410156"/>
     </g>
    </g>
   </g>
   <g id="xtick_10">
    <g id="line2d_12">
     <path d="M 342.392046 217.673455 
L 345.970856 218.727124 
" style="fill: none; stroke: #000000; stroke-width: 0.8; stroke-linecap: square"/>
    </g>
    <g id="text_11">
     <!-- 0.4 -->
     <g transform="translate(347.633727 238.054456) scale(0.1 -0.1)">
      <use xlink:href="#DejaVuSans-30"/>
      <use xlink:href="#DejaVuSans-2e" x="63.623047"/>
      <use xlink:href="#DejaVuSans-34" x="95.410156"/>
     </g>
    </g>
   </g>
   <g id="text_12">
    <!-- z -->
    <g transform="translate(338.508563 278.988697) scale(0.1 -0.1)">
     <defs>
      <path id="DejaVuSans-7a" d="M 353 3500 
L 3084 3500 
L 3084 2975 
L 922 459 
L 3084 459 
L 3084 0 
L 275 0 
L 275 525 
L 2438 3041 
L 353 3041 
L 353 3500 
z
" transform="scale(0.015625)"/>
     </defs>
     <use xlink:href="#DejaVuSans-7a"/>
    </g>
   </g>
  </g>
  <g id="axis3d_3">
   <g id="line2d_13">
    <path d="M 352.090401 209.294766 
L 357.122702 99.402171 
" style="fill: none; stroke: #000000; stroke-width: 0.8; stroke-linecap: square"/>
   </g>
   <g id="xtick_11">
    <g id="line2d_14">
     <path d="M 351.462276 196.691975 
L 355.034024 197.715298 
" style="fill: none; stroke: #000000; stroke-width: 0.8; stroke-linecap: square"/>
    </g>
    <g id="text_13">
     <!-- −0.4 -->
     <g transform="translate(358.848394 202.050217) scale(0.1 -0.1)">
      <use xlink:href="#DejaVuSans-2212"/>
      <use xlink:href="#DejaVuSans-30" x="83.789062"/>
      <use xlink:href="#DejaVuSans-2e" x="147.412109"/>
      <use xlink:href="#DejaVuSans-34" x="179.199219"/>
     </g>
    </g>
   </g>
   <g id="xtick_12">
    <g id="line2d_15">
     <path d="M 352.393813 176.130123 
L 355.996504 177.13721 
" style="fill: none; stroke: #000000; stroke-width: 0.8; stroke-linecap: square"/>
    </g>
    <g id="text_14">
     <!-- −0.2 -->
     <g transform="translate(359.939887 181.523976) scale(0.1 -0.1)">
      <use xlink:href="#DejaVuSans-2212"/>
      <use xlink:href="#DejaVuSans-30" x="83.789062"/>
      <use xlink:href="#DejaVuSans-2e" x="147.412109"/>
      <use xlink:href="#DejaVuSans-32" x="179.199219"/>
     </g>
    </g>
   </g>
   <g id="xtick_13">
    <g id="line2d_16">
     <path d="M 353.341016 155.22245 
L 356.975191 156.212608 
" style="fill: none; stroke: #000000; stroke-width: 0.8; stroke-linecap: square"/>
    </g>
    <g id="text_15">
     <!-- 0.0 -->
     <g transform="translate(365.239531 160.653431) scale(0.1 -0.1)">
      <use xlink:href="#DejaVuSans-30"/>
      <use xlink:href="#DejaVuSans-2e" x="63.623047"/>
      <use xlink:href="#DejaVuSans-30" x="95.410156"/>
     </g>
    </g>
   </g>
   <g id="xtick_14">
    <g id="line2d_17">
     <path d="M 354.304285 133.960157 
L 357.970499 134.932664 
" style="fill: none; stroke: #000000; stroke-width: 0.8; stroke-linecap: square"/>
    </g>
    <g id="text_16">
     <!-- 0.2 -->
     <g transform="translate(366.368105 139.429846) scale(0.1 -0.1)">
      <use xlink:href="#DejaVuSans-30"/>
      <use xlink:href="#DejaVuSans-2e" x="63.623047"/>
      <use xlink:href="#DejaVuSans-32" x="95.410156"/>
     </g>
    </g>
   </g>
   <g id="xtick_15">
    <g id="line2d_18">
     <path d="M 355.284032 112.334145 
L 358.982853 113.288249 
" style="fill: none; stroke: #000000; stroke-width: 0.8; stroke-linecap: square"/>
    </g>
    <g id="text_17">
     <!-- 0.4 -->
     <g transform="translate(367.515933 117.844187) scale(0.1 -0.1)">
      <use xlink:href="#DejaVuSans-30"/>
      <use xlink:href="#DejaVuSans-2e" x="63.623047"/>
      <use xlink:href="#DejaVuSans-34" x="95.410156"/>
     </g>
    </g>
   </g>
   <g id="text_18">
    <!-- p_r -->
    <g transform="translate(387.197542 152.624154) scale(0.1 -0.1)">
     <defs>
      <path id="DejaVuSans-70" d="M 1159 525 
L 1159 -1331 
L 581 -1331 
L 581 3500 
L 1159 3500 
L 1159 2969 
Q 1341 3281 1617 3432 
Q 1894 3584 2278 3584 
Q 2916 3584 3314 3078 
Q 3713 2572 3713 1747 
Q 3713 922 3314 415 
Q 2916 -91 2278 -91 
Q 1894 -91 1617 61 
Q 1341 213 1159 525 
z
M 3116 1747 
Q 3116 2381 2855 2742 
Q 2594 3103 2138 3103 
Q 1681 3103 1420 2742 
Q 1159 2381 1159 1747 
Q 1159 1113 1420 752 
Q 1681 391 2138 391 
Q 2594 391 2855 752 
Q 3116 1113 3116 1747 
z
" transform="scale(0.015625)"/>
      <path id="DejaVuSans-5f" d="M 3263 -1063 
L 3263 -1509 
L -63 -1509 
L -63 -1063 
L 3263 -1063 
z
" transform="scale(0.015625)"/>
     </defs>
     <use xlink:href="#DejaVuSans-70"/>
     <use xlink:href="#DejaVuSans-5f" x="63.476562"/>
     <use xlink:href="#DejaVuSans-72" x="113.476562"/>
    </g>
   </g>
  </g>
  <g id="axes_1">
   <g id="line2d_19">
    <path d="M 236.612043 182.806734 
L 245.797178 160.873596 
L 249.663136 151.243961 
L 251.248166 145.222335 
L 250.529148 141.934372 
L 248.022763 140.187737 
L 244.424496 139.147632 
L 239.916395 138.303784 
L 235.168692 137.643974 
L 230.939648 137.56748 
L 227.43279 139.576502 
L 226.471682 145.865106 
L 227.396126 154.280871 
L 229.070041 163.775643 
L 231.216935 174.137385 
L 234.007927 185.730304 
L 236.685442 194.575322 
L 239.414971 200.689021 
L 241.996233 203.30636 
L 244.505315 202.632076 
L 247.088698 198.329168 
L 249.288253 190.837533 
L 250.571213 182.091431 
L 250.616455 172.520262 
L 248.822916 163.149053 
L 244.911057 154.447373 
L 239.802892 146.799892 
L 234.889243 139.94715 
L 231.195923 133.804959 
L 229.532058 129.122537 
L 230.044441 127.1255 
L 232.555912 128.490771 
L 236.856388 134.976114 
L 240.887211 144.106608 
L 244.926222 156.113324 
L 248.635698 169.593553 
L 254.609824 193.789089 
L 256.79146 201.344398 
L 258.371066 205.143843 
L 259.533752 205.905473 
L 259.942789 203.200076 
L 259.052473 197.556042 
L 256.792918 190.90827 
L 252.386534 182.530538 
L 244.76789 171.783398 
L 235.773247 159.943283 
L 228.606273 148.398584 
L 224.917816 139.146309 
L 223.793326 132.266109 
L 224.481659 126.595612 
L 227.380641 122.258453 
L 232.713575 121.027597 
L 239.972443 124.606932 
L 247.872581 133.908892 
L 254.643477 147.505721 
L 259.466712 162.190787 
L 262.807229 176.37873 
L 265.204611 189.74591 
L 266.492382 198.683178 
L 267.190188 204.986833 
L 267.263111 208.281489 
L 266.47329 208.734042 
L 264.324307 205.867153 
L 261.149014 201.301166 
L 256.848247 195.672712 
L 249.547006 187.076992 
L 239.273332 175.243895 
L 229.590315 162.084516 
L 222.842832 148.502743 
L 220.509019 139.045343 
L 220.567217 130.60208 
L 222.753139 124.293564 
L 227.504765 119.659258 
L 234.801027 118.549929 
L 243.842295 122.561717 
L 252.901128 132.214695 
L 260.044102 145.645561 
L 264.491776 158.972767 
L 267.426276 172.412956 
L 269.29611 186.170047 
L 270.076605 197.99684 
L 270.008145 204.78911 
L 269.423735 208.975215 
L 267.994292 211.066407 
L 265.320542 209.93724 
L 261.099981 205.642955 
L 248.534149 191.277848 
L 238.784085 179.549126 
L 229.299906 165.796346 
L 222.5844 151.295893 
L 220.181406 140.099742 
L 220.408891 131.913652 
L 222.457454 125.349503 
L 226.635177 120.122673 
L 233.346677 117.473621 
L 242.084925 119.268078 
L 251.319389 126.649836 
L 259.017162 138.902517 
L 263.749996 152.25285 
L 266.655894 166.97182 
L 267.932604 180.82211 
L 268.069738 194.004814 
L 267.412406 203.056161 
L 266.141979 209.33912 
L 264.373061 212.419053 
L 261.599774 212.501778 
L 257.579781 208.923126 
L 252.351406 202.249637 
L 246.690274 194.23832 
L 239.208807 182.822025 
L 231.351187 168.74663 
L 225.434972 153.589931 
L 223.248683 141.317723 
L 223.6521 132.598761 
L 225.935809 125.446701 
L 229.951611 120.312999 
L 235.660703 117.728192 
L 243.163325 118.965295 
L 250.917497 125.511549 
L 256.99899 137.148569 
L 260.357708 151.658682 
L 261.401099 165.247739 
L 261.177111 178.784363 
L 259.921954 192.521858 
L 258.176483 202.772971 
L 256.284809 209.41727 
L 254.11298 213.376614 
L 251.344786 214.399847 
L 247.849182 211.398443 
L 243.729236 204.161309 
L 239.377079 193.86527 
L 235.484182 182.658265 
L 231.473853 167.705472 
L 229.109107 151.619051 
L 229.318418 139.552804 
L 230.964623 131.629798 
L 233.742358 125.582932 
L 237.779405 121.423706 
L 242.286672 120.247002 
L 247.323899 123.061593 
L 250.921688 130.945928 
L 251.946974 143.421186 
L 250.953959 156.075206 
L 248.761322 170.441315 
L 246.090973 184.13256 
L 243.038108 197.134951 
L 240.475324 205.745982 
L 238.016772 211.515984 
L 235.692774 214.225033 
L 233.127926 213.488779 
L 230.65333 208.000143 
L 228.944425 199.565774 
L 227.981554 189.32846 
L 227.951434 175.573487 
L 229.783338 159.078596 
L 233.438202 145.021143 
L 237.501582 135.86935 
L 241.894613 129.5786 
L 246.303207 126.088298 
L 249.501074 125.974585 
L 250.617123 128.620422 
L 249.690888 133.123189 
L 247.034403 139.093923 
L 243.001945 146.768734 
L 238.078977 156.780239 
L 234.179996 166.224461 
L 230.717589 176.277516 
L 227.463433 187.305619 
L 222.647313 204.672455 
L 221.055547 209.234064 
L 219.750089 211.31296 
L 218.728583 209.991146 
L 218.443549 205.367296 
L 218.91604 197.982984 
L 220.622129 186.81089 
L 224.24825 172.447764 
L 230.122848 157.178637 
L 237.014957 144.968865 
L 244.256722 136.21878 
L 250.635898 131.463142 
L 254.610718 130.434785 
L 256.240959 131.572674 
L 255.938529 134.061442 
L 253.916324 137.215836 
L 250.706311 140.533509 
L 246.692441 143.905232 
L 241.553985 147.836423 
L 235.265968 152.838581 
L 228.256147 159.862263 
L 222.571581 168.272918 
L 218.936643 176.23457 
L 216.559113 183.333037 
L 214.777542 190.127185 
L 213.224639 197.47864 
L 211.726616 206.510809 
L 211.630942 207.859145 
L 212.128738 206.223625 
L 213.3315 201.667176 
L 215.662939 193.635169 
L 219.655211 182.132806 
L 225.863384 168.04202 
L 234.259831 153.755447 
L 242.658954 143.361682 
L 250.465148 136.697939 
L 255.873776 134.086631 
L 258.724303 134.122426 
L 259.476683 135.524543 
L 258.883295 137.294372 
L 257.292451 139.397271 
L 254.321573 142.057941 
L 249.927084 145.027276 
L 244.504231 148.016823 
L 232.204594 154.205326 
L 224.426045 159.31512 
L 217.154727 167.624389 
L 213.429801 175.604743 
L 211.30559 183.261657 
L 210.224692 189.408503 
L 209.602433 195.149116 
L 209.387842 200.637101 
L 209.68825 204.303826 
L 210.481947 205.443409 
L 211.834893 203.960293 
L 213.719081 200.114193 
L 216.782711 192.946163 
L 221.371456 182.544559 
L 227.898176 169.646053 
L 236.293624 156.244401 
L 244.987807 145.652241 
L 251.757252 139.636727 
L 256.03709 137.090846 
L 258.405474 136.503897 
L 259.243835 137.013352 
L 258.948957 138.158463 
L 257.269008 140.047737 
L 253.855101 142.49465 
L 248.814038 145.125176 
L 242.58664 147.670429 
L 235.577421 150.192355 
L 228.688208 152.931297 
L 220.930979 157.868406 
L 215.818988 164.943293 
L 213.261516 172.956535 
L 212.200898 180.722688 
L 211.96013 188.673346 
L 212.323588 195.209364 
L 213.289021 200.816051 
L 214.649714 203.583707 
L 216.448664 203.652128 
L 219.077817 200.449819 
L 222.348243 194.276913 
L 231.258499 175.717004 
L 237.812814 163.527981 
L 245.777072 151.114245 
L 251.140958 144.24386 
L 255.650713 139.288477 
L 255.237283 139.176355 
L 253.070392 139.937039 
L 249.348249 141.106041 
L 244.33368 142.359343 
L 232.426974 144.836284 
L 226.156605 147.185973 
L 221.222267 152.680428 
L 219.412972 160.324238 
L 219.249695 168.677224 
L 220.030663 178.223954 
L 221.403105 187.195808 
L 223.444904 195.726086 
L 225.788264 201.198075 
L 228.192749 203.118487 
L 230.87766 201.868903 
L 234.170951 196.952532 
L 237.882345 188.748032 
L 241.654517 178.892972 
L 245.111294 169.042232 
L 248.457556 158.183332 
L 249.943323 150.144442 
L 249.231706 144.877516 
L 246.677209 141.535927 
L 243.004794 139.196738 
L 238.79235 137.270733 
L 234.439475 135.610649 
L 230.701317 134.802642 
L 228.651425 136.498936 
L 228.999922 142.724433 
L 230.700572 151.262707 
L 233.21075 162.462348 
L 235.946474 174.146413 
L 239.085207 186.426176 
L 241.763638 195.092234 
L 244.375719 201.061482 
L 246.796328 203.723051 
L 249.074435 203.099681 
L 251.161253 198.860698 
L 252.51945 191.638808 
L 252.701613 183.59941 
L 251.296225 174.258479 
L 247.775673 164.840757 
L 242.105874 155.374029 
L 236.086337 146.649849 
L 231.181931 138.442949 
L 228.828297 132.58933 
L 228.228271 128.055888 
L 229.498954 125.355251 
L 232.855708 125.847316 
L 237.998882 131.297259 
L 243.169582 140.802744 
L 247.603649 152.382231 
L 251.493823 165.545841 
L 254.963049 179.674326 
L 259.572794 199.69892 
L 260.870658 204.365514 
L 261.830407 206.686065 
L 262.144428 205.877792 
L 261.24907 201.735541 
L 258.847807 195.565982 
L 254.940069 188.524811 
L 247.892823 178.760534 
L 238.096313 166.51181 
L 229.694026 154.297902 
L 224.632952 143.513339 
L 222.703801 135.06017 
L 223.077302 127.935803 
L 225.686235 122.724794 
L 230.826272 120.128938 
L 238.160993 121.917637 
L 246.549093 129.31573 
L 254.23543 141.842112 
L 259.223005 154.503238 
L 262.888511 167.724014 
L 265.691113 181.761218 
L 267.49798 194.275476 
L 268.234315 201.517045 
L 268.463563 206.471763 
L 268.068101 209.255583 
L 266.627754 208.9912 
L 263.691496 205.497532 
L 259.247772 199.868135 
L 253.460902 193.042489 
L 244.242128 182.674621 
L 233.881139 170.007587 
L 225.435553 156.353151 
L 221.027298 144.494192 
L 219.878088 136.082077 
L 220.712644 128.716319 
L 223.691574 122.628171 
L 229.289255 118.668229 
L 237.309334 118.649541 
L 246.688692 124.02885 
L 255.501821 134.848928 
L 261.952227 148.573429 
L 265.917955 162.179374 
L 268.407656 175.848989 
L 269.77537 189.369388 
L 270.08348 199.503945 
L 269.721842 206.070332 
L 268.821134 210.008591 
L 266.993333 211.570949 
L 263.864617 209.801977 
L 259.221987 204.927066 
L 253.544747 198.336237 
L 245.938532 189.288881 
L 237.018817 177.864579 
L 228.161371 163.861493 
L 222.214818 149.204421 
L 220.500342 138.37404 
L 221.236648 130.251769 
L 223.84766 123.830481 
L 228.525633 119.151422 
L 235.652591 117.342958 
L 244.501808 120.260816 
L 253.316812 128.7651 
L 260.172688 141.722023 
L 263.918448 154.49575 
L 266.085134 168.321923 
L 266.904924 182.16691 
L 266.614853 195.273591 
L 265.667346 204.006262 
L 264.17496 210.025842 
L 262.214357 212.954808 
L 259.286403 212.781298 
L 255.204726 208.815587 
L 250.047356 201.621914 
L 244.550866 192.975189 
L 237.832907 181.384348 
L 230.800828 166.862608 
L 225.847446 151.530329 
L 224.443978 139.660553 
L 225.301753 131.335806 
L 227.749966 124.846727 
L 231.93963 120.039028 
L 237.550515 117.967013 
L 244.689514 119.827469 
L 251.650708 126.994438 
L 256.646872 139.134913 
L 258.933168 154.386097 
L 259.096593 168.168155 
L 258.127825 181.95609 
L 256.241675 195.456977 
L 254.245263 204.566151 
L 251.979766 211.001344 
L 249.706045 214.161217 
L 246.78026 214.308274 
L 243.30436 210.123738 
L 239.506613 201.638573 
L 235.886876 190.402904 
L 232.845553 177.850473 
L 230.437654 161.875802 
L 230.201792 146.022872 
L 231.846066 135.76834 
L 234.874127 127.973141 
L 238.43225 123.417261 
L 242.790942 121.414353 
L 247.069561 123.290928 
L 249.834125 129.973165 
L 250.028208 140.668596 
L 248.292192 153.139491 
L 245.87501 165.326064 
L 243.046618 178.091626 
L 239.85816 191.36652 
L 237.13423 201.313108 
L 234.480558 208.898144 
L 232.052975 213.099803 
L 229.792672 213.700736 
L 227.655106 209.849822 
L 226.273265 202.63761 
L 225.646635 192.775394 
L 226.101652 179.558401 
L 228.272639 164.327578 
L 233.151032 147.658761 
L 237.953128 137.861551 
L 243.001351 131.126587 
L 247.851664 127.435408 
L 250.945841 127.144093 
L 252.026948 129.268859 
L 251.097887 132.912336 
L 248.479284 137.607826 
L 239.336264 150.785736 
L 233.638165 160.65648 
L 229.917646 168.904036 
L 226.711396 177.710471 
L 223.73093 187.590828 
L 219.442232 203.762406 
L 218.10924 208.1832 
L 217.068645 210.353721 
L 216.418567 209.236561 
L 216.513019 204.641288 
L 217.407121 197.408078 
L 219.676842 186.261941 
L 223.964732 172.017799 
L 230.615422 156.774918 
L 237.893082 145.089617 
L 245.352728 136.767798 
L 252.191749 132.129528 
L 255.960872 131.434563 
L 257.393345 132.708115 
L 256.896099 135.214265 
L 255.089716 137.852394 
L 252.560605 140.415221 
L 249.320233 143.071035 
L 245.465938 145.826233 
L 240.311982 149.270319 
L 233.828761 153.822051 
L 226.520717 160.411832 
L 220.609205 168.605036 
L 216.885456 176.636788 
L 214.612023 183.614724 
L 212.898457 190.63983 
L 211.646495 197.36371 
L 210.902226 202.620631 
L 210.598177 206.035039 
L 210.787161 207.139623 
L 211.721485 204.902333 
L 213.363393 199.796998 
L 216.28412 191.125288 
L 220.968786 179.189034 
L 227.940509 164.998127 
L 237.345813 150.668479 
L 247.064347 140.316392 
L 253.82601 135.725534 
L 257.851376 134.544481 
L 259.576247 135.263743 
L 259.615428 136.759907 
L 258.427726 138.794648 
L 255.895438 141.308087 
L 251.776873 144.230813 
L 246.343746 147.234299 
L 233.204607 153.35056 
L 225.889164 157.452793 
L 218.101468 164.762697 
L 213.821277 172.595803 
L 211.435556 180.500081 
L 210.2323 187.393526 
L 209.629244 193.959555 
L 209.548674 199.516841 
L 209.922211 203.251637 
L 210.697502 204.926226 
L 212.199548 204.096193 
L 214.391044 200.207556 
L 221.877059 183.69742 
L 228.145771 171.271315 
L 236.231274 158.0203 
L 245.130601 146.731318 
L 251.201965 140.955528 
L 255.116766 138.22335 
L 257.496935 137.195228 
L 258.658782 137.286132 
L 258.552236 138.185502 
L 256.985839 139.862023 
L 253.694662 142.080882 
L 248.767091 144.494249 
L 242.640864 146.821768 
L 235.734721 149.102026 
L 228.9265 151.591222 
L 221.38338 156.169859 
L 216.477402 163.058206 
L 214.154735 171.082255 
L 213.324107 178.930532 
L 213.313108 187.087122 
L 213.902015 194.1081 
L 215.118317 200.151804 
L 216.696133 203.213683 
L 218.588492 203.489213 
L 221.298198 200.562153 
L 224.317503 195.146694 
L 232.431567 178.040998 
L 238.307539 166.354342 
L 245.313394 154.136391 
L 250.475086 146.323238 
L 253.396926 142.149344 
L 254.422561 140.104451 
L 253.473972 139.616874 
L 250.827673 139.966452 
L 246.795362 140.649647 
L 235.9981 142.116702 
L 230.62613 143.126501 
L 224.96604 146.079833 
L 222.101585 151.763906 
L 221.416636 159.841968 
L 221.908671 168.023482 
L 223.102116 177.169846 
L 224.962684 186.999396 
L 227.409344 195.895633 
L 229.957378 201.26511 
L 232.48816 203.084521 
L 235.241477 201.676217 
L 238.453241 196.571567 
L 241.857211 188.242517 
L 245.031288 178.379356 
L 247.639174 168.260871 
L 249.199362 158.295503 
L 248.773666 150.645444 
L 246.371988 145.120824 
L 242.678408 141.025194 
L 238.658941 137.768828 
L 234.506848 134.737062 
L 231.049541 132.475023 
L 229.780163 132.844616 
L 230.740115 137.39061 
L 232.986374 145.287322 
L 235.591799 154.895091 
L 241.657276 178.896404 
L 244.928495 190.97758 
L 247.389688 198.324575 
L 249.574578 202.769841 
L 251.514267 204.433695 
L 253.409813 203.018886 
L 254.716044 198.063263 
L 254.887131 190.767228 
L 253.757499 183.228092 
L 250.415966 173.67655 
L 244.595814 163.589585 
L 237.517369 153.474264 
L 231.445317 143.865422 
L 227.910079 135.821209 
L 226.785682 129.823794 
L 227.552027 125.602167 
L 230.443368 123.513073 
L 235.446426 125.396637 
L 241.852242 132.765476 
L 247.355908 143.32592 
L 252.116421 156.395783 
L 255.936366 170.270533 
L 259.084141 184.233329 
L 263.618874 205.954856 
L 264.043734 207.523181 
L 263.505787 205.747518 
L 261.511524 200.956501 
L 258.11607 194.804185 
L 252.614929 186.953779 
L 243.557086 175.902272 
L 233.628866 163.308651 
L 226.063389 150.620386 
L 222.608563 141.031412 
L 221.620838 133.212646 
L 222.662452 126.665228 
L 226.046993 121.56523 
L 232.01181 119.432587 
L 240.055999 121.982413 
L 248.823706 130.218478 
L 256.456946 143.189131 
L 261.341212 156.182242 
L 264.805468 169.534552 
L 267.318516 183.471625 
L 268.790799 195.700086 
L 269.264093 202.764915 
L 269.216254 207.303764 
L 268.475419 209.871277 
L 266.601312 209.336893 
L 263.185262 205.615371 
L 258.333369 199.858605 
L 242.259541 181.690068 
L 232.030135 168.634958 
L 224.099901 154.664671 
L 220.399566 143.041166 
L 219.716361 134.782479 
L 220.963268 127.647484 
L 224.382272 121.758456 
L 230.41632 118.175945 
L 238.780353 118.714698 
L 248.261639 124.747264 
L 256.855198 136.061601 
L 263.241226 150.924567 
L 266.773407 164.755353 
L 268.843202 178.533286 
L 269.768734 191.820537 
L 269.716939 201.250548 
L 268.962735 207.897483 
L 267.630862 211.249375 
L 265.263329 211.780173 
L 261.52276 208.859691 
L 256.962056 203.760588 
L 251.356443 196.99982 
L 243.368952 186.97324 
L 234.371121 174.392506 
L 226.388536 159.869243 
L 221.765404 145.220528 
L 221.119867 135.370892 
L 222.878563 127.032177 
L 226.357458 121.426668 
L 232.022557 117.859497 
L 239.877874 117.922422 
L 248.722898 123.233407 
L 256.540234 133.890339 
L 261.768069 147.697767 
L 264.352431 160.983313 
L 265.453079 174.019987 
L 265.45995 187.858475 
L 264.45655 200.101515 
L 263.113264 207.304094 
L 261.352034 211.874209 
L 258.926635 213.703219 
L 255.53074 211.939811 
L 251.083302 206.290731 
L 245.862249 197.752049 
L 240.452459 187.81006 
L 234.217053 174.734779 
L 228.622969 159.295659 
L 225.866195 144.283756 
L 226.17075 134.457498 
L 228.481866 126.492108 
L 232.310093 121.18572 
L 236.958038 118.67031 
L 243.3569 119.306772 
L 249.881307 124.957662 
L 254.70321 135.788039 
L 256.877195 150.726387 
L 256.836821 163.921296 
L 255.744227 177.058098 
L 253.726599 190.926562 
L 251.434783 201.712528 
L 248.852178 209.743878 
L 246.288864 213.945558 
L 243.488141 214.639599 
L 240.268424 211.027755 
L 236.906269 202.850911 
L 233.90437 191.576181 
L 231.694428 179.221677 
L 230.319539 163.289411 
L 231.062954 147.088574 
L 233.330978 136.589425 
L 236.752387 128.790565 
L 240.349541 124.41751 
L 244.550576 122.61375 
L 248.121069 124.945808 
L 249.436906 131.401942 
L 248.381671 140.841687 
L 245.535309 153.175173 
L 236.022736 189.941535 
L 233.239186 200.0471 
L 230.623408 207.897409 
L 228.385772 212.260724 
L 226.401675 213.167505 
L 224.640235 209.768409 
L 223.692516 203.215268 
L 223.505846 194.156199 
L 224.48173 181.314874 
L 227.288891 166.12994 
L 232.930199 149.368577 
L 238.347528 139.287436 
L 243.930744 132.347307 
L 249.264311 128.525453 
L 252.374556 128.243322 
L 253.400574 130.225977 
L 252.389893 133.50931 
L 249.733575 137.578078 
L 245.731803 142.339992 
L 240.558358 148.178226 
L 234.575927 155.838859 
L 229.256896 164.75005 
L 225.832633 172.339697 
L 222.884354 180.597569 
L 220.267575 189.592878 
L 215.552382 208.18856 
L 214.854212 209.628793 
L 214.7346 207.444551 
L 215.487461 201.558139 
L 217.311293 192.576059 
L 220.849097 180.061999 
L 226.707225 165.13806 
L 235.456754 149.601984 
L 243.389677 139.914315 
L 250.62299 134.100718 
L 255.505747 132.205307 
L 257.863193 132.806359 
L 258.175415 134.686325 
L 257.043998 137.021579 
L 255.345993 139.073153 
L 253.012002 141.240678 
L 249.845966 143.665401 
L 246.070384 146.17339 
L 236.201633 152.180756 
L 229.02896 157.229594 
L 221.503567 165.099261 
L 216.867369 173.18857 
L 214.007267 180.941309 
L 212.338099 187.356866 
L 211.162882 193.417865 
L 210.299765 199.599477 
L 209.933369 204.283456 
L 210.068678 206.393779 
L 210.840638 205.858372 
L 212.338808 202.128978 
L 214.832478 195.200379 
L 218.841387 184.858927 
L 224.864378 171.749503 
L 233.216376 157.463938 
L 241.62621 146.623279 
L 249.621579 139.188771 
L 255.341873 135.801409 
L 258.600941 135.163383 
L 259.78231 136.031879 
L 259.487268 137.623678 
L 257.994899 139.650433 
L 254.897194 142.306226 
L 250.186871 145.242347 
L 244.267287 148.153246 
L 230.558199 154.158582 
L 222.747048 158.93864 
L 216.413174 166.072962 
L 212.875001 173.985981 
L 211.024352 181.793898 
L 210.21083 188.240184 
L 209.905156 194.295606 
L 210.086573 199.883094 
L 210.804691 203.598454 
L 211.934162 204.659967 
L 213.85222 202.83117 
L 216.360554 198.182427 
L 224.693617 180.37213 
L 231.407336 167.69645 
L 239.617847 154.940035 
L 247.791434 145.078532 
L 251.530417 141.533046 
L 254.588041 139.178786 
L 256.65477 137.997903 
L 257.794845 137.6774 
L 258.061204 138.1273 
L 256.862366 139.422498 
L 253.984905 141.300795 
L 249.430894 143.45336 
L 243.630604 145.550176 
L 236.96163 147.5752 
L 230.239338 149.740695 
L 222.992965 153.511635 
L 217.85751 159.854924 
L 215.462214 167.76451 
L 214.69191 175.824094 
L 214.821526 184.484468 
L 215.560521 191.97781 
L 216.951778 198.771752 
L 218.450348 202.252228 
L 220.261402 203.482208 
L 222.778619 201.910989 
L 226.082334 196.737667 
L 229.482197 189.800981 
L 238.117876 171.084882 
L 244.022493 159.299017 
L 252.332704 143.996593 
L 253.090051 141.125947 
L 251.797209 140.024951 
L 248.897334 139.802938 
L 239.726617 140.084768 
L 234.459754 140.358493 
L 229.404645 141.25194 
L 225.122681 144.616158 
L 223.614606 150.90763 
L 223.869188 159.350794 
L 225.010362 168.432348 
L 226.697221 178.00494 
L 229.101854 188.570522 
L 231.488314 196.227009 
L 234.026143 201.277963 
L 236.585121 203.137705 
L 239.307162 201.768904 
L 242.31858 196.707193 
L 245.266242 188.496891 
L 247.644527 179.004497 
L 249.169426 168.873197 
L 249.127188 159.389226 
L 247.060654 151.58057 
L 243.337406 145.386199 
L 238.966886 140.282895 
L 235.099541 136.10468 
L 231.47905 131.838205 
L 230.181573 129.977836 
L 230.958498 131.32221 
L 233.719484 137.54816 
L 236.781061 146.166055 
L 240.158969 157.469692 
L 243.561705 170.349776 
L 246.959236 183.765817 
L 249.689253 193.760708 
L 252.154884 200.946222 
L 254.137076 204.467836 
L 255.79239 204.816453 
L 256.913046 201.646977 
L 256.92692 195.493894 
L 255.592917 188.380489 
L 252.30053 179.731568 
L 246.306571 169.6443 
L 238.325935 158.600478 
L 231.359621 148.018654 
L 227.110759 138.890602 
L 225.577404 132.3463 
L 225.837437 127.031485 
L 228.161391 123.222285 
L 232.794257 122.511212 
L 239.297295 126.621312 
L 246.498575 136.483452 
L 251.601592 147.474752 
L 255.925305 160.409392 
L 259.489963 174.514638 
L 262.250804 188.082953 
L 265.032368 203.994957 
L 265.527694 207.383155 
L 265.303702 207.966805 
L 263.841547 205.185994 
L 261.307963 200.661501 
L 257.502745 194.91695 
L 251.001651 186.620414 
L 240.997689 174.8998 
L 231.202717 162.025911 
L 224.156845 148.910716 
L 221.455983 139.729978 
L 221.051271 131.461985 
L 222.719952 125.256022 
L 226.893543 120.464054 
L 233.634217 119.015578 
L 242.258759 122.5485 
L 251.191018 131.769402 
L 258.520007 145.133089 
L 263.16436 158.431645 
L 266.356653 171.970613 
L 268.519376 185.763291 
L 269.617359 197.552683 
L 269.802005 204.333903 
L 269.444079 208.499489 
L 268.266099 210.483896 
L 265.834627 209.244843 
L 261.824192 204.936634 
L 256.565074 198.897873 
L 249.402843 190.844771 
L 239.284186 179.121354 
L 229.507906 165.565969 
L 222.53792 151.297052 
L 219.943657 140.331852 
L 219.95333 132.506076 
L 221.662488 126.144565 
L 225.653462 120.632941 
L 232.233501 117.722658 
L 240.961643 119.22382 
L 250.397111 126.32218 
L 258.498452 138.393073 
L 263.648796 151.591798 
L 267.017063 166.18341 
L 268.740454 180.023568 
L 269.312336 193.193269 
L 268.987691 202.284995 
L 268.004886 208.626195 
L 266.456926 211.795367 
L 263.866309 212.039362 
L 259.934116 208.757232 
L 255.278495 203.314055 
L 249.677562 196.198598 
L 241.785375 185.618994 
L 233.12969 172.446757 
L 225.869041 157.631997 
L 222.331019 144.65856 
L 221.923508 134.889727 
L 223.840481 126.686099 
L 227.52232 121.085395 
L 233.147757 117.795017 
L 240.859837 118.123727 
L 249.362956 123.696116 
L 256.650747 134.552527 
L 261.305486 148.551517 
L 263.381102 161.880365 
L 264.040484 174.99105 
L 263.613589 188.845941 
L 262.238457 201.004293 
L 260.659158 208.087554 
L 258.709421 212.488161 
L 256.132954 214.046761 
L 252.668999 211.856249 
L 248.303623 205.636657 
L 243.351757 196.425793 
L 238.432129 185.882141 
L 232.958433 172.008476 
L 228.568139 156.228725 
L 227.085232 143.049984 
L 227.870655 133.660965 
L 230.393282 126.204933 
L 234.278378 121.256522 
L 238.91864 119.116169 
L 244.874435 120.40056 
L 250.466048 126.746541 
L 253.994083 138.14219 
L 254.823927 153.702858 
L 253.887073 167.079174 
L 252.064734 180.603816 
L 249.501608 194.200867 
L 247.117211 203.616845 
L 244.590216 210.521521 
L 242.052829 214.191373 
L 239.284931 214.388016 
L 236.284564 210.08092 
L 233.427299 201.191097 
L 231.270388 189.754075 
L 229.985206 176.597395 
L 230.068403 160.202897 
L 232.462644 144.329417 
L 235.573925 135.039583 
L 239.35552 128.446117 
L 243.314044 124.694217 
L 247.27479 124.136295 
L 249.326367 127.62275 
L 248.953184 133.807884 
L 246.672534 142.206092 
L 239.501955 163.833236 
L 236.066721 175.359206 
L 229.588671 198.911178 
L 227.304435 206.245755 
L 225.320945 210.909267 
L 223.621158 212.549003 
L 222.149224 210.311083 
L 221.443265 204.639217 
L 221.524797 196.15428 
L 222.805653 184.054207 
L 225.97977 169.080766 
L 231.885021 152.567875 
L 237.925052 141.616426 
L 244.184329 133.958069 
L 249.956941 129.752436 
L 253.400832 129.163803 
L 254.677686 130.879532 
L 253.84191 133.832585 
L 251.35437 137.449688 
L 247.616807 141.448925 
L 242.710085 146.093987 
L 236.755426 151.936728 
L 230.202845 159.95204 
L 225.196585 168.553089 
L 222.042972 175.935564 
L 219.42038 183.820206 
L 217.200082 192.099443 
L 213.477999 208.499635 
L 213.304513 208.328118 
L 213.933175 204.238771 
L 215.417638 197.310782 
L 218.348838 186.693026 
L 223.314273 173.01998 
L 223.314273 173.01998 
" clip-path="url(#p1e1e84b3fc)" style="fill: none; stroke: #1f77b4; stroke-width: 0.5; stroke-linecap: square"/>
   </g>
   <g id="text_19">
    <!-- Projection onto r-z-p_r space with initial r = -0.02 -->
    <g transform="translate(89.055 35.472) scale(0.12 -0.12)">
     <defs>
      <path id="DejaVuSans-50" d="M 1259 4147 
L 1259 2394 
L 2053 2394 
Q 2494 2394 2734 2622 
Q 2975 2850 2975 3272 
Q 2975 3691 2734 3919 
Q 2494 4147 2053 4147 
L 1259 4147 
z
M 628 4666 
L 2053 4666 
Q 2838 4666 3239 4311 
Q 3641 3956 3641 3272 
Q 3641 2581 3239 2228 
Q 2838 1875 2053 1875 
L 1259 1875 
L 1259 0 
L 628 0 
L 628 4666 
z
" transform="scale(0.015625)"/>
      <path id="DejaVuSans-6f" d="M 1959 3097 
Q 1497 3097 1228 2736 
Q 959 2375 959 1747 
Q 959 1119 1226 758 
Q 1494 397 1959 397 
Q 2419 397 2687 759 
Q 2956 1122 2956 1747 
Q 2956 2369 2687 2733 
Q 2419 3097 1959 3097 
z
M 1959 3584 
Q 2709 3584 3137 3096 
Q 3566 2609 3566 1747 
Q 3566 888 3137 398 
Q 2709 -91 1959 -91 
Q 1206 -91 779 398 
Q 353 888 353 1747 
Q 353 2609 779 3096 
Q 1206 3584 1959 3584 
z
" transform="scale(0.015625)"/>
      <path id="DejaVuSans-6a" d="M 603 3500 
L 1178 3500 
L 1178 -63 
Q 1178 -731 923 -1031 
Q 669 -1331 103 -1331 
L -116 -1331 
L -116 -844 
L 38 -844 
Q 366 -844 484 -692 
Q 603 -541 603 -63 
L 603 3500 
z
M 603 4863 
L 1178 4863 
L 1178 4134 
L 603 4134 
L 603 4863 
z
" transform="scale(0.015625)"/>
      <path id="DejaVuSans-65" d="M 3597 1894 
L 3597 1613 
L 953 1613 
Q 991 1019 1311 708 
Q 1631 397 2203 397 
Q 2534 397 2845 478 
Q 3156 559 3463 722 
L 3463 178 
Q 3153 47 2828 -22 
Q 2503 -91 2169 -91 
Q 1331 -91 842 396 
Q 353 884 353 1716 
Q 353 2575 817 3079 
Q 1281 3584 2069 3584 
Q 2775 3584 3186 3129 
Q 3597 2675 3597 1894 
z
M 3022 2063 
Q 3016 2534 2758 2815 
Q 2500 3097 2075 3097 
Q 1594 3097 1305 2825 
Q 1016 2553 972 2059 
L 3022 2063 
z
" transform="scale(0.015625)"/>
      <path id="DejaVuSans-63" d="M 3122 3366 
L 3122 2828 
Q 2878 2963 2633 3030 
Q 2388 3097 2138 3097 
Q 1578 3097 1268 2742 
Q 959 2388 959 1747 
Q 959 1106 1268 751 
Q 1578 397 2138 397 
Q 2388 397 2633 464 
Q 2878 531 3122 666 
L 3122 134 
Q 2881 22 2623 -34 
Q 2366 -91 2075 -91 
Q 1284 -91 818 406 
Q 353 903 353 1747 
Q 353 2603 823 3093 
Q 1294 3584 2113 3584 
Q 2378 3584 2631 3529 
Q 2884 3475 3122 3366 
z
" transform="scale(0.015625)"/>
      <path id="DejaVuSans-74" d="M 1172 4494 
L 1172 3500 
L 2356 3500 
L 2356 3053 
L 1172 3053 
L 1172 1153 
Q 1172 725 1289 603 
Q 1406 481 1766 481 
L 2356 481 
L 2356 0 
L 1766 0 
Q 1100 0 847 248 
Q 594 497 594 1153 
L 594 3053 
L 172 3053 
L 172 3500 
L 594 3500 
L 594 4494 
L 1172 4494 
z
" transform="scale(0.015625)"/>
      <path id="DejaVuSans-69" d="M 603 3500 
L 1178 3500 
L 1178 0 
L 603 0 
L 603 3500 
z
M 603 4863 
L 1178 4863 
L 1178 4134 
L 603 4134 
L 603 4863 
z
" transform="scale(0.015625)"/>
      <path id="DejaVuSans-6e" d="M 3513 2113 
L 3513 0 
L 2938 0 
L 2938 2094 
Q 2938 2591 2744 2837 
Q 2550 3084 2163 3084 
Q 1697 3084 1428 2787 
Q 1159 2491 1159 1978 
L 1159 0 
L 581 0 
L 581 3500 
L 1159 3500 
L 1159 2956 
Q 1366 3272 1645 3428 
Q 1925 3584 2291 3584 
Q 2894 3584 3203 3211 
Q 3513 2838 3513 2113 
z
" transform="scale(0.015625)"/>
      <path id="DejaVuSans-20" transform="scale(0.015625)"/>
      <path id="DejaVuSans-2d" d="M 313 2009 
L 1997 2009 
L 1997 1497 
L 313 1497 
L 313 2009 
z
" transform="scale(0.015625)"/>
      <path id="DejaVuSans-73" d="M 2834 3397 
L 2834 2853 
Q 2591 2978 2328 3040 
Q 2066 3103 1784 3103 
Q 1356 3103 1142 2972 
Q 928 2841 928 2578 
Q 928 2378 1081 2264 
Q 1234 2150 1697 2047 
L 1894 2003 
Q 2506 1872 2764 1633 
Q 3022 1394 3022 966 
Q 3022 478 2636 193 
Q 2250 -91 1575 -91 
Q 1294 -91 989 -36 
Q 684 19 347 128 
L 347 722 
Q 666 556 975 473 
Q 1284 391 1588 391 
Q 1994 391 2212 530 
Q 2431 669 2431 922 
Q 2431 1156 2273 1281 
Q 2116 1406 1581 1522 
L 1381 1569 
Q 847 1681 609 1914 
Q 372 2147 372 2553 
Q 372 3047 722 3315 
Q 1072 3584 1716 3584 
Q 2034 3584 2315 3537 
Q 2597 3491 2834 3397 
z
" transform="scale(0.015625)"/>
      <path id="DejaVuSans-61" d="M 2194 1759 
Q 1497 1759 1228 1600 
Q 959 1441 959 1056 
Q 959 750 1161 570 
Q 1363 391 1709 391 
Q 2188 391 2477 730 
Q 2766 1069 2766 1631 
L 2766 1759 
L 2194 1759 
z
M 3341 1997 
L 3341 0 
L 2766 0 
L 2766 531 
Q 2569 213 2275 61 
Q 1981 -91 1556 -91 
Q 1019 -91 701 211 
Q 384 513 384 1019 
Q 384 1609 779 1909 
Q 1175 2209 1959 2209 
L 2766 2209 
L 2766 2266 
Q 2766 2663 2505 2880 
Q 2244 3097 1772 3097 
Q 1472 3097 1187 3025 
Q 903 2953 641 2809 
L 641 3341 
Q 956 3463 1253 3523 
Q 1550 3584 1831 3584 
Q 2591 3584 2966 3190 
Q 3341 2797 3341 1997 
z
" transform="scale(0.015625)"/>
      <path id="DejaVuSans-77" d="M 269 3500 
L 844 3500 
L 1563 769 
L 2278 3500 
L 2956 3500 
L 3675 769 
L 4391 3500 
L 4966 3500 
L 4050 0 
L 3372 0 
L 2619 2869 
L 1863 0 
L 1184 0 
L 269 3500 
z
" transform="scale(0.015625)"/>
      <path id="DejaVuSans-68" d="M 3513 2113 
L 3513 0 
L 2938 0 
L 2938 2094 
Q 2938 2591 2744 2837 
Q 2550 3084 2163 3084 
Q 1697 3084 1428 2787 
Q 1159 2491 1159 1978 
L 1159 0 
L 581 0 
L 581 4863 
L 1159 4863 
L 1159 2956 
Q 1366 3272 1645 3428 
Q 1925 3584 2291 3584 
Q 2894 3584 3203 3211 
Q 3513 2838 3513 2113 
z
" transform="scale(0.015625)"/>
      <path id="DejaVuSans-6c" d="M 603 4863 
L 1178 4863 
L 1178 0 
L 603 0 
L 603 4863 
z
" transform="scale(0.015625)"/>
      <path id="DejaVuSans-3d" d="M 678 2906 
L 4684 2906 
L 4684 2381 
L 678 2381 
L 678 2906 
z
M 678 1631 
L 4684 1631 
L 4684 1100 
L 678 1100 
L 678 1631 
z
" transform="scale(0.015625)"/>
     </defs>
     <use xlink:href="#DejaVuSans-50"/>
     <use xlink:href="#DejaVuSans-72" x="58.552734"/>
     <use xlink:href="#DejaVuSans-6f" x="97.416016"/>
     <use xlink:href="#DejaVuSans-6a" x="158.597656"/>
     <use xlink:href="#DejaVuSans-65" x="186.380859"/>
     <use xlink:href="#DejaVuSans-63" x="247.904297"/>
     <use xlink:href="#DejaVuSans-74" x="302.884766"/>
     <use xlink:href="#DejaVuSans-69" x="342.09375"/>
     <use xlink:href="#DejaVuSans-6f" x="369.876953"/>
     <use xlink:href="#DejaVuSans-6e" x="431.058594"/>
     <use xlink:href="#DejaVuSans-20" x="494.4375"/>
     <use xlink:href="#DejaVuSans-6f" x="526.224609"/>
     <use xlink:href="#DejaVuSans-6e" x="587.40625"/>
     <use xlink:href="#DejaVuSans-74" x="650.785156"/>
     <use xlink:href="#DejaVuSans-6f" x="689.994141"/>
     <use xlink:href="#DejaVuSans-20" x="751.175781"/>
     <use xlink:href="#DejaVuSans-72" x="782.962891"/>
     <use xlink:href="#DejaVuSans-2d" x="817.701172"/>
     <use xlink:href="#DejaVuSans-7a" x="853.785156"/>
     <use xlink:href="#DejaVuSans-2d" x="906.275391"/>
     <use xlink:href="#DejaVuSans-70" x="942.359375"/>
     <use xlink:href="#DejaVuSans-5f" x="1005.835938"/>
     <use xlink:href="#DejaVuSans-72" x="1055.835938"/>
     <use xlink:href="#DejaVuSans-20" x="1096.949219"/>
     <use xlink:href="#DejaVuSans-73" x="1128.736328"/>
     <use xlink:href="#DejaVuSans-70" x="1180.835938"/>
     <use xlink:href="#DejaVuSans-61" x="1244.3125"/>
     <use xlink:href="#DejaVuSans-63" x="1305.591797"/>
     <use xlink:href="#DejaVuSans-65" x="1360.572266"/>
     <use xlink:href="#DejaVuSans-20" x="1422.095703"/>
     <use xlink:href="#DejaVuSans-77" x="1453.882812"/>
     <use xlink:href="#DejaVuSans-69" x="1535.669922"/>
     <use xlink:href="#DejaVuSans-74" x="1563.453125"/>
     <use xlink:href="#DejaVuSans-68" x="1602.662109"/>
     <use xlink:href="#DejaVuSans-20" x="1666.041016"/>
     <use xlink:href="#DejaVuSans-69" x="1697.828125"/>
     <use xlink:href="#DejaVuSans-6e" x="1725.611328"/>
     <use xlink:href="#DejaVuSans-69" x="1788.990234"/>
     <use xlink:href="#DejaVuSans-74" x="1816.773438"/>
     <use xlink:href="#DejaVuSans-69" x="1855.982422"/>
     <use xlink:href="#DejaVuSans-61" x="1883.765625"/>
     <use xlink:href="#DejaVuSans-6c" x="1945.044922"/>
     <use xlink:href="#DejaVuSans-20" x="1972.828125"/>
     <use xlink:href="#DejaVuSans-72" x="2004.615234"/>
     <use xlink:href="#DejaVuSans-20" x="2045.728516"/>
     <use xlink:href="#DejaVuSans-3d" x="2077.515625"/>
     <use xlink:href="#DejaVuSans-20" x="2161.304688"/>
     <use xlink:href="#DejaVuSans-2d" x="2193.091797"/>
     <use xlink:href="#DejaVuSans-30" x="2229.175781"/>
     <use xlink:href="#DejaVuSans-2e" x="2292.798828"/>
     <use xlink:href="#DejaVuSans-30" x="2324.585938"/>
     <use xlink:href="#DejaVuSans-32" x="2388.208984"/>
    </g>
   </g>
  </g>
 </g>
 <defs>
  <clipPath id="p1e1e84b3fc">
   <rect x="103.104" y="41.472" width="266.112" height="266.112"/>
  </clipPath>
 </defs>
</svg>
