<?xml version="1.0" encoding="utf-8" standalone="no"?>
<!DOCTYPE svg PUBLIC "-//W3C//DTD SVG 1.1//EN"
  "http://www.w3.org/Graphics/SVG/1.1/DTD/svg11.dtd">
<svg xmlns:xlink="http://www.w3.org/1999/xlink" width="460.8pt" height="345.6pt" viewBox="0 0 460.8 345.6" xmlns="http://www.w3.org/2000/svg" version="1.1">
 <metadata>
  <rdf:RDF xmlns:dc="http://purl.org/dc/elements/1.1/" xmlns:cc="http://creativecommons.org/ns#" xmlns:rdf="http://www.w3.org/1999/02/22-rdf-syntax-ns#">
   <cc:Work>
    <dc:type rdf:resource="http://purl.org/dc/dcmitype/StillImage"/>
    <dc:date>2023-10-23T13:51:37.719760</dc:date>
    <dc:format>image/svg+xml</dc:format>
    <dc:creator>
     <cc:Agent>
      <dc:title>Matplotlib v3.8.0, https://matplotlib.org/</dc:title>
     </cc:Agent>
    </dc:creator>
   </cc:Work>
  </rdf:RDF>
 </metadata>
 <defs>
  <style type="text/css">*{stroke-linejoin: round; stroke-linecap: butt}</style>
 </defs>
 <g id="figure_1">
  <g id="patch_1">
   <path d="M 0 345.6 
L 460.8 345.6 
L 460.8 0 
L 0 0 
z
" style="fill: #ffffff"/>
  </g>
  <g id="axes_1">
   <g id="patch_2">
    <path d="M 57.6 307.584 
L 414.72 307.584 
L 414.72 41.472 
L 57.6 41.472 
z
" style="fill: #ffffff"/>
   </g>
   <g id="matplotlib.axis_1">
    <g id="xtick_1">
     <g id="line2d_1">
      <defs>
       <path id="m93b41b74cb" d="M 0 0 
L 0 3.5 
" style="stroke: #000000; stroke-width: 0.8"/>
      </defs>
      <g>
       <use xlink:href="#m93b41b74cb" x="93.312" y="307.584" style="stroke: #000000; stroke-width: 0.8"/>
      </g>
     </g>
     <g id="text_1">
      <!-- −0.4 -->
      <g transform="translate(81.170594 322.182437) scale(0.1 -0.1)">
       <defs>
        <path id="DejaVuSans-2212" d="M 678 2272 
L 4684 2272 
L 4684 1741 
L 678 1741 
L 678 2272 
z
" transform="scale(0.015625)"/>
        <path id="DejaVuSans-30" d="M 2034 4250 
Q 1547 4250 1301 3770 
Q 1056 3291 1056 2328 
Q 1056 1369 1301 889 
Q 1547 409 2034 409 
Q 2525 409 2770 889 
Q 3016 1369 3016 2328 
Q 3016 3291 2770 3770 
Q 2525 4250 2034 4250 
z
M 2034 4750 
Q 2819 4750 3233 4129 
Q 3647 3509 3647 2328 
Q 3647 1150 3233 529 
Q 2819 -91 2034 -91 
Q 1250 -91 836 529 
Q 422 1150 422 2328 
Q 422 3509 836 4129 
Q 1250 4750 2034 4750 
z
" transform="scale(0.015625)"/>
        <path id="DejaVuSans-2e" d="M 684 794 
L 1344 794 
L 1344 0 
L 684 0 
L 684 794 
z
" transform="scale(0.015625)"/>
        <path id="DejaVuSans-34" d="M 2419 4116 
L 825 1625 
L 2419 1625 
L 2419 4116 
z
M 2253 4666 
L 3047 4666 
L 3047 1625 
L 3713 1625 
L 3713 1100 
L 3047 1100 
L 3047 0 
L 2419 0 
L 2419 1100 
L 313 1100 
L 313 1709 
L 2253 4666 
z
" transform="scale(0.015625)"/>
       </defs>
       <use xlink:href="#DejaVuSans-2212"/>
       <use xlink:href="#DejaVuSans-30" x="83.789062"/>
       <use xlink:href="#DejaVuSans-2e" x="147.412109"/>
       <use xlink:href="#DejaVuSans-34" x="179.199219"/>
      </g>
     </g>
    </g>
    <g id="xtick_2">
     <g id="line2d_2">
      <g>
       <use xlink:href="#m93b41b74cb" x="164.736" y="307.584" style="stroke: #000000; stroke-width: 0.8"/>
      </g>
     </g>
     <g id="text_2">
      <!-- −0.2 -->
      <g transform="translate(152.594594 322.182437) scale(0.1 -0.1)">
       <defs>
        <path id="DejaVuSans-32" d="M 1228 531 
L 3431 531 
L 3431 0 
L 469 0 
L 469 531 
Q 828 903 1448 1529 
Q 2069 2156 2228 2338 
Q 2531 2678 2651 2914 
Q 2772 3150 2772 3378 
Q 2772 3750 2511 3984 
Q 2250 4219 1831 4219 
Q 1534 4219 1204 4116 
Q 875 4013 500 3803 
L 500 4441 
Q 881 4594 1212 4672 
Q 1544 4750 1819 4750 
Q 2544 4750 2975 4387 
Q 3406 4025 3406 3419 
Q 3406 3131 3298 2873 
Q 3191 2616 2906 2266 
Q 2828 2175 2409 1742 
Q 1991 1309 1228 531 
z
" transform="scale(0.015625)"/>
       </defs>
       <use xlink:href="#DejaVuSans-2212"/>
       <use xlink:href="#DejaVuSans-30" x="83.789062"/>
       <use xlink:href="#DejaVuSans-2e" x="147.412109"/>
       <use xlink:href="#DejaVuSans-32" x="179.199219"/>
      </g>
     </g>
    </g>
    <g id="xtick_3">
     <g id="line2d_3">
      <g>
       <use xlink:href="#m93b41b74cb" x="236.16" y="307.584" style="stroke: #000000; stroke-width: 0.8"/>
      </g>
     </g>
     <g id="text_3">
      <!-- 0.0 -->
      <g transform="translate(228.208438 322.182437) scale(0.1 -0.1)">
       <use xlink:href="#DejaVuSans-30"/>
       <use xlink:href="#DejaVuSans-2e" x="63.623047"/>
       <use xlink:href="#DejaVuSans-30" x="95.410156"/>
      </g>
     </g>
    </g>
    <g id="xtick_4">
     <g id="line2d_4">
      <g>
       <use xlink:href="#m93b41b74cb" x="307.584" y="307.584" style="stroke: #000000; stroke-width: 0.8"/>
      </g>
     </g>
     <g id="text_4">
      <!-- 0.2 -->
      <g transform="translate(299.632437 322.182437) scale(0.1 -0.1)">
       <use xlink:href="#DejaVuSans-30"/>
       <use xlink:href="#DejaVuSans-2e" x="63.623047"/>
       <use xlink:href="#DejaVuSans-32" x="95.410156"/>
      </g>
     </g>
    </g>
    <g id="xtick_5">
     <g id="line2d_5">
      <g>
       <use xlink:href="#m93b41b74cb" x="379.008" y="307.584" style="stroke: #000000; stroke-width: 0.8"/>
      </g>
     </g>
     <g id="text_5">
      <!-- 0.4 -->
      <g transform="translate(371.056437 322.182437) scale(0.1 -0.1)">
       <use xlink:href="#DejaVuSans-30"/>
       <use xlink:href="#DejaVuSans-2e" x="63.623047"/>
       <use xlink:href="#DejaVuSans-34" x="95.410156"/>
      </g>
     </g>
    </g>
    <g id="text_6">
     <!-- r -->
     <g transform="translate(234.104531 335.860562) scale(0.1 -0.1)">
      <defs>
       <path id="DejaVuSans-72" d="M 2631 2963 
Q 2534 3019 2420 3045 
Q 2306 3072 2169 3072 
Q 1681 3072 1420 2755 
Q 1159 2438 1159 1844 
L 1159 0 
L 581 0 
L 581 3500 
L 1159 3500 
L 1159 2956 
Q 1341 3275 1631 3429 
Q 1922 3584 2338 3584 
Q 2397 3584 2469 3576 
Q 2541 3569 2628 3553 
L 2631 2963 
z
" transform="scale(0.015625)"/>
      </defs>
      <use xlink:href="#DejaVuSans-72"/>
     </g>
    </g>
   </g>
   <g id="matplotlib.axis_2">
    <g id="ytick_1">
     <g id="line2d_6">
      <defs>
       <path id="m2cca2fe039" d="M 0 0 
L -3.5 0 
" style="stroke: #000000; stroke-width: 0.8"/>
      </defs>
      <g>
       <use xlink:href="#m2cca2fe039" x="57.6" y="280.9728" style="stroke: #000000; stroke-width: 0.8"/>
      </g>
     </g>
     <g id="text_7">
      <!-- −0.4 -->
      <g transform="translate(26.317187 284.772019) scale(0.1 -0.1)">
       <use xlink:href="#DejaVuSans-2212"/>
       <use xlink:href="#DejaVuSans-30" x="83.789062"/>
       <use xlink:href="#DejaVuSans-2e" x="147.412109"/>
       <use xlink:href="#DejaVuSans-34" x="179.199219"/>
      </g>
     </g>
    </g>
    <g id="ytick_2">
     <g id="line2d_7">
      <g>
       <use xlink:href="#m2cca2fe039" x="57.6" y="227.7504" style="stroke: #000000; stroke-width: 0.8"/>
      </g>
     </g>
     <g id="text_8">
      <!-- −0.2 -->
      <g transform="translate(26.317187 231.549619) scale(0.1 -0.1)">
       <use xlink:href="#DejaVuSans-2212"/>
       <use xlink:href="#DejaVuSans-30" x="83.789062"/>
       <use xlink:href="#DejaVuSans-2e" x="147.412109"/>
       <use xlink:href="#DejaVuSans-32" x="179.199219"/>
      </g>
     </g>
    </g>
    <g id="ytick_3">
     <g id="line2d_8">
      <g>
       <use xlink:href="#m2cca2fe039" x="57.6" y="174.528" style="stroke: #000000; stroke-width: 0.8"/>
      </g>
     </g>
     <g id="text_9">
      <!-- 0.0 -->
      <g transform="translate(34.696875 178.327219) scale(0.1 -0.1)">
       <use xlink:href="#DejaVuSans-30"/>
       <use xlink:href="#DejaVuSans-2e" x="63.623047"/>
       <use xlink:href="#DejaVuSans-30" x="95.410156"/>
      </g>
     </g>
    </g>
    <g id="ytick_4">
     <g id="line2d_9">
      <g>
       <use xlink:href="#m2cca2fe039" x="57.6" y="121.3056" style="stroke: #000000; stroke-width: 0.8"/>
      </g>
     </g>
     <g id="text_10">
      <!-- 0.2 -->
      <g transform="translate(34.696875 125.104819) scale(0.1 -0.1)">
       <use xlink:href="#DejaVuSans-30"/>
       <use xlink:href="#DejaVuSans-2e" x="63.623047"/>
       <use xlink:href="#DejaVuSans-32" x="95.410156"/>
      </g>
     </g>
    </g>
    <g id="ytick_5">
     <g id="line2d_10">
      <g>
       <use xlink:href="#m2cca2fe039" x="57.6" y="68.0832" style="stroke: #000000; stroke-width: 0.8"/>
      </g>
     </g>
     <g id="text_11">
      <!-- 0.4 -->
      <g transform="translate(34.696875 71.882419) scale(0.1 -0.1)">
       <use xlink:href="#DejaVuSans-30"/>
       <use xlink:href="#DejaVuSans-2e" x="63.623047"/>
       <use xlink:href="#DejaVuSans-34" x="95.410156"/>
      </g>
     </g>
    </g>
    <g id="text_12">
     <!-- z -->
     <g transform="translate(20.2375 177.152219) rotate(-90) scale(0.1 -0.1)">
      <defs>
       <path id="DejaVuSans-7a" d="M 353 3500 
L 3084 3500 
L 3084 2975 
L 922 459 
L 3084 459 
L 3084 0 
L 275 0 
L 275 525 
L 2438 3041 
L 353 3041 
L 353 3500 
z
" transform="scale(0.015625)"/>
      </defs>
      <use xlink:href="#DejaVuSans-7a"/>
     </g>
    </g>
   </g>
   <g id="line2d_11">
    <path d="M 236.16 180.4416 
L 243.028157 182.017328 
L 276.001504 189.377972 
L 319.308279 198.686957 
L 356.584484 207.107687 
L 380.632502 214.229305 
L 392.195546 220.531482 
L 393.679838 226.068109 
L 387.421235 230.450819 
L 373.678622 233.378072 
L 352.618726 233.53153 
L 324.669965 229.550854 
L 281.850456 217.508059 
L 232.683992 197.730172 
L 194.97892 179.48643 
L 165.54335 163.559993 
L 142.456611 149.618804 
L 125.763614 137.36044 
L 121.130269 130.558123 
L 127.068055 128.209974 
L 142.171494 130.024463 
L 165.443556 135.40366 
L 198.881802 144.899084 
L 238.703959 157.72197 
L 277.690744 171.832765 
L 315.718038 187.858277 
L 348.149241 205.079797 
L 370.855363 222.378185 
L 380.919519 236.714349 
L 380.197543 246.054488 
L 370.784953 249.182798 
L 353.735299 244.941577 
L 331.962917 234.395088 
L 302.047644 216.52392 
L 263.334534 191.631092 
L 196.061954 147.857169 
L 167.907501 129.124988 
L 147.963498 114.514548 
L 140.796176 106.805143 
L 144.384056 104.316705 
L 156.64982 106.534655 
L 178.013211 113.28507 
L 208.853762 125.353023 
L 244.362645 141.799282 
L 276.364472 159.429763 
L 308.598489 181.383405 
L 338.105537 208.630864 
L 356.039905 233.908063 
L 362.370065 250.704465 
L 361.678074 257.578187 
L 357.839657 258.010391 
L 351.242785 253.673781 
L 340.079864 243.065041 
L 322.771158 225.214869 
L 297.6499 200.574767 
L 264.534256 171.661092 
L 228.456716 143.923223 
L 196.925619 121.875208 
L 172.780837 105.692998 
L 157.202619 94.788205 
L 153.332351 90.745808 
L 158.128246 91.338285 
L 170.518208 96.200109 
L 192.375223 106.547832 
L 221.748733 122.567602 
L 249.043618 139.772286 
L 274.381207 158.436968 
L 303.153456 184.489216 
L 328.515433 215.200857 
L 343.433879 240.573728 
L 349.996176 256.61336 
L 350.927403 261.495223 
L 349.14938 260.462506 
L 345.065565 254.282957 
L 337.158853 241.51566 
L 323.71382 221.626602 
L 302.67007 195.451235 
L 273.564675 166.186318 
L 240.740584 139.231443 
L 212.399726 119.271861 
L 187.850176 103.70204 
L 168.128123 92.049933 
L 158.275588 86.404067 
L 158.838322 86.605686 
L 165.82406 90.396668 
L 181.499999 99.305025 
L 205.822246 114.130107 
L 235.281215 134.107763 
L 263.508633 156.128025 
L 290.409422 181.010592 
L 316.592278 211.018109 
L 334.918639 237.440761 
L 345.424046 255.131365 
L 349.420773 261.485381 
L 350.226054 261.272597 
L 348.95835 256.601619 
L 344.952508 246.634248 
L 336.344966 229.895202 
L 320.730341 206.498026 
L 296.160288 178.675355 
L 263.999232 150.851708 
L 232.744582 129.093806 
L 202.003752 110.972629 
L 177.535553 98.419901 
L 160.250769 90.858532 
L 154.44203 89.47572 
L 157.539559 92.886412 
L 168.261833 100.401213 
L 188.251079 113.657618 
L 216.062954 132.619621 
L 246.896776 155.336227 
L 274.166619 177.626452 
L 303.128223 204.396554 
L 328.00012 230.414683 
L 345.629395 249.633789 
L 354.948808 257.915622 
L 359.153461 258.874001 
L 360.528458 254.918435 
L 358.753014 246.255326 
L 352.652773 232.527574 
L 338.934255 212.241374 
L 314.696591 187.247337 
L 280.038771 161.264814 
L 240.925666 138.647638 
L 207.813268 122.850007 
L 179.070906 111.165923 
L 155.834486 103.593684 
L 144.646864 101.929943 
L 143.20956 104.636474 
L 149.53767 111.146708 
L 164.955585 122.634668 
L 190.245621 139.75618 
L 222.644982 161.244082 
L 256.690388 184.082009 
L 286.612934 204.445585 
L 319.131074 226.293645 
L 347.047475 243.018045 
L 363.968461 249.929074 
L 373.071234 250.621461 
L 378.215722 247.384176 
L 378.803667 239.742792 
L 372.98961 228.493935 
L 355.588807 211.372479 
L 323.168808 190.76548 
L 277.058342 169.319415 
L 234.476416 153.118718 
L 192.20362 139.172415 
L 158.901492 129.812198 
L 134.946539 125.061073 
L 125.168274 125.478861 
L 124.620938 129.69201 
L 132.153305 137.182876 
L 149.863188 149.579907 
L 177.932749 166.39247 
L 208.015484 182.720936 
L 238.554014 197.875675 
L 274.843958 213.765457 
L 314.651797 227.559192 
L 347.245482 234.596363 
L 368.653122 235.924143 
L 383.907042 233.915814 
L 392.530964 229.01651 
L 391.173566 222.226443 
L 379.04367 214.92446 
L 356.975802 207.356906 
L 325.570352 199.095135 
L 236.566935 177.823165 
L 164.01787 159.969951 
L 134.710451 153.138013 
L 114.631286 149.553997 
L 106.813749 149.758062 
L 106.871908 152.745557 
L 114.360815 158.505822 
L 132.051138 168.276181 
L 154.534583 178.793867 
L 181.366879 189.794726 
L 215.981835 201.852497 
L 256.618627 212.799319 
L 298.848989 219.96637 
L 334.417016 222.090131 
L 363.558482 220.607378 
L 384.259329 217.064158 
L 394.107506 213.513195 
L 395.285616 210.835285 
L 389.231918 208.861978 
L 376.850221 207.55154 
L 338.873451 205.371536 
L 311.190928 203.374297 
L 274.592022 199.548692 
L 228.345366 192.608735 
L 184.715174 184.029376 
L 153.126748 176.789256 
L 114.452028 167.301716 
L 101.567585 164.465634 
L 96.660024 164.101745 
L 98.462989 165.984324 
L 107.791877 170.41673 
L 124.27849 176.932447 
L 146.53329 184.669302 
L 176.466857 193.642481 
L 213.672224 202.58599 
L 256.635047 209.670522 
L 301.173789 213.010956 
L 337.401481 212.493095 
L 366.437398 209.834021 
L 384.493731 207.007998 
L 393.095939 205.086772 
L 394.621113 204.245498 
L 391.807411 204.198143 
L 385.570143 204.64892 
L 374.231636 205.618936 
L 357.152217 206.885991 
L 335.013717 207.911583 
L 307.537806 208.066324 
L 277.840531 206.779848 
L 233.494812 202.073391 
L 181.098323 192.473572 
L 146.590783 183.997056 
L 122.527904 177.176332 
L 108.140192 172.760407 
L 94.06554 168.141364 
L 96.994016 169.006157 
L 106.842225 172.049667 
L 123.138251 176.912839 
L 143.764521 182.665447 
L 172.902007 189.92559 
L 209.342044 197.415013 
L 251.765633 203.6656 
L 296.608678 207.144722 
L 336.13281 207.468705 
L 363.913771 206.256165 
L 390.309142 204.510371 
L 394.33714 204.555485 
L 394.45985 205.15994 
L 390.018937 206.538558 
L 379.452172 208.703359 
L 362.314998 211.216069 
L 338.969001 213.293739 
L 309.255419 213.978215 
L 274.99604 212.222653 
L 225.961093 205.296898 
L 180.487806 194.639403 
L 146.482958 184.206998 
L 123.281487 175.822834 
L 106.727281 168.93155 
L 98.618487 164.730697 
L 98.095551 162.844752 
L 105.722042 163.851638 
L 120.406803 167.158174 
L 144.366188 172.98727 
L 173.793901 179.931419 
L 204.847156 186.623702 
L 243.711778 193.805499 
L 286.804423 200.019371 
L 333.195223 204.678808 
L 362.747522 206.911664 
L 380.784919 208.525206 
L 391.807235 210.430816 
L 395.721696 212.871035 
L 392.793659 215.849912 
L 383.214193 219.046907 
L 366.955919 221.886229 
L 343.941489 223.420784 
L 314.841866 222.438275 
L 274.228287 216.655293 
L 222.5996 203.180131 
L 181.599463 188.38762 
L 151.788786 175.500481 
L 128.040138 163.611677 
L 113.428359 154.731094 
L 107.630307 148.562047 
L 113.094379 146.789525 
L 127.14203 148.618565 
L 149.117736 153.328348 
L 181.0004 161.125801 
L 297.993835 190.889419 
L 339.130872 202.002867 
L 369.177534 211.891773 
L 386.582079 220.669916 
L 392.343119 228.126107 
L 388.82163 233.828873 
L 377.609794 237.267922 
L 358.130907 237.336071 
L 328.786014 231.791909 
L 288.5992 218.126855 
L 241.668192 196.923246 
L 204.486302 177.537446 
L 170.918787 158.34945 
L 146.239738 142.711222 
L 129.914429 130.024176 
L 126.307244 123.659088 
L 132.683674 121.673952 
L 148.069236 123.838311 
L 172.142802 129.897969 
L 206.084222 140.418824 
L 245.37391 154.483813 
L 281.723467 169.485026 
L 318.382216 187.663582 
L 348.655785 207.312557 
L 369.033703 227.085457 
L 376.675791 242.193248 
L 374.357338 250.802307 
L 366.628723 252.000839 
L 354.422922 247.776355 
L 336.534407 237.437418 
L 310.837959 219.769543 
L 276.392147 195.127901 
L 240.79119 170.213695 
L 208.44976 148.270441 
L 179.735192 129.002933 
L 156.999292 113.104125 
L 145.507274 103.078577 
L 145.808524 99.959985 
L 153.437636 100.726764 
L 169.391389 105.55189 
L 195.432507 115.735238 
L 228.576832 131.125098 
L 261.984835 149.521917 
L 291.780643 169.401358 
L 322.604517 195.958088 
L 346.00578 225.030344 
L 356.511447 246.039359 
L 358.719042 256.882886 
L 356.65099 259.661672 
L 351.472828 256.538572 
L 342.987861 247.636895 
L 329.194682 231.629763 
L 308.319732 208.588731 
L 279.217382 180.373273 
L 244.30111 151.36244 
L 215.193198 130.00073 
L 189.578604 112.611647 
L 168.205218 98.579664 
L 156.478319 90.330242 
L 155.66404 88.542153 
L 161.657477 90.472336 
L 175.875438 96.916915 
L 199.271298 109.080756 
L 229.052636 126.742247 
L 258.934332 147.443468 
L 285.57524 169.56448 
L 313.768385 199.230913 
L 334.12952 228.143703 
L 345.22525 249.485243 
L 349.251178 259.807898 
L 349.605437 262.103262 
L 347.841052 259.566771 
L 343.529674 251.752923 
L 335.15642 237.185308 
L 320.795463 215.586159 
L 298.410543 188.293832 
L 268.24492 159.133126 
L 235.923419 133.725988 
L 207.757189 114.744055 
L 183.611191 100.151924 
L 165.379988 90.012674 
L 157.926684 86.217209 
L 159.273597 87.264784 
L 184.37157 102.277323 
L 209.713503 118.397629 
L 239.40989 139.321422 
L 266.985465 161.556471 
L 294.476047 187.719547 
L 318.168352 215.126601 
L 336.112847 240.183941 
L 346.69804 256.397433 
L 350.767231 261.430871 
L 351.715543 260.285904 
L 350.374493 254.494497 
L 346.053025 243.444977 
L 336.61729 225.591776 
L 319.452356 201.378633 
L 292.919037 173.574537 
L 259.262181 146.728272 
L 229.234602 127.305781 
L 200.048284 111.17054 
L 175.273398 99.301839 
L 157.969304 92.489851 
L 152.414427 91.737977 
L 155.526773 95.571788 
L 166.349667 103.501642 
L 186.588744 117.18925 
L 214.812897 136.498901 
L 246.28952 159.419723 
L 274.518383 181.860844 
L 303.309199 207.133562 
L 329.312068 232.052001 
L 348.150132 249.911795 
L 358.160822 256.962643 
L 362.883765 257.266118 
L 364.604404 253.15648 
L 362.966416 244.228883 
L 356.5759 230.581699 
L 341.712387 210.516755 
L 315.427569 186.165404 
L 278.095948 161.081336 
L 235.499515 138.956706 
L 201.067391 124.176233 
L 171.543218 113.47156 
L 149.156823 107.361651 
L 139.896725 106.966006 
L 139.69248 110.887572 
L 147.166952 118.118701 
L 164.426294 130.756575 
L 191.578172 148.748966 
L 225.357372 170.350551 
L 259.879184 192.108775 
L 291.834024 211.783444 
L 325.932418 231.247166 
L 354.276826 243.998936 
L 369.993392 247.573623 
L 380.029817 245.966039 
L 383.740689 240.602699 
L 380.719918 230.823403 
L 366.47524 216.479573 
L 336.304645 198.375735 
L 292.498348 179.430861 
L 245.649989 162.766593 
L 205.307934 150.025254 
L 169.551048 139.887768 
L 140.110071 133.02105 
L 124.467861 131.206524 
L 118.863049 133.600616 
L 123.237131 139.937893 
L 136.848716 150.033736 
L 161.246113 164.669354 
L 189.362759 179.571158 
L 220.479542 194.385751 
L 257.007407 209.501108 
L 295.723496 222.222411 
L 336.874122 230.653354 
L 361.898941 232.130558 
L 380.566945 230.325577 
L 392.396095 225.93823 
L 394.218834 220.698654 
L 386.391298 215.288734 
L 369.800142 210.064429 
L 345.034223 204.597297 
L 311.795508 198.129102 
L 269.833236 189.804673 
L 220.457356 179.116667 
L 186.388982 171.182464 
L 156.529328 164.032008 
L 130.076072 157.896003 
L 111.29095 154.365581 
L 103.792839 154.234756 
L 103.5576 156.630421 
L 110.617172 161.737836 
L 127.581533 170.5352 
L 150.44281 180.549679 
L 177.091534 190.709668 
L 212.158097 201.932415 
L 253.285575 211.860594 
L 296.713891 218.081099 
L 332.230969 219.450482 
L 361.590077 217.646317 
L 383.910827 213.899686 
L 393.721112 210.72594 
L 395.192705 208.55164 
L 389.726766 207.202461 
L 380.09795 206.639129 
L 334.060334 205.667789 
L 308.074548 204.405606 
L 272.411549 201.328548 
L 226.265627 194.953206 
L 181.96279 186.452345 
L 149.530069 178.964699 
L 99.670851 166.487374 
L 95.37832 166.01221 
L 97.851879 167.765784 
L 107.888097 171.999453 
L 127.151326 178.961369 
L 150.769784 186.486356 
L 182.432066 195.110099 
L 220.988848 203.315005 
L 264.987113 209.35641 
L 311.532888 211.572604 
L 351.137726 209.884246 
L 375.434468 207.148339 
L 388.85154 205.001679 
L 394.20633 203.884999 
L 393.968757 203.68805 
L 389.602831 204.141069 
L 380.512404 205.214403 
L 365.403561 206.803044 
L 344.448995 208.393463 
L 317.782012 209.277697 
L 286.483901 208.637049 
L 247.030932 205.271311 
L 194.207695 196.53381 
L 155.946536 187.437733 
L 128.556519 179.612072 
L 111.09387 174.044205 
L 99.466718 170.007501 
L 94.399398 167.974026 
L 96.070819 168.134096 
L 103.690017 170.210348 
L 119.978544 174.810069 
L 142.736128 180.952733 
L 170.855982 187.828279 
L 206.404632 195.169853 
L 248.12649 201.609745 
L 292.91772 205.670472 
L 335.04807 206.728036 
L 361.180735 206.162773 
L 387.750045 205.191361 
L 393.602369 205.377999 
L 394.993415 206.14922 
L 391.555757 207.729867 
L 381.978316 210.07763 
L 365.76023 212.769014 
L 343.212684 215.007124 
L 314.173029 215.804357 
L 280.206695 214.04414 
L 231.517542 206.893478 
L 185.428059 195.599387 
L 150.612014 184.386688 
L 126.799006 175.318937 
L 109.517653 167.692579 
L 100.562944 162.711405 
L 99.701274 160.219348 
L 107.502129 160.900253 
L 121.933376 163.904229 
L 173.269481 176.036328 
L 203.815774 182.835794 
L 240.313997 190.116451 
L 282.434409 197.194003 
L 327.839768 203.276149 
L 360.075309 207.052337 
L 380.147264 209.885793 
L 392.078829 212.919254 
L 395.641867 216.262927 
L 391.840103 219.816046 
L 381.263005 223.193999 
L 363.770692 225.732775 
L 339.621612 226.302269 
L 309.925985 223.745046 
L 263.395438 214.124658 
L 218.219661 199.572457 
L 179.705364 183.829989 
L 152.922613 171.122985 
L 131.419307 159.51162 
L 116.332423 149.567332 
L 111.467351 143.082643 
L 118.11596 141.431871 
L 133.297706 143.478334 
L 156.727323 148.626536 
L 190.084219 157.119021 
L 230.036292 167.952862 
L 271.138386 179.563538 
L 310.557723 191.404263 
L 347.698368 204.195887 
L 373.678873 216.06403 
L 387.240136 226.536544 
L 389.530643 234.767947 
L 383.179658 239.930556 
L 368.034193 241.502818 
L 341.133372 236.500899 
L 306.290044 223.70139 
L 264.160308 203.471179 
L 225.615656 182.498987 
L 193.363386 163.723463 
L 166.003665 146.794675 
L 143.180474 131.105891 
L 131.715267 120.304199 
L 132.618891 116.242097 
L 141.819922 116.181325 
L 158.218808 119.577835 
L 185.39168 127.553596 
L 221.109596 140.159561 
L 259.217425 155.859891 
L 292.180879 171.874235 
L 327.088934 193.028342 
L 354.076635 215.805647 
L 368.811671 235.992483 
L 372.160179 249.359183 
L 367.999141 254.436114 
L 359.716154 252.941418 
L 347.778512 246.150456 
L 329.367679 232.464635 
L 303.071946 211.467603 
L 268.260843 184.430358 
L 234.611277 159.87008 
L 202.145915 137.386521 
L 175.078929 119.021262 
L 155.560863 105.093564 
L 148.149402 98.038774 
L 150.268061 96.237703 
L 160.07057 98.507659 
L 178.993793 105.491182 
L 207.168093 118.081603 
L 240.277357 135.482988 
L 270.784212 154.56168 
L 300.627819 177.555138 
L 329.427914 207.264487 
L 347.290506 234.331772 
L 354.647146 252.342965 
L 355.470935 259.405272 
L 353.343909 260.297542 
L 348.698136 256.102841 
L 340.383821 245.775855 
L 326.734721 228.277336 
L 305.872131 203.953466 
L 276.850971 175.137967 
L 242.68977 146.613449 
L 213.88024 125.606511 
L 188.762968 108.813861 
L 168.201264 95.650184 
L 157.399876 88.380647 
L 157.257888 87.332118 
L 163.532354 89.872154 
L 178.275436 97.14783 
L 201.986392 110.231818 
L 231.587413 128.718863 
L 260.72368 149.902131 
L 287.34915 173.084424 
L 315.030249 203.607342 
L 334.266382 231.821044 
L 344.794441 251.907517 
L 348.604588 260.736312 
L 349.033852 262.146322 
L 343.225615 250.264555 
L 334.845377 234.875712 
L 320.225727 212.545992 
L 297.339687 184.893995 
L 266.770834 156.013312 
L 232.317984 129.862912 
L 204.121982 111.671158 
L 180.320346 97.979197 
L 163.228759 89.097285 
L 157.229403 86.547465 
L 160.293925 88.995209 
L 190.420547 107.888366 
L 217.629733 125.983669 
L 244.477736 145.662661 
L 270.474724 167.177874 
L 298.641968 194.442682 
L 322.446401 222.126808 
L 349.342185 258.403145 
L 352.86547 261.100968 
L 353.506722 257.817995 
L 351.456269 250.053014 
L 345.644704 236.497632 
L 333.498334 216.172704 
L 312.319037 190.381982 
L 281.69924 162.846068 
L 246.631978 138.496834 
L 215.988325 120.961669 
L 189.328231 107.804815 
L 166.063653 98.000702 
L 152.334522 93.935114 
L 150.300134 95.371073 
L 155.966031 100.789742 
L 170.120031 111.002249 
L 193.745741 127.061401 
L 224.270618 148.157835 
L 256.217021 171.55374 
L 284.85289 194.13934 
L 313.793002 218.667571 
L 338.8033 240.418896 
L 356.052803 253.283264 
L 364.10103 256.128715 
L 368.217738 253.325453 
L 368.179471 245.788325 
L 363.987148 234.93057 
L 351.921505 217.422533 
L 328.343264 194.961815 
L 292.276915 170.652201 
L 247.224939 147.642757 
L 211.332278 132.593438 
L 180.058438 121.36659 
L 153.20875 113.612705 
L 138.60348 111.490324 
L 134.639996 114.399601 
L 140.626762 121.54553 
L 155.800835 133.111096 
L 181.321017 149.984957 
L 214.603554 170.607504 
L 249.830282 191.533263 
L 282.260926 209.83588 
L 318.345525 228.166772 
L 350.385526 240.617055 
L 369.094333 244.274097 
L 381.607298 242.973972 
L 386.990743 238.259596 
L 385.052685 229.2551 
L 369.874037 215.887767 
L 339.624015 200.523146 
L 297.737295 184.735226 
L 247.271763 168.560348 
L 205.955561 156.43864 
L 169.184193 146.455366 
L 138.714556 139.356465 
L 121.54989 136.97901 
L 114.693656 138.771353 
L 117.999365 144.325587 
L 130.31183 153.389061 
L 153.40644 166.812388 
L 179.739897 180.168067 
L 209.121885 193.434452 
L 245.627242 207.592812 
L 285.489742 219.636447 
L 328.689499 227.526059 
L 356.063684 228.847485 
L 377.119967 227.040876 
L 391.574445 222.83678 
L 395.327752 218.38296 
L 389.864887 214.080483 
L 376.297925 210.303 
L 355.490863 206.613985 
L 327.473758 202.371113 
L 291.12486 196.654668 
L 246.202764 188.537296 
L 202.315797 179.355237 
L 171.956588 172.39776 
L 145.105598 166.02441 
L 122.244067 160.758194 
L 106.393279 157.848391 
L 100.709783 158.061976 
L 102.274741 160.730776 
L 111.654389 166.26283 
L 131.075662 175.195456 
L 157.134544 185.419105 
L 188.238187 195.806239 
L 226.46618 205.994675 
L 269.80375 213.83536 
L 316.440639 217.323537 
L 349.554839 216.291474 
L 374.972871 213.150913 
L 389.648769 209.895507 
L 395.042953 207.579205 
L 393.509103 206.311193 
L 387.23463 205.854133 
L 379.399087 205.837665 
L 355.146294 206.205767 
L 338.160873 206.250997 
L 319.121649 205.903497 
L 289.95298 204.427468 
L 249.416399 200.384808 
L 198.59096 192.141957 
L 160.598257 183.905746 
L 133.498472 177.127743 
L 103.961379 169.233548 
L 95.928873 167.298272 
L 95.298323 167.785357 
L 101.565923 170.433373 
L 116.57281 175.815382 
L 138.136489 182.731455 
L 166.294534 190.651565 
L 201.804573 198.86561 
L 243.491584 205.807809 
L 289.109054 209.778134 
L 327.018555 210.024194 
L 358.483017 208.081162 
L 379.109228 205.76341 
L 394.384442 203.549028 
L 377.894104 206.037202 
L 360.981489 207.999659 
L 338.237525 209.742011 
L 309.421775 210.466113 
L 276.365632 209.269568 
L 231.30962 204.266005 
L 183.887295 195.079744 
L 148.326886 185.773812 
L 123.431167 178.071128 
L 108.431104 172.892399 
L 98.687523 169.156486 
L 94.689033 167.130753 
L 98.481769 167.620416 
L 108.805194 170.250709 
L 128.068627 175.385639 
L 152.348552 181.576002 
L 182.271621 188.459107 
L 219.480028 195.610297 
L 262.460699 201.664149 
L 306.965759 205.254548 
L 345.850353 206.215126 
L 385.761806 205.979533 
L 391.769192 206.281737 
L 395.122188 207.154701 
L 393.601427 208.827669 
L 386.067058 211.237264 
L 371.847147 214.06461 
L 351.248239 216.533385 
L 323.994392 217.69172 
L 291.229454 216.352146 
L 245.472906 210.016754 
L 197.694008 198.470535 
L 160.258413 186.255769 
L 134.043126 176.020176 
L 114.397958 167.093142 
L 103.73428 161.081907 
L 101.125312 157.495521 
L 106.549413 157.252567 
L 118.41067 159.260263 
L 139.396643 163.952638 
L 169.474684 171.091682 
L 200.182774 178.194967 
L 231.308331 184.937453 
L 271.283345 192.749315 
L 314.815984 200.179476 
L 354.395579 206.455979 
L 377.439577 210.792189 
L 391.16565 215.116031 
L 395.279337 219.373831 
L 391.532898 223.452896 
L 380.817136 226.963639 
L 363.006875 229.157343 
L 338.530328 228.801451 
L 305.778211 224.26175 
L 258.671269 211.723892 
L 215.271184 195.426926 
L 179.146272 179.051441 
L 152.120436 165.1024 
L 131.832603 153.176291 
L 117.997011 142.832595 
L 115.564122 137.51196 
L 122.726502 136.072121 
L 138.39199 138.229156 
L 162.620454 143.713071 
L 196.777247 152.832053 
L 237.221974 164.63429 
L 277.616234 177.363871 
L 317.286225 191.319844 
L 351.42907 205.904763 
L 374.785396 219.865727 
L 385.690726 231.82164 
L 385.640935 240.388322 
L 377.655932 244.523853 
L 357.925842 242.998383 
L 331.851793 234.102732 
L 298.436298 218.004446 
L 256.563879 194.568462 
L 221.715914 173.793566 
L 188.693405 153.373302 
L 161.007503 135.324478 
L 141.641505 120.919998 
L 135.276055 113.276911 
L 139.676184 110.656602 
L 153.036728 112.662303 
L 175.247481 118.945583 
L 207.225851 130.267417 
L 244.268538 145.748888 
L 278.045391 162.427267 
L 311.92063 182.971118 
L 341.705903 207.185803 
L 360.967805 231.026282 
L 367.767442 247.636372 
L 366.474564 255.368987 
L 361.424018 256.091216 
L 353.125886 251.862056 
L 339.863734 241.467317 
L 319.888817 223.812567 
L 291.733233 199.29944 
L 255.790128 170.476702 
L 225.622711 148.276674 
L 196.611105 128.144454 
L 171.556336 111.139472 
L 154.990286 99.160304 
L 150.466979 94.171531 
L 155.09966 93.971684 
L 167.299363 98.020784 
L 189.13809 107.3616 
L 218.993791 122.336849 
L 246.992314 138.639126 
L 273.917539 157.018761 
L 303.366877 181.795564 
L 330.547004 212.718439 
L 346.168668 238.600572 
L 352.562592 255.16336 
L 353.134418 260.621419 
L 350.889217 260.299619 
L 346.400979 254.95276 
L 337.981169 243.066741 
L 324.054081 224.003804 
L 302.659801 198.423869 
L 273.220447 169.207261 
L 239.716708 141.588679 
L 211.182971 121.170762 
L 186.510059 105.072904 
L 167.041036 92.99599 
L 157.68645 86.989986 
L 158.716747 86.933462 
L 166.31896 90.571723 
L 182.741078 99.33179 
L 207.741702 113.988752 
L 237.524017 133.700114 
L 265.492836 155.225831 
L 292.588794 180.273926 
L 318.799127 210.997349 
L 336.234142 237.607402 
L 345.652788 255.324594 
L 348.803641 261.682338 
L 349.033663 261.645122 
L 347.430861 257.488128 
L 343.014244 247.689645 
L 334.11084 231.059863 
L 318.475993 207.658087 
L 294.238145 179.586647 
L 262.679487 151.262177 
L 232.258322 129.088521 
L 202.405702 110.504529 
L 178.539107 97.405722 
L 161.801476 89.298327 
L 156.324704 87.454581 
L 159.684988 90.443912 
L 170.597412 97.613385 
L 190.63598 110.515418 
L 218.231756 129.167802 
L 245.281086 149.155126 
L 271.414076 170.766187 
L 300.004376 198.07929 
L 324.226891 225.314858 
L 341.466803 246.986479 
L 350.761861 257.910922 
L 354.893547 260.414485 
L 356.03276 257.04888 
L 354.208961 248.994302 
L 348.544844 235.59039 
L 336.217789 215.469333 
L 314.405242 190.058723 
L 282.73399 163.065075 
L 246.302015 139.190625 
L 214.765939 122.196714 
L 187.311038 109.490446 
L 163.528858 100.235443 
L 149.65027 96.770806 
L 147.674794 98.666288 
L 153.531572 104.529741 
L 168.070608 115.221286 
L 223.448088 153.008993 
L 256.244327 176.331612 
L 285.636189 198.357413 
L 315.969997 222.049739 
L 342.04727 241.924158 
L 358.45397 251.929286 
L 367.374814 254.219262 
L 372.191021 251.318995 
L 372.560919 243.859711 
L 368.053702 232.891583 
L 354.691294 215.694173 
L 328.543633 193.927181 
L 289.076786 170.607009 
L 240.167842 148.426488 
L 202.824275 134.357939 
L 170.483441 123.951184 
L 144.877273 117.66509 
L 133.033422 116.878329 
L 130.503908 120.32491 
L 136.991472 127.684379 
L 152.988077 139.61058 
L 179.424565 156.562772 
L 213.349272 176.60822 
L 247.916736 195.712056 
L 282.08762 213.035878 
L 319.824923 229.280114 
L 353.147438 239.067789 
L 371.655704 240.988177 
L 384.185184 238.994115 
L 390.055793 233.790181 
L 386.241117 224.467793 
L 368.118674 212.806929 
L 338.212815 200.830883 
L 298.062968 188.083066 
L 249.498282 174.222461 
L 208.1074 162.927326 
L 170.925996 153.190691 
L 139.455537 145.744755 
L 118.805036 142.385157 
L 111.293861 143.290886 
L 112.603291 147.525473 
L 122.210928 154.908588 
L 142.431368 166.574016 
L 167.339871 178.892908 
L 196.267789 191.496923 
L 231.966353 204.770976 
L 272.58932 216.499569 
L 316.549624 224.273783 
L 347.365434 225.916941 
L 371.783494 224.265173 
L 389.019614 220.403115 
L 395.453464 216.435924 
L 392.805227 212.833296 
L 382.337501 210.031907 
L 365.201192 207.593551 
L 312.122941 201.572158 
L 273.390001 196.207648 
L 225.969646 187.923325 
L 185.142156 179.356089 
L 157.24679 172.902367 
L 133.367533 167.186888 
L 114.110923 162.757564 
L 101.716083 160.631416 
L 98.728608 161.643741 
L 103.934283 165.287724 
L 118.108535 172.008297 
L 141.377758 181.270252 
L 168.384788 190.53462 
L 203.222265 200.460627 
L 244.343201 209.151566 
L 244.343201 209.151566 
" clip-path="url(#pc51884da6f)" style="fill: none; stroke: #1f77b4; stroke-width: 0.5; stroke-linecap: square"/>
   </g>
   <g id="patch_3">
    <path d="M 57.6 307.584 
L 57.6 41.472 
" style="fill: none; stroke: #000000; stroke-width: 0.8; stroke-linejoin: miter; stroke-linecap: square"/>
   </g>
   <g id="patch_4">
    <path d="M 414.72 307.584 
L 414.72 41.472 
" style="fill: none; stroke: #000000; stroke-width: 0.8; stroke-linejoin: miter; stroke-linecap: square"/>
   </g>
   <g id="patch_5">
    <path d="M 57.6 307.584 
L 414.72 307.584 
" style="fill: none; stroke: #000000; stroke-width: 0.8; stroke-linejoin: miter; stroke-linecap: square"/>
   </g>
   <g id="patch_6">
    <path d="M 57.6 41.472 
L 414.72 41.472 
" style="fill: none; stroke: #000000; stroke-width: 0.8; stroke-linejoin: miter; stroke-linecap: square"/>
   </g>
   <g id="text_13">
    <!-- Real Space Projection onto r-z plane with initial r = -0.02 -->
    <g transform="translate(66.41625 35.472) scale(0.12 -0.12)">
     <defs>
      <path id="DejaVuSans-52" d="M 2841 2188 
Q 3044 2119 3236 1894 
Q 3428 1669 3622 1275 
L 4263 0 
L 3584 0 
L 2988 1197 
Q 2756 1666 2539 1819 
Q 2322 1972 1947 1972 
L 1259 1972 
L 1259 0 
L 628 0 
L 628 4666 
L 2053 4666 
Q 2853 4666 3247 4331 
Q 3641 3997 3641 3322 
Q 3641 2881 3436 2590 
Q 3231 2300 2841 2188 
z
M 1259 4147 
L 1259 2491 
L 2053 2491 
Q 2509 2491 2742 2702 
Q 2975 2913 2975 3322 
Q 2975 3731 2742 3939 
Q 2509 4147 2053 4147 
L 1259 4147 
z
" transform="scale(0.015625)"/>
      <path id="DejaVuSans-65" d="M 3597 1894 
L 3597 1613 
L 953 1613 
Q 991 1019 1311 708 
Q 1631 397 2203 397 
Q 2534 397 2845 478 
Q 3156 559 3463 722 
L 3463 178 
Q 3153 47 2828 -22 
Q 2503 -91 2169 -91 
Q 1331 -91 842 396 
Q 353 884 353 1716 
Q 353 2575 817 3079 
Q 1281 3584 2069 3584 
Q 2775 3584 3186 3129 
Q 3597 2675 3597 1894 
z
M 3022 2063 
Q 3016 2534 2758 2815 
Q 2500 3097 2075 3097 
Q 1594 3097 1305 2825 
Q 1016 2553 972 2059 
L 3022 2063 
z
" transform="scale(0.015625)"/>
      <path id="DejaVuSans-61" d="M 2194 1759 
Q 1497 1759 1228 1600 
Q 959 1441 959 1056 
Q 959 750 1161 570 
Q 1363 391 1709 391 
Q 2188 391 2477 730 
Q 2766 1069 2766 1631 
L 2766 1759 
L 2194 1759 
z
M 3341 1997 
L 3341 0 
L 2766 0 
L 2766 531 
Q 2569 213 2275 61 
Q 1981 -91 1556 -91 
Q 1019 -91 701 211 
Q 384 513 384 1019 
Q 384 1609 779 1909 
Q 1175 2209 1959 2209 
L 2766 2209 
L 2766 2266 
Q 2766 2663 2505 2880 
Q 2244 3097 1772 3097 
Q 1472 3097 1187 3025 
Q 903 2953 641 2809 
L 641 3341 
Q 956 3463 1253 3523 
Q 1550 3584 1831 3584 
Q 2591 3584 2966 3190 
Q 3341 2797 3341 1997 
z
" transform="scale(0.015625)"/>
      <path id="DejaVuSans-6c" d="M 603 4863 
L 1178 4863 
L 1178 0 
L 603 0 
L 603 4863 
z
" transform="scale(0.015625)"/>
      <path id="DejaVuSans-20" transform="scale(0.015625)"/>
      <path id="DejaVuSans-53" d="M 3425 4513 
L 3425 3897 
Q 3066 4069 2747 4153 
Q 2428 4238 2131 4238 
Q 1616 4238 1336 4038 
Q 1056 3838 1056 3469 
Q 1056 3159 1242 3001 
Q 1428 2844 1947 2747 
L 2328 2669 
Q 3034 2534 3370 2195 
Q 3706 1856 3706 1288 
Q 3706 609 3251 259 
Q 2797 -91 1919 -91 
Q 1588 -91 1214 -16 
Q 841 59 441 206 
L 441 856 
Q 825 641 1194 531 
Q 1563 422 1919 422 
Q 2459 422 2753 634 
Q 3047 847 3047 1241 
Q 3047 1584 2836 1778 
Q 2625 1972 2144 2069 
L 1759 2144 
Q 1053 2284 737 2584 
Q 422 2884 422 3419 
Q 422 4038 858 4394 
Q 1294 4750 2059 4750 
Q 2388 4750 2728 4690 
Q 3069 4631 3425 4513 
z
" transform="scale(0.015625)"/>
      <path id="DejaVuSans-70" d="M 1159 525 
L 1159 -1331 
L 581 -1331 
L 581 3500 
L 1159 3500 
L 1159 2969 
Q 1341 3281 1617 3432 
Q 1894 3584 2278 3584 
Q 2916 3584 3314 3078 
Q 3713 2572 3713 1747 
Q 3713 922 3314 415 
Q 2916 -91 2278 -91 
Q 1894 -91 1617 61 
Q 1341 213 1159 525 
z
M 3116 1747 
Q 3116 2381 2855 2742 
Q 2594 3103 2138 3103 
Q 1681 3103 1420 2742 
Q 1159 2381 1159 1747 
Q 1159 1113 1420 752 
Q 1681 391 2138 391 
Q 2594 391 2855 752 
Q 3116 1113 3116 1747 
z
" transform="scale(0.015625)"/>
      <path id="DejaVuSans-63" d="M 3122 3366 
L 3122 2828 
Q 2878 2963 2633 3030 
Q 2388 3097 2138 3097 
Q 1578 3097 1268 2742 
Q 959 2388 959 1747 
Q 959 1106 1268 751 
Q 1578 397 2138 397 
Q 2388 397 2633 464 
Q 2878 531 3122 666 
L 3122 134 
Q 2881 22 2623 -34 
Q 2366 -91 2075 -91 
Q 1284 -91 818 406 
Q 353 903 353 1747 
Q 353 2603 823 3093 
Q 1294 3584 2113 3584 
Q 2378 3584 2631 3529 
Q 2884 3475 3122 3366 
z
" transform="scale(0.015625)"/>
      <path id="DejaVuSans-50" d="M 1259 4147 
L 1259 2394 
L 2053 2394 
Q 2494 2394 2734 2622 
Q 2975 2850 2975 3272 
Q 2975 3691 2734 3919 
Q 2494 4147 2053 4147 
L 1259 4147 
z
M 628 4666 
L 2053 4666 
Q 2838 4666 3239 4311 
Q 3641 3956 3641 3272 
Q 3641 2581 3239 2228 
Q 2838 1875 2053 1875 
L 1259 1875 
L 1259 0 
L 628 0 
L 628 4666 
z
" transform="scale(0.015625)"/>
      <path id="DejaVuSans-6f" d="M 1959 3097 
Q 1497 3097 1228 2736 
Q 959 2375 959 1747 
Q 959 1119 1226 758 
Q 1494 397 1959 397 
Q 2419 397 2687 759 
Q 2956 1122 2956 1747 
Q 2956 2369 2687 2733 
Q 2419 3097 1959 3097 
z
M 1959 3584 
Q 2709 3584 3137 3096 
Q 3566 2609 3566 1747 
Q 3566 888 3137 398 
Q 2709 -91 1959 -91 
Q 1206 -91 779 398 
Q 353 888 353 1747 
Q 353 2609 779 3096 
Q 1206 3584 1959 3584 
z
" transform="scale(0.015625)"/>
      <path id="DejaVuSans-6a" d="M 603 3500 
L 1178 3500 
L 1178 -63 
Q 1178 -731 923 -1031 
Q 669 -1331 103 -1331 
L -116 -1331 
L -116 -844 
L 38 -844 
Q 366 -844 484 -692 
Q 603 -541 603 -63 
L 603 3500 
z
M 603 4863 
L 1178 4863 
L 1178 4134 
L 603 4134 
L 603 4863 
z
" transform="scale(0.015625)"/>
      <path id="DejaVuSans-74" d="M 1172 4494 
L 1172 3500 
L 2356 3500 
L 2356 3053 
L 1172 3053 
L 1172 1153 
Q 1172 725 1289 603 
Q 1406 481 1766 481 
L 2356 481 
L 2356 0 
L 1766 0 
Q 1100 0 847 248 
Q 594 497 594 1153 
L 594 3053 
L 172 3053 
L 172 3500 
L 594 3500 
L 594 4494 
L 1172 4494 
z
" transform="scale(0.015625)"/>
      <path id="DejaVuSans-69" d="M 603 3500 
L 1178 3500 
L 1178 0 
L 603 0 
L 603 3500 
z
M 603 4863 
L 1178 4863 
L 1178 4134 
L 603 4134 
L 603 4863 
z
" transform="scale(0.015625)"/>
      <path id="DejaVuSans-6e" d="M 3513 2113 
L 3513 0 
L 2938 0 
L 2938 2094 
Q 2938 2591 2744 2837 
Q 2550 3084 2163 3084 
Q 1697 3084 1428 2787 
Q 1159 2491 1159 1978 
L 1159 0 
L 581 0 
L 581 3500 
L 1159 3500 
L 1159 2956 
Q 1366 3272 1645 3428 
Q 1925 3584 2291 3584 
Q 2894 3584 3203 3211 
Q 3513 2838 3513 2113 
z
" transform="scale(0.015625)"/>
      <path id="DejaVuSans-2d" d="M 313 2009 
L 1997 2009 
L 1997 1497 
L 313 1497 
L 313 2009 
z
" transform="scale(0.015625)"/>
      <path id="DejaVuSans-77" d="M 269 3500 
L 844 3500 
L 1563 769 
L 2278 3500 
L 2956 3500 
L 3675 769 
L 4391 3500 
L 4966 3500 
L 4050 0 
L 3372 0 
L 2619 2869 
L 1863 0 
L 1184 0 
L 269 3500 
z
" transform="scale(0.015625)"/>
      <path id="DejaVuSans-68" d="M 3513 2113 
L 3513 0 
L 2938 0 
L 2938 2094 
Q 2938 2591 2744 2837 
Q 2550 3084 2163 3084 
Q 1697 3084 1428 2787 
Q 1159 2491 1159 1978 
L 1159 0 
L 581 0 
L 581 4863 
L 1159 4863 
L 1159 2956 
Q 1366 3272 1645 3428 
Q 1925 3584 2291 3584 
Q 2894 3584 3203 3211 
Q 3513 2838 3513 2113 
z
" transform="scale(0.015625)"/>
      <path id="DejaVuSans-3d" d="M 678 2906 
L 4684 2906 
L 4684 2381 
L 678 2381 
L 678 2906 
z
M 678 1631 
L 4684 1631 
L 4684 1100 
L 678 1100 
L 678 1631 
z
" transform="scale(0.015625)"/>
     </defs>
     <use xlink:href="#DejaVuSans-52"/>
     <use xlink:href="#DejaVuSans-65" x="64.982422"/>
     <use xlink:href="#DejaVuSans-61" x="126.505859"/>
     <use xlink:href="#DejaVuSans-6c" x="187.785156"/>
     <use xlink:href="#DejaVuSans-20" x="215.568359"/>
     <use xlink:href="#DejaVuSans-53" x="247.355469"/>
     <use xlink:href="#DejaVuSans-70" x="310.832031"/>
     <use xlink:href="#DejaVuSans-61" x="374.308594"/>
     <use xlink:href="#DejaVuSans-63" x="435.587891"/>
     <use xlink:href="#DejaVuSans-65" x="490.568359"/>
     <use xlink:href="#DejaVuSans-20" x="552.091797"/>
     <use xlink:href="#DejaVuSans-50" x="583.878906"/>
     <use xlink:href="#DejaVuSans-72" x="642.431641"/>
     <use xlink:href="#DejaVuSans-6f" x="681.294922"/>
     <use xlink:href="#DejaVuSans-6a" x="742.476562"/>
     <use xlink:href="#DejaVuSans-65" x="770.259766"/>
     <use xlink:href="#DejaVuSans-63" x="831.783203"/>
     <use xlink:href="#DejaVuSans-74" x="886.763672"/>
     <use xlink:href="#DejaVuSans-69" x="925.972656"/>
     <use xlink:href="#DejaVuSans-6f" x="953.755859"/>
     <use xlink:href="#DejaVuSans-6e" x="1014.9375"/>
     <use xlink:href="#DejaVuSans-20" x="1078.316406"/>
     <use xlink:href="#DejaVuSans-6f" x="1110.103516"/>
     <use xlink:href="#DejaVuSans-6e" x="1171.285156"/>
     <use xlink:href="#DejaVuSans-74" x="1234.664062"/>
     <use xlink:href="#DejaVuSans-6f" x="1273.873047"/>
     <use xlink:href="#DejaVuSans-20" x="1335.054688"/>
     <use xlink:href="#DejaVuSans-72" x="1366.841797"/>
     <use xlink:href="#DejaVuSans-2d" x="1401.580078"/>
     <use xlink:href="#DejaVuSans-7a" x="1437.664062"/>
     <use xlink:href="#DejaVuSans-20" x="1490.154297"/>
     <use xlink:href="#DejaVuSans-70" x="1521.941406"/>
     <use xlink:href="#DejaVuSans-6c" x="1585.417969"/>
     <use xlink:href="#DejaVuSans-61" x="1613.201172"/>
     <use xlink:href="#DejaVuSans-6e" x="1674.480469"/>
     <use xlink:href="#DejaVuSans-65" x="1737.859375"/>
     <use xlink:href="#DejaVuSans-20" x="1799.382812"/>
     <use xlink:href="#DejaVuSans-77" x="1831.169922"/>
     <use xlink:href="#DejaVuSans-69" x="1912.957031"/>
     <use xlink:href="#DejaVuSans-74" x="1940.740234"/>
     <use xlink:href="#DejaVuSans-68" x="1979.949219"/>
     <use xlink:href="#DejaVuSans-20" x="2043.328125"/>
     <use xlink:href="#DejaVuSans-69" x="2075.115234"/>
     <use xlink:href="#DejaVuSans-6e" x="2102.898438"/>
     <use xlink:href="#DejaVuSans-69" x="2166.277344"/>
     <use xlink:href="#DejaVuSans-74" x="2194.060547"/>
     <use xlink:href="#DejaVuSans-69" x="2233.269531"/>
     <use xlink:href="#DejaVuSans-61" x="2261.052734"/>
     <use xlink:href="#DejaVuSans-6c" x="2322.332031"/>
     <use xlink:href="#DejaVuSans-20" x="2350.115234"/>
     <use xlink:href="#DejaVuSans-72" x="2381.902344"/>
     <use xlink:href="#DejaVuSans-20" x="2423.015625"/>
     <use xlink:href="#DejaVuSans-3d" x="2454.802734"/>
     <use xlink:href="#DejaVuSans-20" x="2538.591797"/>
     <use xlink:href="#DejaVuSans-2d" x="2570.378906"/>
     <use xlink:href="#DejaVuSans-30" x="2606.462891"/>
     <use xlink:href="#DejaVuSans-2e" x="2670.085938"/>
     <use xlink:href="#DejaVuSans-30" x="2701.873047"/>
     <use xlink:href="#DejaVuSans-32" x="2765.496094"/>
    </g>
   </g>
  </g>
 </g>
 <defs>
  <clipPath id="pc51884da6f">
   <rect x="57.6" y="41.472" width="357.12" height="266.112"/>
  </clipPath>
 </defs>
</svg>
