<?xml version="1.0" encoding="utf-8" standalone="no"?>
<!DOCTYPE svg PUBLIC "-//W3C//DTD SVG 1.1//EN"
  "http://www.w3.org/Graphics/SVG/1.1/DTD/svg11.dtd">
<svg xmlns:xlink="http://www.w3.org/1999/xlink" width="460.8pt" height="345.6pt" viewBox="0 0 460.8 345.6" xmlns="http://www.w3.org/2000/svg" version="1.1">
 <metadata>
  <rdf:RDF xmlns:dc="http://purl.org/dc/elements/1.1/" xmlns:cc="http://creativecommons.org/ns#" xmlns:rdf="http://www.w3.org/1999/02/22-rdf-syntax-ns#">
   <cc:Work>
    <dc:type rdf:resource="http://purl.org/dc/dcmitype/StillImage"/>
    <dc:date>2023-10-23T13:51:36.762901</dc:date>
    <dc:format>image/svg+xml</dc:format>
    <dc:creator>
     <cc:Agent>
      <dc:title>Matplotlib v3.8.0, https://matplotlib.org/</dc:title>
     </cc:Agent>
    </dc:creator>
   </cc:Work>
  </rdf:RDF>
 </metadata>
 <defs>
  <style type="text/css">*{stroke-linejoin: round; stroke-linecap: butt}</style>
 </defs>
 <g id="figure_1">
  <g id="patch_1">
   <path d="M 0 345.6 
L 460.8 345.6 
L 460.8 0 
L 0 0 
z
" style="fill: #ffffff"/>
  </g>
  <g id="axes_1">
   <g id="patch_2">
    <path d="M 57.6 307.584 
L 414.72 307.584 
L 414.72 41.472 
L 57.6 41.472 
z
" style="fill: #ffffff"/>
   </g>
   <g id="matplotlib.axis_1">
    <g id="xtick_1">
     <g id="line2d_1">
      <defs>
       <path id="mc2c8dcc769" d="M 0 0 
L 0 3.5 
" style="stroke: #000000; stroke-width: 0.8"/>
      </defs>
      <g>
       <use xlink:href="#mc2c8dcc769" x="93.312" y="307.584" style="stroke: #000000; stroke-width: 0.8"/>
      </g>
     </g>
     <g id="text_1">
      <!-- −0.4 -->
      <g transform="translate(81.170594 322.182437) scale(0.1 -0.1)">
       <defs>
        <path id="DejaVuSans-2212" d="M 678 2272 
L 4684 2272 
L 4684 1741 
L 678 1741 
L 678 2272 
z
" transform="scale(0.015625)"/>
        <path id="DejaVuSans-30" d="M 2034 4250 
Q 1547 4250 1301 3770 
Q 1056 3291 1056 2328 
Q 1056 1369 1301 889 
Q 1547 409 2034 409 
Q 2525 409 2770 889 
Q 3016 1369 3016 2328 
Q 3016 3291 2770 3770 
Q 2525 4250 2034 4250 
z
M 2034 4750 
Q 2819 4750 3233 4129 
Q 3647 3509 3647 2328 
Q 3647 1150 3233 529 
Q 2819 -91 2034 -91 
Q 1250 -91 836 529 
Q 422 1150 422 2328 
Q 422 3509 836 4129 
Q 1250 4750 2034 4750 
z
" transform="scale(0.015625)"/>
        <path id="DejaVuSans-2e" d="M 684 794 
L 1344 794 
L 1344 0 
L 684 0 
L 684 794 
z
" transform="scale(0.015625)"/>
        <path id="DejaVuSans-34" d="M 2419 4116 
L 825 1625 
L 2419 1625 
L 2419 4116 
z
M 2253 4666 
L 3047 4666 
L 3047 1625 
L 3713 1625 
L 3713 1100 
L 3047 1100 
L 3047 0 
L 2419 0 
L 2419 1100 
L 313 1100 
L 313 1709 
L 2253 4666 
z
" transform="scale(0.015625)"/>
       </defs>
       <use xlink:href="#DejaVuSans-2212"/>
       <use xlink:href="#DejaVuSans-30" x="83.789062"/>
       <use xlink:href="#DejaVuSans-2e" x="147.412109"/>
       <use xlink:href="#DejaVuSans-34" x="179.199219"/>
      </g>
     </g>
    </g>
    <g id="xtick_2">
     <g id="line2d_2">
      <g>
       <use xlink:href="#mc2c8dcc769" x="164.736" y="307.584" style="stroke: #000000; stroke-width: 0.8"/>
      </g>
     </g>
     <g id="text_2">
      <!-- −0.2 -->
      <g transform="translate(152.594594 322.182437) scale(0.1 -0.1)">
       <defs>
        <path id="DejaVuSans-32" d="M 1228 531 
L 3431 531 
L 3431 0 
L 469 0 
L 469 531 
Q 828 903 1448 1529 
Q 2069 2156 2228 2338 
Q 2531 2678 2651 2914 
Q 2772 3150 2772 3378 
Q 2772 3750 2511 3984 
Q 2250 4219 1831 4219 
Q 1534 4219 1204 4116 
Q 875 4013 500 3803 
L 500 4441 
Q 881 4594 1212 4672 
Q 1544 4750 1819 4750 
Q 2544 4750 2975 4387 
Q 3406 4025 3406 3419 
Q 3406 3131 3298 2873 
Q 3191 2616 2906 2266 
Q 2828 2175 2409 1742 
Q 1991 1309 1228 531 
z
" transform="scale(0.015625)"/>
       </defs>
       <use xlink:href="#DejaVuSans-2212"/>
       <use xlink:href="#DejaVuSans-30" x="83.789062"/>
       <use xlink:href="#DejaVuSans-2e" x="147.412109"/>
       <use xlink:href="#DejaVuSans-32" x="179.199219"/>
      </g>
     </g>
    </g>
    <g id="xtick_3">
     <g id="line2d_3">
      <g>
       <use xlink:href="#mc2c8dcc769" x="236.16" y="307.584" style="stroke: #000000; stroke-width: 0.8"/>
      </g>
     </g>
     <g id="text_3">
      <!-- 0.0 -->
      <g transform="translate(228.208438 322.182437) scale(0.1 -0.1)">
       <use xlink:href="#DejaVuSans-30"/>
       <use xlink:href="#DejaVuSans-2e" x="63.623047"/>
       <use xlink:href="#DejaVuSans-30" x="95.410156"/>
      </g>
     </g>
    </g>
    <g id="xtick_4">
     <g id="line2d_4">
      <g>
       <use xlink:href="#mc2c8dcc769" x="307.584" y="307.584" style="stroke: #000000; stroke-width: 0.8"/>
      </g>
     </g>
     <g id="text_4">
      <!-- 0.2 -->
      <g transform="translate(299.632437 322.182437) scale(0.1 -0.1)">
       <use xlink:href="#DejaVuSans-30"/>
       <use xlink:href="#DejaVuSans-2e" x="63.623047"/>
       <use xlink:href="#DejaVuSans-32" x="95.410156"/>
      </g>
     </g>
    </g>
    <g id="xtick_5">
     <g id="line2d_5">
      <g>
       <use xlink:href="#mc2c8dcc769" x="379.008" y="307.584" style="stroke: #000000; stroke-width: 0.8"/>
      </g>
     </g>
     <g id="text_5">
      <!-- 0.4 -->
      <g transform="translate(371.056437 322.182437) scale(0.1 -0.1)">
       <use xlink:href="#DejaVuSans-30"/>
       <use xlink:href="#DejaVuSans-2e" x="63.623047"/>
       <use xlink:href="#DejaVuSans-34" x="95.410156"/>
      </g>
     </g>
    </g>
    <g id="text_6">
     <!-- r -->
     <g transform="translate(234.104531 335.860562) scale(0.1 -0.1)">
      <defs>
       <path id="DejaVuSans-72" d="M 2631 2963 
Q 2534 3019 2420 3045 
Q 2306 3072 2169 3072 
Q 1681 3072 1420 2755 
Q 1159 2438 1159 1844 
L 1159 0 
L 581 0 
L 581 3500 
L 1159 3500 
L 1159 2956 
Q 1341 3275 1631 3429 
Q 1922 3584 2338 3584 
Q 2397 3584 2469 3576 
Q 2541 3569 2628 3553 
L 2631 2963 
z
" transform="scale(0.015625)"/>
      </defs>
      <use xlink:href="#DejaVuSans-72"/>
     </g>
    </g>
   </g>
   <g id="matplotlib.axis_2">
    <g id="ytick_1">
     <g id="line2d_6">
      <defs>
       <path id="m3f9bd5e228" d="M 0 0 
L -3.5 0 
" style="stroke: #000000; stroke-width: 0.8"/>
      </defs>
      <g>
       <use xlink:href="#m3f9bd5e228" x="57.6" y="280.9728" style="stroke: #000000; stroke-width: 0.8"/>
      </g>
     </g>
     <g id="text_7">
      <!-- −0.4 -->
      <g transform="translate(26.317187 284.772019) scale(0.1 -0.1)">
       <use xlink:href="#DejaVuSans-2212"/>
       <use xlink:href="#DejaVuSans-30" x="83.789062"/>
       <use xlink:href="#DejaVuSans-2e" x="147.412109"/>
       <use xlink:href="#DejaVuSans-34" x="179.199219"/>
      </g>
     </g>
    </g>
    <g id="ytick_2">
     <g id="line2d_7">
      <g>
       <use xlink:href="#m3f9bd5e228" x="57.6" y="227.7504" style="stroke: #000000; stroke-width: 0.8"/>
      </g>
     </g>
     <g id="text_8">
      <!-- −0.2 -->
      <g transform="translate(26.317187 231.549619) scale(0.1 -0.1)">
       <use xlink:href="#DejaVuSans-2212"/>
       <use xlink:href="#DejaVuSans-30" x="83.789062"/>
       <use xlink:href="#DejaVuSans-2e" x="147.412109"/>
       <use xlink:href="#DejaVuSans-32" x="179.199219"/>
      </g>
     </g>
    </g>
    <g id="ytick_3">
     <g id="line2d_8">
      <g>
       <use xlink:href="#m3f9bd5e228" x="57.6" y="174.528" style="stroke: #000000; stroke-width: 0.8"/>
      </g>
     </g>
     <g id="text_9">
      <!-- 0.0 -->
      <g transform="translate(34.696875 178.327219) scale(0.1 -0.1)">
       <use xlink:href="#DejaVuSans-30"/>
       <use xlink:href="#DejaVuSans-2e" x="63.623047"/>
       <use xlink:href="#DejaVuSans-30" x="95.410156"/>
      </g>
     </g>
    </g>
    <g id="ytick_4">
     <g id="line2d_9">
      <g>
       <use xlink:href="#m3f9bd5e228" x="57.6" y="121.3056" style="stroke: #000000; stroke-width: 0.8"/>
      </g>
     </g>
     <g id="text_10">
      <!-- 0.2 -->
      <g transform="translate(34.696875 125.104819) scale(0.1 -0.1)">
       <use xlink:href="#DejaVuSans-30"/>
       <use xlink:href="#DejaVuSans-2e" x="63.623047"/>
       <use xlink:href="#DejaVuSans-32" x="95.410156"/>
      </g>
     </g>
    </g>
    <g id="ytick_5">
     <g id="line2d_10">
      <g>
       <use xlink:href="#m3f9bd5e228" x="57.6" y="68.0832" style="stroke: #000000; stroke-width: 0.8"/>
      </g>
     </g>
     <g id="text_11">
      <!-- 0.4 -->
      <g transform="translate(34.696875 71.882419) scale(0.1 -0.1)">
       <use xlink:href="#DejaVuSans-30"/>
       <use xlink:href="#DejaVuSans-2e" x="63.623047"/>
       <use xlink:href="#DejaVuSans-34" x="95.410156"/>
      </g>
     </g>
    </g>
    <g id="text_12">
     <!-- z -->
     <g transform="translate(20.2375 177.152219) rotate(-90) scale(0.1 -0.1)">
      <defs>
       <path id="DejaVuSans-7a" d="M 353 3500 
L 3084 3500 
L 3084 2975 
L 922 459 
L 3084 459 
L 3084 0 
L 275 0 
L 275 525 
L 2438 3041 
L 353 3041 
L 353 3500 
z
" transform="scale(0.015625)"/>
      </defs>
      <use xlink:href="#DejaVuSans-7a"/>
     </g>
    </g>
   </g>
   <g id="line2d_11">
    <path d="M 236.16 254.3616 
L 236.846538 254.516266 
L 243.028468 255.584139 
L 263.640796 254.830401 
L 283.16661 247.810232 
L 304.640915 232.5571 
L 324.190017 209.997643 
L 337.190374 184.494716 
L 340.561662 164.640713 
L 336.600421 147.679269 
L 323.205961 132.063162 
L 297.62472 119.369208 
L 261.877223 111.556909 
L 230.207838 109.197308 
L 199.225617 110.249006 
L 171.952219 114.848345 
L 148.655288 124.690046 
L 135.514088 140.617732 
L 134.075811 156.948346 
L 139.936176 175.603006 
L 153.246347 197.304444 
L 172.715428 219.055028 
L 197.7296 238.450167 
L 226.402304 250.956327 
L 250.451987 253.36081 
L 273.943568 248.33676 
L 297.193323 235.965336 
L 319.872851 215.863744 
L 337.174918 191.564995 
L 344.481765 171.387475 
L 343.55477 153.274795 
L 334.104969 138.954302 
L 312.797319 126.643641 
L 279.900011 118.652204 
L 245.519186 115.751418 
L 214.062342 116.277471 
L 185.533088 119.568532 
L 157.311991 127.17162 
L 136.415146 140.298709 
L 127.520215 158.74249 
L 129.486233 177.01042 
L 138.35944 196.169951 
L 154.418671 217.038126 
L 176.90461 236.373663 
L 204.126249 249.752894 
L 229.241805 253.323996 
L 254.455171 248.668842 
L 278.875027 236.529893 
L 303.950098 216.13819 
L 324.925491 190.857533 
L 335.936727 169.790135 
L 339.339835 150.611742 
L 333.737891 134.446693 
L 318.015824 121.969731 
L 290.481003 113.450448 
L 254.663615 110.044216 
L 224.887608 110.846882 
L 196.511641 114.492657 
L 167.757629 122.388638 
L 144.490439 135.969121 
L 132.351305 155.350706 
L 131.577327 173.047239 
L 137.305199 192.160082 
L 149.758274 213.349916 
L 168.817229 234.079139 
L 192.930931 249.739362 
L 220.034217 255.865317 
L 245.118357 251.372731 
L 268.14533 239.151015 
L 292.377717 218.192318 
L 313.615978 191.544295 
L 325.743313 168.726415 
L 330.79385 147.63481 
L 327.024199 129.125764 
L 314.105214 115.435377 
L 289.967931 105.395615 
L 256.732375 100.597979 
L 228.551652 100.717664 
L 201.84302 103.969068 
L 175.176322 111.495175 
L 153.122388 125.009185 
L 141.439636 144.988395 
L 140.831758 163.359952 
L 146.434499 183.227637 
L 158.117741 205.202355 
L 176.115337 227.860114 
L 198.949058 246.615564 
L 224.747184 256.727545 
L 245.344019 256.501911 
L 264.306824 249.813341 
L 286.072601 234.54009 
L 307.255158 211.118741 
L 323.335867 183.857287 
L 330.185902 161.432144 
L 329.482825 141.900089 
L 321.092283 126.077137 
L 301.926415 112.203325 
L 271.876033 102.860032 
L 240.693804 99.358429 
L 209.033386 100.175363 
L 183.097703 104.703661 
L 159.775024 114.588383 
L 145.251454 131.01469 
L 142.449034 148.797693 
L 147.424294 169.370515 
L 159.421915 192.363358 
L 176.849601 215.23517 
L 199.688891 236.642391 
L 225.999347 251.712873 
L 249.550323 256.340676 
L 272.565733 252.305785 
L 293.516531 240.942199 
L 314.439391 221.353809 
L 331.099205 196.356929 
L 338.784022 173.984423 
L 338.145505 153.447893 
L 329.187909 137.396698 
L 308.761662 123.076792 
L 276.727115 113.043616 
L 242.894667 108.667794 
L 213.08697 108.251209 
L 185.900944 110.896281 
L 159.934534 117.969427 
L 141.318054 130.950341 
L 134.68182 149.630884 
L 139.053383 170.291923 
L 150.770084 191.629137 
L 168.554707 213.33256 
L 192.325445 233.905126 
L 220.17651 248.742803 
L 245.948386 253.670775 
L 271.293113 249.907675 
L 294.034753 239.006828 
L 316.845902 220.154287 
L 335.16262 196.217405 
L 343.935312 175.05212 
L 344.525411 157.638257 
L 337.35634 142.885359 
L 319.052834 129.630652 
L 288.56159 120.265493 
L 250.383757 115.878431 
L 219.89915 115.754256 
L 192.341336 118.146746 
L 163.532702 124.441418 
L 140.472404 136.048482 
L 128.661159 153.249959 
L 128.238736 169.815587 
L 134.492974 187.65127 
L 147.680614 207.866006 
L 167.903027 228.402201 
L 193.558359 244.886346 
L 222.725883 252.908251 
L 247.036519 251.172245 
L 270.070467 242.624517 
L 295.276362 225.659973 
L 318.49077 201.936315 
L 334.47631 176.734234 
L 340.274731 155.324285 
L 336.33386 138.271139 
L 322.725542 125.284584 
L 297.183662 115.833312 
L 262.20532 111.358534 
L 231.76683 111.388436 
L 203.02008 114.236942 
L 173.817006 120.849922 
L 148.503774 132.829078 
L 133.292631 150.723777 
L 130.302888 169.173062 
L 135.321358 189.614756 
L 146.892747 210.463511 
L 165.251895 231.384636 
L 188.943291 247.888099 
L 216.048007 255.434856 
L 239.085558 252.975332 
L 261.337986 243.278514 
L 285.769703 224.74482 
L 308.59437 199.23972 
L 323.492624 175.066915 
L 330.981641 152.210599 
L 329.243699 132.857712 
L 318.861284 118.895174 
L 297.391349 107.938773 
L 265.770307 101.936361 
L 236.371416 101.154705 
L 207.057456 103.94293 
L 180.043796 110.536541 
L 156.338718 122.826852 
L 142.063665 141.649123 
L 139.593522 160.702561 
L 144.580416 181.932066 
L 155.898088 204.258044 
L 173.40821 226.89117 
L 195.912038 245.873109 
L 221.576465 256.459561 
L 241.972308 256.709108 
L 261.059764 250.463244 
L 282.885778 235.771411 
L 304.49279 212.741837 
L 321.414474 185.456921 
L 329.107365 163.144286 
L 329.617666 143.763295 
L 322.77306 127.71342 
L 305.700234 113.435462 
L 277.502534 103.380458 
L 245.941707 99.109156 
L 217.921031 99.1292 
L 192.916054 102.272082 
L 167.903695 110.19027 
L 149.55786 124.400698 
L 142.839202 142.416318 
L 145.714441 164.181511 
L 155.43768 186.01254 
L 170.474808 208.173899 
L 191.602405 230.61793 
L 216.806765 248.210788 
L 243.991018 256.360759 
L 265.688406 254.360466 
L 285.821052 245.462439 
L 307.087802 228.141986 
L 325.573244 204.11348 
L 336.69771 178.345697 
L 338.297471 158.422527 
L 332.012959 141.263034 
L 315.340065 125.980825 
L 286.662706 114.415185 
L 249.551268 108.099802 
L 219.538202 106.971211 
L 192.393375 108.886249 
L 165.91033 114.850924 
L 145.315444 126.532065 
L 136.018261 144.260138 
L 137.65446 162.362128 
L 146.148765 181.880548 
L 161.229882 203.433277 
L 182.600217 225.210988 
L 208.820721 243.280574 
L 237.885555 253.098637 
L 260.584983 252.991149 
L 281.046652 246.816028 
L 304.003578 232.692246 
L 325.357085 211.291218 
L 340.236751 186.785935 
L 345.010072 167.86589 
L 342.133571 151.06742 
L 330.122781 136.580117 
L 305.823895 124.716849 
L 270.740219 117.458079 
L 237.139906 115.235024 
L 203.536959 116.432766 
L 174.53859 120.865255 
L 148.562509 130.118689 
L 132.033206 145.093906 
L 127.895692 162.10415 
L 132.675279 181.764291 
L 144.459241 201.99792 
L 163.234857 222.92444 
L 187.846218 240.964021 
L 216.50375 251.680122 
L 239.372445 252.642844 
L 262.01426 247.047915 
L 286.687098 233.654548 
L 311.179292 212.379457 
L 330.449051 187.216246 
L 339.304357 167.478963 
L 340.805868 149.73302 
L 333.932302 134.970411 
L 316.358556 122.852578 
L 286.986505 114.872485 
L 250.221336 111.977952 
L 219.421073 113.12791 
L 191.344804 117.030317 
L 162.668031 125.414208 
L 140.538481 139.495021 
L 130.107288 159.086156 
L 130.698678 177.475458 
L 137.590853 196.191462 
L 151.555998 217.371893 
L 171.971949 237.256025 
L 197.215681 251.250219 
L 221.059379 255.281441 
L 245.270852 250.735154 
L 268.69163 238.51928 
L 293.334081 217.623757 
L 314.854551 191.174602 
L 327.058138 168.705035 
L 332.147495 147.98265 
L 328.367743 129.799826 
L 315.354369 116.405287 
L 291.020298 106.671813 
L 257.553726 102.149985 
L 228.841766 102.439084 
L 201.504255 105.873481 
L 174.395284 113.554995 
L 151.920852 127.184807 
L 139.885849 147.190875 
L 139.060232 165.524011 
L 144.585279 185.505118 
L 156.091519 207.109965 
L 174.079307 229.440953 
L 196.948702 247.600012 
L 222.813007 256.885674 
L 243.883274 255.887262 
L 263.666 248.088877 
L 285.930935 231.516727 
L 307.262904 207.091862 
L 323.002044 179.631003 
L 329.660722 155.008825 
L 327.05136 135.056753 
L 315.751697 119.648368 
L 293.347008 107.320305 
L 261.061542 100.039519 
L 232.0084 98.379882 
L 203.471928 100.388753 
L 177.580031 106.3869 
L 155.870048 118.187257 
L 144.134418 136.576709 
L 143.432058 154.058634 
L 149.062304 173.542238 
L 161.79213 196.95574 
L 180.000229 220.077218 
L 203.212291 240.700167 
L 229.533714 254.010195 
L 251.460364 256.704928 
L 272.845102 251.641551 
L 293.847545 238.994841 
L 314.456453 218.165005 
L 330.339706 192.464869 
L 337.051057 170.511429 
L 335.847041 150.508893 
L 326.314453 134.284653 
L 305.306234 120.058788 
L 273.000341 110.292713 
L 240.006187 106.287168 
L 210.591194 106.170712 
L 184.26923 109.169236 
L 159.10129 116.876214 
L 141.836343 130.679252 
L 136.668612 147.555252 
L 140.760143 167.816032 
L 152.112559 189.267929 
L 169.266826 211.028318 
L 192.495714 232.182989 
L 219.836216 248.004225 
L 245.867876 254.05334 
L 271.478923 250.961322 
L 293.589282 240.759063 
L 316.000879 222.529473 
L 334.323423 198.787541 
L 343.955034 174.79007 
L 343.284203 155.113209 
L 333.938193 140.268029 
L 312.771742 127.300784 
L 279.890124 118.588124 
L 245.179204 115.094673 
L 214.343204 115.162632 
L 186.760036 117.895406 
L 158.845372 124.814422 
L 137.84696 137.245517 
L 128.67848 155.16504 
L 130.474468 173.171024 
L 139.237716 192.236387 
L 155.035084 213.077848 
L 177.398106 233.057297 
L 204.604939 247.769001 
L 231.052825 252.955898 
L 257.580954 249.223673 
L 281.636419 238.197406 
L 306.457721 218.971776 
L 327.428545 194.448674 
L 338.73305 173.07673 
L 341.924628 153.541386 
L 335.904633 137.655531 
L 319.499104 125.123677 
L 291.11789 116.530745 
L 254.57369 112.96734 
L 224.47242 113.53785 
L 195.922688 116.819412 
L 166.707651 124.196926 
L 142.953046 137.065799 
L 130.313101 155.602026 
L 129.240145 173.042349 
L 135.007039 192.007611 
L 147.609001 212.820196 
L 166.969024 233.244254 
L 191.549648 248.774005 
L 219.308472 254.975784 
L 245.144911 250.619445 
L 268.746425 238.600455 
L 293.574126 217.938918 
L 315.316224 191.67616 
L 327.73103 169.238016 
L 332.947561 148.539004 
L 329.215282 130.464129 
L 316.21268 117.177236 
L 291.829674 107.537295 
L 258.257852 103.083671 
L 229.244862 103.402747 
L 201.585462 106.865397 
L 174.22125 114.533624 
L 151.43587 128.106345 
L 139.079482 148.010902 
L 138.063554 166.450862 
L 143.561902 186.548269 
L 155.15494 208.197155 
L 173.217112 230.329533 
L 196.174463 248.125132 
L 222.125339 256.912173 
L 243.487615 255.447203 
L 263.720243 247.009683 
L 286.259446 229.726878 
L 307.635039 204.807224 
L 323.117807 177.331169 
L 329.412542 153.105677 
L 326.411665 133.236081 
L 314.579313 118.087996 
L 291.637442 106.21042 
L 259.073879 99.465014 
L 230.599977 98.221071 
L 202.768387 100.500235 
L 176.891438 106.849563 
L 155.410035 119.080564 
L 144.051648 137.895374 
L 143.651064 155.812193 
L 149.429089 175.207215 
L 162.247179 198.627214 
L 180.600137 221.769828 
L 203.843674 242.072403 
L 230.09321 254.734465 
L 251.38148 256.80539 
L 272.150746 251.463488 
L 293.173729 238.406139 
L 313.736056 217.162666 
L 329.485983 191.19589 
L 336.034288 169.345833 
L 334.847212 149.463278 
L 325.42309 133.200235 
L 304.610287 118.939176 
L 272.563141 109.157354 
L 239.85384 105.173938 
L 210.546202 105.109433 
L 184.480181 108.19045 
L 159.540124 116.051892 
L 142.556303 130.070678 
L 137.634585 147.042598 
L 141.824088 167.365283 
L 153.24288 189.013617 
L 170.346176 210.878151 
L 193.481512 232.181443 
L 220.667273 248.148333 
L 246.528887 254.309944 
L 271.952331 251.290917 
L 293.814817 241.157328 
L 315.984914 222.975272 
L 334.119168 199.207197 
L 343.634651 175.082575 
L 342.876083 155.223627 
L 333.431482 140.202386 
L 312.158315 127.060038 
L 279.185426 118.18204 
L 244.49213 114.57358 
L 213.816094 114.561883 
L 186.462246 117.225286 
L 158.789915 124.088771 
L 138.074883 136.49845 
L 129.209522 154.426775 
L 131.270143 172.56626 
L 140.369258 191.854389 
L 156.412275 212.759796 
L 178.980061 232.823847 
L 206.328098 247.629256 
L 232.876571 252.907019 
L 259.441859 249.245335 
L 283.384357 238.323055 
L 308.01703 219.245742 
L 328.723233 194.885353 
L 339.776821 173.567514 
L 342.614721 154.093192 
L 336.276917 138.414819 
L 319.408825 125.884851 
L 290.538565 117.317742 
L 253.675768 113.762173 
L 223.403499 114.308855 
L 195.009442 117.512495 
L 165.755507 124.812239 
L 142.108523 137.569019 
L 129.656314 155.940318 
L 128.713267 173.158094 
L 134.546389 191.8885 
L 147.273608 212.60048 
L 166.798188 232.945163 
L 191.577617 248.443449 
L 219.574235 254.674945 
L 245.659584 250.368209 
L 269.427394 238.427067 
L 294.404311 217.883938 
L 316.23512 191.778979 
L 328.666661 169.481134 
L 333.836318 148.930757 
L 330.009894 131.053221 
L 316.840094 117.892086 
L 292.2208 108.396108 
L 258.432348 104.072059 
L 229.174335 104.459611 
L 201.247598 107.975169 
L 173.637443 115.680786 
L 150.648911 129.258244 
L 138.14546 149.104735 
L 137.051636 167.554318 
L 142.550176 187.639692 
L 154.25537 209.291529 
L 172.428395 231.205709 
L 195.510226 248.617229 
L 221.577807 256.886451 
L 243.249123 254.938955 
L 263.929415 245.860358 
L 286.747417 227.889007 
L 308.154724 202.527668 
L 323.363631 175.098119 
L 329.286166 151.319311 
L 325.913926 131.637841 
L 313.593821 116.769367 
L 290.161533 105.332039 
L 257.351884 99.096354 
L 229.423103 98.227334 
L 202.230135 100.739706 
L 176.337297 107.40002 
L 154.997891 120.00367 
L 143.894164 139.179331 
L 143.698129 157.425566 
L 149.560278 176.767299 
L 162.362188 200.098108 
L 180.782542 223.223401 
L 204.014746 243.224461 
L 230.179678 255.312456 
L 250.895891 256.870149 
L 271.123861 251.326742 
L 292.183316 237.935463 
L 312.756715 216.344954 
L 328.47894 190.138149 
L 334.982133 168.362535 
L 333.921102 148.55945 
L 324.757882 132.289482 
L 304.325412 117.973135 
L 272.687888 108.128864 
L 240.199462 104.11187 
L 211.052526 104.06176 
L 185.156669 107.182901 
L 160.349545 115.122231 
L 143.44952 129.265196 
L 138.569452 146.343238 
L 142.742616 166.779764 
L 154.103023 188.562882 
L 171.040275 210.502031 
L 193.995341 231.983126 
L 220.968465 248.177106 
L 246.71118 254.563543 
L 269.515936 252.383499 
L 290.740993 243.427517 
L 312.868581 226.326765 
L 331.683287 203.015039 
L 342.490376 178.481522 
L 343.519133 160.125913 
L 336.772159 144.460734 
L 319.158169 130.267897 
L 289.254327 119.79623 
L 251.144609 114.36361 
L 220.507132 113.598698 
L 192.558613 115.56151 
L 164.51244 121.31553 
L 142.001391 132.424427 
L 130.626318 149.296365 
L 130.5794 165.942441 
L 137.062477 183.513198 
L 149.995182 203.269752 
L 170.147764 224.304106 
L 195.8 242.030059 
L 225.058579 251.982817 
L 248.413149 252.167631 
L 270.013962 246.179575 
L 294.44948 232.228649 
L 317.984509 210.751149 
L 335.52941 185.98281 
L 342.606858 167.043036 
L 342.322356 150.152933 
L 334.140317 136.480157 
L 314.4845 124.576103 
L 283.141235 116.940556 
L 249.469473 114.370554 
L 218.420508 115.226885 
L 190.00987 118.788518 
L 161.134777 126.680976 
L 138.916507 140.12039 
L 128.43266 158.979607 
L 129.02528 176.924506 
L 136.036317 195.300972 
L 150.237181 216.171394 
L 171.031137 235.920753 
L 196.795186 250.043367 
L 221.510872 254.395114 
L 246.601982 250.064127 
L 270.494627 238.164356 
L 295.5857 217.699083 
L 317.423701 191.747421 
L 329.769429 169.631777 
L 334.791131 149.279639 
L 330.782197 131.64573 
L 317.332685 118.61389 
L 292.359653 109.282713 
L 258.285833 105.113267 
L 228.81934 105.581906 
L 200.67104 109.151836 
L 172.820835 116.908973 
L 149.68984 130.507659 
L 137.134644 150.30107 
L 136.025409 168.700287 
L 141.54264 188.700165 
L 153.371273 210.31685 
L 171.676935 232.002685 
L 194.908756 249.033066 
L 221.118063 256.801749 
L 243.102709 254.391371 
L 264.211661 244.714744 
L 287.306895 226.122792 
L 308.746928 200.399482 
L 323.699444 173.069835 
L 329.281509 149.756441 
L 325.593692 130.332012 
L 312.866539 115.745404 
L 289.023766 104.715968 
L 256.012967 98.939278 
L 228.559558 98.390023 
L 201.901114 101.092399 
L 175.952823 108.009428 
L 154.652233 120.911362 
L 143.659713 140.371109 
L 143.554268 158.828807 
L 149.44258 178.178963 
L 162.136135 201.347184 
L 180.553263 224.427356 
L 203.736964 244.157423 
L 229.810967 255.758409 
L 250.036118 256.909586 
L 269.808905 251.228485 
L 290.922783 237.574648 
L 311.562459 215.698197 
L 327.353857 189.275524 
L 333.915128 167.546519 
L 333.071265 147.786689 
L 324.298243 131.546295 
L 304.404932 117.161274 
L 273.309603 107.21572 
L 240.985247 103.115487 
L 212.043244 103.045924 
L 186.250102 106.166674 
L 161.486501 114.110895 
L 144.485473 128.289934 
L 139.456522 145.48602 
L 143.508574 166.087777 
L 154.695849 187.944194 
L 171.361816 209.924414 
L 194.058672 231.604656 
L 220.76891 248.094671 
L 249.245036 254.972513 
L 274.443715 251.248258 
L 296.066895 240.304265 
L 317.610461 221.335793 
L 334.715966 197.104402 
L 342.592483 175.379221 
L 341.870943 155.515818 
L 332.651917 140.160975 
L 311.698733 126.558038 
L 278.995385 117.189066 
L 244.357018 113.207911 
L 214.266352 112.948007 
L 186.637398 115.478753 
L 159.402049 122.193607 
L 139.092655 134.523792 
L 130.618062 152.464331 
L 133.760948 172.949883 
L 144.302422 193.163004 
L 161.535633 214.367329 
L 185.011133 234.307945 
L 212.931292 248.532988 
L 238.955269 252.983148 
L 264.771434 248.890309 
L 288.55253 237.562303 
L 312.604093 218.224058 
L 332.21494 193.964805 
L 342.010845 173.065342 
L 343.514526 154.097068 
L 336.192298 139.161603 
L 317.884365 126.717714 
L 287.613104 118.345552 
L 250.001901 114.964713 
L 218.843641 115.629041 
L 190.552438 118.948893 
L 161.583519 126.506374 
L 139.08489 139.547682 
L 128.224414 158.03494 
L 128.528359 175.646575 
L 135.201535 193.654692 
L 149.071012 214.373342 
L 169.656662 234.30798 
L 195.347119 248.986028 
L 220.698635 254.09379 
L 246.490487 250.203001 
L 270.383342 238.809559 
L 295.588433 218.862703 
L 317.718328 193.224678 
L 330.485214 170.958944 
L 335.757856 150.417848 
L 331.860499 132.82466 
L 318.497946 119.822276 
L 293.540581 110.476956 
L 259.372509 106.254136 
L 229.59862 106.654187 
L 201.162145 110.133754 
L 173.025661 117.717031 
L 149.44732 131.059799 
L 136.359838 150.55381 
L 134.905795 169.054581 
L 140.352734 189.218548 
L 152.158048 210.731059 
L 170.480447 232.239335 
L 193.789468 249.066273 
L 220.129995 256.623907 
L 242.339577 254.034121 
L 263.73113 244.130617 
L 287.086196 225.311334 
L 308.717118 199.470949 
L 323.751535 172.219398 
L 329.37088 149.139787 
L 325.717759 129.837782 
L 313.022521 115.449979 
L 289.212739 104.634434 
L 256.241332 99.069505 
L 228.835062 98.661501 
L 202.198756 101.475418 
L 176.128826 108.507098 
L 154.639002 121.523273 
L 143.421532 141.096107 
L 143.136125 159.502237 
L 148.922151 179.050313 
L 161.386956 202.071324 
L 179.667371 225.102138 
L 202.722373 244.674396 
L 228.682645 256.014507 
L 248.643737 256.955887 
L 268.172107 251.200656 
L 289.354155 237.384459 
L 310.120517 215.305993 
L 326.095568 188.696957 
L 332.838893 166.958965 
L 332.309407 147.179654 
L 324.059978 131.012376 
L 304.874454 116.542625 
L 274.466321 106.449372 
L 242.250956 102.205721 
L 213.570153 102.074987 
L 187.828582 105.141404 
L 163.010622 112.997865 
L 145.695281 127.1002 
L 140.288997 144.420237 
L 144.091449 165.241147 
L 154.968887 187.089502 
L 171.230594 209.056101 
L 193.573861 230.960907 
L 219.962127 247.839475 
L 248.198292 255.214201 
L 270.824423 252.638128 
L 291.823963 243.140727 
L 313.474743 225.451334 
L 331.590132 201.691452 
L 341.577936 176.949998 
L 341.946909 158.464897 
L 334.730583 142.930695 
L 316.430161 128.536827 
L 285.965573 117.986108 
L 247.712485 112.578994 
L 217.12485 111.912651 
L 189.172433 114.133367 
L 161.894961 120.387717 
L 140.985469 132.214325 
L 131.649748 149.797215 
L 133.321054 167.684735 
L 141.952146 186.833853 
L 157.080009 207.514391 
L 178.968092 228.420629 
L 205.791111 244.998002 
L 235.493061 252.839795 
L 259.731639 250.923609 
L 282.391402 242.272217 
L 306.544021 225.450134 
L 327.846425 202.313733 
L 341.272363 177.990724 
L 344.291117 157.43416 
L 337.883089 141.67669 
L 320.839954 128.756224 
L 291.634866 119.688408 
L 254.278964 115.573223 
L 224.135596 115.63793 
L 196.163032 118.208101 
L 166.767726 124.62509 
L 142.50162 136.302415 
L 129.134717 153.594219 
L 127.582485 170.659562 
L 133.354471 189.507967 
L 145.991656 209.882822 
L 165.592413 230.29281 
L 190.635591 246.380541 
L 219.185954 253.718612 
L 243.4044 251.240735 
L 266.680337 241.649734 
L 291.965228 223.461829 
L 315.13025 198.708795 
L 329.738391 175.613907 
L 336.557083 153.962469 
L 333.935556 135.97971 
L 322.176775 122.72459 
L 298.818254 112.732035 
L 265.475368 107.700682 
L 235.753664 107.450369 
L 206.485296 110.308685 
L 178.023811 116.852608 
L 152.766444 128.854141 
L 137.050629 147.036998 
L 133.572064 166.077556 
L 138.25006 187.275147 
L 149.215708 208.415706 
L 166.858576 229.994794 
L 189.751811 247.446777 
L 216.032437 256.136559 
L 237.9552 254.687204 
L 258.856554 246.270902 
L 282.32187 229.012673 
L 304.887997 204.09741 
L 321.668336 176.690575 
L 329.221971 152.63673 
L 327.388422 132.758302 
L 317.008339 118.207641 
L 295.666494 106.634993 
L 264.263548 100.036338 
L 235.022777 98.862941 
L 205.997051 101.400193 
L 179.655571 107.845798 
L 156.967871 120.075047 
L 143.88055 138.923552 
L 142.239023 157.441094 
L 147.516449 178.103017 
L 159.430085 201.159781 
L 177.172616 224.193349 
L 199.831408 244.004431 
L 225.566177 255.809548 
L 245.858395 257.124433 
L 265.790476 251.454975 
L 287.022134 237.77501 
L 308.020836 215.739116 
L 324.443177 189.01222 
L 331.687311 167.033248 
L 331.689807 146.989567 
L 324.230828 130.961892 
L 306.102053 116.344915 
L 276.687935 105.975233 
L 244.494192 101.434832 
L 216.233644 101.136361 
L 190.508266 104.006884 
L 165.459944 111.549023 
L 147.389884 125.299545 
L 141.097626 142.715163 
L 144.348983 163.837132 
L 154.610311 185.480065 
L 170.119989 207.253072 
L 191.869381 229.460707 
L 217.788973 247.011795 
L 245.759512 255.338281 
L 267.921424 253.617932 
L 288.361053 245.17881 
L 309.978215 228.493017 
L 328.741884 205.17964 
L 340.002461 180.066625 
L 341.583008 160.847601 
L 335.370455 144.365949 
L 318.634769 129.477875 
L 289.64871 118.190294 
L 252.030111 112.003601 
L 221.557864 110.816257 
L 193.680365 112.518197 
L 166.284542 117.997743 
L 144.190949 128.912744 
L 133.102024 145.762878 
L 133.276671 162.579734 
L 139.932223 180.309056 
L 153.671663 201.243355 
L 174.008968 222.688956 
L 199.711978 241.051916 
L 228.870269 251.832823 
L 251.509091 252.765834 
L 273.6137 247.254297 
L 297.329597 234.116632 
L 320.21633 213.384361 
L 337.330159 188.937443 
L 344.230135 169.379581 
L 343.220124 151.915403 
L 333.76456 137.840757 
L 312.469166 125.84366 
L 279.666056 118.205643 
L 245.596061 115.611215 
L 210.570121 116.659851 
L 181.326056 120.746648 
L 153.642476 129.408465 
L 134.244797 143.694652 
L 127.18437 163.004657 
L 131.210852 183.786629 
L 142.138676 203.747924 
L 160.186064 224.553046 
L 184.12952 242.297454 
L 212.204813 252.511969 
L 235.040068 252.951134 
L 256.899102 246.973418 
L 281.695995 232.889032 
L 306.465773 210.813387 
L 326.15268 184.969933 
L 335.568652 164.541564 
L 337.650266 146.952228 
L 331.503787 131.624179 
L 315.121108 119.390785 
L 287.085953 111.261762 
L 251.285293 108.32522 
L 221.422276 109.559987 
L 194.213133 113.562809 
L 166.016097 122.146495 
L 143.909705 136.60315 
L 133.255781 156.822632 
L 133.620244 175.574468 
L 140.102095 194.541154 
L 153.435474 216.121876 
L 173.122177 236.660297 
L 197.543026 251.469158 
L 221.056999 256.253116 
L 244.959389 252.073346 
L 267.504559 240.216254 
L 291.380648 219.546715 
L 312.499956 192.915422 
L 324.807754 169.636269 
L 329.973261 148.031311 
L 326.276804 129.20228 
L 313.498539 115.226804 
L 289.565173 104.865764 
L 256.508271 99.752994 
L 228.678884 99.660802 
L 202.196953 102.72056 
L 175.823889 110.035297 
L 154.012334 123.339887 
L 142.497346 143.163338 
L 141.993823 161.545503 
L 147.650662 181.327784 
L 159.681447 203.855139 
L 177.777277 226.701357 
L 200.670294 245.826207 
L 226.494211 256.474144 
L 246.79731 256.756008 
L 265.733839 250.563212 
L 287.195883 236.000442 
L 308.185956 213.203972 
L 324.262958 186.197692 
L 331.070757 164.374842 
L 330.763792 145.106876 
L 323.072783 129.176455 
L 304.696141 114.790166 
L 275.168493 104.740565 
L 243.338714 100.533899 
L 214.90037 100.511676 
L 189.574244 103.677015 
L 164.819651 111.680583 
L 147.343429 125.985818 
L 141.682485 143.615589 
L 145.261241 164.796953 
L 155.808498 186.779044 
L 171.667652 208.897083 
L 193.568817 231.042363 
L 219.476854 248.173831 
L 247.22736 255.772665 
L 269.429213 253.339529 
L 290.037544 243.969446 
L 311.423612 226.312482 
L 329.506799 202.373054 
L 339.715425 177.214143 
L 340.410127 158.450658 
L 333.521212 142.325145 
L 315.803837 127.509368 
L 285.970675 116.489879 
L 248.10479 110.673896 
L 217.634685 109.803425 
L 189.909649 111.921639 
L 163.06711 118.105866 
L 142.516939 129.947928 
L 133.495233 147.655399 
L 135.41313 165.780586 
L 144.321011 185.292516 
L 159.349109 205.955773 
L 181.157059 227.215817 
L 207.836937 244.368579 
L 237.342934 252.948616 
L 261.013328 251.715201 
L 282.880475 243.97879 
L 306.531344 228.135853 
L 327.733075 205.618715 
L 341.497228 181.233696 
L 345.050678 162.41828 
L 340.522393 146.491047 
L 326.062821 132.752911 
L 299.227923 122.29968 
L 262.787022 116.665131 
L 231.065403 115.676892 
L 199.918537 117.646216 
L 170.522 123.062131 
L 145.243122 133.516844 
L 130.19025 149.647787 
L 127.348214 166.794331 
L 132.692083 186.147696 
L 144.74241 206.171984 
L 163.913137 226.827274 
L 188.742674 243.864498 
L 217.394085 252.838186 
L 241.112596 252.037606 
L 263.373458 244.704997 
L 288.505939 228.975324 
L 312.607496 205.842161 
L 330.448705 180.191562 
L 338.407247 157.639017 
L 336.623816 139.9263 
L 325.999614 126.560902 
L 303.740534 116.071612 
L 270.920248 110.364467 
L 239.992405 109.554777 
L 208.804733 112.060205 
L 179.947441 117.974867 
L 153.627975 129.100715 
L 136.370812 146.273169 
L 131.553227 165.226661 
L 135.628514 186.61244 
L 146.118821 207.317351 
L 146.118821 207.317351 
" clip-path="url(#p1a8e224531)" style="fill: none; stroke: #1f77b4; stroke-width: 0.5; stroke-linecap: square"/>
   </g>
   <g id="patch_3">
    <path d="M 57.6 307.584 
L 57.6 41.472 
" style="fill: none; stroke: #000000; stroke-width: 0.8; stroke-linejoin: miter; stroke-linecap: square"/>
   </g>
   <g id="patch_4">
    <path d="M 414.72 307.584 
L 414.72 41.472 
" style="fill: none; stroke: #000000; stroke-width: 0.8; stroke-linejoin: miter; stroke-linecap: square"/>
   </g>
   <g id="patch_5">
    <path d="M 57.6 307.584 
L 414.72 307.584 
" style="fill: none; stroke: #000000; stroke-width: 0.8; stroke-linejoin: miter; stroke-linecap: square"/>
   </g>
   <g id="patch_6">
    <path d="M 57.6 41.472 
L 414.72 41.472 
" style="fill: none; stroke: #000000; stroke-width: 0.8; stroke-linejoin: miter; stroke-linecap: square"/>
   </g>
   <g id="text_13">
    <!-- Real Space Projection onto r-z plane with initial r = -0.30 -->
    <g transform="translate(66.41625 35.472) scale(0.12 -0.12)">
     <defs>
      <path id="DejaVuSans-52" d="M 2841 2188 
Q 3044 2119 3236 1894 
Q 3428 1669 3622 1275 
L 4263 0 
L 3584 0 
L 2988 1197 
Q 2756 1666 2539 1819 
Q 2322 1972 1947 1972 
L 1259 1972 
L 1259 0 
L 628 0 
L 628 4666 
L 2053 4666 
Q 2853 4666 3247 4331 
Q 3641 3997 3641 3322 
Q 3641 2881 3436 2590 
Q 3231 2300 2841 2188 
z
M 1259 4147 
L 1259 2491 
L 2053 2491 
Q 2509 2491 2742 2702 
Q 2975 2913 2975 3322 
Q 2975 3731 2742 3939 
Q 2509 4147 2053 4147 
L 1259 4147 
z
" transform="scale(0.015625)"/>
      <path id="DejaVuSans-65" d="M 3597 1894 
L 3597 1613 
L 953 1613 
Q 991 1019 1311 708 
Q 1631 397 2203 397 
Q 2534 397 2845 478 
Q 3156 559 3463 722 
L 3463 178 
Q 3153 47 2828 -22 
Q 2503 -91 2169 -91 
Q 1331 -91 842 396 
Q 353 884 353 1716 
Q 353 2575 817 3079 
Q 1281 3584 2069 3584 
Q 2775 3584 3186 3129 
Q 3597 2675 3597 1894 
z
M 3022 2063 
Q 3016 2534 2758 2815 
Q 2500 3097 2075 3097 
Q 1594 3097 1305 2825 
Q 1016 2553 972 2059 
L 3022 2063 
z
" transform="scale(0.015625)"/>
      <path id="DejaVuSans-61" d="M 2194 1759 
Q 1497 1759 1228 1600 
Q 959 1441 959 1056 
Q 959 750 1161 570 
Q 1363 391 1709 391 
Q 2188 391 2477 730 
Q 2766 1069 2766 1631 
L 2766 1759 
L 2194 1759 
z
M 3341 1997 
L 3341 0 
L 2766 0 
L 2766 531 
Q 2569 213 2275 61 
Q 1981 -91 1556 -91 
Q 1019 -91 701 211 
Q 384 513 384 1019 
Q 384 1609 779 1909 
Q 1175 2209 1959 2209 
L 2766 2209 
L 2766 2266 
Q 2766 2663 2505 2880 
Q 2244 3097 1772 3097 
Q 1472 3097 1187 3025 
Q 903 2953 641 2809 
L 641 3341 
Q 956 3463 1253 3523 
Q 1550 3584 1831 3584 
Q 2591 3584 2966 3190 
Q 3341 2797 3341 1997 
z
" transform="scale(0.015625)"/>
      <path id="DejaVuSans-6c" d="M 603 4863 
L 1178 4863 
L 1178 0 
L 603 0 
L 603 4863 
z
" transform="scale(0.015625)"/>
      <path id="DejaVuSans-20" transform="scale(0.015625)"/>
      <path id="DejaVuSans-53" d="M 3425 4513 
L 3425 3897 
Q 3066 4069 2747 4153 
Q 2428 4238 2131 4238 
Q 1616 4238 1336 4038 
Q 1056 3838 1056 3469 
Q 1056 3159 1242 3001 
Q 1428 2844 1947 2747 
L 2328 2669 
Q 3034 2534 3370 2195 
Q 3706 1856 3706 1288 
Q 3706 609 3251 259 
Q 2797 -91 1919 -91 
Q 1588 -91 1214 -16 
Q 841 59 441 206 
L 441 856 
Q 825 641 1194 531 
Q 1563 422 1919 422 
Q 2459 422 2753 634 
Q 3047 847 3047 1241 
Q 3047 1584 2836 1778 
Q 2625 1972 2144 2069 
L 1759 2144 
Q 1053 2284 737 2584 
Q 422 2884 422 3419 
Q 422 4038 858 4394 
Q 1294 4750 2059 4750 
Q 2388 4750 2728 4690 
Q 3069 4631 3425 4513 
z
" transform="scale(0.015625)"/>
      <path id="DejaVuSans-70" d="M 1159 525 
L 1159 -1331 
L 581 -1331 
L 581 3500 
L 1159 3500 
L 1159 2969 
Q 1341 3281 1617 3432 
Q 1894 3584 2278 3584 
Q 2916 3584 3314 3078 
Q 3713 2572 3713 1747 
Q 3713 922 3314 415 
Q 2916 -91 2278 -91 
Q 1894 -91 1617 61 
Q 1341 213 1159 525 
z
M 3116 1747 
Q 3116 2381 2855 2742 
Q 2594 3103 2138 3103 
Q 1681 3103 1420 2742 
Q 1159 2381 1159 1747 
Q 1159 1113 1420 752 
Q 1681 391 2138 391 
Q 2594 391 2855 752 
Q 3116 1113 3116 1747 
z
" transform="scale(0.015625)"/>
      <path id="DejaVuSans-63" d="M 3122 3366 
L 3122 2828 
Q 2878 2963 2633 3030 
Q 2388 3097 2138 3097 
Q 1578 3097 1268 2742 
Q 959 2388 959 1747 
Q 959 1106 1268 751 
Q 1578 397 2138 397 
Q 2388 397 2633 464 
Q 2878 531 3122 666 
L 3122 134 
Q 2881 22 2623 -34 
Q 2366 -91 2075 -91 
Q 1284 -91 818 406 
Q 353 903 353 1747 
Q 353 2603 823 3093 
Q 1294 3584 2113 3584 
Q 2378 3584 2631 3529 
Q 2884 3475 3122 3366 
z
" transform="scale(0.015625)"/>
      <path id="DejaVuSans-50" d="M 1259 4147 
L 1259 2394 
L 2053 2394 
Q 2494 2394 2734 2622 
Q 2975 2850 2975 3272 
Q 2975 3691 2734 3919 
Q 2494 4147 2053 4147 
L 1259 4147 
z
M 628 4666 
L 2053 4666 
Q 2838 4666 3239 4311 
Q 3641 3956 3641 3272 
Q 3641 2581 3239 2228 
Q 2838 1875 2053 1875 
L 1259 1875 
L 1259 0 
L 628 0 
L 628 4666 
z
" transform="scale(0.015625)"/>
      <path id="DejaVuSans-6f" d="M 1959 3097 
Q 1497 3097 1228 2736 
Q 959 2375 959 1747 
Q 959 1119 1226 758 
Q 1494 397 1959 397 
Q 2419 397 2687 759 
Q 2956 1122 2956 1747 
Q 2956 2369 2687 2733 
Q 2419 3097 1959 3097 
z
M 1959 3584 
Q 2709 3584 3137 3096 
Q 3566 2609 3566 1747 
Q 3566 888 3137 398 
Q 2709 -91 1959 -91 
Q 1206 -91 779 398 
Q 353 888 353 1747 
Q 353 2609 779 3096 
Q 1206 3584 1959 3584 
z
" transform="scale(0.015625)"/>
      <path id="DejaVuSans-6a" d="M 603 3500 
L 1178 3500 
L 1178 -63 
Q 1178 -731 923 -1031 
Q 669 -1331 103 -1331 
L -116 -1331 
L -116 -844 
L 38 -844 
Q 366 -844 484 -692 
Q 603 -541 603 -63 
L 603 3500 
z
M 603 4863 
L 1178 4863 
L 1178 4134 
L 603 4134 
L 603 4863 
z
" transform="scale(0.015625)"/>
      <path id="DejaVuSans-74" d="M 1172 4494 
L 1172 3500 
L 2356 3500 
L 2356 3053 
L 1172 3053 
L 1172 1153 
Q 1172 725 1289 603 
Q 1406 481 1766 481 
L 2356 481 
L 2356 0 
L 1766 0 
Q 1100 0 847 248 
Q 594 497 594 1153 
L 594 3053 
L 172 3053 
L 172 3500 
L 594 3500 
L 594 4494 
L 1172 4494 
z
" transform="scale(0.015625)"/>
      <path id="DejaVuSans-69" d="M 603 3500 
L 1178 3500 
L 1178 0 
L 603 0 
L 603 3500 
z
M 603 4863 
L 1178 4863 
L 1178 4134 
L 603 4134 
L 603 4863 
z
" transform="scale(0.015625)"/>
      <path id="DejaVuSans-6e" d="M 3513 2113 
L 3513 0 
L 2938 0 
L 2938 2094 
Q 2938 2591 2744 2837 
Q 2550 3084 2163 3084 
Q 1697 3084 1428 2787 
Q 1159 2491 1159 1978 
L 1159 0 
L 581 0 
L 581 3500 
L 1159 3500 
L 1159 2956 
Q 1366 3272 1645 3428 
Q 1925 3584 2291 3584 
Q 2894 3584 3203 3211 
Q 3513 2838 3513 2113 
z
" transform="scale(0.015625)"/>
      <path id="DejaVuSans-2d" d="M 313 2009 
L 1997 2009 
L 1997 1497 
L 313 1497 
L 313 2009 
z
" transform="scale(0.015625)"/>
      <path id="DejaVuSans-77" d="M 269 3500 
L 844 3500 
L 1563 769 
L 2278 3500 
L 2956 3500 
L 3675 769 
L 4391 3500 
L 4966 3500 
L 4050 0 
L 3372 0 
L 2619 2869 
L 1863 0 
L 1184 0 
L 269 3500 
z
" transform="scale(0.015625)"/>
      <path id="DejaVuSans-68" d="M 3513 2113 
L 3513 0 
L 2938 0 
L 2938 2094 
Q 2938 2591 2744 2837 
Q 2550 3084 2163 3084 
Q 1697 3084 1428 2787 
Q 1159 2491 1159 1978 
L 1159 0 
L 581 0 
L 581 4863 
L 1159 4863 
L 1159 2956 
Q 1366 3272 1645 3428 
Q 1925 3584 2291 3584 
Q 2894 3584 3203 3211 
Q 3513 2838 3513 2113 
z
" transform="scale(0.015625)"/>
      <path id="DejaVuSans-3d" d="M 678 2906 
L 4684 2906 
L 4684 2381 
L 678 2381 
L 678 2906 
z
M 678 1631 
L 4684 1631 
L 4684 1100 
L 678 1100 
L 678 1631 
z
" transform="scale(0.015625)"/>
      <path id="DejaVuSans-33" d="M 2597 2516 
Q 3050 2419 3304 2112 
Q 3559 1806 3559 1356 
Q 3559 666 3084 287 
Q 2609 -91 1734 -91 
Q 1441 -91 1130 -33 
Q 819 25 488 141 
L 488 750 
Q 750 597 1062 519 
Q 1375 441 1716 441 
Q 2309 441 2620 675 
Q 2931 909 2931 1356 
Q 2931 1769 2642 2001 
Q 2353 2234 1838 2234 
L 1294 2234 
L 1294 2753 
L 1863 2753 
Q 2328 2753 2575 2939 
Q 2822 3125 2822 3475 
Q 2822 3834 2567 4026 
Q 2313 4219 1838 4219 
Q 1578 4219 1281 4162 
Q 984 4106 628 3988 
L 628 4550 
Q 988 4650 1302 4700 
Q 1616 4750 1894 4750 
Q 2613 4750 3031 4423 
Q 3450 4097 3450 3541 
Q 3450 3153 3228 2886 
Q 3006 2619 2597 2516 
z
" transform="scale(0.015625)"/>
     </defs>
     <use xlink:href="#DejaVuSans-52"/>
     <use xlink:href="#DejaVuSans-65" x="64.982422"/>
     <use xlink:href="#DejaVuSans-61" x="126.505859"/>
     <use xlink:href="#DejaVuSans-6c" x="187.785156"/>
     <use xlink:href="#DejaVuSans-20" x="215.568359"/>
     <use xlink:href="#DejaVuSans-53" x="247.355469"/>
     <use xlink:href="#DejaVuSans-70" x="310.832031"/>
     <use xlink:href="#DejaVuSans-61" x="374.308594"/>
     <use xlink:href="#DejaVuSans-63" x="435.587891"/>
     <use xlink:href="#DejaVuSans-65" x="490.568359"/>
     <use xlink:href="#DejaVuSans-20" x="552.091797"/>
     <use xlink:href="#DejaVuSans-50" x="583.878906"/>
     <use xlink:href="#DejaVuSans-72" x="642.431641"/>
     <use xlink:href="#DejaVuSans-6f" x="681.294922"/>
     <use xlink:href="#DejaVuSans-6a" x="742.476562"/>
     <use xlink:href="#DejaVuSans-65" x="770.259766"/>
     <use xlink:href="#DejaVuSans-63" x="831.783203"/>
     <use xlink:href="#DejaVuSans-74" x="886.763672"/>
     <use xlink:href="#DejaVuSans-69" x="925.972656"/>
     <use xlink:href="#DejaVuSans-6f" x="953.755859"/>
     <use xlink:href="#DejaVuSans-6e" x="1014.9375"/>
     <use xlink:href="#DejaVuSans-20" x="1078.316406"/>
     <use xlink:href="#DejaVuSans-6f" x="1110.103516"/>
     <use xlink:href="#DejaVuSans-6e" x="1171.285156"/>
     <use xlink:href="#DejaVuSans-74" x="1234.664062"/>
     <use xlink:href="#DejaVuSans-6f" x="1273.873047"/>
     <use xlink:href="#DejaVuSans-20" x="1335.054688"/>
     <use xlink:href="#DejaVuSans-72" x="1366.841797"/>
     <use xlink:href="#DejaVuSans-2d" x="1401.580078"/>
     <use xlink:href="#DejaVuSans-7a" x="1437.664062"/>
     <use xlink:href="#DejaVuSans-20" x="1490.154297"/>
     <use xlink:href="#DejaVuSans-70" x="1521.941406"/>
     <use xlink:href="#DejaVuSans-6c" x="1585.417969"/>
     <use xlink:href="#DejaVuSans-61" x="1613.201172"/>
     <use xlink:href="#DejaVuSans-6e" x="1674.480469"/>
     <use xlink:href="#DejaVuSans-65" x="1737.859375"/>
     <use xlink:href="#DejaVuSans-20" x="1799.382812"/>
     <use xlink:href="#DejaVuSans-77" x="1831.169922"/>
     <use xlink:href="#DejaVuSans-69" x="1912.957031"/>
     <use xlink:href="#DejaVuSans-74" x="1940.740234"/>
     <use xlink:href="#DejaVuSans-68" x="1979.949219"/>
     <use xlink:href="#DejaVuSans-20" x="2043.328125"/>
     <use xlink:href="#DejaVuSans-69" x="2075.115234"/>
     <use xlink:href="#DejaVuSans-6e" x="2102.898438"/>
     <use xlink:href="#DejaVuSans-69" x="2166.277344"/>
     <use xlink:href="#DejaVuSans-74" x="2194.060547"/>
     <use xlink:href="#DejaVuSans-69" x="2233.269531"/>
     <use xlink:href="#DejaVuSans-61" x="2261.052734"/>
     <use xlink:href="#DejaVuSans-6c" x="2322.332031"/>
     <use xlink:href="#DejaVuSans-20" x="2350.115234"/>
     <use xlink:href="#DejaVuSans-72" x="2381.902344"/>
     <use xlink:href="#DejaVuSans-20" x="2423.015625"/>
     <use xlink:href="#DejaVuSans-3d" x="2454.802734"/>
     <use xlink:href="#DejaVuSans-20" x="2538.591797"/>
     <use xlink:href="#DejaVuSans-2d" x="2570.378906"/>
     <use xlink:href="#DejaVuSans-30" x="2606.462891"/>
     <use xlink:href="#DejaVuSans-2e" x="2670.085938"/>
     <use xlink:href="#DejaVuSans-33" x="2701.873047"/>
     <use xlink:href="#DejaVuSans-30" x="2765.496094"/>
    </g>
   </g>
  </g>
 </g>
 <defs>
  <clipPath id="p1a8e224531">
   <rect x="57.6" y="41.472" width="357.12" height="266.112"/>
  </clipPath>
 </defs>
</svg>
