<?xml version="1.0" encoding="utf-8" standalone="no"?>
<!DOCTYPE svg PUBLIC "-//W3C//DTD SVG 1.1//EN"
  "http://www.w3.org/Graphics/SVG/1.1/DTD/svg11.dtd">
<svg xmlns:xlink="http://www.w3.org/1999/xlink" width="460.8pt" height="345.6pt" viewBox="0 0 460.8 345.6" xmlns="http://www.w3.org/2000/svg" version="1.1">
 <metadata>
  <rdf:RDF xmlns:dc="http://purl.org/dc/elements/1.1/" xmlns:cc="http://creativecommons.org/ns#" xmlns:rdf="http://www.w3.org/1999/02/22-rdf-syntax-ns#">
   <cc:Work>
    <dc:type rdf:resource="http://purl.org/dc/dcmitype/StillImage"/>
    <dc:date>2023-10-23T14:48:07.799867</dc:date>
    <dc:format>image/svg+xml</dc:format>
    <dc:creator>
     <cc:Agent>
      <dc:title>Matplotlib v3.8.0, https://matplotlib.org/</dc:title>
     </cc:Agent>
    </dc:creator>
   </cc:Work>
  </rdf:RDF>
 </metadata>
 <defs>
  <style type="text/css">*{stroke-linejoin: round; stroke-linecap: butt}</style>
 </defs>
 <g id="figure_1">
  <g id="patch_1">
   <path d="M 0 345.6 
L 460.8 345.6 
L 460.8 0 
L 0 0 
z
" style="fill: #ffffff"/>
  </g>
  <g id="axes_1">
   <g id="patch_2">
    <path d="M 57.6 307.584 
L 414.72 307.584 
L 414.72 41.472 
L 57.6 41.472 
z
" style="fill: #ffffff"/>
   </g>
   <g id="matplotlib.axis_1">
    <g id="xtick_1">
     <g id="line2d_1">
      <defs>
       <path id="m0022faf94b" d="M 0 0 
L 0 3.5 
" style="stroke: #000000; stroke-width: 0.8"/>
      </defs>
      <g>
       <use xlink:href="#m0022faf94b" x="93.312" y="307.584" style="stroke: #000000; stroke-width: 0.8"/>
      </g>
     </g>
     <g id="text_1">
      <!-- −0.4 -->
      <g transform="translate(81.170594 322.182437) scale(0.1 -0.1)">
       <defs>
        <path id="DejaVuSans-2212" d="M 678 2272 
L 4684 2272 
L 4684 1741 
L 678 1741 
L 678 2272 
z
" transform="scale(0.015625)"/>
        <path id="DejaVuSans-30" d="M 2034 4250 
Q 1547 4250 1301 3770 
Q 1056 3291 1056 2328 
Q 1056 1369 1301 889 
Q 1547 409 2034 409 
Q 2525 409 2770 889 
Q 3016 1369 3016 2328 
Q 3016 3291 2770 3770 
Q 2525 4250 2034 4250 
z
M 2034 4750 
Q 2819 4750 3233 4129 
Q 3647 3509 3647 2328 
Q 3647 1150 3233 529 
Q 2819 -91 2034 -91 
Q 1250 -91 836 529 
Q 422 1150 422 2328 
Q 422 3509 836 4129 
Q 1250 4750 2034 4750 
z
" transform="scale(0.015625)"/>
        <path id="DejaVuSans-2e" d="M 684 794 
L 1344 794 
L 1344 0 
L 684 0 
L 684 794 
z
" transform="scale(0.015625)"/>
        <path id="DejaVuSans-34" d="M 2419 4116 
L 825 1625 
L 2419 1625 
L 2419 4116 
z
M 2253 4666 
L 3047 4666 
L 3047 1625 
L 3713 1625 
L 3713 1100 
L 3047 1100 
L 3047 0 
L 2419 0 
L 2419 1100 
L 313 1100 
L 313 1709 
L 2253 4666 
z
" transform="scale(0.015625)"/>
       </defs>
       <use xlink:href="#DejaVuSans-2212"/>
       <use xlink:href="#DejaVuSans-30" x="83.789062"/>
       <use xlink:href="#DejaVuSans-2e" x="147.412109"/>
       <use xlink:href="#DejaVuSans-34" x="179.199219"/>
      </g>
     </g>
    </g>
    <g id="xtick_2">
     <g id="line2d_2">
      <g>
       <use xlink:href="#m0022faf94b" x="164.736" y="307.584" style="stroke: #000000; stroke-width: 0.8"/>
      </g>
     </g>
     <g id="text_2">
      <!-- −0.2 -->
      <g transform="translate(152.594594 322.182437) scale(0.1 -0.1)">
       <defs>
        <path id="DejaVuSans-32" d="M 1228 531 
L 3431 531 
L 3431 0 
L 469 0 
L 469 531 
Q 828 903 1448 1529 
Q 2069 2156 2228 2338 
Q 2531 2678 2651 2914 
Q 2772 3150 2772 3378 
Q 2772 3750 2511 3984 
Q 2250 4219 1831 4219 
Q 1534 4219 1204 4116 
Q 875 4013 500 3803 
L 500 4441 
Q 881 4594 1212 4672 
Q 1544 4750 1819 4750 
Q 2544 4750 2975 4387 
Q 3406 4025 3406 3419 
Q 3406 3131 3298 2873 
Q 3191 2616 2906 2266 
Q 2828 2175 2409 1742 
Q 1991 1309 1228 531 
z
" transform="scale(0.015625)"/>
       </defs>
       <use xlink:href="#DejaVuSans-2212"/>
       <use xlink:href="#DejaVuSans-30" x="83.789062"/>
       <use xlink:href="#DejaVuSans-2e" x="147.412109"/>
       <use xlink:href="#DejaVuSans-32" x="179.199219"/>
      </g>
     </g>
    </g>
    <g id="xtick_3">
     <g id="line2d_3">
      <g>
       <use xlink:href="#m0022faf94b" x="236.16" y="307.584" style="stroke: #000000; stroke-width: 0.8"/>
      </g>
     </g>
     <g id="text_3">
      <!-- 0.0 -->
      <g transform="translate(228.208438 322.182437) scale(0.1 -0.1)">
       <use xlink:href="#DejaVuSans-30"/>
       <use xlink:href="#DejaVuSans-2e" x="63.623047"/>
       <use xlink:href="#DejaVuSans-30" x="95.410156"/>
      </g>
     </g>
    </g>
    <g id="xtick_4">
     <g id="line2d_4">
      <g>
       <use xlink:href="#m0022faf94b" x="307.584" y="307.584" style="stroke: #000000; stroke-width: 0.8"/>
      </g>
     </g>
     <g id="text_4">
      <!-- 0.2 -->
      <g transform="translate(299.632437 322.182437) scale(0.1 -0.1)">
       <use xlink:href="#DejaVuSans-30"/>
       <use xlink:href="#DejaVuSans-2e" x="63.623047"/>
       <use xlink:href="#DejaVuSans-32" x="95.410156"/>
      </g>
     </g>
    </g>
    <g id="xtick_5">
     <g id="line2d_5">
      <g>
       <use xlink:href="#m0022faf94b" x="379.008" y="307.584" style="stroke: #000000; stroke-width: 0.8"/>
      </g>
     </g>
     <g id="text_5">
      <!-- 0.4 -->
      <g transform="translate(371.056437 322.182437) scale(0.1 -0.1)">
       <use xlink:href="#DejaVuSans-30"/>
       <use xlink:href="#DejaVuSans-2e" x="63.623047"/>
       <use xlink:href="#DejaVuSans-34" x="95.410156"/>
      </g>
     </g>
    </g>
    <g id="text_6">
     <!-- r -->
     <g transform="translate(234.104531 335.860562) scale(0.1 -0.1)">
      <defs>
       <path id="DejaVuSans-72" d="M 2631 2963 
Q 2534 3019 2420 3045 
Q 2306 3072 2169 3072 
Q 1681 3072 1420 2755 
Q 1159 2438 1159 1844 
L 1159 0 
L 581 0 
L 581 3500 
L 1159 3500 
L 1159 2956 
Q 1341 3275 1631 3429 
Q 1922 3584 2338 3584 
Q 2397 3584 2469 3576 
Q 2541 3569 2628 3553 
L 2631 2963 
z
" transform="scale(0.015625)"/>
      </defs>
      <use xlink:href="#DejaVuSans-72"/>
     </g>
    </g>
   </g>
   <g id="matplotlib.axis_2">
    <g id="ytick_1">
     <g id="line2d_6">
      <defs>
       <path id="m1a95cd3b30" d="M 0 0 
L -3.5 0 
" style="stroke: #000000; stroke-width: 0.8"/>
      </defs>
      <g>
       <use xlink:href="#m1a95cd3b30" x="57.6" y="280.9728" style="stroke: #000000; stroke-width: 0.8"/>
      </g>
     </g>
     <g id="text_7">
      <!-- −0.4 -->
      <g transform="translate(26.317187 284.772019) scale(0.1 -0.1)">
       <use xlink:href="#DejaVuSans-2212"/>
       <use xlink:href="#DejaVuSans-30" x="83.789062"/>
       <use xlink:href="#DejaVuSans-2e" x="147.412109"/>
       <use xlink:href="#DejaVuSans-34" x="179.199219"/>
      </g>
     </g>
    </g>
    <g id="ytick_2">
     <g id="line2d_7">
      <g>
       <use xlink:href="#m1a95cd3b30" x="57.6" y="227.7504" style="stroke: #000000; stroke-width: 0.8"/>
      </g>
     </g>
     <g id="text_8">
      <!-- −0.2 -->
      <g transform="translate(26.317187 231.549619) scale(0.1 -0.1)">
       <use xlink:href="#DejaVuSans-2212"/>
       <use xlink:href="#DejaVuSans-30" x="83.789062"/>
       <use xlink:href="#DejaVuSans-2e" x="147.412109"/>
       <use xlink:href="#DejaVuSans-32" x="179.199219"/>
      </g>
     </g>
    </g>
    <g id="ytick_3">
     <g id="line2d_8">
      <g>
       <use xlink:href="#m1a95cd3b30" x="57.6" y="174.528" style="stroke: #000000; stroke-width: 0.8"/>
      </g>
     </g>
     <g id="text_9">
      <!-- 0.0 -->
      <g transform="translate(34.696875 178.327219) scale(0.1 -0.1)">
       <use xlink:href="#DejaVuSans-30"/>
       <use xlink:href="#DejaVuSans-2e" x="63.623047"/>
       <use xlink:href="#DejaVuSans-30" x="95.410156"/>
      </g>
     </g>
    </g>
    <g id="ytick_4">
     <g id="line2d_9">
      <g>
       <use xlink:href="#m1a95cd3b30" x="57.6" y="121.3056" style="stroke: #000000; stroke-width: 0.8"/>
      </g>
     </g>
     <g id="text_10">
      <!-- 0.2 -->
      <g transform="translate(34.696875 125.104819) scale(0.1 -0.1)">
       <use xlink:href="#DejaVuSans-30"/>
       <use xlink:href="#DejaVuSans-2e" x="63.623047"/>
       <use xlink:href="#DejaVuSans-32" x="95.410156"/>
      </g>
     </g>
    </g>
    <g id="ytick_5">
     <g id="line2d_10">
      <g>
       <use xlink:href="#m1a95cd3b30" x="57.6" y="68.0832" style="stroke: #000000; stroke-width: 0.8"/>
      </g>
     </g>
     <g id="text_11">
      <!-- 0.4 -->
      <g transform="translate(34.696875 71.882419) scale(0.1 -0.1)">
       <use xlink:href="#DejaVuSans-30"/>
       <use xlink:href="#DejaVuSans-2e" x="63.623047"/>
       <use xlink:href="#DejaVuSans-34" x="95.410156"/>
      </g>
     </g>
    </g>
    <g id="text_12">
     <!-- z -->
     <g transform="translate(20.2375 177.152219) rotate(-90) scale(0.1 -0.1)">
      <defs>
       <path id="DejaVuSans-7a" d="M 353 3500 
L 3084 3500 
L 3084 2975 
L 922 459 
L 3084 459 
L 3084 0 
L 275 0 
L 275 525 
L 2438 3041 
L 353 3041 
L 353 3500 
z
" transform="scale(0.015625)"/>
      </defs>
      <use xlink:href="#DejaVuSans-7a"/>
     </g>
    </g>
   </g>
   <g id="line2d_11">
    <path d="M 228.224 174.528 
L 226.109386 169.410115 
L 216.231467 144.839654 
L 203.738889 112.569121 
L 192.438342 84.792336 
L 182.881192 66.872684 
L 174.423725 58.256351 
L 166.993619 57.150314 
L 161.112061 61.813983 
L 157.183712 72.054446 
L 156.977773 87.747465 
L 162.319806 108.5738 
L 178.481133 140.481241 
L 205.022886 177.118186 
L 229.505829 205.214547 
L 250.878971 227.148794 
L 269.587926 244.352138 
L 286.038543 256.791113 
L 295.167195 260.243703 
L 298.31839 255.819094 
L 295.883361 244.564596 
L 288.664525 227.223156 
L 275.921749 202.30627 
L 258.713546 172.63234 
L 239.776982 143.580897 
L 218.270884 115.24443 
L 195.159752 91.077952 
L 171.945466 74.15823 
L 152.706457 66.65881 
L 140.172072 67.196799 
L 135.973908 74.210697 
L 141.66559 86.915438 
L 155.818886 103.139375 
L 179.801839 125.431078 
L 213.207798 154.278589 
L 271.952024 204.407512 
L 297.090449 225.38712 
L 316.697533 240.248619 
L 327.043488 245.58943 
L 330.38295 242.915881 
L 327.40648 233.775909 
L 318.347482 217.856736 
L 302.152393 194.875552 
L 280.081656 168.415706 
L 256.421703 144.569184 
L 226.960106 120.549642 
L 190.394252 98.562132 
L 156.472469 85.198135 
L 133.931844 80.481145 
L 124.707368 80.99679 
L 124.127354 83.85703 
L 129.947048 88.772763 
L 144.183885 97.09094 
L 168.13866 109.988718 
L 201.205464 128.708107 
L 240.007365 153.384603 
L 277.231346 180.268189 
L 306.81959 203.763942 
L 328.535977 221.755699 
L 343.170115 233.363984 
L 348.594976 236.247958 
L 347.799877 232.674243 
L 341.275352 223.441722 
L 327.388797 207.154721 
L 305.890404 185.266718 
L 282.801867 164.927627 
L 257.754026 146.047036 
L 222.792135 124.60707 
L 181.577378 105.708306 
L 147.527204 94.591658 
L 126.002157 89.701688 
L 119.45074 89.007774 
L 120.836637 90.332688 
L 129.129539 93.375788 
L 146.26314 99.267564 
L 172.954083 109.286282 
L 208.0812 124.967271 
L 247.354465 146.655484 
L 283.527674 171.114726 
L 310.31326 192.233236 
L 331.207825 210.52661 
L 346.844852 225.222721 
L 354.421556 232.564449 
L 354.150984 232.145122 
L 349.063519 226.939619 
L 337.108582 215.258517 
L 317.21345 197.13452 
L 290.403608 175.182837 
L 260.852607 154.148858 
L 227.460418 134.10343 
L 187.19059 114.59298 
L 151.731619 100.936885 
L 127.990982 93.108662 
L 119.463948 90.130457 
L 119.749502 89.530392 
L 126.017914 90.475036 
L 139.394039 93.460034 
L 161.857694 99.874041 
L 193.256502 111.509455 
L 230.594286 129.818108 
L 267.933378 153.783282 
L 297.132294 177.073037 
L 321.450757 199.979914 
L 338.296411 218.212668 
L 348.443702 231.092621 
L 350.299423 235.421068 
L 345.722304 233.112909 
L 335.637507 225.123086 
L 317.847525 210.227873 
L 292.400682 189.503541 
L 261.915193 166.52737 
L 232.001904 146.206939 
L 196.07666 124.625872 
L 161.160556 106.092297 
L 135.368682 92.955645 
L 124.254533 86.011178 
L 122.968397 82.878034 
L 128.276733 81.853439 
L 139.90255 83.176431 
L 158.325074 87.722095 
L 185.548979 97.944604 
L 219.09076 116.005573 
L 253.959081 141.831238 
L 284.311135 170.97681 
L 305.511419 195.650887 
L 321.191359 217.068583 
L 331.353238 234.383464 
L 333.585965 242.720047 
L 329.953823 243.79107 
L 321.217145 239.075607 
L 305.800403 227.586774 
L 282.823481 208.741618 
L 253.986902 184.598868 
L 223.338603 159.22955 
L 196.01086 136.932427 
L 166.690953 112.701168 
L 144.246952 91.898946 
L 134.972411 79.290083 
L 134.043234 72.507048 
L 138.387643 68.673575 
L 148.642314 68.235461 
L 163.738182 72.567871 
L 186.715028 85.534276 
L 214.369443 109.692404 
L 243.149876 144.052139 
L 264.891071 175.782542 
L 283.606889 207.282593 
L 296.168219 232.09805 
L 302.544188 249.948353 
L 301.98352 257.234738 
L 296.32951 257.642591 
L 286.276833 252.029763 
L 269.640124 238.833044 
L 247.077811 217.916694 
L 225.16515 195.500204 
L 204.827623 172.744073 
L 183.503672 145.702212 
L 164.9926 116.038951 
L 155.548777 91.751399 
L 153.766908 75.799254 
L 156.462067 64.432624 
L 163.036892 58.006411 
L 172.149103 59.017891 
L 181.9483 68.05662 
L 192.103893 84.500741 
L 203.191118 107.902866 
L 231.737917 174.224768 
L 255.696776 228.285522 
L 264.865178 250.124277 
L 269.674896 265.086493 
L 269.401042 270.911819 
L 265.39185 270.868482 
L 257.661624 265.288038 
L 244.549887 252.105894 
L 230.435243 235.352101 
L 215.672186 215.357713 
L 199.490762 189.563987 
L 184.800221 159.283023 
L 175.182102 127.814592 
L 172.332032 101.310675 
L 174.321874 79.595583 
L 179.076844 64.170113 
L 183.842205 56.831633 
L 187.435938 55.95375 
L 190.084098 60.464732 
L 191.842696 69.691094 
L 194.768242 97.989912 
L 197.44852 118.617857 
L 202.582447 145.889945 
L 211.895811 180.351162 
L 223.409236 212.862693 
L 233.125413 236.401165 
L 245.857611 265.220069 
L 249.663608 274.821058 
L 250.151944 278.477982 
L 247.625539 277.134483 
L 241.677288 270.182956 
L 232.933253 257.89777 
L 222.550461 241.314355 
L 210.508531 219.009019 
L 198.506421 191.28502 
L 188.999039 159.270787 
L 184.516206 126.082241 
L 185.211171 99.086767 
L 188.779626 77.450326 
L 192.572124 63.995446 
L 195.150393 57.585413 
L 196.279375 56.448912 
L 196.342925 58.545574 
L 195.737986 63.193345 
L 194.436232 71.642361 
L 192.735856 84.369284 
L 191.359521 100.866037 
L 191.151859 121.340022 
L 192.878299 143.469282 
L 199.194324 176.513995 
L 212.077198 215.55783 
L 223.452609 241.271513 
L 232.605961 259.202239 
L 238.532094 269.923405 
L 244.730811 280.411291 
L 243.570265 278.229104 
L 239.485901 270.8906 
L 232.959567 258.747432 
L 225.239617 243.377534 
L 215.496567 221.665408 
L 205.445826 194.511703 
L 197.057593 162.899287 
L 192.388642 129.483985 
L 191.95386 100.032132 
L 193.581078 79.330836 
L 195.923918 59.662027 
L 195.863375 56.660518 
L 195.052201 56.569079 
L 193.202108 59.878276 
L 190.296964 67.75222 
L 186.92493 80.522179 
L 184.136714 97.918712 
L 183.218153 120.060123 
L 185.574102 145.588886 
L 194.868405 182.127831 
L 209.170671 216.012764 
L 223.170868 241.35186 
L 234.422344 258.640698 
L 243.670388 270.976252 
L 249.307896 277.018612 
L 251.838818 277.408283 
L 250.487585 271.725317 
L 246.050242 260.782802 
L 238.227647 242.929195 
L 228.908658 221.000803 
L 219.927673 197.861119 
L 210.289763 168.900707 
L 201.950801 136.789736 
L 195.697876 102.221108 
L 192.701404 80.199879 
L 190.536043 66.759109 
L 187.978732 58.545705 
L 184.703979 55.6288 
L 180.706351 57.810661 
L 176.416013 64.948908 
L 172.605667 77.063944 
L 170.546308 94.213407 
L 171.864826 115.897319 
L 179.625537 146.160986 
L 197.709089 184.632685 
L 217.56051 215.1844 
L 234.854939 237.398163 
L 250.809612 255.094736 
L 262.727276 265.982868 
L 271.006084 270.303352 
L 273.384793 266.231737 
L 270.930237 255.763971 
L 264.609749 239.388526 
L 254.145635 215.630799 
L 214.203118 128.45182 
L 199.288966 97.798092 
L 186.01814 75.408483 
L 174.237949 62.43929 
L 164.231805 58.146385 
L 156.578742 60.770463 
L 151.963568 69.125089 
L 151.872113 83.640002 
L 159.31233 105.50668 
L 177.650714 135.452338 
L 206.105774 170.423508 
L 232.12135 198.130014 
L 257.871473 223.143226 
L 278.857841 241.533098 
L 295.883746 253.698087 
L 304.42564 256.386022 
L 307.089675 251.634553 
L 304.185123 240.169827 
L 296.053115 222.231138 
L 281.934219 196.939306 
L 263.059126 167.662151 
L 242.927627 140.575868 
L 218.532162 113.259187 
L 192.163408 90.700496 
L 165.628348 75.51566 
L 145.353823 69.821072 
L 133.80054 71.548693 
L 132.19212 77.307758 
L 137.861342 86.403049 
L 151.736106 99.732878 
L 175.446241 118.880876 
L 208.515111 144.548562 
L 241.94976 171.077016 
L 271.397417 195.176598 
L 297.254246 216.573583 
L 318.590308 233.515495 
L 332.044506 242.078902 
L 336.229631 241.854422 
L 335.200619 236.169504 
L 328.725342 224.281385 
L 315.059377 204.876551 
L 294.406318 180.178683 
L 269.717947 155.284333 
L 243.039909 133.08165 
L 207.401007 110.112893 
L 168.386291 92.675177 
L 140.192375 84.846761 
L 125.640456 83.201746 
L 121.91135 84.742779 
L 126.102522 88.601344 
L 138.048496 94.924013 
L 159.529929 105.202157 
L 190.450794 120.757361 
L 228.315695 142.443306 
L 267.247981 168.46156 
L 295.915211 190.151649 
L 319.25121 209.238653 
L 338.08201 225.165273 
L 349.152662 233.903704 
L 351.552263 234.510473 
L 348.961974 230.044396 
L 340.313404 219.449722 
L 323.989634 202.016032 
L 300.288067 179.824133 
L 272.507207 157.557449 
L 242.821001 137.705676 
L 203.008904 116.697235 
L 164.208191 101.524906 
L 135.56803 93.256798 
L 121.715115 90.256832 
L 118.634756 89.992851 
L 122.038706 91.307603 
L 132.524822 94.520275 
L 152.074436 100.7597 
L 181.060306 111.460929 
L 217.686372 128.141305 
L 256.819788 150.61956 
L 290.915947 174.704291 
L 316.389536 195.692675 
L 335.97205 213.685338 
L 349.578836 227.270525 
L 354.672316 232.824439 
L 353.266481 231.820771 
L 333.119783 213.118733 
L 311.486472 194.234906 
L 283.406923 172.106307 
L 253.56768 151.558057 
L 218.457058 131.073139 
L 181.677029 113.418551 
L 148.050296 100.047008 
L 126.29193 92.159332 
L 119.537099 89.127128 
L 121.073635 88.420482 
L 128.845654 89.419781 
L 143.674013 92.639971 
L 167.632854 99.671116 
L 200.126684 112.46176 
L 237.439539 132.233363 
L 273.466995 157.313149 
L 299.531809 179.688538 
L 321.185163 201.437053 
L 337.112857 219.898339 
L 346.254485 232.79268 
L 347.263494 236.931959 
L 342.118552 234.612759 
L 331.476758 226.547958 
L 313.108106 211.466581 
L 287.194722 190.435035 
L 256.435178 166.979874 
L 226.319387 145.944818 
L 192.403618 124.491016 
L 158.963288 105.114685 
L 134.9956 91.077289 
L 125.533423 83.61771 
L 125.126162 80.098356 
L 130.641261 78.816202 
L 142.622019 80.036768 
L 160.936421 84.798732 
L 187.863403 95.874447 
L 220.542704 115.460876 
L 254.205307 143.278955 
L 283.896369 175.020168 
L 303.731635 200.677654 
L 318.097214 222.677924 
L 326.296659 239.3594 
L 326.827611 246.259666 
L 321.564904 246.411862 
L 311.860791 240.842175 
L 294.900873 227.981181 
L 270.75524 207.748652 
L 241.7661 182.5777 
L 212.566752 156.853382 
L 186.163517 133.041872 
L 160.04337 107.633069 
L 142.930605 86.511913 
L 138.133406 74.800537 
L 140.290771 67.321781 
L 147.488326 64.556583 
L 160.612057 66.807545 
L 179.861352 77.422128 
L 204.156546 99.904087 
L 229.580403 132.546844 
L 251.943706 167.456428 
L 269.042473 197.517765 
L 282.646891 224.162413 
L 291.861967 246.100689 
L 294.297045 257.756659 
L 291.084195 261.933147 
L 282.579624 258.673751 
L 269.03109 248.530925 
L 249.390217 230.350929 
L 229.392126 209.399492 
L 209.511071 186.21247 
L 189.226391 158.993319 
L 172.154513 130.143589 
L 160.84026 99.479735 
L 158.857866 80.832208 
L 161.280135 66.921534 
L 167.167916 58.10691 
L 174.199382 56.748675 
L 181.459448 62.581452 
L 188.47042 74.944539 
L 195.807264 93.399144 
L 204.487525 118.167347 
L 215.658838 149.436008 
L 230.002049 186.229002 
L 240.64968 211.615436 
L 250.24553 233.865694 
L 258.479996 253.577637 
L 263.217792 267.575583 
L 263.393357 273.162884 
L 260.178397 273.338175 
L 253.324289 268.077655 
L 241.518303 255.436471 
L 228.078959 238.401132 
L 214.444342 218.543534 
L 199.383512 192.413289 
L 186.059982 161.766685 
L 177.712118 129.405584 
L 175.874417 102.939633 
L 178.295591 81.062362 
L 183.323539 64.429803 
L 187.582678 57.119559 
L 190.500569 56.022984 
L 192.311156 60.09599 
L 193.067143 67.271011 
L 194.370672 101.576461 
L 196.064512 120.940063 
L 200.193897 147.514749 
L 208.74955 181.900903 
L 220.157633 214.913663 
L 230.205989 239.081271 
L 246.950451 276.23443 
L 247.588116 279.433058 
L 245.234835 277.589858 
L 239.553288 270.111257 
L 230.210457 255.757044 
L 220.111989 238.157484 
L 208.539001 214.563976 
L 197.528088 185.832955 
L 189.420576 153.047151 
L 186.446463 118.363041 
L 188.712224 88.85105 
L 192.383787 70.746058 
L 195.264587 60.748175 
L 196.763161 56.757993 
L 197.027465 56.935023 
L 196.419518 60.188342 
L 194.979113 66.962176 
L 192.84717 78.220702 
L 190.712841 93.835233 
L 189.526208 113.706436 
L 190.385952 137.028577 
L 194.902743 166.427403 
L 206.628394 205.789234 
L 218.83525 234.299968 
L 229.337219 254.709949 
L 236.809249 267.722439 
L 242.226471 276.386542 
L 244.955377 280.162513 
L 244.740564 278.917035 
L 241.954251 273.239503 
L 235.781466 261.101923 
L 227.538065 244.143853 
L 218.311141 223.190026 
L 208.458812 196.700549 
L 199.816533 165.611035 
L 194.367073 132.234344 
L 192.947831 100.840438 
L 193.706409 81.367388 
L 194.583709 69.183759 
L 195.010035 61.568966 
L 194.759569 57.208042 
L 193.724597 56.171488 
L 191.603382 58.733097 
L 188.452704 65.869836 
L 184.84089 77.954925 
L 181.837366 94.756484 
L 180.767486 116.395711 
L 183.129682 141.706108 
L 192.725809 177.98738 
L 207.882382 212.331479 
L 222.929727 238.275048 
L 235.09857 256.019579 
L 245.333076 268.896975 
L 252.017769 275.569677 
L 255.362087 276.211761 
L 254.448319 270.398865 
L 250.417009 259.645259 
L 234.135837 221.39158 
L 225.011012 198.629665 
L 215.240434 171.432602 
L 205.74242 140.046101 
L 197.580232 106.211786 
L 192.512622 82.191108 
L 188.710148 67.234265 
L 184.639269 58.343324 
L 180.15209 55.688286 
L 175.383835 58.521213 
L 170.85065 66.402857 
L 167.443635 79.437452 
L 166.679379 97.432412 
L 170.11115 119.560443 
L 183.021628 154.233206 
L 202.550556 187.896446 
L 223.676812 216.595809 
L 240.729501 236.553279 
L 256.311852 252.57671 
L 269.657 263.818872 
L 278.359396 267.444135 
L 280.574719 262.489849 
L 277.828383 251.177 
L 270.91954 233.718156 
L 259.522699 208.861888 
L 244.983779 179.09115 
L 229.402351 148.463461 
L 213.512201 119.089697 
L 196.345952 91.413926 
L 180.419007 72.054259 
L 166.364984 61.948931 
L 155.318512 60.242134 
L 148.390336 64.974642 
L 146.280375 76.260456 
L 152.992907 96.305907 
L 170.169736 122.269806 
L 197.318504 153.663254 
L 225.463004 182.385237 
L 250.659595 206.41838 
L 273.377882 226.805785 
L 294.432095 243.812743 
L 308.927872 252.356172 
L 314.379177 251.682827 
L 314.460733 244.826574 
L 309.902646 232.606759 
L 299.199243 212.358587 
L 282.282147 185.742979 
L 261.212441 157.346499 
L 239.721329 132.78341 
L 211.332701 106.771278 
L 180.765754 86.661088 
L 153.675196 75.681109 
L 135.737201 73.185931 
L 128.924003 76.286575 
L 130.929872 82.458737 
L 140.043284 91.354206 
L 158.409537 105.073246 
L 186.587373 124.667808 
L 222.871121 150.607694 
L 255.830801 175.682048 
L 286.003543 199.87398 
L 310.649561 220.04325 
L 329.340412 234.587357 
L 338.80788 240.110091 
L 341.224901 238.531348 
L 338.17864 231.226898 
L 328.806812 217.126045 
L 311.910576 196.131647 
L 288.558069 171.459905 
L 262.954629 148.727378 
L 232.097607 126.489077 
L 192.227918 105.028361 
L 155.903856 91.717849 
L 131.73299 86.235966 
L 122.255435 85.622109 
L 121.058018 87.207087 
L 126.687269 90.668937 
L 140.545995 96.864443 
L 164.028857 107.035224 
L 196.67128 122.581218 
L 235.34143 144.206664 
L 273.621085 169.662268 
L 301.812215 191.130015 
L 324.347806 209.846433 
L 342.013347 225.168219 
L 351.769002 233.216995 
L 353.176118 233.322799 
L 349.767413 228.64731 
L 340.003518 217.661337 
L 322.44492 199.99285 
L 297.635465 177.935315 
L 269.207703 156.224097 
L 238.097266 136.383827 
L 197.135774 115.756943 
L 159.273231 101.422922 
L 132.317358 93.57782 
L 120.469191 90.738646 
L 118.576971 90.418775 
L 134.522198 94.746848 
L 155.173893 100.991477 
L 185.140185 111.885474 
L 222.248925 128.939266 
L 261.006551 151.717992 
L 296.100161 177.390922 
L 320.513338 198.401491 
L 338.887831 216.137548 
L 350.80728 228.873537 
L 354.229116 233.344025 
L 350.944265 231.060462 
L 325.589812 208.61127 
L 301.306072 188.336038 
L 274.897035 168.329945 
L 246.023806 148.957996 
L 209.434669 127.968856 
L 172.282812 110.230714 
L 123.600281 90.189017 
L 119.979827 87.563601 
L 124.385548 87.085765 
L 134.806086 88.613683 
L 152.99729 92.944237 
L 180.273168 101.995242 
L 214.884094 117.777233 
L 251.837052 140.593921 
L 284.513513 166.724687 
L 308.045552 189.559152 
L 325.701936 209.425222 
L 338.858972 226.761084 
L 344.314955 236.991502 
L 342.38791 238.507449 
L 335.116104 234.285442 
L 321.411007 223.738429 
L 299.859765 206.133464 
L 271.548533 183.387507 
L 240.151432 159.582284 
L 209.841751 138.243943 
L 176.925078 116.678892 
L 147.734988 98.042186 
L 130.471117 85.188524 
L 126.652548 79.191297 
L 130.4145 76.123686 
L 140.52926 76.152201 
L 155.100274 79.276158 
L 178.595909 88.267007 
L 208.737997 105.8366 
L 241.361289 132.711847 
L 272.239764 166.282836 
L 292.435819 193.028657 
L 307.502152 216.332713 
L 317.907798 236.340061 
L 320.756015 247.223342 
L 316.851791 250.176777 
L 307.262017 245.715671 
L 291.741126 234.408539 
L 269.096551 215.391887 
L 241.421272 190.591029 
L 213.339085 164.341435 
L 188.77713 140.175375 
L 164.177232 113.286528 
L 147.46906 89.41156 
L 142.561342 75.470481 
L 144.306099 66.146304 
L 150.63275 62.134769 
L 162.716706 63.578935 
L 180.655551 74.889475 
L 201.274739 97.430621 
L 222.461992 128.642983 
L 244.168537 166.247945 
L 260.435764 197.035179 
L 273.833232 224.435779 
L 283.359896 247.140573 
L 286.550419 259.931018 
L 284.145111 265.040017 
L 276.691376 262.576731 
L 264.528273 253.401959 
L 246.514284 236.19275 
L 228.591079 216.570076 
L 210.787705 194.675757 
L 191.787308 167.473378 
L 175.624855 137.769385 
L 165.037064 105.578599 
L 163.263722 85.180416 
L 165.688176 69.490089 
L 171.330035 58.719172 
L 177.307024 55.922353 
L 183.08091 59.993068 
L 188.15026 70.102643 
L 193.100886 85.60726 
L 198.794783 106.484523 
L 206.466203 133.570314 
L 217.359646 167.044521 
L 229.68189 199.74739 
L 239.018764 222.369897 
L 247.571745 242.378216 
L 254.638961 259.413744 
L 258.54389 271.225137 
L 258.257262 275.460258 
L 254.675756 274.294112 
L 247.251786 267.304762 
L 235.26428 252.832781 
L 221.544231 233.414711 
L 207.604788 210.23748 
L 193.931995 181.75146 
L 183.409864 149.45798 
L 178.72876 114.705976 
L 180.113779 90.030555 
L 184.328385 71.090022 
L 188.697111 60.154111 
L 191.805569 56.134574 
L 193.50723 57.277539 
L 194.120601 61.953034 
L 194.142701 67.791777 
L 193.648711 85.864019 
L 193.588013 98.520898 
L 194.054355 112.708191 
L 196.035173 134.443554 
L 201.460387 164.649845 
L 212.522222 202.522994 
L 223.575146 230.833686 
L 232.671168 251.027396 
L 243.265109 273.037295 
L 245.862232 279.022807 
L 245.208568 279.492669 
L 241.654954 274.822296 
L 234.432345 263.639745 
L 225.151034 247.571326 
L 214.522315 226.589041 
L 203.499139 200.128334 
L 194.182767 169.064788 
L 188.854625 135.072415 
L 188.524415 106.823722 
L 191.131947 83.377623 
L 194.24235 68.007769 
L 197.214031 56.625271 
L 196.987706 57.303346 
L 195.920172 60.999424 
L 193.874924 68.913232 
L 191.241324 81.515858 
L 188.903102 98.46378 
L 187.931364 119.936162 
L 189.537117 144.56832 
L 196.251855 178.142315 
L 208.579737 213.479596 
L 221.068218 239.977836 
L 231.405152 258.529163 
L 238.354962 269.706629 
L 243.368525 276.967168 
L 246.087041 279.946688 
L 245.429917 277.120488 
L 241.900088 269.427872 
L 235.009057 255.073507 
L 226.701642 236.981047 
L 217.464575 214.683534 
L 207.867741 186.95727 
L 199.743523 154.929737 
L 194.925239 121.766289 
L 193.636152 92.790995 
L 193.758954 80.308392 
L 193.971102 70.167851 
L 193.952315 63.050525 
L 193.54676 58.574054 
L 192.37525 56.075531 
L 190.130141 57.208743 
L 186.896485 62.823063 
L 183.102212 73.419191 
L 179.789138 88.768699 
L 178.234662 109.077211 
L 180.032358 133.492374 
L 188.534399 167.588383 
L 204.029325 203.191368 
L 220.421435 231.086924 
L 234.157513 250.621542 
L 246.137515 265.26036 
L 254.20454 273.20652 
L 259.017439 275.150622 
L 259.343482 271.108792 
L 256.649171 262.270243 
L 250.352045 246.632308 
L 240.77151 224.219316 
L 231.238962 201.336836 
L 222.190605 178.143276 
L 211.707153 148.355443 
L 201.735942 115.916605 
L 193.312929 86.423423 
L 187.493772 69.251928 
L 181.691214 59.02379 
L 175.977283 55.95843 
L 170.503214 58.750131 
L 165.791826 66.735102 
L 162.847894 80.006619 
L 163.325499 98.245594 
L 169.417738 122.651204 
L 186.243435 157.753474 
L 208.113822 190.093537 
L 230.089581 217.012423 
L 248.809074 237.15103 
L 264.813809 252.268738 
L 278.694959 262.578485 
L 285.835205 264.39138 
L 287.767456 259.054251 
L 284.872734 247.380937 
L 277.513369 229.326823 
L 265.275773 203.874503 
L 249.437274 173.736658 
L 232.354286 143.636419 
L 213.625491 114.075878 
L 194.052655 88.633951 
L 175.317162 71.229721 
L 159.272431 63.103491 
L 147.776018 63.140593 
L 142.226171 69.090708 
L 144.273339 83.792808 
L 156.211225 103.22218 
L 177.814986 128.122113 
L 209.265873 159.323819 
L 237.145604 185.291174 
L 264.549422 209.898269 
L 288.770788 230.528732 
L 308.101474 244.959524 
L 318.358432 249.702811 
L 321.874864 246.424005 
L 319.18323 236.468245 
L 310.751122 219.917651 
L 295.557319 196.088608 
L 274.781319 168.485832 
L 252.399078 143.316628 
L 224.829409 118.074112 
L 192.333511 95.879279 
L 160.339794 81.526055 
L 138.049198 76.459229 
L 127.672095 77.422631 
L 126.70287 81.186102 
L 132.378366 87.36955 
L 146.328016 97.251992 
L 170.020537 112.136527 
L 202.916941 133.116978 
L 241.596806 159.900389 
L 271.389052 182.37998 
L 298.406317 203.998305 
L 321.226856 222.668149 
L 337.302796 235.012529 
L 343.997686 238.383122 
L 344.265879 234.931027 
L 338.832021 225.840281 
L 326.296727 209.566907 
L 306.200073 187.319594 
L 284.322558 166.456179 
L 259.657247 146.392544 
L 226.406992 124.448037 
L 184.908762 104.194458 
L 150.175164 92.553799 
L 127.948045 87.789294 
L 120.623378 87.363192 
L 121.055231 89.036229 
L 128.230669 92.38069 
L 144.181603 98.654806 
L 169.7639 109.032733 
L 204.091951 124.974922 
L 243.300385 146.911989 
L 280.364283 171.877679 
L 307.764951 193.139915 
L 329.368137 211.525214 
L 345.575251 226.032776 
L 353.635257 233.003451 
L 353.711112 232.235714 
L 348.828596 226.57084 
L 337.072663 214.333713 
L 317.403147 195.704215 
L 290.950669 173.511587 
L 262.063344 152.670306 
L 228.449017 132.479447 
L 187.218449 112.948522 
L 151.507988 99.956623 
L 127.731671 92.938213 
L 119.199633 90.590319 
L 119.249576 90.418916 
L 124.828226 91.613262 
L 137.977706 94.904353 
L 160.294729 101.538825 
L 191.69971 113.189309 
L 229.371339 131.250415 
L 267.382533 154.766705 
L 297.139387 177.435379 
L 322.078944 199.680397 
L 339.65743 217.464859 
L 350.537484 229.937094 
L 353.011775 234.018172 
L 349.000118 231.514219 
L 339.378747 223.382703 
L 322.064331 208.450738 
L 297.032993 187.887433 
L 270.210177 167.73132 
L 241.208321 148.258027 
L 204.554373 126.953643 
L 168.004476 108.903962 
L 138.921349 96.057447 
L 124.26084 89.13113 
L 120.901081 86.052357 
L 125.417693 85.203459 
L 136.226868 86.562484 
L 154.214801 90.783164 
L 181.217085 99.968809 
L 215.317904 116.222675 
L 251.543146 139.822865 
L 283.582452 166.970563 
L 306.388133 190.470026 
L 323.439834 210.928356 
L 335.859969 228.649915 
L 340.509481 238.991702 
L 337.965761 240.46375 
L 330.097057 236.099506 
L 315.749096 225.265579 
L 265.038321 184.000425 
L 233.739569 159.561937 
L 204.181134 137.660259 
L 172.386238 115.05668 
L 145.71494 95.624905 
L 132.288144 83.399268 
L 129.215017 76.7518 
L 133.107149 73.162949 
L 143.117444 72.887316 
L 157.836577 76.245919 
L 180.915352 86.203068 
L 210.126467 105.687293 
L 241.421936 135.096459 
L 271.188003 171.541511 
L 290.067874 199.368492 
L 304.03365 223.467629 
L 312.469533 242.548355 
L 313.525359 251.373934 
L 308.900077 253.25883 
L 299.023734 248.424549 
L 283.018876 236.504497 
L 260.26918 216.80505 
L 233.368363 191.525672 
L 207.73118 165.767335 
L 184.482761 140.304516 
L 162.683137 112.184138 
L 149.548162 87.35349 
L 146.971017 73.561847 
L 149.647032 64.225363 
L 156.630666 59.850812 
L 169.14123 62.693362 
L 184.790008 76.197504 
L 200.861759 98.482193 
L 217.969218 128.400304 
L 236.570031 164.588829 
L 251.728004 195.431712 
L 264.794484 223.137855 
L 274.786866 246.588422 
L 279.295417 261.976377 
L 278.079937 267.573413 
L 272.397157 266.597676 
L 262.489081 259.438438 
L 246.834178 244.370948 
L 230.302332 225.810096 
L 213.387852 204.254132 
L 195.574188 177.652943 
L 179.834517 147.382281 
L 169.40159 114.624764 
L 167.196486 91.662015 
L 169.413145 73.466622 
L 174.595992 60.622933 
L 179.919929 55.828677 
L 184.754624 57.802041 
L 188.514065 65.602185 
L 191.786317 78.371499 
L 195.221758 95.49546 
L 199.866974 117.923357 
L 207.0661 146.785644 
L 218.183589 182.121457 
L 229.680747 212.544523 
L 238.341586 233.331069 
L 246.011708 251.124967 
L 251.955823 265.474248 
L 254.809095 274.710403 
L 253.450564 276.936553 
L 248.56037 273.057486 
L 239.541419 262.495382 
L 227.111956 245.156058 
L 214.679255 225.031464 
L 201.358639 199.071925 
L 189.695474 168.430196 
L 189.695474 168.430196 
" clip-path="url(#pdbdfdac045)" style="fill: none; stroke: #1f77b4; stroke-width: 0.5; stroke-linecap: square"/>
   </g>
   <g id="patch_3">
    <path d="M 57.6 307.584 
L 57.6 41.472 
" style="fill: none; stroke: #000000; stroke-width: 0.8; stroke-linejoin: miter; stroke-linecap: square"/>
   </g>
   <g id="patch_4">
    <path d="M 414.72 307.584 
L 414.72 41.472 
" style="fill: none; stroke: #000000; stroke-width: 0.8; stroke-linejoin: miter; stroke-linecap: square"/>
   </g>
   <g id="patch_5">
    <path d="M 57.6 307.584 
L 414.72 307.584 
" style="fill: none; stroke: #000000; stroke-width: 0.8; stroke-linejoin: miter; stroke-linecap: square"/>
   </g>
   <g id="patch_6">
    <path d="M 57.6 41.472 
L 414.72 41.472 
" style="fill: none; stroke: #000000; stroke-width: 0.8; stroke-linejoin: miter; stroke-linecap: square"/>
   </g>
   <g id="text_13">
    <!-- Real Space Projection onto r-z plane with initial r = -0.02 -->
    <g transform="translate(66.41625 35.472) scale(0.12 -0.12)">
     <defs>
      <path id="DejaVuSans-52" d="M 2841 2188 
Q 3044 2119 3236 1894 
Q 3428 1669 3622 1275 
L 4263 0 
L 3584 0 
L 2988 1197 
Q 2756 1666 2539 1819 
Q 2322 1972 1947 1972 
L 1259 1972 
L 1259 0 
L 628 0 
L 628 4666 
L 2053 4666 
Q 2853 4666 3247 4331 
Q 3641 3997 3641 3322 
Q 3641 2881 3436 2590 
Q 3231 2300 2841 2188 
z
M 1259 4147 
L 1259 2491 
L 2053 2491 
Q 2509 2491 2742 2702 
Q 2975 2913 2975 3322 
Q 2975 3731 2742 3939 
Q 2509 4147 2053 4147 
L 1259 4147 
z
" transform="scale(0.015625)"/>
      <path id="DejaVuSans-65" d="M 3597 1894 
L 3597 1613 
L 953 1613 
Q 991 1019 1311 708 
Q 1631 397 2203 397 
Q 2534 397 2845 478 
Q 3156 559 3463 722 
L 3463 178 
Q 3153 47 2828 -22 
Q 2503 -91 2169 -91 
Q 1331 -91 842 396 
Q 353 884 353 1716 
Q 353 2575 817 3079 
Q 1281 3584 2069 3584 
Q 2775 3584 3186 3129 
Q 3597 2675 3597 1894 
z
M 3022 2063 
Q 3016 2534 2758 2815 
Q 2500 3097 2075 3097 
Q 1594 3097 1305 2825 
Q 1016 2553 972 2059 
L 3022 2063 
z
" transform="scale(0.015625)"/>
      <path id="DejaVuSans-61" d="M 2194 1759 
Q 1497 1759 1228 1600 
Q 959 1441 959 1056 
Q 959 750 1161 570 
Q 1363 391 1709 391 
Q 2188 391 2477 730 
Q 2766 1069 2766 1631 
L 2766 1759 
L 2194 1759 
z
M 3341 1997 
L 3341 0 
L 2766 0 
L 2766 531 
Q 2569 213 2275 61 
Q 1981 -91 1556 -91 
Q 1019 -91 701 211 
Q 384 513 384 1019 
Q 384 1609 779 1909 
Q 1175 2209 1959 2209 
L 2766 2209 
L 2766 2266 
Q 2766 2663 2505 2880 
Q 2244 3097 1772 3097 
Q 1472 3097 1187 3025 
Q 903 2953 641 2809 
L 641 3341 
Q 956 3463 1253 3523 
Q 1550 3584 1831 3584 
Q 2591 3584 2966 3190 
Q 3341 2797 3341 1997 
z
" transform="scale(0.015625)"/>
      <path id="DejaVuSans-6c" d="M 603 4863 
L 1178 4863 
L 1178 0 
L 603 0 
L 603 4863 
z
" transform="scale(0.015625)"/>
      <path id="DejaVuSans-20" transform="scale(0.015625)"/>
      <path id="DejaVuSans-53" d="M 3425 4513 
L 3425 3897 
Q 3066 4069 2747 4153 
Q 2428 4238 2131 4238 
Q 1616 4238 1336 4038 
Q 1056 3838 1056 3469 
Q 1056 3159 1242 3001 
Q 1428 2844 1947 2747 
L 2328 2669 
Q 3034 2534 3370 2195 
Q 3706 1856 3706 1288 
Q 3706 609 3251 259 
Q 2797 -91 1919 -91 
Q 1588 -91 1214 -16 
Q 841 59 441 206 
L 441 856 
Q 825 641 1194 531 
Q 1563 422 1919 422 
Q 2459 422 2753 634 
Q 3047 847 3047 1241 
Q 3047 1584 2836 1778 
Q 2625 1972 2144 2069 
L 1759 2144 
Q 1053 2284 737 2584 
Q 422 2884 422 3419 
Q 422 4038 858 4394 
Q 1294 4750 2059 4750 
Q 2388 4750 2728 4690 
Q 3069 4631 3425 4513 
z
" transform="scale(0.015625)"/>
      <path id="DejaVuSans-70" d="M 1159 525 
L 1159 -1331 
L 581 -1331 
L 581 3500 
L 1159 3500 
L 1159 2969 
Q 1341 3281 1617 3432 
Q 1894 3584 2278 3584 
Q 2916 3584 3314 3078 
Q 3713 2572 3713 1747 
Q 3713 922 3314 415 
Q 2916 -91 2278 -91 
Q 1894 -91 1617 61 
Q 1341 213 1159 525 
z
M 3116 1747 
Q 3116 2381 2855 2742 
Q 2594 3103 2138 3103 
Q 1681 3103 1420 2742 
Q 1159 2381 1159 1747 
Q 1159 1113 1420 752 
Q 1681 391 2138 391 
Q 2594 391 2855 752 
Q 3116 1113 3116 1747 
z
" transform="scale(0.015625)"/>
      <path id="DejaVuSans-63" d="M 3122 3366 
L 3122 2828 
Q 2878 2963 2633 3030 
Q 2388 3097 2138 3097 
Q 1578 3097 1268 2742 
Q 959 2388 959 1747 
Q 959 1106 1268 751 
Q 1578 397 2138 397 
Q 2388 397 2633 464 
Q 2878 531 3122 666 
L 3122 134 
Q 2881 22 2623 -34 
Q 2366 -91 2075 -91 
Q 1284 -91 818 406 
Q 353 903 353 1747 
Q 353 2603 823 3093 
Q 1294 3584 2113 3584 
Q 2378 3584 2631 3529 
Q 2884 3475 3122 3366 
z
" transform="scale(0.015625)"/>
      <path id="DejaVuSans-50" d="M 1259 4147 
L 1259 2394 
L 2053 2394 
Q 2494 2394 2734 2622 
Q 2975 2850 2975 3272 
Q 2975 3691 2734 3919 
Q 2494 4147 2053 4147 
L 1259 4147 
z
M 628 4666 
L 2053 4666 
Q 2838 4666 3239 4311 
Q 3641 3956 3641 3272 
Q 3641 2581 3239 2228 
Q 2838 1875 2053 1875 
L 1259 1875 
L 1259 0 
L 628 0 
L 628 4666 
z
" transform="scale(0.015625)"/>
      <path id="DejaVuSans-6f" d="M 1959 3097 
Q 1497 3097 1228 2736 
Q 959 2375 959 1747 
Q 959 1119 1226 758 
Q 1494 397 1959 397 
Q 2419 397 2687 759 
Q 2956 1122 2956 1747 
Q 2956 2369 2687 2733 
Q 2419 3097 1959 3097 
z
M 1959 3584 
Q 2709 3584 3137 3096 
Q 3566 2609 3566 1747 
Q 3566 888 3137 398 
Q 2709 -91 1959 -91 
Q 1206 -91 779 398 
Q 353 888 353 1747 
Q 353 2609 779 3096 
Q 1206 3584 1959 3584 
z
" transform="scale(0.015625)"/>
      <path id="DejaVuSans-6a" d="M 603 3500 
L 1178 3500 
L 1178 -63 
Q 1178 -731 923 -1031 
Q 669 -1331 103 -1331 
L -116 -1331 
L -116 -844 
L 38 -844 
Q 366 -844 484 -692 
Q 603 -541 603 -63 
L 603 3500 
z
M 603 4863 
L 1178 4863 
L 1178 4134 
L 603 4134 
L 603 4863 
z
" transform="scale(0.015625)"/>
      <path id="DejaVuSans-74" d="M 1172 4494 
L 1172 3500 
L 2356 3500 
L 2356 3053 
L 1172 3053 
L 1172 1153 
Q 1172 725 1289 603 
Q 1406 481 1766 481 
L 2356 481 
L 2356 0 
L 1766 0 
Q 1100 0 847 248 
Q 594 497 594 1153 
L 594 3053 
L 172 3053 
L 172 3500 
L 594 3500 
L 594 4494 
L 1172 4494 
z
" transform="scale(0.015625)"/>
      <path id="DejaVuSans-69" d="M 603 3500 
L 1178 3500 
L 1178 0 
L 603 0 
L 603 3500 
z
M 603 4863 
L 1178 4863 
L 1178 4134 
L 603 4134 
L 603 4863 
z
" transform="scale(0.015625)"/>
      <path id="DejaVuSans-6e" d="M 3513 2113 
L 3513 0 
L 2938 0 
L 2938 2094 
Q 2938 2591 2744 2837 
Q 2550 3084 2163 3084 
Q 1697 3084 1428 2787 
Q 1159 2491 1159 1978 
L 1159 0 
L 581 0 
L 581 3500 
L 1159 3500 
L 1159 2956 
Q 1366 3272 1645 3428 
Q 1925 3584 2291 3584 
Q 2894 3584 3203 3211 
Q 3513 2838 3513 2113 
z
" transform="scale(0.015625)"/>
      <path id="DejaVuSans-2d" d="M 313 2009 
L 1997 2009 
L 1997 1497 
L 313 1497 
L 313 2009 
z
" transform="scale(0.015625)"/>
      <path id="DejaVuSans-77" d="M 269 3500 
L 844 3500 
L 1563 769 
L 2278 3500 
L 2956 3500 
L 3675 769 
L 4391 3500 
L 4966 3500 
L 4050 0 
L 3372 0 
L 2619 2869 
L 1863 0 
L 1184 0 
L 269 3500 
z
" transform="scale(0.015625)"/>
      <path id="DejaVuSans-68" d="M 3513 2113 
L 3513 0 
L 2938 0 
L 2938 2094 
Q 2938 2591 2744 2837 
Q 2550 3084 2163 3084 
Q 1697 3084 1428 2787 
Q 1159 2491 1159 1978 
L 1159 0 
L 581 0 
L 581 4863 
L 1159 4863 
L 1159 2956 
Q 1366 3272 1645 3428 
Q 1925 3584 2291 3584 
Q 2894 3584 3203 3211 
Q 3513 2838 3513 2113 
z
" transform="scale(0.015625)"/>
      <path id="DejaVuSans-3d" d="M 678 2906 
L 4684 2906 
L 4684 2381 
L 678 2381 
L 678 2906 
z
M 678 1631 
L 4684 1631 
L 4684 1100 
L 678 1100 
L 678 1631 
z
" transform="scale(0.015625)"/>
     </defs>
     <use xlink:href="#DejaVuSans-52"/>
     <use xlink:href="#DejaVuSans-65" x="64.982422"/>
     <use xlink:href="#DejaVuSans-61" x="126.505859"/>
     <use xlink:href="#DejaVuSans-6c" x="187.785156"/>
     <use xlink:href="#DejaVuSans-20" x="215.568359"/>
     <use xlink:href="#DejaVuSans-53" x="247.355469"/>
     <use xlink:href="#DejaVuSans-70" x="310.832031"/>
     <use xlink:href="#DejaVuSans-61" x="374.308594"/>
     <use xlink:href="#DejaVuSans-63" x="435.587891"/>
     <use xlink:href="#DejaVuSans-65" x="490.568359"/>
     <use xlink:href="#DejaVuSans-20" x="552.091797"/>
     <use xlink:href="#DejaVuSans-50" x="583.878906"/>
     <use xlink:href="#DejaVuSans-72" x="642.431641"/>
     <use xlink:href="#DejaVuSans-6f" x="681.294922"/>
     <use xlink:href="#DejaVuSans-6a" x="742.476562"/>
     <use xlink:href="#DejaVuSans-65" x="770.259766"/>
     <use xlink:href="#DejaVuSans-63" x="831.783203"/>
     <use xlink:href="#DejaVuSans-74" x="886.763672"/>
     <use xlink:href="#DejaVuSans-69" x="925.972656"/>
     <use xlink:href="#DejaVuSans-6f" x="953.755859"/>
     <use xlink:href="#DejaVuSans-6e" x="1014.9375"/>
     <use xlink:href="#DejaVuSans-20" x="1078.316406"/>
     <use xlink:href="#DejaVuSans-6f" x="1110.103516"/>
     <use xlink:href="#DejaVuSans-6e" x="1171.285156"/>
     <use xlink:href="#DejaVuSans-74" x="1234.664062"/>
     <use xlink:href="#DejaVuSans-6f" x="1273.873047"/>
     <use xlink:href="#DejaVuSans-20" x="1335.054688"/>
     <use xlink:href="#DejaVuSans-72" x="1366.841797"/>
     <use xlink:href="#DejaVuSans-2d" x="1401.580078"/>
     <use xlink:href="#DejaVuSans-7a" x="1437.664062"/>
     <use xlink:href="#DejaVuSans-20" x="1490.154297"/>
     <use xlink:href="#DejaVuSans-70" x="1521.941406"/>
     <use xlink:href="#DejaVuSans-6c" x="1585.417969"/>
     <use xlink:href="#DejaVuSans-61" x="1613.201172"/>
     <use xlink:href="#DejaVuSans-6e" x="1674.480469"/>
     <use xlink:href="#DejaVuSans-65" x="1737.859375"/>
     <use xlink:href="#DejaVuSans-20" x="1799.382812"/>
     <use xlink:href="#DejaVuSans-77" x="1831.169922"/>
     <use xlink:href="#DejaVuSans-69" x="1912.957031"/>
     <use xlink:href="#DejaVuSans-74" x="1940.740234"/>
     <use xlink:href="#DejaVuSans-68" x="1979.949219"/>
     <use xlink:href="#DejaVuSans-20" x="2043.328125"/>
     <use xlink:href="#DejaVuSans-69" x="2075.115234"/>
     <use xlink:href="#DejaVuSans-6e" x="2102.898438"/>
     <use xlink:href="#DejaVuSans-69" x="2166.277344"/>
     <use xlink:href="#DejaVuSans-74" x="2194.060547"/>
     <use xlink:href="#DejaVuSans-69" x="2233.269531"/>
     <use xlink:href="#DejaVuSans-61" x="2261.052734"/>
     <use xlink:href="#DejaVuSans-6c" x="2322.332031"/>
     <use xlink:href="#DejaVuSans-20" x="2350.115234"/>
     <use xlink:href="#DejaVuSans-72" x="2381.902344"/>
     <use xlink:href="#DejaVuSans-20" x="2423.015625"/>
     <use xlink:href="#DejaVuSans-3d" x="2454.802734"/>
     <use xlink:href="#DejaVuSans-20" x="2538.591797"/>
     <use xlink:href="#DejaVuSans-2d" x="2570.378906"/>
     <use xlink:href="#DejaVuSans-30" x="2606.462891"/>
     <use xlink:href="#DejaVuSans-2e" x="2670.085938"/>
     <use xlink:href="#DejaVuSans-30" x="2701.873047"/>
     <use xlink:href="#DejaVuSans-32" x="2765.496094"/>
    </g>
   </g>
  </g>
 </g>
 <defs>
  <clipPath id="pdbdfdac045">
   <rect x="57.6" y="41.472" width="357.12" height="266.112"/>
  </clipPath>
 </defs>
</svg>
