<?xml version="1.0" encoding="utf-8" standalone="no"?>
<!DOCTYPE svg PUBLIC "-//W3C//DTD SVG 1.1//EN"
  "http://www.w3.org/Graphics/SVG/1.1/DTD/svg11.dtd">
<svg xmlns:xlink="http://www.w3.org/1999/xlink" width="460.8pt" height="345.6pt" viewBox="0 0 460.8 345.6" xmlns="http://www.w3.org/2000/svg" version="1.1">
 <metadata>
  <rdf:RDF xmlns:dc="http://purl.org/dc/elements/1.1/" xmlns:cc="http://creativecommons.org/ns#" xmlns:rdf="http://www.w3.org/1999/02/22-rdf-syntax-ns#">
   <cc:Work>
    <dc:type rdf:resource="http://purl.org/dc/dcmitype/StillImage"/>
    <dc:date>2023-10-23T13:51:37.367257</dc:date>
    <dc:format>image/svg+xml</dc:format>
    <dc:creator>
     <cc:Agent>
      <dc:title>Matplotlib v3.8.0, https://matplotlib.org/</dc:title>
     </cc:Agent>
    </dc:creator>
   </cc:Work>
  </rdf:RDF>
 </metadata>
 <defs>
  <style type="text/css">*{stroke-linejoin: round; stroke-linecap: butt}</style>
 </defs>
 <g id="figure_1">
  <g id="patch_1">
   <path d="M 0 345.6 
L 460.8 345.6 
L 460.8 0 
L 0 0 
z
" style="fill: #ffffff"/>
  </g>
  <g id="axes_1">
   <g id="patch_2">
    <path d="M 57.6 307.584 
L 414.72 307.584 
L 414.72 41.472 
L 57.6 41.472 
z
" style="fill: #ffffff"/>
   </g>
   <g id="matplotlib.axis_1">
    <g id="xtick_1">
     <g id="line2d_1">
      <defs>
       <path id="ma73b77f767" d="M 0 0 
L 0 3.5 
" style="stroke: #000000; stroke-width: 0.8"/>
      </defs>
      <g>
       <use xlink:href="#ma73b77f767" x="93.312" y="307.584" style="stroke: #000000; stroke-width: 0.8"/>
      </g>
     </g>
     <g id="text_1">
      <!-- −0.4 -->
      <g transform="translate(81.170594 322.182437) scale(0.1 -0.1)">
       <defs>
        <path id="DejaVuSans-2212" d="M 678 2272 
L 4684 2272 
L 4684 1741 
L 678 1741 
L 678 2272 
z
" transform="scale(0.015625)"/>
        <path id="DejaVuSans-30" d="M 2034 4250 
Q 1547 4250 1301 3770 
Q 1056 3291 1056 2328 
Q 1056 1369 1301 889 
Q 1547 409 2034 409 
Q 2525 409 2770 889 
Q 3016 1369 3016 2328 
Q 3016 3291 2770 3770 
Q 2525 4250 2034 4250 
z
M 2034 4750 
Q 2819 4750 3233 4129 
Q 3647 3509 3647 2328 
Q 3647 1150 3233 529 
Q 2819 -91 2034 -91 
Q 1250 -91 836 529 
Q 422 1150 422 2328 
Q 422 3509 836 4129 
Q 1250 4750 2034 4750 
z
" transform="scale(0.015625)"/>
        <path id="DejaVuSans-2e" d="M 684 794 
L 1344 794 
L 1344 0 
L 684 0 
L 684 794 
z
" transform="scale(0.015625)"/>
        <path id="DejaVuSans-34" d="M 2419 4116 
L 825 1625 
L 2419 1625 
L 2419 4116 
z
M 2253 4666 
L 3047 4666 
L 3047 1625 
L 3713 1625 
L 3713 1100 
L 3047 1100 
L 3047 0 
L 2419 0 
L 2419 1100 
L 313 1100 
L 313 1709 
L 2253 4666 
z
" transform="scale(0.015625)"/>
       </defs>
       <use xlink:href="#DejaVuSans-2212"/>
       <use xlink:href="#DejaVuSans-30" x="83.789062"/>
       <use xlink:href="#DejaVuSans-2e" x="147.412109"/>
       <use xlink:href="#DejaVuSans-34" x="179.199219"/>
      </g>
     </g>
    </g>
    <g id="xtick_2">
     <g id="line2d_2">
      <g>
       <use xlink:href="#ma73b77f767" x="164.736" y="307.584" style="stroke: #000000; stroke-width: 0.8"/>
      </g>
     </g>
     <g id="text_2">
      <!-- −0.2 -->
      <g transform="translate(152.594594 322.182437) scale(0.1 -0.1)">
       <defs>
        <path id="DejaVuSans-32" d="M 1228 531 
L 3431 531 
L 3431 0 
L 469 0 
L 469 531 
Q 828 903 1448 1529 
Q 2069 2156 2228 2338 
Q 2531 2678 2651 2914 
Q 2772 3150 2772 3378 
Q 2772 3750 2511 3984 
Q 2250 4219 1831 4219 
Q 1534 4219 1204 4116 
Q 875 4013 500 3803 
L 500 4441 
Q 881 4594 1212 4672 
Q 1544 4750 1819 4750 
Q 2544 4750 2975 4387 
Q 3406 4025 3406 3419 
Q 3406 3131 3298 2873 
Q 3191 2616 2906 2266 
Q 2828 2175 2409 1742 
Q 1991 1309 1228 531 
z
" transform="scale(0.015625)"/>
       </defs>
       <use xlink:href="#DejaVuSans-2212"/>
       <use xlink:href="#DejaVuSans-30" x="83.789062"/>
       <use xlink:href="#DejaVuSans-2e" x="147.412109"/>
       <use xlink:href="#DejaVuSans-32" x="179.199219"/>
      </g>
     </g>
    </g>
    <g id="xtick_3">
     <g id="line2d_3">
      <g>
       <use xlink:href="#ma73b77f767" x="236.16" y="307.584" style="stroke: #000000; stroke-width: 0.8"/>
      </g>
     </g>
     <g id="text_3">
      <!-- 0.0 -->
      <g transform="translate(228.208438 322.182437) scale(0.1 -0.1)">
       <use xlink:href="#DejaVuSans-30"/>
       <use xlink:href="#DejaVuSans-2e" x="63.623047"/>
       <use xlink:href="#DejaVuSans-30" x="95.410156"/>
      </g>
     </g>
    </g>
    <g id="xtick_4">
     <g id="line2d_4">
      <g>
       <use xlink:href="#ma73b77f767" x="307.584" y="307.584" style="stroke: #000000; stroke-width: 0.8"/>
      </g>
     </g>
     <g id="text_4">
      <!-- 0.2 -->
      <g transform="translate(299.632437 322.182437) scale(0.1 -0.1)">
       <use xlink:href="#DejaVuSans-30"/>
       <use xlink:href="#DejaVuSans-2e" x="63.623047"/>
       <use xlink:href="#DejaVuSans-32" x="95.410156"/>
      </g>
     </g>
    </g>
    <g id="xtick_5">
     <g id="line2d_5">
      <g>
       <use xlink:href="#ma73b77f767" x="379.008" y="307.584" style="stroke: #000000; stroke-width: 0.8"/>
      </g>
     </g>
     <g id="text_5">
      <!-- 0.4 -->
      <g transform="translate(371.056437 322.182437) scale(0.1 -0.1)">
       <use xlink:href="#DejaVuSans-30"/>
       <use xlink:href="#DejaVuSans-2e" x="63.623047"/>
       <use xlink:href="#DejaVuSans-34" x="95.410156"/>
      </g>
     </g>
    </g>
    <g id="text_6">
     <!-- r -->
     <g transform="translate(234.104531 335.860562) scale(0.1 -0.1)">
      <defs>
       <path id="DejaVuSans-72" d="M 2631 2963 
Q 2534 3019 2420 3045 
Q 2306 3072 2169 3072 
Q 1681 3072 1420 2755 
Q 1159 2438 1159 1844 
L 1159 0 
L 581 0 
L 581 3500 
L 1159 3500 
L 1159 2956 
Q 1341 3275 1631 3429 
Q 1922 3584 2338 3584 
Q 2397 3584 2469 3576 
Q 2541 3569 2628 3553 
L 2631 2963 
z
" transform="scale(0.015625)"/>
      </defs>
      <use xlink:href="#DejaVuSans-72"/>
     </g>
    </g>
   </g>
   <g id="matplotlib.axis_2">
    <g id="ytick_1">
     <g id="line2d_6">
      <defs>
       <path id="md7c3197c6d" d="M 0 0 
L -3.5 0 
" style="stroke: #000000; stroke-width: 0.8"/>
      </defs>
      <g>
       <use xlink:href="#md7c3197c6d" x="57.6" y="280.9728" style="stroke: #000000; stroke-width: 0.8"/>
      </g>
     </g>
     <g id="text_7">
      <!-- −0.4 -->
      <g transform="translate(26.317187 284.772019) scale(0.1 -0.1)">
       <use xlink:href="#DejaVuSans-2212"/>
       <use xlink:href="#DejaVuSans-30" x="83.789062"/>
       <use xlink:href="#DejaVuSans-2e" x="147.412109"/>
       <use xlink:href="#DejaVuSans-34" x="179.199219"/>
      </g>
     </g>
    </g>
    <g id="ytick_2">
     <g id="line2d_7">
      <g>
       <use xlink:href="#md7c3197c6d" x="57.6" y="227.7504" style="stroke: #000000; stroke-width: 0.8"/>
      </g>
     </g>
     <g id="text_8">
      <!-- −0.2 -->
      <g transform="translate(26.317187 231.549619) scale(0.1 -0.1)">
       <use xlink:href="#DejaVuSans-2212"/>
       <use xlink:href="#DejaVuSans-30" x="83.789062"/>
       <use xlink:href="#DejaVuSans-2e" x="147.412109"/>
       <use xlink:href="#DejaVuSans-32" x="179.199219"/>
      </g>
     </g>
    </g>
    <g id="ytick_3">
     <g id="line2d_8">
      <g>
       <use xlink:href="#md7c3197c6d" x="57.6" y="174.528" style="stroke: #000000; stroke-width: 0.8"/>
      </g>
     </g>
     <g id="text_9">
      <!-- 0.0 -->
      <g transform="translate(34.696875 178.327219) scale(0.1 -0.1)">
       <use xlink:href="#DejaVuSans-30"/>
       <use xlink:href="#DejaVuSans-2e" x="63.623047"/>
       <use xlink:href="#DejaVuSans-30" x="95.410156"/>
      </g>
     </g>
    </g>
    <g id="ytick_4">
     <g id="line2d_9">
      <g>
       <use xlink:href="#md7c3197c6d" x="57.6" y="121.3056" style="stroke: #000000; stroke-width: 0.8"/>
      </g>
     </g>
     <g id="text_10">
      <!-- 0.2 -->
      <g transform="translate(34.696875 125.104819) scale(0.1 -0.1)">
       <use xlink:href="#DejaVuSans-30"/>
       <use xlink:href="#DejaVuSans-2e" x="63.623047"/>
       <use xlink:href="#DejaVuSans-32" x="95.410156"/>
      </g>
     </g>
    </g>
    <g id="ytick_5">
     <g id="line2d_10">
      <g>
       <use xlink:href="#md7c3197c6d" x="57.6" y="68.0832" style="stroke: #000000; stroke-width: 0.8"/>
      </g>
     </g>
     <g id="text_11">
      <!-- 0.4 -->
      <g transform="translate(34.696875 71.882419) scale(0.1 -0.1)">
       <use xlink:href="#DejaVuSans-30"/>
       <use xlink:href="#DejaVuSans-2e" x="63.623047"/>
       <use xlink:href="#DejaVuSans-34" x="95.410156"/>
      </g>
     </g>
    </g>
    <g id="text_12">
     <!-- z -->
     <g transform="translate(20.2375 177.152219) rotate(-90) scale(0.1 -0.1)">
      <defs>
       <path id="DejaVuSans-7a" d="M 353 3500 
L 3084 3500 
L 3084 2975 
L 922 459 
L 3084 459 
L 3084 0 
L 275 0 
L 275 525 
L 2438 3041 
L 353 3041 
L 353 3500 
z
" transform="scale(0.015625)"/>
      </defs>
      <use xlink:href="#DejaVuSans-7a"/>
     </g>
    </g>
   </g>
   <g id="line2d_11">
    <path d="M 236.16 210.0096 
L 243.02936 211.537295 
L 279.87333 217.738366 
L 319.302701 220.298589 
L 352.809021 218.674225 
L 376.747968 214.816734 
L 390.755674 210.620475 
L 394.89571 207.514255 
L 390.948982 205.434883 
L 380.284986 204.429341 
L 367.308719 204.050564 
L 350.694957 203.778666 
L 332.208802 203.364042 
L 306.830931 202.317866 
L 272.302931 199.762161 
L 227.754145 194.395886 
L 178.760212 185.940388 
L 146.847491 179.228456 
L 108.508369 170.57714 
L 98.112087 168.59923 
L 93.976327 168.553747 
L 95.78942 170.389642 
L 104.901754 174.6863 
L 122.744117 181.51208 
L 147.35006 189.564961 
L 179.556939 198.296444 
L 218.423072 206.171073 
L 262.803247 211.394912 
L 309.439686 212.24818 
L 346.015193 209.407061 
L 374.137481 204.93837 
L 388.176994 201.683568 
L 393.148768 199.894693 
L 391.736202 199.409716 
L 385.24964 199.850832 
L 356.741265 202.75495 
L 333.147819 204.556154 
L 303.736478 205.632786 
L 269.601748 205.119472 
L 229.004693 202.009245 
L 178.970839 194.595245 
L 143.540297 187.166999 
L 118.373926 180.939015 
L 90.859457 173.676413 
L 92.688845 174.458084 
L 100.468756 177.050918 
L 116.344394 181.871035 
L 140.139195 188.338692 
L 171.314089 195.504415 
L 209.061664 202.09016 
L 252.603848 206.630511 
L 298.780778 207.664534 
L 341.878082 205.069802 
L 368.643813 201.800103 
L 391.674143 198.204064 
L 392.634535 198.200116 
L 389.485921 198.98583 
L 380.596093 200.823243 
L 364.725435 203.591155 
L 341.850895 206.641964 
L 312.436957 208.994577 
L 276.73458 209.487186 
L 236.809757 207.011914 
L 184.611471 199.169798 
L 147.211125 190.549543 
L 120.508413 182.913932 
L 103.44551 177.294144 
L 94.71188 174.007203 
L 91.633395 172.394354 
L 94.509521 172.612523 
L 103.095636 174.574451 
L 119.152175 178.532813 
L 141.607763 183.874044 
L 171.573961 190.25069 
L 208.245314 196.590763 
L 250.764634 201.652218 
L 295.793008 204.140709 
L 336.592422 203.870231 
L 362.556902 202.63889 
L 379.245487 201.664744 
L 388.633947 201.347294 
L 393.353291 201.745237 
L 393.270384 202.981502 
L 387.641694 205.208561 
L 375.05508 208.38817 
L 355.34834 211.84264 
L 328.819367 214.560909 
L 295.521547 215.280759 
L 256.683605 212.624732 
L 204.433822 203.582627 
L 163.576562 192.504692 
L 133.842859 182.279451 
L 114.600535 174.47439 
L 101.943951 168.329882 
L 96.909274 164.585664 
L 100.183767 163.434366 
L 111.078258 164.998645 
L 129.547398 168.853124 
L 156.526962 174.8413 
L 186.423554 181.217347 
L 220.191031 187.725977 
L 261.093173 194.371 
L 303.68491 199.750875 
L 368.278453 205.901178 
L 385.740758 208.359929 
L 394.022245 211.190208 
L 394.656075 214.618124 
L 388.410241 218.300764 
L 375.100001 221.977949 
L 354.729653 224.665551 
L 327.478319 225.073474 
L 294.186331 221.820861 
L 245.950482 211.182908 
L 201.260552 196.195059 
L 165.986828 181.33363 
L 142.244657 169.716149 
L 124.292395 159.598224 
L 111.899722 150.622541 
L 109.672985 145.654891 
L 116.934633 144.331908 
L 132.374229 146.326237 
L 156.057815 151.278219 
L 189.508475 159.361035 
L 229.363427 169.543338 
L 270.38062 180.340163 
L 309.926001 191.272789 
L 347.280029 202.998116 
L 373.493362 213.888368 
L 387.534568 223.756067 
L 390.447371 231.942312 
L 384.677379 237.641304 
L 370.640625 240.384229 
L 346.843803 238.000791 
L 312.7636 227.859079 
L 271.921267 210.11806 
L 230.176078 188.430043 
L 197.327563 169.683127 
L 167.970488 151.664028 
L 144.411906 135.563078 
L 131.167864 123.639739 
L 130.370336 118.610259 
L 137.868182 117.411709 
L 154.066884 119.992618 
L 179.531982 126.732996 
L 214.294467 138.108173 
L 248.916844 151.307964 
L 282.289316 166.11253 
L 317.802888 185.406415 
L 346.391973 206.226145 
L 365.743424 227.836387 
L 372.547761 244.01136 
L 370.033943 253.049917 
L 363.053507 254.129215 
L 352.262913 249.903685 
L 336.221854 239.495699 
L 312.984334 221.704329 
L 281.466808 196.938389 
L 243.069231 168.01963 
L 211.738809 145.588358 
L 183.870214 126.10923 
L 161.314912 109.88439 
L 149.413556 99.464736 
L 149.070806 96.06317 
L 155.864269 96.496821 
L 170.578435 100.919399 
L 195.223714 110.740444 
L 227.047531 125.972525 
L 259.424953 144.531691 
L 287.734155 164.335694 
L 317.386419 191.263292 
L 340.451019 221.715323 
L 351.108638 244.509116 
L 353.686064 257.991912 
L 351.697945 261.094646 
L 346.874887 258.045271 
L 339.088118 249.081725 
L 326.454337 232.862844 
L 307.285865 209.480636 
L 280.385439 180.845866 
L 247.731286 151.358332 
L 220.203912 129.629685 
L 195.889347 112.030893 
L 174.356775 97.114033 
L 161.271156 87.619159 
L 159.061358 84.789441 
L 164.310842 86.140925 
L 177.175357 91.887191 
L 198.966518 103.316967 
L 227.250689 120.441199 
L 256.033824 141.019147 
L 281.013627 162.615423 
L 307.788615 192.218921 
L 327.420796 222.045629 
L 338.58066 245.911334 
L 343.151965 260.223633 
L 343.366298 263.467642 
L 341.654288 261.555913 
L 337.744093 254.31167 
L 330.297259 240.171532 
L 317.639508 218.751655 
L 297.826061 191.204811 
L 270.693956 161.257169 
L 241.095478 134.849082 
L 214.619928 114.746412 
L 191.641942 99.150687 
L 172.944118 87.371158 
L 163.398738 81.493584 
L 163.738211 81.466159 
L 170.104265 84.967572 
L 184.679938 93.520672 
L 207.494816 108.043841 
L 235.202381 127.90807 
L 261.647453 150.025449 
L 286.625296 175.194917 
L 311.771201 207.482348 
L 328.356338 235.399568 
L 337.731723 254.884147 
L 341.325842 262.791378 
L 342.023485 263.505168 
L 340.938204 259.441552 
L 337.617004 250.097364 
L 330.527443 233.841209 
L 317.595485 210.54342 
L 296.794982 182.100727 
L 268.72637 153.008413 
L 234.967634 125.724052 
L 208.022714 107.662788 
L 185.111307 94.207941 
L 167.978784 85.330946 
L 161.258235 82.665269 
L 162.926023 84.669889 
L 171.296571 90.525168 
L 188.286347 101.936991 
L 213.123464 119.343466 
L 241.648856 141.366907 
L 267.609475 164.216699 
L 294.273717 191.796655 
L 316.716908 219.687444 
L 343.542134 258.586234 
L 347.614864 262.297202 
L 348.874823 260.002425 
L 347.766342 252.741804 
L 343.727495 240.495752 
L 334.403894 221.257621 
L 317.05515 195.923662 
L 290.43536 167.954486 
L 257.595308 142.108986 
L 228.492292 123.69515 
L 200.276587 108.575395 
L 175.805247 97.40994 
L 158.676554 91.319002 
L 153.182737 91.156338 
L 156.139889 95.440505 
L 166.689122 103.804051 
L 214.400393 137.788888 
L 245.560772 161.173019 
L 273.746802 184.054341 
L 301.586957 208.658537 
L 327.583477 233.159067 
L 346.846378 250.457786 
L 357.357194 256.995681 
L 362.687074 256.931151 
L 364.88736 252.586661 
L 363.738012 243.185135 
L 357.872544 229.570744 
L 343.306598 209.440268 
L 317.085833 185.336594 
L 279.663121 160.810002 
L 235.859296 138.896619 
L 200.990849 124.628429 
L 171.068238 114.413116 
L 148.260966 108.773241 
L 138.600158 108.75975 
L 138.128716 112.901638 
L 145.372619 120.433484 
L 162.335624 133.287183 
L 189.28001 151.432015 
L 222.99984 173.013755 
L 257.422042 194.35877 
L 289.675248 213.479415 
L 324.460387 231.978623 
L 353.692159 243.512465 
L 369.8982 246.271657 
L 380.62579 244.302166 
L 385.195424 238.684213 
L 382.451791 228.713843 
L 367.172843 214.358627 
L 336.514867 197.623688 
L 293.574017 180.601669 
L 242.361961 163.783364 
L 201.343768 151.749713 
L 165.137172 142.193635 
L 136.26261 136.055154 
L 121.553018 134.757896 
L 116.238587 137.307419 
L 120.510209 143.706022 
L 134.020904 153.770578 
L 158.27997 168.184724 
L 186.198856 182.648986 
L 216.005714 196.339776 
L 253.150769 210.861261 
L 292.296365 222.523358 
L 334.193561 229.578429 
L 358.756934 230.196271 
L 377.722622 228.010888 
L 391.642446 223.145161 
L 394.688331 218.017058 
L 388.1885 213.05871 
L 373.184887 208.65776 
L 350.587006 204.375831 
L 320.559296 199.540612 
L 282.274624 193.245832 
L 236.08224 184.723603 
L 195.461922 176.302997 
L 138.503797 163.660163 
L 116.800212 159.263929 
L 103.58612 157.744138 
L 100.460756 159.496023 
L 105.801479 164.097201 
L 120.349665 171.910103 
L 144.082213 182.304698 
L 171.63585 192.548561 
L 206.913444 203.30271 
L 248.237155 212.45609 
L 292.812138 217.730896 
L 326.656154 218.180077 
L 355.409326 215.843305 
L 380.106726 211.323087 
L 391.835583 207.529483 
L 394.463764 205.028176 
L 389.606866 203.628258 
L 380.779396 203.253322 
L 370.852196 203.272284 
L 343.599045 203.564725 
L 325.139862 203.488281 
L 302.072178 202.870044 
L 268.003435 200.744837 
L 223.146596 195.666002 
L 175.049942 187.506098 
L 143.049979 180.756828 
L 106.684571 172.384436 
L 97.483812 170.491457 
L 92.981981 170.192683 
L 94.98849 171.898887 
L 104.252648 175.939244 
L 121.354695 182.141833 
L 146.067231 189.86455 
L 178.315323 198.197418 
L 217.175161 205.647732 
L 261.607322 210.492814 
L 308.028868 211.100204 
L 344.94875 208.191758 
L 373.488676 203.760682 
L 387.648474 200.658299 
L 392.825874 199.038375 
L 391.766553 198.701909 
L 385.916459 199.266335 
L 374.977456 200.628045 
L 357.387045 202.680206 
L 333.417613 204.814114 
L 303.400369 206.191919 
L 268.217408 205.854208 
L 227.893285 202.855308 
L 177.995291 195.444516 
L 142.540356 187.896655 
L 117.398039 181.519677 
L 90.71539 174.028585 
L 91.935621 174.471146 
L 98.141136 176.41964 
L 112.308642 180.604141 
L 134.450436 186.580046 
L 164.078182 193.490164 
L 200.367444 200.137067 
L 242.691452 205.15192 
L 289.176563 207.044669 
L 330.43455 205.489838 
L 363.456632 202.149574 
L 390.516467 198.406128 
L 392.852894 198.284306 
L 390.889776 199.000563 
L 383.538412 200.740782 
L 369.296223 203.498406 
L 347.911931 206.703233 
L 319.958504 209.385633 
L 285.384154 210.407472 
L 245.760581 208.515995 
L 193.594908 201.251386 
L 153.96924 192.337867 
L 125.289219 184.12595 
L 106.521387 177.847306 
L 96.448147 173.966727 
L 92.229908 171.799373 
L 94.254957 171.554084 
L 102.194862 173.165229 
L 138.340554 181.699553 
L 166.508036 187.792753 
L 201.77827 194.220743 
L 243.115978 199.765493 
L 288.209583 203.148679 
L 331.23177 203.778557 
L 357.632919 203.088154 
L 374.922454 202.424169 
L 385.618454 202.189629 
L 392.085125 202.518342 
L 394.185055 203.593232 
L 390.924507 205.687223 
L 381.061402 208.725629 
L 364.035075 212.239178 
L 340.230986 215.278056 
L 309.422409 216.682168 
L 272.548617 215.012202 
L 222.461201 207.416388 
L 177.952267 196.005313 
L 144.582758 184.740492 
L 122.039884 175.652467 
L 106.332785 168.125199 
L 99.096692 163.365365 
L 100.025875 161.068194 
L 109.310655 161.836491 
L 125.139204 164.856478 
L 177.716643 176.3962 
L 207.817793 182.648289 
L 244.811776 189.549906 
L 286.740204 196.180769 
L 331.62467 202.017908 
L 362.043915 205.773755 
L 381.414123 208.938063 
L 392.46865 212.44988 
L 395.081304 216.363174 
L 390.214657 220.425328 
L 378.356167 224.231199 
L 359.305791 226.94901 
L 333.319949 227.253332 
L 301.111424 223.758063 
L 254.035202 212.662636 
L 209.746949 197.085182 
L 173.520555 181.236918 
L 148.273494 168.480619 
L 129.452858 157.605967 
L 115.684294 147.575487 
L 112.540944 141.835968 
L 119.381509 140.025386 
L 134.933038 141.852026 
L 158.40053 146.760701 
L 191.851267 155.073619 
L 231.972513 165.892151 
L 273.126009 177.683667 
L 312.937196 190.130935 
L 348.498517 203.286799 
L 373.448981 215.897955 
L 386.260673 227.222681 
L 387.953397 236.126214 
L 381.220775 241.565863 
L 365.156273 242.969461 
L 336.868002 236.638375 
L 303.074306 222.848229 
L 261.9585 201.683534 
L 224.904781 180.463182 
L 192.624643 160.859191 
L 165.077729 143.099877 
L 143.334763 127.360245 
L 133.530603 116.960777 
L 135.891689 113.279866 
L 146.932219 113.786258 
L 165.576685 118.029536 
L 194.838369 127.09522 
L 231.386611 140.729354 
L 267.945863 156.880621 
L 301.520095 174.867257 
L 334.118931 197.640207 
L 357.456847 221.756489 
L 367.800232 241.027769 
L 368.282443 252.853846 
L 363.050128 255.962771 
L 353.513645 252.6435 
L 340.194742 243.421377 
L 320.390623 226.934811 
L 292.710347 203.301098 
L 257.309448 174.707383 
L 226.577146 151.599746 
L 196.940608 130.415745 
L 171.851634 112.700885 
L 155.242257 99.973983 
L 150.648159 94.338596 
L 155.253805 93.52195 
L 167.699428 97.107367 
L 189.538215 105.86032 
L 219.403388 120.253867 
L 247.150183 135.986516 
L 273.813241 153.887382 
L 302.942913 178.29194 
L 329.904414 209.562278 
L 345.074904 236.415655 
L 350.836191 254.116806 
L 350.950378 260.752866 
L 348.313476 261.198956 
L 343.490656 256.388326 
L 334.99518 245.04746 
L 321.339681 226.337666 
L 300.748079 200.833456 
L 272.577697 171.265831 
L 240.288894 142.805814 
L 212.701905 121.566955 
L 188.795767 104.657698 
L 169.80143 91.656962 
L 160.523343 84.656682 
L 161.38042 83.814944 
L 168.719346 86.736165 
L 184.551237 94.616781 
L 208.775649 108.399543 
L 237.645645 127.397793 
L 264.557238 148.423156 
L 290.38796 173.216303 
L 316.039183 205.733641 
L 332.069355 234.118426 
L 340.154139 253.967307 
L 342.516249 262.308125 
L 342.211926 263.501489 
L 340.14959 259.91229 
L 335.530559 250.4525 
L 326.965511 233.877963 
L 312.56515 210.184704 
L 290.609252 181.315181 
L 262.046949 151.756994 
L 233.407121 127.601662 
L 205.210953 107.251959 
L 183.213845 93.039435 
L 162.902274 80.865691 
L 166.357145 82.833357 
L 176.92338 89.065008 
L 196.052318 100.991259 
L 222.066502 118.816234 
L 246.065355 137.439327 
L 269.099913 158.085754 
L 294.946689 186.12595 
L 316.613434 216.0828 
L 331.236517 241.793718 
L 339.322574 258.404357 
L 342.045586 263.523673 
L 342.33398 262.567436 
L 340.921144 257.254669 
L 336.930732 246.134401 
L 328.655129 227.968409 
L 313.826592 203.035026 
L 290.802457 174.032369 
L 261.33751 145.856002 
L 232.616412 123.86546 
L 204.408871 105.650633 
L 181.713772 92.892003 
L 165.662702 85.075261 
L 160.3433 83.435283 
L 163.554649 86.623733 
L 174.030849 93.971715 
L 193.272929 107.108169 
L 219.710556 126.087671 
L 245.255319 146.239199 
L 269.89262 168.122713 
L 297.111728 196.29943 
L 319.711938 224.120416 
L 335.997444 246.790285 
L 345.053488 258.780021 
L 349.253759 261.870184 
L 350.647622 258.645621 
L 349.269666 250.442166 
L 344.59446 237.144485 
L 333.989512 216.887861 
L 314.667431 191.034398 
L 285.96427 163.437945 
L 252.195943 138.923865 
L 222.311794 121.349073 
L 195.985765 108.150318 
L 171.69937 97.823144 
L 155.577727 92.822737 
L 151.290602 93.608142 
L 155.465744 98.78461 
L 167.622799 108.298883 
L 218.40772 144.403675 
L 250.127533 168.052028 
L 277.899484 190.190734 
L 306.213749 214.298862 
L 332.324356 237.190326 
L 351.331934 251.944217 
L 361.152846 256.284832 
L 366.770539 254.286196 
L 367.977853 247.490716 
L 364.888255 236.446956 
L 354.946898 219.883337 
L 333.891172 197.929467 
L 300.312449 173.904006 
L 256.686427 150.818575 
L 221.367472 135.701103 
L 189.266285 123.982148 
L 160.188143 115.276103 
L 140.611382 111.800132 
L 134.268279 114.239402 
L 138.88792 121.219783 
L 152.409196 132.239017 
L 176.355816 148.639457 
L 208.651431 169.052412 
L 243.782651 190.137395 
L 276.373403 208.584868 
L 312.438836 226.859432 
L 345.608792 239.712813 
L 365.883447 243.768558 
L 378.634663 243.064617 
L 385.926204 239.153731 
L 387.153619 231.0944 
L 376.75958 218.990314 
L 351.411855 204.59071 
L 314.070556 189.935105 
L 267.100643 174.847144 
L 225.158631 162.681535 
L 184.425309 151.678425 
L 149.978527 143.349492 
L 125.6471 139.064718 
L 115.352024 139.258752 
L 113.613769 142.636656 
L 120.157471 149.460632 
L 136.555679 160.384382 
L 163.293356 175.017409 
L 194.721845 189.903303 
L 229.19573 203.889171 
L 268.865687 216.691942 
L 311.623754 225.655092 
L 343.417049 228.177066 
L 368.916751 226.76771 
L 386.108391 222.970447 
L 394.612284 217.993373 
L 393.382539 213.73747 
L 384.033468 210.007746 
L 366.961396 206.6712 
L 343.243588 203.357959 
L 312.489722 199.325619 
L 273.489136 193.629682 
L 226.514007 185.43851 
L 186.820017 177.406979 
L 135.555581 166.130872 
L 115.201958 161.940917 
L 102.257649 160.239941 
L 98.851982 161.647885 
L 103.754493 165.773349 
L 117.657515 172.98715 
L 140.521864 182.671556 
L 168.032385 192.547733 
L 203.154723 202.838319 
L 244.422152 211.558756 
L 289.466129 216.533625 
L 324.167977 216.802865 
L 353.758449 214.317002 
L 379.189444 209.737602 
L 391.238984 206.073066 
L 394.233806 203.758873 
L 390.616708 202.672502 
L 383.108573 202.451697 
L 371.716841 202.700589 
L 357.177024 203.172985 
L 338.103681 203.631711 
L 314.974425 203.688043 
L 290.273924 203.005238 
L 253.079165 200.415033 
L 205.030363 194.301376 
L 164.37588 186.887332 
L 134.724457 180.400256 
L 102.410008 172.808593 
L 95.042493 171.322353 
L 92.316849 171.396981 
L 95.566065 173.283794 
L 106.496358 177.621177 
L 124.873437 183.861307 
L 151.198994 191.565947 
L 184.819781 199.573419 
L 224.865332 206.382677 
L 270.235968 210.284927 
L 311.133731 210.141999 
L 345.625903 207.240563 
L 373.976196 202.87309 
L 387.734512 199.96644 
L 392.698889 198.543785 
L 391.707598 198.350533 
L 386.282784 199.001751 
L 375.378696 200.519199 
L 357.702171 202.771169 
L 333.506012 205.1162 
L 303.123372 206.672748 
L 267.35551 206.422301 
L 226.952831 203.4224 
L 177.18301 195.934424 
L 141.803153 188.264487 
L 116.76518 181.764404 
L 100.934851 177.223337 
L 90.672756 174.072987 
L 92.076081 174.467647 
L 98.450924 176.34377 
L 112.698439 180.403232 
L 134.86138 186.236773 
L 164.4857 193.013866 
L 200.751447 199.5606 
L 243.036478 204.538871 
L 289.38719 206.495696 
L 330.699618 205.101684 
L 363.71155 201.985349 
L 390.447089 198.650183 
L 392.945288 198.638391 
L 391.225211 199.410297 
L 384.078649 201.24418 
L 370.010793 204.097285 
L 348.781466 207.380835 
L 320.92597 210.1107 
L 286.408561 211.121972 
L 246.717996 209.128785 
L 194.371031 201.581688 
L 154.693842 192.376166 
L 125.982374 183.897562 
L 107.241216 177.409443 
L 97.296053 173.418698 
L 92.874027 171.04995 
L 94.66423 170.537675 
L 102.866745 172.06469 
L 139.422106 180.516972 
L 166.932894 186.452748 
L 201.753945 192.889055 
L 242.753565 198.630435 
L 287.551761 202.414744 
L 330.884441 203.603718 
L 354.538951 203.384927 
L 370.726468 203.063938 
L 381.793484 202.959585 
L 389.480631 203.225578 
L 393.906562 204.118879 
L 393.483973 205.967076 
L 386.975272 208.71064 
L 373.359202 212.176577 
L 352.819013 215.520611 
L 325.280758 217.680944 
L 291.209336 217.262956 
L 248.408055 212.391123 
L 196.099594 200.559559 
L 158.380257 188.384713 
L 131.723105 177.887614 
L 114.674835 170.034895 
L 104.11138 164.1298 
L 99.789738 159.784312 
L 105.034084 158.733304 
L 117.850424 160.562139 
L 138.633517 164.849663 
L 168.369851 171.469093 
L 198.879336 178.122127 
L 229.987446 184.476415 
L 269.938095 191.822993 
L 313.260125 198.772482 
L 352.630285 204.680699 
L 376.003999 208.910245 
L 390.234563 213.265148 
L 394.94003 217.747966 
L 391.596584 222.209501 
L 381.198462 226.19116 
L 363.478383 228.993152 
L 338.722442 229.253243 
L 307.455002 225.555451 
L 261.583553 214.094353 
L 218.232462 198.223713 
L 181.077523 181.476491 
L 154.553604 167.755761 
L 134.616052 156.056067 
L 119.439031 145.048173 
L 115.199767 138.518285 
L 121.440729 136.197215 
L 136.783677 137.808772 
L 159.777129 142.614737 
L 192.936521 151.063778 
L 232.965281 162.373585 
L 273.804552 174.93228 
L 313.082458 188.4675 
L 347.558311 202.869629 
L 372.050078 217.066666 
L 384.381325 229.720919 
L 385.561243 239.258612 
L 378.403017 244.496389 
L 362.787042 244.801838 
L 340.791808 238.800909 
L 311.349902 225.768561 
L 273.436898 205.108978 
L 234.038997 181.574927 
L 201.040055 160.982406 
L 172.573932 142.45826 
L 149.186482 125.836934 
L 137.154569 114.465044 
L 137.422063 110.139752 
L 145.497707 109.778635 
L 161.481154 113.09207 
L 187.696795 121.129307 
L 222.277663 134.119888 
L 258.824768 150.459865 
L 290.23721 167.340932 
L 323.478942 190.080856 
L 349.499457 215.517321 
L 363.030025 237.512742 
L 365.999959 251.79692 
L 362.524474 256.96424 
L 355.578279 255.562582 
L 345.480837 248.806546 
L 329.681385 235.055026 
L 306.768073 213.9394 
L 275.768976 186.736645 
L 243.289586 160.636821 
L 211.220092 136.830143 
L 184.618455 117.968938 
L 163.627722 102.876643 
L 153.169789 93.774247 
L 153.737025 91.364367 
L 161.260849 92.824798 
L 177.353062 98.760192 
L 202.745689 110.35285 
L 233.968636 127.240452 
L 264.052706 146.733628 
L 291.837945 168.929685 
L 319.838906 198.609875 
L 338.862911 228.050721 
L 347.55272 249.241585 
L 349.489192 259.563757 
L 348.10287 262.133804 
L 344.267516 258.906974 
L 337.580501 249.737738 
L 326.38525 233.322336 
L 308.934556 209.757552 
L 283.854609 180.981128 
L 252.725351 151.398852 
L 226.528671 130.04715 
L 201.381847 111.605203 
L 164.65301 86.468976 
L 160.751423 83.047081 
L 165.021334 84.274527 
L 176.589241 89.846147 
L 196.942297 101.058536 
L 224.104265 118.090602 
L 249.377634 136.449947 
L 272.441469 156.149847 
L 298.784073 184.019672 
L 321.168942 215.737553 
L 334.455861 241.664622 
L 340.796437 258.325678 
L 342.139602 263.469206 
L 341.082377 262.217232 
L 331.842559 242.604989 
L 320.784391 222.213779 
L 302.823881 195.398617 
L 277.249366 165.556363 
L 247.607614 138.154872 
L 221.255427 117.799093 
L 198.451115 102.263779 
L 177.925298 89.539192 
L 165.215635 82.207655 
L 162.908489 81.030207 
L 180.010455 91.476556 
L 200.778388 104.833074 
L 227.659507 123.896011 
L 255.052764 146.214325 
L 279.082028 169.329555 
L 305.142579 200.300945 
L 324.059359 229.039302 
L 335.820795 250.809541 
L 341.261611 261.353313 
L 343.042127 263.510867 
L 342.629984 259.896994 
L 340.183127 251.778712 
L 334.27077 236.966115 
L 322.834837 215.086405 
L 303.568823 187.55909 
L 276.329464 158.52547 
L 245.279857 132.918941 
L 217.810255 114.265363 
L 193.940868 100.228506 
L 173.193862 89.545405 
L 161.111931 84.539417 
L 159.637209 85.165654 
L 164.994184 89.616674 
L 200.22481 114.131217 
L 228.28282 134.816635 
L 256.817705 158.213597 
L 282.572524 182.305741 
L 308.379624 210.419986 
L 329.031383 236.402986 
L 342.715582 254.236193 
L 349.382722 260.814038 
L 352.237636 260.487997 
L 352.621297 255.371879 
L 350.49188 246.082319 
L 344.143424 230.574005 
L 330.633752 208.397531 
L 307.449133 181.79977 
L 275.276887 155.038248 
L 235.643636 130.013824 
L 204.686705 114.159178 
L 178.263433 102.734322 
L 158.175411 95.930148 
L 149.913551 95.075512 
L 150.395476 98.397631 
L 157.746372 105.168174 
L 174.380047 117.522602 
L 200.187847 135.649549 
L 231.779306 158.136344 
L 263.396502 181.720094 
L 292.945605 204.982399 
L 322.155795 228.713814 
L 345.649659 246.5409 
L 359.492892 253.996095 
L 366.750811 254.720862 
L 370.681589 251.093265 
L 370.763603 242.636502 
L 366.059992 231.053796 
L 352.161369 212.837991 
L 325.570077 190.539978 
L 286.196302 167.28425 
L 238.367183 145.731316 
L 201.386459 132.003312 
L 169.447166 122.024598 
L 144.549835 116.343127 
L 133.422304 116.083715 
L 131.348522 119.830344 
L 137.8649 127.428414 
L 153.899396 139.703785 
L 180.311685 157.026141 
L 214.085841 177.389637 
L 248.257746 196.621542 
L 282.225151 214.098973 
L 319.645083 230.308544 
L 352.446251 239.780466 
L 370.604038 241.443188 
L 383.135223 239.261954 
L 389.448403 233.786611 
L 386.440238 224.275413 
L 369.328436 212.391589 
L 340.186773 200.318539 
L 300.821739 187.739676 
L 253.091928 174.281447 
L 211.706701 163.240866 
L 174.390443 153.738254 
L 141.963558 146.299346 
L 120.080032 142.828886 
L 111.466134 143.579989 
L 111.613447 147.605341 
L 119.620973 154.495004 
L 138.058004 165.754793 
L 162.392378 178.250008 
L 191.257352 191.185186 
L 226.318509 204.535377 
L 266.674308 216.450261 
L 310.016706 224.322635 
L 341.742169 226.098826 
L 367.442351 224.3465 
L 386.002885 220.268453 
L 394.561616 215.690887 
L 393.894793 211.969158 
L 385.509928 208.913277 
L 369.83295 206.377974 
L 348.182209 204.014332 
L 320.513325 201.179138 
L 284.921684 196.956228 
L 240.789603 190.353492 
L 196.065653 182.077098 
L 163.749282 175.269745 
L 118.793773 165.417809 
L 103.95853 162.802703 
L 97.905579 162.799018 
L 98.477622 164.93368 
L 106.154358 169.610711 
L 123.470697 177.49623 
L 146.265281 186.257623 
L 176.470307 196.064302 
L 213.818731 205.601195 
L 256.816971 212.870221 
L 301.58471 215.828098 
L 337.54285 214.485693 
L 366.33883 210.734851 
L 384.908204 206.623118 
L 393.050295 203.677816 
L 393.328794 202.14057 
L 388.305566 201.674983 
L 378.517061 201.924312 
L 347.228239 203.434572 
L 324.276821 204.049896 
L 296.807329 203.894386 
L 265.45473 202.409962 
L 220.427584 197.804898 
L 172.709873 189.921268 
L 140.157828 182.998242 
L 94.87126 172.289688 
L 91.843061 172.057214 
L 94.396224 173.562874 
L 104.114108 177.315736 
L 121.566284 183.126517 
L 146.95419 190.472447 
L 179.691518 198.271732 
L 218.932743 205.093626 
L 263.698471 209.29795 
L 305.838891 209.581246 
L 342.604844 206.841142 
L 371.997236 202.61442 
L 386.643801 199.757002 
L 392.401041 198.354401 
L 392.057181 198.177917 
L 387.315636 198.85058 
L 377.043279 200.436421 
L 359.933953 202.824441 
L 336.135523 205.37816 
L 306.052518 207.187688 
L 270.255419 207.192658 
L 231.638558 204.577572 
L 180.83681 197.162115 
L 144.417037 189.265961 
L 118.491752 182.429529 
L 101.939314 177.535883 
L 93.415543 174.803054 
L 90.821575 173.850732 
L 92.448377 174.186698 
L 113.719277 180.021195 
L 135.949301 185.721212 
L 165.628837 192.38273 
L 201.944275 198.857055 
L 244.241797 203.833836 
L 290.385362 205.902892 
L 331.62651 204.746535 
L 361.509664 202.263642 
L 380.005527 200.2224 
L 380.005527 200.2224 
" clip-path="url(#p79d6d7dff2)" style="fill: none; stroke: #1f77b4; stroke-width: 0.5; stroke-linecap: square"/>
   </g>
   <g id="patch_3">
    <path d="M 57.6 307.584 
L 57.6 41.472 
" style="fill: none; stroke: #000000; stroke-width: 0.8; stroke-linejoin: miter; stroke-linecap: square"/>
   </g>
   <g id="patch_4">
    <path d="M 414.72 307.584 
L 414.72 41.472 
" style="fill: none; stroke: #000000; stroke-width: 0.8; stroke-linejoin: miter; stroke-linecap: square"/>
   </g>
   <g id="patch_5">
    <path d="M 57.6 307.584 
L 414.72 307.584 
" style="fill: none; stroke: #000000; stroke-width: 0.8; stroke-linejoin: miter; stroke-linecap: square"/>
   </g>
   <g id="patch_6">
    <path d="M 57.6 41.472 
L 414.72 41.472 
" style="fill: none; stroke: #000000; stroke-width: 0.8; stroke-linejoin: miter; stroke-linecap: square"/>
   </g>
   <g id="text_13">
    <!-- Real Space Projection onto r-z plane with initial r = -0.13 -->
    <g transform="translate(66.41625 35.472) scale(0.12 -0.12)">
     <defs>
      <path id="DejaVuSans-52" d="M 2841 2188 
Q 3044 2119 3236 1894 
Q 3428 1669 3622 1275 
L 4263 0 
L 3584 0 
L 2988 1197 
Q 2756 1666 2539 1819 
Q 2322 1972 1947 1972 
L 1259 1972 
L 1259 0 
L 628 0 
L 628 4666 
L 2053 4666 
Q 2853 4666 3247 4331 
Q 3641 3997 3641 3322 
Q 3641 2881 3436 2590 
Q 3231 2300 2841 2188 
z
M 1259 4147 
L 1259 2491 
L 2053 2491 
Q 2509 2491 2742 2702 
Q 2975 2913 2975 3322 
Q 2975 3731 2742 3939 
Q 2509 4147 2053 4147 
L 1259 4147 
z
" transform="scale(0.015625)"/>
      <path id="DejaVuSans-65" d="M 3597 1894 
L 3597 1613 
L 953 1613 
Q 991 1019 1311 708 
Q 1631 397 2203 397 
Q 2534 397 2845 478 
Q 3156 559 3463 722 
L 3463 178 
Q 3153 47 2828 -22 
Q 2503 -91 2169 -91 
Q 1331 -91 842 396 
Q 353 884 353 1716 
Q 353 2575 817 3079 
Q 1281 3584 2069 3584 
Q 2775 3584 3186 3129 
Q 3597 2675 3597 1894 
z
M 3022 2063 
Q 3016 2534 2758 2815 
Q 2500 3097 2075 3097 
Q 1594 3097 1305 2825 
Q 1016 2553 972 2059 
L 3022 2063 
z
" transform="scale(0.015625)"/>
      <path id="DejaVuSans-61" d="M 2194 1759 
Q 1497 1759 1228 1600 
Q 959 1441 959 1056 
Q 959 750 1161 570 
Q 1363 391 1709 391 
Q 2188 391 2477 730 
Q 2766 1069 2766 1631 
L 2766 1759 
L 2194 1759 
z
M 3341 1997 
L 3341 0 
L 2766 0 
L 2766 531 
Q 2569 213 2275 61 
Q 1981 -91 1556 -91 
Q 1019 -91 701 211 
Q 384 513 384 1019 
Q 384 1609 779 1909 
Q 1175 2209 1959 2209 
L 2766 2209 
L 2766 2266 
Q 2766 2663 2505 2880 
Q 2244 3097 1772 3097 
Q 1472 3097 1187 3025 
Q 903 2953 641 2809 
L 641 3341 
Q 956 3463 1253 3523 
Q 1550 3584 1831 3584 
Q 2591 3584 2966 3190 
Q 3341 2797 3341 1997 
z
" transform="scale(0.015625)"/>
      <path id="DejaVuSans-6c" d="M 603 4863 
L 1178 4863 
L 1178 0 
L 603 0 
L 603 4863 
z
" transform="scale(0.015625)"/>
      <path id="DejaVuSans-20" transform="scale(0.015625)"/>
      <path id="DejaVuSans-53" d="M 3425 4513 
L 3425 3897 
Q 3066 4069 2747 4153 
Q 2428 4238 2131 4238 
Q 1616 4238 1336 4038 
Q 1056 3838 1056 3469 
Q 1056 3159 1242 3001 
Q 1428 2844 1947 2747 
L 2328 2669 
Q 3034 2534 3370 2195 
Q 3706 1856 3706 1288 
Q 3706 609 3251 259 
Q 2797 -91 1919 -91 
Q 1588 -91 1214 -16 
Q 841 59 441 206 
L 441 856 
Q 825 641 1194 531 
Q 1563 422 1919 422 
Q 2459 422 2753 634 
Q 3047 847 3047 1241 
Q 3047 1584 2836 1778 
Q 2625 1972 2144 2069 
L 1759 2144 
Q 1053 2284 737 2584 
Q 422 2884 422 3419 
Q 422 4038 858 4394 
Q 1294 4750 2059 4750 
Q 2388 4750 2728 4690 
Q 3069 4631 3425 4513 
z
" transform="scale(0.015625)"/>
      <path id="DejaVuSans-70" d="M 1159 525 
L 1159 -1331 
L 581 -1331 
L 581 3500 
L 1159 3500 
L 1159 2969 
Q 1341 3281 1617 3432 
Q 1894 3584 2278 3584 
Q 2916 3584 3314 3078 
Q 3713 2572 3713 1747 
Q 3713 922 3314 415 
Q 2916 -91 2278 -91 
Q 1894 -91 1617 61 
Q 1341 213 1159 525 
z
M 3116 1747 
Q 3116 2381 2855 2742 
Q 2594 3103 2138 3103 
Q 1681 3103 1420 2742 
Q 1159 2381 1159 1747 
Q 1159 1113 1420 752 
Q 1681 391 2138 391 
Q 2594 391 2855 752 
Q 3116 1113 3116 1747 
z
" transform="scale(0.015625)"/>
      <path id="DejaVuSans-63" d="M 3122 3366 
L 3122 2828 
Q 2878 2963 2633 3030 
Q 2388 3097 2138 3097 
Q 1578 3097 1268 2742 
Q 959 2388 959 1747 
Q 959 1106 1268 751 
Q 1578 397 2138 397 
Q 2388 397 2633 464 
Q 2878 531 3122 666 
L 3122 134 
Q 2881 22 2623 -34 
Q 2366 -91 2075 -91 
Q 1284 -91 818 406 
Q 353 903 353 1747 
Q 353 2603 823 3093 
Q 1294 3584 2113 3584 
Q 2378 3584 2631 3529 
Q 2884 3475 3122 3366 
z
" transform="scale(0.015625)"/>
      <path id="DejaVuSans-50" d="M 1259 4147 
L 1259 2394 
L 2053 2394 
Q 2494 2394 2734 2622 
Q 2975 2850 2975 3272 
Q 2975 3691 2734 3919 
Q 2494 4147 2053 4147 
L 1259 4147 
z
M 628 4666 
L 2053 4666 
Q 2838 4666 3239 4311 
Q 3641 3956 3641 3272 
Q 3641 2581 3239 2228 
Q 2838 1875 2053 1875 
L 1259 1875 
L 1259 0 
L 628 0 
L 628 4666 
z
" transform="scale(0.015625)"/>
      <path id="DejaVuSans-6f" d="M 1959 3097 
Q 1497 3097 1228 2736 
Q 959 2375 959 1747 
Q 959 1119 1226 758 
Q 1494 397 1959 397 
Q 2419 397 2687 759 
Q 2956 1122 2956 1747 
Q 2956 2369 2687 2733 
Q 2419 3097 1959 3097 
z
M 1959 3584 
Q 2709 3584 3137 3096 
Q 3566 2609 3566 1747 
Q 3566 888 3137 398 
Q 2709 -91 1959 -91 
Q 1206 -91 779 398 
Q 353 888 353 1747 
Q 353 2609 779 3096 
Q 1206 3584 1959 3584 
z
" transform="scale(0.015625)"/>
      <path id="DejaVuSans-6a" d="M 603 3500 
L 1178 3500 
L 1178 -63 
Q 1178 -731 923 -1031 
Q 669 -1331 103 -1331 
L -116 -1331 
L -116 -844 
L 38 -844 
Q 366 -844 484 -692 
Q 603 -541 603 -63 
L 603 3500 
z
M 603 4863 
L 1178 4863 
L 1178 4134 
L 603 4134 
L 603 4863 
z
" transform="scale(0.015625)"/>
      <path id="DejaVuSans-74" d="M 1172 4494 
L 1172 3500 
L 2356 3500 
L 2356 3053 
L 1172 3053 
L 1172 1153 
Q 1172 725 1289 603 
Q 1406 481 1766 481 
L 2356 481 
L 2356 0 
L 1766 0 
Q 1100 0 847 248 
Q 594 497 594 1153 
L 594 3053 
L 172 3053 
L 172 3500 
L 594 3500 
L 594 4494 
L 1172 4494 
z
" transform="scale(0.015625)"/>
      <path id="DejaVuSans-69" d="M 603 3500 
L 1178 3500 
L 1178 0 
L 603 0 
L 603 3500 
z
M 603 4863 
L 1178 4863 
L 1178 4134 
L 603 4134 
L 603 4863 
z
" transform="scale(0.015625)"/>
      <path id="DejaVuSans-6e" d="M 3513 2113 
L 3513 0 
L 2938 0 
L 2938 2094 
Q 2938 2591 2744 2837 
Q 2550 3084 2163 3084 
Q 1697 3084 1428 2787 
Q 1159 2491 1159 1978 
L 1159 0 
L 581 0 
L 581 3500 
L 1159 3500 
L 1159 2956 
Q 1366 3272 1645 3428 
Q 1925 3584 2291 3584 
Q 2894 3584 3203 3211 
Q 3513 2838 3513 2113 
z
" transform="scale(0.015625)"/>
      <path id="DejaVuSans-2d" d="M 313 2009 
L 1997 2009 
L 1997 1497 
L 313 1497 
L 313 2009 
z
" transform="scale(0.015625)"/>
      <path id="DejaVuSans-77" d="M 269 3500 
L 844 3500 
L 1563 769 
L 2278 3500 
L 2956 3500 
L 3675 769 
L 4391 3500 
L 4966 3500 
L 4050 0 
L 3372 0 
L 2619 2869 
L 1863 0 
L 1184 0 
L 269 3500 
z
" transform="scale(0.015625)"/>
      <path id="DejaVuSans-68" d="M 3513 2113 
L 3513 0 
L 2938 0 
L 2938 2094 
Q 2938 2591 2744 2837 
Q 2550 3084 2163 3084 
Q 1697 3084 1428 2787 
Q 1159 2491 1159 1978 
L 1159 0 
L 581 0 
L 581 4863 
L 1159 4863 
L 1159 2956 
Q 1366 3272 1645 3428 
Q 1925 3584 2291 3584 
Q 2894 3584 3203 3211 
Q 3513 2838 3513 2113 
z
" transform="scale(0.015625)"/>
      <path id="DejaVuSans-3d" d="M 678 2906 
L 4684 2906 
L 4684 2381 
L 678 2381 
L 678 2906 
z
M 678 1631 
L 4684 1631 
L 4684 1100 
L 678 1100 
L 678 1631 
z
" transform="scale(0.015625)"/>
      <path id="DejaVuSans-31" d="M 794 531 
L 1825 531 
L 1825 4091 
L 703 3866 
L 703 4441 
L 1819 4666 
L 2450 4666 
L 2450 531 
L 3481 531 
L 3481 0 
L 794 0 
L 794 531 
z
" transform="scale(0.015625)"/>
      <path id="DejaVuSans-33" d="M 2597 2516 
Q 3050 2419 3304 2112 
Q 3559 1806 3559 1356 
Q 3559 666 3084 287 
Q 2609 -91 1734 -91 
Q 1441 -91 1130 -33 
Q 819 25 488 141 
L 488 750 
Q 750 597 1062 519 
Q 1375 441 1716 441 
Q 2309 441 2620 675 
Q 2931 909 2931 1356 
Q 2931 1769 2642 2001 
Q 2353 2234 1838 2234 
L 1294 2234 
L 1294 2753 
L 1863 2753 
Q 2328 2753 2575 2939 
Q 2822 3125 2822 3475 
Q 2822 3834 2567 4026 
Q 2313 4219 1838 4219 
Q 1578 4219 1281 4162 
Q 984 4106 628 3988 
L 628 4550 
Q 988 4650 1302 4700 
Q 1616 4750 1894 4750 
Q 2613 4750 3031 4423 
Q 3450 4097 3450 3541 
Q 3450 3153 3228 2886 
Q 3006 2619 2597 2516 
z
" transform="scale(0.015625)"/>
     </defs>
     <use xlink:href="#DejaVuSans-52"/>
     <use xlink:href="#DejaVuSans-65" x="64.982422"/>
     <use xlink:href="#DejaVuSans-61" x="126.505859"/>
     <use xlink:href="#DejaVuSans-6c" x="187.785156"/>
     <use xlink:href="#DejaVuSans-20" x="215.568359"/>
     <use xlink:href="#DejaVuSans-53" x="247.355469"/>
     <use xlink:href="#DejaVuSans-70" x="310.832031"/>
     <use xlink:href="#DejaVuSans-61" x="374.308594"/>
     <use xlink:href="#DejaVuSans-63" x="435.587891"/>
     <use xlink:href="#DejaVuSans-65" x="490.568359"/>
     <use xlink:href="#DejaVuSans-20" x="552.091797"/>
     <use xlink:href="#DejaVuSans-50" x="583.878906"/>
     <use xlink:href="#DejaVuSans-72" x="642.431641"/>
     <use xlink:href="#DejaVuSans-6f" x="681.294922"/>
     <use xlink:href="#DejaVuSans-6a" x="742.476562"/>
     <use xlink:href="#DejaVuSans-65" x="770.259766"/>
     <use xlink:href="#DejaVuSans-63" x="831.783203"/>
     <use xlink:href="#DejaVuSans-74" x="886.763672"/>
     <use xlink:href="#DejaVuSans-69" x="925.972656"/>
     <use xlink:href="#DejaVuSans-6f" x="953.755859"/>
     <use xlink:href="#DejaVuSans-6e" x="1014.9375"/>
     <use xlink:href="#DejaVuSans-20" x="1078.316406"/>
     <use xlink:href="#DejaVuSans-6f" x="1110.103516"/>
     <use xlink:href="#DejaVuSans-6e" x="1171.285156"/>
     <use xlink:href="#DejaVuSans-74" x="1234.664062"/>
     <use xlink:href="#DejaVuSans-6f" x="1273.873047"/>
     <use xlink:href="#DejaVuSans-20" x="1335.054688"/>
     <use xlink:href="#DejaVuSans-72" x="1366.841797"/>
     <use xlink:href="#DejaVuSans-2d" x="1401.580078"/>
     <use xlink:href="#DejaVuSans-7a" x="1437.664062"/>
     <use xlink:href="#DejaVuSans-20" x="1490.154297"/>
     <use xlink:href="#DejaVuSans-70" x="1521.941406"/>
     <use xlink:href="#DejaVuSans-6c" x="1585.417969"/>
     <use xlink:href="#DejaVuSans-61" x="1613.201172"/>
     <use xlink:href="#DejaVuSans-6e" x="1674.480469"/>
     <use xlink:href="#DejaVuSans-65" x="1737.859375"/>
     <use xlink:href="#DejaVuSans-20" x="1799.382812"/>
     <use xlink:href="#DejaVuSans-77" x="1831.169922"/>
     <use xlink:href="#DejaVuSans-69" x="1912.957031"/>
     <use xlink:href="#DejaVuSans-74" x="1940.740234"/>
     <use xlink:href="#DejaVuSans-68" x="1979.949219"/>
     <use xlink:href="#DejaVuSans-20" x="2043.328125"/>
     <use xlink:href="#DejaVuSans-69" x="2075.115234"/>
     <use xlink:href="#DejaVuSans-6e" x="2102.898438"/>
     <use xlink:href="#DejaVuSans-69" x="2166.277344"/>
     <use xlink:href="#DejaVuSans-74" x="2194.060547"/>
     <use xlink:href="#DejaVuSans-69" x="2233.269531"/>
     <use xlink:href="#DejaVuSans-61" x="2261.052734"/>
     <use xlink:href="#DejaVuSans-6c" x="2322.332031"/>
     <use xlink:href="#DejaVuSans-20" x="2350.115234"/>
     <use xlink:href="#DejaVuSans-72" x="2381.902344"/>
     <use xlink:href="#DejaVuSans-20" x="2423.015625"/>
     <use xlink:href="#DejaVuSans-3d" x="2454.802734"/>
     <use xlink:href="#DejaVuSans-20" x="2538.591797"/>
     <use xlink:href="#DejaVuSans-2d" x="2570.378906"/>
     <use xlink:href="#DejaVuSans-30" x="2606.462891"/>
     <use xlink:href="#DejaVuSans-2e" x="2670.085938"/>
     <use xlink:href="#DejaVuSans-31" x="2701.873047"/>
     <use xlink:href="#DejaVuSans-33" x="2765.496094"/>
    </g>
   </g>
  </g>
 </g>
 <defs>
  <clipPath id="p79d6d7dff2">
   <rect x="57.6" y="41.472" width="357.12" height="266.112"/>
  </clipPath>
 </defs>
</svg>
