<?xml version="1.0" encoding="utf-8" standalone="no"?>
<!DOCTYPE svg PUBLIC "-//W3C//DTD SVG 1.1//EN"
  "http://www.w3.org/Graphics/SVG/1.1/DTD/svg11.dtd">
<svg xmlns:xlink="http://www.w3.org/1999/xlink" width="460.8pt" height="345.6pt" viewBox="0 0 460.8 345.6" xmlns="http://www.w3.org/2000/svg" version="1.1">
 <metadata>
  <rdf:RDF xmlns:dc="http://purl.org/dc/elements/1.1/" xmlns:cc="http://creativecommons.org/ns#" xmlns:rdf="http://www.w3.org/1999/02/22-rdf-syntax-ns#">
   <cc:Work>
    <dc:type rdf:resource="http://purl.org/dc/dcmitype/StillImage"/>
    <dc:date>2023-10-23T13:51:36.958689</dc:date>
    <dc:format>image/svg+xml</dc:format>
    <dc:creator>
     <cc:Agent>
      <dc:title>Matplotlib v3.8.0, https://matplotlib.org/</dc:title>
     </cc:Agent>
    </dc:creator>
   </cc:Work>
  </rdf:RDF>
 </metadata>
 <defs>
  <style type="text/css">*{stroke-linejoin: round; stroke-linecap: butt}</style>
 </defs>
 <g id="figure_1">
  <g id="patch_1">
   <path d="M 0 345.6 
L 460.8 345.6 
L 460.8 0 
L 0 0 
z
" style="fill: #ffffff"/>
  </g>
  <g id="axes_1">
   <g id="patch_2">
    <path d="M 57.6 307.584 
L 414.72 307.584 
L 414.72 41.472 
L 57.6 41.472 
z
" style="fill: #ffffff"/>
   </g>
   <g id="matplotlib.axis_1">
    <g id="xtick_1">
     <g id="line2d_1">
      <defs>
       <path id="m23ff209907" d="M 0 0 
L 0 3.5 
" style="stroke: #000000; stroke-width: 0.8"/>
      </defs>
      <g>
       <use xlink:href="#m23ff209907" x="93.312" y="307.584" style="stroke: #000000; stroke-width: 0.8"/>
      </g>
     </g>
     <g id="text_1">
      <!-- −0.4 -->
      <g transform="translate(81.170594 322.182437) scale(0.1 -0.1)">
       <defs>
        <path id="DejaVuSans-2212" d="M 678 2272 
L 4684 2272 
L 4684 1741 
L 678 1741 
L 678 2272 
z
" transform="scale(0.015625)"/>
        <path id="DejaVuSans-30" d="M 2034 4250 
Q 1547 4250 1301 3770 
Q 1056 3291 1056 2328 
Q 1056 1369 1301 889 
Q 1547 409 2034 409 
Q 2525 409 2770 889 
Q 3016 1369 3016 2328 
Q 3016 3291 2770 3770 
Q 2525 4250 2034 4250 
z
M 2034 4750 
Q 2819 4750 3233 4129 
Q 3647 3509 3647 2328 
Q 3647 1150 3233 529 
Q 2819 -91 2034 -91 
Q 1250 -91 836 529 
Q 422 1150 422 2328 
Q 422 3509 836 4129 
Q 1250 4750 2034 4750 
z
" transform="scale(0.015625)"/>
        <path id="DejaVuSans-2e" d="M 684 794 
L 1344 794 
L 1344 0 
L 684 0 
L 684 794 
z
" transform="scale(0.015625)"/>
        <path id="DejaVuSans-34" d="M 2419 4116 
L 825 1625 
L 2419 1625 
L 2419 4116 
z
M 2253 4666 
L 3047 4666 
L 3047 1625 
L 3713 1625 
L 3713 1100 
L 3047 1100 
L 3047 0 
L 2419 0 
L 2419 1100 
L 313 1100 
L 313 1709 
L 2253 4666 
z
" transform="scale(0.015625)"/>
       </defs>
       <use xlink:href="#DejaVuSans-2212"/>
       <use xlink:href="#DejaVuSans-30" x="83.789062"/>
       <use xlink:href="#DejaVuSans-2e" x="147.412109"/>
       <use xlink:href="#DejaVuSans-34" x="179.199219"/>
      </g>
     </g>
    </g>
    <g id="xtick_2">
     <g id="line2d_2">
      <g>
       <use xlink:href="#m23ff209907" x="164.736" y="307.584" style="stroke: #000000; stroke-width: 0.8"/>
      </g>
     </g>
     <g id="text_2">
      <!-- −0.2 -->
      <g transform="translate(152.594594 322.182437) scale(0.1 -0.1)">
       <defs>
        <path id="DejaVuSans-32" d="M 1228 531 
L 3431 531 
L 3431 0 
L 469 0 
L 469 531 
Q 828 903 1448 1529 
Q 2069 2156 2228 2338 
Q 2531 2678 2651 2914 
Q 2772 3150 2772 3378 
Q 2772 3750 2511 3984 
Q 2250 4219 1831 4219 
Q 1534 4219 1204 4116 
Q 875 4013 500 3803 
L 500 4441 
Q 881 4594 1212 4672 
Q 1544 4750 1819 4750 
Q 2544 4750 2975 4387 
Q 3406 4025 3406 3419 
Q 3406 3131 3298 2873 
Q 3191 2616 2906 2266 
Q 2828 2175 2409 1742 
Q 1991 1309 1228 531 
z
" transform="scale(0.015625)"/>
       </defs>
       <use xlink:href="#DejaVuSans-2212"/>
       <use xlink:href="#DejaVuSans-30" x="83.789062"/>
       <use xlink:href="#DejaVuSans-2e" x="147.412109"/>
       <use xlink:href="#DejaVuSans-32" x="179.199219"/>
      </g>
     </g>
    </g>
    <g id="xtick_3">
     <g id="line2d_3">
      <g>
       <use xlink:href="#m23ff209907" x="236.16" y="307.584" style="stroke: #000000; stroke-width: 0.8"/>
      </g>
     </g>
     <g id="text_3">
      <!-- 0.0 -->
      <g transform="translate(228.208438 322.182437) scale(0.1 -0.1)">
       <use xlink:href="#DejaVuSans-30"/>
       <use xlink:href="#DejaVuSans-2e" x="63.623047"/>
       <use xlink:href="#DejaVuSans-30" x="95.410156"/>
      </g>
     </g>
    </g>
    <g id="xtick_4">
     <g id="line2d_4">
      <g>
       <use xlink:href="#m23ff209907" x="307.584" y="307.584" style="stroke: #000000; stroke-width: 0.8"/>
      </g>
     </g>
     <g id="text_4">
      <!-- 0.2 -->
      <g transform="translate(299.632437 322.182437) scale(0.1 -0.1)">
       <use xlink:href="#DejaVuSans-30"/>
       <use xlink:href="#DejaVuSans-2e" x="63.623047"/>
       <use xlink:href="#DejaVuSans-32" x="95.410156"/>
      </g>
     </g>
    </g>
    <g id="xtick_5">
     <g id="line2d_5">
      <g>
       <use xlink:href="#m23ff209907" x="379.008" y="307.584" style="stroke: #000000; stroke-width: 0.8"/>
      </g>
     </g>
     <g id="text_5">
      <!-- 0.4 -->
      <g transform="translate(371.056437 322.182437) scale(0.1 -0.1)">
       <use xlink:href="#DejaVuSans-30"/>
       <use xlink:href="#DejaVuSans-2e" x="63.623047"/>
       <use xlink:href="#DejaVuSans-34" x="95.410156"/>
      </g>
     </g>
    </g>
    <g id="text_6">
     <!-- r -->
     <g transform="translate(234.104531 335.860562) scale(0.1 -0.1)">
      <defs>
       <path id="DejaVuSans-72" d="M 2631 2963 
Q 2534 3019 2420 3045 
Q 2306 3072 2169 3072 
Q 1681 3072 1420 2755 
Q 1159 2438 1159 1844 
L 1159 0 
L 581 0 
L 581 3500 
L 1159 3500 
L 1159 2956 
Q 1341 3275 1631 3429 
Q 1922 3584 2338 3584 
Q 2397 3584 2469 3576 
Q 2541 3569 2628 3553 
L 2631 2963 
z
" transform="scale(0.015625)"/>
      </defs>
      <use xlink:href="#DejaVuSans-72"/>
     </g>
    </g>
   </g>
   <g id="matplotlib.axis_2">
    <g id="ytick_1">
     <g id="line2d_6">
      <defs>
       <path id="m0afd8379f4" d="M 0 0 
L -3.5 0 
" style="stroke: #000000; stroke-width: 0.8"/>
      </defs>
      <g>
       <use xlink:href="#m0afd8379f4" x="57.6" y="280.9728" style="stroke: #000000; stroke-width: 0.8"/>
      </g>
     </g>
     <g id="text_7">
      <!-- −0.4 -->
      <g transform="translate(26.317187 284.772019) scale(0.1 -0.1)">
       <use xlink:href="#DejaVuSans-2212"/>
       <use xlink:href="#DejaVuSans-30" x="83.789062"/>
       <use xlink:href="#DejaVuSans-2e" x="147.412109"/>
       <use xlink:href="#DejaVuSans-34" x="179.199219"/>
      </g>
     </g>
    </g>
    <g id="ytick_2">
     <g id="line2d_7">
      <g>
       <use xlink:href="#m0afd8379f4" x="57.6" y="227.7504" style="stroke: #000000; stroke-width: 0.8"/>
      </g>
     </g>
     <g id="text_8">
      <!-- −0.2 -->
      <g transform="translate(26.317187 231.549619) scale(0.1 -0.1)">
       <use xlink:href="#DejaVuSans-2212"/>
       <use xlink:href="#DejaVuSans-30" x="83.789062"/>
       <use xlink:href="#DejaVuSans-2e" x="147.412109"/>
       <use xlink:href="#DejaVuSans-32" x="179.199219"/>
      </g>
     </g>
    </g>
    <g id="ytick_3">
     <g id="line2d_8">
      <g>
       <use xlink:href="#m0afd8379f4" x="57.6" y="174.528" style="stroke: #000000; stroke-width: 0.8"/>
      </g>
     </g>
     <g id="text_9">
      <!-- 0.0 -->
      <g transform="translate(34.696875 178.327219) scale(0.1 -0.1)">
       <use xlink:href="#DejaVuSans-30"/>
       <use xlink:href="#DejaVuSans-2e" x="63.623047"/>
       <use xlink:href="#DejaVuSans-30" x="95.410156"/>
      </g>
     </g>
    </g>
    <g id="ytick_4">
     <g id="line2d_9">
      <g>
       <use xlink:href="#m0afd8379f4" x="57.6" y="121.3056" style="stroke: #000000; stroke-width: 0.8"/>
      </g>
     </g>
     <g id="text_10">
      <!-- 0.2 -->
      <g transform="translate(34.696875 125.104819) scale(0.1 -0.1)">
       <use xlink:href="#DejaVuSans-30"/>
       <use xlink:href="#DejaVuSans-2e" x="63.623047"/>
       <use xlink:href="#DejaVuSans-32" x="95.410156"/>
      </g>
     </g>
    </g>
    <g id="ytick_5">
     <g id="line2d_10">
      <g>
       <use xlink:href="#m0afd8379f4" x="57.6" y="68.0832" style="stroke: #000000; stroke-width: 0.8"/>
      </g>
     </g>
     <g id="text_11">
      <!-- 0.4 -->
      <g transform="translate(34.696875 71.882419) scale(0.1 -0.1)">
       <use xlink:href="#DejaVuSans-30"/>
       <use xlink:href="#DejaVuSans-2e" x="63.623047"/>
       <use xlink:href="#DejaVuSans-34" x="95.410156"/>
      </g>
     </g>
    </g>
    <g id="text_12">
     <!-- z -->
     <g transform="translate(20.2375 177.152219) rotate(-90) scale(0.1 -0.1)">
      <defs>
       <path id="DejaVuSans-7a" d="M 353 3500 
L 3084 3500 
L 3084 2975 
L 922 459 
L 3084 459 
L 3084 0 
L 275 0 
L 275 525 
L 2438 3041 
L 353 3041 
L 353 3500 
z
" transform="scale(0.015625)"/>
      </defs>
      <use xlink:href="#DejaVuSans-7a"/>
     </g>
    </g>
   </g>
   <g id="line2d_11">
    <path d="M 236.16 239.5776 
L 236.846546 239.734165 
L 243.029254 240.991052 
L 273.546086 243.017362 
L 301.392142 238.439311 
L 327.670338 227.877661 
L 351.104087 211.771793 
L 366.131079 193.796657 
L 369.714975 179.809572 
L 363.810965 168.175195 
L 349.528363 160.010836 
L 322.372889 153.635055 
L 287.216025 150.410027 
L 254.230415 149.558404 
L 220.082234 150.081036 
L 188.724195 151.806641 
L 155.834134 155.531145 
L 127.840668 161.973611 
L 109.398683 171.34348 
L 101.467118 183.364801 
L 103.442158 197.949017 
L 113.147949 212.13625 
L 131.409833 227.145885 
L 157.238214 239.265705 
L 189.429635 244.659669 
L 222.828744 240.78307 
L 253.866908 229.642337 
L 287.0237 210.632652 
L 316.708578 187.167096 
L 333.921103 169.070748 
L 344.344574 152.659394 
L 346.12832 137.956442 
L 337.985479 128.541494 
L 318.819382 122.795448 
L 289.460458 121.499045 
L 257.531719 123.890004 
L 221.90265 129.530703 
L 189.464109 137.532202 
L 156.915884 149.964657 
L 131.288485 167.111328 
L 117.54314 187.333745 
L 114.885208 206.032401 
L 119.491117 224.327816 
L 130.582189 240.97652 
L 148.455152 253.297779 
L 167.366772 256.493917 
L 188.316635 251.716033 
L 211.007865 239.165866 
L 237.648701 217.4712 
L 265.878255 188.647198 
L 286.462013 164.031966 
L 302.675152 140.808937 
L 313.286721 118.151996 
L 314.357985 104.299855 
L 308.588095 94.192005 
L 294.229485 87.423086 
L 270.631827 85.471496 
L 242.410516 88.85752 
L 214.413989 96.808856 
L 190.93915 108.030353 
L 169.035433 125.965184 
L 154.532977 151.465082 
L 150.988173 175.752933 
L 154.221048 201.048162 
L 162.432544 224.43276 
L 175.746041 246.178026 
L 192.834442 260.602613 
L 208.313865 263.77744 
L 224.381798 258.416935 
L 241.245466 244.597474 
L 259.94093 221.015 
L 278.00746 190.371815 
L 290.187875 163.109089 
L 297.711069 137.28111 
L 299.252799 116.107016 
L 294.806643 98.550026 
L 283.416825 84.307568 
L 264.11515 74.220664 
L 242.110007 70.10991 
L 222.14721 70.646653 
L 204.310217 74.796732 
L 187.317213 84.336589 
L 175.851842 100.841179 
L 173.10881 119.573659 
L 176.544443 141.793487 
L 185.285275 166.870973 
L 199.641156 196.00996 
L 216.245748 222.475169 
L 235.523521 245.782111 
L 255.807386 260.556483 
L 271.555325 263.579676 
L 286.410484 258.476371 
L 300.328508 245.545649 
L 313.177905 223.960046 
L 321.742579 196.432475 
L 323.15884 171.613679 
L 317.611413 148.383248 
L 303.157194 126.605623 
L 277.754462 107.678153 
L 247.585128 95.311528 
L 221.572203 89.31755 
L 198.576109 87.14954 
L 176.577045 89.016915 
L 161.36325 96.285722 
L 155.937388 108.285629 
L 159.371752 124.902118 
L 169.789863 144.191736 
L 188.269957 169.141546 
L 212.348503 196.211422 
L 237.054892 219.94412 
L 264.041367 240.584119 
L 291.166585 253.41652 
L 310.478398 255.767509 
L 327.696211 251.510649 
L 342.638145 241.077704 
L 354.482838 224.167784 
L 359.292283 203.148691 
L 353.713359 181.893319 
L 337.742319 164.036052 
L 312.239334 149.429184 
L 272.668462 136.38641 
L 234.455964 128.73462 
L 196.516898 124.450225 
L 167.604846 123.8338 
L 144.79524 126.480233 
L 128.855549 133.601295 
L 123.75914 145.993939 
L 129.476265 161.392108 
L 143.841583 179.461349 
L 165.084634 198.679561 
L 192.282371 217.609467 
L 224.745971 233.759085 
L 260.266605 243.107556 
L 286.525247 243.766042 
L 310.876344 239.081111 
L 335.555003 228.353124 
L 356.72716 212.335634 
L 369.126534 194.612428 
L 370.421947 181.230219 
L 362.763027 170.035076 
L 346.249022 161.567972 
L 316.849553 154.918179 
L 280.122756 151.271156 
L 241.241358 149.886892 
L 209.385175 150.067971 
L 180.202826 151.389752 
L 149.486956 154.704429 
L 123.799039 160.861781 
L 107.606613 170.19808 
L 101.989082 182.50696 
L 106.25024 196.97147 
L 118.538054 211.880333 
L 139.252877 226.99416 
L 167.225297 238.818534 
L 201.11297 243.576529 
L 234.873227 239.196895 
L 266.420114 227.688765 
L 299.177064 208.692549 
L 327.040268 186.093549 
L 342.08468 169.203128 
L 350.081308 154.137214 
L 349.16737 140.883338 
L 338.90674 132.619662 
L 316.918479 127.629446 
L 290.375891 126.805585 
L 259.370709 128.815244 
L 223.727157 133.730364 
L 189.830629 141.049802 
L 156.232711 152.293902 
L 129.535378 167.778253 
L 114.627142 186.058837 
L 110.82317 204.148915 
L 115.042082 222.173045 
L 125.888839 238.273458 
L 143.923425 250.856449 
L 164.302797 254.902699 
L 187.103212 250.586352 
L 210.875989 238.643985 
L 238.744805 217.677363 
L 268.225708 189.553248 
L 289.603224 165.491763 
L 306.466845 142.635558 
L 317.279902 120.673095 
L 318.311649 107.236107 
L 312.27045 97.531995 
L 297.260994 91.174041 
L 272.736631 89.656966 
L 243.959857 93.257362 
L 214.578314 101.370042 
L 189.946825 112.555627 
L 166.573805 130.340318 
L 150.605957 155.475216 
L 146.068083 179.792523 
L 148.81307 204.980721 
L 156.666195 227.401588 
L 169.850357 248.055663 
L 187.037412 261.091133 
L 202.093354 263.112174 
L 217.83159 257.329725 
L 235.359177 242.957216 
L 255.001902 218.871847 
L 274.257712 188.033048 
L 287.859673 160.273601 
L 296.509935 134.987351 
L 299.235498 113.320056 
L 295.364302 95.676856 
L 284.764823 82.535815 
L 266.256956 73.455649 
L 241.969229 70.07903 
L 221.767855 71.812039 
L 203.757614 77.162993 
L 186.655771 88.15814 
L 175.143774 106.327609 
L 172.41445 126.334051 
L 175.807063 149.595884 
L 184.396842 175.324049 
L 198.135337 203.931019 
L 214.701043 230.144748 
L 233.677622 251.529249 
L 253.473445 263.011353 
L 267.977334 263.272672 
L 281.094925 256.883937 
L 295.422688 241.833738 
L 308.490926 218.141515 
L 317.006755 189.23803 
L 318.375193 165.187618 
L 313.53003 142.915361 
L 300.087945 121.282997 
L 276.31924 102.751913 
L 244.507242 89.773422 
L 219.334512 84.541393 
L 197.116338 83.270773 
L 176.963474 86.335356 
L 163.383164 95.25401 
L 159.761419 108.031776 
L 163.939982 124.978068 
L 174.918968 145.494308 
L 193.539862 171.51974 
L 217.00431 199.120159 
L 241.132167 223.37419 
L 267.017064 243.807557 
L 292.519259 255.680462 
L 309.986287 257.171317 
L 325.593728 252.438112 
L 339.823409 241.173606 
L 350.889522 223.247544 
L 355.002563 201.157881 
L 348.96307 178.913825 
L 332.863245 160.206487 
L 305.880634 144.104484 
L 265.77144 130.430147 
L 229.947789 123.005797 
L 194.85479 118.943515 
L 167.38151 118.52349 
L 146.117162 121.525771 
L 131.652165 129.407159 
L 128.194339 140.969196 
L 133.932918 156.126829 
L 148.282365 174.664688 
L 170.542091 195.53843 
L 197.266881 215.15841 
L 229.138188 232.509079 
L 263.850405 243.432814 
L 290.724191 245.283247 
L 315.653663 241.056774 
L 338.733087 231.095403 
L 358.594541 215.669106 
L 370.105104 197.979071 
L 370.755355 184.204762 
L 362.513747 172.607185 
L 344.413286 163.173022 
L 313.688164 155.774395 
L 275.724005 151.335943 
L 235.454053 149.199469 
L 203.656819 148.873711 
L 173.978169 149.853427 
L 145.388095 152.781609 
L 121.595686 158.710197 
L 107.231063 168.117979 
L 103.645803 180.809636 
L 109.67094 195.095073 
L 123.956372 210.567439 
L 146.473089 225.957485 
L 175.963829 237.914183 
L 210.970592 242.710943 
L 245.189355 238.420468 
L 276.644455 227.183372 
L 308.666081 208.772846 
L 335.015826 187.128374 
L 348.732394 170.78867 
L 354.849999 156.414317 
L 351.671755 144.430637 
L 338.50233 136.603322 
L 313.540769 132.404485 
L 286.887801 132.017133 
L 256.652076 133.916404 
L 220.646783 138.445111 
L 186.845933 145.058722 
L 152.703954 155.458036 
L 126.176751 169.580233 
L 111.408483 186.142146 
L 107.459819 204.853767 
L 112.445206 222.064392 
L 124.357651 237.585927 
L 143.668466 249.525459 
L 165.321501 253.166021 
L 189.422396 248.653998 
L 214.741926 236.538259 
L 244.118801 215.520365 
L 274.481686 187.843994 
L 295.685631 164.820447 
L 311.920988 143.281876 
L 321.992227 122.345236 
L 322.054466 109.340319 
L 315.141873 100.757752 
L 298.502002 95.087856 
L 272.325892 94.357364 
L 243.338859 98.33026 
L 212.897707 106.669175 
L 186.925933 118.129486 
L 162.404634 136.115305 
L 145.773863 161.097481 
L 140.961025 184.783599 
L 143.467428 208.959028 
L 151.207572 230.407439 
L 164.503332 249.848677 
L 182.002415 261.319596 
L 196.788152 262.149685 
L 212.101223 256.005416 
L 230.417206 241.065793 
L 251.114401 216.513948 
L 271.574511 185.613877 
L 287.774965 154.934561 
L 297.339994 128.862083 
L 299.986821 108.568492 
L 295.987666 92.376688 
L 285.17085 80.593591 
L 266.376022 72.99508 
L 241.863372 71.112013 
L 221.298052 73.999322 
L 202.908666 80.487061 
L 185.431959 92.854645 
L 173.627973 112.59052 
L 170.777662 133.834466 
L 174.105292 158.082529 
L 182.551524 184.186255 
L 195.23738 211.003965 
L 211.581205 236.433109 
L 230.283672 255.76322 
L 247.710039 263.91453 
L 262.605975 262.569083 
L 276.34661 254.067059 
L 291.177158 236.341203 
L 304.421367 210.283774 
L 312.676351 180.26449 
L 313.679213 155.679917 
L 308.318914 133.564957 
L 294.429375 112.728056 
L 270.820499 95.55246 
L 243.979195 85.194453 
L 220.213874 80.596115 
L 199.094721 79.884094 
L 179.966794 83.51163 
L 166.787633 93.175234 
L 163.328939 106.533516 
L 167.340771 124.018798 
L 177.856568 145.053718 
L 195.674463 171.64733 
L 218.140395 199.84197 
L 241.24903 224.605589 
L 265.961731 245.336811 
L 290.189866 257.1961 
L 306.739193 258.546486 
L 321.591063 253.608824 
L 335.365577 241.863703 
L 346.165206 223.179412 
L 350.328207 200.111935 
L 344.697452 176.763441 
L 329.371369 157.13404 
L 302.69786 139.755802 
L 263.251748 125.234039 
L 229.119167 117.6383 
L 195.786095 113.507746 
L 166.559518 113.287238 
L 146.860576 116.977355 
L 134.506426 126.031869 
L 133.076093 137.719681 
L 139.509291 152.569312 
L 154.729412 172.045535 
L 177.904069 194.142044 
L 204.499304 214.388626 
L 235.945107 232.560109 
L 269.810107 244.344013 
L 296.213516 246.80416 
L 320.460583 242.877964 
L 341.935334 233.336363 
L 360.276763 218.220119 
L 370.536436 200.434197 
L 370.105657 185.877816 
L 360.542726 173.70635 
L 340.571124 163.489119 
L 307.994528 155.343223 
L 268.48436 150.158136 
L 226.956316 147.37185 
L 193.569644 146.711718 
L 163.287429 147.738127 
L 137.032732 151.011708 
L 116.746728 157.675046 
L 106.54549 168.160432 
L 106.660292 180.055438 
L 113.979621 193.114174 
L 130.023106 209.082131 
L 154.092388 224.850097 
L 184.828767 237.095681 
L 220.655661 242.121442 
L 255.150061 238.069954 
L 286.139028 227.277168 
L 317.164989 209.593832 
L 342.001265 188.872698 
L 354.496518 172.900913 
L 358.772097 159.027367 
L 353.597664 148.181166 
L 337.851341 140.767466 
L 310.610426 137.086181 
L 283.73108 136.854641 
L 253.838857 138.534783 
L 217.842348 142.529926 
L 184.202714 148.363561 
L 149.816922 157.750142 
L 123.54589 170.438949 
L 108.869812 185.370832 
L 104.646497 202.592614 
L 109.502734 219.182284 
L 121.486711 234.379812 
L 141.143325 246.684075 
L 167.224631 251.383671 
L 194.097823 246.497006 
L 221.186169 233.968903 
L 252.032558 212.714784 
L 282.38208 185.970174 
L 303.421059 163.571396 
L 318.38119 143.588208 
L 327.004255 123.886746 
L 325.349964 111.407604 
L 315.621107 103.408961 
L 295.41579 99.127688 
L 266.644335 99.909705 
L 236.436312 104.930382 
L 205.881521 113.862126 
L 178.32427 126.615345 
L 153.832993 145.924463 
L 138.889497 171.413984 
L 135.687456 194.091361 
L 139.26254 216.578807 
L 148.286531 237.109899 
L 162.912811 254.069253 
L 181.512367 261.735458 
L 198.317483 258.996128 
L 215.639905 248.629021 
L 236.291057 228.67833 
L 258.680028 200.155894 
L 278.810697 168.88624 
L 293.043684 140.989968 
L 300.915488 115.555002 
L 300.797087 99.139358 
L 295.149064 87.26048 
L 281.773136 77.694039 
L 260.487702 72.905774 
L 238.315388 73.510927 
L 216.068548 78.506233 
L 196.825216 87.437711 
L 179.76369 102.874598 
L 169.660624 125.950988 
L 168.503453 147.440671 
L 172.529308 170.953848 
L 181.760154 197.701706 
L 195.038484 223.843575 
L 211.888095 246.904244 
L 230.731246 261.509508 
L 246.154694 264.398588 
L 261.264516 258.964572 
L 276.337957 245.197548 
L 291.492728 222.053608 
L 303.698226 192.481604 
L 309.26836 165.949645 
L 308.670181 141.045274 
L 301.61367 120.441348 
L 285.773384 101.35788 
L 261.00169 86.720621 
L 236.703188 79.380816 
L 212.377918 76.644024 
L 192.104139 78.41475 
L 175.709882 85.44167 
L 167.105542 99.149937 
L 167.524554 114.308769 
L 173.327344 131.640991 
L 186.108661 155.654297 
L 205.311149 184.122231 
L 226.283214 210.647388 
L 249.173064 234.807904 
L 273.082294 252.862886 
L 292.792507 259.792349 
L 308.579548 258.357736 
L 322.111211 250.726767 
L 334.930897 235.452966 
L 343.614962 213.75127 
L 344.598046 188.966275 
L 336.024891 166.31798 
L 319.05304 147.732892 
L 288.342177 129.740429 
L 247.629697 116.290931 
L 215.234017 110.069932 
L 186.517646 107.543108 
L 160.809104 108.971711 
L 144.062644 115.068115 
L 137.275086 127.0821 
L 141.601562 143.000048 
L 154.034092 161.391563 
L 175.44061 184.204973 
L 199.549463 205.003321 
L 228.813759 225.34592 
L 261.090291 241.147268 
L 293.491215 248.286623 
L 316.686861 246.706883 
L 336.559747 239.837207 
L 355.197257 226.87249 
L 367.822561 209.590957 
L 370.147261 191.612669 
L 361.348061 176.995471 
L 342.067302 165.222758 
L 310.524996 155.644399 
L 270.589102 148.987012 
L 227.93177 145.019407 
L 189.523105 143.599669 
L 157.939073 144.546265 
L 133.499977 148.007737 
L 115.630835 155.198482 
L 108.293028 166.517431 
L 111.878836 180.831852 
L 123.663438 196.041775 
L 143.852034 212.788181 
L 171.369768 228.283179 
L 204.77231 239.072602 
L 236.567717 241.788174 
L 268.165636 237.281984 
L 298.512059 226.223268 
L 327.924032 208.730823 
L 350.122476 188.867878 
L 360.151373 173.708805 
L 361.587586 160.795768 
L 354.024571 151.323662 
L 335.100357 144.458843 
L 305.442558 141.318912 
L 277.782185 141.218797 
L 248.24798 142.702135 
L 212.416737 146.211108 
L 177.478985 151.704166 
L 143.815507 160.369895 
L 119.221047 171.966502 
L 105.961128 185.65005 
L 102.738544 201.945365 
L 108.374503 217.584598 
L 121.460688 232.532593 
L 142.329061 244.68972 
L 169.819994 249.614104 
L 198.500268 245.025297 
L 226.82671 232.866638 
L 258.704897 212.127195 
L 289.580082 186.007527 
L 310.03375 164.736445 
L 324.341514 145.608836 
L 331.82855 126.971366 
L 328.06767 113.99249 
L 315.008835 106.799212 
L 291.178477 103.938931 
L 260.68672 105.949597 
L 227.96422 112.086005 
L 197.854336 121.355919 
L 169.040489 135.276804 
L 145.176055 155.548567 
L 132.320472 180.808026 
L 130.639294 201.908283 
L 135.098664 222.425877 
L 145.356899 241.799041 
L 161.288262 256.339881 
L 178.060703 260.851536 
L 196.445341 256.506392 
L 215.417068 244.191633 
L 237.695087 222.355419 
L 261.460974 192.73644 
L 279.827194 165.611529 
L 294.226131 139.613173 
L 302.965657 114.819054 
L 303.352908 99.260551 
L 297.970458 87.845129 
L 284.827273 79.04026 
L 263.457153 74.962634 
L 240.231861 76.204641 
L 216.636616 81.986173 
L 196.62047 91.460159 
L 178.42382 107.487303 
L 167.042741 131.247711 
L 165.115627 153.985699 
L 168.910405 178.644307 
L 177.681886 204.656029 
L 190.892117 230.244346 
L 207.649024 251.529595 
L 226.387092 263.31781 
L 240.894496 263.840392 
L 254.735477 257.361734 
L 270.449868 241.898037 
L 286.297149 217.068647 
L 299.136105 186.5084 
L 305.313874 159.488094 
L 305.374004 135.123776 
L 299.537063 115.759211 
L 285.521528 97.496727 
L 262.860179 83.471082 
L 239.169394 76.320781 
L 215.117108 74.033882 
L 195.609686 76.267185 
L 179.209333 83.796511 
L 170.111264 98.070179 
L 169.82578 113.252494 
L 174.712325 130.803643 
L 186.068392 154.760033 
L 203.740383 183.430089 
L 223.638703 210.60602 
L 245.39084 235.219889 
L 268.172944 253.629677 
L 287.278965 260.864971 
L 302.653921 259.48966 
L 315.946823 251.745401 
L 328.7902 236.072566 
L 337.889744 213.628171 
L 339.745396 187.861939 
L 332.278073 163.986385 
L 316.945323 144.819643 
L 288.255609 125.934708 
L 249.338917 111.683394 
L 218.594043 105.152489 
L 191.466704 102.366335 
L 166.072484 103.451705 
L 149.24652 109.258931 
L 141.95408 121.144567 
L 145.75291 137.190392 
L 157.413963 155.54698 
L 177.997061 178.853106 
L 203.134823 202.01222 
L 231.379337 223.338478 
L 262.459798 240.619166 
L 293.758915 249.560811 
L 315.222465 249.381195 
L 333.175472 244.277592 
L 351.192033 232.986047 
L 364.630122 216.43535 
L 369.089486 197.655908 
L 362.121386 180.800744 
L 344.544209 167.270073 
L 316.834029 156.543951 
L 277.548917 147.94821 
L 234.105595 142.410736 
L 193.988817 139.877529 
L 164.421112 139.987147 
L 141.082953 142.299905 
L 121.654115 148.226746 
L 111.935042 158.585965 
L 112.870453 170.942103 
L 121.497813 185.011075 
L 138.074528 201.405802 
L 162.633461 218.520601 
L 193.634305 233.01042 
L 229.417853 241.186011 
L 258.973034 241.028671 
L 285.700375 235.404469 
L 315.159256 222.944628 
L 341.649117 205.020441 
L 359.210234 186.136487 
L 364.911574 172.508407 
L 362.128778 161.239842 
L 349.993916 152.755299 
L 325.725343 147.006595 
L 292.833887 144.820687 
L 262.414544 145.094597 
L 231.486656 146.751218 
L 196.088362 150.214806 
L 160.694092 156.009929 
L 130.638615 164.722584 
L 111.055363 176.031816 
L 102.221636 189.170495 
L 102.224614 202.885079 
L 108.830297 216.412745 
L 123.657486 231.264611 
L 146.214352 243.142455 
L 175.388033 247.902892 
L 205.605215 243.282472 
L 235.193734 231.148986 
L 267.918281 210.628649 
L 298.692001 185.168593 
L 318.161487 164.914606 
L 330.997296 147.056874 
L 336.616241 129.713765 
L 331.163646 118.009242 
L 315.883197 111.394063 
L 289.81956 109.285274 
L 258.614906 111.700949 
L 224.628815 118.008522 
L 194.081584 127.065865 
L 164.053296 140.949994 
L 139.828104 160.735515 
L 127.130061 184.746209 
L 125.516446 204.965785 
L 130.171578 224.523216 
L 140.876748 242.887445 
L 157.532893 256.209521 
L 174.587203 259.647432 
L 193.299502 254.830195 
L 213.429215 242.048492 
L 237.071264 219.861187 
L 262.237966 190.222524 
L 281.150459 164.100987 
L 296.102588 139.201337 
L 305.623201 115.052166 
L 306.408576 100.216738 
L 301.070221 89.115994 
L 287.83443 81.020663 
L 266.04766 77.652242 
L 239.350291 79.95614 
L 214.371632 86.933807 
L 193.345567 97.610809 
L 174.48949 115.071418 
L 162.998811 140.277922 
L 161.268384 163.408192 
L 165.188879 187.97111 
L 173.665651 212.497713 
L 187.008363 237.019601 
L 203.875955 255.945238 
L 222.591505 264.301145 
L 238.173687 261.63913 
L 253.253821 251.177936 
L 270.012265 230.975647 
L 286.097853 202.439233 
L 297.977097 170.999223 
L 302.963166 142.946629 
L 300.572806 118.58021 
L 291.360503 100.278142 
L 273.797534 85.156508 
L 248.953756 75.320881 
L 229.061703 72.246656 
L 209.962497 72.678726 
L 191.797404 77.308978 
L 177.466607 87.989919 
L 171.420282 105.482146 
L 174.166418 126.369129 
L 182.553486 148.6725 
L 197.34681 176.578656 
L 216.16652 205.440412 
L 236.40448 231.049522 
L 258.083172 251.375533 
L 279.171122 261.469272 
L 294.181528 261.008422 
L 307.091433 254.304593 
L 320.323585 239.488465 
L 330.71872 217.208164 
L 334.83851 190.732976 
L 331.02198 167.78131 
L 319.382922 147.012673 
L 296.081042 126.783509 
L 261.314137 110.449127 
L 231.167218 102.148799 
L 201.616043 97.77105 
L 175.822132 97.651685 
L 157.816654 101.912381 
L 147.401748 112.213936 
L 147.38603 124.773792 
L 153.862516 139.592837 
L 168.875917 160.649897 
L 191.901529 185.713756 
L 216.133571 207.875514 
L 244.568991 229.257129 
L 274.821917 245.325374 
L 300.526916 251.697487 
L 320.765384 250.567424 
L 337.898394 244.163417 
L 354.000765 231.408956 
L 364.729747 213.638464 
L 365.933172 194.07758 
L 356.33323 177.364035 
L 336.128751 163.285127 
L 303.464992 151.317563 
L 261.471938 142.430933 
L 224.229231 137.632125 
L 188.168674 135.263785 
L 156.52691 135.78612 
L 134.483139 139.262464 
L 119.172991 147.04217 
L 114.924872 159.473801 
L 121.120943 174.324476 
L 135.933363 191.435869 
L 157.856431 209.133374 
L 186.711897 225.918737 
L 220.804204 238.18625 
L 253.501454 242.276247 
L 285.294382 238.691917 
L 313.243519 229.027655 
L 339.841889 213.221901 
L 359.226551 194.710261 
L 367.002931 179.66418 
L 365.858637 168.305458 
L 357.115383 159.674771 
L 336.4092 152.447471 
L 305.180257 148.553158 
L 273.918112 147.575433 
L 240.063593 148.225084 
L 207.021678 150.207762 
L 172.341066 154.022111 
L 140.086803 160.45254 
L 116.577121 169.675565 
L 103.801802 181.345171 
L 100.914468 195.025032 
L 106.598857 209.663165 
L 120.130588 224.572409 
L 141.726208 237.895988 
L 170.316281 245.661657 
L 197.397195 245.213184 
L 224.051929 238.509557 
L 255.706247 223.682274 
L 288.617207 201.377003 
L 313.682711 179.328289 
L 332.030002 157.969507 
L 340.534908 140.951186 
L 339.680945 128.561371 
L 330.386102 120.369318 
L 309.821515 115.471276 
L 284.400764 114.995053 
L 254.722113 117.742934 
L 219.673283 124.202098 
L 189.422664 132.852686 
L 158.372198 146.621965 
L 134.232271 165.711207 
L 122.019732 188.2645 
L 120.624834 207.421227 
L 125.541179 225.885164 
L 136.806993 243.314712 
L 154.318261 255.591037 
L 171.843589 258.227126 
L 191.071829 253.121628 
L 212.452264 240.059279 
L 237.53531 217.715737 
L 264.101846 188.226591 
L 283.85133 162.596029 
L 299.080222 138.845202 
L 308.973312 115.482007 
L 309.752424 101.254589 
L 304.155269 90.823744 
L 290.316295 83.478139 
L 267.633715 80.930328 
L 240.204562 83.923324 
L 213.964662 91.508513 
L 191.853226 102.653109 
L 171.756016 120.607757 
L 159.136834 146.266194 
L 156.803737 170.013369 
L 160.53687 194.943981 
L 169.087502 219.261329 
L 182.530885 242.44955 
L 199.542582 258.98211 
L 215.734993 264.236283 
L 232.400749 259.921124 
L 248.428775 247.340922 
L 266.055214 224.956958 
L 282.852173 194.997108 
L 294.129233 166.861622 
L 300.221431 140.006886 
L 300.043123 118.757586 
L 294.43054 101.869979 
L 281.157592 86.518026 
L 259.937192 75.617445 
L 238.053515 71.113007 
L 215.96671 71.279803 
L 197.772912 75.638864 
L 182.095161 85.740672 
L 173.492264 102.847188 
L 173.2693 120.055051 
L 177.840506 139.256381 
L 188.388341 164.837839 
L 204.551253 194.25684 
L 222.271237 220.527488 
L 242.52129 244.01498 
L 263.572151 259.323925 
L 279.884156 262.900609 
L 295.056419 258.236543 
L 308.661943 246.070035 
L 320.904668 225.55527 
L 328.519663 199.191354 
L 328.795461 174.976587 
L 321.905836 152.701627 
L 305.634744 131.423467 
L 277.559465 112.627174 
L 245.709054 100.601237 
L 217.752111 94.541803 
L 192.934635 92.373944 
L 170.380407 94.420281 
L 155.536737 101.844127 
L 150.914314 113.672501 
L 155.109955 129.861562 
L 166.690542 149.236454 
L 186.645019 173.909988 
L 211.659593 199.638112 
L 238.045231 222.501277 
L 266.671763 241.610066 
L 295.172968 252.445412 
L 314.256985 253.488776 
L 331.301428 248.91668 
L 347.147494 238.209788 
L 359.322467 221.485949 
L 363.698404 201.317543 
L 357.165033 181.738549 
L 340.056006 165.524921 
L 313.282757 152.427504 
L 273.190897 141.083789 
L 234.031626 134.336315 
L 195.191157 130.615861 
L 166.354159 130.179138 
L 143.143522 132.565472 
L 125.798403 139.037496 
L 118.789207 150.513598 
L 123.040974 165.467472 
L 135.84351 182.277473 
L 154.877989 199.621529 
L 181.384233 217.807387 
L 213.636321 233.261058 
L 249.599017 242.080194 
L 277.367399 242.373913 
L 302.518036 237.360086 
L 329.096522 226.022985 
L 352.242868 209.410265 
L 366.462429 191.453509 
L 369.260169 177.958392 
L 362.903832 166.829905 
L 347.402309 158.659825 
L 319.385251 152.715583 
L 283.965675 149.909107 
L 252.065724 149.352723 
L 219.236393 150.067284 
L 187.377081 152.030258 
L 154.274808 156.082581 
L 126.580145 162.88188 
L 108.684654 172.555735 
L 101.2724 184.760628 
L 103.672566 199.538252 
L 113.8155 213.86543 
L 132.465355 228.721916 
L 158.610362 240.359063 
L 191.008113 244.905077 
L 223.673471 240.273618 
L 254.954736 228.327887 
L 288.1165 208.574881 
L 317.31887 184.835603 
L 333.814563 167.026383 
L 343.57207 151.223443 
L 345.481352 137.820421 
L 338.284884 128.136444 
L 320.312336 122.045999 
L 291.770273 120.379011 
L 259.710359 122.601984 
L 224.462851 128.096942 
L 191.524506 136.178451 
L 159.05889 148.516416 
L 133.016377 165.717548 
L 118.739116 186.187701 
L 115.736547 205.227154 
L 120.137638 223.895463 
L 130.934539 240.706405 
L 148.482133 253.316229 
L 167.274608 256.789136 
L 188.135459 252.136102 
L 210.499515 239.725388 
L 236.803072 218.149007 
L 264.786746 189.332656 
L 285.349131 164.550005 
L 301.702036 140.985036 
L 312.41441 118.128453 
L 313.623795 104.021329 
L 307.945615 93.707781 
L 293.785502 86.816166 
L 270.436114 84.724441 
L 242.342709 88.013855 
L 214.591281 95.889935 
L 191.357358 107.04927 
L 169.70113 124.925663 
L 155.39516 150.401364 
L 151.954412 174.681863 
L 155.231412 200.019733 
L 163.460196 223.557745 
L 176.75805 245.549488 
L 193.803958 260.341422 
L 209.403075 263.861154 
L 225.578669 258.656714 
L 242.29801 245.033842 
L 260.805925 221.644453 
L 278.66384 191.099122 
L 290.713331 163.670191 
L 298.023438 137.655913 
L 299.312445 116.679948 
L 294.762363 99.22231 
L 283.205108 84.770169 
L 263.727968 74.4914 
L 241.725269 70.238708 
L 221.715221 70.641209 
L 203.849397 74.694791 
L 186.953345 84.142331 
L 175.704419 100.546708 
L 173.174268 119.01263 
L 176.721561 140.922711 
L 185.617176 165.976873 
L 200.15931 195.150155 
L 216.837722 221.580744 
L 236.211906 245.05184 
L 256.591952 260.154453 
L 272.5391 263.490293 
L 287.552285 258.561057 
L 301.403494 245.882078 
L 314.180181 224.579055 
L 322.670319 197.284379 
L 324.005385 172.490527 
L 318.299547 149.253031 
L 303.639219 127.510316 
L 277.908354 108.551286 
L 247.474985 96.170129 
L 221.198092 90.133031 
L 197.956194 87.929196 
L 175.826602 89.774067 
L 160.613491 97.002692 
L 155.2297 108.946107 
L 158.733246 125.487697 
L 169.274157 144.744875 
L 187.929807 169.625007 
L 212.161182 196.52785 
L 237.089404 220.139919 
L 264.304405 240.599455 
L 264.304405 240.599455 
" clip-path="url(#p1c3758d549)" style="fill: none; stroke: #1f77b4; stroke-width: 0.5; stroke-linecap: square"/>
   </g>
   <g id="patch_3">
    <path d="M 57.6 307.584 
L 57.6 41.472 
" style="fill: none; stroke: #000000; stroke-width: 0.8; stroke-linejoin: miter; stroke-linecap: square"/>
   </g>
   <g id="patch_4">
    <path d="M 414.72 307.584 
L 414.72 41.472 
" style="fill: none; stroke: #000000; stroke-width: 0.8; stroke-linejoin: miter; stroke-linecap: square"/>
   </g>
   <g id="patch_5">
    <path d="M 57.6 307.584 
L 414.72 307.584 
" style="fill: none; stroke: #000000; stroke-width: 0.8; stroke-linejoin: miter; stroke-linecap: square"/>
   </g>
   <g id="patch_6">
    <path d="M 57.6 41.472 
L 414.72 41.472 
" style="fill: none; stroke: #000000; stroke-width: 0.8; stroke-linejoin: miter; stroke-linecap: square"/>
   </g>
   <g id="text_13">
    <!-- Real Space Projection onto r-z plane with initial r = -0.24 -->
    <g transform="translate(66.41625 35.472) scale(0.12 -0.12)">
     <defs>
      <path id="DejaVuSans-52" d="M 2841 2188 
Q 3044 2119 3236 1894 
Q 3428 1669 3622 1275 
L 4263 0 
L 3584 0 
L 2988 1197 
Q 2756 1666 2539 1819 
Q 2322 1972 1947 1972 
L 1259 1972 
L 1259 0 
L 628 0 
L 628 4666 
L 2053 4666 
Q 2853 4666 3247 4331 
Q 3641 3997 3641 3322 
Q 3641 2881 3436 2590 
Q 3231 2300 2841 2188 
z
M 1259 4147 
L 1259 2491 
L 2053 2491 
Q 2509 2491 2742 2702 
Q 2975 2913 2975 3322 
Q 2975 3731 2742 3939 
Q 2509 4147 2053 4147 
L 1259 4147 
z
" transform="scale(0.015625)"/>
      <path id="DejaVuSans-65" d="M 3597 1894 
L 3597 1613 
L 953 1613 
Q 991 1019 1311 708 
Q 1631 397 2203 397 
Q 2534 397 2845 478 
Q 3156 559 3463 722 
L 3463 178 
Q 3153 47 2828 -22 
Q 2503 -91 2169 -91 
Q 1331 -91 842 396 
Q 353 884 353 1716 
Q 353 2575 817 3079 
Q 1281 3584 2069 3584 
Q 2775 3584 3186 3129 
Q 3597 2675 3597 1894 
z
M 3022 2063 
Q 3016 2534 2758 2815 
Q 2500 3097 2075 3097 
Q 1594 3097 1305 2825 
Q 1016 2553 972 2059 
L 3022 2063 
z
" transform="scale(0.015625)"/>
      <path id="DejaVuSans-61" d="M 2194 1759 
Q 1497 1759 1228 1600 
Q 959 1441 959 1056 
Q 959 750 1161 570 
Q 1363 391 1709 391 
Q 2188 391 2477 730 
Q 2766 1069 2766 1631 
L 2766 1759 
L 2194 1759 
z
M 3341 1997 
L 3341 0 
L 2766 0 
L 2766 531 
Q 2569 213 2275 61 
Q 1981 -91 1556 -91 
Q 1019 -91 701 211 
Q 384 513 384 1019 
Q 384 1609 779 1909 
Q 1175 2209 1959 2209 
L 2766 2209 
L 2766 2266 
Q 2766 2663 2505 2880 
Q 2244 3097 1772 3097 
Q 1472 3097 1187 3025 
Q 903 2953 641 2809 
L 641 3341 
Q 956 3463 1253 3523 
Q 1550 3584 1831 3584 
Q 2591 3584 2966 3190 
Q 3341 2797 3341 1997 
z
" transform="scale(0.015625)"/>
      <path id="DejaVuSans-6c" d="M 603 4863 
L 1178 4863 
L 1178 0 
L 603 0 
L 603 4863 
z
" transform="scale(0.015625)"/>
      <path id="DejaVuSans-20" transform="scale(0.015625)"/>
      <path id="DejaVuSans-53" d="M 3425 4513 
L 3425 3897 
Q 3066 4069 2747 4153 
Q 2428 4238 2131 4238 
Q 1616 4238 1336 4038 
Q 1056 3838 1056 3469 
Q 1056 3159 1242 3001 
Q 1428 2844 1947 2747 
L 2328 2669 
Q 3034 2534 3370 2195 
Q 3706 1856 3706 1288 
Q 3706 609 3251 259 
Q 2797 -91 1919 -91 
Q 1588 -91 1214 -16 
Q 841 59 441 206 
L 441 856 
Q 825 641 1194 531 
Q 1563 422 1919 422 
Q 2459 422 2753 634 
Q 3047 847 3047 1241 
Q 3047 1584 2836 1778 
Q 2625 1972 2144 2069 
L 1759 2144 
Q 1053 2284 737 2584 
Q 422 2884 422 3419 
Q 422 4038 858 4394 
Q 1294 4750 2059 4750 
Q 2388 4750 2728 4690 
Q 3069 4631 3425 4513 
z
" transform="scale(0.015625)"/>
      <path id="DejaVuSans-70" d="M 1159 525 
L 1159 -1331 
L 581 -1331 
L 581 3500 
L 1159 3500 
L 1159 2969 
Q 1341 3281 1617 3432 
Q 1894 3584 2278 3584 
Q 2916 3584 3314 3078 
Q 3713 2572 3713 1747 
Q 3713 922 3314 415 
Q 2916 -91 2278 -91 
Q 1894 -91 1617 61 
Q 1341 213 1159 525 
z
M 3116 1747 
Q 3116 2381 2855 2742 
Q 2594 3103 2138 3103 
Q 1681 3103 1420 2742 
Q 1159 2381 1159 1747 
Q 1159 1113 1420 752 
Q 1681 391 2138 391 
Q 2594 391 2855 752 
Q 3116 1113 3116 1747 
z
" transform="scale(0.015625)"/>
      <path id="DejaVuSans-63" d="M 3122 3366 
L 3122 2828 
Q 2878 2963 2633 3030 
Q 2388 3097 2138 3097 
Q 1578 3097 1268 2742 
Q 959 2388 959 1747 
Q 959 1106 1268 751 
Q 1578 397 2138 397 
Q 2388 397 2633 464 
Q 2878 531 3122 666 
L 3122 134 
Q 2881 22 2623 -34 
Q 2366 -91 2075 -91 
Q 1284 -91 818 406 
Q 353 903 353 1747 
Q 353 2603 823 3093 
Q 1294 3584 2113 3584 
Q 2378 3584 2631 3529 
Q 2884 3475 3122 3366 
z
" transform="scale(0.015625)"/>
      <path id="DejaVuSans-50" d="M 1259 4147 
L 1259 2394 
L 2053 2394 
Q 2494 2394 2734 2622 
Q 2975 2850 2975 3272 
Q 2975 3691 2734 3919 
Q 2494 4147 2053 4147 
L 1259 4147 
z
M 628 4666 
L 2053 4666 
Q 2838 4666 3239 4311 
Q 3641 3956 3641 3272 
Q 3641 2581 3239 2228 
Q 2838 1875 2053 1875 
L 1259 1875 
L 1259 0 
L 628 0 
L 628 4666 
z
" transform="scale(0.015625)"/>
      <path id="DejaVuSans-6f" d="M 1959 3097 
Q 1497 3097 1228 2736 
Q 959 2375 959 1747 
Q 959 1119 1226 758 
Q 1494 397 1959 397 
Q 2419 397 2687 759 
Q 2956 1122 2956 1747 
Q 2956 2369 2687 2733 
Q 2419 3097 1959 3097 
z
M 1959 3584 
Q 2709 3584 3137 3096 
Q 3566 2609 3566 1747 
Q 3566 888 3137 398 
Q 2709 -91 1959 -91 
Q 1206 -91 779 398 
Q 353 888 353 1747 
Q 353 2609 779 3096 
Q 1206 3584 1959 3584 
z
" transform="scale(0.015625)"/>
      <path id="DejaVuSans-6a" d="M 603 3500 
L 1178 3500 
L 1178 -63 
Q 1178 -731 923 -1031 
Q 669 -1331 103 -1331 
L -116 -1331 
L -116 -844 
L 38 -844 
Q 366 -844 484 -692 
Q 603 -541 603 -63 
L 603 3500 
z
M 603 4863 
L 1178 4863 
L 1178 4134 
L 603 4134 
L 603 4863 
z
" transform="scale(0.015625)"/>
      <path id="DejaVuSans-74" d="M 1172 4494 
L 1172 3500 
L 2356 3500 
L 2356 3053 
L 1172 3053 
L 1172 1153 
Q 1172 725 1289 603 
Q 1406 481 1766 481 
L 2356 481 
L 2356 0 
L 1766 0 
Q 1100 0 847 248 
Q 594 497 594 1153 
L 594 3053 
L 172 3053 
L 172 3500 
L 594 3500 
L 594 4494 
L 1172 4494 
z
" transform="scale(0.015625)"/>
      <path id="DejaVuSans-69" d="M 603 3500 
L 1178 3500 
L 1178 0 
L 603 0 
L 603 3500 
z
M 603 4863 
L 1178 4863 
L 1178 4134 
L 603 4134 
L 603 4863 
z
" transform="scale(0.015625)"/>
      <path id="DejaVuSans-6e" d="M 3513 2113 
L 3513 0 
L 2938 0 
L 2938 2094 
Q 2938 2591 2744 2837 
Q 2550 3084 2163 3084 
Q 1697 3084 1428 2787 
Q 1159 2491 1159 1978 
L 1159 0 
L 581 0 
L 581 3500 
L 1159 3500 
L 1159 2956 
Q 1366 3272 1645 3428 
Q 1925 3584 2291 3584 
Q 2894 3584 3203 3211 
Q 3513 2838 3513 2113 
z
" transform="scale(0.015625)"/>
      <path id="DejaVuSans-2d" d="M 313 2009 
L 1997 2009 
L 1997 1497 
L 313 1497 
L 313 2009 
z
" transform="scale(0.015625)"/>
      <path id="DejaVuSans-77" d="M 269 3500 
L 844 3500 
L 1563 769 
L 2278 3500 
L 2956 3500 
L 3675 769 
L 4391 3500 
L 4966 3500 
L 4050 0 
L 3372 0 
L 2619 2869 
L 1863 0 
L 1184 0 
L 269 3500 
z
" transform="scale(0.015625)"/>
      <path id="DejaVuSans-68" d="M 3513 2113 
L 3513 0 
L 2938 0 
L 2938 2094 
Q 2938 2591 2744 2837 
Q 2550 3084 2163 3084 
Q 1697 3084 1428 2787 
Q 1159 2491 1159 1978 
L 1159 0 
L 581 0 
L 581 4863 
L 1159 4863 
L 1159 2956 
Q 1366 3272 1645 3428 
Q 1925 3584 2291 3584 
Q 2894 3584 3203 3211 
Q 3513 2838 3513 2113 
z
" transform="scale(0.015625)"/>
      <path id="DejaVuSans-3d" d="M 678 2906 
L 4684 2906 
L 4684 2381 
L 678 2381 
L 678 2906 
z
M 678 1631 
L 4684 1631 
L 4684 1100 
L 678 1100 
L 678 1631 
z
" transform="scale(0.015625)"/>
     </defs>
     <use xlink:href="#DejaVuSans-52"/>
     <use xlink:href="#DejaVuSans-65" x="64.982422"/>
     <use xlink:href="#DejaVuSans-61" x="126.505859"/>
     <use xlink:href="#DejaVuSans-6c" x="187.785156"/>
     <use xlink:href="#DejaVuSans-20" x="215.568359"/>
     <use xlink:href="#DejaVuSans-53" x="247.355469"/>
     <use xlink:href="#DejaVuSans-70" x="310.832031"/>
     <use xlink:href="#DejaVuSans-61" x="374.308594"/>
     <use xlink:href="#DejaVuSans-63" x="435.587891"/>
     <use xlink:href="#DejaVuSans-65" x="490.568359"/>
     <use xlink:href="#DejaVuSans-20" x="552.091797"/>
     <use xlink:href="#DejaVuSans-50" x="583.878906"/>
     <use xlink:href="#DejaVuSans-72" x="642.431641"/>
     <use xlink:href="#DejaVuSans-6f" x="681.294922"/>
     <use xlink:href="#DejaVuSans-6a" x="742.476562"/>
     <use xlink:href="#DejaVuSans-65" x="770.259766"/>
     <use xlink:href="#DejaVuSans-63" x="831.783203"/>
     <use xlink:href="#DejaVuSans-74" x="886.763672"/>
     <use xlink:href="#DejaVuSans-69" x="925.972656"/>
     <use xlink:href="#DejaVuSans-6f" x="953.755859"/>
     <use xlink:href="#DejaVuSans-6e" x="1014.9375"/>
     <use xlink:href="#DejaVuSans-20" x="1078.316406"/>
     <use xlink:href="#DejaVuSans-6f" x="1110.103516"/>
     <use xlink:href="#DejaVuSans-6e" x="1171.285156"/>
     <use xlink:href="#DejaVuSans-74" x="1234.664062"/>
     <use xlink:href="#DejaVuSans-6f" x="1273.873047"/>
     <use xlink:href="#DejaVuSans-20" x="1335.054688"/>
     <use xlink:href="#DejaVuSans-72" x="1366.841797"/>
     <use xlink:href="#DejaVuSans-2d" x="1401.580078"/>
     <use xlink:href="#DejaVuSans-7a" x="1437.664062"/>
     <use xlink:href="#DejaVuSans-20" x="1490.154297"/>
     <use xlink:href="#DejaVuSans-70" x="1521.941406"/>
     <use xlink:href="#DejaVuSans-6c" x="1585.417969"/>
     <use xlink:href="#DejaVuSans-61" x="1613.201172"/>
     <use xlink:href="#DejaVuSans-6e" x="1674.480469"/>
     <use xlink:href="#DejaVuSans-65" x="1737.859375"/>
     <use xlink:href="#DejaVuSans-20" x="1799.382812"/>
     <use xlink:href="#DejaVuSans-77" x="1831.169922"/>
     <use xlink:href="#DejaVuSans-69" x="1912.957031"/>
     <use xlink:href="#DejaVuSans-74" x="1940.740234"/>
     <use xlink:href="#DejaVuSans-68" x="1979.949219"/>
     <use xlink:href="#DejaVuSans-20" x="2043.328125"/>
     <use xlink:href="#DejaVuSans-69" x="2075.115234"/>
     <use xlink:href="#DejaVuSans-6e" x="2102.898438"/>
     <use xlink:href="#DejaVuSans-69" x="2166.277344"/>
     <use xlink:href="#DejaVuSans-74" x="2194.060547"/>
     <use xlink:href="#DejaVuSans-69" x="2233.269531"/>
     <use xlink:href="#DejaVuSans-61" x="2261.052734"/>
     <use xlink:href="#DejaVuSans-6c" x="2322.332031"/>
     <use xlink:href="#DejaVuSans-20" x="2350.115234"/>
     <use xlink:href="#DejaVuSans-72" x="2381.902344"/>
     <use xlink:href="#DejaVuSans-20" x="2423.015625"/>
     <use xlink:href="#DejaVuSans-3d" x="2454.802734"/>
     <use xlink:href="#DejaVuSans-20" x="2538.591797"/>
     <use xlink:href="#DejaVuSans-2d" x="2570.378906"/>
     <use xlink:href="#DejaVuSans-30" x="2606.462891"/>
     <use xlink:href="#DejaVuSans-2e" x="2670.085938"/>
     <use xlink:href="#DejaVuSans-32" x="2701.873047"/>
     <use xlink:href="#DejaVuSans-34" x="2765.496094"/>
    </g>
   </g>
  </g>
 </g>
 <defs>
  <clipPath id="p1c3758d549">
   <rect x="57.6" y="41.472" width="357.12" height="266.112"/>
  </clipPath>
 </defs>
</svg>
